<svg xmlns="http://www.w3.org/2000/svg" width="47.77" height="66" viewBox="0 0 47.77 66">
  <g id="cinta-de-medida" transform="translate(-9.115)">
    <g id="Grupo_57367" data-name="Grupo 57367">
      <path id="Trazado_109094" data-name="Trazado 109094" d="M26.749,33H43.417V50.449H26.749Z" fill="#e3a93f"/>
    </g>
    <g id="Grupo_57368" data-name="Grupo 57368">
      <path id="Trazado_109095" data-name="Trazado 109095" d="M26.75,50.449A16.668,16.668,0,0,1,10.082,33.781V17.635a16.668,16.668,0,1,1,33.335,0V33.781A16.668,16.668,0,0,1,26.75,50.449Z" fill="#ffd064"/>
    </g>
    <g id="Grupo_57369" data-name="Grupo 57369">
      <path id="Trazado_109096" data-name="Trazado 109096" d="M26.749,46.282a12.515,12.515,0,0,1-12.5-12.5V17.634a12.5,12.5,0,0,1,25,0V33.781A12.515,12.515,0,0,1,26.749,46.282Z" fill="#ffc250"/>
    </g>
    <g id="Grupo_57370" data-name="Grupo 57370">
      <path id="Trazado_109097" data-name="Trazado 109097" d="M26.749,42.115a8.343,8.343,0,0,1-8.334-8.334V17.635a8.334,8.334,0,1,1,16.668,0V33.781a8.343,8.343,0,0,1-8.334,8.334Z" fill="#ebb044"/>
    </g>
    <g id="Grupo_57371" data-name="Grupo 57371">
      <path id="Trazado_109098" data-name="Trazado 109098" d="M26.749,37.948a4.172,4.172,0,0,1-4.167-4.167V17.634a4.167,4.167,0,0,1,8.334,0V33.781A4.171,4.171,0,0,1,26.749,37.948Z" fill="#e3a93f"/>
    </g>
    <g id="Grupo_57372" data-name="Grupo 57372">
      <path id="Trazado_109099" data-name="Trazado 109099" d="M39.25.967h-12.5A16.668,16.668,0,0,1,43.417,17.635V60.866h12.5V17.635A16.668,16.668,0,0,0,39.25.967Z" fill="#ffe07d"/>
    </g>
    <g id="Grupo_57373" data-name="Grupo 57373">
      <path id="Trazado_109100" data-name="Trazado 109100" d="M52.532,7.565v53.3h3.386V17.635a16.594,16.594,0,0,0-3.386-10.07Z" fill="#ffd064"/>
    </g>
    <g id="Grupo_57374" data-name="Grupo 57374">
      <path id="Trazado_109101" data-name="Trazado 109101" d="M51.751,60.866a2.084,2.084,0,1,0-4.167,0H43.417v4.167h12.5V60.866Z" fill="#b6c4cf"/>
    </g>
    <g id="Grupo_57375" data-name="Grupo 57375">
      <path id="Trazado_109102" data-name="Trazado 109102" d="M52.532,60.866h3.386v4.167H52.532Z" fill="#9facba"/>
    </g>
    <g id="Grupo_57376" data-name="Grupo 57376">
      <path id="Trazado_109103" data-name="Trazado 109103" d="M56.885,17.634A17.654,17.654,0,0,0,39.251,0h-12.5A17.655,17.655,0,0,0,9.115,17.635V33.781A17.655,17.655,0,0,0,26.75,51.416h15.7V53.9a.967.967,0,0,0,1.934,0V33.821c0-.013,0-.026,0-.04V17.634a17.725,17.725,0,0,0-9.61-15.7h4.477A15.728,15.728,0,0,1,54.089,12.5H52.532a.967.967,0,0,0,0,1.934h2.091a15.659,15.659,0,0,1,.3,2.233H53.834a.967.967,0,0,0,0,1.934h1.117v2.233H53.834a.967.967,0,0,0,0,1.934h1.117V25H53.834a.967.967,0,0,0,0,1.934h1.117v2.233H52.532a.967.967,0,0,0,0,1.934h2.419v2.233H53.834a.967.967,0,0,0,0,1.934h1.117V37.5H53.834a.967.967,0,0,0,0,1.934h1.117v2.233H53.834a.967.967,0,0,0,0,1.934h1.117v2.233H52.532a.967.967,0,0,0,0,1.934h2.419V50H53.834a.967.967,0,0,0,0,1.934h1.117V54.17H53.834a.967.967,0,0,0,0,1.934h1.117v3.8h-2.39a3.051,3.051,0,0,0-5.786,0H44.383V58.41a.967.967,0,0,0-1.934,0v6.623a.967.967,0,0,0,.967.967h12.5a.967.967,0,0,0,.967-.967ZM11.049,33.781V17.635a15.7,15.7,0,1,1,31.4,0V33.821a15.7,15.7,0,0,1-31.4-.04Zm31.4,15.7H34.774a17.757,17.757,0,0,0,7.676-7.676Zm12.5,14.584H44.384V61.833h3.2a.967.967,0,0,0,.967-.967,1.117,1.117,0,1,1,2.233,0,.967.967,0,0,0,.967.967h3.2v2.233Z"/>
      <path id="Trazado_109104" data-name="Trazado 109104" d="M40.217,33.781V17.634a13.467,13.467,0,0,0-26.935,0v2.279a.967.967,0,0,0,1.934,0V17.634a11.534,11.534,0,0,1,23.068,0V33.781a11.534,11.534,0,1,1-23.068,0V24.425a.967.967,0,1,0-1.934,0v9.356a13.467,13.467,0,1,0,26.935,0Z"/>
      <path id="Trazado_109105" data-name="Trazado 109105" d="M35.083,29.455a.967.967,0,0,0,.967-.967V17.634a9.3,9.3,0,1,0-18.6,0V33.781a9.3,9.3,0,1,0,18.6,0V33a.967.967,0,0,0-1.934,0v.781a7.367,7.367,0,1,1-14.734,0V17.634a7.367,7.367,0,1,1,14.734,0V28.488a.967.967,0,0,0,.967.967Z"/>
      <path id="Trazado_109106" data-name="Trazado 109106" d="M21.616,17.635V33.781a5.134,5.134,0,1,0,10.267,0V17.635a5.134,5.134,0,0,0-10.267,0Zm8.334,0V33.781a3.2,3.2,0,1,1-6.4,0V17.635a3.2,3.2,0,0,1,6.4,0Z"/>
    </g>
  </g>
</svg>
