<svg xmlns="http://www.w3.org/2000/svg" width="400" height="349" viewBox="0 0 400 349">
  <g id="Grupo_57505" data-name="Grupo 57505" transform="translate(-915 -1244)">
    <g id="Grupo_57504" data-name="Grupo 57504">
      <g id="Grupo_57121" data-name="Grupo 57121" transform="translate(-105 -72.47)">
        <g id="Grupo_56816" data-name="Grupo 56816" transform="translate(1045.973 1317.264)">
          <g id="Grupo_57120" data-name="Grupo 57120" transform="translate(0 0)">
            <g id="Grupo_56814" data-name="Grupo 56814" transform="translate(247.685)">
              <path id="Trazado_107921" data-name="Trazado 107921" d="M372.016,64.712,395,215.9s-5.3,15.914-32.271,15.031L359.145-.55l.286-.475Z" transform="translate(-308.354 32.104)" fill="#fba41c"/>
              <path id="Trazado_107922" data-name="Trazado 107922" d="M393.825,144.609c-2.255,8.3-13.519,17.358-32.271,15.031C367.013,158.915,386.212,158.383,393.825,144.609Z" transform="translate(-307.175 102.471)" fill="#f15a24"/>
              <path id="Trazado_107923" data-name="Trazado 107923" d="M363.681,55.741,328.313,225.959s1.217,9.684,12.49,23.548S388.88,261.39,388.88,261.39L373.682-3.785l-1.548,5.029Z" transform="translate(-323.448 30.753)" fill="#fba41c"/>
              <path id="Trazado_107924" data-name="Trazado 107924" d="M389.9,186.355s12.378-3.1,18.125-11.495L358.734-3.878Z" transform="translate(-308.556 30.708)" fill="#f7931e"/>
              <g id="Grupo_56813" data-name="Grupo 56813" transform="translate(0 26.968)">
                <path id="Trazado_107925" data-name="Trazado 107925" d="M375.28-3.785,325.049,158.9s49.513,18.457,47.855,40.008l6.962,1.99Z" transform="translate(-325.046 3.785)" fill="#f7931e"/>
                <path id="Trazado_107926" data-name="Trazado 107926" d="M372.918,145.319a16.394,16.394,0,0,0-2.068-7.732c-4.133-7.866-14.733-15.517-25.507-21.755-4.171-2.412-8.368-4.616-12.229-6.529-2.942-1.466-5.683-2.768-8.067-3.87,2.531.792,5.336,1.8,8.286,3a130.02,130.02,0,0,1,12.3,5.711c11.328,6.019,22.164,14.087,26.025,23.064A15.744,15.744,0,0,1,372.918,145.319Z" transform="translate(-325.047 57.253)" fill="#f15a24"/>
                <path id="Trazado_107927" data-name="Trazado 107927" d="M370.967.353c-.076.456,1.75-10.329-28.275,166.923-4.171-2.412-8.368-4.616-12.229-6.529C358.989,47.786,369.978,4.272,370.967.353Z" transform="translate(-322.396 5.808)" fill="#d1c3ad" style="mix-blend-mode: multiply;isolation: isolate"/>
              </g>
              <path id="Trazado_107928" data-name="Trazado 107928" d="M363.681,55.741,328.313,225.959s1.217,9.684,12.49,23.548S388.88,261.39,388.88,261.39L373.682-3.785l-1.548,5.029Z" transform="translate(-323.448 30.753)" fill="#fba41c"/>
              <path id="Trazado_107929" data-name="Trazado 107929" d="M341.131,252.638c7.9,4.281,19.087,5.89,27.85,6.458l-1-254.858-.213-3.72Z" transform="translate(-317.173 32.859)" fill="#d1c3ad" style="mix-blend-mode: multiply;isolation: isolate"/>
              <path id="Trazado_107930" data-name="Trazado 107930" d="M355.342-2.929l3.965,9.409,2.951.021,2.7-10.758c1.186-3.259.859-9.219-2.561-9.789-2.211-.369-2.005-.582-4.667-.058C354.18-13.4,353.785-6.2,355.342-2.929Z" transform="translate(-310.64 25.548)" fill="#fbb03b"/>
              <path id="Trazado_107931" data-name="Trazado 107931" d="M355.938-18.339c.982,4.348,2.163,11.541-.1,13.8l2.765,7.4h1.989L363.8-4.647s-4.2-3.426-2.873-10.168c.292-1.487.526-2.668.712-3.6a2.907,2.907,0,0,0-2.946-3.469h0A2.91,2.91,0,0,0,355.938-18.339Z" transform="translate(-309.972 21.89)" fill="#9ca6c2"/>
              <path id="Trazado_107932" data-name="Trazado 107932" d="M359.071-21.41a2.165,2.165,0,0,0-2.276.569c-.8,1.053-.284,3.728.4,3.956s.285-3.5,1.053-3.587S359.868-20.757,359.071-21.41Z" transform="translate(-309.703 22.07)" fill="#b2bcdb"/>
              <path id="Trazado_107933" data-name="Trazado 107933" d="M360.593-2.8l3.206-7.515c-5.161,5.513-7.959.11-7.959.11L358.6-2.8Z" transform="translate(-309.972 27.557)" fill="#919aba"/>
              <path id="Trazado_107934" data-name="Trazado 107934" d="M360.593-2.8l3.206-7.515c-5.161,5.513-7.959.11-7.959.11L358.6-2.8Z" transform="translate(-309.972 27.557)" fill="#919aba"/>
              <path id="Trazado_107935" data-name="Trazado 107935" d="M361.179-5.993l-1.822,4.272h-.994a21.914,21.914,0,0,0,1.522-5.446v-.009a32.5,32.5,0,0,0,.381-5.336l.655,4.725Z" transform="translate(-308.737 26.481)" fill="#919aba" opacity="0.68" style="mix-blend-mode: multiply;isolation: isolate"/>
              <path id="Trazado_107936" data-name="Trazado 107936" d="M357.356-13.073A35.046,35.046,0,0,0,358.077-2.9c1.214,5.084-2.315-3.606-2.58-5.616S357.356-13.073,357.356-13.073Z" transform="translate(-310.151 26.206)" fill="#fbb03b"/>
              <path id="Trazado_107937" data-name="Trazado 107937" d="M360.153-12.135a22.9,22.9,0,0,1-.91,10.789c-1.935,5.867,1.1,1.922,1.1,1.922s3.529-7.741,2.695-10.358S360.21-14.764,360.153-12.135Z" transform="translate(-308.622 26.104)" fill="#fbb03b"/>
              <path id="Trazado_107938" data-name="Trazado 107938" d="M328.313,151.138c1.455,5.911,5.12,12.232,8.615,17.215,4.795,7.007,6.973,8.484,9.728,10.239,11.254,6.45,29.088,7.862,42.223,8.134a105.725,105.725,0,0,1-19.529,0c-22.929-2.218-28.588-9.5-33.6-17.583a54.026,54.026,0,0,1-6.378-13.233A24.553,24.553,0,0,1,328.313,151.138Z" transform="translate(-323.448 105.416)" fill="#f15a24"/>
              <path id="Trazado_107939" data-name="Trazado 107939" d="M365.4-3.859,345.23,257.823s4.421,25.1,20.778,39.632c0,0,12.378-10.128,22.1-33.467S365.4-3.859,365.4-3.859Z" transform="translate(-315.166 30.717)" fill="#fbb03b"/>
              <path id="Trazado_107940" data-name="Trazado 107940" d="M366.033,211.07c-10.546-10.2-17.2-24.515-20.8-38.563a55.341,55.341,0,0,0,1.078,5.61c5.681,24.2,19.188,34.771,19.668,35.4,8.508-7.935,15.6-17.581,22.136-34.82C388.113,178.7,377.809,200.4,366.033,211.07Z" transform="translate(-315.166 115.877)" fill="#f15a24"/>
              <path id="Trazado_107941" data-name="Trazado 107941" d="M364.941,12.017S346.426,241.643,348.7,249.838s6.83,17.757,12.293,18.669,13.2-6.375,19.123-28.684S364.941,12.017,364.941,12.017Z" transform="translate(-313.562 37.31)" fill="#fbe0b5" opacity="0.19" style="mix-blend-mode: screen;isolation: isolate"/>
            </g>
            <g id="Grupo_56815" data-name="Grupo 56815" transform="translate(0 2.297)">
              <g id="Grupo_56620" data-name="Grupo 56620" transform="translate(0 0)">
                <path id="Trazado_107813" data-name="Trazado 107813" d="M88.758,22.789,92.019,35.7h2.707l2.4-13.107a3.069,3.069,0,0,0-3.009-3.621l-2.371-.007A3.068,3.068,0,0,0,88.758,22.789Z" transform="translate(-42.88 -18.969)" fill="#9ca6c2"/>
                <path id="Trazado_107814" data-name="Trazado 107814" d="M98.96,224.569s23.2-6.141,26.268-13.533l-1.592-10.689L96.8,190.225Z" transform="translate(-41.306 35.89)" fill="#2e3192"/>
                <path id="Trazado_107815" data-name="Trazado 107815" d="M97.812,42,119.19,306.585s-9.1,36-15.011,40.2-17.74-16.829-22.289-27.113S97.812,42,97.812,42Z" transform="translate(-46.639 -21.267)" fill="#0082e0"/>
                <path id="Trazado_107816" data-name="Trazado 107816" d="M118.614,228.6l-37.269,1.359c-.077,3.2-.115,6.05-.114,8.494,8.164,1.257,19.7,2.355,30.3.93a63.321,63.321,0,0,0,6.976-1.325c.435-1.59.679-2.531.679-2.531Z" transform="translate(-46.639 50.887)" fill="#3538a8"/>
                <path id="Trazado_107817" data-name="Trazado 107817" d="M127.03,308.1s-52.31,10.325-68.686-22.523L105.652,40.64Z" transform="translate(-54.479 -21.731)" fill="#006bb8"/>
                <path id="Trazado_107818" data-name="Trazado 107818" d="M58.344,225.63c16.376,31.843,68.686,21.834,68.686,21.834l-2.046-24.816c-13.509.663-30.464-2.662-42.132-9.186-8.388-4.69-15.184-12.62-18.158-19.7Z" transform="translate(-54.479 38.952)" fill="#21a7f9"/>
                <path id="Trazado_107819" data-name="Trazado 107819" d="M92.211,31.667S101,27.074,102.78,28.855s-3.729,9.654-3.729,9.654,4.616,7.891,2.833,9.674-9.673-2.833-9.673-2.833-7.893,4.616-9.674,2.833,2.833-9.674,2.833-9.674-5.585-8.024-3.8-9.806S92.211,31.667,92.211,31.667Z" transform="translate(-42.87 -18.982)" fill="#697494"/>
                <path id="Trazado_107821" data-name="Trazado 107821" d="M115.507,65.647c-.949-6.948-2.84-26.83-8.869-26.609-.685.026-3.28-.282-4.059.669C88.975,56.3,63.767,207.177,55.465,226.331c0,0,78.464,19.788,83.923,36.5C139.388,262.835,122.2,114.625,115.507,65.647Z" transform="translate(-55.465 -22.29)" fill="#0082e0"/>
                <path id="Trazado_107822" data-name="Trazado 107822" d="M139.388,223.584s-2.23-19.233-5.4-46.133C114.7,165.969,80.8,157.358,64.167,153.6c-3.644,16.4-6.686,28.831-8.7,33.485C55.465,187.08,133.929,206.867,139.388,223.584Z" transform="translate(-55.465 22.626)" fill="#21a7f9"/>
                <path id="Trazado_107823" data-name="Trazado 107823" d="M97.471,58.454S58.621,199.35,66.555,213.3s14.775-5.745,31.463-2.462,16.689,12.311,12.585-53.349S107.866,25.9,97.471,58.454Z" transform="translate(-52.032 -18.569)" fill="#0082e0" opacity="0.15" style="mix-blend-mode: screen;isolation: isolate"/>
                <path id="Trazado_107824" data-name="Trazado 107824" d="M68.77,187.5s-6.02,34.2-5.746,39.123,39.944,16.688,45.142,16.141,4.377-36.934,4.377-36.934S76.7,198.988,68.77,187.5Z" transform="translate(-52.879 36.806)" fill="#0082e0" opacity="0.15" style="mix-blend-mode: screen;isolation: isolate"/>
                <path id="Trazado_107825" data-name="Trazado 107825" d="M86.457,238.646s5.2,20.792,9.849,23.254,16.142-20.177,15.525-21.614C110.969,238.275,94.8,240.971,86.457,238.646Z" transform="translate(-44.849 54.328)" fill="#0082e0" opacity="0.15" style="mix-blend-mode: screen;isolation: isolate"/>
                <g id="Grupo_56615" data-name="Grupo 56615" transform="translate(7.577 184.038)">
                  <g id="Grupo_56613" data-name="Grupo 56613">
                    <path id="Trazado_107826" data-name="Trazado 107826" d="M69.074,173.043l3.822-4.615,5.478,5.088-3.533.742-.288,3.873Z" transform="translate(-58.38 -156.609)" fill="#cec4dc"/>
                    <path id="Trazado_107827" data-name="Trazado 107827" d="M70.409,173.043l-3.822-4.615-5.478,5.088,3.533.742.288,3.873Z" transform="translate(-61.109 -156.609)" fill="#cec4dc"/>
                    <path id="Trazado_107828" data-name="Trazado 107828" d="M69.074,164.713l3.822,4.615,5.478-5.088-3.533-.742-.288-3.873Z" transform="translate(-58.38 -159.624)" fill="#cec4dc"/>
                    <path id="Trazado_107829" data-name="Trazado 107829" d="M70.409,164.713l-3.822,4.615-5.478-5.088,3.533-.742.288-3.873Z" transform="translate(-61.109 -159.624)" fill="#cec4dc"/>
                    <path id="Trazado_107830" data-name="Trazado 107830" d="M70.865,167.891a1.817,1.817,0,1,1-1.815-1.921A1.87,1.87,0,0,1,70.865,167.891Z" transform="translate(-59.01 -157.451)" fill="#f6ccc0"/>
                  </g>
                  <g id="Grupo_56614" data-name="Grupo 56614" transform="translate(28.79 9.494)">
                    <path id="Trazado_107831" data-name="Trazado 107831" d="M90.518,180.115,94.34,175.5l5.478,5.088-3.533.742L96,185.2Z" transform="translate(-79.824 -163.68)" fill="#cec4dc"/>
                    <path id="Trazado_107832" data-name="Trazado 107832" d="M91.853,180.115,88.031,175.5l-5.478,5.088,3.533.742.288,3.873Z" transform="translate(-82.553 -163.68)" fill="#cec4dc"/>
                    <path id="Trazado_107833" data-name="Trazado 107833" d="M90.518,171.784,94.34,176.4l5.478-5.088-3.533-.742L96,166.7Z" transform="translate(-79.824 -166.696)" fill="#cec4dc"/>
                    <path id="Trazado_107834" data-name="Trazado 107834" d="M91.853,171.784,88.031,176.4l-5.478-5.088,3.533-.742.288-3.873Z" transform="translate(-82.553 -166.696)" fill="#cec4dc"/>
                    <path id="Trazado_107835" data-name="Trazado 107835" d="M92.308,174.963a1.817,1.817,0,1,1-1.814-1.921A1.868,1.868,0,0,1,92.308,174.963Z" transform="translate(-80.454 -164.522)" fill="#f6ccc0"/>
                  </g>
                  <path id="Trazado_107836" data-name="Trazado 107836" d="M112.965,190.414l-3.821-4.615-5.478,5.088,3.533.743.288,3.873Z" transform="translate(-46.531 -150.658)" fill="#cec4dc"/>
                  <path id="Trazado_107837" data-name="Trazado 107837" d="M112.965,182.083l-3.821,4.615-5.478-5.088,3.533-.743.288-3.872Z" transform="translate(-46.531 -153.674)" fill="#cec4dc"/>
                  <path id="Trazado_107838" data-name="Trazado 107838" d="M113.421,185.262a1.817,1.817,0,1,1-1.814-1.921A1.87,1.87,0,0,1,113.421,185.262Z" transform="translate(-44.432 -151.5)" fill="#f6ccc0"/>
                  <path id="Trazado_107839" data-name="Trazado 107839" d="M117.7,191.565q-.234-1.988-.483-4.126l-1.767-1.641-3.821,4.614,5.478,5.088.289-3.872Z" transform="translate(-43.802 -150.658)" fill="#cec4dc"/>
                  <path id="Trazado_107840" data-name="Trazado 107840" d="M115.785,177.911l-4.154,3.859,3.821,4.614,1.2-1.11Q116.235,181.743,115.785,177.911Z" transform="translate(-43.802 -153.36)" fill="#cec4dc"/>
                </g>
                <g id="Grupo_56619" data-name="Grupo 56619" transform="translate(5.473 247.929)">
                  <g id="Grupo_56616" data-name="Grupo 56616">
                    <path id="Trazado_107841" data-name="Trazado 107841" d="M68.658,216.9l1.307-4.878,5.935,1.566-2.431,1.932,1.124,2.945Z" transform="translate(-56.419 -202.723)" fill="#cec4dc"/>
                    <path id="Trazado_107842" data-name="Trazado 107842" d="M69.631,216.537l-4.509-1.872-2.4,5.875,2.946-.846,1.563,2.718Z" transform="translate(-58.453 -201.816)" fill="#cec4dc"/>
                    <path id="Trazado_107843" data-name="Trazado 107843" d="M65.726,210.97l4.509,1.871,2.4-5.875-2.946.847-1.563-2.718Z" transform="translate(-57.423 -205.095)" fill="#cec4dc"/>
                    <path id="Trazado_107844" data-name="Trazado 107844" d="M66.783,210.279l-1.307,4.878-5.934-1.566,2.431-1.932-1.124-2.946Z" transform="translate(-59.541 -203.855)" fill="#cec4dc"/>
                    <path id="Trazado_107845" data-name="Trazado 107845" d="M68.511,212.266a1.62,1.62,0,0,1-.714,2.118,1.493,1.493,0,0,1-2.047-.691,1.62,1.62,0,0,1,.714-2.119A1.493,1.493,0,0,1,68.511,212.266Z" transform="translate(-57.467 -202.933)" fill="#f6ccc0"/>
                  </g>
                  <g id="Grupo_56617" data-name="Grupo 56617" transform="translate(22.569 14.26)">
                    <path id="Trazado_107846" data-name="Trazado 107846" d="M85.3,227.439l2.548-4.421,5.961,3.064-3.051,1.256.5,3.164Z" transform="translate(-73.288 -213.215)" fill="#cec4dc"/>
                    <path id="Trazado_107847" data-name="Trazado 107847" d="M86.481,227.269l-4.369-2.993-3.954,5.11,3.344-.064,1.024,3.057Z" transform="translate(-75.734 -212.784)" fill="#cec4dc"/>
                    <path id="Trazado_107848" data-name="Trazado 107848" d="M83.63,220.826,88,223.819l3.955-5.11-3.344.064-1.025-3.057Z" transform="translate(-73.859 -215.716)" fill="#cec4dc"/>
                    <path id="Trazado_107849" data-name="Trazado 107849" d="M84.862,220.5l-2.548,4.421-5.961-3.064L79.4,220.6l-.5-3.164Z" transform="translate(-76.352 -215.127)" fill="#cec4dc"/>
                    <path id="Trazado_107850" data-name="Trazado 107850" d="M86.048,222.881a1.565,1.565,0,0,1-1.263,1.882,1.711,1.711,0,0,1-2.021-1.2,1.562,1.562,0,0,1,1.263-1.882A1.709,1.709,0,0,1,86.048,222.881Z" transform="translate(-74.171 -213.687)" fill="#f6ccc0"/>
                  </g>
                  <g id="Grupo_56618" data-name="Grupo 56618" transform="translate(46.984 18.732)">
                    <path id="Trazado_107851" data-name="Trazado 107851" d="M101.831,229.665l2.284-4.009L109,228.413l-2.6,1.146.312,2.863Z" transform="translate(-92.039 -216.783)" fill="#cec4dc"/>
                    <path id="Trazado_107852" data-name="Trazado 107852" d="M102.833,229.508l-3.553-2.7L95.8,231.447l2.8-.066.753,2.765Z" transform="translate(-94.106 -216.387)" fill="#cec4dc"/>
                    <path id="Trazado_107853" data-name="Trazado 107853" d="M100.669,223.684l3.553,2.7,3.484-4.636-2.8.067-.753-2.765Z" transform="translate(-92.437 -219.047)" fill="#cec4dc"/>
                    <path id="Trazado_107854" data-name="Trazado 107854" d="M101.7,223.382l-2.284,4.009-4.883-2.757,2.6-1.146-.313-2.863Z" transform="translate(-94.537 -218.506)" fill="#cec4dc"/>
                    <path id="Trazado_107855" data-name="Trazado 107855" d="M102.59,225.536a1.48,1.48,0,0,1-1.121,1.706,1.362,1.362,0,0,1-1.65-1.085,1.478,1.478,0,0,1,1.121-1.706A1.363,1.363,0,0,1,102.59,225.536Z" transform="translate(-92.737 -217.208)" fill="#f6ccc0"/>
                  </g>
                </g>
                <path id="Trazado_107856" data-name="Trazado 107856" d="M90.659,34.716c-7.349-5.927-6.932-3.9-6.729-4.3a3.494,3.494,0,0,0,.684,1.5c.615.994,2.255,3.208,2.211,3.147a.308.308,0,0,1-.437.423C78.682,29.6,83.731,25.052,91.1,34.291a.307.307,0,0,1-.432.43Z" transform="translate(-42.872 -18.984)" fill="#9ca6c2" opacity="0.45" style="mix-blend-mode: screen;isolation: isolate"/>
                <path id="Trazado_107857" data-name="Trazado 107857" d="M101.468,29.541c1.62,1.641-2.685,5.358-2.6,5.268a.3.3,0,0,1-.426-.041c-.327-.4.483-.643,1.805-2.969a3.347,3.347,0,0,0,.5-1.34c-.094-1.169-5.156,2.758-6.072,3.515a.3.3,0,0,1-.419-.437C94.32,33.5,99.719,27.677,101.468,29.541Z" transform="translate(-42.887 -18.984)" fill="#9ca6c2" opacity="0.45" style="mix-blend-mode: screen;isolation: isolate"/>
                <path id="Trazado_107858" data-name="Trazado 107858" d="M96.365,40.687s-1.795-1.744-3.8-1.18-3.386,1.847-1.951,2.821,2.668-1.179,4.515-.256S96.365,40.687,96.365,40.687Z" transform="translate(-43.625 -22.158)" fill="#0082e0" opacity="0.15" style="mix-blend-mode: screen;isolation: isolate"/>
              </g>
              <g id="Grupo_56810" data-name="Grupo 56810" transform="translate(86.075 24.195)">
                <g id="Grupo_56622" data-name="Grupo 56622" transform="translate(11.31 74.237)">
                  <path id="Trazado_107859" data-name="Trazado 107859" d="M93.118,110.547s1.975-11.832,2.446-12.732,5.925-6.433,6.568-6.547,9.24-2.813,8.765-1.472-6.506,3.152-6.506,3.152l-.574.721s5.154-1.677,6.435-1.635c1.18.04,1.389,1.265.468,1.618s-5.465,1.677-5.633,1.96,5.058-1.208,5.714-1.18c.883.037,1.524,1.156.622,1.536-.531.223-5.584,1.383-5.584,1.383a44.543,44.543,0,0,1,4.692-.365c.777.209.712,1.153-.143,1.379-.586.155-3.672.288-4.458.5,0,0-.583.5-.562,2.061s-2.009,5.728-2.009,5.728Z" transform="translate(-93.118 -89.422)" fill="#ffbe9d"/>
                  <g id="Grupo_56621" data-name="Grupo 56621" transform="translate(8.367 0.396)">
                    <path id="Trazado_107860" data-name="Trazado 107860" d="M108.445,89.706a4.309,4.309,0,0,1-1.264,1.1,10.34,10.34,0,0,1-1.609.882c-.64.24-1.349.485-2.094.743l-1.587.537.086-.052a25.4,25.4,0,0,1-2.934,2.723,24.6,24.6,0,0,1,2.656-2.977l.032-.034.054-.018,1.567-.55,2.083-.705a12.606,12.606,0,0,0,1.6-.781C107.91,90.062,108.406,89.661,108.445,89.706Z" transform="translate(-99.04 -89.703)" fill="#eb996e"/>
                  </g>
                </g>
                <g id="Grupo_56716" data-name="Grupo 56716" transform="translate(8.848)">
                  <path id="Trazado_107861" data-name="Trazado 107861" d="M222.7,261.942,105.591,249.88a6.522,6.522,0,0,1-5.818-7.155l20.283-196.88a9.26,9.26,0,0,1,10.161-8.262l111.654,11.5a9.26,9.26,0,0,1,8.262,10.161l-20.281,196.88A6.519,6.519,0,0,1,222.7,261.942Z" transform="translate(-87.923 -36.315)" fill="#bf5732"/>
                  <g id="Grupo_56715" data-name="Grupo 56715">
                    <g id="Grupo_56623" data-name="Grupo 56623">
                      <path id="Trazado_107862" data-name="Trazado 107862" d="M214.334,261.082,97.227,249.018a6.519,6.519,0,0,1-5.817-7.153l20.281-196.88a9.261,9.261,0,0,1,10.161-8.264l111.654,11.5a9.261,9.261,0,0,1,8.264,10.161l-20.283,196.88A6.52,6.52,0,0,1,214.334,261.082Z" transform="translate(-91.375 -36.671)" fill="#ff8a5b"/>
                    </g>
                    <g id="Grupo_56624" data-name="Grupo 56624" transform="translate(19.283 166.482)">
                      <rect id="Rectángulo_5701" data-name="Rectángulo 5701" width="44.106" height="19.486" rx="1.243" transform="translate(1.997 0) rotate(5.882)" fill="#e8505b"/>
                    </g>
                    <g id="Grupo_56625" data-name="Grupo 56625" transform="translate(19.283 166.482)" opacity="0.4">
                      <rect id="Rectángulo_5702" data-name="Rectángulo 5702" width="44.106" height="19.486" rx="1.243" transform="translate(1.997 0) rotate(5.882)"/>
                    </g>
                    <g id="Grupo_56629" data-name="Grupo 56629" transform="translate(23.78 21.852)">
                      <g id="Grupo_56626" data-name="Grupo 56626" transform="translate(0.198 0.207)">
                        <rect id="Rectángulo_5703" data-name="Rectángulo 5703" width="43.854" height="111.798" transform="translate(0 43.624) rotate(-84.118)" fill="#fafafa"/>
                      </g>
                      <g id="Grupo_56628" data-name="Grupo 56628">
                        <g id="Grupo_56627" data-name="Grupo 56627">
                          <path id="Trazado_107863" data-name="Trazado 107863" d="M219.615,107.425s.018-.268.066-.778.123-1.272.219-2.259l.86-8.668c.757-7.522,1.855-18.414,3.217-31.932l.117.143-111.207-11.4h-.007l.206-.168c-1.574,15.257-3.1,30-4.5,43.623l-.161-.2,79.692,8.3,23.145,2.434,6.2.661q1.051.117,1.6.177c.362.041.551.069.551.069s-.177-.011-.531-.044l-1.585-.153-6.164-.612-23.114-2.33-79.834-8.139-.179-.018.018-.179c1.4-13.627,2.918-28.367,4.486-43.624l.02-.188.188.018h.007l111.2,11.513.131.013-.014.131c-1.426,13.545-2.574,24.459-3.368,32-.4,3.747-.711,6.653-.921,8.632-.107.975-.188,1.721-.244,2.231S219.615,107.425,219.615,107.425Z" transform="translate(-108.207 -52.138)" fill="#263238"/>
                        </g>
                      </g>
                    </g>
                    <g id="Grupo_56634" data-name="Grupo 56634" transform="translate(23.536 83.417)">
                      <g id="Grupo_56630" data-name="Grupo 56630" transform="translate(2.919 0.301)">
                        <rect id="Rectángulo_5704" data-name="Rectángulo 5704" width="19.003" height="19.003" rx="1.069" transform="translate(1.947 0) rotate(5.882)" fill="#e8505b"/>
                      </g>
                      <g id="Grupo_56631" data-name="Grupo 56631" transform="translate(2.919 0.301)" opacity="0.4">
                        <rect id="Rectángulo_5705" data-name="Rectángulo 5705" width="19.003" height="19.003" rx="1.069" transform="translate(1.947 0) rotate(5.882)"/>
                      </g>
                      <g id="Grupo_56632" data-name="Grupo 56632" transform="translate(0 0)">
                        <rect id="Rectángulo_5706" data-name="Rectángulo 5706" width="19.003" height="19.003" rx="1.069" transform="matrix(0.995, 0.102, -0.102, 0.995, 1.947, 0)" fill="#263238"/>
                      </g>
                      <g id="Grupo_56633" data-name="Grupo 56633" transform="translate(8.623 6.186)">
                        <path id="Trazado_107864" data-name="Trazado 107864" d="M117.687,100.442l-.811,7.878-1.824-.188.661-6.414-1.575-.162.151-1.464Z" transform="translate(-114.138 -100.092)" fill="#fff"/>
                      </g>
                    </g>
                    <g id="Grupo_56639" data-name="Grupo 56639" transform="translate(49.895 86.133)">
                      <g id="Grupo_56635" data-name="Grupo 56635" transform="translate(2.919 0.301)">
                        <rect id="Rectángulo_5707" data-name="Rectángulo 5707" width="19.003" height="19.003" rx="1.069" transform="matrix(0.995, 0.102, -0.102, 0.995, 1.947, 0)" fill="#e8505b"/>
                      </g>
                      <g id="Grupo_56636" data-name="Grupo 56636" transform="translate(2.919 0.301)" opacity="0.4">
                        <rect id="Rectángulo_5708" data-name="Rectángulo 5708" width="19.003" height="19.003" rx="1.069" transform="matrix(0.995, 0.102, -0.102, 0.995, 1.947, 0)"/>
                      </g>
                      <g id="Grupo_56637" data-name="Grupo 56637" transform="translate(0 0)">
                        <rect id="Rectángulo_5709" data-name="Rectángulo 5709" width="19.003" height="19.003" rx="1.069" transform="matrix(0.995, 0.102, -0.102, 0.995, 1.947, 0)" fill="#263238"/>
                      </g>
                      <g id="Grupo_56638" data-name="Grupo 56638" transform="translate(8.255 6.34)">
                        <path id="Trazado_107865" data-name="Trazado 107865" d="M138.64,109l-.153,1.486-5.954-.613.123-1.183,3.334-2.557c.766-.592.931-.985.971-1.366.064-.619-.326-1.024-1.16-1.109a1.936,1.936,0,0,0-1.714.62l-1.239-.993a3.675,3.675,0,0,1,3.279-1.14c1.755.181,2.834,1.2,2.686,2.631a3.155,3.155,0,0,1-1.573,2.351l-1.988,1.524Z" transform="translate(-132.534 -102.123)" fill="#fff"/>
                      </g>
                    </g>
                    <g id="Grupo_56644" data-name="Grupo 56644" transform="translate(77.221 88.948)">
                      <g id="Grupo_56640" data-name="Grupo 56640" transform="translate(2.919 0.301)">
                        <rect id="Rectángulo_5710" data-name="Rectángulo 5710" width="19.003" height="19.003" rx="1.069" transform="translate(1.947 0) rotate(5.882)" fill="#e8505b"/>
                      </g>
                      <g id="Grupo_56641" data-name="Grupo 56641" transform="translate(2.919 0.301)" opacity="0.4">
                        <rect id="Rectángulo_5711" data-name="Rectángulo 5711" width="19.003" height="19.003" rx="1.069" transform="translate(1.947 0) rotate(5.882)"/>
                      </g>
                      <g id="Grupo_56642" data-name="Grupo 56642" transform="translate(0 0)">
                        <rect id="Rectángulo_5712" data-name="Rectángulo 5712" width="19.003" height="19.003" rx="1.069" transform="translate(1.947 0) rotate(5.882)" fill="#263238"/>
                      </g>
                      <g id="Grupo_56643" data-name="Grupo 56643" transform="translate(7.946 6.218)">
                        <path id="Trazado_107866" data-name="Trazado 107866" d="M158.1,110.1c-.137,1.328-1.286,2.439-3.525,2.208a5.459,5.459,0,0,1-2.919-1.154l.853-1.322a3.847,3.847,0,0,0,2.177.941c.911.093,1.513-.219,1.58-.86.061-.6-.341-1.013-1.375-1.12l-.834-.085.124-1.205,1.81-1.667-3.354-.346.151-1.462,5.514.568-.122,1.181-1.988,1.842A2.25,2.25,0,0,1,158.1,110.1Z" transform="translate(-151.656 -104.029)" fill="#fff"/>
                      </g>
                    </g>
                    <g id="Grupo_56652" data-name="Grupo 56652" transform="translate(104.613 91.763)">
                      <g id="Grupo_56645" data-name="Grupo 56645" transform="translate(2.853 0.301)">
                        <rect id="Rectángulo_5713" data-name="Rectángulo 5713" width="19.003" height="19.003" rx="1.069" transform="translate(1.947 0) rotate(5.882)" fill="#e8505b"/>
                      </g>
                      <g id="Grupo_56646" data-name="Grupo 56646" transform="translate(2.853 0.301)" opacity="0.4">
                        <rect id="Rectángulo_5714" data-name="Rectángulo 5714" width="19.003" height="19.003" rx="1.069" transform="translate(1.947 0) rotate(5.882)"/>
                      </g>
                      <g id="Grupo_56647" data-name="Grupo 56647" transform="translate(0 0)">
                        <rect id="Rectángulo_5715" data-name="Rectángulo 5715" width="19.003" height="19.003" rx="1.069" transform="matrix(0.995, 0.102, -0.102, 0.995, 1.947, 0)" fill="#263238"/>
                      </g>
                      <g id="Grupo_56651" data-name="Grupo 56651" transform="translate(6.085 5.057)">
                        <g id="Grupo_56648" data-name="Grupo 56648" transform="translate(0 4.26)">
                          <rect id="Rectángulo_5716" data-name="Rectángulo 5716" width="0.726" height="8.485" transform="translate(0 0.722) rotate(-84.118)" fill="#fff"/>
                        </g>
                        <g id="Grupo_56649" data-name="Grupo 56649" transform="translate(3.261)">
                          <path id="Trazado_107867" data-name="Trazado 107867" d="M174.779,106.716a1.376,1.376,0,1,1-1.228-1.509A1.375,1.375,0,0,1,174.779,106.716Z" transform="translate(-172.035 -105.2)" fill="#fff"/>
                        </g>
                        <g id="Grupo_56650" data-name="Grupo 56650" transform="translate(2.502 7.361)">
                          <path id="Trazado_107868" data-name="Trazado 107868" d="M174.242,111.926a1.376,1.376,0,1,1-1.228-1.509A1.375,1.375,0,0,1,174.242,111.926Z" transform="translate(-171.498 -110.41)" fill="#fff"/>
                        </g>
                      </g>
                    </g>
                    <g id="Grupo_56657" data-name="Grupo 56657" transform="translate(20.684 111.108)">
                      <g id="Grupo_56653" data-name="Grupo 56653" transform="translate(2.919 0.301)">
                        <rect id="Rectángulo_5717" data-name="Rectángulo 5717" width="19.003" height="19.003" rx="1.069" transform="matrix(0.995, 0.102, -0.102, 0.995, 1.947, 0)" fill="#e8505b"/>
                      </g>
                      <g id="Grupo_56654" data-name="Grupo 56654" transform="translate(2.919 0.301)" opacity="0.4">
                        <rect id="Rectángulo_5718" data-name="Rectángulo 5718" width="19.003" height="19.003" rx="1.069" transform="matrix(0.995, 0.102, -0.102, 0.995, 1.947, 0)"/>
                      </g>
                      <g id="Grupo_56655" data-name="Grupo 56655" transform="translate(0 0)">
                        <rect id="Rectángulo_5719" data-name="Rectángulo 5719" width="19.003" height="19.003" rx="1.069" transform="matrix(0.995, 0.102, -0.102, 0.995, 1.947, 0)" fill="#263238"/>
                      </g>
                      <g id="Grupo_56656" data-name="Grupo 56656" transform="translate(6.528 6.403)">
                        <path id="Trazado_107869" data-name="Trazado 107869" d="M117.94,126.439l-1.284-.133-.171,1.654-1.777-.182.171-1.654-4.243-.438.126-1.226,4.229-4.614,1.913.2-3.932,4.383,2.116.218.151-1.474,1.722.178-.153,1.474,1.284.131Z" transform="translate(-110.636 -119.845)" fill="#fff"/>
                      </g>
                    </g>
                    <g id="Grupo_56662" data-name="Grupo 56662" transform="translate(47.043 113.823)">
                      <g id="Grupo_56658" data-name="Grupo 56658" transform="translate(2.919 0.301)">
                        <rect id="Rectángulo_5720" data-name="Rectángulo 5720" width="19.003" height="19.003" rx="1.069" transform="translate(1.947 0) rotate(5.882)" fill="#e8505b"/>
                      </g>
                      <g id="Grupo_56659" data-name="Grupo 56659" transform="translate(2.919 0.301)" opacity="0.4">
                        <rect id="Rectángulo_5721" data-name="Rectángulo 5721" width="19.003" height="19.003" rx="1.069" transform="translate(1.947 0) rotate(5.882)"/>
                      </g>
                      <g id="Grupo_56660" data-name="Grupo 56660" transform="translate(0 0)">
                        <rect id="Rectángulo_5722" data-name="Rectángulo 5722" width="19.003" height="19.003" rx="1.069" transform="translate(1.947 0) rotate(5.882)" fill="#263238"/>
                      </g>
                      <g id="Grupo_56661" data-name="Grupo 56661" transform="translate(7.132 6.196)">
                        <path id="Trazado_107870" data-name="Trazado 107870" d="M136.181,127.567c-.143,1.4-1.293,2.5-3.543,2.273a5.474,5.474,0,0,1-2.917-1.153l.865-1.322a3.8,3.8,0,0,0,2.166.941c.911.093,1.513-.232,1.58-.873.064-.619-.3-1.065-1.729-1.212l-2.013-.208.862-4.392,4.805.494-.151,1.464-3.286-.339-.278,1.484.643.066C135.51,125.029,136.325,126.171,136.181,127.567Z" transform="translate(-129.72 -121.62)" fill="#fff"/>
                      </g>
                    </g>
                    <g id="Grupo_56667" data-name="Grupo 56667" transform="translate(74.368 116.638)">
                      <g id="Grupo_56663" data-name="Grupo 56663" transform="translate(2.919 0.301)">
                        <rect id="Rectángulo_5723" data-name="Rectángulo 5723" width="19.003" height="19.003" rx="1.069" transform="translate(1.947 0) rotate(5.882)" fill="#e8505b"/>
                      </g>
                      <g id="Grupo_56664" data-name="Grupo 56664" transform="translate(2.919 0.301)" opacity="0.4">
                        <rect id="Rectángulo_5724" data-name="Rectángulo 5724" width="19.003" height="19.003" rx="1.069" transform="translate(1.947 0) rotate(5.882)"/>
                      </g>
                      <g id="Grupo_56665" data-name="Grupo 56665" transform="translate(0 0)">
                        <rect id="Rectángulo_5725" data-name="Rectángulo 5725" width="19.003" height="19.003" rx="1.069" transform="matrix(0.995, 0.102, -0.102, 0.995, 1.947, 0)" fill="#263238"/>
                      </g>
                      <g id="Grupo_56666" data-name="Grupo 56666" transform="translate(7.739 6.378)">
                        <path id="Trazado_107871" data-name="Trazado 107871" d="M155.9,129.552a2.722,2.722,0,0,1-3.252,2.314c-2.172-.223-3.382-1.724-3.12-4.268.28-2.723,2.08-4.073,4.455-3.829a4.266,4.266,0,0,1,2.138.767l-.812,1.269a2.6,2.6,0,0,0-1.434-.545,2.1,2.1,0,0,0-2.451,2.056,2.674,2.674,0,0,1,2.018-.5A2.513,2.513,0,0,1,155.9,129.552Zm-1.776-.093a1.2,1.2,0,0,0-1.218-1.32,1.24,1.24,0,0,0-1.483,1.043c-.069.675.387,1.222,1.263,1.312A1.185,1.185,0,0,0,154.122,129.459Z" transform="translate(-149.491 -123.741)" fill="#fff"/>
                      </g>
                    </g>
                    <g id="Grupo_56674" data-name="Grupo 56674" transform="translate(101.694 119.453)">
                      <g id="Grupo_56668" data-name="Grupo 56668" transform="translate(2.919 0.301)">
                        <rect id="Rectángulo_5726" data-name="Rectángulo 5726" width="19.003" height="19.003" rx="1.069" transform="matrix(0.995, 0.102, -0.102, 0.995, 1.947, 0)" fill="#e8505b"/>
                      </g>
                      <g id="Grupo_56669" data-name="Grupo 56669" transform="translate(2.919 0.301)" opacity="0.4">
                        <rect id="Rectángulo_5727" data-name="Rectángulo 5727" width="19.003" height="19.003" rx="1.069" transform="matrix(0.995, 0.102, -0.102, 0.995, 1.947, 0)"/>
                      </g>
                      <g id="Grupo_56670" data-name="Grupo 56670" transform="translate(0 0)">
                        <rect id="Rectángulo_5728" data-name="Rectángulo 5728" width="19.003" height="19.003" rx="1.069" transform="matrix(0.995, 0.102, -0.102, 0.995, 1.947, 0)" fill="#263238"/>
                      </g>
                      <g id="Grupo_56673" data-name="Grupo 56673" transform="translate(6.869 6.905)">
                        <g id="Grupo_56671" data-name="Grupo 56671" transform="translate(0 0.608)">
                          <rect id="Rectángulo_5729" data-name="Rectángulo 5729" width="8.486" height="0.725" transform="matrix(0.785, -0.619, 0.619, 0.785, 0, 5.255)" fill="#fff"/>
                        </g>
                        <g id="Grupo_56672" data-name="Grupo 56672" transform="translate(0.598 0)">
                          <rect id="Rectángulo_5730" data-name="Rectángulo 5730" width="0.725" height="8.486" transform="matrix(0.776, -0.631, 0.631, 0.776, 0, 0.458)" fill="#fff"/>
                        </g>
                      </g>
                    </g>
                    <g id="Grupo_56679" data-name="Grupo 56679" transform="translate(17.854 138.573)">
                      <g id="Grupo_56675" data-name="Grupo 56675" transform="translate(2.919 0.301)">
                        <rect id="Rectángulo_5731" data-name="Rectángulo 5731" width="19.003" height="19.003" rx="1.069" transform="matrix(0.995, 0.102, -0.102, 0.995, 1.947, 0)" fill="#e8505b"/>
                      </g>
                      <g id="Grupo_56676" data-name="Grupo 56676" transform="translate(2.919 0.301)" opacity="0.4">
                        <rect id="Rectángulo_5732" data-name="Rectángulo 5732" width="19.003" height="19.003" rx="1.069" transform="matrix(0.995, 0.102, -0.102, 0.995, 1.947, 0)"/>
                      </g>
                      <g id="Grupo_56677" data-name="Grupo 56677" transform="translate(0 0)">
                        <rect id="Rectángulo_5733" data-name="Rectángulo 5733" width="19.003" height="19.003" rx="1.069" transform="matrix(0.995, 0.102, -0.102, 0.995, 1.947, 0)" fill="#263238"/>
                      </g>
                      <g id="Grupo_56678" data-name="Grupo 56678" transform="translate(6.827 6.015)">
                        <path id="Trazado_107872" data-name="Trazado 107872" d="M115.444,139.66l-.122,1.183-3.617,6.394-1.981-.2,3.483-6.1-2.609-.268-.131,1.283-1.622-.167.285-2.769Z" transform="translate(-108.845 -139.01)" fill="#fff"/>
                      </g>
                    </g>
                    <g id="Grupo_56684" data-name="Grupo 56684" transform="translate(44.213 141.289)">
                      <g id="Grupo_56680" data-name="Grupo 56680" transform="translate(2.919 0.301)">
                        <rect id="Rectángulo_5734" data-name="Rectángulo 5734" width="19.003" height="19.003" rx="1.069" transform="matrix(0.995, 0.102, -0.102, 0.995, 1.947, 0)" fill="#e8505b"/>
                      </g>
                      <g id="Grupo_56681" data-name="Grupo 56681" transform="translate(2.919 0.301)" opacity="0.4">
                        <rect id="Rectángulo_5735" data-name="Rectángulo 5735" width="19.003" height="19.003" rx="1.069" transform="matrix(0.995, 0.102, -0.102, 0.995, 1.947, 0)"/>
                      </g>
                      <g id="Grupo_56682" data-name="Grupo 56682" transform="translate(0 0)">
                        <rect id="Rectángulo_5736" data-name="Rectángulo 5736" width="19.003" height="19.003" rx="1.069" transform="translate(1.947 0) rotate(5.882)" fill="#263238"/>
                      </g>
                      <g id="Grupo_56683" data-name="Grupo 56683" transform="translate(7.564 6.3)">
                        <path id="Trazado_107873" data-name="Trazado 107873" d="M134.675,147.233c-.154,1.485-1.578,2.282-3.58,2.077s-3.213-1.276-3.059-2.761a2.013,2.013,0,0,1,1.383-1.735,1.826,1.826,0,0,1-.745-1.714c.143-1.385,1.471-2.123,3.259-1.94,1.813.186,2.96,1.181,2.819,2.566a1.84,1.84,0,0,1-1.091,1.524A2.008,2.008,0,0,1,134.675,147.233Zm-1.84-.247c.072-.7-.458-1.184-1.37-1.279s-1.506.277-1.578.975.445,1.2,1.345,1.289S132.763,147.684,132.835,146.986Zm-2.357-3.62c-.062.6.373,1.016,1.116,1.092s1.276-.243,1.337-.839c.064-.619-.393-1.043-1.136-1.119S130.542,142.748,130.479,143.367Z" transform="translate(-128.023 -141.133)" fill="#fff"/>
                      </g>
                    </g>
                    <g id="Grupo_56689" data-name="Grupo 56689" transform="translate(71.539 144.104)">
                      <g id="Grupo_56685" data-name="Grupo 56685" transform="translate(2.919 0.301)">
                        <rect id="Rectángulo_5737" data-name="Rectángulo 5737" width="19.003" height="19.003" rx="1.069" transform="translate(1.947 0) rotate(5.882)" fill="#e8505b"/>
                      </g>
                      <g id="Grupo_56686" data-name="Grupo 56686" transform="translate(2.919 0.301)" opacity="0.4">
                        <rect id="Rectángulo_5738" data-name="Rectángulo 5738" width="19.003" height="19.003" rx="1.069" transform="translate(1.947 0) rotate(5.882)"/>
                      </g>
                      <g id="Grupo_56687" data-name="Grupo 56687" transform="translate(0 0)">
                        <rect id="Rectángulo_5739" data-name="Rectángulo 5739" width="19.003" height="19.003" rx="1.069" transform="matrix(0.995, 0.102, -0.102, 0.995, 1.947, 0)" fill="#263238"/>
                      </g>
                      <g id="Grupo_56688" data-name="Grupo 56688" transform="translate(7.519 6.255)">
                        <path id="Trazado_107874" data-name="Trazado 107874" d="M153.913,147.385c-.281,2.723-2.068,4.075-4.455,3.829a4.232,4.232,0,0,1-2.126-.766l.812-1.269a2.56,2.56,0,0,0,1.434.545,2.112,2.112,0,0,0,2.453-2.068,2.7,2.7,0,0,1-2.03.507,2.511,2.511,0,0,1-2.46-2.732,2.723,2.723,0,0,1,3.252-2.316C152.976,143.341,154.176,144.842,153.913,147.385Zm-1.895-1.584c.069-.674-.387-1.222-1.253-1.311a1.191,1.191,0,1,0-.219,2.354A1.228,1.228,0,0,0,152.018,145.8Z" transform="translate(-147.332 -143.094)" fill="#fff"/>
                      </g>
                    </g>
                    <g id="Grupo_56695" data-name="Grupo 56695" transform="translate(98.865 146.919)">
                      <g id="Grupo_56690" data-name="Grupo 56690" transform="translate(2.919 0.301)">
                        <rect id="Rectángulo_5740" data-name="Rectángulo 5740" width="19.003" height="19.003" rx="1.069" transform="matrix(0.995, 0.102, -0.102, 0.995, 1.947, 0)" fill="#e8505b"/>
                      </g>
                      <g id="Grupo_56691" data-name="Grupo 56691" transform="translate(2.919 0.301)" opacity="0.4">
                        <rect id="Rectángulo_5741" data-name="Rectángulo 5741" width="19.003" height="19.003" rx="1.069" transform="matrix(0.995, 0.102, -0.102, 0.995, 1.947, 0)"/>
                      </g>
                      <g id="Grupo_56692" data-name="Grupo 56692" transform="translate(0 0)">
                        <rect id="Rectángulo_5742" data-name="Rectángulo 5742" width="19.003" height="19.003" rx="1.069" transform="matrix(0.995, 0.102, -0.102, 0.995, 1.947, 0)" fill="#263238"/>
                      </g>
                      <g id="Grupo_56694" data-name="Grupo 56694" transform="translate(6.167 9.63)">
                        <g id="Grupo_56693" data-name="Grupo 56693" transform="translate(0 0)">
                          <rect id="Rectángulo_5743" data-name="Rectángulo 5743" width="0.726" height="8.485" transform="translate(0 0.722) rotate(-84.123)" fill="#fff"/>
                        </g>
                      </g>
                    </g>
                    <g id="Grupo_56699" data-name="Grupo 56699" transform="translate(68.685 171.809)">
                      <g id="Grupo_56696" data-name="Grupo 56696" transform="translate(2.919 0.301)">
                        <rect id="Rectángulo_5744" data-name="Rectángulo 5744" width="19.003" height="19.003" rx="1.069" transform="translate(1.947 0) rotate(5.882)" fill="#e8505b"/>
                      </g>
                      <g id="Grupo_56697" data-name="Grupo 56697" transform="translate(2.919 0.301)" opacity="0.4">
                        <rect id="Rectángulo_5745" data-name="Rectángulo 5745" width="19.003" height="19.003" rx="1.069" transform="translate(1.947 0) rotate(5.882)"/>
                      </g>
                      <g id="Grupo_56698" data-name="Grupo 56698" transform="translate(0 0)">
                        <rect id="Rectángulo_5746" data-name="Rectángulo 5746" width="19.003" height="19.003" rx="1.069" transform="translate(1.947 0) rotate(5.882)" fill="#263238"/>
                      </g>
                    </g>
                    <g id="Grupo_56708" data-name="Grupo 56708" transform="translate(96.01 174.624)">
                      <g id="Grupo_56700" data-name="Grupo 56700" transform="translate(2.919 0.301)">
                        <rect id="Rectángulo_5747" data-name="Rectángulo 5747" width="19.003" height="19.003" rx="1.069" transform="translate(1.947 0) rotate(5.882)" fill="#e8505b"/>
                      </g>
                      <g id="Grupo_56701" data-name="Grupo 56701" transform="translate(2.919 0.301)" opacity="0.4">
                        <rect id="Rectángulo_5748" data-name="Rectángulo 5748" width="19.003" height="19.003" rx="1.069" transform="translate(1.947 0) rotate(5.882)"/>
                      </g>
                      <g id="Grupo_56702" data-name="Grupo 56702" transform="translate(0 0)">
                        <rect id="Rectángulo_5749" data-name="Rectángulo 5749" width="19.003" height="19.003" rx="1.069" transform="matrix(0.995, 0.102, -0.102, 0.995, 1.947, 0)" fill="#455a64"/>
                      </g>
                      <g id="Grupo_56707" data-name="Grupo 56707" transform="translate(5.944 8.589)">
                        <g id="Grupo_56704" data-name="Grupo 56704" transform="translate(0.331 0)">
                          <g id="Grupo_56703" data-name="Grupo 56703" transform="translate(0)">
                            <rect id="Rectángulo_5750" data-name="Rectángulo 5750" width="0.725" height="8.485" transform="translate(0 0.721) rotate(-84.125)" fill="#fff"/>
                          </g>
                        </g>
                        <g id="Grupo_56706" data-name="Grupo 56706" transform="translate(0 3.213)">
                          <g id="Grupo_56705" data-name="Grupo 56705" transform="translate(0 0)">
                            <rect id="Rectángulo_5751" data-name="Rectángulo 5751" width="0.725" height="8.485" transform="translate(0 0.721) rotate(-84.125)" fill="#fff"/>
                          </g>
                        </g>
                      </g>
                    </g>
                    <g id="Grupo_56709" data-name="Grupo 56709" transform="translate(13.984 165.937)">
                      <rect id="Rectángulo_5752" data-name="Rectángulo 5752" width="45.869" height="19.486" rx="1.284" transform="matrix(0.995, 0.102, -0.102, 0.995, 1.997, 0)" fill="#263238"/>
                    </g>
                    <g id="Grupo_56710" data-name="Grupo 56710" transform="translate(36.065 173.679)">
                      <path id="Trazado_107875" data-name="Trazado 107875" d="M116.937,163.345c.268-2.6,1.861-3.926,3.8-3.726s3.224,1.821,2.956,4.421-1.848,3.928-3.795,3.726S116.67,165.945,116.937,163.345Zm4.918.507c.185-1.79-.369-2.6-1.281-2.691s-1.6.585-1.79,2.375.369,2.6,1.269,2.689S121.672,165.641,121.855,163.853Z" transform="translate(-116.902 -159.6)" fill="#fff"/>
                    </g>
                    <g id="Grupo_56713" data-name="Grupo 56713" transform="translate(74.852 177.978)">
                      <g id="Grupo_56711" data-name="Grupo 56711" transform="translate(3.401 0)">
                        <rect id="Rectángulo_5753" data-name="Rectángulo 5753" width="8.486" height="0.725" transform="translate(0 8.427) rotate(-83.269)" fill="#fff"/>
                      </g>
                      <g id="Grupo_56712" data-name="Grupo 56712" transform="translate(0 3.461)">
                        <rect id="Rectángulo_5754" data-name="Rectángulo 5754" width="0.725" height="8.486" transform="translate(0 0.721) rotate(-84.121)" fill="#fff"/>
                      </g>
                    </g>
                    <g id="Grupo_56714" data-name="Grupo 56714" transform="translate(67.407 48.333)">
                      <path id="Trazado_107876" data-name="Trazado 107876" d="M142.658,71.243l-1.214,11.779-.557-.058,1.16-11.256-2.961-.305.054-.521Z" transform="translate(-139.086 -70.881)" fill="#263238"/>
                      <path id="Trazado_107877" data-name="Trazado 107877" d="M150.807,83.346l-.054.521-7.975-.822.042-.4,5.571-4.561c1.6-1.3,1.988-2.125,2.087-3.084.161-1.564-.829-2.687-2.881-2.9a4.37,4.37,0,0,0-3.68,1.048l-.348-.41a5.009,5.009,0,0,1,4.1-1.16c2.256.233,3.566,1.541,3.37,3.443-.114,1.111-.568,2.05-2.275,3.437l-5.071,4.155Z" transform="translate(-137.562 -70.61)" fill="#263238"/>
                      <path id="Trazado_107878" data-name="Trazado 107878" d="M157.474,81.332c-.2,1.953-1.724,3.19-4.313,2.923A5.32,5.32,0,0,1,149.24,82.2l.343-.372a4.912,4.912,0,0,0,3.614,1.9c2.253.232,3.546-.757,3.721-2.457.177-1.717-.855-2.927-3.346-3.185l-.656-.068.041-.4,4.161-4.4-6.495-.67.054-.521,7.235.745-.042.4-4.178,4.417C156.452,77.877,157.676,79.363,157.474,81.332Z" transform="translate(-134.894 -70.407)" fill="#263238"/>
                      <path id="Trazado_107879" data-name="Trazado 107879" d="M166.156,81.912l-2.557-.263-.35,3.4-.555-.057.35-3.4-6.765-.7.042-.4,7.334-7.3.656.068-7.238,7.213,6.023.62.308-3,.555.057-.308,3,2.557.264Z" transform="translate(-131.988 -69.929)" fill="#263238"/>
                      <path id="Trazado_107880" data-name="Trazado 107880" d="M165.433,81.792a3.255,3.255,0,0,1-.165.612l-.839,2.193-.437-.045.762-2.269a.565.565,0,0,1-.432-.6.554.554,0,0,1,.613-.5A.565.565,0,0,1,165.433,81.792Z" transform="translate(-128.804 -66.631)" fill="#263238"/>
                      <path id="Trazado_107881" data-name="Trazado 107881" d="M176.159,82.942l-2.559-.263-.349,3.4-.555-.058.349-3.4-6.763-.7.041-.4,7.334-7.3.656.068L167.075,81.5l6.023.62.308-3,.557.058-.309,3,2.559.263Z" transform="translate(-127.858 -69.504)" fill="#263238"/>
                      <path id="Trazado_107882" data-name="Trazado 107882" d="M181.874,83.747c-.2,1.917-1.68,3.262-4.356,2.987a5.341,5.341,0,0,1-3.9-2.053l.362-.37a4.867,4.867,0,0,0,3.6,1.9c2.3.237,3.558-.859,3.73-2.525.187-1.817-.78-3.005-4.145-3.351L174.87,80.1l1.2-5.487,6.074.626-.055.521-5.6-.578-.969,4.457,1.817.188C180.929,80.2,182.088,81.66,181.874,83.747Z" transform="translate(-124.831 -69.34)" fill="#263238"/>
                    </g>
                  </g>
                </g>
                <g id="Grupo_56807" data-name="Grupo 56807" transform="translate(0 46.492)">
                  <g id="Grupo_56804" data-name="Grupo 56804">
                    <g id="Grupo_56803" data-name="Grupo 56803">
                      <g id="Grupo_56735" data-name="Grupo 56735" transform="translate(0 256.342)">
                        <g id="Grupo_56728" data-name="Grupo 56728">
                          <g id="Grupo_56727" data-name="Grupo 56727">
                            <g id="Grupo_56719" data-name="Grupo 56719">
                              <g id="Grupo_56718" data-name="Grupo 56718">
                                <g id="Grupo_56717" data-name="Grupo 56717">
                                  <path id="Trazado_107883" data-name="Trazado 107883" d="M89.725,251.85l-4.612,17.055,14.991,1.368,3.151-16.236Z" transform="translate(-85.113 -251.85)" fill="#e8505b"/>
                                </g>
                              </g>
                            </g>
                            <g id="Grupo_56723" data-name="Grupo 56723" transform="translate(0.57 15.275)">
                              <g id="Grupo_56722" data-name="Grupo 56722">
                                <g id="Grupo_56721" data-name="Grupo 56721">
                                  <g id="Grupo_56720" data-name="Grupo 56720">
                                    <path id="Trazado_107884" data-name="Trazado 107884" d="M100.372,264.42a10.446,10.446,0,0,1-2.2-.073c-1.351-.109-3.211-.315-5.259-.578l-5.24-.7a12.325,12.325,0,0,1-2.162-.374,10.769,10.769,0,0,1,2.194.082c1.351.11,3.211.319,5.26.582l5.239.7A12.694,12.694,0,0,1,100.372,264.42Z" transform="translate(-85.516 -262.662)" fill="#263238"/>
                                  </g>
                                </g>
                              </g>
                            </g>
                            <g id="Grupo_56726" data-name="Grupo 56726" transform="translate(0 15.291)" opacity="0.6">
                              <g id="Grupo_56725" data-name="Grupo 56725">
                                <g id="Grupo_56724" data-name="Grupo 56724">
                                  <path id="Trazado_107885" data-name="Trazado 107885" d="M85.113,264.437,100.1,265.8l.243-1.25-14.8-1.881-.418,1.594" transform="translate(-85.113 -262.674)" fill="#fff"/>
                                </g>
                              </g>
                            </g>
                          </g>
                        </g>
                        <g id="Grupo_56731" data-name="Grupo 56731" transform="translate(7.438 3.311)">
                          <g id="Grupo_56730" data-name="Grupo 56730">
                            <g id="Grupo_56729" data-name="Grupo 56729">
                              <path id="Trazado_107886" data-name="Trazado 107886" d="M90.387,267.178a63.572,63.572,0,0,1,1.426-6.533,63.492,63.492,0,0,1,1.767-6.451,63.627,63.627,0,0,1-1.426,6.534A63.39,63.39,0,0,1,90.387,267.178Z" transform="translate(-90.377 -254.194)" fill="#263238"/>
                            </g>
                          </g>
                        </g>
                        <g id="Grupo_56734" data-name="Grupo 56734" transform="translate(1.941 8.689)">
                          <g id="Grupo_56733" data-name="Grupo 56733">
                            <g id="Grupo_56732" data-name="Grupo 56732">
                              <path id="Trazado_107887" data-name="Trazado 107887" d="M99.143,266.234a7.21,7.21,0,0,0,.034-3.17,6.307,6.307,0,0,0-1.64-2.967,6.13,6.13,0,0,0-3.731-1.714,6.381,6.381,0,0,0-4.014.913,6.948,6.948,0,0,0-2.335,2.48,8.923,8.923,0,0,0-.947,3.042c-.011,0-.018-.078-.021-.226a4.461,4.461,0,0,1,.035-.65,6.786,6.786,0,0,1,.713-2.283,6.979,6.979,0,0,1,2.379-2.636,6.6,6.6,0,0,1,4.224-.989,6.183,6.183,0,0,1,5.579,4.977,5.922,5.922,0,0,1,.006,2.395,4.028,4.028,0,0,1-.185.624C99.187,266.168,99.155,266.238,99.143,266.234Z" transform="translate(-86.486 -258)" fill="#263238"/>
                            </g>
                          </g>
                        </g>
                      </g>
                      <g id="Grupo_56764" data-name="Grupo 56764" transform="translate(52.89 253.971)">
                        <g id="Grupo_56755" data-name="Grupo 56755">
                          <g id="Grupo_56737" data-name="Grupo 56737">
                            <g id="Grupo_56736" data-name="Grupo 56736">
                              <path id="Trazado_107888" data-name="Trazado 107888" d="M136.111,250.6l-.89,13.431s13.368,4.436,13.445,6.934l-26.118.189.528-20.983Z" transform="translate(-122.548 -250.172)" fill="#e8505b"/>
                            </g>
                          </g>
                          <g id="Grupo_56740" data-name="Grupo 56740" transform="translate(3.846 12.447)" opacity="0.6">
                            <g id="Grupo_56739" data-name="Grupo 56739">
                              <g id="Grupo_56738" data-name="Grupo 56738">
                                <path id="Trazado_107889" data-name="Trazado 107889" d="M126.06,259.02a1.066,1.066,0,0,0-.773,1.194,1.024,1.024,0,0,0,1.177.777,1.125,1.125,0,0,0,.812-1.269,1.064,1.064,0,0,0-1.314-.673" transform="translate(-125.27 -258.982)" fill="#fff"/>
                              </g>
                            </g>
                          </g>
                          <g id="Grupo_56742" data-name="Grupo 56742" transform="translate(0 18.87)" opacity="0.6">
                            <g id="Grupo_56741" data-name="Grupo 56741">
                              <path id="Trazado_107890" data-name="Trazado 107890" d="M122.548,265.642l.136-2.113,25.144.7a1.806,1.806,0,0,1,.972,1.418Z" transform="translate(-122.548 -263.528)" fill="#fff"/>
                            </g>
                          </g>
                          <g id="Grupo_56745" data-name="Grupo 56745" transform="translate(10.678 13.609)">
                            <g id="Grupo_56744" data-name="Grupo 56744">
                              <g id="Grupo_56743" data-name="Grupo 56743">
                                <path id="Trazado_107891" data-name="Trazado 107891" d="M132.529,259.935c-.008.127-.648.167-1.287.557-.65.374-.99.917-1.106.863-.116-.028.1-.786.879-1.245S132.56,259.819,132.529,259.935Z" transform="translate(-130.106 -259.805)" fill="#263238"/>
                              </g>
                            </g>
                          </g>
                          <g id="Grupo_56748" data-name="Grupo 56748" transform="translate(14.022 14.899)">
                            <g id="Grupo_56747" data-name="Grupo 56747">
                              <g id="Grupo_56746" data-name="Grupo 56746">
                                <path id="Trazado_107892" data-name="Trazado 107892" d="M134.255,260.773c.025.124-.533.325-.982.85-.465.513-.592,1.092-.719,1.084-.12.016-.185-.733.386-1.376S134.256,260.652,134.255,260.773Z" transform="translate(-132.472 -260.717)" fill="#263238"/>
                              </g>
                            </g>
                          </g>
                          <g id="Grupo_56751" data-name="Grupo 56751" transform="translate(17.121 16.108)">
                            <g id="Grupo_56750" data-name="Grupo 56750">
                              <g id="Grupo_56749" data-name="Grupo 56749">
                                <path id="Trazado_107893" data-name="Trazado 107893" d="M134.806,263.744c-.117.024-.275-.619.073-1.307s.952-.948,1-.841c.069.107-.329.471-.606,1.04S134.931,263.736,134.806,263.744Z" transform="translate(-134.666 -261.573)" fill="#263238"/>
                              </g>
                            </g>
                          </g>
                          <g id="Grupo_56754" data-name="Grupo 56754" transform="translate(10.246 10.16)">
                            <g id="Grupo_56753" data-name="Grupo 56753">
                              <g id="Grupo_56752" data-name="Grupo 56752">
                                <path id="Trazado_107894" data-name="Trazado 107894" d="M132.518,257.86c-.058.114-.637-.079-1.359-.052s-1.29.237-1.353.126c-.071-.095.49-.55,1.342-.569S132.583,257.761,132.518,257.86Z" transform="translate(-129.8 -257.363)" fill="#263238"/>
                              </g>
                            </g>
                          </g>
                        </g>
                        <g id="Grupo_56757" data-name="Grupo 56757" transform="translate(0.403 2.818)" opacity="0.3">
                          <g id="Grupo_56756" data-name="Grupo 56756">
                            <path id="Trazado_107895" data-name="Trazado 107895" d="M135.814,252.438l-.155,2.394-12.826-.5.049-2.16Z" transform="translate(-122.833 -252.167)"/>
                          </g>
                        </g>
                        <g id="Grupo_56760" data-name="Grupo 56760" transform="translate(9.17 5.742)">
                          <g id="Grupo_56759" data-name="Grupo 56759">
                            <g id="Grupo_56758" data-name="Grupo 56758">
                              <path id="Trazado_107896" data-name="Trazado 107896" d="M132.961,256.439a2.459,2.459,0,0,1-1.307-.047,5.915,5.915,0,0,1-1.355-.462,6.05,6.05,0,0,1-.739-.421,1.594,1.594,0,0,1-.386-.319.555.555,0,0,1-.037-.68.7.7,0,0,1,.567-.274,1.68,1.68,0,0,1,.489.082,4.616,4.616,0,0,1,1.985,1.132c.589.579.781,1.061.738,1.085-.059.04-.342-.369-.944-.851a5.309,5.309,0,0,0-1.147-.692,4.938,4.938,0,0,0-.743-.253c-.274-.082-.51-.09-.583.03-.028.047-.031.065.024.148a1.327,1.327,0,0,0,.283.233,7.087,7.087,0,0,0,.68.415,7.2,7.2,0,0,0,1.249.523A8.723,8.723,0,0,1,132.961,256.439Z" transform="translate(-129.038 -254.236)" fill="#263238"/>
                            </g>
                          </g>
                        </g>
                        <g id="Grupo_56763" data-name="Grupo 56763" transform="translate(12.614 4.004)">
                          <g id="Grupo_56762" data-name="Grupo 56762">
                            <g id="Grupo_56761" data-name="Grupo 56761">
                              <path id="Trazado_107897" data-name="Trazado 107897" d="M131.784,257.123a2.079,2.079,0,0,1-.307-1.273,4.23,4.23,0,0,1,.579-2.21,1.08,1.08,0,0,1,.853-.634.61.61,0,0,1,.534.381,1.71,1.71,0,0,1,.12.483,2.89,2.89,0,0,1-.025.88,3,3,0,0,1-.6,1.334c-.531.661-1.067.8-1.077.753-.041-.065.411-.3.821-.935a3.015,3.015,0,0,0,.451-1.216,2.707,2.707,0,0,0,0-.756c-.032-.278-.129-.506-.235-.48-.129-.006-.356.2-.469.414a4.338,4.338,0,0,0-.346.7,4.674,4.674,0,0,0-.292,1.3C131.732,256.624,131.853,257.106,131.784,257.123Z" transform="translate(-131.476 -253.006)" fill="#263238"/>
                            </g>
                          </g>
                        </g>
                      </g>
                      <g id="Grupo_56765" data-name="Grupo 56765" transform="translate(1.858 43.659)">
                        <path id="Trazado_107898" data-name="Trazado 107898" d="M94.392,103.142s-2.83,15.454-5.1,24.805c-1.766,7.262-6.342,20.873,1.937,24.828s19.41-12,19.41-12l4.723-36.371c-3.291.616-7.015,4.429-10.983,10.037l.721-13.8Z" transform="translate(-86.428 -100.644)" fill="#0ce6ea"/>
                      </g>
                      <g id="Grupo_56766" data-name="Grupo 56766" transform="translate(115.377 52.349)">
                        <path id="Trazado_107899" data-name="Trazado 107899" d="M175.139,123.427l-4.356,2.077-4.007-6.287,2.343-4.854c.222-.451.461-.955.709-1.536a6.629,6.629,0,0,0,.517-2.135,10.186,10.186,0,0,0-.069-2.732c-.216-.81.64-1.474,1.224-1s1.232,2.69.8,5.365,2.682-.164,3.834-1.177,4.862-3.976,5.444-3.861c.855.17.831,1.14-.343,2.125s-4.493,4.189-3.945,4.785l.025,0a3.273,3.273,0,0,1,2.841,2.54c.3,1.318.537,3.136-.2,3.736A42.9,42.9,0,0,1,175.139,123.427Z" transform="translate(-166.776 -106.801)" fill="#ffbe9d"/>
                      </g>
                      <g id="Grupo_56774" data-name="Grupo 56774" transform="translate(33.203)">
                        <g id="Grupo_56769" data-name="Grupo 56769">
                          <g id="Grupo_56767" data-name="Grupo 56767" transform="translate(6.016 5.928)">
                            <path id="Trazado_107900" data-name="Trazado 107900" d="M112.988,78.428l-.116,37.806,16.219.773.469-9.195s5.76,1.143,7.246-4.207c.949-3.418.712-29.831.712-29.831Z" transform="translate(-112.872 -73.774)" fill="#ffbe9d"/>
                          </g>
                          <g id="Grupo_56768" data-name="Grupo 56768">
                            <path id="Trazado_107901" data-name="Trazado 107901" d="M142.94,79.235c-1.092,2.259-6.3,6.393-6.3,6.393l-2.35,6.3c-2.042-1.6-4.783-1.506-5.3,2.081-.376,2.591,2.848,3.115,2.848,3.115-1.876,3.193-3.149,5.776-5.882,8.813-2.956,3.286-4.613,3.618-7.819,3.672h-3.536s-7.235-6.047-5.805-21.971,15.746-11.277,19.162-15.256C133.528,65.9,146.587,71.694,142.94,79.235Z" transform="translate(-108.614 -69.578)" fill="#263238"/>
                          </g>
                        </g>
                        <g id="Grupo_56771" data-name="Grupo 56771" transform="translate(0.991 6.082)">
                          <g id="Grupo_56770" data-name="Grupo 56770">
                            <path id="Trazado_107902" data-name="Trazado 107902" d="M109.315,99.174s.157-.006.452,0a7.267,7.267,0,0,0,1.284-.147,9.19,9.19,0,0,0,4.155-2.2,23.171,23.171,0,0,0,4.212-5.636,41.519,41.519,0,0,1,2.275-3.517,13.49,13.49,0,0,1,3.183-3.172,13.145,13.145,0,0,1,4.134-1.762c1.41-.366,2.795-.592,4.1-.846a15.419,15.419,0,0,0,6.549-2.448,7.087,7.087,0,0,0,2.652-3.83,5.5,5.5,0,0,0,.155-1.28c-.016-.3-.016-.452-.016-.452s.021.154.045.452a5.237,5.237,0,0,1-.127,1.294,7.091,7.091,0,0,1-2.643,3.9,15.427,15.427,0,0,1-6.588,2.5c-1.31.259-2.69.486-4.09.852a13.029,13.029,0,0,0-4.087,1.745,13.412,13.412,0,0,0-3.151,3.135c-.865,1.16-1.584,2.359-2.273,3.5a22.957,22.957,0,0,1-4.261,5.644,9.1,9.1,0,0,1-4.213,2.177,6.533,6.533,0,0,1-1.294.12C109.47,99.19,109.315,99.174,109.315,99.174Z" transform="translate(-109.315 -73.883)" fill="#455a64"/>
                          </g>
                        </g>
                        <g id="Grupo_56773" data-name="Grupo 56773" transform="translate(0.156 3.976)">
                          <g id="Grupo_56772" data-name="Grupo 56772">
                            <path id="Trazado_107903" data-name="Trazado 107903" d="M108.724,86.838s.256-.1.752-.266a10.941,10.941,0,0,1,2.222-.528,5.041,5.041,0,0,1,3.48.753,2.9,2.9,0,0,1,1.24,1.854,2.611,2.611,0,0,1-.715,2.369,2.035,2.035,0,0,1-1.272.511,2.658,2.658,0,0,1-1.385-.372,4.173,4.173,0,0,1-1.855-2.348,5.888,5.888,0,0,1-.14-3.221,5.6,5.6,0,0,1,1.748-2.93,5.826,5.826,0,0,1,3.272-1.464,10.041,10.041,0,0,1,3.727.482,25.846,25.846,0,0,0,3.769.9,15.282,15.282,0,0,0,3.976.008,13.182,13.182,0,0,0,3.825-1.057,4.523,4.523,0,0,0,2.563-2.686,3.5,3.5,0,0,0-.852-3.4,2.987,2.987,0,0,0-3.276-.485,2.479,2.479,0,0,0-1.209,1.133,2.741,2.741,0,0,0-.26,1.6,3.709,3.709,0,0,0,1.65,2.6,5.41,5.41,0,0,0,2.836.8,8.5,8.5,0,0,0,2.721-.408,9.813,9.813,0,0,0,4.025-2.453,10.445,10.445,0,0,0,2.081-2.916,11.1,11.1,0,0,0,.762-2.143c.1-.511.158-.78.158-.78s-.04.271-.129.787a10.676,10.676,0,0,1-.739,2.162,10.37,10.37,0,0,1-2.074,2.95,9.879,9.879,0,0,1-4.053,2.5,8.555,8.555,0,0,1-2.755.422,5.518,5.518,0,0,1-2.9-.808,3.824,3.824,0,0,1-1.714-2.686,2.866,2.866,0,0,1,.27-1.681,2.611,2.611,0,0,1,1.273-1.2,3.123,3.123,0,0,1,3.435.507,3.63,3.63,0,0,1,.893,3.545,4.663,4.663,0,0,1-2.639,2.782,13.267,13.267,0,0,1-3.871,1.071,15.39,15.39,0,0,1-4.014-.01,25.831,25.831,0,0,1-3.789-.91,9.917,9.917,0,0,0-3.673-.482,5.668,5.668,0,0,0-4.775,7.433,4.048,4.048,0,0,0,1.794,2.286,2.518,2.518,0,0,0,1.322.36,1.92,1.92,0,0,0,1.205-.478,2.514,2.514,0,0,0,.691-2.273,2.827,2.827,0,0,0-1.2-1.8A4.99,4.99,0,0,0,111.7,86.1a11.445,11.445,0,0,0-2.22.5C108.987,86.758,108.724,86.838,108.724,86.838Z" transform="translate(-108.724 -72.392)" fill="#455a64"/>
                          </g>
                        </g>
                      </g>
                      <g id="Grupo_56784" data-name="Grupo 56784" transform="translate(0.662 119.792)">
                        <g id="Grupo_56775" data-name="Grupo 56775">
                          <path id="Trazado_107904" data-name="Trazado 107904" d="M107.466,155.46,85.874,297.271l17.932,2.277L129.11,180.6l6.371,119.746,19.436-.339-3.222-144.214Z" transform="translate(-85.46 -155.094)" fill="#263238"/>
                          <path id="Trazado_107905" data-name="Trazado 107905" d="M135.258,300.822l-.018-.35-6.225-117.006-24.8,116.59-18.632-2.365L107.275,155.2l44.9.339,3.238,144.93Zm-5.81-122.876,6.5,122.138,18.721-.328-3.206-143.5-43.563-.328L86.41,297.064l17.232,2.189Z" transform="translate(-85.581 -155.201)" fill="#263238"/>
                        </g>
                        <g id="Grupo_56777" data-name="Grupo 56777" transform="translate(63.493 17.768)">
                          <g id="Grupo_56776" data-name="Grupo 56776">
                            <path id="Trazado_107906" data-name="Trazado 107906" d="M130.709,294.7c-.1,0-.188-28.414-.188-63.456s.085-63.462.188-63.462.189,28.408.189,63.462S130.813,294.7,130.709,294.7Z" transform="translate(-130.521 -167.777)" fill="#455a64"/>
                          </g>
                        </g>
                        <g id="Grupo_56779" data-name="Grupo 56779" transform="translate(14.401 26.453)">
                          <g id="Grupo_56778" data-name="Grupo 56778">
                            <path id="Trazado_107907" data-name="Trazado 107907" d="M95.775,291.64a1.848,1.848,0,0,1,.042-.308l.164-.9c.157-.808.38-1.965.667-3.447.6-3.008,1.472-7.327,2.543-12.658,2.177-10.682,5.261-25.424,8.8-41.676s6.872-30.948,9.336-41.567c1.243-5.292,2.252-9.582,2.954-12.567.356-1.467.633-2.612.828-3.412l.223-.884a1.8,1.8,0,0,1,.09-.3,2,2,0,0,1-.052.307l-.188.893c-.178.8-.432,1.954-.759,3.428-.674,2.992-1.642,7.29-2.837,12.594-2.4,10.634-5.684,25.332-9.227,41.588s-6.666,30.982-8.909,41.649c-1.12,5.321-2.029,9.631-2.66,12.634-.316,1.475-.564,2.629-.736,3.433l-.2.89A1.941,1.941,0,0,1,95.775,291.64Z" transform="translate(-95.774 -173.924)" fill="#455a64"/>
                          </g>
                        </g>
                        <g id="Grupo_56781" data-name="Grupo 56781" transform="translate(29.181 25.342)">
                          <g id="Grupo_56780" data-name="Grupo 56780">
                            <path id="Trazado_107908" data-name="Trazado 107908" d="M127.076,173.176a3.538,3.538,0,0,1-.821.109l-2.241.158c-1.892.126-4.508.256-7.381.537s-5.465.671-7.345.918l-2.228.283a3.552,3.552,0,0,1-.825.055,3.389,3.389,0,0,1,.8-.2c.521-.1,1.276-.242,2.211-.4,1.871-.315,4.46-.742,7.348-1.03s5.511-.37,7.407-.428c.948-.025,1.715-.04,2.246-.038A3.546,3.546,0,0,1,127.076,173.176Z" transform="translate(-106.235 -173.138)" fill="#455a64"/>
                          </g>
                        </g>
                        <g id="Grupo_56783" data-name="Grupo 56783" transform="translate(55.993 8.549)">
                          <g id="Grupo_56782" data-name="Grupo 56782">
                            <path id="Trazado_107909" data-name="Trazado 107909" d="M135.831,168.874a1.542,1.542,0,0,1-.558.14,7.742,7.742,0,0,1-1.564.071,9.086,9.086,0,0,1-8.007-5.754,7.63,7.63,0,0,1-.432-1.506,1.565,1.565,0,0,1-.045-.572c.068-.014.192.8.723,1.974a9.449,9.449,0,0,0,7.78,5.592C135.015,168.946,135.824,168.806,135.831,168.874Z" transform="translate(-125.213 -161.252)" fill="#455a64"/>
                          </g>
                        </g>
                      </g>
                      <g id="Grupo_56798" data-name="Grupo 56798" transform="translate(18.976 44.608)">
                        <g id="Grupo_56795" data-name="Grupo 56795">
                          <g id="Grupo_56786" data-name="Grupo 56786">
                            <g id="Grupo_56785" data-name="Grupo 56785">
                              <path id="Trazado_107910" data-name="Trazado 107910" d="M98.544,180.584l49.675-.161L145.5,147.639c-.3-7.5-.256-8.4-.441-15.322,0,0,7.051,8.526,12.6,14.506a11.3,11.3,0,0,0,13.12,2.516L199.8,129.092l-5.434-13.9-26.376,16.144c-1.208-.75-11.478-15.4-18.573-22.55a25.111,25.111,0,0,0-17.111-7.4,124.953,124.953,0,0,0-16.023.643,16.761,16.761,0,0,0-14.918,15.28c-.514,6.13-.1,13.247-.1,25.342Z" transform="translate(-98.544 -101.342)" fill="#0ce6ea"/>
                            </g>
                          </g>
                          <g id="Grupo_56788" data-name="Grupo 56788" transform="translate(2.226 19.28)">
                            <g id="Grupo_56787" data-name="Grupo 56787">
                              <path id="Trazado_107911" data-name="Trazado 107911" d="M100.227,114.988s.008.131.008.383c0,.294,0,.656-.007,1.1-.013.952-.013,2.331,0,4.035.02,3.409.157,8.115.3,13.315s.175,9.914.045,13.322c-.061,1.7-.136,3.083-.216,4.032-.035.441-.065.8-.089,1.095-.023.25-.042.38-.042.38s0-.133.011-.383l.062-1.095c.062-.951.12-2.33.167-4.032.1-3.406.058-8.115-.089-13.315s-.267-9.908-.259-13.317c0-1.705.018-3.086.051-4.038.014-.441.025-.8.035-1.1C100.215,115.119,100.227,114.988,100.227,114.988Z" transform="translate(-100.12 -114.988)" fill="#0ce6ea"/>
                            </g>
                          </g>
                          <g id="Grupo_56790" data-name="Grupo 56790" transform="translate(68.354 30.093)">
                            <g id="Grupo_56789" data-name="Grupo 56789">
                              <path id="Trazado_107912" data-name="Trazado 107912" d="M146.929,127.234a3.163,3.163,0,0,1,.106-.684c.083-.418.209-.995.357-1.63s.291-1.208.4-1.621a3.013,3.013,0,0,1,.209-.658,3.285,3.285,0,0,1-.106.687c-.083.418-.209.993-.358,1.626s-.29,1.205-.4,1.618A3.128,3.128,0,0,1,146.929,127.234Z" transform="translate(-146.924 -122.641)" fill="#0ce6ea"/>
                            </g>
                          </g>
                          <g id="Grupo_56792" data-name="Grupo 56792" transform="translate(69.8 29.833)">
                            <g id="Grupo_56791" data-name="Grupo 56791">
                              <path id="Trazado_107913" data-name="Trazado 107913" d="M149.152,127.716a23.964,23.964,0,0,1-.672-2.612,24.368,24.368,0,0,1-.527-2.646,23.911,23.911,0,0,1,.674,2.614A24.107,24.107,0,0,1,149.152,127.716Z" transform="translate(-147.948 -122.457)" fill="#0ce6ea"/>
                            </g>
                          </g>
                          <g id="Grupo_56794" data-name="Grupo 56794" transform="translate(35.774 1.512)">
                            <g id="Grupo_56793" data-name="Grupo 56793">
                              <path id="Trazado_107914" data-name="Trazado 107914" d="M135.832,133.106s-.1-.082-.271-.249l-.757-.736c-.656-.644-1.6-1.577-2.727-2.772a45.435,45.435,0,0,1-3.7-4.419,25.577,25.577,0,0,1-3.371-6.2,17.3,17.3,0,0,1-1.11-6.95,14.351,14.351,0,0,1,1.249-5.61,8.239,8.239,0,0,1,2.441-3,7.563,7.563,0,0,1,.883-.582c.211-.122.324-.178.324-.178.016.024-.448.243-1.171.805a8.353,8.353,0,0,0-2.381,3,14.365,14.365,0,0,0-1.205,5.571,17.273,17.273,0,0,0,1.113,6.89,25.734,25.734,0,0,0,3.341,6.168,47.167,47.167,0,0,0,3.669,4.428c1.115,1.2,2.049,2.146,2.69,2.8l.738.757C135.75,133.01,135.832,133.106,135.832,133.106Z" transform="translate(-123.864 -102.412)" fill="#0ce6ea"/>
                            </g>
                          </g>
                        </g>
                        <g id="Grupo_56797" data-name="Grupo 56797" transform="translate(38.743 21.544)" opacity="0.3">
                          <g id="Grupo_56796" data-name="Grupo 56796">
                            <path id="Trazado_107915" data-name="Trazado 107915" d="M125.966,116.59c3.069,9.641,5.438,19.761,8.505,29.4l-.73-19.97A47.813,47.813,0,0,1,125.966,116.59Z" transform="translate(-125.966 -116.59)"/>
                          </g>
                        </g>
                      </g>
                      <g id="Grupo_56800" data-name="Grupo 56800" transform="translate(7.8 56.98)">
                        <g id="Grupo_56799" data-name="Grupo 56799">
                          <path id="Trazado_107916" data-name="Trazado 107916" d="M90.634,131.886a1.727,1.727,0,0,1,.095-.237l.3-.668c.257-.581.646-1.413,1.137-2.436.983-2.044,2.409-4.839,4.116-7.854s3.372-5.672,4.621-7.567c.624-.948,1.139-1.708,1.5-2.228l.421-.6a1.676,1.676,0,0,1,.155-.2,1.562,1.562,0,0,1-.13.22l-.4.612-1.462,2.254c-1.226,1.907-2.874,4.573-4.58,7.584s-3.144,5.794-4.151,7.827c-.473.966-.869,1.776-1.181,2.412l-.321.657A1.514,1.514,0,0,1,90.634,131.886Z" transform="translate(-90.634 -110.096)" fill="#263238"/>
                        </g>
                      </g>
                      <g id="Grupo_56802" data-name="Grupo 56802" transform="translate(7.951 69.497)">
                        <g id="Grupo_56801" data-name="Grupo 56801">
                          <path id="Trazado_107917" data-name="Trazado 107917" d="M95.486,118.984c.007.024-.307.126-.793.335a10.114,10.114,0,0,0-3.364,2.34c-.365.383-.568.641-.588.626s.034-.076.119-.2a5.828,5.828,0,0,1,.39-.5,8.49,8.49,0,0,1,3.4-2.367,5.669,5.669,0,0,1,.6-.194A.7.7,0,0,1,95.486,118.984Z" transform="translate(-90.74 -118.981)" fill="#263238"/>
                        </g>
                      </g>
                    </g>
                  </g>
                  <g id="Grupo_56806" data-name="Grupo 56806" transform="translate(8.655 54.679)">
                    <g id="Grupo_56805" data-name="Grupo 56805">
                      <path id="Trazado_107918" data-name="Trazado 107918" d="M95.962,108.452a21.628,21.628,0,0,1-2.207,3.371,21.49,21.49,0,0,1-2.512,3.151A21.836,21.836,0,0,1,93.45,111.6,21.494,21.494,0,0,1,95.962,108.452Z" transform="translate(-91.239 -108.45)" fill="#fafafa"/>
                    </g>
                  </g>
                </g>
                <g id="Grupo_56809" data-name="Grupo 56809" transform="translate(18.617 80.674)">
                  <path id="Trazado_107919" data-name="Trazado 107919" d="M98.29,102.564a1.751,1.751,0,0,0,1.842-.87c.406-.608.593-1.334.954-1.968,1.078-1.9,3.531-2.723,4.517-4.668.137-.271.222-.65-.014-.842-.219-.178-.543-.057-.794.069L98.332,97.52" transform="translate(-98.289 -93.93)" fill="#ffbe9d"/>
                  <g id="Grupo_56808" data-name="Grupo 56808">
                    <path id="Trazado_107920" data-name="Trazado 107920" d="M98.333,97.577A2.885,2.885,0,0,1,99,97.156c.439-.247,1.079-.593,1.876-1.013.831-.431,1.776-.92,2.806-1.455l.814-.415a1.437,1.437,0,0,1,1.054-.253.613.613,0,0,1,.394.559,1.243,1.243,0,0,1-.13.578,4.651,4.651,0,0,1-.582.891,27.725,27.725,0,0,1-2.93,2.564,5.43,5.43,0,0,0-1.054,1.242c-.259.437-.428.9-.629,1.313a2.541,2.541,0,0,1-1.532,1.515.916.916,0,0,1-.793-.061,2.13,2.13,0,0,0,.743-.092,2.464,2.464,0,0,0,1.317-1.483c.178-.4.331-.877.6-1.362a5.653,5.653,0,0,1,1.092-1.351,31.835,31.835,0,0,0,2.869-2.546,4.408,4.408,0,0,0,.53-.8c.131-.27.127-.55-.031-.583-.165-.064-.463.085-.739.225l-.819.4L101,96.4c-.812.387-1.474.694-1.934.9A2.906,2.906,0,0,1,98.333,97.577Z" transform="translate(-98.29 -93.987)" fill="#eb996e"/>
                  </g>
                </g>
              </g>
            </g>
          </g>
        </g>
        <rect id="Rectángulo_5859" data-name="Rectángulo 5859" width="400" height="349" transform="translate(1020 1316.47)" fill="none"/>
      </g>
    </g>
  </g>
</svg>
