<svg xmlns="http://www.w3.org/2000/svg" width="91.026" height="91.026" viewBox="0 0 91.026 91.026">
  <g id="Grupo_57520" data-name="Grupo 57520" transform="translate(-285 -7583.5)">
    <g id="Grupo_57106" data-name="Grupo 57106" transform="translate(285 7583.5)">
      <circle id="Elipse_4484" data-name="Elipse 4484" cx="45.513" cy="45.513" r="45.513" transform="translate(0 0)" fill="#9f0925"/>
    </g>
    <g id="Boxes" transform="translate(1359.466 9921.49)">
      <path id="Trazado_108371" data-name="Trazado 108371" d="M-1001.382-2289.955l-3.815-5.722a.953.953,0,0,0-.793-.425h-8.583v-16.213a1.683,1.683,0,0,0-.16-.529l-3.815-5.722a.952.952,0,0,0-.794-.424h-19.074a.951.951,0,0,0-.793.424l-3.815,5.722a.481.481,0,0,0-.059.119.933.933,0,0,0-.1.41v16.213h-8.583a.954.954,0,0,0-.793.425l-3.815,5.722a1.7,1.7,0,0,0-.16.529v22.888a.954.954,0,0,0,.954.954h53.406a.954.954,0,0,0,.954-.954v-22.888A1.7,1.7,0,0,0-1001.382-2289.955Zm-2.575-.424h-7.9l-.636-3.815h5.994Zm-13.477,1.907h3.815v6.8l-1.378-.918a.953.953,0,0,0-1.059,0l-1.378.918Zm3.007-5.722.635,3.815h-.781v-3.815Zm-5.425-22.888,2.544,3.815h-7.9l-.636-3.815Zm-10.126,0h2.2l.635,3.815h-3.469Zm-.808,5.722h3.815v6.8l-1.378-.918a.954.954,0,0,0-1.059,0l-1.378.918Zm-7.119-5.722h5.994l-.636,3.815h-7.9Zm-3.371,5.722h8.583v8.583a.954.954,0,0,0,.953.954.954.954,0,0,0,.529-.16l2.332-1.557,2.332,1.555a.954.954,0,0,0,1.323-.264.955.955,0,0,0,.16-.528v-8.583h8.583v20.981h-24.8Zm-2.861,22.888h3.815v6.8l-1.378-.918a.953.953,0,0,0-1.058,0l-1.378.918Zm.954-5.722v3.815h-.781l.635-3.815Zm-8.073,0h5.994l-.636,3.815h-7.9Zm-3.371,5.722h8.583v8.583a.953.953,0,0,0,.954.954.95.95,0,0,0,.529-.16l2.332-1.556,2.332,1.554a.954.954,0,0,0,1.323-.264.951.951,0,0,0,.16-.527v-8.583h8.583v20.981h-24.8Zm51.5,20.981h-24.8v-20.981h8.583v8.583a.953.953,0,0,0,.954.954.951.951,0,0,0,.529-.16l2.332-1.556,2.332,1.554a.954.954,0,0,0,1.323-.264.954.954,0,0,0,.161-.527v-8.583h8.583Z" fill="#fff"/>
    </g>
  </g>
</svg>
