<svg xmlns="http://www.w3.org/2000/svg" width="91.026" height="91.026" viewBox="0 0 91.026 91.026">
  <g id="Grupo_57521" data-name="Grupo 57521" transform="translate(-285 -7766.5)">
    <g id="Grupo_57107" data-name="Grupo 57107" transform="translate(285 7766.5)">
      <circle id="Elipse_4484" data-name="Elipse 4484" cx="45.513" cy="45.513" r="45.513" transform="translate(0 0)" fill="#9f0925"/>
    </g>
    <path id="Trazado_108370" data-name="Trazado 108370" d="M-1670.115-2213.558a1.284,1.284,0,0,0-.78-.885l-22.5-8.723a1.282,1.282,0,0,0-1.431.356l-5.509,6.365-22.2,8.608a1.248,1.248,0,0,0-.491.36l-.014,0-5.719,6.606a1.28,1.28,0,0,0,.13,1.806,1.285,1.285,0,0,0,.366.222l4.913,1.953v17.852a1.282,1.282,0,0,0,.817,1.194l22.5,8.722a1.3,1.3,0,0,0,.463.086,1.276,1.276,0,0,0,.459-.1l0,.01,22.5-8.72a1.282,1.282,0,0,0,.815-1.194v-27.128l5.406-6.246A1.284,1.284,0,0,0-1670.115-2213.558Zm-28.181.065,17.677,6.851-17.677,6.851Zm-2.561,0v13.7l-17.677-6.852Zm-20.841,8.37,19.962,7.734-4.083,4.71-15.757-6.263h0l-4.067-1.618Zm.9,25.206v-15.959l14.875,5.915a1.28,1.28,0,0,0,1.441-.351l3.624-4.18v22.3Zm22.5,7.728v-24.857l19.937-7.729v24.857Zm20.842-35.975-19.964-7.736,3.938-4.552,19.964,7.737Z" transform="translate(2030.075 10007.752)" fill="#fff"/>
  </g>
</svg>
