<svg xmlns="http://www.w3.org/2000/svg" width="30.753" height="60.337" viewBox="0 0 30.753 60.337"><g transform="translate(-71.641 1238.706)"><path d="M74.916-1196.535l-3.275,3.273v14.893h3.275Z" fill="#068781"/><path d="M77.337-1225.534a7.435,7.435,0,0,1,5.847-2.682,7.649,7.649,0,0,1,5.678,2.222,7.645,7.645,0,0,1,2.205,5.624,16.117,16.117,0,0,1-2.131,7.346c-1.42,2.709-4.254,6.292-8.551,10.749l-5.469,5.74v18.166h27.478v-10.393H81.912l6.449-6.937q7.74-8.246,10.651-14.277a26.123,26.123,0,0,0,2.913-11.282,17.456,17.456,0,0,0-2.4-8.663,16.74,16.74,0,0,0-6.407-6.524,18.378,18.378,0,0,0-9.215-2.261,19.894,19.894,0,0,0-8.984,1.939v17.63A11.212,11.212,0,0,1,77.337-1225.534Z" fill="#0ac4bf"/><path d="M74.916-1219.137v-17.63a18.226,18.226,0,0,0-3.275,1.967v16.566h3.17C74.821-1218.518,74.916-1218.846,74.916-1219.137Z" fill="#068781"/><path d="M74.916-1219.137a11.212,11.212,0,0,1,2.421-6.4A8.212,8.212,0,0,1,79-1226.992v-11.2a17.356,17.356,0,0,0-4.082,1.427Z" fill="#068781"/><path d="M79-1200.819l-4.082,4.284v18.166H79Z" fill="#068781"/></g></svg>