<svg xmlns="http://www.w3.org/2000/svg" width="57.737" height="83.903" viewBox="0 0 57.737 83.903">
  <g id="Grupo_57167" data-name="Grupo 57167" transform="translate(-876 -2890.5)">
    <rect id="Rectángulo_6324" data-name="Rectángulo 6324" width="48.945" height="1.512" transform="translate(880.438 2972.892)" fill="#0ac4bf"/>
    <g id="Grupo_57163" data-name="Grupo 57163" transform="translate(3554.438 2743.585)">
      <path id="Trazado_108515" data-name="Trazado 108515" d="M-2626.474,186.176h-25.4a1.154,1.154,0,0,0-1.154,1.155v25.4a1.155,1.155,0,0,0,1.154,1.155h25.4a1.155,1.155,0,0,0,1.154-1.155v-25.4A1.154,1.154,0,0,0-2626.474,186.176Zm-1.155,25.4h-23.1v-23.1h23.1Z" fill="#25ced1"/>
      <path id="Trazado_108516" data-name="Trazado 108516" d="M-2648.414,190.795h2.309V193.1h-2.309Z" fill="#25ced1"/>
      <path id="Trazado_108517" data-name="Trazado 108517" d="M-2641.486,196.569v-5.774h-2.309v4.619h-4.619v2.309h5.773A1.154,1.154,0,0,0-2641.486,196.569Z" fill="#25ced1"/>
      <path id="Trazado_108518" data-name="Trazado 108518" d="M-2647.26,209.271h5.774v-2.31h-4.619v-6.928h-2.309v8.083A1.155,1.155,0,0,0-2647.26,209.271Z" fill="#25ced1"/>
      <path id="Trazado_108519" data-name="Trazado 108519" d="M-2638.022,202.342h-5.773v2.31h4.618v4.619h2.31V203.5A1.155,1.155,0,0,0-2638.022,202.342Z" fill="#25ced1"/>
      <path id="Trazado_108520" data-name="Trazado 108520" d="M-2632.248,206.961h2.309v2.31h-2.309Z" fill="#25ced1"/>
      <path id="Trazado_108521" data-name="Trazado 108521" d="M-2634.558,204.652h2.31v2.309h-2.31Z" fill="#25ced1"/>
      <path id="Trazado_108522" data-name="Trazado 108522" d="M-2641.486,197.723h2.309v2.31h-2.309Z" fill="#25ced1"/>
      <path id="Trazado_108523" data-name="Trazado 108523" d="M-2639.177,195.414h2.31v2.309h-2.31Z" fill="#25ced1"/>
      <path id="Trazado_108524" data-name="Trazado 108524" d="M-2634.558,197.723h2.31V191.95a1.154,1.154,0,0,0-1.155-1.155h-5.774V193.1h4.619Z" fill="#25ced1"/>
      <path id="Trazado_108525" data-name="Trazado 108525" d="M-2634.558,200.033h2.31v2.309h-2.31Z" fill="#25ced1"/>
      <path id="Trazado_108526" data-name="Trazado 108526" d="M-2621.039,161.11l-13.857-13.857a1.149,1.149,0,0,0-.816-.338h-41.571a1.155,1.155,0,0,0-1.155,1.155v69.284a1.156,1.156,0,0,0,1.155,1.155h55.428a1.155,1.155,0,0,0,1.154-1.155V161.926A1.151,1.151,0,0,0-2621.039,161.11Zm-13.519-10.253,9.915,9.915h-9.915Zm-41.57,65.342V149.224h39.261v12.7a1.154,1.154,0,0,0,1.155,1.155h12.7V216.2Z" fill="#25ced1"/>
      <path id="Trazado_108527" data-name="Trazado 108527" d="M-2661.117,151.534h-11.547a1.155,1.155,0,0,0-1.155,1.154v11.548a1.156,1.156,0,0,0,1.155,1.155h11.547a1.155,1.155,0,0,0,1.155-1.155V152.688A1.154,1.154,0,0,0-2661.117,151.534Zm-10.392,11.547v-9.238h7.6l-6.112,6.112,1.633,1.633,6.112-6.112v7.6Z" fill="#25ced1"/>
      <path id="Trazado_108528" data-name="Trazado 108528" d="M-2661.117,167.7h-11.547a1.155,1.155,0,0,0-1.155,1.155V180.4a1.155,1.155,0,0,0,1.155,1.155h11.547a1.154,1.154,0,0,0,1.155-1.155V168.855A1.154,1.154,0,0,0-2661.117,167.7Zm-10.392,11.547V170.01h7.6l-6.112,6.112,1.633,1.632,6.112-6.112v7.6Z" fill="#25ced1"/>
      <path id="Trazado_108529" data-name="Trazado 108529" d="M-2657.652,179.247h2.309v2.31h-2.309Z" fill="#25ced1"/>
      <path id="Trazado_108530" data-name="Trazado 108530" d="M-2653.033,179.247h18.475v2.31h-18.475Z" fill="#25ced1"/>
      <path id="Trazado_108531" data-name="Trazado 108531" d="M-2657.652,174.629h2.309v2.309h-2.309Z" fill="#25ced1"/>
      <path id="Trazado_108532" data-name="Trazado 108532" d="M-2653.033,174.629h18.475v2.309h-18.475Z" fill="#25ced1"/>
      <path id="Trazado_108533" data-name="Trazado 108533" d="M-2657.652,163.081h2.309v2.31h-2.309Z" fill="#25ced1"/>
      <path id="Trazado_108534" data-name="Trazado 108534" d="M-2653.033,163.081h13.856v2.31h-13.856Z" fill="#25ced1"/>
      <path id="Trazado_108535" data-name="Trazado 108535" d="M-2657.652,158.462h2.309v2.31h-2.309Z" fill="#25ced1"/>
      <path id="Trazado_108536" data-name="Trazado 108536" d="M-2653.033,158.462h13.856v2.31h-13.856Z" fill="#25ced1"/>
    </g>
  </g>
</svg>
