<svg xmlns="http://www.w3.org/2000/svg" width="91.636" height="91.636" viewBox="0 0 91.636 91.636">
  <g id="Grupo_55665" data-name="Grupo 55665" transform="translate(106.06 -307.818)">
    <circle id="Elipse_4485" data-name="Elipse 4485" cx="45.818" cy="45.818" r="45.818" transform="translate(-106.06 307.818)" fill="#35b8bb"/>
    <path id="Trazado_105740" data-name="Trazado 105740" d="M-25.872,334.955a44.567,44.567,0,0,0-2.245-13.978,45.664,45.664,0,0,0-32.126-13.159,45.817,45.817,0,0,0-45.818,45.818,45.965,45.965,0,0,0,1.009,9.574A44.542,44.542,0,0,0-70.5,379.587,44.633,44.633,0,0,0-25.872,334.955Z" transform="translate(0 0)" fill="#25ced1"/>
    <g id="Grupo_55664" data-name="Grupo 55664" transform="translate(-82.702 334.315)">
      <path id="Trazado_105741" data-name="Trazado 105741" d="M-66.293,364.784q0,8.711-9.818,8.709-9.793,0-9.793-8.709v-25.37q0-8.731,9.793-8.731,9.818,0,9.818,8.731Zm-6.827-25.37q0-2.811-2.967-2.813h-.049q-2.943,0-2.942,2.813v25.37q0,2.811,2.967,2.811,2.99,0,2.991-2.811Z" transform="translate(85.904 -330.683)" fill="#fff"/>
      <path id="Trazado_105742" data-name="Trazado 105742" d="M-50.994,339.411q0-2.79-2.967-2.813h-.049q-2.943,0-2.942,2.813v5.56h-6.826v-5.56q0-8.711,9.792-8.71,9.818,0,9.818,8.71v7.209a5.883,5.883,0,0,1-3.74,5.771,5.885,5.885,0,0,1,3.74,5.772v6.617q0,8.711-9.818,8.709-9.793,0-9.792-8.709v-5.56h6.826v5.56q0,2.811,2.942,2.811h.049q2.967-.021,2.967-2.811v-6.617q0-2.263-1.085-2.686a5.6,5.6,0,0,0-1.786-.211h-2.242v-5.9h2.773a3.2,3.2,0,0,0,1.447-.254q.892-.443.892-2.537Z" transform="translate(89.419 -330.68)" fill="#fff"/>
    </g>
  </g>
</svg>
