<svg id="Grupo_57358" data-name="Grupo 57358" xmlns="http://www.w3.org/2000/svg" xmlns:xlink="http://www.w3.org/1999/xlink" width="150.898" height="171.722" viewBox="0 0 150.898 171.722">
  <defs>
    <clipPath id="clip-path">
      <rect id="Rectángulo_6399" data-name="Rectángulo 6399" width="150.898" height="171.722" fill="none"/>
    </clipPath>
    <clipPath id="clip-path-3">
      <rect id="Rectángulo_6389" data-name="Rectángulo 6389" width="66.685" height="40.747" fill="none"/>
    </clipPath>
    <clipPath id="clip-path-4">
      <rect id="Rectángulo_6390" data-name="Rectángulo 6390" width="66.681" height="40.757" fill="none"/>
    </clipPath>
    <clipPath id="clip-path-5">
      <rect id="Rectángulo_6391" data-name="Rectángulo 6391" width="66.681" height="40.751" fill="none"/>
    </clipPath>
    <clipPath id="clip-path-6">
      <rect id="Rectángulo_6392" data-name="Rectángulo 6392" width="66.678" height="40.754" fill="none"/>
    </clipPath>
    <clipPath id="clip-path-7">
      <rect id="Rectángulo_6393" data-name="Rectángulo 6393" width="66.678" height="40.757" fill="none"/>
    </clipPath>
    <clipPath id="clip-path-10">
      <rect id="Rectángulo_6396" data-name="Rectángulo 6396" width="71.129" height="43.647" fill="none"/>
    </clipPath>
    <clipPath id="clip-path-11">
      <rect id="Rectángulo_6397" data-name="Rectángulo 6397" width="69.502" height="42.703" fill="none"/>
    </clipPath>
  </defs>
  <g id="Grupo_57357" data-name="Grupo 57357" clip-path="url(#clip-path)">
    <g id="Grupo_57356" data-name="Grupo 57356">
      <g id="Grupo_57355" data-name="Grupo 57355" clip-path="url(#clip-path)">
        <path id="Trazado_108929" data-name="Trazado 108929" d="M28.087,118.123a.716.716,0,0,0-.842-.365,2.722,2.722,0,0,1-.655.145c-.015.2-.037.385-.042.412a3.753,3.753,0,0,1-.158.641c-.02.055-.067.228-.15.25a1.452,1.452,0,0,1-.575.013c-.865.485-3.249.257-3.752.454a1.959,1.959,0,0,1-1.663-.022.376.376,0,0,1-.177-.411,2.87,2.87,0,0,0-.544,2.051c.255.964,1.1,1.008,1.907.864s1.484-.676,2.039-.72a14.014,14.014,0,0,0,3.89-.965,3.586,3.586,0,0,0,.721-2.349" transform="translate(4.319 26.099)" fill="#7d85a8"/>
        <path id="Trazado_108930" data-name="Trazado 108930" d="M20.074,119.026a.376.376,0,0,0,.177.41,1.968,1.968,0,0,0,1.663.022,23.06,23.06,0,0,0,3.235-.994.546.546,0,0,0,.3-.613c-.022-.033,1.585-.177,1.8-.31a.717.717,0,0,1,.842.367,3.581,3.581,0,0,1-.721,2.349,13.969,13.969,0,0,1-3.89.964c-.555.045-1.23.577-2.039.721s-1.652.1-1.906-.865a2.864,2.864,0,0,1,.542-2.05" transform="translate(4.319 26.05)" fill="#1d2236"/>
        <path id="Trazado_108931" data-name="Trazado 108931" d="M13.454,28.185a.828.828,0,0,1-.628-1.365l8.583-10.01a.837.837,0,0,1,.215-.177l12.25-7.073a.83.83,0,0,1,1.029.164l4.623,5.154a.827.827,0,0,1-.265,1.3L13.8,28.105a.829.829,0,0,1-.351.079m9.118-10.19-5.99,6.986,20.971-9.826-3.433-3.826Z" transform="translate(2.8 2.095)" fill="#4c94a0"/>
        <path id="Trazado_108932" data-name="Trazado 108932" d="M43.271,87.466,47.2,85.2l-3.4-1.965L39.868,85.5Z" transform="translate(8.839 18.454)" fill="#9cd3db"/>
        <path id="Trazado_108933" data-name="Trazado 108933" d="M46.487,102.235V8.355l-3.4-1.965v93.88Z" transform="translate(9.552 1.417)" fill="#9cd3db"/>
        <path id="Trazado_108934" data-name="Trazado 108934" d="M47.2,8.355l-3.929,2.269-3.4-1.965L43.8,6.39Z" transform="translate(8.839 1.417)" fill="#b8dcd5"/>
        <path id="Trazado_108935" data-name="Trazado 108935" d="M43.271,10.212v93.88l-3.4-1.965V8.247Z" transform="translate(8.839 1.829)" fill="#aed2cb"/>
        <path id="Trazado_108936" data-name="Trazado 108936" d="M46.583,8v93.88l-3.929,2.269V10.267Z" transform="translate(9.457 1.773)" fill="#a0d9e0"/>
        <path id="Trazado_108937" data-name="Trazado 108937" d="M43.271,10.212v93.88l-3.4-1.965V8.247Z" transform="translate(8.839 1.829)" fill="#9cd3db"/>
        <path id="Trazado_108938" data-name="Trazado 108938" d="M20.135,100.824l3.929-2.269-3.4-1.965L16.732,98.86Z" transform="translate(3.71 21.416)" fill="#9cd3db"/>
        <path id="Trazado_108939" data-name="Trazado 108939" d="M47.821,27.734,18.667,44.566l-1.738-1L46.082,26.73Z" transform="translate(3.753 5.926)" fill="#bff8fa"/>
        <path id="Trazado_108940" data-name="Trazado 108940" d="M18.667,41.512v2.048l-1.739-1V40.507Z" transform="translate(3.753 8.981)" fill="#aed2cb"/>
        <path id="Trazado_108941" data-name="Trazado 108941" d="M47.505,27.552V29.6L18.351,46.431V44.384Z" transform="translate(4.069 6.109)" fill="#a0d9e0"/>
        <path id="Trazado_108942" data-name="Trazado 108942" d="M23.351,115.593V21.713l-3.4-1.965v93.88Z" transform="translate(4.423 4.378)" fill="#9cd3db"/>
        <path id="Trazado_108943" data-name="Trazado 108943" d="M24.064,21.712l-3.929,2.269-3.4-1.965,3.93-2.269Z" transform="translate(3.71 4.378)" fill="#b8dcd5"/>
        <path id="Trazado_108944" data-name="Trazado 108944" d="M20.135,23.569v93.88l-3.4-1.965V21.6Z" transform="translate(3.71 4.79)" fill="#aed2cb"/>
        <path id="Trazado_108945" data-name="Trazado 108945" d="M23.446,21.356v93.88L19.517,117.5V23.625Z" transform="translate(4.327 4.735)" fill="#a0d9e0"/>
        <path id="Trazado_108946" data-name="Trazado 108946" d="M20.135,23.569v93.88l-3.4-1.965V21.6Z" transform="translate(3.71 4.79)" fill="#9cd3db"/>
        <path id="Trazado_108947" data-name="Trazado 108947" d="M7.269,38.191,64.336,5.244l-3.4-1.965L3.867,36.227Z" transform="translate(0.857 0.727)" fill="#9cd3db"/>
        <path id="Trazado_108948" data-name="Trazado 108948" d="M53.979,5.972V1.964L50.576,0V4.007Z" transform="translate(11.213 0)" fill="#9cd3db"/>
        <path id="Trazado_108949" data-name="Trazado 108949" d="M64.335,1.965,7.269,34.912l-3.4-1.965L60.933,0Z" transform="translate(0.857 0)" fill="#b8dcd5"/>
        <path id="Trazado_108950" data-name="Trazado 108950" d="M7.269,28.932V32.94l-3.4-1.965V26.968Z" transform="translate(0.857 5.979)" fill="#aed2cb"/>
        <path id="Trazado_108951" data-name="Trazado 108951" d="M63.718,1.608V5.615L6.651,38.561V34.555Z" transform="translate(1.475 0.357)" fill="#aae3e9"/>
        <path id="Trazado_108952" data-name="Trazado 108952" d="M64.335,1.965,7.269,34.912l-3.4-1.965L60.933,0Z" transform="translate(0.857 0)" fill="#c9ffff"/>
        <path id="Trazado_108953" data-name="Trazado 108953" d="M7.269,28.932V32.94l-3.4-1.965V26.968Z" transform="translate(0.857 5.979)" fill="#9cd3db"/>
        <path id="Trazado_108954" data-name="Trazado 108954" d="M100.469,133.391l-6.1,3.519L27.785,98.464l6.1-3.519Z" transform="translate(6.16 21.051)" fill="#aae3e9"/>
        <path id="Trazado_108955" data-name="Trazado 108955" d="M94.374,136.271v11.55L27.786,109.377V97.826Z" transform="translate(6.16 21.689)" fill="#a0d9e0"/>
        <path id="Trazado_108956" data-name="Trazado 108956" d="M88.384,126.414v11.55l-6.1,3.52V129.932Z" transform="translate(18.245 28.028)" fill="#79c1cf"/>
        <path id="Trazado_108957" data-name="Trazado 108957" d="M123.706,119.1l-6.1,3.519L51.024,84.171l6.094-3.519Z" transform="translate(11.313 17.882)" fill="#aae3e9"/>
        <path id="Trazado_108958" data-name="Trazado 108958" d="M117.611,121.977v11.55L51.023,95.084V83.532Z" transform="translate(11.313 18.52)" fill="#a0d9e0"/>
        <path id="Trazado_108959" data-name="Trazado 108959" d="M111.622,112.12v11.55l-6.1,3.52V115.639Z" transform="translate(23.397 24.859)" fill="#79c1cf"/>
        <path id="Trazado_108960" data-name="Trazado 108960" d="M126.646,100.789l-2.612,1.508-75.5-43.59L51.147,57.2Z" transform="translate(10.761 12.682)" fill="#c9ffff"/>
        <path id="Trazado_108961" data-name="Trazado 108961" d="M124.034,102.023v4.95l-75.5-43.59v-4.95Z" transform="translate(10.761 12.956)" fill="#b5edf1"/>
        <path id="Trazado_108962" data-name="Trazado 108962" d="M127.715,111.367l-2.612,1.508L49.6,69.285l2.612-1.508Z" transform="translate(10.998 15.027)" fill="#c9ffff"/>
        <path id="Trazado_108963" data-name="Trazado 108963" d="M125.1,112.6v4.95L49.6,73.962v-4.95Z" transform="translate(10.998 15.301)" fill="#b5edf1"/>
        <path id="Trazado_108964" data-name="Trazado 108964" d="M112.945,92.878v4.95l-2.612,1.508v-4.95Z" transform="translate(24.462 20.592)" fill="#392262"/>
        <path id="Trazado_108965" data-name="Trazado 108965" d="M89.629,138.3c-1.009-.583-2.647.362-3.657,2.11s-1.008,3.638,0,4.221l-9.939-5.738L10.622,101.124l-4.7-2.713c-1.009-.583-1.009-2.473,0-4.221s2.645-2.694,3.655-2.11Z" transform="translate(1.145 20.377)" fill="#c9ffff"/>
        <path id="Trazado_108966" data-name="Trazado 108966" d="M70.8,132.889c-.01.049-.017.087-.024.11a.708.708,0,0,1,.024-.11" transform="translate(15.691 29.463)" fill="#55308a"/>
        <path id="Trazado_108967" data-name="Trazado 108967" d="M107.607,128.96c-9.6-5.54-13.738-52.333-13.738-52.333L32.357,41.113S36.5,87.906,46.1,93.449Z" transform="translate(7.174 9.115)" fill="#f56d20"/>
        <path id="Trazado_108968" data-name="Trazado 108968" d="M116.036,68.24l-3.267,1.886L24.047,18.9l3.268-1.886Z" transform="translate(5.332 3.773)" fill="#bbedf5"/>
        <path id="Trazado_108969" data-name="Trazado 108969" d="M112.769,69.784v3.773L24.048,22.334V18.561Z" transform="translate(5.332 4.115)" fill="#afe3eb"/>
        <path id="Trazado_108970" data-name="Trazado 108970" d="M99.935,58.944v3.773L96.668,64.6V60.831Z" transform="translate(21.433 13.069)" fill="#32777e"/>
        <path id="Trazado_108971" data-name="Trazado 108971" d="M130.572,60.311,127.305,62.2,38.583,10.974l3.268-1.886Z" transform="translate(8.554 2.015)" fill="#bbedf5"/>
        <path id="Trazado_108972" data-name="Trazado 108972" d="M127.3,61.854v3.773L38.584,14.4V10.632Z" transform="translate(8.555 2.357)" fill="#afe3eb"/>
        <path id="Trazado_108973" data-name="Trazado 108973" d="M114.471,51.015v3.773L111.2,56.674V52.9Z" transform="translate(24.656 11.311)" fill="#32777e"/>
        <path id="Trazado_108974" data-name="Trazado 108974" d="M113.359,121.436c-2.707-1.564-7.1.971-9.805,5.661s-2.707,9.759,0,11.322l-70.84-40.9c-2.707-1.563-2.707-6.631,0-11.322s7.1-7.225,9.805-5.661Z" transform="translate(6.803 17.754)" fill="#ff9739"/>
        <path id="Trazado_108975" data-name="Trazado 108975" d="M32.346,94.355l70.84,40.9Z" transform="translate(7.172 20.92)" fill="#f2c32f"/>
        <path id="Trazado_108976" data-name="Trazado 108976" d="M32.714,97.521c-2.707-1.564-2.707-6.633,0-11.323s7.1-7.224,9.805-5.66Z" transform="translate(6.803 17.754)" fill="#f2c32f"/>
        <path id="Trazado_108977" data-name="Trazado 108977" d="M40.372,80.453l70.84,40.9Z" transform="translate(8.951 17.838)" fill="#f2c32f"/>
        <path id="Trazado_108978" data-name="Trazado 108978" d="M100.5,125.335c-2.71,4.69-7.1,7.226-9.8,5.661s-2.71-6.633,0-11.323,7.094-7.223,9.8-5.66,2.706,6.631,0,11.322" transform="translate(19.659 25.176)" fill="#d9ffff"/>
        <path id="Trazado_108979" data-name="Trazado 108979" d="M99.2,124.39c-2.134,3.694-5.592,5.692-7.722,4.459s-2.134-5.224,0-8.919,5.588-5.69,7.722-4.458,2.132,5.223,0,8.917" transform="translate(19.926 25.521)" fill="#aae3e9"/>
        <path id="Trazado_108980" data-name="Trazado 108980" d="M96.361,122.34c-.887,1.536-2.325,2.366-3.211,1.855s-.888-2.172,0-3.709,2.324-2.365,3.211-1.853.887,2.172,0,3.708" transform="translate(20.505 26.269)" fill="#9cd3db"/>
        <path id="Trazado_108981" data-name="Trazado 108981" d="M23.153,29.222S5.763,109.628,5.437,110.609l2.655-1.532c.326-.981,17.651-81.8,17.651-81.8Z" transform="translate(1.205 6.049)" fill="#fed23f"/>
        <path id="Trazado_108982" data-name="Trazado 108982" d="M70.767,133v.01l0,0,0-.013" transform="translate(15.689 29.488)" fill="#fed23f"/>
        <path id="Trazado_108983" data-name="Trazado 108983" d="M97.557,73.653,19.851,28.838l2.7-1.558,77.664,44.841Z" transform="translate(4.401 6.048)" fill="#fed23f"/>
        <path id="Trazado_108984" data-name="Trazado 108984" d="M85.247,156.17,5.437,110.327c.326-.98,17.61-81.772,17.61-81.772l77.706,44.816s-15.179,81.818-15.506,82.8" transform="translate(1.205 6.331)" fill="#c9ffff"/>
        <path id="Trazado_108985" data-name="Trazado 108985" d="M97.669,73.616,20,28.777l2.655-1.532,77.664,44.839Z" transform="translate(4.435 6.041)" fill="#c9ffff"/>
        <path id="Trazado_108986" data-name="Trazado 108986" d="M96.6,68.2a2.949,2.949,0,0,0-2.516.38,2.494,2.494,0,0,0-1.03,1.037c-.053.246-.115.539-.191.881-.145.682-.332,1.549-.553,2.579-.376,1.773-.86,4.026-1.423,6.642q-.264,1.239-.553,2.578c-.439,2.056-.919,4.282-1.423,6.635-.18.844-.367,1.708-.553,2.583-.459,2.139-.937,4.362-1.427,6.635q-.275,1.281-.553,2.578c-.47,2.184-.947,4.407-1.431,6.636q-.275,1.29-.553,2.581c-.476,2.219-.953,4.441-1.427,6.633q-.28,1.3-.556,2.578c-.487,2.264-.965,4.486-1.428,6.639q-.284,1.307-.556,2.575c-.5,2.326-.981,4.547-1.434,6.635l-.556,2.578c-.54,2.489-1.024,4.726-1.438,6.625-.2.944-.395,1.808-.564,2.575-.566,2.592-.911,4.144-.953,4.275l-.384.913a.882.882,0,0,0,.024.764L9.709,114.963a2.622,2.622,0,0,1-.352-2.083v0c.049-.149.393-1.7.958-4.272.169-.767.356-1.627.56-2.57.414-1.908.9-4.144,1.438-6.633q.275-1.25.56-2.578c.452-2.084.933-4.31,1.431-6.633q.275-1.27.56-2.575c.463-2.153.941-4.375,1.428-6.639q.275-1.281.552-2.578c.474-2.194.954-4.414,1.428-6.636q.279-1.29.556-2.578c.48-2.232.958-4.454,1.427-6.639.187-.864.37-1.725.557-2.575.487-2.277.964-4.5,1.423-6.635.187-.875.374-1.739.557-2.581.5-2.354.981-4.579,1.42-6.636q.291-1.338.557-2.578c.56-2.616,1.043-4.87,1.423-6.642.221-1.03.408-1.9.553-2.579.211-.985.338-1.582.37-1.724,0-.011,0-.024.006-.034.525-2.443,4.289,0,4.289,0Z" transform="translate(2.057 6.535)" fill="#ff9739"/>
        <g id="Grupo_57330" data-name="Grupo 57330" transform="translate(12.372 112.568)" opacity="0.38">
          <g id="Grupo_57329" data-name="Grupo 57329">
            <g id="Grupo_57328" data-name="Grupo 57328" clip-path="url(#clip-path-3)">
              <path id="Trazado_108987" data-name="Trazado 108987" d="M76.812,130.311c-.2.943-.395,1.808-.563,2.575L10.127,94.711c.169-.767.356-1.629.56-2.572Z" transform="translate(-10.127 -92.139)" fill="#f56d20"/>
              <path id="Trazado_108988" data-name="Trazado 108988" d="M76.71,130.311,10.585,92.139Z" transform="translate(-10.025 -92.139)" fill="#9cd3db"/>
              <path id="Trazado_108989" data-name="Trazado 108989" d="M76.248,132.42,10.126,94.244Z" transform="translate(-10.127 -91.673)" fill="#9cd3db"/>
            </g>
          </g>
        </g>
        <g id="Grupo_57333" data-name="Grupo 57333" transform="translate(14.369 103.357)" opacity="0.38">
          <g id="Grupo_57332" data-name="Grupo 57332">
            <g id="Grupo_57331" data-name="Grupo 57331" clip-path="url(#clip-path-4)">
              <path id="Trazado_108990" data-name="Trazado 108990" d="M78.443,122.78l-.556,2.578L11.762,87.179q.275-1.25.56-2.578Z" transform="translate(-11.762 -84.6)" fill="#f56d20"/>
              <path id="Trazado_108991" data-name="Trazado 108991" d="M78.342,122.78,12.22,84.6Z" transform="translate(-11.66 -84.6)" fill="#9cd3db"/>
              <path id="Trazado_108992" data-name="Trazado 108992" d="M77.886,124.89,11.761,86.71Z" transform="translate(-11.762 -84.133)" fill="#9cd3db"/>
            </g>
          </g>
        </g>
        <g id="Grupo_57336" data-name="Grupo 57336" transform="translate(16.36 94.15)" opacity="0.38">
          <g id="Grupo_57335" data-name="Grupo 57335">
            <g id="Grupo_57334" data-name="Grupo 57334" clip-path="url(#clip-path-5)">
              <path id="Trazado_108993" data-name="Trazado 108993" d="M80.072,115.24q-.286,1.307-.556,2.575L13.391,79.639q.275-1.27.56-2.575Z" transform="translate(-13.391 -77.064)" fill="#f56d20"/>
              <path id="Trazado_108994" data-name="Trazado 108994" d="M79.971,115.24,13.849,77.064Z" transform="translate(-13.29 -77.064)" fill="#9cd3db"/>
              <path id="Trazado_108995" data-name="Trazado 108995" d="M79.516,117.347,13.391,79.171Z" transform="translate(-13.391 -76.597)" fill="#9cd3db"/>
            </g>
          </g>
        </g>
        <g id="Grupo_57339" data-name="Grupo 57339" transform="translate(18.347 84.933)" opacity="0.38">
          <g id="Grupo_57338" data-name="Grupo 57338">
            <g id="Grupo_57337" data-name="Grupo 57337" clip-path="url(#clip-path-6)">
              <path id="Trazado_108996" data-name="Trazado 108996" d="M81.7,107.7c-.187.864-.374,1.725-.556,2.578L15.018,72.1q.275-1.281.552-2.579Z" transform="translate(-15.018 -69.52)" fill="#f56d20"/>
              <path id="Trazado_108997" data-name="Trazado 108997" d="M81.6,107.7,15.47,69.519Z" transform="translate(-14.917 -69.52)" fill="#9cd3db"/>
              <path id="Trazado_108998" data-name="Trazado 108998" d="M81.14,109.806,15.018,71.63Z" transform="translate(-15.018 -69.052)" fill="#9cd3db"/>
            </g>
          </g>
        </g>
        <g id="Grupo_57342" data-name="Grupo 57342" transform="translate(20.328 75.719)" opacity="0.38">
          <g id="Grupo_57341" data-name="Grupo 57341">
            <g id="Grupo_57340" data-name="Grupo 57340" clip-path="url(#clip-path-7)">
              <path id="Trazado_108999" data-name="Trazado 108999" d="M83.316,100.154q-.275,1.29-.553,2.581L16.639,64.557q.279-1.292.556-2.579Z" transform="translate(-16.639 -61.978)" fill="#f56d20"/>
              <path id="Trazado_109000" data-name="Trazado 109000" d="M83.216,100.154,17.094,61.978Z" transform="translate(-16.538 -61.978)" fill="#9cd3db"/>
              <path id="Trazado_109001" data-name="Trazado 109001" d="M82.763,102.268,16.638,64.088Z" transform="translate(-16.639 -61.51)" fill="#9cd3db"/>
            </g>
          </g>
        </g>
        <g id="Grupo_57345" data-name="Grupo 57345" transform="translate(22.311 66.505)" opacity="0.38">
          <g id="Grupo_57344" data-name="Grupo 57344">
            <g id="Grupo_57343" data-name="Grupo 57343" clip-path="url(#clip-path-6)">
              <path id="Trazado_109002" data-name="Trazado 109002" d="M84.94,92.612q-.275,1.281-.553,2.578L18.263,57.011c.186-.864.369-1.725.556-2.575Z" transform="translate(-18.262 -54.436)" fill="#f56d20"/>
              <path id="Trazado_109003" data-name="Trazado 109003" d="M84.84,92.612,18.718,54.436Z" transform="translate(-18.161 -54.436)" fill="#9cd3db"/>
              <path id="Trazado_109004" data-name="Trazado 109004" d="M84.387,94.723,18.262,56.543Z" transform="translate(-18.262 -53.969)" fill="#9cd3db"/>
            </g>
          </g>
        </g>
        <g id="Grupo_57348" data-name="Grupo 57348" transform="translate(24.292 57.288)" opacity="0.38">
          <g id="Grupo_57347" data-name="Grupo 57347">
            <g id="Grupo_57346" data-name="Grupo 57346" clip-path="url(#clip-path-7)">
              <path id="Trazado_109005" data-name="Trazado 109005" d="M86.561,85.067c-.18.843-.367,1.708-.553,2.581L19.884,49.474c.186-.875.373-1.739.556-2.583Z" transform="translate(-19.883 -46.892)" fill="#f56d20"/>
              <path id="Trazado_109006" data-name="Trazado 109006" d="M86.461,85.067,20.339,46.891Z" transform="translate(-19.782 -46.892)" fill="#9cd3db"/>
              <path id="Trazado_109007" data-name="Trazado 109007" d="M86.008,87.18,19.883,49Z" transform="translate(-19.883 -46.423)" fill="#9cd3db"/>
            </g>
          </g>
        </g>
        <g id="Grupo_57351" data-name="Grupo 57351" transform="translate(21.817 45.181)" opacity="0.38">
          <g id="Grupo_57350" data-name="Grupo 57350">
            <g id="Grupo_57349" data-name="Grupo 57349" clip-path="url(#clip-path-10)">
              <path id="Trazado_109008" data-name="Trazado 109008" d="M88.179,77.525q-.264,1.239-.553,2.578L21.5,41.928q.29-1.338.556-2.579Z" transform="translate(-17.05 -36.457)" fill="#f56d20"/>
              <path id="Trazado_109009" data-name="Trazado 109009" d="M88.079,77.525,21.957,39.35Z" transform="translate(-16.949 -36.457)" fill="#9cd3db"/>
              <path id="Trazado_109010" data-name="Trazado 109010" d="M87.626,79.636,21.5,41.46Z" transform="translate(-17.05 -35.989)" fill="#9cd3db"/>
              <path id="Trazado_109011" data-name="Trazado 109011" d="M17.858,39.881v0Z" transform="translate(-17.858 -36.982)" fill="#9cd3db"/>
            </g>
          </g>
        </g>
        <g id="Grupo_57354" data-name="Grupo 57354" transform="translate(25.422 36.904)" opacity="0.38">
          <g id="Grupo_57353" data-name="Grupo 57353">
            <g id="Grupo_57352" data-name="Grupo 57352" clip-path="url(#clip-path-11)">
              <path id="Trazado_109012" data-name="Trazado 109012" d="M89.8,69.978c-.145.68-.332,1.548-.553,2.578L23.122,34.381c.221-1.03.408-1.9.553-2.579Z" transform="translate(-20.295 -29.853)" fill="#f56d20"/>
              <path id="Trazado_109013" data-name="Trazado 109013" d="M89.7,69.978,23.575,31.8Z" transform="translate(-20.195 -29.853)" fill="#9cd3db"/>
              <path id="Trazado_109014" data-name="Trazado 109014" d="M89.244,72.088,23.122,33.912Z" transform="translate(-20.295 -29.386)" fill="#9cd3db"/>
              <path id="Trazado_109015" data-name="Trazado 109015" d="M20.808,33.1v0Z" transform="translate(-20.808 -30.207)" fill="#9cd3db"/>
            </g>
          </g>
        </g>
        <path id="Trazado_109016" data-name="Trazado 109016" d="M36.376,33.425l3.844,2.219c-1.058-.571-3.352-1.555-3.753.312,0,.01,0,.023-.007.034-.4,1.859-17.4,81.158-17.758,82.282v0a2.614,2.614,0,0,0,.353,2.081l-4.379-2.527a2.622,2.622,0,0,1-.353-2.084v0c.356-1.123,17.359-80.423,17.758-82.282a.334.334,0,0,1,.006-.034c.525-2.443,4.289,0,4.289,0" transform="translate(3.158 7.17)" fill="#f56d20"/>
        <path id="Trazado_109017" data-name="Trazado 109017" d="M44.944,38.372l3.844,2.219c-1.058-.571-3.352-1.555-3.753.312,0,.01,0,.023-.007.034-.4,1.859-17.4,81.158-17.758,82.282v0a2.614,2.614,0,0,0,.353,2.081l-4.379-2.527a2.622,2.622,0,0,1-.353-2.084v0c.356-1.123,17.359-80.423,17.758-82.282a.334.334,0,0,1,.006-.034c.525-2.443,4.289,0,4.289,0" transform="translate(5.057 8.267)" fill="#f56d20"/>
        <path id="Trazado_109018" data-name="Trazado 109018" d="M53.513,43.319l3.844,2.219C56.3,44.967,54,43.982,53.6,45.849c0,.01,0,.023-.007.034-.4,1.859-17.4,81.158-17.758,82.282v0a2.614,2.614,0,0,0,.353,2.081l-4.379-2.527a2.622,2.622,0,0,1-.353-2.084v0c.356-1.123,17.359-80.423,17.758-82.282a.334.334,0,0,0,.006-.034c.525-2.443,4.289,0,4.289,0" transform="translate(6.957 9.364)" fill="#f56d20"/>
        <path id="Trazado_109019" data-name="Trazado 109019" d="M62.082,48.266l3.844,2.219c-1.058-.569-3.352-1.554-3.753.313,0,.009,0,.023-.007.034-.4,1.858-17.4,81.157-17.758,82.281v0a2.614,2.614,0,0,0,.353,2.081l-4.379-2.527a2.622,2.622,0,0,1-.353-2.084v0C40.384,129.46,57.388,50.16,57.786,48.3a.356.356,0,0,1,.006-.035c.525-2.443,4.289,0,4.289,0" transform="translate(8.857 10.46)" fill="#f56d20"/>
        <path id="Trazado_109020" data-name="Trazado 109020" d="M70.65,53.214l3.844,2.219c-1.058-.571-3.352-1.555-3.753.312,0,.01,0,.024-.007.034-.4,1.859-17.4,81.158-17.758,82.282v0a2.614,2.614,0,0,0,.353,2.081l-4.379-2.527a2.628,2.628,0,0,1-.353-2.084v0c.356-1.123,17.359-80.423,17.758-82.282a.334.334,0,0,1,.006-.034c.525-2.443,4.289,0,4.289,0" transform="translate(10.757 11.558)" fill="#f56d20"/>
        <path id="Trazado_109021" data-name="Trazado 109021" d="M79.219,58.161l3.844,2.219c-1.058-.571-3.352-1.555-3.753.312,0,.01,0,.023-.007.034-.4,1.859-17.4,81.158-17.758,82.282v0a2.614,2.614,0,0,0,.353,2.081l-4.379-2.527a2.622,2.622,0,0,1-.353-2.084v0c.356-1.123,17.359-80.423,17.758-82.282a.337.337,0,0,1,.006-.034c.525-2.443,4.289,0,4.289,0" transform="translate(12.657 12.654)" fill="#f56d20"/>
        <path id="Trazado_109022" data-name="Trazado 109022" d="M96.742,70.4l-.017-.007L35.943,35.3Z" transform="translate(7.969 7.826)" fill="#5d388b"/>
        <path id="Trazado_109023" data-name="Trazado 109023" d="M35.952,35.3l-.425-.249c.191.1.338.194.425.249" transform="translate(7.877 7.772)" fill="#5d388b"/>
        <path id="Trazado_109024" data-name="Trazado 109024" d="M75.028,148.709c-1.009,1.746-2.644,2.693-3.653,2.109a2.255,2.255,0,0,1-.667-2.5l0,0V148.3a.088.088,0,0,0,.006-.024c.007-.023.015-.061.024-.11a.261.261,0,0,0,.015-.062c1-4.669,15.458-82.59,15.458-82.59l2.655-1.531s-13.513,79.525-13.838,80.5c1.005.588,1.005,2.478,0,4.223" transform="translate(15.657 14.186)" fill="#a0d9e0"/>
        <path id="Trazado_109025" data-name="Trazado 109025" d="M75.468,135.92,9.343,97.744v0Z" transform="translate(2.071 21.67)" fill="#5d388b"/>
        <path id="Trazado_109026" data-name="Trazado 109026" d="M83.6,68.687a.828.828,0,0,1-.628-1.365L91.56,57.313a.837.837,0,0,1,.215-.177l12.25-7.073a.828.828,0,0,1,1.029.164l4.623,5.154a.827.827,0,0,1-.265,1.3L83.956,68.607a.833.833,0,0,1-.351.079M92.723,58.5l-5.99,6.986L107.7,55.656,104.27,51.83Z" transform="translate(18.353 11.075)" fill="#4c94a0"/>
        <path id="Trazado_109027" data-name="Trazado 109027" d="M113.422,127.969l3.929-2.269-3.4-1.965L110.02,126Z" transform="translate(24.393 27.434)" fill="#9cd3db"/>
        <path id="Trazado_109028" data-name="Trazado 109028" d="M116.639,142.737V48.857l-3.4-1.965v93.88Z" transform="translate(25.106 10.397)" fill="#9cd3db"/>
        <path id="Trazado_109029" data-name="Trazado 109029" d="M117.352,48.857l-3.929,2.269-3.4-1.965,3.93-2.269Z" transform="translate(24.393 10.397)" fill="#b8dcd5"/>
        <path id="Trazado_109030" data-name="Trazado 109030" d="M113.422,50.714v93.88l-3.4-1.965V48.749Z" transform="translate(24.393 10.808)" fill="#aed2cb"/>
        <path id="Trazado_109031" data-name="Trazado 109031" d="M116.734,48.5v93.88l-3.929,2.269V50.769Z" transform="translate(25.011 10.753)" fill="#a0d9e0"/>
        <path id="Trazado_109032" data-name="Trazado 109032" d="M113.422,50.714v93.88l-3.4-1.965V48.749Z" transform="translate(24.393 10.808)" fill="#9cd3db"/>
        <path id="Trazado_109033" data-name="Trazado 109033" d="M90.286,141.326l3.929-2.269-3.4-1.965-3.93,2.269Z" transform="translate(19.263 30.395)" fill="#9cd3db"/>
        <path id="Trazado_109034" data-name="Trazado 109034" d="M117.972,68.236,88.818,85.068l-1.738-1,29.154-16.833Z" transform="translate(19.307 14.906)" fill="#bff8fa"/>
        <path id="Trazado_109035" data-name="Trazado 109035" d="M88.818,82.014v2.048l-1.739-1V81.01Z" transform="translate(19.307 17.961)" fill="#aed2cb"/>
        <path id="Trazado_109036" data-name="Trazado 109036" d="M117.657,68.054V70.1L88.5,86.933V84.886Z" transform="translate(19.622 15.089)" fill="#a0d9e0"/>
        <path id="Trazado_109037" data-name="Trazado 109037" d="M93.5,156.095V62.215L90.1,60.25v93.88Z" transform="translate(19.976 13.358)" fill="#9cd3db"/>
        <path id="Trazado_109038" data-name="Trazado 109038" d="M94.216,62.214l-3.929,2.269-3.4-1.965,3.93-2.269Z" transform="translate(19.263 13.358)" fill="#b8dcd5"/>
        <path id="Trazado_109039" data-name="Trazado 109039" d="M90.286,64.071v93.88l-3.4-1.965V62.107Z" transform="translate(19.263 13.77)" fill="#aed2cb"/>
        <path id="Trazado_109040" data-name="Trazado 109040" d="M93.6,61.858v93.88l-3.929,2.269V64.127Z" transform="translate(19.881 13.715)" fill="#a0d9e0"/>
        <path id="Trazado_109041" data-name="Trazado 109041" d="M90.286,64.071v93.88l-3.4-1.965V62.107Z" transform="translate(19.263 13.77)" fill="#9cd3db"/>
        <path id="Trazado_109042" data-name="Trazado 109042" d="M77.421,78.693l57.066-32.947-3.4-1.965L74.018,76.729Z" transform="translate(16.411 9.707)" fill="#9cd3db"/>
        <path id="Trazado_109043" data-name="Trazado 109043" d="M124.131,46.474V42.466l-3.4-1.965v4.007Z" transform="translate(26.767 8.98)" fill="#9cd3db"/>
        <path id="Trazado_109044" data-name="Trazado 109044" d="M134.487,42.467,77.421,75.414l-3.4-1.965L131.084,40.5Z" transform="translate(16.411 8.98)" fill="#b8dcd5"/>
        <path id="Trazado_109045" data-name="Trazado 109045" d="M77.421,69.435v4.007l-3.4-1.965V67.47Z" transform="translate(16.411 14.959)" fill="#aed2cb"/>
        <path id="Trazado_109046" data-name="Trazado 109046" d="M133.869,42.11v4.007L76.8,79.063V75.057Z" transform="translate(17.028 9.336)" fill="#aae3e9"/>
        <path id="Trazado_109047" data-name="Trazado 109047" d="M134.487,42.467,77.421,75.414l-3.4-1.965L131.084,40.5Z" transform="translate(16.411 8.98)" fill="#c9ffff"/>
        <path id="Trazado_109048" data-name="Trazado 109048" d="M77.421,69.435v4.007l-3.4-1.965V67.47Z" transform="translate(16.411 14.959)" fill="#9cd3db"/>
        <path id="Trazado_109049" data-name="Trazado 109049" d="M103.942,65.38a.483.483,0,0,1-.178-.035L91.9,60.3a.456.456,0,0,1-.277-.419.472.472,0,0,1,.035-.177.462.462,0,0,1,.6-.242l11.862,5.047a.456.456,0,0,1,.277.419.472.472,0,0,1-.035.177.456.456,0,0,1-.419.277" transform="translate(20.315 13.175)" fill="#4c94a0"/>
        <path id="Trazado_109050" data-name="Trazado 109050" d="M92.908,73.667a.446.446,0,0,1-.226-.061c-1.632-.942-2.531-2.888-2.531-5.482,0-5.148,3.627-11.432,8.087-14,2.247-1.3,4.38-1.493,6.011-.552a.454.454,0,0,1,.166.621L93.3,73.439a.454.454,0,0,1-.393.228m9.065-19.776a6.715,6.715,0,0,0-3.283,1.015A16.891,16.891,0,0,0,91.06,68.124a5.416,5.416,0,0,0,1.7,4.44l10.626-18.409a3.7,3.7,0,0,0-1.411-.264" transform="translate(19.988 11.747)" fill="#4c94a0"/>
        <path id="Trazado_109051" data-name="Trazado 109051" d="M90.525,67.846a12.669,12.669,0,0,1,.588-4.038,17.39,17.39,0,0,1,4.068-7.046,12.6,12.6,0,0,1,3.2-2.529,15.326,15.326,0,0,0-3.092,2.63,20.344,20.344,0,0,0-4.035,6.989,15.27,15.27,0,0,0-.732,3.993" transform="translate(20.07 12.024)" fill="#c0edeb"/>
        <path id="Trazado_109052" data-name="Trazado 109052" d="M94.537,74.1a4.484,4.484,0,0,1-2.274-.589.454.454,0,0,1-.166-.619L103.21,53.639a.455.455,0,0,1,.621-.167c1.632.942,2.53,2.887,2.53,5.482,0,5.148-3.627,11.432-8.085,14.006A7.59,7.59,0,0,1,94.537,74.1m-1.41-1.175a5.416,5.416,0,0,0,4.693-.75,16.9,16.9,0,0,0,7.632-13.219,5.414,5.414,0,0,0-1.7-4.44Z" transform="translate(20.406 11.842)" fill="#4c94a0"/>
        <path id="Trazado_109053" data-name="Trazado 109053" d="M104.815,57.948a12.664,12.664,0,0,1-.588,4.038,17.39,17.39,0,0,1-4.068,7.046,12.6,12.6,0,0,1-3.2,2.529,15.326,15.326,0,0,0,3.092-2.63,20.344,20.344,0,0,0,4.035-6.989,15.27,15.27,0,0,0,.732-3.993" transform="translate(21.497 12.848)" fill="#c0edeb"/>
        <path id="Trazado_109054" data-name="Trazado 109054" d="M96.561,73.232h-.015a.455.455,0,0,1-.44-.454v-.015L96.69,54.3a.467.467,0,0,1,.469-.441.457.457,0,0,1,.441.456v.013l-.584,18.461a.455.455,0,0,1-.454.44" transform="translate(21.308 11.942)" fill="#4c94a0"/>
        <path id="Trazado_109055" data-name="Trazado 109055" d="M90.619,68.235a.457.457,0,0,1-.381-.206.447.447,0,0,1-.073-.247.458.458,0,0,1,.206-.382l15.7-10.223a.456.456,0,0,1,.629.133.446.446,0,0,1,.075.247.454.454,0,0,1-.206.381l-15.7,10.223a.45.45,0,0,1-.248.075" transform="translate(19.991 12.661)" fill="#4c94a0"/>
        <path id="Trazado_109056" data-name="Trazado 109056" d="M92.8,73.829a.465.465,0,0,1-.2-.048.452.452,0,0,1-.252-.407.465.465,0,0,1,.048-.2l9.854-19.81a.455.455,0,0,1,.863.2.465.465,0,0,1-.048.2l-9.856,19.81a.451.451,0,0,1-.407.252" transform="translate(20.475 11.775)" fill="#4c94a0"/>
        <path id="Trazado_109057" data-name="Trazado 109057" d="M95.419,79.759l-3.267,1.886L0,28.442l3.267-1.886Z" transform="translate(0 5.888)" fill="#bbedf5"/>
        <path id="Trazado_109058" data-name="Trazado 109058" d="M92.151,81.3v3.773L0,31.872V28.1Z" transform="translate(0 6.23)" fill="#afe3eb"/>
        <path id="Trazado_109059" data-name="Trazado 109059" d="M0,28.1l11.575,6.555,11.539,6.616L46.189,54.5l23,13.367,11.5,6.685L92.151,81.3,80.577,74.749,69.038,68.133,45.962,54.9l-23-13.367-11.5-6.685Z" transform="translate(0 6.23)" fill="#ace4e0"/>
        <path id="Trazado_109060" data-name="Trazado 109060" d="M78.7,70.1v3.773l-3.267,1.886V71.99Z" transform="translate(16.724 15.543)" fill="#32777e"/>
        <path id="Trazado_109061" data-name="Trazado 109061" d="M106.926,53.24l-2.812,1.74L103,54.34l2.812-1.74Z" transform="translate(22.838 11.662)" fill="#c9ffff"/>
        <path id="Trazado_109062" data-name="Trazado 109062" d="M104.114,54.664l15.372,8.943-1.109-.64L103,54.024Z" transform="translate(22.838 11.978)" fill="#38665c"/>
        <path id="Trazado_109063" data-name="Trazado 109063" d="M106.725,53.124l12.559,7.727v2.955l-15.372-8.943Z" transform="translate(23.039 11.778)" fill="#b5edf1"/>
        <path id="Trazado_109064" data-name="Trazado 109064" d="M32.463,103.31c-.248,2.231-4.089,6.691-6.941,9.168-2.1,1.829-3.394,5.812-3.929,7.779-.189.7-.283,1.144-.283,1.144s.213.52.49,1.141c.431.957.777,3.181,1,3.108.369-.125,1.359.458,1.359.458s-.123.744-1.858,1.24-2.479-.5-2.85-1.858-1.487-1.734-1.858-2.479,1.365-1.734,1.365-1.734h0c.429-2.066,1.521-7.278,1.983-9.044.742-2.85,6.192-9.17,6.192-9.17s-6.564-8.8-8.3-12.513,1.61-8.178,1.61-8.178,4.214.125,5.328,1.362,6.939,17.346,6.691,19.577" transform="translate(3.889 18.263)" fill="#b1ce36"/>
        <path id="Trazado_109065" data-name="Trazado 109065" d="M24.161,119.062s-.125.744-1.858,1.241-2.479-.5-2.851-1.859-1.486-1.734-1.858-2.478,1.307-1.807,1.307-1.807a3.491,3.491,0,0,1,1.649.259A9.677,9.677,0,0,1,21.8,115.5c.864.6,1.018,2.022,1.246,2.079,2.107.536,1.114,1.487,1.114,1.487" transform="translate(3.889 25.308)" fill="#1d2236"/>
        <path id="Trazado_109066" data-name="Trazado 109066" d="M17.834,116.408c-.073-.075-.64-.96-.345-1.181a1.658,1.658,0,0,1,2.032.27c.935.751,1.169,2.081,1.6,2.844s3.768-1.674,3.337.567c-.093.486-1.44,1.354-1.8,1.439a12.507,12.507,0,0,1-2.709-.381c-.073-.073-.9-1.957-1.194-2.5a4.446,4.446,0,0,0-.924-1.059" transform="translate(3.859 25.496)" fill="#7d85a8"/>
        <path id="Trazado_109067" data-name="Trazado 109067" d="M20.84,117.4s-.393.443-.393.456.91,1.354,1.439,1.392,1.63-.859,1.63-.859.5-.545.131-.865a1.812,1.812,0,0,0-1.07-.357l-1.736.233" transform="translate(4.533 25.978)" fill="#9cd3db"/>
        <path id="Trazado_109068" data-name="Trazado 109068" d="M17.3,115.687s-.061-.616.713-.468a3.516,3.516,0,0,1,1.884,1.157c.332.431,1.552,3.176,1.835,3.472a2.717,2.717,0,0,0,.849.5s-1.724-.148-2.2-.235a1.08,1.08,0,0,1-.911-.615,23.321,23.321,0,0,0-1.526-2.917c-.369-.506-.6-.591-.64-.9" transform="translate(3.836 25.541)" fill="#7d85a8"/>
        <path id="Trazado_109069" data-name="Trazado 109069" d="M30.365,94.53c.246,5.947-2.727,11.895-2.851,12.761s-.866,6.189-1.283,11.843c-.22,2.988.126,6.117-.22,7.349a16.739,16.739,0,0,1-4.315,1.211c-2.194.1-1.586-.938-1.68-.988-.068-1.637,1.329-7.484,1.179-9.378a76.526,76.526,0,0,1-.02-7.8L20.6,98.8s-.275-4.762-.771-7.738A10.711,10.711,0,0,1,21.07,84.99c1.117-4.089,8.674-1.365,9.17.494s-.123,3.1.125,9.047" transform="translate(4.377 18.371)" fill="#c0da5b"/>
        <path id="Trazado_109070" data-name="Trazado 109070" d="M25.851,74.713s-.165-2.106-.248-4.254c-.035-.929-.048-1.765-.031-2.458a5.88,5.88,0,0,1,.237-1.878,13.141,13.141,0,0,0,.867-1.611c.042-.33-.123-.33.413-.991s.784-.661.661.042-.413,1.2-.5,1.652S27.09,66,27.09,66l.784-1.528a10.263,10.263,0,0,0,1.4-1.527c0-.206.288.288.042.743s-.95,1.487-1.034,1.652a7.825,7.825,0,0,0-.247.744,7.675,7.675,0,0,1,1.114-1.363,1.6,1.6,0,0,0,.538-.7.718.718,0,0,1,.165.495,2.845,2.845,0,0,1-.165.538s.413-.083.248.206a3.349,3.349,0,0,0-.248.536s.206-.206.083.165,0,.206-.414.7-.66.826-.66.826a6.408,6.408,0,0,1-.454,2.313c-.373.413-.5.413-.5.413s.784,4.708.29,5.947-2.189-1.445-2.189-1.445" transform="translate(5.668 13.945)" fill="#8e4225"/>
        <path id="Trazado_109071" data-name="Trazado 109071" d="M17.44,70.554c-.976,1.242-1.222,4.278-.231,6.508s1.339,7.277,1.427,8.332a29.684,29.684,0,0,1-.76,5.158s6.765,5.366,10.977,5.118,2.584-5.7,2.584-5.7-.5-7.186-.867-7.682a10.707,10.707,0,0,1-.867-1.734s.125-3.47-.619-4.956-3.964-5.576-4.832-5.824-5.222-1.247-6.811.776" transform="translate(3.675 15.368)" fill="#9eb729"/>
        <path id="Trazado_109072" data-name="Trazado 109072" d="M17.654,65.524a2.87,2.87,0,0,1,.619,2.354c-.371,1.157-.991,3.716-.991,3.716a6.554,6.554,0,0,0,3.471-.767,3.267,3.267,0,0,1,2.3-.2s-1.6-1.1-1.271-2.133a6.892,6.892,0,0,0,.247-2.23L18.48,64.615Z" transform="translate(3.832 14.326)" fill="#8e4225"/>
        <path id="Trazado_109073" data-name="Trazado 109073" d="M24.137,61.226,22.98,59.74a6.935,6.935,0,0,0-4.419-.784c-2.354.454-3.51,3.8-3.345,4.79l.165.991a2.569,2.569,0,0,0-2.436,1.983c-.661,2.065,1.528,3.139,1.362,4.089s-1.28.867-1.28.867,1.487.578,2.231.082,1.652-1.487,1.239-2.436-.743-3.139-.5-3.263l.248-.123a6.81,6.81,0,0,0,1.28,1.115c.578.33,1.322.743,1.322.743s.454.661,2.478-.991a5.871,5.871,0,0,0,2.313-3.759c.042-.33.5-1.817.5-1.817" transform="translate(2.842 13.049)" fill="#1d2236"/>
        <path id="Trazado_109074" data-name="Trazado 109074" d="M21.6,59.579s1.652,1.115,1.817,2.065a11.02,11.02,0,0,1,.083,2.189s.5.29.5.661a1.318,1.318,0,0,0,.082.536s.661.331.454.538a.9.9,0,0,0-.248.413,3.483,3.483,0,0,1-.165,1.61c-.29.454.371,1.363-.123,1.445a6.275,6.275,0,0,1-1.735.083,3.267,3.267,0,0,1-1.858-.95c-.318-.276-1.283-.927-1.283-.927a3.673,3.673,0,0,0,.764-1.009,2.371,2.371,0,0,0-.018-1.7s-.5,0-.743-.992.165-1.239.371-1.239a3.175,3.175,0,0,1,.784.29s.826.991.826.454.7-.786.867-1.693a2.847,2.847,0,0,0-.371-1.776" transform="translate(4.223 13.21)" fill="#ad5a3b"/>
        <path id="Trazado_109075" data-name="Trazado 109075" d="M26.147,66.017c.11-.244,1.263-.765,1.4-.964s.533-.765.432-.1a1.288,1.288,0,0,1-.665.931s-.266,1.064-.367,1.5a6.3,6.3,0,0,1-.632,1.663c-.266.4-.531.1-.531.1a4.967,4.967,0,0,1,.365-3.125" transform="translate(5.693 14.331)" fill="#ad5a3b"/>
        <path id="Trazado_109076" data-name="Trazado 109076" d="M22.173,75.82s6.358,4.392,8.835,3.153S34.9,66.2,34.9,66.2l-3.3-.661s-.354,1.493-1.1,3.724-1.269,4.379-1.269,4.379-6.306-3.89-7.174-2.651-2.106,3.345.125,4.832" transform="translate(4.637 14.53)" fill="#9eb729"/>
        <path id="Trazado_109077" data-name="Trazado 109077" d="M29.69,66.684s-.206-1.983-.206-2.271.4-.858.442-1.106a1.517,1.517,0,0,1,.632-1.084c.5-.33.7-.787.861-.663s0,.627-.164.916a10,10,0,0,0-.45,1.192s.454-.371.661-.536a5.294,5.294,0,0,0,.619-1.28,9.412,9.412,0,0,1,.7-1.239c.29-.454.683-.255.463.25a9.477,9.477,0,0,0-.215,2.93,4.853,4.853,0,0,0,.744-.909,2.114,2.114,0,0,1,.826-.784c.165-.042.248.123-.083.578s-.991,1.735-.991,1.735.909-.7,1.239-.7-.206.536-.744.991-2.073,2.115-2.238,2.2-.112.182-.112.182Z" transform="translate(6.537 13.382)" fill="#8e4225"/>
      </g>
    </g>
  </g>
</svg>
