<svg xmlns="http://www.w3.org/2000/svg" xmlns:xlink="http://www.w3.org/1999/xlink" width="295" height="207.77" viewBox="0 0 295 207.77">
  <defs>
    <clipPath id="clip-path">
      <path id="Trazado_105906" data-name="Trazado 105906" d="M-568.46,555.792q-3.414-5.7-11.007-10.089t-21.286-9q-15.042-4.935-20.623-7.764t-5.524-7.263q.057-4.435,5.607-6.738,5.208-2.157,13.718-2.186a87.477,87.477,0,0,1,19.38,3.714c3.1,1.082,6.248,2.312,9.606,3.561,1.505.56,4.823-.433,6.325.21l.3-23.715a94.1,94.1,0,0,0-18.527-5.136,127.858,127.858,0,0,0-13.816-1.5l.318-24.694-6.339-.081,0-.154-23.2-.3-.329,25.605a70.187,70.187,0,0,0-11.8,2.708q-11.67,3.831-18.249,10.936a23.757,23.757,0,0,0-6.7,16.287,24.3,24.3,0,0,0,8.278,18.929Q-653.9,546.89-635.2,553.4q10.6,3.659,15.614,5.711a25.261,25.261,0,0,1,7.594,4.458,7.319,7.319,0,0,1,2.542,5.618q-.055,4.285-4.926,6.517-4.683,2.147-13.632,2.116a121.709,121.709,0,0,1-15.955-2.19,112.272,112.272,0,0,1-21.7-6.707l-6.3-.288.018.075-.051-.022-.313,24.327a90.539,90.539,0,0,0,20.652,5.546c5.431.9,10.9,1.5,16.39,1.858l-.3,23.115,6.339.082,0,.153,23.2.3.3-23.525q16.736-1.476,26.616-7.323,13.759-8.161,13.95-23Q-565.048,561.5-568.46,555.792Z" fill="none"/>
    </clipPath>
  </defs>
  <g id="Grupo_55683" data-name="Grupo 55683" transform="translate(-180 -5237.23)">
    <g id="Grupo_55779" data-name="Grupo 55779">
      <rect id="Rectángulo_5211" data-name="Rectángulo 5211" width="295" height="207" transform="translate(180 5238)" fill="none"/>
      <g id="Grupo_55684" data-name="Grupo 55684" transform="translate(979.622 4816.307)">
        <g id="Grupo_55684-2" data-name="Grupo 55684">
          <ellipse id="Elipse_4488" data-name="Elipse 4488" cx="110.5" cy="6.569" rx="110.5" ry="6.569" transform="translate(-754.622 615.556)" fill="#686868" opacity="0.32"/>
        </g>
        <g id="Grupo_55724" data-name="Grupo 55724">
          <path id="Trazado_105794" data-name="Trazado 105794" d="M-706.753,603.874s-30.465,5.528-32.007,6.942-1.929,3.6-1.414,6.17,1.8,3.085,4.884,2.956,12.34,2.185,15.04,3.985,26.737-6.941,28.408-8.227.257-6.812-.386-8.1S-706.753,603.874-706.753,603.874Z" fill="#fbb03b"/>
          <path id="Trazado_105795" data-name="Trazado 105795" d="M-716.041,616.573l-4.065,1.968-.513,5.045c.215.115.408.229.576.341,2.7,1.8,26.737-6.941,28.408-8.227.868-.668.9-2.481.647-4.249a10.152,10.152,0,0,0-1.207-.418C-692.609,610.826-716.041,616.573-716.041,616.573Z" fill="#cf9131" opacity="0.59" style="mix-blend-mode: multiply;isolation: isolate"/>
          <path id="Trazado_105796" data-name="Trazado 105796" d="M-714.209,618.882c-1.253-3.471-4.82-3.182-11.569-5.4a41.047,41.047,0,0,0-13.766-1.737,7.038,7.038,0,0,0-.63,5.24c.514,2.571,1.7,2.749,4.758,3.143a62.428,62.428,0,0,1,8.112,1.433,37.525,37.525,0,0,1,4.315,1.225c2.221.886,3.151,2,5.576.939C-715.548,622.911-713.447,620.992-714.209,618.882Z" fill="#f7931e"/>
          <path id="Trazado_105797" data-name="Trazado 105797" d="M-720.547,620.071c-15.482-2.395-16.369-2.733-16.5-3.259a6.408,6.408,0,0,1-.833-2.352,1.519,1.519,0,0,1,.522-1.245c.881-.756,2.436-.515,6.843.616q1.822.476,3.626,1.011c2.405.714,4.793,1.468,7.156,2.353,1.515.583,3.062.99,3.128,2.6.042,1.843-1.992,3.694-3.2,3.339-.936-.219-2.219-.657-3.206-.987-3.932-1.3-7.761-2.689-10.658-3.141h-.008a.294.294,0,0,1,.062-.583c2.748.159,8.171,1.921,10.916,2.794a18.152,18.152,0,0,0,3.342.894,2.664,2.664,0,0,0,1.693-2.279c-.027-.53-.343-.719-.772-.936a97.779,97.779,0,0,0-12.367-3.972c-3.306-.84-5.666-1.377-5.925-.72-.2.523.482,1.646.749,2.276a.5.5,0,0,0-.165-.254c-.022-.019-.1-.073-.065-.048,1.67.563,14.091,2.592,15.819,2.872h.005A.518.518,0,0,1-720.547,620.071Z" fill="#c97819"/>
          <path id="Trazado_105798" data-name="Trazado 105798" d="M-689.226,615.2c-1.692-1.515-1.416-7.662-3.142-7.895s-10.938,2.1-13.6,4.079c-4.92,3.656-11.669,3.117-11.669,3.117a5.374,5.374,0,0,1,3.867,3.117c1.268,2.9,2.653,5.552,7.593,6.67,7.131-1.87,13.669-4.439,19.343-8.444A4.46,4.46,0,0,1-689.226,615.2Z" fill="#fbb03b"/>
          <path id="Trazado_105799" data-name="Trazado 105799" d="M-706.178,623.925c-5.018-1.081-6.014-2.711-7.9-6.192-1.149-2.222-3.23-2.6-6.232-3.212-6.178-1.269-10.82-2.885-19.234-2.807a53.043,53.043,0,0,1,16.671,1.786c1.8.393,3.638.684,5.445,1.192l-.034-.008a5.511,5.511,0,0,1,3.878,2.9,10.426,10.426,0,0,0,3.684,4.847A12.377,12.377,0,0,0-706.178,623.925Z" fill="#f7cd9c"/>
          <path id="Trazado_105800" data-name="Trazado 105800" d="M-731.136,611.033s5.282.1,6.525.725,10.978,4.039,11.6,5.074.311,3.625,1.347,3.936c.591.177,6.142-5.175,11.392-8.984a39.935,39.935,0,0,1,8.019-4.441l-10.608-1.489Z" fill="#f7931e"/>
          <path id="Trazado_105801" data-name="Trazado 105801" d="M-718.244,599.761s-18.767,2.764-19.988,3.792-1.422,6.4-.715,7.555,11.256-.871,13.248-.357,13.111,5.91,14.718,5.91,4.949-3.339,9.769-5.845,7.189-3.434,8.667-3.434.074-7.428-3.075-8.328S-718.244,599.761-718.244,599.761Z" fill="#2e3192"/>
          <path id="Trazado_105802" data-name="Trazado 105802" d="M-735.147,593.848c-1.826,1.292-2.056,6.877-.514,8.934s7.07.064,11.247,1.028,8.356.771,9.384.257,7.52-4.306,10.733-4.306a58.118,58.118,0,0,0,8.484-1.028s.386-4.628-.193-6.042-18.135-2.645-21.338-2.378C-730.652,591.424-731.377,591.183-735.147,593.848Z" fill="#e75f98"/>
          <path id="Trazado_105803" data-name="Trazado 105803" d="M-735.661,602.782c1.543,2.056,7.07.064,11.247,1.028s8.356.771,9.384.257,7.52-4.306,10.733-4.306,8.615-.69,8.615-.69.255-4.966-.324-6.38a.522.522,0,0,0-.23-.221c-1.812.388-17.86,3.813-19.437,3.692a56.716,56.716,0,0,0-16.252-2.521,4.1,4.1,0,0,0-3.966,3.377C-736.273,599.108-736.5,601.661-735.661,602.782Z" fill="#bf1d5f"/>
          <path id="Trazado_105804" data-name="Trazado 105804" d="M-731.925,593.641a4.1,4.1,0,0,0-3.966,3.377c-.327,1.79-.585,3.929-.112,5.207a2.234,2.234,0,0,0,.342.557c1.543,2.056,7.07.064,11.247,1.028a23.593,23.593,0,0,0,8.726.463c1.315-1.233,1.335-2.178,1.226-3.8a13.893,13.893,0,0,0-1.211-4.307A56.716,56.716,0,0,0-731.925,593.641Z" fill="#ad1a56"/>
          <g id="Grupo_55685" data-name="Grupo 55685">
            <path id="Trazado_105805" data-name="Trazado 105805" d="M-718.4,603.334a.412.412,0,0,1-.262-.093c-.667-.543-5.3-.4-8.69-.287-5.516.176-6.95.142-7.288-.45a6.88,6.88,0,0,1-.137-4.491,2.384,2.384,0,0,1,1.27-1.551c1.732-.722,12.954.691,13.907,1.271a1.942,1.942,0,0,1,.528,2.091,2.425,2.425,0,0,1-2.086,1.99c-1.89.173-11.393-1.088-11.8-1.141a.415.415,0,0,1-.356-.466.414.414,0,0,1,.465-.356c.1.013,9.815,1.3,11.61,1.138a1.639,1.639,0,0,0,1.356-1.352,1.326,1.326,0,0,0-.152-1.2c-.926-.5-11.718-1.815-13.158-1.214a1.612,1.612,0,0,0-.8,1.053,6.345,6.345,0,0,0,.046,3.763c.571.275,3.891.169,6.568.083,5.185-.165,8.394-.216,9.24.473a.413.413,0,0,1,.06.583A.414.414,0,0,1-718.4,603.334Z" fill="#99174c"/>
          </g>
          <path id="Trazado_105806" data-name="Trazado 105806" d="M-695.62,599.054h0a61.708,61.708,0,0,0-14.5,4.97,14.2,14.2,0,0,1-8.388,1.45c-3.461-.469-7.745-1.015-9.262-1.07-1.646-.058-7.544.184-10.676-.609-.976,1.4-1.224,6.2-.526,7.341s11.186-.88,13.246-.391l.027.006c1.914.494,12.611,5.667,14.59,5.905,1.562.189,4.934-3.259,9.9-5.84,2-1.041,5.963-3.085,8.184-3.369.57-.072,1.124.213,1.133-1.319C-691.88,603.855-693.353,599.7-695.62,599.054Z" fill="#0082e0"/>
          <path id="Trazado_105807" data-name="Trazado 105807" d="M-695.62,599.054a61.708,61.708,0,0,0-14.5,4.97,14.363,14.363,0,0,1-2.851,1.1c-.552,1.777-2.719,9.707,1.892,11.537,1.574.142,5.01-3.027,9.943-5.592,2-1.04,5.887-3.336,8.108-3.62.57-.072,1.124.213,1.133-1.319C-691.88,603.855-693.353,599.7-695.62,599.054Z" fill="#0071c2"/>
          <path id="Trazado_105808" data-name="Trazado 105808" d="M-712.971,605.122c-.6,4.466-1.456,9.3,1.648,11.432C-715.156,615.5-714.968,609.133-712.971,605.122Z" fill="#9bcdf2"/>
          <path id="Trazado_105809" data-name="Trazado 105809" d="M-696.675,600.886c-2.1-1.3-11.453,3.74-12.982,4.916-2.287,1.76-1.356,8.546,1.053,6.633,3.248-2.582,13.115-4.885,12.384-7.914a1.95,1.95,0,0,0-1.68-1.3c-1.077-.143-5.63,2.322-7.18,3.183a.386.386,0,0,0-.148.526.384.384,0,0,0,.523.148c2.9-1.613,6.117-3.188,6.705-3.092a1.21,1.21,0,0,1,1.03.718c.479,1.982-9.335,4.92-12.114,7.129-1.206.96-1.678-4.206-.1-5.417,2.112-1.625,10.8-5.83,12.117-4.864l.136.064c1.309.327,1.464,4.291,1.338,6.308,0,.046,0,.189,0,.324.29-.123.575-.237.851-.338C-694.526,605.8-694.794,601.522-696.675,600.886Z" fill="#0064ab"/>
          <path id="Trazado_105810" data-name="Trazado 105810" d="M-717.931,595.5a7.535,7.535,0,0,1,2.434.777c.725.517,4.349,6.4,4.349,6.4l11.082-2.1,7.8-2.037s-2.783-5.262-3.972-6.066S-717.931,595.5-717.931,595.5Z" fill="#e75f98"/>
          <path id="Trazado_105811" data-name="Trazado 105811" d="M-736,602.228c-1.065-2.706-.573-7.018,1.94-8.433,2.774-1.515,12.628-.337,15.692.564,3.284.946,3.524,2.131,4.989,4.488.758,1.268,1.52,2.534,2.234,3.831-4.23-5.123-4.033-5.783-5.537-6.572a19.834,19.834,0,0,0-6.265-1.363c-2.162-.274-8.851-.941-10.665-.092C-735.82,595.692-736.485,599.715-736,602.228Z" fill="#ffa1c7"/>
          <g id="Grupo_55686" data-name="Grupo 55686">
            <path id="Trazado_105812" data-name="Trazado 105812" d="M-705.956,595.682a7.358,7.358,0,0,0,1.229.757c.129.059.262-.149.153-.241a7.37,7.37,0,0,0-1.206-.794.165.165,0,0,0-.176.278Z" fill="#ed1e79"/>
          </g>
          <g id="Grupo_55687" data-name="Grupo 55687">
            <path id="Trazado_105813" data-name="Trazado 105813" d="M-704.271,594.138a7.436,7.436,0,0,0,1.07.969c.116.083.285-.1.2-.208a7.4,7.4,0,0,0-1.04-1,.165.165,0,0,0-.225.24Z" fill="#ed1e79"/>
          </g>
          <g id="Grupo_55688" data-name="Grupo 55688">
            <path id="Trazado_105814" data-name="Trazado 105814" d="M-702.614,592.662a7.508,7.508,0,0,0,1.07.97c.116.082.285-.1.2-.209a7.406,7.406,0,0,0-1.04-1,.165.165,0,0,0-.225.24Z" fill="#ed1e79"/>
          </g>
          <g id="Grupo_55689" data-name="Grupo 55689">
            <path id="Trazado_105815" data-name="Trazado 105815" d="M-709.837,593.853a7.448,7.448,0,0,0,1.069.97c.117.082.285-.1.2-.209a7.354,7.354,0,0,0-1.04-1,.164.164,0,0,0-.224.24Z" fill="#ed1e79"/>
          </g>
          <g id="Grupo_55690" data-name="Grupo 55690">
            <path id="Trazado_105816" data-name="Trazado 105816" d="M-708.059,593.062a7.365,7.365,0,0,0,1.345.524c.138.035.231-.193.108-.264a7.446,7.446,0,0,0-1.329-.565.165.165,0,0,0-.124.3Z" fill="#ed1e79"/>
          </g>
          <g id="Grupo_55691" data-name="Grupo 55691">
            <path id="Trazado_105817" data-name="Trazado 105817" d="M-714.4,593.658a7.44,7.44,0,0,0,1.345.524c.138.035.231-.193.107-.265a7.368,7.368,0,0,0-1.328-.564.165.165,0,0,0-.124.3Z" fill="#ed1e79"/>
          </g>
          <g id="Grupo_55692" data-name="Grupo 55692">
            <path id="Trazado_105818" data-name="Trazado 105818" d="M-712.693,591.768a7.38,7.38,0,0,0,1.345.524c.138.035.231-.193.107-.265a7.367,7.367,0,0,0-1.328-.564.165.165,0,0,0-.124.3Z" fill="#ed1e79"/>
          </g>
          <g id="Grupo_55693" data-name="Grupo 55693">
            <path id="Trazado_105819" data-name="Trazado 105819" d="M-716.137,591.949a7.437,7.437,0,0,0,1.345.524c.138.035.231-.193.108-.264a7.314,7.314,0,0,0-1.329-.565.165.165,0,0,0-.124.3Z" fill="#ed1e79"/>
          </g>
          <g id="Grupo_55694" data-name="Grupo 55694">
            <path id="Trazado_105820" data-name="Trazado 105820" d="M-720.319,591.386a9.428,9.428,0,0,0,1.433-.175.113.113,0,0,0-.025-.224,9.5,9.5,0,0,0-1.436.141c-.21.032-.184.272.028.258Z" fill="#ed1e79"/>
          </g>
          <g id="Grupo_55695" data-name="Grupo 55695">
            <path id="Trazado_105821" data-name="Trazado 105821" d="M-719.819,592.646a9.413,9.413,0,0,0,1.433-.175.113.113,0,0,0-.024-.224,9.528,9.528,0,0,0-1.437.141c-.209.032-.183.272.028.258Z" fill="#ed1e79"/>
          </g>
          <g id="Grupo_55696" data-name="Grupo 55696">
            <path id="Trazado_105822" data-name="Trazado 105822" d="M-725.515,592.128a9.414,9.414,0,0,0,1.433-.175.113.113,0,0,0-.024-.224,9.517,9.517,0,0,0-1.437.141c-.209.032-.183.272.028.258Z" fill="#ed1e79"/>
          </g>
          <g id="Grupo_55697" data-name="Grupo 55697">
            <path id="Trazado_105823" data-name="Trazado 105823" d="M-716.931,594.038a9.364,9.364,0,0,0,1.43.194.112.112,0,0,0,.033-.222,9.357,9.357,0,0,0-1.425-.228c-.211-.022-.247.217-.038.256Z" fill="#ed1e79"/>
          </g>
          <g id="Grupo_55698" data-name="Grupo 55698">
            <path id="Trazado_105824" data-name="Trazado 105824" d="M-712.672,596.37a5.491,5.491,0,0,0,.826.743c.09.063.222-.079.152-.165a5.556,5.556,0,0,0-.8-.768.13.13,0,0,0-.176.19Z" fill="#ed1e79"/>
          </g>
          <g id="Grupo_55699" data-name="Grupo 55699">
            <path id="Trazado_105825" data-name="Trazado 105825" d="M-710.29,597.251a5.576,5.576,0,0,0,.825.742c.091.063.223-.079.153-.164a5.5,5.5,0,0,0-.8-.768.13.13,0,0,0-.176.19Z" fill="#ed1e79"/>
          </g>
          <g id="Grupo_55700" data-name="Grupo 55700">
            <path id="Trazado_105826" data-name="Trazado 105826" d="M-711.153,599.011a5.536,5.536,0,0,0,.825.743c.091.063.223-.079.153-.165a5.556,5.556,0,0,0-.8-.768.13.13,0,0,0-.176.19Z" fill="#ed1e79"/>
          </g>
          <g id="Grupo_55701" data-name="Grupo 55701">
            <path id="Trazado_105827" data-name="Trazado 105827" d="M-706.993,599.874a5.528,5.528,0,0,0,.825.743c.09.063.222-.079.153-.165a5.488,5.488,0,0,0-.8-.767.129.129,0,0,0-.176.189Z" fill="#ed1e79"/>
          </g>
          <g id="Grupo_55702" data-name="Grupo 55702">
            <path id="Trazado_105828" data-name="Trazado 105828" d="M-706.389,597.941a5.583,5.583,0,0,0,.825.743c.091.063.223-.079.153-.165a5.553,5.553,0,0,0-.8-.768.13.13,0,0,0-.176.19Z" fill="#ed1e79"/>
          </g>
          <g id="Grupo_55703" data-name="Grupo 55703">
            <path id="Trazado_105829" data-name="Trazado 105829" d="M-701.055,596.733a5.589,5.589,0,0,0,.825.743c.09.062.222-.08.153-.165a5.55,5.55,0,0,0-.8-.768.13.13,0,0,0-.176.19Z" fill="#ed1e79"/>
          </g>
          <g id="Grupo_55704" data-name="Grupo 55704">
            <path id="Trazado_105830" data-name="Trazado 105830" d="M-702.626,598.839a5.638,5.638,0,0,0,.825.743c.091.062.222-.08.153-.165a5.55,5.55,0,0,0-.8-.768.13.13,0,0,0-.176.19Z" fill="#ed1e79"/>
          </g>
          <g id="Grupo_55705" data-name="Grupo 55705">
            <path id="Trazado_105831" data-name="Trazado 105831" d="M-699.036,595.818a5.544,5.544,0,0,0,.826.743c.09.063.222-.08.152-.165a5.553,5.553,0,0,0-.8-.768.13.13,0,0,0-.176.19Z" fill="#ed1e79"/>
          </g>
          <g id="Grupo_55706" data-name="Grupo 55706">
            <path id="Trazado_105832" data-name="Trazado 105832" d="M-705.043,591.917a5.591,5.591,0,0,0,.826.743c.09.063.222-.08.153-.165a5.608,5.608,0,0,0-.8-.768.13.13,0,0,0-.176.19Z" fill="#ed1e79"/>
          </g>
          <g id="Grupo_55707" data-name="Grupo 55707">
            <path id="Trazado_105833" data-name="Trazado 105833" d="M-698.38,594.213a5.645,5.645,0,0,0,.825.743c.091.062.223-.08.153-.165a5.556,5.556,0,0,0-.8-.768.13.13,0,0,0-.176.19Z" fill="#ed1e79"/>
          </g>
          <g id="Grupo_55723" data-name="Grupo 55723">
            <g id="Grupo_55708" data-name="Grupo 55708">
              <path id="Trazado_105834" data-name="Trazado 105834" d="M-704.231,623.405a2.636,2.636,0,0,0,1.2,2.409c.05.025.127-.013.109-.065a9.257,9.257,0,0,0-.568-1.017c-.223-.441-.286-.9-.467-1.347a.147.147,0,0,0-.278.02Z" fill="#fbb03b"/>
            </g>
            <g id="Grupo_55709" data-name="Grupo 55709">
              <path id="Trazado_105835" data-name="Trazado 105835" d="M-705.364,623.593a1.571,1.571,0,0,0,.049,1.236,1.844,1.844,0,0,0,.656,1.119c.051.03.134-.005.133-.059-.014-.388-.312-.748-.423-1.127a4.231,4.231,0,0,0-.277-1.164.089.089,0,0,0-.138-.005Z" fill="#fbb03b"/>
            </g>
            <g id="Grupo_55710" data-name="Grupo 55710">
              <path id="Trazado_105836" data-name="Trazado 105836" d="M-703.025,623.056a2.79,2.79,0,0,0,.563,1.015,2.611,2.611,0,0,0,.664.825.12.12,0,0,0,.185-.111,2.812,2.812,0,0,0-.57-1.014,2.571,2.571,0,0,0-.669-.819.112.112,0,0,0-.173.1Z" fill="#fbb03b"/>
            </g>
            <g id="Grupo_55711" data-name="Grupo 55711">
              <path id="Trazado_105837" data-name="Trazado 105837" d="M-701.776,622.763c.974,1.378.856,1.658,1.264,1.98a.144.144,0,0,0,.237-.073c.079-.56-.784-1.642-1.186-2.1-.135-.152-.429.028-.315.19Z" fill="#fbb03b"/>
            </g>
            <g id="Grupo_55712" data-name="Grupo 55712">
              <path id="Trazado_105838" data-name="Trazado 105838" d="M-700.112,622.184c.455.6.729,1.282,1.174,1.879.057.075.22.063.218-.041a3.2,3.2,0,0,0-1.118-2c-.122-.12-.377.027-.274.164Z" fill="#fbb03b"/>
            </g>
            <g id="Grupo_55713" data-name="Grupo 55713">
              <path id="Trazado_105839" data-name="Trazado 105839" d="M-698.635,621.631a6.761,6.761,0,0,1,1.245,2.083.08.08,0,0,0,.143-.026,2.77,2.77,0,0,0-1.172-2.186c-.1-.077-.3.013-.216.129Z" fill="#fbb03b"/>
            </g>
            <g id="Grupo_55714" data-name="Grupo 55714">
              <path id="Trazado_105840" data-name="Trazado 105840" d="M-697.1,621.062a2.7,2.7,0,0,0,.546,1.029,2.451,2.451,0,0,0,.686.818.125.125,0,0,0,.19-.113,2.548,2.548,0,0,0-.544-1.029,2.613,2.613,0,0,0-.682-.821.129.129,0,0,0-.2.116Z" fill="#fbb03b"/>
            </g>
            <g id="Grupo_55715" data-name="Grupo 55715">
              <path id="Trazado_105841" data-name="Trazado 105841" d="M-695.485,620.477a12.73,12.73,0,0,1,.921,1.593c.214.361.575-.759-.67-1.743-.119-.094-.354.02-.251.15Z" fill="#fbb03b"/>
            </g>
            <g id="Grupo_55716" data-name="Grupo 55716">
              <path id="Trazado_105842" data-name="Trazado 105842" d="M-694.278,619.845c.752,1.623,1.707,2.089,1.57,1.727a15.854,15.854,0,0,0-1.337-1.867c-.1-.121-.287.023-.233.14Z" fill="#fbb03b"/>
            </g>
            <g id="Grupo_55717" data-name="Grupo 55717">
              <path id="Trazado_105843" data-name="Trazado 105843" d="M-692.943,619.154a5.689,5.689,0,0,0,.676.912,2.807,2.807,0,0,0,.743.7c.071.041.174-.02.153-.09a5.068,5.068,0,0,0-1.3-1.687c-.125-.128-.34.023-.268.161Z" fill="#fbb03b"/>
            </g>
            <g id="Grupo_55718" data-name="Grupo 55718">
              <path id="Trazado_105844" data-name="Trazado 105844" d="M-691.882,618.6c.516.362.94.824,1.477,1.161.109.068.235-.044.189-.138a2.989,2.989,0,0,0-1.49-1.246c-.18-.082-.334.112-.176.223Z" fill="#fbb03b"/>
            </g>
            <g id="Grupo_55719" data-name="Grupo 55719">
              <path id="Trazado_105845" data-name="Trazado 105845" d="M-690.4,617.748c.392.311.778.627,1.148.957a3.453,3.453,0,0,0,.951.753c.084.033.2-.046.172-.122a2.5,2.5,0,0,0-.84-.94,6.884,6.884,0,0,0-1.238-.826c-.13-.068-.317.079-.193.178Z" fill="#fbb03b"/>
            </g>
            <g id="Grupo_55720" data-name="Grupo 55720">
              <path id="Trazado_105846" data-name="Trazado 105846" d="M-689.057,617.281a8.22,8.22,0,0,0,1.813,1.2c.136.057.322-.088.214-.2a8.19,8.19,0,0,0-1.776-1.237c-.193-.112-.434.092-.251.235Z" fill="#fbb03b"/>
            </g>
            <g id="Grupo_55721" data-name="Grupo 55721">
              <path id="Trazado_105847" data-name="Trazado 105847" d="M-688.095,616.664c1.877,1.134,3.113.835,2.618.58-.45-.231-.193-.04-2.438-.82-.169-.058-.342.142-.18.24Z" fill="#fbb03b"/>
            </g>
            <g id="Grupo_55722" data-name="Grupo 55722">
              <path id="Trazado_105848" data-name="Trazado 105848" d="M-687.171,616.108c2.119.772,3.252.259,2.7.1-.5-.146-.2,0-2.588-.365-.18-.027-.3.2-.116.267Z" fill="#fbb03b"/>
            </g>
          </g>
        </g>
        <g id="Grupo_55764" data-name="Grupo 55764">
          <path id="Trazado_105849" data-name="Trazado 105849" d="M-574.9,603.874s30.464,5.528,32.007,6.942,1.928,3.6,1.414,6.17-1.8,3.085-4.885,2.956-12.34,2.185-15.039,3.985-26.737-6.941-28.408-8.227-.257-6.812.385-8.1S-574.9,603.874-574.9,603.874Z" fill="#fbb03b"/>
          <path id="Trazado_105850" data-name="Trazado 105850" d="M-565.607,616.573l4.064,1.968.514,5.045a6.657,6.657,0,0,0-.576.341c-2.7,1.8-26.737-6.941-28.408-8.227-.869-.668-.9-2.481-.647-4.249a10.084,10.084,0,0,1,1.207-.418C-589.039,610.826-565.607,616.573-565.607,616.573Z" fill="#cf9131" opacity="0.59" style="mix-blend-mode: multiply;isolation: isolate"/>
          <path id="Trazado_105851" data-name="Trazado 105851" d="M-567.44,618.882c1.253-3.471,4.82-3.182,11.569-5.4a41.052,41.052,0,0,1,13.767-1.737,7.038,7.038,0,0,1,.63,5.24c-.514,2.571-1.7,2.749-4.758,3.143a62.411,62.411,0,0,0-8.113,1.433,37.525,37.525,0,0,0-4.315,1.225c-2.221.886-3.15,2-5.575.939C-566.1,622.911-568.2,620.992-567.44,618.882Z" fill="#f7931e"/>
          <path id="Trazado_105852" data-name="Trazado 105852" d="M-561.1,620.071c15.481-2.395,16.368-2.733,16.5-3.259a6.408,6.408,0,0,0,.833-2.352,1.516,1.516,0,0,0-.522-1.245c-.88-.756-2.436-.515-6.842.616q-1.824.476-3.627,1.011c-2.405.714-4.792,1.468-7.156,2.353-1.514.583-3.061.99-3.127,2.6-.043,1.843,1.992,3.694,3.2,3.339.935-.219,2.218-.657,3.206-.987,3.931-1.3,7.76-2.689,10.658-3.141h.008a.294.294,0,0,0-.063-.583c-2.748.159-8.171,1.921-10.915,2.794a18.181,18.181,0,0,1-3.343.894,2.663,2.663,0,0,1-1.692-2.279c.027-.53.342-.719.772-.936a97.758,97.758,0,0,1,12.366-3.972c3.307-.84,5.667-1.377,5.926-.72.2.523-.482,1.646-.749,2.276a.493.493,0,0,1,.164-.254c.022-.019.1-.073.065-.048-1.67.563-14.09,2.592-15.819,2.872h0A.518.518,0,0,0-561.1,620.071Z" fill="#c97819"/>
          <path id="Trazado_105853" data-name="Trazado 105853" d="M-592.422,615.2c1.691-1.515,1.415-7.662,3.141-7.895s10.939,2.1,13.6,4.079c4.919,3.656,11.668,3.117,11.668,3.117a5.372,5.372,0,0,0-3.866,3.117c-1.269,2.9-2.654,5.552-7.594,6.67-7.131-1.87-13.668-4.439-19.343-8.444A4.464,4.464,0,0,0-592.422,615.2Z" fill="#fbb03b"/>
          <path id="Trazado_105854" data-name="Trazado 105854" d="M-575.471,623.925c5.018-1.081,6.014-2.711,7.9-6.192,1.148-2.222,3.229-2.6,6.232-3.212,6.177-1.269,10.819-2.885,19.234-2.807a53.038,53.038,0,0,0-16.671,1.786c-1.8.393-3.638.684-5.445,1.192l.033-.008a5.509,5.509,0,0,0-3.877,2.9,10.433,10.433,0,0,1-3.684,4.847A12.373,12.373,0,0,1-575.471,623.925Z" fill="#f7cd9c"/>
          <path id="Trazado_105855" data-name="Trazado 105855" d="M-550.513,611.033s-5.282.1-6.524.725-10.978,4.039-11.6,5.074-.31,3.625-1.346,3.936c-.591.177-6.143-5.175-11.392-8.984a39.925,39.925,0,0,0-8.02-4.441l10.609-1.489Z" fill="#f7931e"/>
          <path id="Trazado_105856" data-name="Trazado 105856" d="M-563.405,599.761s18.767,2.764,19.988,3.792,1.422,6.4.715,7.555-11.255-.871-13.248-.357-13.111,5.91-14.718,5.91-4.949-3.339-9.769-5.845-7.189-3.434-8.667-3.434-.074-7.428,3.075-8.328S-563.405,599.761-563.405,599.761Z" fill="#2e3192"/>
          <path id="Trazado_105857" data-name="Trazado 105857" d="M-546.5,593.848c1.827,1.292,2.057,6.877.514,8.934s-7.069.064-11.247,1.028-8.355.771-9.384.257-7.519-4.306-10.733-4.306a58.118,58.118,0,0,1-8.484-1.028s-.385-4.628.193-6.042,18.135-2.645,21.338-2.378C-551,591.424-550.271,591.183-546.5,593.848Z" fill="#e75f98"/>
          <path id="Trazado_105858" data-name="Trazado 105858" d="M-545.988,602.782c-1.542,2.056-7.069.064-11.247,1.028s-8.355.771-9.384.257-7.519-4.306-10.733-4.306-8.615-.69-8.615-.69-.254-4.966.324-6.38a.525.525,0,0,1,.231-.221c1.812.388,17.86,3.813,19.436,3.692a56.716,56.716,0,0,1,16.252-2.521,4.105,4.105,0,0,1,3.967,3.377C-545.375,599.108-545.147,601.661-545.988,602.782Z" fill="#bf1d5f"/>
          <path id="Trazado_105859" data-name="Trazado 105859" d="M-549.724,593.641a4.105,4.105,0,0,1,3.967,3.377c.327,1.79.584,3.929.112,5.207a2.265,2.265,0,0,1-.343.557c-1.542,2.056-7.069.064-11.247,1.028a23.593,23.593,0,0,1-8.726.463c-1.315-1.233-1.334-2.178-1.226-3.8a13.893,13.893,0,0,1,1.211-4.307A56.716,56.716,0,0,1-549.724,593.641Z" fill="#ad1a56"/>
          <g id="Grupo_55725" data-name="Grupo 55725">
            <path id="Trazado_105860" data-name="Trazado 105860" d="M-563.251,603.334a.409.409,0,0,0,.261-.093c.668-.543,5.3-.4,8.691-.287,5.516.176,6.949.142,7.287-.45a6.873,6.873,0,0,0,.138-4.491,2.386,2.386,0,0,0-1.27-1.551c-1.732-.722-12.955.691-13.907,1.271a1.942,1.942,0,0,0-.528,2.091,2.424,2.424,0,0,0,2.086,1.99c1.89.173,11.392-1.088,11.795-1.141a.415.415,0,0,0,.356-.466.414.414,0,0,0-.465-.356c-.1.013-9.814,1.3-11.61,1.138a1.638,1.638,0,0,1-1.355-1.352,1.323,1.323,0,0,1,.152-1.2c.925-.5,11.717-1.815,13.157-1.214a1.613,1.613,0,0,1,.8,1.053,6.336,6.336,0,0,1-.047,3.763c-.571.275-3.89.169-6.568.083-5.185-.165-8.393-.216-9.24.473a.415.415,0,0,0-.06.583A.416.416,0,0,0-563.251,603.334Z" fill="#99174c"/>
          </g>
          <path id="Trazado_105861" data-name="Trazado 105861" d="M-586.028,599.054h0a61.742,61.742,0,0,1,14.5,4.97,14.2,14.2,0,0,0,8.388,1.45c3.46-.469,7.744-1.015,9.261-1.07,1.647-.058,7.544.184,10.677-.609.976,1.4,1.223,6.2.526,7.341s-11.187-.88-13.246-.391l-.028.006c-1.914.494-12.61,5.667-14.589,5.905-1.562.189-4.934-3.259-9.9-5.84-2-1.041-5.963-3.085-8.184-3.369-.569-.072-1.124.213-1.133-1.319C-589.768,603.855-588.295,599.7-586.028,599.054Z" fill="#0082e0"/>
          <path id="Trazado_105862" data-name="Trazado 105862" d="M-586.028,599.054a61.742,61.742,0,0,1,14.5,4.97,14.317,14.317,0,0,0,2.851,1.1c.552,1.777,2.719,9.707-1.892,11.537-1.575.142-5.011-3.027-9.943-5.592-2-1.04-5.888-3.336-8.109-3.62-.569-.072-1.124.213-1.133-1.319C-589.768,603.855-588.295,599.7-586.028,599.054Z" fill="#0071c2"/>
          <path id="Trazado_105863" data-name="Trazado 105863" d="M-568.677,605.122c.6,4.466,1.456,9.3-1.649,11.432C-566.493,615.5-566.681,609.133-568.677,605.122Z" fill="#9bcdf2"/>
          <path id="Trazado_105864" data-name="Trazado 105864" d="M-584.973,600.886c2.1-1.3,11.453,3.74,12.982,4.916,2.287,1.76,1.356,8.546-1.054,6.633-3.247-2.582-13.114-4.885-12.384-7.914a1.952,1.952,0,0,1,1.681-1.3c1.076-.143,5.63,2.322,7.179,3.183a.385.385,0,0,1,.148.526.384.384,0,0,1-.523.148c-2.9-1.613-6.117-3.188-6.705-3.092a1.21,1.21,0,0,0-1.03.718c-.479,1.982,9.336,4.92,12.114,7.129,1.206.96,1.679-4.206.1-5.417-2.113-1.625-10.8-5.83-12.118-4.864l-.136.064c-1.308.327-1.463,4.291-1.338,6.308,0,.046,0,.189,0,.324-.289-.123-.574-.237-.85-.338C-587.123,605.8-586.854,601.522-584.973,600.886Z" fill="#0064ab"/>
          <path id="Trazado_105865" data-name="Trazado 105865" d="M-563.717,595.5a7.535,7.535,0,0,0-2.434.777c-.725.517-4.35,6.4-4.35,6.4l-11.081-2.1-7.8-2.037s2.783-5.262,3.972-6.066S-563.717,595.5-563.717,595.5Z" fill="#e75f98"/>
          <path id="Trazado_105866" data-name="Trazado 105866" d="M-545.646,602.228c1.065-2.706.574-7.018-1.94-8.433-2.773-1.515-12.628-.337-15.691.564-3.285.946-3.525,2.131-4.99,4.488-.758,1.268-1.519,2.534-2.234,3.831,4.23-5.123,4.034-5.783,5.538-6.572a19.828,19.828,0,0,1,6.264-1.363c2.163-.274,8.852-.941,10.665-.092C-545.829,595.692-545.164,599.715-545.646,602.228Z" fill="#ffa1c7"/>
          <g id="Grupo_55726" data-name="Grupo 55726">
            <path id="Trazado_105867" data-name="Trazado 105867" d="M-575.692,595.682a7.438,7.438,0,0,1-1.229.757c-.13.059-.262-.149-.154-.241a7.457,7.457,0,0,1,1.206-.794.165.165,0,0,1,.177.278Z" fill="#ed1e79"/>
          </g>
          <g id="Grupo_55727" data-name="Grupo 55727">
            <path id="Trazado_105868" data-name="Trazado 105868" d="M-577.378,594.138a7.378,7.378,0,0,1-1.069.969c-.117.083-.285-.1-.2-.208a7.3,7.3,0,0,1,1.04-1,.164.164,0,0,1,.224.24Z" fill="#ed1e79"/>
          </g>
          <g id="Grupo_55728" data-name="Grupo 55728">
            <path id="Trazado_105869" data-name="Trazado 105869" d="M-579.035,592.662a7.445,7.445,0,0,1-1.069.97c-.117.082-.285-.1-.2-.209a7.346,7.346,0,0,1,1.039-1,.165.165,0,0,1,.225.24Z" fill="#ed1e79"/>
          </g>
          <g id="Grupo_55729" data-name="Grupo 55729">
            <path id="Trazado_105870" data-name="Trazado 105870" d="M-571.811,593.853a7.4,7.4,0,0,1-1.07.97c-.116.082-.284-.1-.2-.209a7.407,7.407,0,0,1,1.04-1,.165.165,0,0,1,.225.24Z" fill="#ed1e79"/>
          </g>
          <g id="Grupo_55730" data-name="Grupo 55730">
            <path id="Trazado_105871" data-name="Trazado 105871" d="M-573.59,593.062a7.336,7.336,0,0,1-1.345.524c-.138.035-.231-.193-.107-.264a7.438,7.438,0,0,1,1.328-.565.165.165,0,0,1,.124.3Z" fill="#ed1e79"/>
          </g>
          <g id="Grupo_55731" data-name="Grupo 55731">
            <path id="Trazado_105872" data-name="Trazado 105872" d="M-567.246,593.658a7.441,7.441,0,0,1-1.345.524.149.149,0,0,1-.108-.265,7.375,7.375,0,0,1,1.329-.564.165.165,0,0,1,.124.3Z" fill="#ed1e79"/>
          </g>
          <g id="Grupo_55732" data-name="Grupo 55732">
            <path id="Trazado_105873" data-name="Trazado 105873" d="M-568.955,591.768a7.436,7.436,0,0,1-1.345.524c-.138.035-.231-.193-.108-.265a7.378,7.378,0,0,1,1.329-.564.165.165,0,0,1,.124.3Z" fill="#ed1e79"/>
          </g>
          <g id="Grupo_55733" data-name="Grupo 55733">
            <path id="Trazado_105874" data-name="Trazado 105874" d="M-565.512,591.949a7.377,7.377,0,0,1-1.345.524c-.138.035-.231-.193-.107-.264a7.307,7.307,0,0,1,1.328-.565.165.165,0,0,1,.124.3Z" fill="#ed1e79"/>
          </g>
          <g id="Grupo_55734" data-name="Grupo 55734">
            <path id="Trazado_105875" data-name="Trazado 105875" d="M-561.329,591.386a9.413,9.413,0,0,1-1.433-.175.113.113,0,0,1,.024-.224,9.528,9.528,0,0,1,1.437.141c.209.032.183.272-.028.258Z" fill="#ed1e79"/>
          </g>
          <g id="Grupo_55735" data-name="Grupo 55735">
            <path id="Trazado_105876" data-name="Trazado 105876" d="M-561.83,592.646a9.413,9.413,0,0,1-1.433-.175.113.113,0,0,1,.025-.224,9.5,9.5,0,0,1,1.436.141c.21.032.184.272-.028.258Z" fill="#ed1e79"/>
          </g>
          <g id="Grupo_55736" data-name="Grupo 55736">
            <path id="Trazado_105877" data-name="Trazado 105877" d="M-556.134,592.128a9.428,9.428,0,0,1-1.433-.175.113.113,0,0,1,.025-.224,9.5,9.5,0,0,1,1.436.141c.21.032.184.272-.028.258Z" fill="#ed1e79"/>
          </g>
          <g id="Grupo_55737" data-name="Grupo 55737">
            <path id="Trazado_105878" data-name="Trazado 105878" d="M-564.717,594.038a9.36,9.36,0,0,1-1.431.194.112.112,0,0,1-.032-.222,9.338,9.338,0,0,1,1.425-.228c.211-.022.246.217.038.256Z" fill="#ed1e79"/>
          </g>
          <g id="Grupo_55738" data-name="Grupo 55738">
            <path id="Trazado_105879" data-name="Trazado 105879" d="M-568.977,596.37a5.484,5.484,0,0,1-.825.743c-.09.063-.222-.079-.153-.165a5.553,5.553,0,0,1,.8-.768.13.13,0,0,1,.176.19Z" fill="#ed1e79"/>
          </g>
          <g id="Grupo_55739" data-name="Grupo 55739">
            <path id="Trazado_105880" data-name="Trazado 105880" d="M-571.359,597.251a5.525,5.525,0,0,1-.825.742c-.09.063-.222-.079-.153-.164a5.5,5.5,0,0,1,.8-.768.13.13,0,0,1,.176.19Z" fill="#ed1e79"/>
          </g>
          <g id="Grupo_55740" data-name="Grupo 55740">
            <path id="Trazado_105881" data-name="Trazado 105881" d="M-570.5,599.011a5.488,5.488,0,0,1-.825.743c-.09.063-.222-.079-.153-.165a5.553,5.553,0,0,1,.8-.768.13.13,0,0,1,.176.19Z" fill="#ed1e79"/>
          </g>
          <g id="Grupo_55741" data-name="Grupo 55741">
            <path id="Trazado_105882" data-name="Trazado 105882" d="M-574.655,599.874a5.536,5.536,0,0,1-.826.743c-.09.063-.222-.079-.153-.165a5.588,5.588,0,0,1,.8-.767.13.13,0,0,1,.177.189Z" fill="#ed1e79"/>
          </g>
          <g id="Grupo_55742" data-name="Grupo 55742">
            <path id="Trazado_105883" data-name="Trazado 105883" d="M-575.26,597.941a5.532,5.532,0,0,1-.825.743c-.09.063-.222-.079-.153-.165a5.553,5.553,0,0,1,.8-.768.13.13,0,0,1,.176.19Z" fill="#ed1e79"/>
          </g>
          <g id="Grupo_55743" data-name="Grupo 55743">
            <path id="Trazado_105884" data-name="Trazado 105884" d="M-580.593,596.733a5.6,5.6,0,0,1-.826.743c-.09.062-.222-.08-.153-.165a5.611,5.611,0,0,1,.8-.768.13.13,0,0,1,.176.19Z" fill="#ed1e79"/>
          </g>
          <g id="Grupo_55744" data-name="Grupo 55744">
            <path id="Trazado_105885" data-name="Trazado 105885" d="M-579.022,598.839a5.646,5.646,0,0,1-.826.743c-.09.062-.222-.08-.153-.165a5.652,5.652,0,0,1,.8-.768.13.13,0,0,1,.177.19Z" fill="#ed1e79"/>
          </g>
          <g id="Grupo_55745" data-name="Grupo 55745">
            <path id="Trazado_105886" data-name="Trazado 105886" d="M-582.613,595.818a5.537,5.537,0,0,1-.825.743c-.09.063-.222-.08-.153-.165a5.553,5.553,0,0,1,.8-.768.13.13,0,0,1,.176.19Z" fill="#ed1e79"/>
          </g>
          <g id="Grupo_55746" data-name="Grupo 55746">
            <path id="Trazado_105887" data-name="Trazado 105887" d="M-576.606,591.917a5.58,5.58,0,0,1-.825.743c-.091.063-.223-.08-.153-.165a5.55,5.55,0,0,1,.8-.768.13.13,0,0,1,.176.19Z" fill="#ed1e79"/>
          </g>
          <g id="Grupo_55747" data-name="Grupo 55747">
            <path id="Trazado_105888" data-name="Trazado 105888" d="M-583.269,594.213a5.6,5.6,0,0,1-.825.743c-.09.062-.222-.08-.153-.165a5.553,5.553,0,0,1,.8-.768.13.13,0,0,1,.176.19Z" fill="#ed1e79"/>
          </g>
          <g id="Grupo_55763" data-name="Grupo 55763">
            <g id="Grupo_55748" data-name="Grupo 55748">
              <path id="Trazado_105889" data-name="Trazado 105889" d="M-577.417,623.405a2.637,2.637,0,0,1-1.205,2.409c-.049.025-.127-.013-.108-.065a9.257,9.257,0,0,1,.567-1.017c.224-.441.286-.9.468-1.347a.147.147,0,0,1,.278.02Z" fill="#fbb03b"/>
            </g>
            <g id="Grupo_55749" data-name="Grupo 55749">
              <path id="Trazado_105890" data-name="Trazado 105890" d="M-576.285,623.593a1.567,1.567,0,0,1-.049,1.236,1.844,1.844,0,0,1-.656,1.119c-.051.03-.134-.005-.132-.059.014-.388.312-.748.422-1.127a4.2,4.2,0,0,1,.278-1.164.088.088,0,0,1,.137-.005Z" fill="#fbb03b"/>
            </g>
            <g id="Grupo_55750" data-name="Grupo 55750">
              <path id="Trazado_105891" data-name="Trazado 105891" d="M-578.624,623.056a2.775,2.775,0,0,1-.563,1.015,2.585,2.585,0,0,1-.664.825.119.119,0,0,1-.184-.111,2.808,2.808,0,0,1,.569-1.014,2.584,2.584,0,0,1,.669-.819.112.112,0,0,1,.173.1Z" fill="#fbb03b"/>
            </g>
            <g id="Grupo_55751" data-name="Grupo 55751">
              <path id="Trazado_105892" data-name="Trazado 105892" d="M-579.873,622.763c-.974,1.378-.856,1.658-1.263,1.98a.145.145,0,0,1-.238-.073c-.079-.56.784-1.642,1.187-2.1.134-.152.429.028.314.19Z" fill="#fbb03b"/>
            </g>
            <g id="Grupo_55752" data-name="Grupo 55752">
              <path id="Trazado_105893" data-name="Trazado 105893" d="M-581.537,622.184c-.455.6-.728,1.282-1.174,1.879-.056.075-.219.063-.218-.041a3.209,3.209,0,0,1,1.118-2c.122-.12.378.027.274.164Z" fill="#fbb03b"/>
            </g>
            <g id="Grupo_55753" data-name="Grupo 55753">
              <path id="Trazado_105894" data-name="Trazado 105894" d="M-583.014,621.631a6.756,6.756,0,0,0-1.244,2.083.08.08,0,0,1-.143-.026,2.77,2.77,0,0,1,1.172-2.186c.1-.077.3.013.215.129Z" fill="#fbb03b"/>
            </g>
            <g id="Grupo_55754" data-name="Grupo 55754">
              <path id="Trazado_105895" data-name="Trazado 105895" d="M-584.55,621.062a2.715,2.715,0,0,1-.545,1.029,2.464,2.464,0,0,1-.686.818.126.126,0,0,1-.191-.113,2.572,2.572,0,0,1,.544-1.029,2.616,2.616,0,0,1,.683-.821.129.129,0,0,1,.2.116Z" fill="#fbb03b"/>
            </g>
            <g id="Grupo_55755" data-name="Grupo 55755">
              <path id="Trazado_105896" data-name="Trazado 105896" d="M-586.164,620.477a12.6,12.6,0,0,0-.92,1.593c-.215.361-.576-.759.669-1.743.119-.094.355.02.251.15Z" fill="#fbb03b"/>
            </g>
            <g id="Grupo_55756" data-name="Grupo 55756">
              <path id="Trazado_105897" data-name="Trazado 105897" d="M-587.37,619.845c-.753,1.623-1.708,2.089-1.57,1.727a15.856,15.856,0,0,1,1.336-1.867c.1-.121.287.023.234.14Z" fill="#fbb03b"/>
            </g>
            <g id="Grupo_55757" data-name="Grupo 55757">
              <path id="Trazado_105898" data-name="Trazado 105898" d="M-588.706,619.154a5.628,5.628,0,0,1-.676.912,2.807,2.807,0,0,1-.743.7c-.07.041-.174-.02-.152-.09a5.051,5.051,0,0,1,1.3-1.687c.125-.128.34.023.268.161Z" fill="#fbb03b"/>
            </g>
            <g id="Grupo_55758" data-name="Grupo 55758">
              <path id="Trazado_105899" data-name="Trazado 105899" d="M-589.767,618.6c-.515.362-.94.824-1.476,1.161-.109.068-.235-.044-.19-.138a2.989,2.989,0,0,1,1.49-1.246c.181-.082.334.112.176.223Z" fill="#fbb03b"/>
            </g>
            <g id="Grupo_55759" data-name="Grupo 55759">
              <path id="Trazado_105900" data-name="Trazado 105900" d="M-591.248,617.748c-.392.311-.777.627-1.147.957a3.472,3.472,0,0,1-.952.753c-.083.033-.2-.046-.172-.122a2.5,2.5,0,0,1,.841-.94,6.839,6.839,0,0,1,1.237-.826c.13-.068.318.079.193.178Z" fill="#fbb03b"/>
            </g>
            <g id="Grupo_55760" data-name="Grupo 55760">
              <path id="Trazado_105901" data-name="Trazado 105901" d="M-592.591,617.281a8.266,8.266,0,0,1-1.813,1.2c-.137.057-.322-.088-.215-.2a8.175,8.175,0,0,1,1.777-1.237c.192-.112.433.092.251.235Z" fill="#fbb03b"/>
            </g>
            <g id="Grupo_55761" data-name="Grupo 55761">
              <path id="Trazado_105902" data-name="Trazado 105902" d="M-593.554,616.664c-1.877,1.134-3.113.835-2.617.58.449-.231.192-.04,2.438-.82.169-.058.341.142.179.24Z" fill="#fbb03b"/>
            </g>
            <g id="Grupo_55762" data-name="Grupo 55762">
              <path id="Trazado_105903" data-name="Trazado 105903" d="M-594.478,616.108c-2.119.772-3.252.259-2.7.1.5-.146.2,0,2.589-.365.18-.027.3.2.115.267Z" fill="#fbb03b"/>
            </g>
          </g>
        </g>
        <g id="Grupo_55777" data-name="Grupo 55777">
          <g id="Grupo_55768" data-name="Grupo 55768">
            <g id="Grupo_55767" data-name="Grupo 55767" clip-path="url(#clip-path)">
              <g id="Grupo_55765" data-name="Grupo 55765">
                <path id="Trazado_105904" data-name="Trazado 105904" d="M-568.12,555.792q-3.414-5.7-11.007-10.089t-21.286-9q-15.043-4.935-20.623-7.764t-5.524-7.263q.057-4.435,5.607-6.738t14.844-2.18c9.962.128,18.038,3.615,27.859,7.269,1.506.56,4.824-.433,6.326.21l.3-23.715a94.1,94.1,0,0,0-18.527-5.136,127.859,127.859,0,0,0-13.816-1.5l.318-24.694-23.2-.3-.33,25.6a70.274,70.274,0,0,0-11.8,2.709q-11.67,3.831-18.25,10.936a23.758,23.758,0,0,0-6.7,16.287,24.3,24.3,0,0,0,8.278,18.929q8.421,7.761,27.125,14.274,10.6,3.658,15.615,5.71a25.287,25.287,0,0,1,7.593,4.459,7.316,7.316,0,0,1,2.542,5.618q-.055,4.285-4.926,6.517t-14.359,2.11a116.152,116.152,0,0,1-21.564-2.419,112.3,112.3,0,0,1-21.7-6.707l-6.3-.288,5.99,24.615a90.556,90.556,0,0,0,20.652,5.545c5.432.9,10.9,1.5,16.391,1.859l-.3,23.115,23.2.3.3-23.525q16.734-1.476,26.616-7.323,13.76-8.161,13.95-23Q-564.707,561.5-568.12,555.792Z" fill="#cb8705"/>
              </g>
              <g id="Grupo_55766" data-name="Grupo 55766">
                <path id="Trazado_105905" data-name="Trazado 105905" d="M-574.457,555.557q-3.413-5.7-11.007-10.088t-21.286-9q-15.042-4.935-20.623-7.763t-5.524-7.264q.057-4.436,5.607-6.737t14.844-2.181a89.176,89.176,0,0,1,34.185,7.479l.3-23.715a94.1,94.1,0,0,0-18.527-5.135,127.6,127.6,0,0,0-13.816-1.5l.318-24.694-23.2-.3-.329,25.605a70.187,70.187,0,0,0-11.8,2.708q-11.67,3.831-18.25,10.936a23.756,23.756,0,0,0-6.7,16.287,24.3,24.3,0,0,0,8.278,18.929q8.421,7.762,27.125,14.274,10.6,3.659,15.614,5.711a25.254,25.254,0,0,1,7.593,4.458,7.316,7.316,0,0,1,2.542,5.618q-.054,4.285-4.926,6.517t-14.359,2.11a116.122,116.122,0,0,1-21.563-2.419,112.257,112.257,0,0,1-21.7-6.707l-.313,24.327a90.538,90.538,0,0,0,20.652,5.546c5.431.9,10.9,1.5,16.39,1.858l-.3,23.115,23.2.3.3-23.525q16.736-1.476,26.616-7.323,13.759-8.16,13.95-23Q-571.044,561.263-574.457,555.557Z" fill="#fbcf3b"/>
              </g>
              <rect id="Rectángulo_5563" data-name="Rectángulo 5563" width="16.487" height="159.688" transform="matrix(0.961, -0.278, 0.278, 0.961, -676.704, 482.459)" fill="#fff" opacity="0.45"/>
              <rect id="Rectángulo_5564" data-name="Rectángulo 5564" width="16.487" height="159.688" transform="matrix(0.961, -0.278, 0.278, 0.961, -618.265, 457.317)" fill="#fff" opacity="0.45"/>
              <rect id="Rectángulo_5565" data-name="Rectángulo 5565" width="7.2" height="159.688" transform="matrix(0.961, -0.278, 0.278, 0.961, -656.658, 482.459)" fill="#fff" opacity="0.45"/>
            </g>
          </g>
          <g id="Grupo_55776" data-name="Grupo 55776">
            <path id="Trazado_105907" data-name="Trazado 105907" d="M-589.619,437.182s2.565,5.384,2.951,6.858,3.314,2.706,3.314,2.706-6.326,4.481-8.718,3.121a23.747,23.747,0,0,1-3.187-2.037s1.874-.248,2.151-1.315.1-10.289.1-10.289Z" fill="#e08a68"/>
            <path id="Trazado_105908" data-name="Trazado 105908" d="M-598.116,448.9l-4.244,13.313-4.191,6.569c-.781,1.722-1.848,3.468-1.217,5.252.566,1.6,1.67,2.845,3.822,1.43l6.187-10.372a30.153,30.153,0,0,0,2.523-3.4l2.259-6.239Z" fill="#282247"/>
            <g id="Grupo_55774" data-name="Grupo 55774">
              <path id="Trazado_105909" data-name="Trazado 105909" d="M-607.952,513.064s-2.31,7.268-4.477,8.462c0,0-1.552,2.347-.116,3.27s3.346.389,4.5-.227,4.1-5.856,4.1-5.856l.082-.758.6.568,1.2-1.512-2.383-5.367Z" fill="#4c2421"/>
              <g id="Grupo_55769" data-name="Grupo 55769">
                <path id="Trazado_105910" data-name="Trazado 105910" d="M-608.092,513.885c-.587.766-1.453,1.262-2.04,2.036-.259.341-.9,1.247-.471,1.676.388.385,1.275-.584,1.521-.852a3.053,3.053,0,0,0,.6-.927,8.226,8.226,0,0,1,.466-1.388l-.317-.086a3.745,3.745,0,0,0,.55,1.876c.153.245.535.936.918.759.359-.165.148-.8.091-1.062a6.465,6.465,0,0,0-.928-2.147c-.119-.182-.414-.012-.293.171a5.853,5.853,0,0,1,.965,2.444c.054.441-.077.173-.224-.006a3.223,3.223,0,0,1-.371-.565,3.383,3.383,0,0,1-.368-1.47.172.172,0,0,0-.317-.086c-.332.536-.325,1.186-.633,1.735a3.094,3.094,0,0,1-.627.756c-.176.16-.73.747-.789.293-.034-.257.36-.736.508-.93a6.144,6.144,0,0,1,.719-.768,10.728,10.728,0,0,0,1.331-1.288c.133-.174-.162-.343-.293-.171Z" fill="#3f1d1b"/>
              </g>
              <path id="Trazado_105911" data-name="Trazado 105911" d="M-598.767,520.388s-2.616,8.232-5.072,9.585c0,0-1.757,2.659-.131,3.7s3.79.441,5.095-.257,4.647-6.633,4.647-6.633l.093-.86.68.644,1.355-1.712-2.7-6.08Z" fill="#4c2421"/>
              <path id="Trazado_105912" data-name="Trazado 105912" d="M-599.869,481.464l-.767.325c-3.156,1.344-15.013,6.456-15.994,7.829-1.133,1.586-2.945,4.983-1.812,7.928s8.834,17.894,8.834,17.894l6.115-2.039s-4.7-12.883-4.983-15.176c-.453-3.624,3.4-5.662,6.342-6.115l5.437-2.039s-7.561,5.706-7.928,7.248c-1.133,4.757,4.077,24.01,4.077,24.01s4.983.453,7.248-1.359c0,0-3.85-18.347-2.265-20.159s7.7-4.757,8.607-5.21,3.851-.679,4.983-2.038,2.945-2.945,2.719-7.248l-4.078-6.8" fill="#282247"/>
              <path id="Trazado_105913" data-name="Trazado 105913" d="M-615.13,499.972l-3.377-2.61c.021.062.041.123.065.184,1.132,2.945,8.834,17.894,8.834,17.894l6.115-2.039s-1.864-5.114-3.315-9.471A55.8,55.8,0,0,1-615.13,499.972Z" fill="#191733"/>
              <path id="Trazado_105914" data-name="Trazado 105914" d="M-604.207,504.834c1.16,7.258,3.659,16.495,3.659,16.495s4.983.453,7.248-1.359c0,0-1.534-7.309-2.267-13.156A53.32,53.32,0,0,1-604.207,504.834Z" fill="#191733"/>
              <path id="Trazado_105915" data-name="Trazado 105915" d="M-598.622,475.951a3.934,3.934,0,0,0,2.263,3.24c2.263,1.2,5.591,1.863,7.322,1.464s6.789-2.929,7.056-4.393l-.045.044Z" fill="#262728"/>
              <rect id="Rectángulo_5566" data-name="Rectángulo 5566" width="0.799" height="2.529" transform="translate(-588.378 478.247) rotate(-12.91)" fill="#222a4e"/>
              <rect id="Rectángulo_5567" data-name="Rectángulo 5567" width="0.799" height="2.529" transform="matrix(0.912, 0.409, -0.409, 0.912, -595.141, 477.407)" fill="#222a4e"/>
              <rect id="Rectángulo_5568" data-name="Rectángulo 5568" width="0.799" height="2.529" transform="matrix(0.902, -0.431, 0.431, 0.902, -586.082, 477.49)" fill="#222a4e"/>
              <rect id="Rectángulo_5569" data-name="Rectángulo 5569" width="0.799" height="2.529" transform="matrix(0.733, 0.68, -0.68, 0.733, -597.256, 476.328)" fill="#222a4e"/>
              <path id="Trazado_105916" data-name="Trazado 105916" d="M-594.628,445.776l2.871,3.484,6.365-4.064,8.214,4.009s-3.458,13.013-3.618,15.674c-.1,1.636-.018,5.537.059,8.3a4.263,4.263,0,0,1-2.871,4.152c-2.216.761-5.212,1.6-7.311,1.425a28.643,28.643,0,0,1-5.094-.986,4.473,4.473,0,0,1-3.263-3.953c-.4-5.052-1.084-15.062-.462-18.58a26.143,26.143,0,0,1,2.98-8.264Z" fill="#dadeea"/>
              <path id="Trazado_105917" data-name="Trazado 105917" d="M-591.833,449.238l-2.263-.932-1.731.932,1.731-2.662Z" fill="#babbbf"/>
              <path id="Trazado_105918" data-name="Trazado 105918" d="M-591.294,449.6l.422-2.259,4.839-4.611,2.1,3.216-4.441,4.748Z" fill="#dadeea"/>
              <path id="Trazado_105919" data-name="Trazado 105919" d="M-593.366,443.785l-1.262,1.059a31.178,31.178,0,0,0-1.2,4.394l1.6-2,2.141,1.882S-594.192,446.506-593.366,443.785Z" fill="#dadeea"/>
              <g id="Grupo_55770" data-name="Grupo 55770">
                <path id="Trazado_105920" data-name="Trazado 105920" d="M-598.906,521.328c-.645.85-1.6,1.4-2.263,2.245-.3.384-1.075,1.44-.588,1.931.425.428,1.486-.728,1.744-1.018a3.392,3.392,0,0,0,.635-1.006,8.577,8.577,0,0,1,.521-1.557l-.317-.086a4.2,4.2,0,0,0,.628,2.13c.166.262.6,1.03,1.007.834s.134-.981.06-1.289A7.258,7.258,0,0,0-598.5,521.2c-.12-.182-.414-.012-.293.171a6.007,6.007,0,0,1,1.1,2.8c.027.606-.326-.035-.458-.223a3.794,3.794,0,0,1-.277-.462,3.857,3.857,0,0,1-.4-1.646.171.171,0,0,0-.317-.085c-.369.585-.356,1.3-.683,1.9a3.552,3.552,0,0,1-.722.9c-.211.2-.909.916-.957.334-.026-.3.422-.861.6-1.09a7.07,7.07,0,0,1,.782-.831,11.966,11.966,0,0,0,1.518-1.467c.132-.174-.162-.344-.293-.172Z" fill="#3f1d1b"/>
              </g>
              <path id="Trazado_105921" data-name="Trazado 105921" d="M-588.105,449.5l-2.8-2.13-.8,1.864,1.464-.532Z" fill="#babbbf"/>
              <g id="Grupo_55771" data-name="Grupo 55771">
                <rect id="Rectángulo_5570" data-name="Rectángulo 5570" width="3.664" height="2.263" rx="0.461" transform="translate(-593.963 478.6) rotate(6.199)" fill="#ced0d8"/>
                <rect id="Rectángulo_5571" data-name="Rectángulo 5571" width="3.233" height="1.864" rx="0.393" transform="translate(-593.768 478.806) rotate(6.199)" fill="#262728"/>
              </g>
              <path id="Trazado_105922" data-name="Trazado 105922" d="M-593.912,447.626a3.138,3.138,0,0,0,2.976-.293l1.22.976-1.366,2.391.585,7.172-2.781,4.244s-1.317-2.927-1.317-3.22,1.464-8.343,1.464-8.343l-1.025-2.2Z" fill="#c80000"/>
              <path id="Trazado_105923" data-name="Trazado 105923" d="M-583.618,446.016s-8.928,12.148-9.221,14.344c0,0-2.405-9.348-2.509-13.336-.01-.386.233-.8.039-.993-.017-.016-1.628,1.01-1.628,1.01s-3.366,3.366-3.22,14.49c.111,8.413,2.131,14.091,1.194,16.082-2.341,4.977-4.077,5.21-4.077,5.21s9.03,4.761,10.2-3.582c1.434,4.558,4.836,6.713,7.026,7.026,6.147.878,7.025-.439,7.025-.439l-2.049-10.978s.473-11.68,1.334-14.329,3.659-9.879,1.74-12.017Z" fill="#362d56"/>
              <g id="Grupo_55772" data-name="Grupo 55772">
                <path id="Trazado_105924" data-name="Trazado 105924" d="M-592.983,479.268c-1.589-8.524-1.18-13.273-.581-14.62,1.624-3.655,9.048-7.973,10.143-8.594l-3.9-1.548,4.59-1.881.436-5.956.146.011-.443,6.046-4.338,1.778,3.854,1.527-.135.075c-.085.047-8.488,4.717-10.215,8.6-.593,1.336-.992,6.034.592,14.534Z" fill="#4e4575"/>
              </g>
              <g id="Grupo_55773" data-name="Grupo 55773">
                <path id="Trazado_105925" data-name="Trazado 105925" d="M-593.569,464.692a25.618,25.618,0,0,0-2.732-7.636,10.919,10.919,0,0,0-1.638-2.278l-.094-.09,3.17-.864-2.946-1.6,1.622-5.684.141.04-1.59,5.572,3.163,1.72-3.276.894a11.849,11.849,0,0,1,1.571,2.212,25.8,25.8,0,0,1,2.752,7.688Z" fill="#4e4575"/>
              </g>
            </g>
            <path id="Trazado_105926" data-name="Trazado 105926" d="M-592.068,477.432l-1.389-15.14a.952.952,0,0,0-1.025-.862l-11.8.958a.952.952,0,0,0-.849,1.168l3.448,14.607Z" fill="#29c8e2"/>
            <path id="Trazado_105927" data-name="Trazado 105927" d="M-599.809,473.373l2.45-1.255a10.755,10.755,0,0,0,3.592-4.163l.649-1.973,1.05,11.45-11.616.731-1-4.23A10.682,10.682,0,0,0-599.809,473.373Z" fill="#298ce2" opacity="0.25"/>
            <path id="Trazado_105928" data-name="Trazado 105928" d="M-589.366,469.726l-1.619.441a9.149,9.149,0,0,0-1.83-1.579c-.8-.431-4.7.119-5.314.535s-.677.977.2,1.138c0,0-.447,1.048.324,1.285,0,0-1.081.612.129,1.079,0,0-.959.468.64,1.04a13.412,13.412,0,0,1,3.426-.026,2.834,2.834,0,0,1,1.5.947s1.357.539,1.681.264a7.939,7.939,0,0,0,.924-1.273l1.259-.967Z" fill="#ef9e78"/>
            <path id="Trazado_105929" data-name="Trazado 105929" d="M-577.449,449.034s3.234,13.86,1.926,16.1-.771,3.374-6.274,6.411c-5.238,2.891-6.525,2.561-6.525,2.561l-1.781-4.385s7.853-4.075,8.724-5.181a4.238,4.238,0,0,0,.766-3.554c-.215-1.256-1.379-4.769-1.379-4.769S-583.521,452.339-577.449,449.034Z" fill="#3d3660"/>
            <path id="Trazado_105930" data-name="Trazado 105930" d="M-602.257,437.4a55.8,55.8,0,0,0,2.644,5.164c.862,1.257,4.637,2.349,5.526,2.464a3.587,3.587,0,0,0,1.938-.532s2.656-3.753,2.81-4.939a39.944,39.944,0,0,0-.582-5.74s-1.047-5.861-2.54-6.9-5.405-2.931-8.506-.862-4.02,2.883-3.265,5.663C-603.9,432.947-602.257,437.4-602.257,437.4Z" fill="#ef9e78"/>
            <path id="Trazado_105931" data-name="Trazado 105931" d="M-603.825,463.622l6.558-.479-.415-2.388-6.558.479Z" fill="#ccc"/>
            <path id="Trazado_105932" data-name="Trazado 105932" d="M-602.7,435.585l2.686-.934a.363.363,0,0,0-.084-.487,3.716,3.716,0,0,0-2.485.521C-602.889,435.048-602.909,435.485-602.7,435.585Z" fill="#330f1d"/>
            <path id="Trazado_105933" data-name="Trazado 105933" d="M-594.032,432.681l-3.039,1.057a.41.41,0,0,1-.268-.491c.052-.408,2.046-1.393,2.571-1.283S-593.919,432.447-594.032,432.681Z" fill="#330f1d"/>
            <path id="Trazado_105934" data-name="Trazado 105934" d="M-599.694,437.173a.836.836,0,0,1-.323,1.1c-.349.121-.769-.176-.939-.664a.838.838,0,0,1,.324-1.1C-600.283,436.387-599.863,436.685-599.694,437.173Z" fill="#2b203e"/>
            <path id="Trazado_105935" data-name="Trazado 105935" d="M-594.014,435.2a.836.836,0,0,1-.324,1.1c-.348.121-.768-.176-.938-.664a.836.836,0,0,1,.324-1.1C-594.6,434.412-594.183,434.71-594.014,435.2Z" fill="#2b203e"/>
            <g id="Grupo_55775" data-name="Grupo 55775">
              <path id="Trazado_105936" data-name="Trazado 105936" d="M-596.556,439.029c-.353.06-.786.1-1-.12-.171-.174-.172-.468,0-.9.292-.749-1.156-3.516-1.738-4.519l.238-.121c.005.009.536.927,1.015,1.951.652,1.393.9,2.315.733,2.74-.134.345-.147.576-.037.688s.353.127.774.056Z" fill="#f07a6e"/>
            </g>
            <path id="Trazado_105937" data-name="Trazado 105937" d="M-597.193,441.088l4.484-2.087s.544-.09.18,1.087-3.046,2.046-3.046,2.046S-596.891,442.122-597.193,441.088Z" fill="#c1272d"/>
            <path id="Trazado_105938" data-name="Trazado 105938" d="M-597.224,441.017l4.515-2.016s.513-.161-.066.519a12.906,12.906,0,0,1-3.2,1.692S-597.168,441.483-597.224,441.017Z" fill="#fff"/>
            <path id="Trazado_105939" data-name="Trazado 105939" d="M-590.929,432.249s-1.248-3.018-2.293-3.142l-1.42-3.023a32.736,32.736,0,0,1-5.066,4.684,35.923,35.923,0,0,1-4.228,2.151l1.272,3.542-2.2-3.59s-1.855-1.918-2.025-2.856-1.089-4.192,4.616-6.406,9.415-3.713,11.591-1.828,3.647,4.356,3.6,5.622-1.282,6.876-1.488,9.783-.345,1.714-.345,1.714Z" fill="#330f1d"/>
            <path id="Trazado_105940" data-name="Trazado 105940" d="M-590.7,432.52s-.019-1.479,1.336-1.243,1.762,2.217,1.35,3.068-1.109,2.507-1.405,2.469a1.888,1.888,0,0,1-.68-.329Z" fill="#ef9e78"/>
            <path id="Trazado_105941" data-name="Trazado 105941" d="M-607.414,471.329a6.26,6.26,0,0,1,.75-1.758c.427-.534,3.493-.716,4.1-.445s.864.771.283,1.071c0,0,.72.875.244,1.226,0,0,1.021.368.31,1.006,0,0,.878.257-.08,1.058a7.971,7.971,0,0,0-2.522.577,1.778,1.778,0,0,0-.744,1.125s-.794.729-1.134.535a1.6,1.6,0,0,1-.383-.512,6.153,6.153,0,0,1-.79-2.86Z" fill="#ef9e78"/>
          </g>
        </g>
        <g id="Grupo_55778" data-name="Grupo 55778">
          <path id="Trazado_105942" data-name="Trazado 105942" d="M-703.279,623.031h-3.042L-666.1,487.5h3.042Z" fill="#3d3660"/>
          <path id="Trazado_105943" data-name="Trazado 105943" d="M-673.536,623.031h-3.042l40.22-135.535h3.042Z" fill="#3d3660"/>
          <path id="Trazado_105944" data-name="Trazado 105944" d="M-635.491,494.255H-667.6l.7-2.366h32.109Z" fill="#3d3660"/>
          <path id="Trazado_105945" data-name="Trazado 105945" d="M-640.191,510.093H-672.3l.7-2.366h32.109Z" fill="#3d3660"/>
          <path id="Trazado_105946" data-name="Trazado 105946" d="M-644.891,525.93H-677l.7-2.366h32.109Z" fill="#3d3660"/>
          <path id="Trazado_105947" data-name="Trazado 105947" d="M-649.59,541.768H-681.7l.7-2.366h32.109Z" fill="#3d3660"/>
          <path id="Trazado_105948" data-name="Trazado 105948" d="M-654.29,557.605H-686.4l.7-2.366h32.109Z" fill="#3d3660"/>
          <path id="Trazado_105949" data-name="Trazado 105949" d="M-658.99,573.442H-691.1l.7-2.366h32.109Z" fill="#3d3660"/>
          <path id="Trazado_105950" data-name="Trazado 105950" d="M-663.689,589.28H-695.8l.7-2.366h32.109Z" fill="#3d3660"/>
          <path id="Trazado_105951" data-name="Trazado 105951" d="M-668.389,605.117H-700.5l.7-2.366h32.109Z" fill="#3d3660"/>
        </g>
      </g>
    </g>
  </g>
</svg>
