<svg xmlns="http://www.w3.org/2000/svg" xmlns:xlink="http://www.w3.org/1999/xlink" width="400" height="290.084" viewBox="0 0 400 290.084">
  <defs>
    <clipPath id="clip-path">
      <path id="Rectangle_652" data-name="Rectangle 652" d="M393.7,0H6.3C2.82,0,0,4.808,0,10.744v268.6c0,5.934,2.82,10.744,6.3,10.744H393.7c3.479,0,6.3-4.808,6.3-10.744V10.744C400,4.808,397.18,0,393.7,0Z" transform="translate(0 46.689)" fill="#f6e7e0"/>
    </clipPath>
    <clipPath id="clip-path-2">
      <path id="Trazado_113844" data-name="Trazado 113844" d="M42.275,42.279A48.1,48.1,0,1,0,76.289,28.192,48.1,48.1,0,0,0,42.275,42.279" transform="translate(-28.186 -28.192)" fill="#ff8a5b"/>
    </clipPath>
  </defs>
  <g id="Grupo_57516" data-name="Grupo 57516" transform="translate(-180 -999.916)">
    <g id="Grupo_57510" data-name="Grupo 57510">
      <g id="Grupo_57513" data-name="Grupo 57513">
        <path id="Trazado_109534" data-name="Trazado 109534" d="M10,0H390a10,10,0,0,1,10,10V279a10,10,0,0,1-10,10H10A10,10,0,0,1,0,279V10A10,10,0,0,1,10,0Z" transform="translate(180 1001)" fill="#9f0925" opacity="0.1"/>
      </g>
    </g>
    <g id="Grupo_57511" data-name="Grupo 57511">
      <g id="Grupo_57515" data-name="Grupo 57515">
        <path id="Trazado_109533" data-name="Trazado 109533" d="M21.559,6.2l2.856,8.9,2.848-8.9h4.061V19H28.229V16.012l.3-6.117L25.435,19H23.4l-3.1-9.114.3,6.126V19H17.507V6.2ZM38.5,19a3.344,3.344,0,0,1-.281-.853,2.754,2.754,0,0,1-2.285,1.028,3.374,3.374,0,0,1-2.285-.813,2.588,2.588,0,0,1-.94-2.043,2.66,2.66,0,0,1,1.143-2.338,5.821,5.821,0,0,1,3.322-.791h.914v-.5q0-1.316-1.134-1.316A.927.927,0,0,0,35.9,12.413H32.94a2.655,2.655,0,0,1,1.173-2.239,4.931,4.931,0,0,1,2.993-.86,4.323,4.323,0,0,1,2.874.888,3.086,3.086,0,0,1,1.081,2.435v4.21a4.311,4.311,0,0,0,.4,2V19Zm-1.854-1.934a1.652,1.652,0,0,0,.918-.237,1.487,1.487,0,0,0,.523-.536V14.772h-.861q-1.547,0-1.547,1.389a.848.848,0,0,0,.272.655A.986.986,0,0,0,36.649,17.066Zm9.5-9.94V9.49h1.564v2.057H46.15V15.9a1.111,1.111,0,0,0,.193.747,1.037,1.037,0,0,0,.765.211,4.345,4.345,0,0,0,.738-.053v2.118a5.466,5.466,0,0,1-1.67.255,3.1,3.1,0,0,1-2.259-.721,2.954,2.954,0,0,1-.729-2.188v-4.72H41.976V9.49h1.213V7.126Zm7.33,12.05a4.889,4.889,0,0,1-3.542-1.305,4.507,4.507,0,0,1-1.354-3.4v-.246a5.84,5.84,0,0,1,.541-2.575A3.955,3.955,0,0,1,50.7,9.925a4.763,4.763,0,0,1,2.461-.611,4.117,4.117,0,0,1,3.164,1.244,4.887,4.887,0,0,1,1.16,3.467v1.151H51.6a2.135,2.135,0,0,0,.694,1.257,2.066,2.066,0,0,0,1.389.457,2.662,2.662,0,0,0,2.2-.984l1.354,1.6a3.784,3.784,0,0,1-1.569,1.217A5.3,5.3,0,0,1,53.48,19.176ZM53.146,11.6q-1.3,0-1.547,1.723h2.988v-.229a1.467,1.467,0,0,0-.36-1.1A1.434,1.434,0,0,0,53.146,11.6Zm11.285.571-.976-.07a1.752,1.752,0,0,0-1.793.879V19H58.7V9.49h2.777l.1,1.222a2.294,2.294,0,0,1,2.083-1.4,2.888,2.888,0,0,1,.826.105ZM68.624,19H65.653V9.49h2.971ZM65.478,7.038A1.322,1.322,0,0,1,65.935,6a1.943,1.943,0,0,1,2.373,0,1.322,1.322,0,0,1,.457,1.037,1.322,1.322,0,0,1-.457,1.037,1.943,1.943,0,0,1-2.373,0A1.322,1.322,0,0,1,65.478,7.038ZM75.8,19a3.344,3.344,0,0,1-.281-.853,2.754,2.754,0,0,1-2.285,1.028,3.374,3.374,0,0,1-2.285-.813,2.588,2.588,0,0,1-.94-2.043,2.66,2.66,0,0,1,1.143-2.338,5.821,5.821,0,0,1,3.322-.791h.914v-.5q0-1.316-1.134-1.316A.927.927,0,0,0,73.2,12.413H70.241a2.655,2.655,0,0,1,1.173-2.239,4.931,4.931,0,0,1,2.993-.86,4.323,4.323,0,0,1,2.874.888,3.086,3.086,0,0,1,1.081,2.435v4.21a4.311,4.311,0,0,0,.4,2V19ZM73.95,17.066a1.652,1.652,0,0,0,.918-.237,1.487,1.487,0,0,0,.523-.536V14.772H74.53q-1.547,0-1.547,1.389a.848.848,0,0,0,.272.655A.986.986,0,0,0,73.95,17.066Zm11.03-.738a.684.684,0,0,0-.4-.606,6.016,6.016,0,0,0-1.5-.475,6.853,6.853,0,0,1-1.828-.646,3.062,3.062,0,0,1-1.1-.971,2.319,2.319,0,0,1-.378-1.31,2.628,2.628,0,0,1,1.081-2.158,4.453,4.453,0,0,1,2.83-.848,4.934,4.934,0,0,1,3.023.853,2.666,2.666,0,0,1,1.143,2.241H84.884q0-1.143-1.2-1.143a1.194,1.194,0,0,0-.782.259.8.8,0,0,0-.316.646.737.737,0,0,0,.387.642,3.654,3.654,0,0,0,1.235.4,10.671,10.671,0,0,1,1.49.378,2.706,2.706,0,0,1,2.145,2.646,2.491,2.491,0,0,1-1.156,2.118,5.068,5.068,0,0,1-2.993.817,5.172,5.172,0,0,1-2.18-.439,3.645,3.645,0,0,1-1.494-1.2,2.707,2.707,0,0,1-.536-1.591h2.769a1.145,1.145,0,0,0,.439.962,1.808,1.808,0,0,0,1.081.3,1.422,1.422,0,0,0,.91-.246A.787.787,0,0,0,84.98,16.328Zm17.552-2.013a5.735,5.735,0,0,1-1,3.538,3.2,3.2,0,0,1-2.694,1.323,2.742,2.742,0,0,1-2.153-.958v4.438H93.726V9.49h2.769l.088.879a2.742,2.742,0,0,1,2.241-1.055,3.224,3.224,0,0,1,2.733,1.3,5.805,5.805,0,0,1,.976,3.564Zm-2.962-.185q0-2.531-1.477-2.531a1.394,1.394,0,0,0-1.406.756V16.1a1.439,1.439,0,0,0,1.424.791q1.415,0,1.459-2.443Zm10.02-1.96-.976-.07a1.752,1.752,0,0,0-1.793.879V19h-2.962V9.49h2.777l.1,1.222a2.294,2.294,0,0,1,2.083-1.4,2.888,2.888,0,0,1,.826.105ZM113.782,19h-2.971V9.49h2.971ZM110.636,7.038A1.322,1.322,0,0,1,111.093,6a1.943,1.943,0,0,1,2.373,0,1.322,1.322,0,0,1,.457,1.037,1.322,1.322,0,0,1-.457,1.037,1.943,1.943,0,0,1-2.373,0A1.322,1.322,0,0,1,110.636,7.038Zm7.77,2.452.1,1.116a3.27,3.27,0,0,1,2.716-1.292,2.407,2.407,0,0,1,2.435,1.433,3.165,3.165,0,0,1,2.795-1.433q2.892,0,2.971,3.5V19h-2.971V13a1.813,1.813,0,0,0-.246-1.063,1.048,1.048,0,0,0-.9-.334,1.4,1.4,0,0,0-1.31.782L124,12.5V19h-2.971V13.015a1.906,1.906,0,0,0-.237-1.081,1.045,1.045,0,0,0-.905-.334,1.42,1.42,0,0,0-1.3.782V19h-2.962V9.49ZM136.467,19a3.344,3.344,0,0,1-.281-.853,2.754,2.754,0,0,1-2.285,1.028,3.374,3.374,0,0,1-2.285-.813,2.588,2.588,0,0,1-.94-2.043,2.66,2.66,0,0,1,1.143-2.338,5.821,5.821,0,0,1,3.322-.791h.914v-.5q0-1.316-1.134-1.316a.927.927,0,0,0-1.055,1.042H130.9a2.655,2.655,0,0,1,1.173-2.239,4.931,4.931,0,0,1,2.993-.86,4.323,4.323,0,0,1,2.874.888,3.086,3.086,0,0,1,1.081,2.435v4.21a4.311,4.311,0,0,0,.4,2V19Zm-1.854-1.934a1.652,1.652,0,0,0,.918-.237,1.487,1.487,0,0,0,.523-.536V14.772h-.861q-1.547,0-1.547,1.389a.848.848,0,0,0,.272.655A.986.986,0,0,0,134.612,17.066Zm11.03-.738a.684.684,0,0,0-.4-.606,6.016,6.016,0,0,0-1.5-.475,6.853,6.853,0,0,1-1.828-.646,3.062,3.062,0,0,1-1.1-.971,2.319,2.319,0,0,1-.378-1.31,2.628,2.628,0,0,1,1.081-2.158,4.453,4.453,0,0,1,2.83-.848,4.934,4.934,0,0,1,3.023.853,2.666,2.666,0,0,1,1.143,2.241h-2.971q0-1.143-1.2-1.143a1.194,1.194,0,0,0-.782.259.8.8,0,0,0-.316.646.737.737,0,0,0,.387.642,3.654,3.654,0,0,0,1.235.4,10.671,10.671,0,0,1,1.49.378A2.706,2.706,0,0,1,148.5,16.24a2.491,2.491,0,0,1-1.156,2.118,5.068,5.068,0,0,1-2.993.817,5.172,5.172,0,0,1-2.18-.439,3.645,3.645,0,0,1-1.494-1.2,2.707,2.707,0,0,1-.536-1.591h2.769a1.145,1.145,0,0,0,.439.962,1.808,1.808,0,0,0,1.081.3,1.422,1.422,0,0,0,.91-.246A.787.787,0,0,0,145.643,16.328Zm8.35-2.153a5.809,5.809,0,0,1,.976-3.56,3.211,3.211,0,0,1,2.725-1.3,2.731,2.731,0,0,1,2.145,1V5.5h2.971V19h-2.663L160,17.98a2.8,2.8,0,0,1-2.32,1.2,3.205,3.205,0,0,1-2.689-1.3A5.993,5.993,0,0,1,153.992,14.175Zm2.962.185q0,2.531,1.477,2.531a1.458,1.458,0,0,0,1.406-.826V12.443a1.419,1.419,0,0,0-1.389-.844q-1.371,0-1.485,2.215Zm12.138,4.816a4.889,4.889,0,0,1-3.542-1.305,4.507,4.507,0,0,1-1.354-3.4v-.246a5.84,5.84,0,0,1,.541-2.575,3.955,3.955,0,0,1,1.578-1.727,4.763,4.763,0,0,1,2.461-.611,4.117,4.117,0,0,1,3.164,1.244,4.887,4.887,0,0,1,1.16,3.467v1.151h-5.889a2.135,2.135,0,0,0,.694,1.257,2.066,2.066,0,0,0,1.389.457,2.662,2.662,0,0,0,2.2-.984l1.354,1.6a3.784,3.784,0,0,1-1.569,1.217A5.3,5.3,0,0,1,169.092,19.176Zm-.334-7.576q-1.3,0-1.547,1.723H170.2v-.229a1.467,1.467,0,0,0-.36-1.1A1.434,1.434,0,0,0,168.758,11.6ZM37.159,39.157a5.613,5.613,0,0,1,.554-2.536A3.96,3.96,0,0,1,39.3,34.912a4.791,4.791,0,0,1,2.435-.6A4.373,4.373,0,0,1,45.1,35.637a5.076,5.076,0,0,1,1.23,3.6v.105A4.925,4.925,0,0,1,45.1,42.871a4.384,4.384,0,0,1-3.344,1.305A4.434,4.434,0,0,1,38.5,42.958a4.761,4.761,0,0,1-1.327-3.3Zm2.962.185a3.538,3.538,0,0,0,.413,1.934,1.376,1.376,0,0,0,1.222.615q1.582,0,1.617-2.435v-.3q0-2.558-1.635-2.558-1.485,0-1.608,2.206Zm13.271-2.171-.976-.07a1.752,1.752,0,0,0-1.793.879V44H47.662V34.49h2.777l.1,1.222a2.294,2.294,0,0,1,2.083-1.4,2.888,2.888,0,0,1,.826.105ZM57.585,44H54.614V34.49h2.971ZM54.438,32.038A1.322,1.322,0,0,1,54.9,31a1.943,1.943,0,0,1,2.373,0,1.405,1.405,0,0,1,0,2.074,1.943,1.943,0,0,1-2.373,0A1.322,1.322,0,0,1,54.438,32.038Zm4.623,7.137a6.421,6.421,0,0,1,.475-2.549A3.821,3.821,0,0,1,60.9,34.917a3.591,3.591,0,0,1,2.065-.6,2.855,2.855,0,0,1,2.32,1l.105-.826h2.689V43.64a4.009,4.009,0,0,1-.584,2.184A3.75,3.75,0,0,1,65.8,47.248a6.219,6.219,0,0,1-2.566.5,5.365,5.365,0,0,1-2.026-.4,3.657,3.657,0,0,1-1.5-1.028l1.239-1.74a2.716,2.716,0,0,0,2.18.976A1.764,1.764,0,0,0,65.1,43.534v-.3a2.781,2.781,0,0,1-2.153.94,3.437,3.437,0,0,1-2.812-1.332,5.517,5.517,0,0,1-1.072-3.564Zm2.971.185a3.383,3.383,0,0,0,.439,1.85,1.387,1.387,0,0,0,1.23.681,1.573,1.573,0,0,0,1.4-.642v-4a1.534,1.534,0,0,0-1.38-.65,1.4,1.4,0,0,0-1.239.708A3.858,3.858,0,0,0,62.032,39.359Zm12.331,4.816a4.889,4.889,0,0,1-3.542-1.305,4.507,4.507,0,0,1-1.354-3.4v-.246a5.84,5.84,0,0,1,.541-2.575,3.955,3.955,0,0,1,1.578-1.727,4.763,4.763,0,0,1,2.461-.611,4.117,4.117,0,0,1,3.164,1.244,4.887,4.887,0,0,1,1.16,3.467v1.151H72.482a2.135,2.135,0,0,0,.694,1.257,2.066,2.066,0,0,0,1.389.457,2.662,2.662,0,0,0,2.2-.984l1.354,1.6a3.784,3.784,0,0,1-1.569,1.217A5.3,5.3,0,0,1,74.363,44.176ZM74.029,36.6q-1.3,0-1.547,1.723h2.988v-.229a1.467,1.467,0,0,0-.36-1.1A1.434,1.434,0,0,0,74.029,36.6Zm8.253-2.109.1,1.116a3.225,3.225,0,0,1,2.716-1.292,2.713,2.713,0,0,1,2.219.888,4.226,4.226,0,0,1,.76,2.672V44H85.1V38a1.6,1.6,0,0,0-.29-1.059,1.342,1.342,0,0,0-1.055-.338,1.413,1.413,0,0,0-1.292.686V44H79.5V34.49Zm15.706,5.985,1.5-5.985h3.12L99.509,44H96.485l-3.1-9.51h3.129Zm10.107,3.7a4.889,4.889,0,0,1-3.542-1.305,4.507,4.507,0,0,1-1.354-3.4v-.246a5.84,5.84,0,0,1,.541-2.575,3.955,3.955,0,0,1,1.578-1.727,4.763,4.763,0,0,1,2.461-.611,4.117,4.117,0,0,1,3.164,1.244,4.887,4.887,0,0,1,1.16,3.467v1.151h-5.889a2.135,2.135,0,0,0,.694,1.257,2.066,2.066,0,0,0,1.389.457,2.662,2.662,0,0,0,2.2-.984l1.354,1.6a3.784,3.784,0,0,1-1.569,1.217A5.3,5.3,0,0,1,108.1,44.176Zm-.334-7.576q-1.3,0-1.547,1.723H109.2v-.229a1.467,1.467,0,0,0-.36-1.1A1.434,1.434,0,0,0,107.762,36.6Zm5.186,2.575a6.421,6.421,0,0,1,.475-2.549,3.821,3.821,0,0,1,1.362-1.709,3.591,3.591,0,0,1,2.065-.6,2.855,2.855,0,0,1,2.32,1l.105-.826h2.689V43.64a4.009,4.009,0,0,1-.584,2.184,3.75,3.75,0,0,1-1.692,1.424,6.219,6.219,0,0,1-2.566.5,5.365,5.365,0,0,1-2.026-.4,3.657,3.657,0,0,1-1.5-1.028l1.239-1.74a2.716,2.716,0,0,0,2.18.976,1.764,1.764,0,0,0,1.969-2.021v-.3a2.781,2.781,0,0,1-2.153.94,3.437,3.437,0,0,1-2.812-1.332,5.517,5.517,0,0,1-1.072-3.564Zm2.971.185a3.383,3.383,0,0,0,.439,1.85,1.387,1.387,0,0,0,1.23.681,1.573,1.573,0,0,0,1.4-.642v-4a1.534,1.534,0,0,0-1.38-.65,1.4,1.4,0,0,0-1.239.708A3.858,3.858,0,0,0,115.918,39.359Zm12.331,4.816a4.889,4.889,0,0,1-3.542-1.305,4.507,4.507,0,0,1-1.354-3.4v-.246a5.84,5.84,0,0,1,.541-2.575,3.955,3.955,0,0,1,1.578-1.727,4.763,4.763,0,0,1,2.461-.611,4.117,4.117,0,0,1,3.164,1.244,4.887,4.887,0,0,1,1.16,3.467v1.151h-5.889a2.135,2.135,0,0,0,.694,1.257,2.066,2.066,0,0,0,1.389.457,2.662,2.662,0,0,0,2.2-.984l1.354,1.6a3.784,3.784,0,0,1-1.569,1.217A5.3,5.3,0,0,1,128.249,44.176Zm-.334-7.576q-1.3,0-1.547,1.723h2.988v-.229a1.467,1.467,0,0,0-.36-1.1A1.434,1.434,0,0,0,127.915,36.6Zm8.982-4.474V34.49h1.564v2.057H136.9V40.9a1.111,1.111,0,0,0,.193.747,1.037,1.037,0,0,0,.765.211,4.345,4.345,0,0,0,.738-.053v2.118a5.466,5.466,0,0,1-1.67.255,3.1,3.1,0,0,1-2.259-.721,2.954,2.954,0,0,1-.729-2.188v-4.72h-1.213V34.49h1.213V32.126ZM144.983,44a3.344,3.344,0,0,1-.281-.853,2.754,2.754,0,0,1-2.285,1.028,3.374,3.374,0,0,1-2.285-.813,2.588,2.588,0,0,1-.94-2.043,2.66,2.66,0,0,1,1.143-2.338,5.821,5.821,0,0,1,3.322-.791h.914v-.5q0-1.316-1.134-1.316a.927.927,0,0,0-1.055,1.042H139.42a2.655,2.655,0,0,1,1.173-2.239,4.931,4.931,0,0,1,2.993-.86,4.323,4.323,0,0,1,2.874.888,3.086,3.086,0,0,1,1.081,2.435v4.21a4.311,4.311,0,0,0,.4,2V44Zm-1.854-1.934a1.652,1.652,0,0,0,.918-.237,1.487,1.487,0,0,0,.523-.536V39.772h-.861q-1.547,0-1.547,1.389a.848.848,0,0,0,.272.655A.986.986,0,0,0,143.129,42.066ZM152.3,44h-2.971V30.5H152.3Z" transform="translate(285 1190)" fill="#12263f"/>
        <g id="Grupo_55658" data-name="Grupo 55658" transform="translate(-446 -81)">
          <g id="Grupo_55662" data-name="Grupo 55662" transform="translate(766 1122)">
            <ellipse id="Elipse_4052" data-name="Elipse 4052" cx="60" cy="60" rx="60" ry="60" transform="translate(0 0)" fill="#ff8a5b"/>
            <g id="Grupo_55661" data-name="Grupo 55661" transform="translate(31.87 29.901)">
              <path id="Trazado_105718" data-name="Trazado 105718" d="M137.925,193.363l-2.493-4.421a19.408,19.408,0,0,0-20.884-9.46l-1.206.253a.384.384,0,0,0-.038.741l.541.173a34.091,34.091,0,0,1,17.679,13.117l6.4,9.284Z" transform="translate(-110.875 -176.372)" fill="#75c677"/>
              <path id="Trazado_105719" data-name="Trazado 105719" d="M140.085,193.363l2.493-4.421a19.408,19.408,0,0,1,20.884-9.46l1.206.253a.384.384,0,0,1,.038.741l-.541.173a34.089,34.089,0,0,0-17.678,13.117l-6.4,9.284Z" transform="translate(-110.875 -176.372)" fill="#75c677"/>
              <g id="Grupo_55658-2" data-name="Grupo 55658" transform="translate(0.492 11.675)">
                <path id="Trazado_105720" data-name="Trazado 105720" d="M135.59,204.012l-2.463-5.119c-4.1-8.532-13.018-12.568-20.238-10.155l-1.26.421a.384.384,0,0,0-.012.724l.718.265c6.484,2.4,12.252,7.587,16.4,14.741l6.2,10.7Z" transform="translate(-111.367 -188.047)" fill="#80d686"/>
              </g>
              <path id="Trazado_105721" data-name="Trazado 105721" d="M137.973,198.286l-3.422-2.913c-5.7-4.854-14.626-2.286-20.976,1.684l-.784.491a.383.383,0,0,0,.219.708l.336-.014c6.67-.284,13.977-1.518,19.43,2.334l8.155,5.76Z" transform="translate(-110.875 -176.372)" fill="#64bf6e"/>
              <g id="Grupo_55659" data-name="Grupo 55659" transform="translate(31.546 11.675)">
                <path id="Trazado_105722" data-name="Trazado 105722" d="M142.421,204.012l2.462-5.119c4.105-8.532,13.018-12.568,20.238-10.155l1.26.421a.384.384,0,0,1,.012.724l-.718.265c-6.484,2.4-12.251,7.587-16.4,14.741l-6.2,10.7Z" transform="translate(-142.421 -188.047)" fill="#75c677"/>
              </g>
              <path id="Trazado_105723" data-name="Trazado 105723" d="M140.037,198.408l3.423-2.913c5.7-4.854,14.625-2.286,20.975,1.684l.785.491a.383.383,0,0,1-.22.708l-.336-.014c-6.67-.285-13.977-1.518-19.43,2.333l-8.155,5.761Z" transform="translate(-110.875 -176.372)" fill="#64bf6e"/>
              <path id="Trazado_105724" data-name="Trazado 105724" d="M138.626,176.7c-1.876,11.945-3.179,23-2.791,31.429h6.34c.388-8.429-.915-19.484-2.79-31.429a.384.384,0,0,0-.759,0Z" transform="translate(-110.875 -176.372)" fill="#64bf6e"/>
              <path id="Trazado_105725" data-name="Trazado 105725" d="M129.867,212l-5.019-1.094-2.659-7.557a1.178,1.178,0,0,1,1.362-1.542l2.956.644Z" transform="translate(-110.875 -176.372)" fill="#478e4c"/>
              <path id="Trazado_105726" data-name="Trazado 105726" d="M148.143,212l5.02-1.094,2.658-7.557a1.178,1.178,0,0,0-1.362-1.542l-2.956.644Z" transform="translate(-110.875 -176.372)" fill="#478e4c"/>
              <path id="Trazado_105727" data-name="Trazado 105727" d="M120.82,201.606c-2.388.98-10.34,5.085-9.93,16.166a.3.3,0,0,0,.583.109c1.361-3.1,5.7-11.275,15.034-15.43l-4.4-.958A2.178,2.178,0,0,0,120.82,201.606Z" transform="translate(-110.875 -176.372)" fill="#80d686"/>
              <path id="Trazado_105728" data-name="Trazado 105728" d="M157.19,201.606c2.388.98,10.34,5.085,9.93,16.166a.3.3,0,0,1-.583.109c-1.361-3.1-5.7-11.275-15.034-15.43l4.4-.958A2.178,2.178,0,0,1,157.19,201.606Z" transform="translate(-110.875 -176.372)" fill="#80d686"/>
              <path id="Trazado_105729" data-name="Trazado 105729" d="M127.042,231.093c-7.058-5.224-8.889-11.62-7.127-20.435A3.149,3.149,0,0,1,123,208.126h32.006a3.149,3.149,0,0,1,3.087,2.532c1.762,8.815-.069,15.211-7.126,20.435l-2.259,2.55-18.843-.664Z" transform="translate(-110.875 -176.372)" fill="#c6865c"/>
              <path id="Trazado_105730" data-name="Trazado 105730" d="M155.008,208.126h-.927c2.644,10.144,1.175,17.256-6.541,22.967h3.429c7.057-5.224,8.888-11.62,7.126-20.435a3.149,3.149,0,0,0-3.087-2.532Z" transform="translate(-110.875 -176.372)" fill="#c17d4f"/>
              <path id="Trazado_105731" data-name="Trazado 105731" d="M140,208.126h-5.137l-3.484-4.708a1.178,1.178,0,0,1,.947-1.879h2.8Z" transform="translate(-110.875 -176.372)" fill="#478e4c"/>
              <path id="Trazado_105732" data-name="Trazado 105732" d="M138.011,208.126h5.137l3.484-4.708a1.178,1.178,0,0,0-.947-1.879h-2.8Z" transform="translate(-110.875 -176.372)" fill="#478e4c"/>
              <g id="Grupo_55660" data-name="Grupo 55660" transform="translate(11.612 25.167)">
                <path id="Trazado_105733" data-name="Trazado 105733" d="M130.625,201.539a2.177,2.177,0,0,0-1.237.384c-2.124,1.466-9.019,7.171-6.259,17.91a.3.3,0,0,0,.592-.017c.67-3.319,3.168-12.23,11.4-18.277Z" transform="translate(-122.486 -201.539)" fill="#80d686"/>
                <path id="Trazado_105734" data-name="Trazado 105734" d="M147.385,201.539a2.177,2.177,0,0,1,1.237.384c2.125,1.466,9.02,7.171,6.259,17.91a.3.3,0,0,1-.592-.017c-.67-3.319-3.168-12.23-11.4-18.277Z" transform="translate(-122.486 -201.539)" fill="#80d686"/>
              </g>
              <path id="Trazado_105735" data-name="Trazado 105735" d="M122.205,232.514a4.67,4.67,0,0,1-.218-.675.615.615,0,0,1,.6-.762h32.842a.616.616,0,0,1,.6.762,4.8,4.8,0,0,1-.219.675,3.88,3.88,0,0,1-3.6,2.367H125.81a3.88,3.88,0,0,1-3.6-2.367Z" transform="translate(-110.875 -176.372)" fill="#9d6b6b"/>
              <path id="Trazado_105736" data-name="Trazado 105736" d="M155.426,231.077h-2.889a.616.616,0,0,1,.6.762,4.8,4.8,0,0,1-.219.675,3.88,3.88,0,0,1-3.6,2.367H152.2a3.88,3.88,0,0,0,3.6-2.367,4.8,4.8,0,0,0,.219-.675.616.616,0,0,0-.6-.762Z" transform="translate(-110.875 -176.372)" fill="#8b5e5e"/>
            </g>
          </g>
        </g>
        <g id="Enmascarar_grupo_53" data-name="Enmascarar grupo 53" transform="translate(180 953.227)" clip-path="url(#clip-path)">
          <ellipse id="Elipse_4721" data-name="Elipse 4721" cx="514.221" cy="514.221" rx="514.221" ry="514.221" transform="translate(338 -142.743)" fill="#9f0925" opacity="0.08"/>
          <path id="Trazado_113936" data-name="Trazado 113936" d="M514.221,0c284,0,514.221,230.224,514.221,514.221s-230.224,514.221-514.221,514.221S0,798.22,0,514.221,230.224,0,514.221,0Z" transform="translate(-270.401 -966.752)" fill="#9f0925" opacity="0.08"/>
          <path id="Trazado_113609" data-name="Trazado 113609" d="M315.819,66.4a34.872,34.872,0,0,0,3.738-33.122A34.871,34.871,0,0,0,293.335,12.7c-14.107-2.226-28.05,4.481-40.03,12.251s-23.487,16.974-37.267,20.729c-13.129,3.577-27.191,1.825-40.254-1.985s-25.447-9.609-38.221-14.3c-20.941-7.684-44.1-12.349-65.483-5.992S32.221,49.84,33.845,72.087c.679,9.286,4.62,17.971,8.115,26.608s6.633,17.812,5.6,27.068-7.4,18.54-16.6,20.006c-7.376,1.176-14.848-2.938-19.458-8.817s-6.82-13.265-8.373-20.57A149.57,149.57,0,0,1,27.3,0" transform="translate(397.996 14.449) rotate(56.993)" fill="none" stroke="#9f0925" stroke-miterlimit="10" stroke-width="1.701"/>
          <g id="Grupo_57514" data-name="Grupo 57514">
            <path id="Trazado_113693" data-name="Trazado 113693" d="M557.317,117.182a61.538,61.538,0,0,0,6.6-58.45,61.537,61.537,0,0,0-46.272-36.314C492.75,18.49,468.143,30.324,447,44.039s-41.447,29.954-65.763,36.579c-23.168,6.313-47.983,3.221-71.035-3.5S265.293,60.161,242.751,51.89C205.8,38.33,164.925,30.1,127.2,41.317s-70.339,46.639-67.471,85.9c1.2,16.391,8.153,31.713,14.314,46.949s11.71,31.432,9.89,47.766-13.065,32.717-29.294,35.3c-13.017,2.076-26.2-5.185-34.337-15.555s-12.035-23.409-14.776-36.3C-9.443,134.988,6.418,58.6,48.179,0" transform="translate(183.884 480.168) rotate(-123.007)" fill="none" stroke="#4d342c" stroke-miterlimit="10" stroke-width="1.701" stroke-dasharray="3"/>
          </g>
          <path id="Trazado_113929" data-name="Trazado 113929" d="M83.016,0A83.016,83.016,0,1,1,0,83.016,83.016,83.016,0,0,1,83.016,0Z" transform="translate(-68.465 241.278)" fill="#9f0925"/>
          <g id="Grupo_80251" data-name="Grupo 80251" transform="translate(-35.148 268.061)">
            <g id="Grupo_80251-2" data-name="Grupo 80251" transform="translate(0 0)" clip-path="url(#clip-path-2)">
              <rect id="Rectángulo_33802" data-name="Rectángulo 33802" width="123.381" height="0.681" transform="translate(36.625 123.866) rotate(-45)" fill="#ff8a5b"/>
              <rect id="Rectángulo_33803" data-name="Rectángulo 33803" width="123.381" height="0.681" transform="translate(31.642 118.883) rotate(-45)" fill="#ff8a5b"/>
              <rect id="Rectángulo_33804" data-name="Rectángulo 33804" width="123.381" height="0.681" transform="translate(26.66 113.902) rotate(-45)" fill="#ff8a5b"/>
              <rect id="Rectángulo_33805" data-name="Rectángulo 33805" width="123.381" height="0.681" transform="translate(21.678 108.919) rotate(-45)" fill="#ff8a5b"/>
              <rect id="Rectángulo_33806" data-name="Rectángulo 33806" width="123.381" height="0.681" transform="translate(16.696 103.938) rotate(-45)" fill="#ff8a5b"/>
              <path id="Trazado_113843" data-name="Trazado 113843" d="M127.645,40.4,40.4,127.641l-.481-.482,87.242-87.242Z" transform="translate(-28.206 -28.207)" fill="#ff8a5b"/>
              <rect id="Rectángulo_33807" data-name="Rectángulo 33807" width="123.381" height="0.681" transform="translate(6.731 93.972) rotate(-45)" fill="#ff8a5b"/>
              <rect id="Rectángulo_33808" data-name="Rectángulo 33808" width="123.381" height="0.681" transform="translate(1.749 88.991) rotate(-45)" fill="#ff8a5b"/>
              <rect id="Rectángulo_33809" data-name="Rectángulo 33809" width="123.381" height="0.681" transform="translate(-3.233 84.008) rotate(-45)" fill="#ff8a5b"/>
              <rect id="Rectángulo_33810" data-name="Rectángulo 33810" width="123.381" height="0.681" transform="translate(-8.216 79.025) rotate(-45)" fill="#ff8a5b"/>
              <rect id="Rectángulo_33811" data-name="Rectángulo 33811" width="123.381" height="0.681" transform="translate(-13.198 74.044) rotate(-45)" fill="#ff8a5b"/>
              <rect id="Rectángulo_33812" data-name="Rectángulo 33812" width="123.381" height="0.681" transform="translate(-18.18 69.061) rotate(-45)" fill="#ff8a5b"/>
              <rect id="Rectángulo_33813" data-name="Rectángulo 33813" width="123.381" height="0.681" transform="translate(-23.162 64.079) rotate(-45)" fill="#ff8a5b"/>
              <rect id="Rectángulo_33814" data-name="Rectángulo 33814" width="123.381" height="0.681" transform="translate(-28.144 59.097) rotate(-45)" fill="#ff8a5b"/>
            </g>
          </g>
        </g>
      </g>
    </g>
  </g>
</svg>
