<svg id="Grupo_57327" data-name="Grupo 57327" xmlns="http://www.w3.org/2000/svg" xmlns:xlink="http://www.w3.org/1999/xlink" width="161.754" height="171.722" viewBox="0 0 161.754 171.722">
  <defs>
    <clipPath id="clip-path">
      <rect id="Rectángulo_6388" data-name="Rectángulo 6388" width="161.754" height="171.722" fill="none"/>
    </clipPath>
    <clipPath id="clip-path-3">
      <rect id="Rectángulo_6356" data-name="Rectángulo 6356" width="11.589" height="10.193" transform="translate(15 123.167)" fill="none"/>
    </clipPath>
    <clipPath id="clip-path-4">
      <rect id="Rectángulo_6357" data-name="Rectángulo 6357" width="11.59" height="10.193" transform="translate(3.41 123.167)" fill="none"/>
    </clipPath>
    <clipPath id="clip-path-6">
      <rect id="Rectángulo_6359" data-name="Rectángulo 6359" width="11.59" height="10.193" transform="translate(3.41 129.859)" fill="none"/>
    </clipPath>
    <clipPath id="clip-path-7">
      <rect id="Rectángulo_6360" data-name="Rectángulo 6360" width="11.589" height="10.193" transform="translate(15 129.859)" fill="none"/>
    </clipPath>
    <clipPath id="clip-path-8">
      <rect id="Rectángulo_6361" data-name="Rectángulo 6361" width="6.13" height="28.174" transform="translate(97.383)" fill="none"/>
    </clipPath>
    <clipPath id="clip-path-9">
      <rect id="Rectángulo_6362" data-name="Rectángulo 6362" width="9.395" height="5.919" transform="translate(97.383 27.775)" fill="none"/>
    </clipPath>
    <clipPath id="clip-path-11">
      <rect id="Rectángulo_6364" data-name="Rectángulo 6364" width="5.129" height="2.961" transform="translate(102.822)" fill="none"/>
    </clipPath>
    <clipPath id="clip-path-14">
      <rect id="Rectángulo_6367" data-name="Rectángulo 6367" width="64.194" height="37.063" transform="translate(41.999 58.567)" fill="none"/>
    </clipPath>
    <clipPath id="clip-path-15">
      <rect id="Rectángulo_6368" data-name="Rectángulo 6368" width="64.195" height="37.063" transform="translate(48.944 67.065)" fill="none"/>
    </clipPath>
    <clipPath id="clip-path-16">
      <rect id="Rectángulo_6369" data-name="Rectángulo 6369" width="5.882" height="7.595" transform="translate(43.255 61.835)" fill="none"/>
    </clipPath>
    <clipPath id="clip-path-17">
      <rect id="Rectángulo_6370" data-name="Rectángulo 6370" width="11.294" height="19.496" transform="translate(46.196 52.635)" fill="none"/>
    </clipPath>
    <clipPath id="clip-path-18">
      <rect id="Rectángulo_6371" data-name="Rectángulo 6371" width="60.732" height="37.78" transform="translate(45.245 3.019)" fill="none"/>
    </clipPath>
    <clipPath id="clip-path-19">
      <rect id="Rectángulo_6372" data-name="Rectángulo 6372" width="3.55" height="4.584" transform="translate(44.725 36.334)" fill="none"/>
    </clipPath>
    <clipPath id="clip-path-20">
      <rect id="Rectángulo_6373" data-name="Rectángulo 6373" width="6.13" height="28.173" transform="translate(38.735 33.861)" fill="none"/>
    </clipPath>
    <clipPath id="clip-path-21">
      <rect id="Rectángulo_6374" data-name="Rectángulo 6374" width="9.395" height="5.92" transform="translate(38.735 61.635)" fill="none"/>
    </clipPath>
    <clipPath id="clip-path-22">
      <rect id="Rectángulo_6375" data-name="Rectángulo 6375" width="5.128" height="2.961" transform="translate(44.174 33.861)" fill="none"/>
    </clipPath>
    <clipPath id="clip-path-24">
      <rect id="Rectángulo_6377" data-name="Rectángulo 6377" width="61.221" height="39.847" transform="translate(48.783 78.395)" fill="none"/>
    </clipPath>
    <clipPath id="clip-path-25">
      <rect id="Rectángulo_6378" data-name="Rectángulo 6378" width="5.882" height="7.595" transform="translate(47.921 110.843)" fill="none"/>
    </clipPath>
    <clipPath id="clip-path-27">
      <rect id="Rectángulo_6380" data-name="Rectángulo 6380" width="61.22" height="39.847" transform="translate(53.803 87.598)" fill="none"/>
    </clipPath>
    <clipPath id="clip-path-28">
      <rect id="Rectángulo_6381" data-name="Rectángulo 6381" width="5.882" height="7.595" transform="translate(52.941 120.045)" fill="none"/>
    </clipPath>
    <clipPath id="clip-path-30">
      <rect id="Rectángulo_6383" data-name="Rectángulo 6383" width="14.274" height="19.658" transform="translate(19.452 108.172)" fill="none"/>
    </clipPath>
    <clipPath id="clip-path-31">
      <rect id="Rectángulo_6384" data-name="Rectángulo 6384" width="6.543" height="8.198" transform="translate(75.014 157.533)" fill="none"/>
    </clipPath>
    <clipPath id="clip-path-32">
      <path id="Trazado_108907" data-name="Trazado 108907" d="M135.266,117.949,79.065,150.4a2.067,2.067,0,0,1,2.079.207,6.5,6.5,0,0,1,2.941,5.093,2.065,2.065,0,0,1-.862,1.9l56.2-32.448a2.064,2.064,0,0,0,.862-1.9,6.5,6.5,0,0,0-2.941-5.094,2.662,2.662,0,0,0-1.313-.4,1.51,1.51,0,0,0-.766.2" fill="none"/>
    </clipPath>
    <clipPath id="clip-path-34">
      <rect id="Rectángulo_6386" data-name="Rectángulo 6386" width="5.882" height="7.595" transform="translate(78.203 150.201)" fill="none"/>
    </clipPath>
  </defs>
  <g id="Grupo_57326" data-name="Grupo 57326" clip-path="url(#clip-path)">
    <rect id="Rectángulo_6354" data-name="Rectángulo 6354" width="0.283" height="30.267" transform="matrix(0.375, -0.927, 0.927, 0.375, 10.122, 71.619)" fill="#fba348"/>
    <rect id="Rectángulo_6355" data-name="Rectángulo 6355" width="0.283" height="21.638" transform="matrix(0.581, -0.814, 0.814, 0.581, 24.305, 79.534)" fill="#ffc126"/>
    <g id="Grupo_57240" data-name="Grupo 57240">
      <g id="Grupo_57239" data-name="Grupo 57239" clip-path="url(#clip-path)">
        <g id="Grupo_57235" data-name="Grupo 57235" opacity="0.36">
          <g id="Grupo_57234" data-name="Grupo 57234">
            <g id="Grupo_57233" data-name="Grupo 57233" clip-path="url(#clip-path-3)">
              <path id="Trazado_108746" data-name="Trazado 108746" d="M26.589,129.859,15,123.168v3.5l11.589,6.691Z" fill="#dff"/>
            </g>
          </g>
        </g>
        <g id="Grupo_57238" data-name="Grupo 57238" opacity="0.36">
          <g id="Grupo_57237" data-name="Grupo 57237">
            <g id="Grupo_57236" data-name="Grupo 57236" clip-path="url(#clip-path-4)">
              <path id="Trazado_108747" data-name="Trazado 108747" d="M15,123.167,3.41,129.858v3.5L15,126.669Z" fill="#dff"/>
            </g>
          </g>
        </g>
      </g>
    </g>
    <path id="Trazado_108748" data-name="Trazado 108748" d="M3.41,129.859,15,136.549v3.5L3.41,133.361Z" fill="#357b77"/>
    <path id="Trazado_108749" data-name="Trazado 108749" d="M15,136.55l11.589-6.691v3.5L15,140.052Z" fill="#347a76"/>
    <path id="Trazado_108750" data-name="Trazado 108750" d="M3.41,129.859,15,123.168l11.589,6.691L15,136.549Z" fill="#d7ffff"/>
    <g id="Grupo_57254" data-name="Grupo 57254">
      <g id="Grupo_57253" data-name="Grupo 57253" clip-path="url(#clip-path)">
        <g id="Grupo_57243" data-name="Grupo 57243" opacity="0.36">
          <g id="Grupo_57242" data-name="Grupo 57242">
            <g id="Grupo_57241" data-name="Grupo 57241" clip-path="url(#clip-path-6)">
              <path id="Trazado_108751" data-name="Trazado 108751" d="M3.41,129.859,15,136.549v3.5L3.41,133.361Z" fill="#dff"/>
            </g>
          </g>
        </g>
        <g id="Grupo_57246" data-name="Grupo 57246" opacity="0.36">
          <g id="Grupo_57245" data-name="Grupo 57245">
            <g id="Grupo_57244" data-name="Grupo 57244" clip-path="url(#clip-path-7)">
              <path id="Trazado_108752" data-name="Trazado 108752" d="M15,136.55l11.589-6.691v3.5L15,140.052Z" fill="#dff"/>
            </g>
          </g>
        </g>
        <g id="Grupo_57249" data-name="Grupo 57249" opacity="0.36">
          <g id="Grupo_57248" data-name="Grupo 57248">
            <g id="Grupo_57247" data-name="Grupo 57247" clip-path="url(#clip-path-8)">
              <path id="Trazado_108753" data-name="Trazado 108753" d="M102.822.4,97.383,28.173l.691-.4L103.513,0Z" fill="#dff"/>
            </g>
          </g>
        </g>
        <g id="Grupo_57252" data-name="Grupo 57252" opacity="0.36">
          <g id="Grupo_57251" data-name="Grupo 57251">
            <g id="Grupo_57250" data-name="Grupo 57250" clip-path="url(#clip-path-9)">
              <path id="Trazado_108754" data-name="Trazado 108754" d="M97.383,28.174l8.7,5.521.691-.4-8.7-5.521Z" fill="#dff"/>
            </g>
          </g>
        </g>
      </g>
    </g>
    <path id="Trazado_108755" data-name="Trazado 108755" d="M106.087,33.694l1.172-30.733.691-.4L106.778,33.3Z" fill="#c9ffff"/>
    <g id="Grupo_57259" data-name="Grupo 57259">
      <g id="Grupo_57258" data-name="Grupo 57258" clip-path="url(#clip-path)">
        <g id="Grupo_57257" data-name="Grupo 57257" opacity="0.36">
          <g id="Grupo_57256" data-name="Grupo 57256">
            <g id="Grupo_57255" data-name="Grupo 57255" clip-path="url(#clip-path-11)">
              <path id="Trazado_108756" data-name="Trazado 108756" d="M107.259,2.961,102.822.4l.691-.4,4.437,2.562Z" fill="#dff"/>
            </g>
          </g>
        </g>
      </g>
    </g>
    <path id="Trazado_108757" data-name="Trazado 108757" d="M97.384,28.174l8.7,5.521L107.26,2.961,102.823.4Z" fill="#d3ffff"/>
    <path id="Trazado_108758" data-name="Trazado 108758" d="M106.087,33.694l1.172-30.733.691-.4L106.778,33.3Z" fill="#c9ffff"/>
    <g id="Grupo_57318" data-name="Grupo 57318">
      <g id="Grupo_57317" data-name="Grupo 57317" clip-path="url(#clip-path)">
        <g id="Grupo_57262" data-name="Grupo 57262" opacity="0.36">
          <g id="Grupo_57261" data-name="Grupo 57261">
            <g id="Grupo_57260" data-name="Grupo 57260" clip-path="url(#clip-path-11)">
              <path id="Trazado_108759" data-name="Trazado 108759" d="M107.259,2.961,102.822.4l.691-.4,4.437,2.562Z" fill="#dff"/>
            </g>
          </g>
        </g>
        <path id="Trazado_108760" data-name="Trazado 108760" d="M112.8,77.716s-.181-3.365,0-10.97,1.385-37.831-8.411-42.59c-2.277-1.106-4.115-1.067-5.539-.245l1.3-.748c1.424-.822,3.262-.862,5.539.244,9.8,4.76,8.592,34.984,8.411,42.59s0,10.97,0,10.97Z" fill="#5f6161"/>
        <path id="Trazado_108761" data-name="Trazado 108761" d="M112.8,77.716s-.181-3.365,0-10.97,1.385-37.831-8.411-42.59c-2.277-1.106-4.115-1.067-5.539-.245l1.365-.787c1.424-.822,3.262-.862,5.538.244,9.8,4.76,8.593,34.984,8.412,42.59s0,10.97,0,10.97Z" fill="#aae3e9"/>
        <path id="Trazado_108762" data-name="Trazado 108762" d="M112.8,77.716l-15.4-10.4s4.476-14.072,0-22.768c-3.436-6.675-3.251-17.924,1.451-20.639,1.424-.822,3.262-.861,5.539.245,9.8,4.759,8.592,34.984,8.411,42.59s0,10.97,0,10.97" fill="#a3e4e3"/>
        <path id="Trazado_108763" data-name="Trazado 108763" d="M48.3,102.906V95.629l57.893-33.424v7.277Z" fill="#c9ffff"/>
        <g id="Grupo_57265" data-name="Grupo 57265" opacity="0.36">
          <g id="Grupo_57264" data-name="Grupo 57264">
            <g id="Grupo_57263" data-name="Grupo 57263" clip-path="url(#clip-path-14)">
              <path id="Trazado_108764" data-name="Trazado 108764" d="M48.3,95.63,42,91.992,99.892,58.567l6.3,3.639Z" fill="#dff"/>
            </g>
          </g>
        </g>
        <path id="Trazado_108765" data-name="Trazado 108765" d="M48.3,102.906,42,99.268V91.991l6.3,3.638Z" fill="#cfd2d2"/>
        <path id="Trazado_108766" data-name="Trazado 108766" d="M55.246,111.4v-7.277L113.139,70.7V77.98Z" fill="#c9ffff"/>
        <g id="Grupo_57268" data-name="Grupo 57268" opacity="0.36">
          <g id="Grupo_57267" data-name="Grupo 57267">
            <g id="Grupo_57266" data-name="Grupo 57266" clip-path="url(#clip-path-15)">
              <path id="Trazado_108767" data-name="Trazado 108767" d="M55.246,104.128l-6.3-3.638,57.893-33.425,6.3,3.639Z" fill="#dff"/>
            </g>
          </g>
        </g>
        <path id="Trazado_108768" data-name="Trazado 108768" d="M55.246,111.4l-6.3-3.638V100.49l6.3,3.638Z" fill="#b5edf1"/>
        <path id="Trazado_108769" data-name="Trazado 108769" d="M109.706,47.346c2.038-1.176,3.3-3.7,3.3-7.288,0-7.178-5.04-15.907-11.257-19.5-3.107-1.8-5.921-1.965-7.957-.79l1.685-.973c2.036-1.175,4.85-1,7.957.79,6.217,3.589,11.257,12.318,11.257,19.5,0,3.59-1.261,6.112-3.3,7.288Z" fill="#bff8fa"/>
        <path id="Trazado_108770" data-name="Trazado 108770" d="M109.706,47.346c-2.036,1.176-4.85,1.005-7.958-.789-6.216-3.589-11.256-12.318-11.256-19.5,0-3.59,1.261-6.111,3.3-7.288s4.85-1,7.957.79C107.965,24.151,113,32.88,113,40.058c0,3.59-1.261,6.112-3.3,7.288" fill="#b5edf1"/>
        <path id="Trazado_108771" data-name="Trazado 108771" d="M51.821,75.379c1.441-.832,2.332-2.614,2.332-5.152a17.588,17.588,0,0,0-7.958-13.783c-2.2-1.269-4.186-1.39-5.625-.558L96.054,23.852c1.439-.831,3.428-.711,5.625.558a17.588,17.588,0,0,1,7.958,13.783c0,2.538-.891,4.321-2.332,5.152Z" fill="#c9ffff"/>
        <path id="Trazado_108772" data-name="Trazado 108772" d="M51.821,75.379c-1.44.831-3.429.71-5.626-.558a17.587,17.587,0,0,1-7.957-13.783c0-2.538.891-4.321,2.332-5.152s3.428-.711,5.625.558a17.588,17.588,0,0,1,7.958,13.783c0,2.538-.891,4.32-2.332,5.152" fill="#aae3e9"/>
        <g id="Grupo_57271" data-name="Grupo 57271" opacity="0.36">
          <g id="Grupo_57270" data-name="Grupo 57270">
            <g id="Grupo_57269" data-name="Grupo 57269" clip-path="url(#clip-path-16)">
              <path id="Trazado_108773" data-name="Trazado 108773" d="M48.275,69.234a2.066,2.066,0,0,1-2.079-.206,6.5,6.5,0,0,1-2.941-5.094,1.793,1.793,0,0,1,2.941-1.7,6.5,6.5,0,0,1,2.941,5.094,2.067,2.067,0,0,1-.862,1.9" fill="#dff"/>
            </g>
          </g>
        </g>
        <path id="Trazado_108774" data-name="Trazado 108774" d="M54.153,79.419c2.037-1.176,3.3-3.7,3.3-7.288,0-7.178-5.039-15.907-11.256-19.5-3.107-1.794-5.921-1.965-7.957-.79l1.685-.973c2.036-1.175,4.85-1,7.957.79,6.217,3.589,11.257,12.318,11.257,19.5,0,3.59-1.261,6.112-3.3,7.288Z" fill="#bff8fa"/>
        <path id="Trazado_108775" data-name="Trazado 108775" d="M54.153,79.419c-2.036,1.176-4.85,1.005-7.958-.789-6.216-3.589-11.256-12.318-11.256-19.5,0-3.59,1.261-6.111,3.3-7.288s4.85-1,7.957.79c6.217,3.589,11.256,12.318,11.256,19.5,0,3.59-1.261,6.112-3.3,7.288" fill="#b5edf1"/>
        <path id="Trazado_108776" data-name="Trazado 108776" d="M101.748,20.561l1.173.871c.368.319.748.619,1.1.95s.712.653,1.046,1,.667.7.977,1.066a30.712,30.712,0,0,1,5.74,9.942c.163.455.288.92.434,1.38s.226.937.344,1.407.18.95.272,1.429l.168,1.45a17.133,17.133,0,0,0-.672-5.834,23.966,23.966,0,0,0-5.867-10.16,17.153,17.153,0,0,0-4.717-3.5" fill="#e0fffb"/>
        <path id="Trazado_108777" data-name="Trazado 108777" d="M46.2,52.635c6.217,3.589,11.256,12.318,11.256,19.5Z" fill="#b5edf1"/>
        <g id="Grupo_57274" data-name="Grupo 57274" opacity="0.36">
          <g id="Grupo_57273" data-name="Grupo 57273">
            <g id="Grupo_57272" data-name="Grupo 57272" clip-path="url(#clip-path-17)">
              <path id="Trazado_108778" data-name="Trazado 108778" d="M46.2,52.635l1.173.871c.368.319.748.619,1.1.949s.712.652,1.046,1,.666.7.977,1.066a30.676,30.676,0,0,1,5.739,9.943c.164.454.289.919.435,1.38s.226.937.344,1.407.18.95.272,1.428l.168,1.451a17.141,17.141,0,0,0-.672-5.836,23.986,23.986,0,0,0-5.867-10.159,17.184,17.184,0,0,0-4.717-3.5" fill="#dff"/>
            </g>
          </g>
        </g>
        <path id="Trazado_108779" data-name="Trazado 108779" d="M51.821,112.922s-.181-3.365,0-10.97,1.385-37.83-8.411-42.59c-2.277-1.106-4.115-1.066-5.539-.245l1.3-.748c1.424-.822,3.262-.862,5.539.244,9.8,4.76,8.592,34.984,8.411,42.59s0,10.97,0,10.97Z" fill="#d3ffff"/>
        <path id="Trazado_108780" data-name="Trazado 108780" d="M51.821,112.922l-15.4-10.4s4.476-14.072,0-22.768c-3.436-6.675-3.251-17.923,1.451-20.639,1.424-.821,3.262-.861,5.539.245,9.8,4.76,8.592,34.984,8.411,42.59s0,10.97,0,10.97" fill="#a3e4e3"/>
        <g id="Grupo_57277" data-name="Grupo 57277" opacity="0.36">
          <g id="Grupo_57276" data-name="Grupo 57276">
            <g id="Grupo_57275" data-name="Grupo 57275" clip-path="url(#clip-path-18)">
              <path id="Trazado_108781" data-name="Trazado 108781" d="M47.755,40.8c.693-.4.693-1.7,0-2.9s-1.817-1.85-2.51-1.45l57.7-33.314c.693-.4,1.817.249,2.51,1.449s.693,2.5,0,2.9Z" fill="#dff"/>
            </g>
          </g>
        </g>
        <g id="Grupo_57280" data-name="Grupo 57280" opacity="0.36">
          <g id="Grupo_57279" data-name="Grupo 57279">
            <g id="Grupo_57278" data-name="Grupo 57278" clip-path="url(#clip-path-19)">
              <path id="Trazado_108782" data-name="Trazado 108782" d="M47.755,40.8c-.693.4-1.817-.248-2.51-1.448s-.693-2.5,0-2.9,1.817.249,2.51,1.45.693,2.5,0,2.9" fill="#dff"/>
            </g>
          </g>
        </g>
        <g id="Grupo_57283" data-name="Grupo 57283" opacity="0.36">
          <g id="Grupo_57282" data-name="Grupo 57282">
            <g id="Grupo_57281" data-name="Grupo 57281" clip-path="url(#clip-path-20)">
              <path id="Trazado_108783" data-name="Trazado 108783" d="M44.174,34.26,38.735,62.034l.691-.4,5.439-27.774Z" fill="#dff"/>
            </g>
          </g>
        </g>
        <g id="Grupo_57286" data-name="Grupo 57286" opacity="0.36">
          <g id="Grupo_57285" data-name="Grupo 57285">
            <g id="Grupo_57284" data-name="Grupo 57284" clip-path="url(#clip-path-21)">
              <path id="Trazado_108784" data-name="Trazado 108784" d="M38.735,62.034l8.7,5.521.691-.4-8.7-5.521Z" fill="#dff"/>
            </g>
          </g>
        </g>
        <path id="Trazado_108785" data-name="Trazado 108785" d="M47.439,67.555l1.172-30.733.691-.4L48.13,67.156Z" fill="#c9ffff"/>
        <g id="Grupo_57289" data-name="Grupo 57289" opacity="0.36">
          <g id="Grupo_57288" data-name="Grupo 57288">
            <g id="Grupo_57287" data-name="Grupo 57287" clip-path="url(#clip-path-22)">
              <path id="Trazado_108786" data-name="Trazado 108786" d="M48.611,36.822,44.174,34.26l.691-.4L49.3,36.423Z" fill="#dff"/>
            </g>
          </g>
        </g>
        <path id="Trazado_108787" data-name="Trazado 108787" d="M47.439,67.555l-8.7-5.521L44.174,34.26l4.437,2.562Z" fill="#d3ffff"/>
        <path id="Trazado_108788" data-name="Trazado 108788" d="M47.439,67.555l1.172-30.733.691-.4L48.13,67.156Z" fill="#c9ffff"/>
        <g id="Grupo_57292" data-name="Grupo 57292" opacity="0.36">
          <g id="Grupo_57291" data-name="Grupo 57291">
            <g id="Grupo_57290" data-name="Grupo 57290" clip-path="url(#clip-path-22)">
              <path id="Trazado_108789" data-name="Trazado 108789" d="M48.611,36.822,44.174,34.26l.691-.4L49.3,36.423Z" fill="#dff"/>
            </g>
          </g>
        </g>
        <path id="Trazado_108790" data-name="Trazado 108790" d="M127.349,111.057V87.6L140.511,80v23.457Z" fill="#bff8fa"/>
        <path id="Trazado_108791" data-name="Trazado 108791" d="M127.349,87.6l-13.294-7.676,15.032-8.678L140.511,80Z" fill="#a0d9e0"/>
        <path id="Trazado_108792" data-name="Trazado 108792" d="M127.349,111.057l-13.294-7.676V79.925L127.349,87.6Z" fill="#aae3e9"/>
        <path id="Trazado_108793" data-name="Trazado 108793" d="M44.756,140.156V103.872l4.836-2.792v36.284Z" fill="#b5edf1"/>
        <path id="Trazado_108794" data-name="Trazado 108794" d="M44.756,103.872,26.884,93.554l4.837-2.793L49.591,101.08Z" fill="#d3ffff"/>
        <path id="Trazado_108795" data-name="Trazado 108795" d="M44.756,140.156,26.884,129.838V93.554l17.872,10.318Z" fill="#bff8fa"/>
        <path id="Trazado_108796" data-name="Trazado 108796" d="M127.349,87.291V84.339l13.162-7.6v2.952Z" fill="#bff8fa"/>
        <path id="Trazado_108797" data-name="Trazado 108797" d="M127.349,84.34,114.055,72.065l13.162-7.6,13.294,12.275Z" fill="#b5edf1"/>
        <path id="Trazado_108798" data-name="Trazado 108798" d="M127.349,87.291l-13.294-7.676v-7.55l13.294,12.274Z" fill="#aae3e9"/>
        <g id="Grupo_57295" data-name="Grupo 57295" opacity="0.36">
          <g id="Grupo_57294" data-name="Grupo 57294">
            <g id="Grupo_57293" data-name="Grupo 57293" clip-path="url(#clip-path-24)">
              <path id="Trazado_108799" data-name="Trazado 108799" d="M52.941,118.243a2.067,2.067,0,0,0,.862-1.9,6.5,6.5,0,0,0-2.941-5.094,2.066,2.066,0,0,0-2.079-.206l56.2-32.449a2.067,2.067,0,0,1,2.079.208A6.5,6.5,0,0,1,110,83.891a2.071,2.071,0,0,1-.862,1.9Z" fill="#dff"/>
            </g>
          </g>
        </g>
        <g id="Grupo_57298" data-name="Grupo 57298" opacity="0.36">
          <g id="Grupo_57297" data-name="Grupo 57297">
            <g id="Grupo_57296" data-name="Grupo 57296" clip-path="url(#clip-path-25)">
              <path id="Trazado_108800" data-name="Trazado 108800" d="M52.941,118.243a2.066,2.066,0,0,1-2.079-.206,6.5,6.5,0,0,1-2.941-5.094,1.793,1.793,0,0,1,2.941-1.7,6.5,6.5,0,0,1,2.941,5.094,2.067,2.067,0,0,1-.862,1.9" fill="#dff"/>
            </g>
          </g>
        </g>
        <g id="Grupo_57301" data-name="Grupo 57301" opacity="0.36">
          <g id="Grupo_57300" data-name="Grupo 57300">
            <g id="Grupo_57299" data-name="Grupo 57299" clip-path="url(#clip-path-25)">
              <path id="Trazado_108801" data-name="Trazado 108801" d="M52.941,118.243a2.066,2.066,0,0,1-2.079-.206,6.5,6.5,0,0,1-2.941-5.094,1.793,1.793,0,0,1,2.941-1.7,6.5,6.5,0,0,1,2.941,5.094,2.067,2.067,0,0,1-.862,1.9" fill="#dff"/>
            </g>
          </g>
        </g>
        <g id="Grupo_57304" data-name="Grupo 57304" opacity="0.36">
          <g id="Grupo_57303" data-name="Grupo 57303">
            <g id="Grupo_57302" data-name="Grupo 57302" clip-path="url(#clip-path-27)">
              <path id="Trazado_108802" data-name="Trazado 108802" d="M57.961,127.445a2.067,2.067,0,0,0,.862-1.9,6.5,6.5,0,0,0-2.941-5.094,2.066,2.066,0,0,0-2.079-.206L110,87.793a2.067,2.067,0,0,1,2.079.207,6.5,6.5,0,0,1,2.94,5.093,2.069,2.069,0,0,1-.861,1.9Z" fill="#dff"/>
            </g>
          </g>
        </g>
        <g id="Grupo_57307" data-name="Grupo 57307" opacity="0.36">
          <g id="Grupo_57306" data-name="Grupo 57306">
            <g id="Grupo_57305" data-name="Grupo 57305" clip-path="url(#clip-path-28)">
              <path id="Trazado_108803" data-name="Trazado 108803" d="M57.961,127.445a2.066,2.066,0,0,1-2.079-.206,6.5,6.5,0,0,1-2.941-5.094,1.793,1.793,0,0,1,2.941-1.7,6.5,6.5,0,0,1,2.941,5.094,2.067,2.067,0,0,1-.862,1.9" fill="#dff"/>
            </g>
          </g>
        </g>
        <g id="Grupo_57310" data-name="Grupo 57310" opacity="0.36">
          <g id="Grupo_57309" data-name="Grupo 57309">
            <g id="Grupo_57308" data-name="Grupo 57308" clip-path="url(#clip-path-28)">
              <path id="Trazado_108804" data-name="Trazado 108804" d="M57.961,127.445a2.066,2.066,0,0,1-2.079-.206,6.5,6.5,0,0,1-2.941-5.094,1.793,1.793,0,0,1,2.941-1.7,6.5,6.5,0,0,1,2.941,5.094,2.067,2.067,0,0,1-.862,1.9" fill="#dff"/>
            </g>
          </g>
        </g>
        <path id="Trazado_108805" data-name="Trazado 108805" d="M81.144,157.394s-14.291-6.423-15.873-9.462.64-18.969,1.27-22.633.84-8.137-2.791-14.657c-3.571-6.413-6.915-4.552-7.024-4.489L112.035,74.22c.11-.063,3.453-1.924,7.024,4.489,3.631,6.52,3.422,10.993,2.791,14.657S119,112.961,120.58,116s14.152,8.46,14.152,8.46Z" fill="#ffe578"/>
        <path id="Trazado_108806" data-name="Trazado 108806" d="M81.144,157.394c-2.446-1.245-4.877-2.514-7.257-3.867a48.713,48.713,0,0,1-6.964-4.258,5.953,5.953,0,0,1-1.353-1.393,2.325,2.325,0,0,1-.172-.43,2.143,2.143,0,0,1-.134-.457c-.049-.329-.132-.646-.154-.984a31.337,31.337,0,0,1-.084-4.07c.1-2.728.351-5.457.65-8.177s.663-5.44,1.1-8.138a24.136,24.136,0,0,0,.411-4.134,18.788,18.788,0,0,0-.467-4.142,26.3,26.3,0,0,0-3.2-7.642,11.315,11.315,0,0,0-2.842-3.047,5.1,5.1,0,0,0-1.928-.795,3.147,3.147,0,0,0-2.019.293A3.075,3.075,0,0,1,58.718,106a4.886,4.886,0,0,1,1.79.886A10.9,10.9,0,0,1,63.035,110a25.762,25.762,0,0,1,3.133,7.467,18.281,18.281,0,0,1,.452,4.016,23.514,23.514,0,0,1-.4,4.042c-.439,2.717-.8,5.437-1.1,8.168s-.551,5.468-.653,8.222a32,32,0,0,0,.086,4.15c.023.347.112.7.165,1.046a2.6,2.6,0,0,0,.155.527,2.843,2.843,0,0,0,.212.519,6.43,6.43,0,0,0,1.49,1.551,49.535,49.535,0,0,0,7.053,4.319c2.477,1.2,4.977,2.334,7.522,3.365" fill="#f56d20"/>
        <path id="Trazado_108807" data-name="Trazado 108807" d="M68.487,116.133a18.238,18.238,0,0,1,.451,4.018,23.517,23.517,0,0,1-.4,4.043c-.44,2.717-.8,5.437-1.106,8.168s-.55,5.468-.654,8.221a31.985,31.985,0,0,0,.087,4.149c.021.347.11.7.163,1.047a2.657,2.657,0,0,0,.155.526,2.848,2.848,0,0,0,.213.519,6.4,6.4,0,0,0,1.488,1.55,49.54,49.54,0,0,0,7.053,4.32c2.474,1.2,4.973,2.341,7.516,3.377-.161-.082-.311-.185-.471-.267-2.287-1.162-4.556-2.349-6.782-3.61a48.84,48.84,0,0,1-6.966-4.257,6,6,0,0,1-1.354-1.393,2.335,2.335,0,0,1-.172-.431,2.118,2.118,0,0,1-.134-.458c-.049-.328-.133-.646-.155-.984a31.7,31.7,0,0,1-.084-4.07c.1-2.728.35-5.457.648-8.178s.663-5.44,1.1-8.138a23.936,23.936,0,0,0,.411-4.133,18.837,18.837,0,0,0-.467-4.14,26.274,26.274,0,0,0-3.205-7.638,11.327,11.327,0,0,0-2.835-3.049,5.091,5.091,0,0,0-1.926-.8,3.142,3.142,0,0,0-2.019.29,3.086,3.086,0,0,1,1.993-.157,4.913,4.913,0,0,1,1.793.885,10.916,10.916,0,0,1,2.532,3.115,25.757,25.757,0,0,1,3.133,7.471" fill="#f56d20"/>
        <path id="Trazado_108808" data-name="Trazado 108808" d="M70.805,114.8a18.258,18.258,0,0,1,.452,4.02,23.521,23.521,0,0,1-.405,4.044c-.44,2.717-.8,5.437-1.106,8.167s-.553,5.468-.656,8.221a31.982,31.982,0,0,0,.085,4.149c.022.347.111.7.164,1.046a2.592,2.592,0,0,0,.155.526,2.858,2.858,0,0,0,.211.518,6.412,6.412,0,0,0,1.488,1.549,49.479,49.479,0,0,0,7.051,4.322c2.472,1.205,4.97,2.348,7.511,3.389-.154-.079-.288-.2-.441-.278-2.294-1.16-4.573-2.348-6.808-3.608a48.813,48.813,0,0,1-6.966-4.256,5.991,5.991,0,0,1-1.356-1.394,2.344,2.344,0,0,1-.172-.432,2.1,2.1,0,0,1-.135-.458c-.048-.329-.132-.647-.154-.984a31.356,31.356,0,0,1-.085-4.071c.1-2.729.348-5.458.647-8.179s.661-5.44,1.1-8.138a24.222,24.222,0,0,0,.409-4.132,18.76,18.76,0,0,0-.468-4.138,26.293,26.293,0,0,0-3.2-7.635A11.315,11.315,0,0,0,65.287,104a5.114,5.114,0,0,0-1.923-.8,3.144,3.144,0,0,0-2.018.288,3.079,3.079,0,0,1,1.993-.159,4.915,4.915,0,0,1,1.8.882,10.923,10.923,0,0,1,2.539,3.115,25.773,25.773,0,0,1,3.132,7.474" fill="#f56d20"/>
        <path id="Trazado_108809" data-name="Trazado 108809" d="M73.124,113.462a18.214,18.214,0,0,1,.451,4.022,23.555,23.555,0,0,1-.406,4.046c-.44,2.715-.8,5.436-1.107,8.166s-.554,5.467-.657,8.22a31.786,31.786,0,0,0,.084,4.148c.022.347.111.7.164,1.046a2.5,2.5,0,0,0,.154.525,2.738,2.738,0,0,0,.212.518A6.387,6.387,0,0,0,73.5,145.7a49.413,49.413,0,0,0,7.05,4.322c2.47,1.209,4.966,2.355,7.5,3.4-.146-.074-.264-.214-.41-.288-2.3-1.159-4.591-2.346-6.834-3.607a48.793,48.793,0,0,1-6.968-4.255,5.981,5.981,0,0,1-1.357-1.395,2.345,2.345,0,0,1-.172-.432,2.1,2.1,0,0,1-.135-.458c-.049-.329-.133-.647-.155-.985a31.356,31.356,0,0,1-.085-4.071c.1-2.729.347-5.458.645-8.179s.66-5.441,1.1-8.139a24.128,24.128,0,0,0,.408-4.131,18.8,18.8,0,0,0-.468-4.136,26.285,26.285,0,0,0-3.2-7.631,11.3,11.3,0,0,0-2.826-3.052,5.1,5.1,0,0,0-1.92-.8,3.144,3.144,0,0,0-2.018.285,3.082,3.082,0,0,1,1.994-.162,4.934,4.934,0,0,1,1.8.881,10.948,10.948,0,0,1,2.544,3.113,25.78,25.78,0,0,1,3.132,7.478" fill="#f56d20"/>
        <path id="Trazado_108810" data-name="Trazado 108810" d="M75.442,112.126a18.352,18.352,0,0,1,.451,4.024,23.658,23.658,0,0,1-.407,4.047c-.441,2.715-.8,5.436-1.109,8.165s-.554,5.468-.658,8.22a31.961,31.961,0,0,0,.083,4.148c.022.347.11.7.164,1.045a2.5,2.5,0,0,0,.154.525,2.752,2.752,0,0,0,.211.517,6.419,6.419,0,0,0,1.485,1.549,49.648,49.648,0,0,0,7.049,4.323c2.468,1.213,4.963,2.362,7.5,3.413-.14-.071-.241-.228-.38-.3-2.312-1.157-4.609-2.345-6.861-3.606a48.7,48.7,0,0,1-6.968-4.254,5.966,5.966,0,0,1-1.358-1.395,2.329,2.329,0,0,1-.173-.433,2.1,2.1,0,0,1-.135-.458c-.049-.33-.133-.648-.155-.986a31.533,31.533,0,0,1-.086-4.071c.1-2.73.346-5.459.644-8.18s.659-5.44,1.093-8.14a24.1,24.1,0,0,0,.407-4.129,18.724,18.724,0,0,0-.468-4.134,26.271,26.271,0,0,0-3.205-7.628,11.265,11.265,0,0,0-2.819-3.052,5.076,5.076,0,0,0-1.918-.8,3.141,3.141,0,0,0-2.017.283,3.076,3.076,0,0,1,1.994-.164,4.907,4.907,0,0,1,1.8.879,10.951,10.951,0,0,1,2.55,3.112,25.786,25.786,0,0,1,3.132,7.481" fill="#f56d20"/>
        <path id="Trazado_108811" data-name="Trazado 108811" d="M77.761,110.791a18.309,18.309,0,0,1,.45,4.026,23.659,23.659,0,0,1-.407,4.048c-.442,2.715-.8,5.435-1.111,8.165s-.555,5.467-.66,8.219a31.944,31.944,0,0,0,.083,4.147c.022.347.11.7.163,1.045a2.625,2.625,0,0,0,.154.525,2.821,2.821,0,0,0,.211.517,6.429,6.429,0,0,0,1.484,1.548,49.589,49.589,0,0,0,7.048,4.324c2.467,1.216,4.959,2.369,7.494,3.425-.132-.068-.216-.243-.349-.311-2.321-1.155-4.626-2.342-6.887-3.6a48.829,48.829,0,0,1-6.97-4.254,5.992,5.992,0,0,1-1.359-1.4,2.3,2.3,0,0,1-.172-.434,2.039,2.039,0,0,1-.136-.459c-.049-.329-.133-.647-.155-.985a31.374,31.374,0,0,1-.087-4.072c.1-2.73.345-5.459.642-8.181s.658-5.44,1.092-8.14a24.093,24.093,0,0,0,.407-4.128,18.82,18.82,0,0,0-.469-4.132,26.247,26.247,0,0,0-3.2-7.624,11.254,11.254,0,0,0-2.814-3.054,5.065,5.065,0,0,0-1.915-.8,3.135,3.135,0,0,0-2.017.28,3.085,3.085,0,0,1,2-.167,4.913,4.913,0,0,1,1.8.878,10.915,10.915,0,0,1,2.556,3.11,25.793,25.793,0,0,1,3.132,7.485" fill="#f56d20"/>
        <path id="Trazado_108812" data-name="Trazado 108812" d="M80.08,109.455a18.265,18.265,0,0,1,.449,4.028,23.563,23.563,0,0,1-.408,4.049c-.442,2.715-.8,5.435-1.111,8.165s-.557,5.466-.662,8.218a31.945,31.945,0,0,0,.082,4.147c.022.347.11.7.163,1.045a2.571,2.571,0,0,0,.154.524,2.807,2.807,0,0,0,.21.516,6.387,6.387,0,0,0,1.484,1.547,49.427,49.427,0,0,0,7.046,4.325c2.465,1.221,4.956,2.376,7.489,3.437-.126-.064-.193-.257-.319-.321-2.33-1.153-4.644-2.341-6.913-3.6a48.773,48.773,0,0,1-6.971-4.252,5.984,5.984,0,0,1-1.36-1.4,2.271,2.271,0,0,1-.173-.434,2.054,2.054,0,0,1-.136-.459c-.049-.329-.133-.648-.156-.986a31.385,31.385,0,0,1-.087-4.073c.1-2.73.344-5.459.641-8.18s.657-5.441,1.09-8.141A24.09,24.09,0,0,0,81,113.484a18.684,18.684,0,0,0-.47-4.13,26.254,26.254,0,0,0-3.2-7.621,11.267,11.267,0,0,0-2.808-3.055,5.1,5.1,0,0,0-1.913-.805,3.141,3.141,0,0,0-2.017.278,3.082,3.082,0,0,1,2-.169,4.912,4.912,0,0,1,1.805.875,10.969,10.969,0,0,1,2.562,3.11,25.813,25.813,0,0,1,3.131,7.488" fill="#f56d20"/>
        <path id="Trazado_108813" data-name="Trazado 108813" d="M82.4,108.119a18.35,18.35,0,0,1,.449,4.03,23.576,23.576,0,0,1-.409,4.05c-.442,2.715-.8,5.435-1.113,8.164s-.557,5.467-.663,8.218a31.768,31.768,0,0,0,.081,4.147c.022.346.11.7.163,1.044a2.567,2.567,0,0,0,.153.524,2.8,2.8,0,0,0,.211.515,6.38,6.38,0,0,0,1.482,1.547,49.515,49.515,0,0,0,7.045,4.326c2.463,1.224,4.952,2.383,7.483,3.449-.118-.06-.169-.271-.288-.332-2.339-1.151-4.661-2.34-6.94-3.6a48.834,48.834,0,0,1-6.972-4.251,5.965,5.965,0,0,1-1.36-1.4,2.328,2.328,0,0,1-.174-.434,2.078,2.078,0,0,1-.136-.46c-.049-.33-.134-.648-.156-.987a31.385,31.385,0,0,1-.088-4.073c.1-2.73.343-5.459.639-8.181s.656-5.441,1.089-8.141a23.988,23.988,0,0,0,.405-4.126,18.666,18.666,0,0,0-.47-4.128,26.24,26.24,0,0,0-3.205-7.618,11.262,11.262,0,0,0-2.8-3.056,5.08,5.08,0,0,0-1.91-.806,3.137,3.137,0,0,0-2.016.275,3.086,3.086,0,0,1,1.995-.172,4.915,4.915,0,0,1,1.808.874,10.981,10.981,0,0,1,2.568,3.108,25.847,25.847,0,0,1,3.131,7.492" fill="#f56d20"/>
        <path id="Trazado_108814" data-name="Trazado 108814" d="M84.717,106.784a18.3,18.3,0,0,1,.448,4.032,23.576,23.576,0,0,1-.409,4.051c-.443,2.715-.805,5.435-1.115,8.164s-.558,5.466-.664,8.217a31.924,31.924,0,0,0,.08,4.146c.022.347.11.7.163,1.044a2.522,2.522,0,0,0,.153.523,2.739,2.739,0,0,0,.21.516,6.385,6.385,0,0,0,1.481,1.545,49.376,49.376,0,0,0,7.045,4.327c2.46,1.228,4.948,2.391,7.477,3.462-.112-.057-.146-.286-.257-.343-2.349-1.15-4.68-2.339-6.967-3.6a48.747,48.747,0,0,1-6.973-4.25,6,6,0,0,1-1.362-1.4,2.3,2.3,0,0,1-.174-.434,2.133,2.133,0,0,1-.136-.46c-.049-.33-.134-.649-.156-.987a31.227,31.227,0,0,1-.089-4.074c.1-2.73.342-5.46.638-8.182s.655-5.441,1.087-8.142a23.964,23.964,0,0,0,.4-4.124,18.723,18.723,0,0,0-.47-4.127,26.222,26.222,0,0,0-3.2-7.613,11.252,11.252,0,0,0-2.8-3.058,5.08,5.08,0,0,0-1.907-.808,3.138,3.138,0,0,0-2.016.273,3.089,3.089,0,0,1,2-.175,4.929,4.929,0,0,1,1.81.873,10.966,10.966,0,0,1,2.574,3.107,25.826,25.826,0,0,1,3.131,7.495" fill="#f56d20"/>
        <path id="Trazado_108815" data-name="Trazado 108815" d="M87.036,105.448a18.318,18.318,0,0,1,.448,4.034,23.613,23.613,0,0,1-.411,4.053c-.443,2.714-.806,5.433-1.116,8.163s-.559,5.465-.665,8.217a31.735,31.735,0,0,0,.079,4.145c.022.346.11.7.163,1.043a2.463,2.463,0,0,0,.153.523,2.767,2.767,0,0,0,.209.515,6.418,6.418,0,0,0,1.48,1.545,49.464,49.464,0,0,0,7.044,4.328c2.458,1.232,4.944,2.4,7.471,3.473-.1-.053-.122-.3-.226-.353-2.358-1.148-4.7-2.337-6.993-3.6a48.859,48.859,0,0,1-6.975-4.25,5.98,5.98,0,0,1-1.362-1.4,2.313,2.313,0,0,1-.175-.435,2.125,2.125,0,0,1-.136-.461c-.049-.329-.134-.649-.156-.987a31.581,31.581,0,0,1-.091-4.074c.1-2.731.342-5.46.637-8.182s.654-5.442,1.087-8.143a24.162,24.162,0,0,0,.4-4.123,18.767,18.767,0,0,0-.471-4.125,26.246,26.246,0,0,0-3.206-7.61,11.245,11.245,0,0,0-2.79-3.059,5.078,5.078,0,0,0-1.906-.809,3.13,3.13,0,0,0-2.015.27,3.086,3.086,0,0,1,2-.177,4.938,4.938,0,0,1,1.813.871,10.961,10.961,0,0,1,2.579,3.1,25.861,25.861,0,0,1,3.131,7.5" fill="#f56d20"/>
        <path id="Trazado_108816" data-name="Trazado 108816" d="M89.354,104.113a18.281,18.281,0,0,1,.447,4.036,23.615,23.615,0,0,1-.411,4.054c-.444,2.713-.807,5.433-1.117,8.162s-.561,5.465-.668,8.217a32.07,32.07,0,0,0,.079,4.144c.022.347.11.7.162,1.043a2.585,2.585,0,0,0,.153.523,2.785,2.785,0,0,0,.209.514,6.414,6.414,0,0,0,1.479,1.545,49.453,49.453,0,0,0,7.043,4.328c2.456,1.236,4.941,2.4,7.466,3.486-.1-.05-.1-.314-.2-.364-2.366-1.147-4.715-2.336-7.02-3.6A48.872,48.872,0,0,1,90,135.955a5.991,5.991,0,0,1-1.364-1.4,2.347,2.347,0,0,1-.174-.436,2.087,2.087,0,0,1-.137-.461c-.05-.33-.134-.649-.157-.988a31.585,31.585,0,0,1-.091-4.074c.1-2.731.341-5.461.636-8.183s.653-5.442,1.085-8.143a24.051,24.051,0,0,0,.4-4.123,18.681,18.681,0,0,0-.472-4.122,26.17,26.17,0,0,0-3.205-7.606,11.235,11.235,0,0,0-2.785-3.061,5.061,5.061,0,0,0-1.9-.811,3.133,3.133,0,0,0-2.014.268,3.086,3.086,0,0,1,2-.18,4.95,4.95,0,0,1,1.815.869,10.982,10.982,0,0,1,2.585,3.105,25.85,25.85,0,0,1,3.131,7.5" fill="#f56d20"/>
        <path id="Trazado_108817" data-name="Trazado 108817" d="M91.673,102.777a18.292,18.292,0,0,1,.447,4.038,23.628,23.628,0,0,1-.412,4.055c-.445,2.713-.808,5.433-1.119,8.162s-.561,5.465-.669,8.216A31.892,31.892,0,0,0,90,131.392c.022.346.11.7.162,1.042a2.522,2.522,0,0,0,.153.523,2.748,2.748,0,0,0,.209.513A6.368,6.368,0,0,0,92,135.014a49.3,49.3,0,0,0,7.041,4.33q3.681,1.86,7.461,3.5c-.091-.046-.076-.329-.166-.375-2.375-1.146-4.733-2.335-7.046-3.6a48.882,48.882,0,0,1-6.977-4.247,6.023,6.023,0,0,1-1.365-1.4,2.319,2.319,0,0,1-.174-.436,2.087,2.087,0,0,1-.137-.461c-.05-.33-.134-.65-.157-.988a31.616,31.616,0,0,1-.092-4.076c.1-2.731.34-5.461.634-8.183s.652-5.442,1.084-8.143a24.059,24.059,0,0,0,.4-4.122,18.656,18.656,0,0,0-.472-4.12,26.191,26.191,0,0,0-3.205-7.6,11.217,11.217,0,0,0-2.78-3.061,5.063,5.063,0,0,0-1.9-.814,3.133,3.133,0,0,0-2.014.266,3.1,3.1,0,0,1,2-.183,4.961,4.961,0,0,1,1.818.868,11.007,11.007,0,0,1,2.59,3.1,25.835,25.835,0,0,1,3.131,7.506" fill="#f56d20"/>
        <path id="Trazado_108818" data-name="Trazado 108818" d="M93.992,101.441a18.309,18.309,0,0,1,.446,4.04,23.621,23.621,0,0,1-.413,4.056c-.444,2.713-.808,5.433-1.12,8.161s-.562,5.465-.67,8.216a31.874,31.874,0,0,0,.077,4.143c.022.347.11.695.162,1.043a2.527,2.527,0,0,0,.152.522,2.8,2.8,0,0,0,.209.513,6.377,6.377,0,0,0,1.477,1.543,49.421,49.421,0,0,0,7.04,4.331q3.678,1.864,7.455,3.509c-.084-.042-.051-.343-.135-.385-2.384-1.144-4.75-2.333-7.072-3.594a48.892,48.892,0,0,1-6.978-4.247,6.008,6.008,0,0,1-1.366-1.4,2.331,2.331,0,0,1-.175-.437,2.08,2.08,0,0,1-.137-.462c-.05-.33-.135-.649-.157-.988a31.437,31.437,0,0,1-.093-4.076c.1-2.731.339-5.461.633-8.184s.651-5.442,1.082-8.144a24.035,24.035,0,0,0,.4-4.12,18.706,18.706,0,0,0-.473-4.118,26.215,26.215,0,0,0-3.206-7.6A11.21,11.21,0,0,0,88.358,90.7a5.063,5.063,0,0,0-1.9-.815,3.129,3.129,0,0,0-2.013.263,3.089,3.089,0,0,1,2-.185,4.958,4.958,0,0,1,1.82.866,10.963,10.963,0,0,1,2.6,3.1,25.852,25.852,0,0,1,3.131,7.509" fill="#f56d20"/>
        <path id="Trazado_108819" data-name="Trazado 108819" d="M96.31,100.106a18.333,18.333,0,0,1,.446,4.042,23.733,23.733,0,0,1-.414,4.057c-.445,2.713-.81,5.432-1.122,8.161s-.563,5.464-.671,8.215a32.049,32.049,0,0,0,.076,4.143c.022.346.109.694.162,1.042a2.5,2.5,0,0,0,.152.521,2.744,2.744,0,0,0,.208.513,6.392,6.392,0,0,0,1.476,1.543,49.466,49.466,0,0,0,7.039,4.331q3.675,1.871,7.45,3.522c-.077-.039-.028-.357-.1-.4-2.393-1.141-4.768-2.331-7.1-3.592a48.8,48.8,0,0,1-6.978-4.246,5.974,5.974,0,0,1-1.367-1.4,2.371,2.371,0,0,1-.176-.438,2.08,2.08,0,0,1-.137-.462c-.05-.33-.135-.65-.157-.988A31.456,31.456,0,0,1,95,124.6c.1-2.731.338-5.462.631-8.184s.651-5.443,1.081-8.145a24.022,24.022,0,0,0,.4-4.119,18.688,18.688,0,0,0-.473-4.116,26.18,26.18,0,0,0-3.206-7.6,11.2,11.2,0,0,0-2.768-3.064,5.063,5.063,0,0,0-1.9-.817,3.13,3.13,0,0,0-2.013.261,3.1,3.1,0,0,1,2-.188,4.941,4.941,0,0,1,1.822.865,11,11,0,0,1,2.6,3.1,25.9,25.9,0,0,1,3.13,7.513" fill="#f56d20"/>
        <path id="Trazado_108820" data-name="Trazado 108820" d="M98.629,98.77a18.343,18.343,0,0,1,.445,4.044,23.635,23.635,0,0,1-.415,4.058c-.445,2.713-.81,5.432-1.122,8.161s-.565,5.464-.674,8.214a32.03,32.03,0,0,0,.076,4.142c.022.347.109.695.161,1.042a2.629,2.629,0,0,0,.152.521,2.834,2.834,0,0,0,.208.512,6.4,6.4,0,0,0,1.475,1.542,49.415,49.415,0,0,0,7.038,4.333q3.672,1.876,7.444,3.534c-.07-.036,0-.372-.074-.408-2.4-1.14-4.785-2.33-7.125-3.591a48.809,48.809,0,0,1-6.98-4.245,5.983,5.983,0,0,1-1.368-1.4,2.316,2.316,0,0,1-.176-.438,2.1,2.1,0,0,1-.137-.462c-.05-.33-.135-.651-.158-.989a31.635,31.635,0,0,1-.094-4.077c.1-2.732.337-5.462.63-8.185s.649-5.443,1.079-8.145a24.02,24.02,0,0,0,.4-4.118,18.665,18.665,0,0,0-.474-4.114,26.2,26.2,0,0,0-3.205-7.593,11.2,11.2,0,0,0-2.763-3.065,5.051,5.051,0,0,0-1.892-.818,3.13,3.13,0,0,0-2.013.258,3.093,3.093,0,0,1,2-.19,4.946,4.946,0,0,1,1.826.863,10.991,10.991,0,0,1,2.607,3.1,25.893,25.893,0,0,1,3.131,7.516" fill="#f56d20"/>
        <path id="Trazado_108821" data-name="Trazado 108821" d="M100.948,97.434a18.42,18.42,0,0,1,.445,4.045,23.649,23.649,0,0,1-.416,4.06c-.446,2.713-.811,5.432-1.124,8.16s-.565,5.464-.675,8.214a32.033,32.033,0,0,0,.075,4.142c.022.346.109.694.161,1.041a2.563,2.563,0,0,0,.152.521,2.762,2.762,0,0,0,.208.512,6.355,6.355,0,0,0,1.474,1.541A49.344,49.344,0,0,0,108.284,134q3.671,1.881,7.439,3.546c-.063-.032.019-.387-.043-.419-2.412-1.138-4.8-2.328-7.152-3.59a48.866,48.866,0,0,1-6.981-4.243,6.011,6.011,0,0,1-1.369-1.4,2.357,2.357,0,0,1-.177-.439,2.1,2.1,0,0,1-.137-.462c-.05-.331-.135-.651-.158-.99a31.456,31.456,0,0,1-.1-4.077c.094-2.732.336-5.463.628-8.186s.649-5.443,1.078-8.145a23.926,23.926,0,0,0,.4-4.117,18.646,18.646,0,0,0-.474-4.112,26.139,26.139,0,0,0-3.206-7.589,11.183,11.183,0,0,0-2.756-3.067,5.063,5.063,0,0,0-1.89-.82,3.126,3.126,0,0,0-2.012.256,3.093,3.093,0,0,1,2-.193,4.966,4.966,0,0,1,1.828.861,11.024,11.024,0,0,1,2.614,3.1,25.914,25.914,0,0,1,3.13,7.52" fill="#f56d20"/>
        <path id="Trazado_108822" data-name="Trazado 108822" d="M103.266,96.1a18.379,18.379,0,0,1,.444,4.048,23.672,23.672,0,0,1-.416,4.061c-.447,2.711-.813,5.431-1.126,8.159s-.566,5.463-.676,8.213a31.836,31.836,0,0,0,.074,4.141c.022.347.109.694.161,1.041a2.5,2.5,0,0,0,.152.521,2.683,2.683,0,0,0,.207.511,6.389,6.389,0,0,0,1.473,1.541,49.427,49.427,0,0,0,7.035,4.334q3.667,1.888,7.433,3.558c-.056-.028.043-.4-.012-.429-2.421-1.137-4.821-2.327-7.179-3.588a48.933,48.933,0,0,1-6.982-4.243,6,6,0,0,1-1.37-1.4,2.278,2.278,0,0,1-.176-.438,2.062,2.062,0,0,1-.138-.464c-.05-.33-.135-.651-.158-.989a31.486,31.486,0,0,1-.1-4.079c.094-2.732.335-5.462.627-8.185s.647-5.444,1.076-8.147a23.9,23.9,0,0,0,.4-4.115,18.69,18.69,0,0,0-.475-4.11,26.177,26.177,0,0,0-3.206-7.586,11.183,11.183,0,0,0-2.751-3.068,5.044,5.044,0,0,0-1.887-.821,3.126,3.126,0,0,0-2.012.252,3.1,3.1,0,0,1,2-.194,4.951,4.951,0,0,1,1.831.859,11.026,11.026,0,0,1,2.619,3.1,25.92,25.92,0,0,1,3.13,7.523" fill="#f56d20"/>
        <path id="Trazado_108823" data-name="Trazado 108823" d="M105.585,94.763a18.394,18.394,0,0,1,.444,4.049,23.687,23.687,0,0,1-.418,4.063c-.446,2.711-.813,5.43-1.127,8.158s-.567,5.464-.677,8.213a31.837,31.837,0,0,0,.074,4.141c.021.346.108.694.16,1.041a2.542,2.542,0,0,0,.151.519,2.791,2.791,0,0,0,.207.511,6.38,6.38,0,0,0,1.472,1.54,49.429,49.429,0,0,0,7.034,4.336q3.665,1.893,7.428,3.57c-.049-.025.066-.415.018-.44-2.43-1.135-4.839-2.325-7.2-3.587a48.843,48.843,0,0,1-6.983-4.242,6.006,6.006,0,0,1-1.371-1.4,2.317,2.317,0,0,1-.177-.439,2.132,2.132,0,0,1-.138-.464c-.05-.331-.136-.651-.159-.99a31.486,31.486,0,0,1-.1-4.079c.093-2.732.334-5.463.626-8.186s.646-5.444,1.074-8.147a23.991,23.991,0,0,0,.4-4.114,18.688,18.688,0,0,0-.475-4.109,26.165,26.165,0,0,0-3.206-7.582,11.213,11.213,0,0,0-2.745-3.069,5.06,5.06,0,0,0-1.886-.823,3.127,3.127,0,0,0-2.01.25,3.1,3.1,0,0,1,2-.2,4.958,4.958,0,0,1,1.833.858,11.022,11.022,0,0,1,2.625,3.1,25.927,25.927,0,0,1,3.13,7.527" fill="#f56d20"/>
        <path id="Trazado_108824" data-name="Trazado 108824" d="M107.9,93.427a18.358,18.358,0,0,1,.443,4.051,23.678,23.678,0,0,1-.418,4.064c-.447,2.711-.814,5.43-1.129,8.158s-.568,5.463-.678,8.213a31.822,31.822,0,0,0,.072,4.14c.022.346.109.693.161,1.04a2.48,2.48,0,0,0,.151.519,2.746,2.746,0,0,0,.206.511,6.39,6.39,0,0,0,1.471,1.539A49.329,49.329,0,0,0,115.216,130q3.661,1.9,7.422,3.583c-.042-.022.091-.43.049-.451-2.439-1.134-4.857-2.324-7.231-3.586a48.854,48.854,0,0,1-6.985-4.24,6.034,6.034,0,0,1-1.372-1.4,2.394,2.394,0,0,1-.177-.44,2.078,2.078,0,0,1-.138-.464c-.051-.331-.136-.652-.159-.991a31.483,31.483,0,0,1-.1-4.079c.093-2.732.333-5.463.624-8.187s.645-5.444,1.073-8.147a23.879,23.879,0,0,0,.4-4.113,18.588,18.588,0,0,0-.476-4.106,26.109,26.109,0,0,0-3.206-7.579,11.163,11.163,0,0,0-2.739-3.07,5.018,5.018,0,0,0-1.883-.825,3.127,3.127,0,0,0-2.01.247,3.1,3.1,0,0,1,2-.2,4.963,4.963,0,0,1,1.835.856,11.025,11.025,0,0,1,2.631,3.094,25.905,25.905,0,0,1,3.13,7.53" fill="#f56d20"/>
        <path id="Trazado_108825" data-name="Trazado 108825" d="M110.222,92.092a18.429,18.429,0,0,1,.443,4.053,23.682,23.682,0,0,1-.419,4.065c-.448,2.711-.815,5.43-1.13,8.158s-.569,5.462-.68,8.212a31.628,31.628,0,0,0,.072,4.139c.021.346.108.693.16,1.04a2.538,2.538,0,0,0,.15.519,2.81,2.81,0,0,0,.207.51,6.367,6.367,0,0,0,1.47,1.539,49.3,49.3,0,0,0,7.032,4.337q3.657,1.905,7.416,3.594c-.035-.017.114-.444.079-.461-2.447-1.132-4.874-2.323-7.257-3.584a48.955,48.955,0,0,1-6.986-4.24,6,6,0,0,1-1.373-1.4,2.3,2.3,0,0,1-.178-.44,2.124,2.124,0,0,1-.138-.465c-.051-.33-.136-.652-.159-.99a31.507,31.507,0,0,1-.1-4.08c.092-2.733.332-5.464.623-8.188s.644-5.444,1.072-8.147a24.075,24.075,0,0,0,.395-4.112,18.647,18.647,0,0,0-.477-4.105,26.151,26.151,0,0,0-3.206-7.575,11.179,11.179,0,0,0-2.734-3.071,5.027,5.027,0,0,0-1.88-.827,3.127,3.127,0,0,0-2.01.245,3.108,3.108,0,0,1,2-.2,4.979,4.979,0,0,1,1.838.854,11.052,11.052,0,0,1,2.636,3.093,25.94,25.94,0,0,1,3.13,7.534" fill="#f56d20"/>
        <path id="Trazado_108826" data-name="Trazado 108826" d="M112.541,90.756a18.386,18.386,0,0,1,.442,4.055,23.6,23.6,0,0,1-.42,4.066c-.448,2.711-.816,5.43-1.131,8.157s-.57,5.463-.682,8.212a31.8,31.8,0,0,0,.072,4.139c.021.346.108.693.159,1.039a2.524,2.524,0,0,0,.151.519,2.728,2.728,0,0,0,.206.509,6.34,6.34,0,0,0,1.469,1.538,49.443,49.443,0,0,0,7.03,4.339q3.656,1.91,7.411,3.606c-.028-.014.138-.458.11-.473-2.456-1.13-4.892-2.32-7.284-3.582a48.924,48.924,0,0,1-6.987-4.239,6.029,6.029,0,0,1-1.374-1.4,2.406,2.406,0,0,1-.178-.441,2.123,2.123,0,0,1-.138-.465c-.051-.331-.136-.652-.159-.991a31.5,31.5,0,0,1-.1-4.08c.091-2.733.331-5.464.621-8.188s.644-5.445,1.071-8.149a23.961,23.961,0,0,0,.394-4.11,18.629,18.629,0,0,0-.477-4.1,26.115,26.115,0,0,0-3.207-7.571,11.146,11.146,0,0,0-2.727-3.073,5.027,5.027,0,0,0-1.878-.828,3.117,3.117,0,0,0-2.009.242,3.108,3.108,0,0,1,2-.2,4.986,4.986,0,0,1,1.84.853,11.041,11.041,0,0,1,2.642,3.092,25.919,25.919,0,0,1,3.13,7.537" fill="#f56d20"/>
        <path id="Trazado_108827" data-name="Trazado 108827" d="M114.859,89.42a18.411,18.411,0,0,1,.442,4.057,23.718,23.718,0,0,1-.421,4.068c-.449,2.71-.817,5.429-1.133,8.156s-.571,5.462-.683,8.211a31.786,31.786,0,0,0,.071,4.138c.021.346.107.693.159,1.039a2.438,2.438,0,0,0,.151.518,2.736,2.736,0,0,0,.205.509,6.373,6.373,0,0,0,1.468,1.538,49.24,49.24,0,0,0,7.03,4.339q3.651,1.917,7.4,3.619c-.021-.011.161-.473.14-.484-2.465-1.128-4.909-2.319-7.31-3.581a48.837,48.837,0,0,1-6.988-4.238,6.019,6.019,0,0,1-1.375-1.406,2.381,2.381,0,0,1-.179-.441A2.14,2.14,0,0,1,113.7,119c-.051-.331-.137-.653-.16-.992a31.513,31.513,0,0,1-.1-4.081c.091-2.733.33-5.464.62-8.188s.642-5.444,1.069-8.149a23.949,23.949,0,0,0,.393-4.109,18.612,18.612,0,0,0-.477-4.1,26.114,26.114,0,0,0-3.207-7.568,11.163,11.163,0,0,0-2.722-3.074,5.034,5.034,0,0,0-1.875-.83,3.123,3.123,0,0,0-2.009.24,3.1,3.1,0,0,1,2-.207,4.959,4.959,0,0,1,1.842.851,11.037,11.037,0,0,1,2.648,3.09,25.942,25.942,0,0,1,3.13,7.541" fill="#f56d20"/>
        <path id="Trazado_108828" data-name="Trazado 108828" d="M117.178,88.085a18.421,18.421,0,0,1,.441,4.059,23.83,23.83,0,0,1-.421,4.069c-.449,2.709-.818,5.428-1.135,8.155s-.571,5.462-.684,8.211a31.788,31.788,0,0,0,.07,4.138c.021.346.107.692.159,1.038a2.494,2.494,0,0,0,.15.518,2.793,2.793,0,0,0,.2.509,6.4,6.4,0,0,0,1.467,1.537,49.384,49.384,0,0,0,7.029,4.34q3.648,1.922,7.4,3.63c-.014-.007.185-.487.171-.494-2.474-1.127-4.927-2.318-7.337-3.579a49.136,49.136,0,0,1-6.989-4.237,6.027,6.027,0,0,1-1.376-1.407,2.32,2.32,0,0,1-.178-.442,2.088,2.088,0,0,1-.139-.465c-.051-.332-.137-.653-.16-.992a31.537,31.537,0,0,1-.1-4.082c.09-2.733.329-5.465.618-8.189s.642-5.444,1.068-8.149a23.846,23.846,0,0,0,.392-4.108,18.587,18.587,0,0,0-.478-4.1,26.1,26.1,0,0,0-3.206-7.565,11.133,11.133,0,0,0-2.717-3.075,5.016,5.016,0,0,0-1.872-.831,3.118,3.118,0,0,0-2.009.237,3.108,3.108,0,0,1,2-.21,4.984,4.984,0,0,1,1.845.85,11.072,11.072,0,0,1,2.654,3.089,25.985,25.985,0,0,1,3.129,7.544" fill="#f56d20"/>
        <path id="Trazado_108829" data-name="Trazado 108829" d="M119.5,86.749a18.439,18.439,0,0,1,.441,4.061,23.733,23.733,0,0,1-.423,4.07c-.449,2.709-.819,5.428-1.135,8.155s-.573,5.461-.686,8.21a31.767,31.767,0,0,0,.069,4.137c.021.346.107.692.159,1.039a2.443,2.443,0,0,0,.15.517,2.687,2.687,0,0,0,.205.508,6.352,6.352,0,0,0,1.465,1.536,49.234,49.234,0,0,0,7.028,4.341q3.645,1.928,7.394,3.643c-.007,0,.208-.5.2-.505-2.483-1.125-4.944-2.316-7.363-3.578a48.994,48.994,0,0,1-6.99-4.236,6.032,6.032,0,0,1-1.377-1.407,2.359,2.359,0,0,1-.179-.443,2.08,2.08,0,0,1-.139-.466c-.051-.331-.137-.653-.16-.992a31.359,31.359,0,0,1-.1-4.082c.09-2.733.328-5.465.617-8.189s.64-5.445,1.066-8.151a24.032,24.032,0,0,0,.392-4.106,18.631,18.631,0,0,0-.479-4.1,26.072,26.072,0,0,0-3.207-7.561,11.133,11.133,0,0,0-2.71-3.077,5.027,5.027,0,0,0-1.87-.833,3.12,3.12,0,0,0-2.008.235,3.1,3.1,0,0,1,2-.212,4.977,4.977,0,0,1,1.848.847,11.087,11.087,0,0,1,2.66,3.088,25.98,25.98,0,0,1,3.129,7.548" fill="#f56d20"/>
        <path id="Trazado_108830" data-name="Trazado 108830" d="M136.7,125.127c-2.492-1.124-4.962-2.315-7.39-3.577a48.871,48.871,0,0,1-6.991-4.235,6.022,6.022,0,0,1-1.378-1.408,2.259,2.259,0,0,1-.179-.442,2.106,2.106,0,0,1-.14-.467c-.051-.331-.137-.653-.16-.993a31.532,31.532,0,0,1-.1-4.082c.09-2.734.328-5.466.616-8.19s.639-5.445,1.065-8.151a23.918,23.918,0,0,0,.39-4.105,18.559,18.559,0,0,0-.478-4.095,26.1,26.1,0,0,0-3.208-7.558,11.126,11.126,0,0,0-2.7-3.077,5.006,5.006,0,0,0-1.868-.835,3.117,3.117,0,0,0-2.007.232,3.114,3.114,0,0,1,2-.215,4.991,4.991,0,0,1,1.85.846,11.072,11.072,0,0,1,2.665,3.087,26,26,0,0,1,3.13,7.551,18.522,18.522,0,0,1,.44,4.063,23.746,23.746,0,0,1-.424,4.071c-.449,2.709-.819,5.428-1.136,8.155s-.574,5.461-.688,8.209a31.766,31.766,0,0,0,.068,4.137c.021.346.108.692.159,1.038a2.5,2.5,0,0,0,.15.517,2.674,2.674,0,0,0,.2.507,6.37,6.37,0,0,0,1.465,1.536,49.366,49.366,0,0,0,7.026,4.342q3.644,1.934,7.389,3.655Z" fill="#f56d20"/>
        <path id="Trazado_108831" data-name="Trazado 108831" d="M49.97,155.732V132.275l13.162-7.6v23.457Z" fill="#bff8fa"/>
        <path id="Trazado_108832" data-name="Trazado 108832" d="M49.97,132.275,36.676,124.6l15.032-8.679,11.424,8.755Z" fill="#a0d9e0"/>
        <path id="Trazado_108833" data-name="Trazado 108833" d="M49.97,155.732l-13.294-7.676V124.6l13.294,7.675Z" fill="#aae3e9"/>
        <path id="Trazado_108834" data-name="Trazado 108834" d="M49.97,131.966v-2.951l13.162-7.6v2.951Z" fill="#bff8fa"/>
        <path id="Trazado_108835" data-name="Trazado 108835" d="M49.97,129.014,36.676,116.739l13.162-7.6,13.294,12.275Z" fill="#b5edf1"/>
        <path id="Trazado_108836" data-name="Trazado 108836" d="M39.435,116.707l8.031-4.636,8.94,8.255-8.03,4.636Z" fill="#f3ffff"/>
        <path id="Trazado_108837" data-name="Trazado 108837" d="M48.357,125.137l-.077-.071L39.2,116.68l8.288-4.784.077.071,9.082,8.385-.167.1Zm-8.684-8.4,8.723,8.055L56.17,120.3l-8.723-8.053Z" fill="#d3ffff"/>
        <path id="Trazado_108838" data-name="Trazado 108838" d="M48.387,111.555l1.549-.895,1.725,1.593-1.549.895Z" fill="#f3ffff"/>
        <path id="Trazado_108839" data-name="Trazado 108839" d="M50.093,113.323l-1.943-1.794,1.807-1.043L51.9,112.28Zm-1.468-1.741,1.507,1.392,1.293-.746-1.508-1.392Z" fill="#d3ffff"/>
        <path id="Trazado_108840" data-name="Trazado 108840" d="M50.833,113.835l1.549-.895,1.725,1.593-1.549.895Z" fill="#fe7eda"/>
        <path id="Trazado_108841" data-name="Trazado 108841" d="M52.538,115.6,50.6,113.808l1.806-1.043,1.943,1.794Zm-1.468-1.741,1.507,1.392,1.293-.746-1.508-1.392Z" fill="#95dcdb"/>
        <path id="Trazado_108842" data-name="Trazado 108842" d="M53.278,116.114l1.549-.895,1.726,1.593-1.55.9Z" fill="#c1a0e5"/>
        <path id="Trazado_108843" data-name="Trazado 108843" d="M54.983,117.882l-1.943-1.794,1.807-1.043,1.943,1.794Zm-1.468-1.742,1.507,1.393,1.293-.748-1.507-1.39Z" fill="#95dcdb"/>
        <path id="Trazado_108844" data-name="Trazado 108844" d="M55.723,118.393l1.549-.9L59,119.091l-1.55.9Z" fill="#f3ffff"/>
        <path id="Trazado_108845" data-name="Trazado 108845" d="M57.428,120.161l-1.943-1.794,1.806-1.043,1.943,1.794ZM55.96,118.42l1.507,1.392,1.293-.747-1.508-1.391Z" fill="#d3ffff"/>
        <path id="Trazado_108846" data-name="Trazado 108846" d="M49.97,131.966l-13.294-7.675V116.74L49.97,129.015Z" fill="#aae3e9"/>
        <path id="Trazado_108847" data-name="Trazado 108847" d="M36.676,116.74c2.17,2.1,4.391,4.135,6.59,6.2s4.449,4.073,6.672,6.111l-.016-.035.048,2.951.048-2.951v-.021L50,128.979c-2.209-2.053-4.395-4.131-6.623-6.163s-4.442-4.08-6.7-6.076" fill="#bef4ed"/>
        <path id="Trazado_108848" data-name="Trazado 108848" d="M6.477,78.23c1.482-.854,1.482-3.629,0-6.195s-3.884-3.954-5.366-3.1l9.578-5.53c1.481-.855,3.884.531,5.365,3.1s1.482,5.341,0,6.2Z" fill="#fba348"/>
        <path id="Trazado_108849" data-name="Trazado 108849" d="M6.477,78.23c-1.482.856-3.884-.531-5.366-3.1s-1.482-5.34,0-6.2,3.884.531,5.366,3.1,1.482,5.341,0,6.195" fill="#f56d20"/>
        <path id="Trazado_108850" data-name="Trazado 108850" d="M2.284,76.261c.38-.219.38-.93,0-1.587S1.289,73.661.909,73.88L3.13,72.6c.38-.22.995.136,1.375.793s.38,1.369,0,1.588Z" fill="#bff8fa"/>
        <path id="Trazado_108851" data-name="Trazado 108851" d="M2.284,76.261c-.38.219-.995-.136-1.375-.794S.53,74.1.909,73.88s1,.136,1.375.794.38,1.368,0,1.587" fill="#b5edf1"/>
        <path id="Trazado_108852" data-name="Trazado 108852" d="M3.732,89.131S1.587,82.945,7.641,81.24s6.3-6.6,8.172-2.947,2.567,8.5,0,10.017S6.477,95.2,3.732,89.131" fill="#9cd3db"/>
        <path id="Trazado_108853" data-name="Trazado 108853" d="M4.612,90.4a.8.8,0,0,0,.336-.739,2.522,2.522,0,0,0-1.141-1.976.8.8,0,0,0-.8-.081l1.007-.582a.8.8,0,0,1,.8.081,2.522,2.522,0,0,1,1.14,1.976.8.8,0,0,1-.336.739Z" fill="#217179"/>
        <path id="Trazado_108854" data-name="Trazado 108854" d="M4.612,90.4a.8.8,0,0,1-.805-.081,2.523,2.523,0,0,1-1.14-1.975A.8.8,0,0,1,3,87.608a.8.8,0,0,1,.8.081,2.522,2.522,0,0,1,1.141,1.976.8.8,0,0,1-.336.739" fill="#217179"/>
        <path id="Trazado_108855" data-name="Trazado 108855" d="M13.6,60.619a.694.694,0,0,0,.408.573,2.18,2.18,0,0,0,1.974,0,.694.694,0,0,0,.41-.567v68.586a.694.694,0,0,1-.41.568,2.186,2.186,0,0,1-1.974,0,.7.7,0,0,1-.408-.573Z" fill="#aae3e9"/>
        <path id="Trazado_108856" data-name="Trazado 108856" d="M16.4,129.212v0Z" fill="#79c1cf"/>
        <path id="Trazado_108857" data-name="Trazado 108857" d="M16.4,129.212a.694.694,0,0,1-.409.567,2.18,2.18,0,0,1-1.974,0,.7.7,0,0,1-.409-.573Z" fill="#79c1cf"/>
        <path id="Trazado_108858" data-name="Trazado 108858" d="M13.6,129.206v0Z" fill="#79c1cf"/>
        <path id="Trazado_108859" data-name="Trazado 108859" d="M13.6,60.619a.693.693,0,0,1,.408-.567,2.18,2.18,0,0,1,1.974,0,.6.6,0,0,1,0,1.14,2.18,2.18,0,0,1-1.974,0,.694.694,0,0,1-.408-.573" fill="#bff8fa"/>
        <path id="Trazado_108860" data-name="Trazado 108860" d="M18.33,85.252c1.481-.855,1.481-3.63,0-6.2s-3.885-3.954-5.366-3.1l9.576-5.53c1.482-.855,3.885.532,5.366,3.1s1.483,5.341,0,6.2Z" fill="#ffe578"/>
        <path id="Trazado_108861" data-name="Trazado 108861" d="M18.33,85.252c-1.483.855-3.885-.531-5.366-3.1s-1.483-5.341,0-6.2,3.883.531,5.366,3.1,1.481,5.341,0,6.2" fill="#ffc126"/>
        <path id="Trazado_108862" data-name="Trazado 108862" d="M14.136,83.282c.38-.219.38-.93,0-1.587s-.995-1.013-1.375-.794l2.221-1.282c.38-.22.995.136,1.375.793s.38,1.369,0,1.588Z" fill="#bff8fa"/>
        <path id="Trazado_108863" data-name="Trazado 108863" d="M14.136,83.282c-.38.219-.995-.136-1.375-.794s-.379-1.368,0-1.587.995.136,1.375.794.38,1.368,0,1.587" fill="#b5edf1"/>
        <path id="Trazado_108864" data-name="Trazado 108864" d="M14.421,95.733s-2.145-6.186,3.909-7.891,6.3-6.6,8.172-2.947,2.567,8.5,0,10.017-9.336,6.893-12.081.821" fill="#9cd3db"/>
        <path id="Trazado_108865" data-name="Trazado 108865" d="M15.3,97.006a.8.8,0,0,0,.336-.739,2.522,2.522,0,0,0-1.141-1.976.8.8,0,0,0-.8-.081l1.007-.582a.8.8,0,0,1,.805.081,2.522,2.522,0,0,1,1.14,1.976.8.8,0,0,1-.335.739Z" fill="#217179"/>
        <path id="Trazado_108866" data-name="Trazado 108866" d="M15.3,97.006a.8.8,0,0,1-.805-.081,2.523,2.523,0,0,1-1.14-1.975.695.695,0,0,1,1.14-.659,2.522,2.522,0,0,1,1.141,1.976.8.8,0,0,1-.336.739" fill="#217179"/>
        <g id="Grupo_57313" data-name="Grupo 57313" opacity="0.36">
          <g id="Grupo_57312" data-name="Grupo 57312">
            <g id="Grupo_57311" data-name="Grupo 57311" clip-path="url(#clip-path-30)">
              <path id="Trazado_108867" data-name="Trazado 108867" d="M21.639,109.063c-1.35.78-2.186,2.45-2.186,4.83a16.485,16.485,0,0,0,7.458,12.918c2.059,1.188,3.923,1.3,5.272.523l1.543-.891c-1.349.779-3.213.665-5.272-.523A16.485,16.485,0,0,1,21,113c0-2.38.836-4.05,2.186-4.83Z" fill="#dff"/>
            </g>
          </g>
        </g>
        <path id="Trazado_108868" data-name="Trazado 108868" d="M32.183,127.334c1.35-.78,2.186-2.45,2.186-4.83a16.485,16.485,0,0,0-7.458-12.918c-2.059-1.188-3.923-1.3-5.272-.523l1.543-.891c1.349-.779,3.214-.665,5.272.523a16.486,16.486,0,0,1,7.459,12.918c0,2.38-.836,4.05-2.187,4.83Z" fill="#217179"/>
        <path id="Trazado_108869" data-name="Trazado 108869" d="M32.183,127.334c-1.349.779-3.213.665-5.272-.523a16.487,16.487,0,0,1-7.458-12.919c0-2.379.836-4.05,2.186-4.829s3.213-.665,5.272.523A16.485,16.485,0,0,1,34.369,122.5c0,2.38-.836,4.05-2.186,4.83" fill="#217179"/>
        <path id="Trazado_108870" data-name="Trazado 108870" d="M31.16,125.562c-1.087.628-2.59.536-4.249-.422A13.287,13.287,0,0,1,20.9,114.727c0-1.917.674-3.264,1.762-3.892s2.59-.536,4.25.422a13.285,13.285,0,0,1,6.011,10.412c0,1.918-.674,3.265-1.762,3.893" fill="#155f63"/>
        <path id="Trazado_108871" data-name="Trazado 108871" d="M29.6,126.174a5.673,5.673,0,0,1-2.79-.852,13.542,13.542,0,0,1-6.116-10.594c0-1.932.663-3.378,1.867-4.073s2.785-.544,4.458.422a13.536,13.536,0,0,1,6.116,10.593c0,1.933-.663,3.379-1.866,4.073a3.28,3.28,0,0,1-1.669.431m-5.37-15.531a2.884,2.884,0,0,0-1.46.373c-1.069.618-1.658,1.936-1.658,3.712a13.076,13.076,0,0,0,5.907,10.232c1.537.889,2.972,1.037,4.041.422s1.657-1.935,1.657-3.712a13.078,13.078,0,0,0-5.907-10.232,5.264,5.264,0,0,0-2.58-.8" fill="#4c94a0"/>
        <path id="Trazado_108872" data-name="Trazado 108872" d="M32.183,127.334c1.35-.78,2.186-2.45,2.186-4.83a16.485,16.485,0,0,0-7.458-12.918c-2.059-1.188-3.923-1.3-5.272-.523l1.543-.891c1.349-.779,3.214-.665,5.272.523a16.486,16.486,0,0,1,7.459,12.918c0,2.38-.836,4.05-2.187,4.83Z" fill="#9cd3db"/>
        <path id="Trazado_108873" data-name="Trazado 108873" d="M151.6,132.384V119.592l2.384-1.377v12.793Z" fill="#aae3e9"/>
        <path id="Trazado_108874" data-name="Trazado 108874" d="M151.6,119.591c-3.9-4.548-8.519-7.214-12.421-7.171l2.384-1.376c3.9-.043,8.519,2.623,12.421,7.171Z" fill="#c9ffff"/>
        <path id="Trazado_108875" data-name="Trazado 108875" d="M151.6,132.384l-12.421-7.171V112.42c3.9-.043,8.519,2.623,12.421,7.172Z" fill="#b5edf1"/>
        <path id="Trazado_108876" data-name="Trazado 108876" d="M81.557,165.731V161.31l55.376-31.971v4.421Z" fill="#bff8fa"/>
        <path id="Trazado_108877" data-name="Trazado 108877" d="M81.557,161.31l-6.543-3.778,55.376-31.971,6.543,3.778Z" fill="#c9ffff"/>
        <g id="Grupo_57316" data-name="Grupo 57316" opacity="0.36">
          <g id="Grupo_57315" data-name="Grupo 57315">
            <g id="Grupo_57314" data-name="Grupo 57314" clip-path="url(#clip-path-31)">
              <path id="Trazado_108878" data-name="Trazado 108878" d="M81.557,165.731l-6.543-3.778v-4.421l6.543,3.778Z" fill="#dff"/>
            </g>
          </g>
        </g>
        <path id="Trazado_108879" data-name="Trazado 108879" d="M138.12,124.132a1.167,1.167,0,0,0,.487-1.074,3.662,3.662,0,0,0-1.658-2.872,1.164,1.164,0,0,0-1.171-.117l6.845-3.952a1.164,1.164,0,0,1,1.171.117,3.662,3.662,0,0,1,1.658,2.872,1.165,1.165,0,0,1-.487,1.074Z" fill="#aae3e9"/>
        <path id="Trazado_108880" data-name="Trazado 108880" d="M138.12,124.132a1.164,1.164,0,0,1-1.171-.117,3.665,3.665,0,0,1-1.658-2.872,1.01,1.01,0,0,1,1.658-.957,3.662,3.662,0,0,1,1.658,2.872,1.167,1.167,0,0,1-.487,1.074" fill="#aae3e9"/>
        <path id="Trazado_108881" data-name="Trazado 108881" d="M83.223,157.6a2.067,2.067,0,0,0,.862-1.9,6.5,6.5,0,0,0-2.941-5.094,2.066,2.066,0,0,0-2.079-.206l56.2-32.448a2.067,2.067,0,0,1,2.079.207,6.5,6.5,0,0,1,2.941,5.093,2.07,2.07,0,0,1-.862,1.9Z" fill="#ffaf73"/>
      </g>
    </g>
    <g id="Grupo_57320" data-name="Grupo 57320">
      <g id="Grupo_57319" data-name="Grupo 57319" clip-path="url(#clip-path-32)">
        <path id="Trazado_108882" data-name="Trazado 108882" d="M135.3,117.973a1.69,1.69,0,0,1,1.194.1,3.846,3.846,0,0,1,1,.645,7.972,7.972,0,0,1,2.388,4.136,3.8,3.8,0,0,1,.059,1.187,1.689,1.689,0,0,1-.51,1.085l.028.049a1.732,1.732,0,0,0,.768-1.051,3.51,3.51,0,0,0,.1-1.314,6.542,6.542,0,0,0-2.57-4.454,3.545,3.545,0,0,0-1.186-.573,1.736,1.736,0,0,0-1.3.139Z" fill="#f56d20"/>
        <path id="Trazado_108883" data-name="Trazado 108883" d="M132.976,119.312a1.685,1.685,0,0,1,1.194.1,3.774,3.774,0,0,1,1,.645,7.957,7.957,0,0,1,2.389,4.135,3.8,3.8,0,0,1,.059,1.187,1.694,1.694,0,0,1-.51,1.085l.028.049a1.732,1.732,0,0,0,.768-1.051,3.509,3.509,0,0,0,.1-1.314,6.542,6.542,0,0,0-2.57-4.454,3.54,3.54,0,0,0-1.187-.573,1.734,1.734,0,0,0-1.294.139Z" fill="#f56d20"/>
        <path id="Trazado_108884" data-name="Trazado 108884" d="M130.646,120.651a1.685,1.685,0,0,1,1.194.1,3.8,3.8,0,0,1,1,.645,7.964,7.964,0,0,1,2.388,4.135,3.8,3.8,0,0,1,.059,1.187,1.689,1.689,0,0,1-.51,1.085l.028.049a1.732,1.732,0,0,0,.768-1.051,3.51,3.51,0,0,0,.1-1.314,6.542,6.542,0,0,0-2.57-4.454,3.54,3.54,0,0,0-1.187-.573,1.734,1.734,0,0,0-1.294.139Z" fill="#f56d20"/>
        <path id="Trazado_108885" data-name="Trazado 108885" d="M128.318,121.99a1.683,1.683,0,0,1,1.193.1,3.758,3.758,0,0,1,1,.645,7.957,7.957,0,0,1,2.389,4.135,3.8,3.8,0,0,1,.06,1.187,1.7,1.7,0,0,1-.511,1.085l.028.049a1.732,1.732,0,0,0,.768-1.051,3.489,3.489,0,0,0,.1-1.314,6.542,6.542,0,0,0-2.57-4.454,3.54,3.54,0,0,0-1.187-.573,1.734,1.734,0,0,0-1.294.139Z" fill="#f56d20"/>
        <path id="Trazado_108886" data-name="Trazado 108886" d="M125.988,123.329a1.685,1.685,0,0,1,1.194.1,3.8,3.8,0,0,1,1,.645,7.964,7.964,0,0,1,2.388,4.135,3.8,3.8,0,0,1,.059,1.187,1.689,1.689,0,0,1-.51,1.085l.028.049a1.732,1.732,0,0,0,.768-1.051,3.51,3.51,0,0,0,.1-1.314,6.542,6.542,0,0,0-2.57-4.454,3.54,3.54,0,0,0-1.187-.573,1.734,1.734,0,0,0-1.294.139Z" fill="#f56d20"/>
        <path id="Trazado_108887" data-name="Trazado 108887" d="M123.659,124.668a1.685,1.685,0,0,1,1.194.1,3.774,3.774,0,0,1,1,.645,7.957,7.957,0,0,1,2.389,4.135,3.8,3.8,0,0,1,.059,1.187,1.694,1.694,0,0,1-.51,1.085l.028.049a1.732,1.732,0,0,0,.768-1.051,3.51,3.51,0,0,0,.1-1.314,6.542,6.542,0,0,0-2.57-4.454,3.54,3.54,0,0,0-1.187-.573,1.734,1.734,0,0,0-1.294.139Z" fill="#f56d20"/>
        <path id="Trazado_108888" data-name="Trazado 108888" d="M121.33,126.007a1.69,1.69,0,0,1,1.194.1,3.847,3.847,0,0,1,1,.645,7.973,7.973,0,0,1,2.388,4.136,3.8,3.8,0,0,1,.059,1.187,1.689,1.689,0,0,1-.51,1.085l.028.049a1.732,1.732,0,0,0,.768-1.051,3.51,3.51,0,0,0,.1-1.314,6.542,6.542,0,0,0-2.57-4.454,3.54,3.54,0,0,0-1.187-.573,1.734,1.734,0,0,0-1.294.139Z" fill="#f56d20"/>
        <path id="Trazado_108889" data-name="Trazado 108889" d="M119,127.346a1.685,1.685,0,0,1,1.194.1,3.8,3.8,0,0,1,1,.644,7.965,7.965,0,0,1,2.389,4.136,3.8,3.8,0,0,1,.059,1.187,1.694,1.694,0,0,1-.51,1.085l.028.049a1.732,1.732,0,0,0,.768-1.051,3.51,3.51,0,0,0,.1-1.314,6.542,6.542,0,0,0-2.57-4.454,3.54,3.54,0,0,0-1.187-.573,1.734,1.734,0,0,0-1.294.139Z" fill="#f56d20"/>
        <path id="Trazado_108890" data-name="Trazado 108890" d="M116.672,128.685a1.685,1.685,0,0,1,1.194.1,3.8,3.8,0,0,1,1,.644,7.965,7.965,0,0,1,2.389,4.136,3.8,3.8,0,0,1,.059,1.187,1.694,1.694,0,0,1-.51,1.085l.028.049a1.732,1.732,0,0,0,.768-1.051,3.51,3.51,0,0,0,.1-1.314,6.542,6.542,0,0,0-2.57-4.454,3.54,3.54,0,0,0-1.187-.573,1.734,1.734,0,0,0-1.294.139Z" fill="#f56d20"/>
        <path id="Trazado_108891" data-name="Trazado 108891" d="M114.343,130.023a1.685,1.685,0,0,1,1.194.1,3.774,3.774,0,0,1,1,.645,7.957,7.957,0,0,1,2.389,4.135,3.8,3.8,0,0,1,.059,1.187,1.694,1.694,0,0,1-.51,1.085l.028.049a1.732,1.732,0,0,0,.768-1.051,3.509,3.509,0,0,0,.1-1.314,6.542,6.542,0,0,0-2.57-4.454,3.54,3.54,0,0,0-1.187-.573,1.734,1.734,0,0,0-1.294.139Z" fill="#f56d20"/>
        <path id="Trazado_108892" data-name="Trazado 108892" d="M112.014,131.362a1.685,1.685,0,0,1,1.194.1,3.8,3.8,0,0,1,1,.645,7.964,7.964,0,0,1,2.388,4.135,3.8,3.8,0,0,1,.059,1.187,1.689,1.689,0,0,1-.51,1.085l.028.049a1.732,1.732,0,0,0,.768-1.051,3.51,3.51,0,0,0,.1-1.314,6.542,6.542,0,0,0-2.57-4.454,3.545,3.545,0,0,0-1.186-.573,1.736,1.736,0,0,0-1.295.139Z" fill="#f56d20"/>
        <path id="Trazado_108893" data-name="Trazado 108893" d="M109.685,132.7a1.685,1.685,0,0,1,1.194.1,3.774,3.774,0,0,1,1,.645,7.957,7.957,0,0,1,2.389,4.135,3.8,3.8,0,0,1,.059,1.187,1.694,1.694,0,0,1-.51,1.085l.028.049a1.732,1.732,0,0,0,.768-1.051,3.51,3.51,0,0,0,.1-1.314,6.552,6.552,0,0,0-2.57-4.454,3.54,3.54,0,0,0-1.187-.573,1.734,1.734,0,0,0-1.294.139Z" fill="#f56d20"/>
        <path id="Trazado_108894" data-name="Trazado 108894" d="M107.356,134.04a1.685,1.685,0,0,1,1.194.1,3.8,3.8,0,0,1,1,.645,7.964,7.964,0,0,1,2.388,4.135A3.8,3.8,0,0,1,112,140.11a1.689,1.689,0,0,1-.51,1.085l.028.049a1.732,1.732,0,0,0,.768-1.051,3.51,3.51,0,0,0,.1-1.314,6.542,6.542,0,0,0-2.57-4.454,3.544,3.544,0,0,0-1.186-.573,1.736,1.736,0,0,0-1.295.139Z" fill="#f56d20"/>
        <path id="Trazado_108895" data-name="Trazado 108895" d="M105.027,135.379a1.685,1.685,0,0,1,1.194.1,3.774,3.774,0,0,1,1,.645,7.957,7.957,0,0,1,2.389,4.135,3.8,3.8,0,0,1,.059,1.187,1.694,1.694,0,0,1-.51,1.085l.028.049a1.732,1.732,0,0,0,.768-1.051,3.51,3.51,0,0,0,.1-1.314,6.552,6.552,0,0,0-2.57-4.454,3.54,3.54,0,0,0-1.187-.573,1.734,1.734,0,0,0-1.294.139Z" fill="#f56d20"/>
        <path id="Trazado_108896" data-name="Trazado 108896" d="M102.7,136.718a1.69,1.69,0,0,1,1.194.1,3.846,3.846,0,0,1,1,.645,7.972,7.972,0,0,1,2.388,4.136,3.8,3.8,0,0,1,.059,1.187,1.694,1.694,0,0,1-.51,1.085l.028.049a1.732,1.732,0,0,0,.768-1.051,3.51,3.51,0,0,0,.1-1.314,6.542,6.542,0,0,0-2.57-4.454,3.54,3.54,0,0,0-1.187-.573,1.734,1.734,0,0,0-1.294.139Z" fill="#f56d20"/>
        <path id="Trazado_108897" data-name="Trazado 108897" d="M100.369,138.057a1.69,1.69,0,0,1,1.194.1,3.825,3.825,0,0,1,1,.645,7.965,7.965,0,0,1,2.389,4.136,3.8,3.8,0,0,1,.059,1.187,1.694,1.694,0,0,1-.51,1.085l.028.049a1.732,1.732,0,0,0,.768-1.051,3.51,3.51,0,0,0,.1-1.314,6.552,6.552,0,0,0-2.57-4.454,3.54,3.54,0,0,0-1.187-.573,1.734,1.734,0,0,0-1.294.139Z" fill="#f56d20"/>
        <path id="Trazado_108898" data-name="Trazado 108898" d="M98.04,139.4a1.685,1.685,0,0,1,1.194.1,3.8,3.8,0,0,1,1,.644,7.965,7.965,0,0,1,2.389,4.136,3.8,3.8,0,0,1,.059,1.187,1.694,1.694,0,0,1-.51,1.085l.028.049a1.732,1.732,0,0,0,.768-1.051,3.51,3.51,0,0,0,.1-1.314,6.542,6.542,0,0,0-2.57-4.454,3.54,3.54,0,0,0-1.187-.573,1.734,1.734,0,0,0-1.294.139Z" fill="#f56d20"/>
        <path id="Trazado_108899" data-name="Trazado 108899" d="M95.711,140.735a1.685,1.685,0,0,1,1.194.1,3.8,3.8,0,0,1,1,.644,7.965,7.965,0,0,1,2.389,4.136,3.8,3.8,0,0,1,.059,1.187,1.694,1.694,0,0,1-.51,1.085l.028.049a1.732,1.732,0,0,0,.768-1.051,3.51,3.51,0,0,0,.1-1.314,6.552,6.552,0,0,0-2.57-4.454,3.54,3.54,0,0,0-1.187-.573,1.734,1.734,0,0,0-1.294.139Z" fill="#f56d20"/>
        <path id="Trazado_108900" data-name="Trazado 108900" d="M93.382,142.074a1.685,1.685,0,0,1,1.194.1,3.774,3.774,0,0,1,1,.645,7.957,7.957,0,0,1,2.389,4.135,3.8,3.8,0,0,1,.059,1.187,1.694,1.694,0,0,1-.51,1.085l.028.049a1.732,1.732,0,0,0,.768-1.051,3.51,3.51,0,0,0,.1-1.314,6.542,6.542,0,0,0-2.57-4.454,3.54,3.54,0,0,0-1.187-.573,1.734,1.734,0,0,0-1.294.139Z" fill="#f56d20"/>
        <path id="Trazado_108901" data-name="Trazado 108901" d="M91.053,143.413a1.685,1.685,0,0,1,1.194.1,3.774,3.774,0,0,1,1,.645,7.957,7.957,0,0,1,2.389,4.135,3.8,3.8,0,0,1,.059,1.187,1.694,1.694,0,0,1-.51,1.085l.028.049a1.732,1.732,0,0,0,.768-1.051,3.509,3.509,0,0,0,.1-1.314,6.552,6.552,0,0,0-2.57-4.454,3.54,3.54,0,0,0-1.187-.573,1.734,1.734,0,0,0-1.294.139Z" fill="#f56d20"/>
        <path id="Trazado_108902" data-name="Trazado 108902" d="M88.724,144.751a1.685,1.685,0,0,1,1.194.1,3.774,3.774,0,0,1,1,.645,7.957,7.957,0,0,1,2.389,4.135,3.8,3.8,0,0,1,.059,1.187,1.694,1.694,0,0,1-.51,1.085l.028.049a1.732,1.732,0,0,0,.768-1.051,3.51,3.51,0,0,0,.1-1.314,6.542,6.542,0,0,0-2.57-4.454,3.54,3.54,0,0,0-1.187-.573,1.734,1.734,0,0,0-1.294.139Z" fill="#f56d20"/>
        <path id="Trazado_108903" data-name="Trazado 108903" d="M86.395,146.09a1.685,1.685,0,0,1,1.194.1,3.774,3.774,0,0,1,1,.645,7.957,7.957,0,0,1,2.389,4.135,3.8,3.8,0,0,1,.059,1.187,1.694,1.694,0,0,1-.51,1.085l.028.049a1.732,1.732,0,0,0,.768-1.051,3.51,3.51,0,0,0,.1-1.314,6.552,6.552,0,0,0-2.57-4.454,3.54,3.54,0,0,0-1.187-.573,1.734,1.734,0,0,0-1.294.139Z" fill="#f56d20"/>
        <path id="Trazado_108904" data-name="Trazado 108904" d="M84.065,147.429a1.685,1.685,0,0,1,1.194.1,3.774,3.774,0,0,1,1,.645,7.957,7.957,0,0,1,2.389,4.135,3.8,3.8,0,0,1,.059,1.187,1.694,1.694,0,0,1-.51,1.085l.028.049a1.732,1.732,0,0,0,.768-1.051,3.51,3.51,0,0,0,.1-1.314,6.542,6.542,0,0,0-2.57-4.454,3.54,3.54,0,0,0-1.187-.573,1.734,1.734,0,0,0-1.294.139Z" fill="#f56d20"/>
        <path id="Trazado_108905" data-name="Trazado 108905" d="M81.737,148.768a1.688,1.688,0,0,1,1.193.1,3.809,3.809,0,0,1,1,.645,7.965,7.965,0,0,1,2.389,4.136,3.8,3.8,0,0,1,.06,1.187,1.7,1.7,0,0,1-.51,1.085l.028.049a1.731,1.731,0,0,0,.767-1.051,3.489,3.489,0,0,0,.1-1.314,6.552,6.552,0,0,0-2.57-4.454A3.536,3.536,0,0,0,83,148.58a1.736,1.736,0,0,0-1.295.139Z" fill="#f56d20"/>
        <path id="Trazado_108906" data-name="Trazado 108906" d="M79.407,150.107a1.685,1.685,0,0,1,1.194.1,3.8,3.8,0,0,1,1,.644,7.965,7.965,0,0,1,2.389,4.136,3.8,3.8,0,0,1,.059,1.187,1.694,1.694,0,0,1-.51,1.085l.028.049a1.732,1.732,0,0,0,.768-1.051,3.51,3.51,0,0,0,.1-1.314,6.542,6.542,0,0,0-2.57-4.454,3.54,3.54,0,0,0-1.187-.573,1.734,1.734,0,0,0-1.294.139Z" fill="#f56d20"/>
      </g>
    </g>
    <g id="Grupo_57325" data-name="Grupo 57325">
      <g id="Grupo_57324" data-name="Grupo 57324" clip-path="url(#clip-path)">
        <g id="Grupo_57323" data-name="Grupo 57323" opacity="0.36">
          <g id="Grupo_57322" data-name="Grupo 57322">
            <g id="Grupo_57321" data-name="Grupo 57321" clip-path="url(#clip-path-34)">
              <path id="Trazado_108908" data-name="Trazado 108908" d="M83.223,157.6a2.068,2.068,0,0,1-2.079-.206A6.5,6.5,0,0,1,78.2,152.3a1.793,1.793,0,0,1,2.941-1.7,6.5,6.5,0,0,1,2.941,5.094,2.067,2.067,0,0,1-.862,1.9" fill="#dff"/>
            </g>
          </g>
        </g>
        <path id="Trazado_108909" data-name="Trazado 108909" d="M83.464,171.722V158.93l6.085-3.514v12.792Z" fill="#aae3e9"/>
        <path id="Trazado_108910" data-name="Trazado 108910" d="M83.464,158.93c-3.9-4.548-8.519-7.214-12.421-7.171l6.086-3.514c3.9-.043,8.519,2.623,12.42,7.171Z" fill="#c9ffff"/>
        <path id="Trazado_108911" data-name="Trazado 108911" d="M83.464,171.722l-12.421-7.171V151.758c3.9-.043,8.519,2.623,12.421,7.172Z" fill="#b5edf1"/>
        <path id="Trazado_108912" data-name="Trazado 108912" d="M150.56,47.725a3.253,3.253,0,0,0-3.112,1.079c-1.435,1.546-2.691,7.3-3.391,7.787s-5.884,3.247-5.884,3.247-1.111,3.591,2.057,2.947,7.882-3.675,9.339-6.162.991-8.9.991-8.9" fill="#9eb729"/>
        <path id="Trazado_108913" data-name="Trazado 108913" d="M156.393,39.347s-.138.311.453.553a1.5,1.5,0,0,0,1.443,0c.313-.24.168-.842.168-.842s1.035-.216,1.058-.986-.48-.769-.48-.769.36-.838-.1-1.273a1.047,1.047,0,0,0-1.028-.228s-.125-.952-.92-.88-.794.433-.794.433-.187-.337-.743,0-.363.76-.363.76-.529-.08-.721.289a.547.547,0,0,0,0,.6.64.64,0,0,0-.313.56c-.033.434,2.337,1.781,2.337,1.781" fill="#1d2236"/>
        <path id="Trazado_108914" data-name="Trazado 108914" d="M151.982,93.6s.5,2.513.126,2.74-1.785.377-2.237.93a8.02,8.02,0,0,1-3.092,2.538c-1.408.478-2.086.327-2.187-.477s.629-1.634,1.157-2.187,3.167-2.338,3.242-2.488.653-1.056.653-1.056Z" fill="#7d85a8"/>
        <path id="Trazado_108915" data-name="Trazado 108915" d="M151.982,93.295s.5,2.514.126,2.74-1.785.377-2.237.93a8.02,8.02,0,0,1-3.092,2.538c-1.408.478-2.086.327-2.187-.477s.629-1.634,1.157-2.187,3.167-2.338,3.242-2.488.653-1.056.653-1.056Z" fill="#1d2236"/>
        <path id="Trazado_108916" data-name="Trazado 108916" d="M160.478,97.267a17.653,17.653,0,0,1,.5,3.092c0,1.08.1,2.513-.93,3.116s-1.307.629-1.986.3-.829-1.584-.7-2.313.478-.779.478-1.583.151-2.614.151-2.614Z" fill="#7d85a8"/>
        <path id="Trazado_108917" data-name="Trazado 108917" d="M160.478,96.965a17.653,17.653,0,0,1,.5,3.092c0,1.081.1,2.513-.93,3.116s-1.307.629-1.986.3-.829-1.584-.7-2.312.478-.78.478-1.584.151-2.614.151-2.614Z" fill="#1d2236"/>
        <path id="Trazado_108918" data-name="Trazado 108918" d="M152.744,67.527s-.67,11.542,0,14.244a13.173,13.173,0,0,1,.443,5.418,37.712,37.712,0,0,0,.932,6.893,3.9,3.9,0,0,1-2.844.916,8.413,8.413,0,0,1-2.86-1.4c-.067-.15-.787-11.629-1.189-13.639S144.969,71,145.773,66.743s2.265-5.1,2.265-5.1l3.1,1.021Z" fill="#b1ce36"/>
        <path id="Trazado_108919" data-name="Trazado 108919" d="M156.565,63.172a24.6,24.6,0,0,1,2.882,10.508c0,4.761-.871,7.853-.335,9.223s1.072,1.679,1.408,3.937.268,9.871.268,9.871-.5,2.091-1.636,2.1a5.124,5.124,0,0,1-3.875-1.841s.429-8.155-.241-9.632-.482-3.088-1.219-6.895-2.346-9.334-2.346-9.334-1.206-5.074-1-6.778l.2-1.7Z" fill="#c0da5b"/>
        <path id="Trazado_108920" data-name="Trazado 108920" d="M159.666,71.372a9.726,9.726,0,0,1-2.714,2.509,9.435,9.435,0,0,1-6.116.123c-3.5-1.044-5.524-3.7-5.062-7.261a22.392,22.392,0,0,1,.917-3.7c1.028-1.4-.783-5.921-.448-7.4S148.4,49.546,148.4,48.8s2.587-1.368,4.67-1.449,2.562.824,2.562.824a13.087,13.087,0,0,1,3.543,4.039c1.005,2.16-1.465,6.523-1.772,7.994s1.58,7.5,2.011,9.212a15.885,15.885,0,0,1,.248,1.948" fill="#6b8310"/>
        <path id="Trazado_108921" data-name="Trazado 108921" d="M153.389,48.982c0-.176,1.835-.176,1.835-.176s0,2.589-1.156,3.393-3.318,2.112-3.318,2.112-.226-3.62-.126-4.449a4.842,4.842,0,0,1,.4-1.433Z" fill="#8e4225"/>
        <path id="Trazado_108922" data-name="Trazado 108922" d="M156.255,48.52a4.147,4.147,0,0,1-.176,3.027c-.126.176-1.206,0-1.206,0l-.377,1.231-3.47,1.357s2.211-2.2,3.193-3.116c2.07-1.923,1.357-3.142.025-3.494a3.409,3.409,0,0,0-3.217,1.508,42.687,42.687,0,0,0-.327,4.9l-1.131-3.254.98-1.194s-.251-.449-.477-.966,2.484-2.028,3.793-2.1,1.837,1.014,2.39,2.1" fill="#9eb729"/>
        <path id="Trazado_108923" data-name="Trazado 108923" d="M155.224,45.564s.2,3.066.276,3.293-.208,2.185-2.614,1.86c-1.075-.146-1.885-.955-1.86-1.684s.2-2.464.2-2.464Z" fill="#8e4225"/>
        <path id="Trazado_108924" data-name="Trazado 108924" d="M150.684,42.906l-1.158-.514a1.077,1.077,0,0,1-.279-1.1c.216-.65.524-.6.524-.6s.053-1.611.75-1.9a3.069,3.069,0,0,1,.938-.289s.917-1.01,1.625-.914a2.91,2.91,0,0,1,.939.23,3.121,3.121,0,0,1,1.284-.236,1.3,1.3,0,0,1,.673.607s1.2.553,1.323,1.058,0,.674,0,.674.673,1.034.6,1.4a1.011,1.011,0,0,1-.409.577,2.755,2.755,0,0,1,.217,1.2.919.919,0,0,1-.372.593,3.88,3.88,0,0,1-.229,1.235,1.239,1.239,0,0,1-.515.241s-.072.95-.9,1.026a5.946,5.946,0,0,1-2.38-.81Z" fill="#1d2236"/>
        <path id="Trazado_108925" data-name="Trazado 108925" d="M150.368,41.07a2.975,2.975,0,0,0-.842,1.323,3.334,3.334,0,0,0,0,1.3c.024.5-.216.337-.168,1.107s-.1,2.511,1.2,2.927a5.231,5.231,0,0,0,3.56-.619,3.507,3.507,0,0,0,1.01-1.346.983.983,0,0,0,.652-.241c.31-.265,1.176-1.78.646-1.924a1.982,1.982,0,0,0-1.274.361,8.4,8.4,0,0,1-2.18-.409c-.369-.265-.2-.7-.5-.842s-.669.161-1-.288-.722-.529-.914-.938Z" fill="#ad5a3b"/>
        <path id="Trazado_108926" data-name="Trazado 108926" d="M156.141,69.484c-.143,0-1.089.119-1.335.168s-.707.714-1.146.761c-.887.094-.456.63.707.461.269-.039,1.158-.053,1.158-.053a4.642,4.642,0,0,1-.637,1.381c-1.043.888-1.229,1.142-1.067,1.345s.591-.256.591-.256-.461.508.025.557.645-.207.645-.207a.362.362,0,0,0,.194.3c.2.118.9-.349.93-.349s1.331-.463,1.544-.5.3-1.156.335-1.575a2.062,2.062,0,0,0-1.944-2.03" fill="#ad5a3b"/>
        <path id="Trazado_108927" data-name="Trazado 108927" d="M157,53.217a1.534,1.534,0,0,1,2.339-.525c1.549,1.015,2.29,8.391,2.413,10.093s-3.665,8.451-3.665,8.451a2.573,2.573,0,0,1-1.6-.925c-.6-.806-.6-1-.6-1l1.911-6.193s-2.293-8.087-.792-9.9" fill="#9eb729"/>
        <path id="Trazado_108928" data-name="Trazado 108928" d="M138.656,60.146a1.99,1.99,0,0,0-2.088-.317,6.7,6.7,0,0,0-1.722.744c-.506.292-2.084,1.641-2.321,1.682s.123.329.422.35a2.713,2.713,0,0,0,.607-.04,2.974,2.974,0,0,1-.319.348c-.062.031-.005.259.332.258a4.644,4.644,0,0,0,1.417-.35,17.551,17.551,0,0,1,1.707-.484s.041.71-.061.772-.844.185-1.019.421a.368.368,0,0,0-.02.463c.03.042,1.594-.174,1.7-.154s.813-.864.885-.905.925-.875.915-1.173a3.884,3.884,0,0,0-.432-1.615" fill="#ad5a3b"/>
      </g>
    </g>
  </g>
</svg>
