<svg xmlns="http://www.w3.org/2000/svg" xmlns:xlink="http://www.w3.org/1999/xlink" width="85" height="85" viewBox="0 0 85 85">
  <defs>
    <clipPath id="clip-path">
      <rect id="Rectángulo_6327" data-name="Rectángulo 6327" width="85" height="85" transform="translate(180 404)" fill="#fff" stroke="#707070" stroke-width="1"/>
    </clipPath>
  </defs>
  <g id="Enmascarar_grupo_48" data-name="Enmascarar grupo 48" transform="translate(-180 -404)" clip-path="url(#clip-path)">
    <g id="textil" transform="translate(180 404.071)">
      <g id="Grupo_57171" data-name="Grupo 57171">
        <path id="Trazado_108538" data-name="Trazado 108538" d="M80.938,1.24a9.77,9.77,0,0,0-9.775,9.775h4.96A4.812,4.812,0,0,1,80.938,6.2a2.48,2.48,0,0,0,0-4.96Z" fill="#e9dcfa"/>
        <g id="Grupo_57166" data-name="Grupo 57166">
          <path id="Trazado_108539" data-name="Trazado 108539" d="M51.375,10.629a19.278,19.278,0,0,0-6.3,11.327v4.462H82.248L66.769,6.562Z" fill="#e9dcfa"/>
          <path id="Trazado_108540" data-name="Trazado 108540" d="M80.4,14.768l-30.792,23.1a19.309,19.309,0,0,0,24.869,3.549l8.8-14a19.7,19.7,0,0,0,.135-2.287A19.21,19.21,0,0,0,80.4,14.768Z" fill="#ff8e9e"/>
          <g id="Grupo_57165" data-name="Grupo 57165">
            <path id="Trazado_108541" data-name="Trazado 108541" d="M73.919,8.5,68.479,27.269A13.277,13.277,0,0,0,74.506,29.5a25.135,25.135,0,0,0,5.9-14.737A19.423,19.423,0,0,0,73.919,8.5Z" fill="#b28ae4"/>
            <path id="Trazado_108542" data-name="Trazado 108542" d="M56.713,32.5,45.4,29.885a19.282,19.282,0,0,0,4.211,7.988,25.3,25.3,0,0,0,12.753-.41A25.468,25.468,0,0,1,56.713,32.5Z" fill="#b28ae4"/>
          </g>
          <path id="Trazado_108543" data-name="Trazado 108543" d="M73.919,8.5A19.185,19.185,0,0,0,67.29,6.09h-.521v.472a13.34,13.34,0,0,1-2.34,16.352L52.9,26.419a13.37,13.37,0,0,1-7.832-4.462,19.435,19.435,0,0,0,.328,7.928A19.266,19.266,0,0,0,56.713,32.5l11.765-5.231A19.288,19.288,0,0,0,73.919,8.5Z" fill="#c9aaf2"/>
          <path id="Trazado_108544" data-name="Trazado 108544" d="M59.362,23V6.418a19.279,19.279,0,0,0-7.988,4.211A25.284,25.284,0,0,0,62.363,37.463a25.08,25.08,0,0,0,12.116,3.959,19.424,19.424,0,0,0,6.266-6.483Z" fill="#ffb5c0"/>
          <path id="Trazado_108545" data-name="Trazado 108545" d="M83.284,27.42a19.187,19.187,0,0,1-2.538,7.518A19.309,19.309,0,0,1,59.362,6.418a19.357,19.357,0,0,1,4.752-.59,19.643,19.643,0,0,1,3.176.261c-.178.154-.353.312-.521.472A13.358,13.358,0,0,0,83.284,27.42Z" fill="#ffdbe0"/>
        </g>
        <g id="Grupo_57169" data-name="Grupo 57169">
          <path id="Trazado_108546" data-name="Trazado 108546" d="M18.064,33.966v7.992a2.48,2.48,0,0,0,4.96,0V33.966Z" fill="#0caf7b"/>
          <g id="Grupo_57167" data-name="Grupo 57167">
            <path id="Trazado_108547" data-name="Trazado 108547" d="M32.387,12.249A10,10,0,0,0,22.453,1.24L15.232,6.98v24.7h9.476a4.252,4.252,0,0,0,8.473-.344,10.09,10.09,0,0,0,6.668-9.529A9.9,9.9,0,0,0,32.387,12.249Z" fill="#efedff"/>
            <path id="Trazado_108548" data-name="Trazado 108548" d="M22.453,1.24a10.019,10.019,0,0,0-8.226,4.316A13,13,0,0,0,1.24,18.577a12.591,12.591,0,0,0,3.572,8.7,5.805,5.805,0,0,0,10.741,4.4H20.78V26.7a10.487,10.487,0,0,1,1.191-12.168.771.771,0,0,0,0-1.011A9.055,9.055,0,0,1,22.453,1.24Z" fill="#d4d4ff"/>
          </g>
          <g id="Grupo_57168" data-name="Grupo 57168">
            <path id="Trazado_108549" data-name="Trazado 108549" d="M24.484,28.789l-1.314.625-.487-1.371a1.985,1.985,0,0,0-1.9-1.344l-.853.527v7.783h4.439A5.43,5.43,0,0,0,26.553,32.8l.625-1.314A2.022,2.022,0,0,0,24.484,28.789Z" fill="#30cd9c"/>
            <path id="Trazado_108550" data-name="Trazado 108550" d="M20.737,31.646A6.123,6.123,0,0,1,20.78,26.7a1.99,1.99,0,0,0-1.907,1.344l-.487,1.371-1.314-.625a2.022,2.022,0,0,0-2.694,2.694L15,32.8a6.688,6.688,0,0,0,5.775,3.218,7.218,7.218,0,0,0,3.588-1.005A6.123,6.123,0,0,1,20.737,31.646Z" fill="#0caf7b"/>
          </g>
        </g>
        <g id="Grupo_57170" data-name="Grupo 57170">
          <path id="Trazado_108551" data-name="Trazado 108551" d="M57.6,67.193l-2.458-2.458L57.6,62.277a2.048,2.048,0,0,0,0-2.9l-2.458-2.458L57.6,54.464a2.048,2.048,0,0,0,0-2.9l-4.916-4.916a2.048,2.048,0,0,0-2.9,0L47.331,49.11l-2.458-2.458a2.048,2.048,0,0,0-2.9,0L23.893,64.735,41.977,82.819a2.048,2.048,0,0,0,2.9,0l2.458-2.458,2.458,2.458a2.048,2.048,0,0,0,2.9,0L57.6,77.9a2.048,2.048,0,0,0,0-2.9l-2.458-2.458L57.6,70.09A2.048,2.048,0,0,0,57.6,67.193Z" fill="#c9aaf2"/>
          <path id="Trazado_108552" data-name="Trazado 108552" d="M39.518,49.11,37.06,46.652a2.048,2.048,0,0,0-2.9,0L31.706,49.11l-2.458-2.458a2.048,2.048,0,0,0-2.9,0l-4.916,4.916a2.048,2.048,0,0,0,0,2.9l2.458,2.458-2.458,2.458a2.048,2.048,0,0,0,0,2.9l2.458,2.458-2.458,2.458a2.048,2.048,0,0,0,0,2.9l2.458,2.458-2.458,2.458a2.048,2.048,0,0,0,0,2.9l4.916,4.916a2.048,2.048,0,0,0,2.9,0l2.458-2.458,2.458,2.458a2.048,2.048,0,0,0,2.9,0l2.458-2.458a22.1,22.1,0,0,1,0-31.251Z" fill="#b28ae4"/>
        </g>
      </g>
      <g id="Grupo_57176" data-name="Grupo 57176">
        <g id="Grupo_57172" data-name="Grupo 57172">
          <path id="Trazado_108553" data-name="Trazado 108553" d="M64.114,5.829a19.3,19.3,0,1,0,19.3,19.3A19.308,19.308,0,0,0,64.114,5.829Zm-14.5,32.044a25.282,25.282,0,0,0,12.753-.41M74.506,29.5a25.127,25.127,0,0,0,5.9-14.737m-35,15.117A19.253,19.253,0,0,0,56.713,32.5m11.765-5.231A19.3,19.3,0,0,0,73.919,8.5m-7.15-1.939a13.339,13.339,0,0,1-2.34,16.352m-19.358-.958A13.367,13.367,0,0,0,52.9,26.419m-1.528-15.79a25.28,25.28,0,0,0,23.1,30.792m8.8-14a13.285,13.285,0,0,1-7.29,2.168c-12.321,0-18.105-15.411-8.7-23.5m-7.928.328c-8.63,14.607,4.644,32.757,21.383,28.52" fill="none" stroke="#000" stroke-linecap="round" stroke-linejoin="round" stroke-miterlimit="10" stroke-width="2.48" stroke-dasharray="491 30 1000 0 1000 0"/>
          <path id="Trazado_108554" data-name="Trazado 108554" d="M76.213,10.092A4.812,4.812,0,0,1,80.938,6.2a2.48,2.48,0,0,0,0-4.96,9.77,9.77,0,0,0-9.1,6.2" fill="none" stroke="#000" stroke-linecap="round" stroke-linejoin="round" stroke-miterlimit="10" stroke-width="2.48"/>
        </g>
        <g id="Grupo_57174" data-name="Grupo 57174">
          <g id="Grupo_57173" data-name="Grupo 57173">
            <path id="Trazado_108555" data-name="Trazado 108555" d="M25.717,33.965a4.251,4.251,0,0,0,7.464-2.63,10.09,10.09,0,0,0,6.668-9.529,9.9,9.9,0,0,0-7.462-9.556,9.99,9.99,0,0,0-18.16-6.693A13,13,0,0,0,1.24,18.577a12.591,12.591,0,0,0,3.572,8.7,5.8,5.8,0,0,0,10.156,5.447" fill="none" stroke="#000" stroke-linecap="round" stroke-linejoin="round" stroke-miterlimit="10" stroke-width="2.48" stroke-dasharray="420 30 1000 0 1000 0"/>
            <line id="Línea_238" data-name="Línea 238" transform="translate(24.136 14.972)" fill="none" stroke="#000" stroke-linecap="round" stroke-linejoin="round" stroke-miterlimit="10" stroke-width="2.48"/>
            <line id="Línea_239" data-name="Línea 239" transform="translate(7.622 15.449)" fill="none" stroke="#000" stroke-linecap="round" stroke-linejoin="round" stroke-miterlimit="10" stroke-width="2.48"/>
            <line id="Línea_240" data-name="Línea 240" transform="translate(15.391 20.688)" fill="none" stroke="#000" stroke-linecap="round" stroke-linejoin="round" stroke-miterlimit="10" stroke-width="2.48"/>
            <line id="Línea_241" data-name="Línea 241" transform="translate(29.274 24.953)" fill="none" stroke="#000" stroke-linecap="round" stroke-linejoin="round" stroke-miterlimit="10" stroke-width="2.48"/>
            <line id="Línea_242" data-name="Línea 242" transform="translate(33.058 18.457)" fill="none" stroke="#000" stroke-linecap="round" stroke-linejoin="round" stroke-miterlimit="10" stroke-width="2.48"/>
            <line id="Línea_243" data-name="Línea 243" transform="translate(26.067 7.781)" fill="none" stroke="#000" stroke-linecap="round" stroke-linejoin="round" stroke-miterlimit="10" stroke-width="2.48"/>
            <line id="Línea_244" data-name="Línea 244" transform="translate(9.853 29.433)" fill="none" stroke="#000" stroke-linecap="round" stroke-linejoin="round" stroke-miterlimit="10" stroke-width="2.48"/>
          </g>
          <path id="Trazado_108556" data-name="Trazado 108556" d="M24.484,28.789l-1.314.625-.487-1.371a2.022,2.022,0,0,0-3.809,0l-.487,1.371-1.314-.625a2.022,2.022,0,0,0-2.694,2.694L15,32.8a5.909,5.909,0,0,0,3.061,2.651v6.51a2.48,2.48,0,0,0,4.96,0V35.623a7.468,7.468,0,0,0,1.342-.614A5.429,5.429,0,0,0,26.553,32.8l.625-1.314A2.022,2.022,0,0,0,24.484,28.789Z" fill="none" stroke="#000" stroke-linecap="round" stroke-linejoin="round" stroke-miterlimit="10" stroke-width="2.48"/>
        </g>
        <path id="Trazado_108557" data-name="Trazado 108557" d="M57.6,67.193l-2.458-2.458L57.6,62.277a2.048,2.048,0,0,0,0-2.9l-2.458-2.458L57.6,54.464a2.048,2.048,0,0,0,0-2.9l-4.916-4.916a2.048,2.048,0,0,0-2.9,0L47.331,49.11l-2.458-2.458a2.048,2.048,0,0,0-2.9,0L39.518,49.11,37.06,46.652a2.048,2.048,0,0,0-2.9,0L31.706,49.11l-2.458-2.458a2.048,2.048,0,0,0-2.9,0l-4.916,4.916a2.048,2.048,0,0,0,0,2.9l2.458,2.458-2.458,2.458a2.048,2.048,0,0,0,0,2.9l2.458,2.458-2.458,2.458a2.048,2.048,0,0,0,0,2.9l2.458,2.458-2.458,2.458a2.048,2.048,0,0,0,0,2.9l4.916,4.916a2.048,2.048,0,0,0,2.9,0l2.458-2.458,2.458,2.458a2.048,2.048,0,0,0,2.9,0l2.458-2.458,2.458,2.458a2.048,2.048,0,0,0,2.9,0l2.458-2.458,2.458,2.458a2.048,2.048,0,0,0,2.9,0L57.6,77.9a2.048,2.048,0,0,0,0-2.9l-2.458-2.458L57.6,70.09A2.048,2.048,0,0,0,57.6,67.193Z" fill="none" stroke="#000" stroke-linecap="round" stroke-linejoin="round" stroke-miterlimit="10" stroke-width="2.48" stroke-dasharray="868 30 1000 0 1000 0"/>
        <g id="Grupo_57175" data-name="Grupo 57175">
          <line id="Línea_245" data-name="Línea 245" y2="1.984" transform="translate(29.184 60.505)" fill="none" stroke="#000" stroke-linecap="round" stroke-linejoin="round" stroke-miterlimit="10" stroke-width="2.48"/>
          <line id="Línea_246" data-name="Línea 246" y2="1.984" transform="translate(49.853 60.505)" fill="none" stroke="#000" stroke-linecap="round" stroke-linejoin="round" stroke-miterlimit="10" stroke-width="2.48"/>
          <path id="Trazado_108558" data-name="Trazado 108558" d="M36.8,62.427a3.608,3.608,0,0,0,5.445,0" fill="none" stroke="#000" stroke-linecap="round" stroke-linejoin="round" stroke-miterlimit="10" stroke-width="2.48"/>
        </g>
      </g>
    </g>
  </g>
</svg>
