<svg xmlns="http://www.w3.org/2000/svg" width="91.026" height="91.026" viewBox="0 0 91.026 91.026">
  <g id="Grupo_55663" data-name="Grupo 55663" transform="translate(106.06 -121.109)">
    <circle id="Elipse_4484" data-name="Elipse 4484" cx="45.513" cy="45.513" r="45.513" transform="translate(-106.06 121.109)" fill="#35b8bb"/>
    <path id="Trazado_105737" data-name="Trazado 105737" d="M-26.405,148.065a44.263,44.263,0,0,0-2.23-13.884,45.361,45.361,0,0,0-31.912-13.072,45.513,45.513,0,0,0-45.513,45.513,45.651,45.651,0,0,0,1,9.511A44.242,44.242,0,0,0-70.741,192.4,44.335,44.335,0,0,0-26.405,148.065Z" transform="translate(0 0)" fill="#25ced1"/>
    <g id="Grupo_55663-2" data-name="Grupo 55663" transform="translate(-82.858 147.43)">
      <path id="Trazado_105738" data-name="Trazado 105738" d="M-66.423,177.848q0,8.653-9.752,8.651-9.728,0-9.728-8.651v-25.2q0-8.673,9.728-8.673,9.752,0,9.752,8.673Zm-6.781-25.2q0-2.792-2.947-2.794H-76.2q-2.923,0-2.923,2.794v25.2q0,2.792,2.947,2.793,2.97,0,2.971-2.793Z" transform="translate(85.904 -143.974)" fill="#fff"/>
      <path id="Trazado_105739" data-name="Trazado 105739" d="M-50.647,144.557V179.9h6.35v5.859h-19.48V179.9h6.349V150.416h-6.349v-5.859Z" transform="translate(89.248 -143.886)" fill="#fff"/>
    </g>
  </g>
</svg>
