<svg xmlns="http://www.w3.org/2000/svg" width="400" height="289" viewBox="0 0 400 289">
  <g id="Grupo_56614" data-name="Grupo 56614" transform="translate(-180 -1044)">
    <rect id="Rectángulo_5181" data-name="Rectángulo 5181" width="400" height="289" transform="translate(180 1044)" fill="#dbfafa"/>
    <path id="Trazado_107814" data-name="Trazado 107814" d="M126.453,6.2l3.287,9.281L133.01,6.2h3.463V19h-2.646V15.5l.264-6.038L130.637,19h-1.811l-3.445-9.527.264,6.029V19h-2.637V6.2ZM144.119,19a2.821,2.821,0,0,1-.255-.853,3.073,3.073,0,0,1-2.4,1.028,3.376,3.376,0,0,1-2.316-.809,2.6,2.6,0,0,1-.918-2.039,2.687,2.687,0,0,1,1.121-2.32,5.529,5.529,0,0,1,3.239-.817h1.169v-.545a1.567,1.567,0,0,0-.338-1.055,1.331,1.331,0,0,0-1.068-.4,1.513,1.513,0,0,0-1.006.308,1.045,1.045,0,0,0-.365.844h-2.54a2.551,2.551,0,0,1,.51-1.529,3.37,3.37,0,0,1,1.441-1.1,5.253,5.253,0,0,1,2.092-.4,4.15,4.15,0,0,1,2.791.883,3.09,3.09,0,0,1,1.033,2.483V16.8a4.546,4.546,0,0,0,.378,2.048V19Zm-2.1-1.767a2.188,2.188,0,0,0,1.037-.25,1.645,1.645,0,0,0,.7-.672V14.676h-.949q-1.907,0-2.03,1.318l-.009.149a1.017,1.017,0,0,0,.334.782A1.3,1.3,0,0,0,142.019,17.233ZM151.3,7.152V9.49h1.626v1.863H151.3V16.1a1.133,1.133,0,0,0,.2.756,1.015,1.015,0,0,0,.773.229,4.051,4.051,0,0,0,.747-.062v1.925a5.229,5.229,0,0,1-1.538.229,2.425,2.425,0,0,1-2.725-2.7V11.354h-1.389V9.49h1.389V7.152Zm7.418,12.023a4.668,4.668,0,0,1-3.406-1.283A4.561,4.561,0,0,1,154,14.474v-.246a5.745,5.745,0,0,1,.554-2.562,4.064,4.064,0,0,1,1.569-1.74,4.4,4.4,0,0,1,2.316-.611,3.947,3.947,0,0,1,3.072,1.23,5,5,0,0,1,1.121,3.489v1.037h-6.056a2.36,2.36,0,0,0,.743,1.494,2.245,2.245,0,0,0,1.569.563,2.742,2.742,0,0,0,2.294-1.063l1.248,1.4a3.813,3.813,0,0,1-1.547,1.261A5.075,5.075,0,0,1,158.718,19.176Zm-.29-7.813a1.587,1.587,0,0,0-1.226.512,2.651,2.651,0,0,0-.6,1.466h3.533v-.2a1.891,1.891,0,0,0-.457-1.311A1.638,1.638,0,0,0,158.428,11.362Zm10.986.51a6.9,6.9,0,0,0-.914-.07,1.86,1.86,0,0,0-1.89.976V19h-2.54V9.49h2.4l.07,1.134a2.354,2.354,0,0,1,2.118-1.31,2.662,2.662,0,0,1,.791.114Zm3.9,7.128h-2.549V9.49h2.549Zm-2.7-11.971a1.251,1.251,0,0,1,.382-.94,1.648,1.648,0,0,1,2.079,0,1.244,1.244,0,0,1,.387.94,1.247,1.247,0,0,1-.391.949,1.629,1.629,0,0,1-2.065,0A1.247,1.247,0,0,1,170.618,7.029ZM180.919,19a2.821,2.821,0,0,1-.255-.853,3.073,3.073,0,0,1-2.4,1.028,3.376,3.376,0,0,1-2.316-.809,2.6,2.6,0,0,1-.918-2.039,2.687,2.687,0,0,1,1.121-2.32,5.529,5.529,0,0,1,3.239-.817h1.169v-.545a1.567,1.567,0,0,0-.338-1.055,1.331,1.331,0,0,0-1.068-.4,1.513,1.513,0,0,0-1.006.308,1.045,1.045,0,0,0-.365.844h-2.54a2.551,2.551,0,0,1,.51-1.529,3.37,3.37,0,0,1,1.441-1.1,5.253,5.253,0,0,1,2.092-.4,4.15,4.15,0,0,1,2.791.883,3.09,3.09,0,0,1,1.033,2.483V16.8a4.546,4.546,0,0,0,.378,2.048V19Zm-2.1-1.767a2.188,2.188,0,0,0,1.037-.25,1.645,1.645,0,0,0,.7-.672V14.676h-.949q-1.907,0-2.03,1.318l-.009.149a1.017,1.017,0,0,0,.334.782A1.3,1.3,0,0,0,178.818,17.233Zm11.391-.861a.818.818,0,0,0-.461-.734,5.241,5.241,0,0,0-1.481-.479q-3.393-.712-3.393-2.883a2.613,2.613,0,0,1,1.05-2.114,4.237,4.237,0,0,1,2.747-.848,4.56,4.56,0,0,1,2.9.853,2.687,2.687,0,0,1,1.085,2.215h-2.54a1.229,1.229,0,0,0-.352-.9,1.488,1.488,0,0,0-1.1-.356,1.52,1.52,0,0,0-.993.29.916.916,0,0,0-.352.738.783.783,0,0,0,.4.681,4.114,4.114,0,0,0,1.349.448,11.019,11.019,0,0,1,1.6.426,2.628,2.628,0,0,1,2.013,2.558,2.481,2.481,0,0,1-1.116,2.1,4.815,4.815,0,0,1-2.883.8,5.029,5.029,0,0,1-2.123-.426,3.561,3.561,0,0,1-1.455-1.169,2.716,2.716,0,0,1-.527-1.6h2.408a1.326,1.326,0,0,0,.5,1.037,1.987,1.987,0,0,0,1.248.36,1.839,1.839,0,0,0,1.1-.277A.861.861,0,0,0,190.209,16.372Zm17.147-2.039a5.7,5.7,0,0,1-1,3.52,3.2,3.2,0,0,1-2.694,1.323,2.963,2.963,0,0,1-2.329-1v4.482H198.8V9.49h2.355l.088.932a2.985,2.985,0,0,1,2.408-1.107,3.22,3.22,0,0,1,2.733,1.3,5.858,5.858,0,0,1,.976,3.586Zm-2.54-.185a3.743,3.743,0,0,0-.47-2.048,1.532,1.532,0,0,0-1.367-.721,1.663,1.663,0,0,0-1.644.914v3.894a1.692,1.692,0,0,0,1.661.94Q204.816,17.128,204.816,14.148Zm9.457-2.276a6.9,6.9,0,0,0-.914-.07,1.86,1.86,0,0,0-1.89.976V19h-2.54V9.49h2.4l.07,1.134a2.354,2.354,0,0,1,2.118-1.31,2.662,2.662,0,0,1,.791.114Zm3.9,7.128h-2.549V9.49h2.549Zm-2.7-11.971a1.251,1.251,0,0,1,.382-.94,1.648,1.648,0,0,1,2.079,0,1.244,1.244,0,0,1,.387.94,1.247,1.247,0,0,1-.391.949,1.629,1.629,0,0,1-2.065,0A1.247,1.247,0,0,1,215.478,7.029Zm7.172,2.461.079,1.063a3.342,3.342,0,0,1,2.733-1.239,2.536,2.536,0,0,1,2.522,1.45,3.265,3.265,0,0,1,2.856-1.45,2.836,2.836,0,0,1,2.3.9,4.141,4.141,0,0,1,.756,2.711V19h-2.549V12.936a1.811,1.811,0,0,0-.316-1.182,1.4,1.4,0,0,0-1.116-.374,1.585,1.585,0,0,0-1.582,1.09l.009,6.53H225.8V12.944a1.789,1.789,0,0,0-.325-1.2,1.416,1.416,0,0,0-1.107-.369,1.646,1.646,0,0,0-1.564.9V19h-2.54V9.49ZM241.361,19a2.821,2.821,0,0,1-.255-.853,3.073,3.073,0,0,1-2.4,1.028,3.376,3.376,0,0,1-2.316-.809,2.6,2.6,0,0,1-.918-2.039,2.687,2.687,0,0,1,1.121-2.32,5.529,5.529,0,0,1,3.239-.817H241v-.545a1.567,1.567,0,0,0-.338-1.055,1.331,1.331,0,0,0-1.068-.4,1.513,1.513,0,0,0-1.006.308,1.045,1.045,0,0,0-.365.844h-2.54a2.551,2.551,0,0,1,.51-1.529,3.37,3.37,0,0,1,1.441-1.1,5.253,5.253,0,0,1,2.092-.4,4.15,4.15,0,0,1,2.791.883,3.09,3.09,0,0,1,1.033,2.483V16.8a4.546,4.546,0,0,0,.378,2.048V19Zm-2.1-1.767a2.188,2.188,0,0,0,1.037-.25,1.645,1.645,0,0,0,.7-.672V14.676h-.949q-1.907,0-2.03,1.318l-.009.149a1.017,1.017,0,0,0,.334.782A1.3,1.3,0,0,0,239.261,17.233Zm11.391-.861a.818.818,0,0,0-.461-.734,5.241,5.241,0,0,0-1.481-.479q-3.393-.712-3.393-2.883a2.613,2.613,0,0,1,1.05-2.114,4.237,4.237,0,0,1,2.747-.848,4.56,4.56,0,0,1,2.9.853,2.687,2.687,0,0,1,1.085,2.215h-2.54a1.229,1.229,0,0,0-.352-.9,1.488,1.488,0,0,0-1.1-.356,1.52,1.52,0,0,0-.993.29.916.916,0,0,0-.352.738.783.783,0,0,0,.4.681,4.114,4.114,0,0,0,1.349.448,11.019,11.019,0,0,1,1.6.426,2.628,2.628,0,0,1,2.013,2.558,2.481,2.481,0,0,1-1.116,2.1,4.815,4.815,0,0,1-2.883.8A5.029,5.029,0,0,1,247,18.75a3.561,3.561,0,0,1-1.455-1.169,2.716,2.716,0,0,1-.527-1.6h2.408a1.326,1.326,0,0,0,.5,1.037,1.987,1.987,0,0,0,1.248.36,1.839,1.839,0,0,0,1.1-.277A.861.861,0,0,0,250.651,16.372Zm8.191-2.2a5.731,5.731,0,0,1,1-3.542,3.237,3.237,0,0,1,2.729-1.318,2.913,2.913,0,0,1,2.294,1.037V5.5h2.549V19h-2.294L265,17.989a2.989,2.989,0,0,1-2.443,1.187,3.228,3.228,0,0,1-2.694-1.323A5.916,5.916,0,0,1,258.843,14.175Zm2.54.189a3.754,3.754,0,0,0,.466,2.051,1.517,1.517,0,0,0,1.354.713,1.7,1.7,0,0,0,1.661-.995V12.375a1.675,1.675,0,0,0-1.644-.995Q261.383,11.38,261.383,14.364Zm12.375,4.812a4.668,4.668,0,0,1-3.406-1.283,4.561,4.561,0,0,1-1.314-3.419v-.246a5.745,5.745,0,0,1,.554-2.562,4.064,4.064,0,0,1,1.569-1.74,4.4,4.4,0,0,1,2.316-.611,3.947,3.947,0,0,1,3.072,1.23,5,5,0,0,1,1.121,3.489v1.037h-6.056a2.36,2.36,0,0,0,.743,1.494,2.245,2.245,0,0,0,1.569.563,2.742,2.742,0,0,0,2.294-1.063l1.248,1.4a3.813,3.813,0,0,1-1.547,1.261A5.075,5.075,0,0,1,273.758,19.176Zm-.29-7.813a1.587,1.587,0,0,0-1.226.512,2.651,2.651,0,0,0-.6,1.466h3.533v-.2a1.891,1.891,0,0,0-.457-1.311A1.638,1.638,0,0,0,273.468,11.362Zm-130.6,26.795a5.64,5.64,0,0,1,.545-2.522,3.989,3.989,0,0,1,1.569-1.714,4.577,4.577,0,0,1,2.377-.606,4.33,4.33,0,0,1,3.142,1.178,4.727,4.727,0,0,1,1.358,3.2l.018.65a4.97,4.97,0,0,1-1.222,3.511,4.735,4.735,0,0,1-6.561,0,5.058,5.058,0,0,1-1.226-3.586Zm2.54.18a3.555,3.555,0,0,0,.51,2.073,1.831,1.831,0,0,0,2.9.009,3.89,3.89,0,0,0,.519-2.267,3.519,3.519,0,0,0-.519-2.06,1.686,1.686,0,0,0-1.459-.731,1.658,1.658,0,0,0-1.441.726A3.955,3.955,0,0,0,145.411,38.338Zm13.377-2.465a6.9,6.9,0,0,0-.914-.07,1.86,1.86,0,0,0-1.89.976V43h-2.54V33.49h2.4l.07,1.134a2.354,2.354,0,0,1,2.118-1.31,2.662,2.662,0,0,1,.791.114ZM162.69,43h-2.549V33.49h2.549Zm-2.7-11.971a1.251,1.251,0,0,1,.382-.94,1.648,1.648,0,0,1,2.079,0,1.342,1.342,0,0,1,0,1.89,1.629,1.629,0,0,1-2.065,0A1.247,1.247,0,0,1,159.992,31.029Zm4.421,7.146a5.573,5.573,0,0,1,1.042-3.524,3.375,3.375,0,0,1,2.808-1.336,2.96,2.96,0,0,1,2.435,1.072l.105-.9h2.3v9.193a4.064,4.064,0,0,1-.567,2.171,3.641,3.641,0,0,1-1.6,1.406,5.608,5.608,0,0,1-2.408.483,5.215,5.215,0,0,1-2.039-.417,3.619,3.619,0,0,1-1.5-1.077l1.125-1.547a2.975,2.975,0,0,0,2.3,1.063,2.178,2.178,0,0,0,1.573-.541,2.027,2.027,0,0,0,.563-1.534v-.51a2.938,2.938,0,0,1-2.312.993,3.366,3.366,0,0,1-2.773-1.34,5.572,5.572,0,0,1-1.059-3.555Zm2.54.189a3.47,3.47,0,0,0,.519,2.029,1.65,1.65,0,0,0,1.424.735,1.764,1.764,0,0,0,1.661-.871V36.251a1.76,1.76,0,0,0-1.644-.871,1.66,1.66,0,0,0-1.437.748A3.911,3.911,0,0,0,166.953,38.364Zm12.48,4.812a4.668,4.668,0,0,1-3.406-1.283,4.561,4.561,0,0,1-1.314-3.419v-.246a5.745,5.745,0,0,1,.554-2.562,4.064,4.064,0,0,1,1.569-1.74,4.4,4.4,0,0,1,2.316-.611,3.947,3.947,0,0,1,3.072,1.23,5,5,0,0,1,1.121,3.489v1.037h-6.056a2.36,2.36,0,0,0,.743,1.494,2.245,2.245,0,0,0,1.569.563,2.742,2.742,0,0,0,2.294-1.063l1.248,1.4a3.813,3.813,0,0,1-1.547,1.261A5.075,5.075,0,0,1,179.434,43.176Zm-.29-7.813a1.587,1.587,0,0,0-1.226.512,2.651,2.651,0,0,0-.6,1.466h3.533v-.2a1.891,1.891,0,0,0-.457-1.311A1.638,1.638,0,0,0,179.144,35.362Zm7.98-1.872.079,1.1a3.32,3.32,0,0,1,2.733-1.274,2.759,2.759,0,0,1,2.25.888,4.142,4.142,0,0,1,.756,2.654V43H190.4V36.918a1.648,1.648,0,0,0-.352-1.173,1.574,1.574,0,0,0-1.169-.365,1.747,1.747,0,0,0-1.608.914V43h-2.54V33.49ZM202.909,39.9l1.767-6.407h2.654L204.122,43H201.7l-3.208-9.51h2.654Zm9.914,3.278a4.668,4.668,0,0,1-3.406-1.283,4.561,4.561,0,0,1-1.314-3.419v-.246a5.745,5.745,0,0,1,.554-2.562,4.064,4.064,0,0,1,1.569-1.74,4.4,4.4,0,0,1,2.316-.611,3.947,3.947,0,0,1,3.072,1.23,5,5,0,0,1,1.121,3.489v1.037h-6.056a2.36,2.36,0,0,0,.743,1.494,2.245,2.245,0,0,0,1.569.563,2.742,2.742,0,0,0,2.294-1.063l1.248,1.4a3.813,3.813,0,0,1-1.547,1.261A5.075,5.075,0,0,1,212.823,43.176Zm-.29-7.813a1.587,1.587,0,0,0-1.226.512,2.651,2.651,0,0,0-.6,1.466h3.533v-.2a1.891,1.891,0,0,0-.457-1.311A1.638,1.638,0,0,0,212.533,35.362Zm5.273,2.813a5.573,5.573,0,0,1,1.042-3.524,3.375,3.375,0,0,1,2.808-1.336,2.96,2.96,0,0,1,2.435,1.072l.105-.9h2.3v9.193a4.064,4.064,0,0,1-.567,2.171,3.641,3.641,0,0,1-1.6,1.406,5.608,5.608,0,0,1-2.408.483,5.215,5.215,0,0,1-2.039-.417,3.619,3.619,0,0,1-1.5-1.077l1.125-1.547a2.975,2.975,0,0,0,2.3,1.063,2.178,2.178,0,0,0,1.573-.541,2.027,2.027,0,0,0,.563-1.534v-.51a2.938,2.938,0,0,1-2.312.993,3.366,3.366,0,0,1-2.773-1.34,5.572,5.572,0,0,1-1.059-3.555Zm2.54.189a3.47,3.47,0,0,0,.519,2.029,1.65,1.65,0,0,0,1.424.735,1.764,1.764,0,0,0,1.661-.871V36.251a1.76,1.76,0,0,0-1.644-.871,1.66,1.66,0,0,0-1.437.748A3.911,3.911,0,0,0,220.347,38.364Zm12.48,4.812a4.668,4.668,0,0,1-3.406-1.283,4.561,4.561,0,0,1-1.314-3.419v-.246a5.745,5.745,0,0,1,.554-2.562,4.064,4.064,0,0,1,1.569-1.74,4.4,4.4,0,0,1,2.316-.611,3.947,3.947,0,0,1,3.072,1.23,5,5,0,0,1,1.121,3.489v1.037h-6.056a2.36,2.36,0,0,0,.743,1.494,2.245,2.245,0,0,0,1.569.563,2.742,2.742,0,0,0,2.294-1.063l1.248,1.4a3.813,3.813,0,0,1-1.547,1.261A5.075,5.075,0,0,1,232.827,43.176Zm-.29-7.813a1.587,1.587,0,0,0-1.226.512,2.651,2.651,0,0,0-.6,1.466h3.533v-.2a1.891,1.891,0,0,0-.457-1.311A1.638,1.638,0,0,0,232.537,35.362Zm8.684-4.21V33.49h1.626v1.863h-1.626V40.1a1.133,1.133,0,0,0,.2.756,1.015,1.015,0,0,0,.773.229,4.051,4.051,0,0,0,.747-.062v1.925a5.229,5.229,0,0,1-1.538.229,2.425,2.425,0,0,1-2.725-2.7V35.354h-1.389V33.49h1.389V31.152ZM249.772,43a2.821,2.821,0,0,1-.255-.853,3.073,3.073,0,0,1-2.4,1.028,3.376,3.376,0,0,1-2.316-.809,2.6,2.6,0,0,1-.918-2.039A2.687,2.687,0,0,1,245,38.008a5.529,5.529,0,0,1,3.239-.817h1.169v-.545a1.567,1.567,0,0,0-.338-1.055,1.331,1.331,0,0,0-1.068-.4A1.513,1.513,0,0,0,247,35.5a1.045,1.045,0,0,0-.365.844h-2.54a2.551,2.551,0,0,1,.51-1.529,3.37,3.37,0,0,1,1.441-1.1,5.253,5.253,0,0,1,2.092-.4,4.15,4.15,0,0,1,2.791.883,3.09,3.09,0,0,1,1.033,2.483V40.8a4.546,4.546,0,0,0,.378,2.048V43Zm-2.1-1.767a2.188,2.188,0,0,0,1.037-.25,1.645,1.645,0,0,0,.7-.672V38.676h-.949q-1.907,0-2.03,1.318l-.009.149a1.017,1.017,0,0,0,.334.782A1.3,1.3,0,0,0,247.672,41.233ZM256.593,43h-2.549V29.5h2.549Z" transform="translate(180 1233)" fill="#12263f"/>
    <g id="Grupo_56613" data-name="Grupo 56613" transform="translate(-444 -17)">
      <g id="Grupo_55662" data-name="Grupo 55662" transform="translate(679.995 968.721)">
        <circle id="Elipse_4052" data-name="Elipse 4052" cx="53" cy="53" r="53" transform="translate(86.005 153.279)" fill="#0075a4"/>
        <g id="Grupo_55661" data-name="Grupo 55661">
          <path id="Trazado_105718" data-name="Trazado 105718" d="M137.925,193.363l-2.493-4.421a19.408,19.408,0,0,0-20.884-9.46l-1.206.253a.384.384,0,0,0-.038.741l.541.173a34.091,34.091,0,0,1,17.679,13.117l6.4,9.284Z" fill="#75c677"/>
          <path id="Trazado_105719" data-name="Trazado 105719" d="M140.085,193.363l2.493-4.421a19.408,19.408,0,0,1,20.884-9.46l1.206.253a.384.384,0,0,1,.038.741l-.541.173a34.089,34.089,0,0,0-17.678,13.117l-6.4,9.284Z" fill="#75c677"/>
          <g id="Grupo_55658" data-name="Grupo 55658">
            <path id="Trazado_105720" data-name="Trazado 105720" d="M135.59,204.012l-2.463-5.119c-4.1-8.532-13.018-12.568-20.238-10.155l-1.26.421a.384.384,0,0,0-.012.724l.718.265c6.484,2.4,12.252,7.587,16.4,14.741l6.2,10.7Z" fill="#80d686"/>
          </g>
          <path id="Trazado_105721" data-name="Trazado 105721" d="M137.973,198.286l-3.422-2.913c-5.7-4.854-14.626-2.286-20.976,1.684l-.784.491a.383.383,0,0,0,.219.708l.336-.014c6.67-.284,13.977-1.518,19.43,2.334l8.155,5.76Z" fill="#64bf6e"/>
          <g id="Grupo_55659" data-name="Grupo 55659">
            <path id="Trazado_105722" data-name="Trazado 105722" d="M142.421,204.012l2.462-5.119c4.105-8.532,13.018-12.568,20.238-10.155l1.26.421a.384.384,0,0,1,.012.724l-.718.265c-6.484,2.4-12.251,7.587-16.4,14.741l-6.2,10.7Z" fill="#75c677"/>
          </g>
          <path id="Trazado_105723" data-name="Trazado 105723" d="M140.037,198.408l3.423-2.913c5.7-4.854,14.625-2.286,20.975,1.684l.785.491a.383.383,0,0,1-.22.708l-.336-.014c-6.67-.285-13.977-1.518-19.43,2.333l-8.155,5.761Z" fill="#64bf6e"/>
          <path id="Trazado_105724" data-name="Trazado 105724" d="M138.626,176.7c-1.876,11.945-3.179,23-2.791,31.429h6.34c.388-8.429-.915-19.484-2.79-31.429a.384.384,0,0,0-.759,0Z" fill="#64bf6e"/>
          <path id="Trazado_105725" data-name="Trazado 105725" d="M129.867,212l-5.019-1.094-2.659-7.557a1.178,1.178,0,0,1,1.362-1.542l2.956.644Z" fill="#478e4c"/>
          <path id="Trazado_105726" data-name="Trazado 105726" d="M148.143,212l5.02-1.094,2.658-7.557a1.178,1.178,0,0,0-1.362-1.542l-2.956.644Z" fill="#478e4c"/>
          <path id="Trazado_105727" data-name="Trazado 105727" d="M120.82,201.606c-2.388.98-10.34,5.085-9.93,16.166a.3.3,0,0,0,.583.109c1.361-3.1,5.7-11.275,15.034-15.43l-4.4-.958A2.178,2.178,0,0,0,120.82,201.606Z" fill="#80d686"/>
          <path id="Trazado_105728" data-name="Trazado 105728" d="M157.19,201.606c2.388.98,10.34,5.085,9.93,16.166a.3.3,0,0,1-.583.109c-1.361-3.1-5.7-11.275-15.034-15.43l4.4-.958A2.178,2.178,0,0,1,157.19,201.606Z" fill="#80d686"/>
          <path id="Trazado_105729" data-name="Trazado 105729" d="M127.042,231.093c-7.058-5.224-8.889-11.62-7.127-20.435A3.149,3.149,0,0,1,123,208.126h32.006a3.149,3.149,0,0,1,3.087,2.532c1.762,8.815-.069,15.211-7.126,20.435l-2.259,2.55-18.843-.664Z" fill="#c6865c"/>
          <path id="Trazado_105730" data-name="Trazado 105730" d="M155.008,208.126h-.927c2.644,10.144,1.175,17.256-6.541,22.967h3.429c7.057-5.224,8.888-11.62,7.126-20.435a3.149,3.149,0,0,0-3.087-2.532Z" fill="#c17d4f"/>
          <path id="Trazado_105731" data-name="Trazado 105731" d="M140,208.126h-5.137l-3.484-4.708a1.178,1.178,0,0,1,.947-1.879h2.8Z" fill="#478e4c"/>
          <path id="Trazado_105732" data-name="Trazado 105732" d="M138.011,208.126h5.137l3.484-4.708a1.178,1.178,0,0,0-.947-1.879h-2.8Z" fill="#478e4c"/>
          <g id="Grupo_55660" data-name="Grupo 55660">
            <path id="Trazado_105733" data-name="Trazado 105733" d="M130.625,201.539a2.177,2.177,0,0,0-1.237.384c-2.124,1.466-9.019,7.171-6.259,17.91a.3.3,0,0,0,.592-.017c.67-3.319,3.168-12.23,11.4-18.277Z" fill="#80d686"/>
            <path id="Trazado_105734" data-name="Trazado 105734" d="M147.385,201.539a2.177,2.177,0,0,1,1.237.384c2.125,1.466,9.02,7.171,6.259,17.91a.3.3,0,0,1-.592-.017c-.67-3.319-3.168-12.23-11.4-18.277Z" fill="#80d686"/>
          </g>
          <path id="Trazado_105735" data-name="Trazado 105735" d="M122.205,232.514a4.67,4.67,0,0,1-.218-.675.615.615,0,0,1,.6-.762h32.842a.616.616,0,0,1,.6.762,4.8,4.8,0,0,1-.219.675,3.88,3.88,0,0,1-3.6,2.367H125.81a3.88,3.88,0,0,1-3.6-2.367Z" fill="#9d6b6b"/>
          <path id="Trazado_105736" data-name="Trazado 105736" d="M155.426,231.077h-2.889a.616.616,0,0,1,.6.762,4.8,4.8,0,0,1-.219.675,3.88,3.88,0,0,1-3.6,2.367H152.2a3.88,3.88,0,0,0,3.6-2.367,4.8,4.8,0,0,0,.219-.675.616.616,0,0,0-.6-.762Z" fill="#8b5e5e"/>
        </g>
      </g>
    </g>
  </g>
</svg>
