<svg xmlns="http://www.w3.org/2000/svg" width="92.499" height="92.499" viewBox="0 0 92.499 92.499">
  <g id="Grupo_55667" data-name="Grupo 55667" transform="translate(106.06 -214.463)">
    <circle id="Elipse_4486" data-name="Elipse 4486" cx="46.249" cy="46.249" r="46.249" transform="translate(-106.06 214.464)" fill="#35b8bb"/>
    <path id="Trazado_105743" data-name="Trazado 105743" d="M-25.117,241.855a44.979,44.979,0,0,0-2.266-14.109,46.094,46.094,0,0,0-32.428-13.284,46.249,46.249,0,0,0-46.249,46.25,46.406,46.406,0,0,0,1.019,9.665,44.96,44.96,0,0,0,34.872,16.53A45.052,45.052,0,0,0-25.117,241.855Z" transform="translate(0)" fill="#25ced1"/>
    <g id="Grupo_55666" data-name="Grupo 55666" transform="translate(-82.482 241.211)">
      <path id="Trazado_105744" data-name="Trazado 105744" d="M-66.108,271.749q0,8.793-9.91,8.792-9.886,0-9.886-8.792V246.142q0-8.815,9.886-8.813,9.91,0,9.91,8.813ZM-73,246.142q0-2.837-2.995-2.839h-.049q-2.971,0-2.97,2.839v25.607q0,2.837,2.995,2.838,3.018,0,3.019-2.838Z" transform="translate(85.904 -237.329)" fill="#fff"/>
      <path id="Trazado_105745" data-name="Trazado 105745" d="M-63.777,270.9q0-5.655,6.428-9.688,6.45-4.032,6.476-6.85v-8.215q0-2.837-2.97-2.839h-.049q-3,0-2.995,2.839v5.613h-6.89v-5.613q0-8.815,9.885-8.813,9.91,0,9.91,8.813v8.365q0,5.76-6.452,9.817-6.452,4.032-6.452,7.084v2.518h12.9v5.954H-63.777Z" transform="translate(89.66 -237.329)" fill="#fff"/>
    </g>
  </g>
</svg>
