<svg xmlns="http://www.w3.org/2000/svg" xmlns:xlink="http://www.w3.org/1999/xlink" width="85" height="85" viewBox="0 0 85 85">
  <defs>
    <clipPath id="clip-path">
      <rect id="Rectángulo_6409" data-name="Rectángulo 6409" width="85" height="85" transform="translate(180 396)" fill="#fff"/>
    </clipPath>
  </defs>
  <g id="Enmascarar_grupo_54" data-name="Enmascarar grupo 54" transform="translate(-180 -396)" clip-path="url(#clip-path)">
    <g id="presupuesto" transform="translate(180 396)">
      <path id="Trazado_109115" data-name="Trazado 109115" d="M41.9,1.437a22.961,22.961,0,0,1-16.441,0,2.83,2.83,0,0,0-3.73,3.437L25.223,16.8H42.136L45.63,4.874A2.83,2.83,0,0,0,41.9,1.437Z" fill="#72e4a0"/>
      <path id="Trazado_109116" data-name="Trazado 109116" d="M41.9,1.437q-1.041.4-2.109.693a2.791,2.791,0,0,1,.664,2.744L36.961,16.8h5.175L45.63,4.874A2.83,2.83,0,0,0,41.9,1.437Z" fill="#24d3b5"/>
      <path id="Trazado_109117" data-name="Trazado 109117" d="M62.277,45.487a23.045,23.045,0,0,0-23.03-22.166H28.112A23.044,23.044,0,0,0,5.066,46.364V73.61c0,.012,0,.025,0,.037A5.139,5.139,0,0,0,6.385,83.754H62.277Z" fill="#72e4a0"/>
      <path id="Trazado_109118" data-name="Trazado 109118" d="M39.247,23.322h-6.89a23.045,23.045,0,0,1,23.03,22.166V83.754h6.89V45.487a23.045,23.045,0,0,0-23.03-22.166Z" fill="#24d3b5"/>
      <ellipse id="Elipse_4524" data-name="Elipse 4524" cx="14.519" cy="14.515" rx="14.519" ry="14.515" transform="translate(19.161 36.138)" fill="#ffd36c"/>
      <path id="Trazado_109119" data-name="Trazado 109119" d="M33.679,36.138a14.613,14.613,0,0,0-2.6.232,14.517,14.517,0,0,1,0,28.565,14.516,14.516,0,1,0,2.6-28.8Z" fill="#fcc645"/>
      <path id="Trazado_109120" data-name="Trazado 109120" d="M31.4,53.323c0-.031-.013-.08-.029-.157,0,.009,0,.018,0,.028.007.043.017.086.026.129Z" fill="#eaaf20"/>
      <path id="Trazado_109121" data-name="Trazado 109121" d="M44.8,23.432H22.562a2.822,2.822,0,0,1-2.822-2.822v-.983A2.822,2.822,0,0,1,22.562,16.8H44.8a2.822,2.822,0,0,1,2.822,2.822v.983A2.822,2.822,0,0,1,44.8,23.432Z" fill="#eaaf20"/>
      <path id="Trazado_109122" data-name="Trazado 109122" d="M5.066,73.61c0,.012,0,.025,0,.037A5.139,5.139,0,0,0,6.385,83.754H62.277V73.61H5.066Z" fill="#24d3b5"/>
      <path id="Trazado_109123" data-name="Trazado 109123" d="M79.751,83.754H57.212a4,4,0,0,1-4-4v-30a4,4,0,0,1,4-4h22.54a4,4,0,0,1,4,4v30A4,4,0,0,1,79.751,83.754Z" fill="#ffd36c"/>
      <path id="Trazado_109124" data-name="Trazado 109124" d="M79.751,45.748H73.028a4,4,0,0,1,4,4v30a4,4,0,0,1-4,4h6.724a4,4,0,0,0,4-4v-30A4,4,0,0,0,79.751,45.748Z" fill="#fcc645"/>
      <path id="Trazado_109125" data-name="Trazado 109125" d="M59.642,52.547h17.68V59.8H59.642Z" fill="#909ec0"/>
      <path id="Trazado_109126" data-name="Trazado 109126" fill="#f7f3f1"/>
      <path id="Trazado_109127" data-name="Trazado 109127" d="M33.679,34.893a15.76,15.76,0,1,0,15.764,15.76,15.78,15.78,0,0,0-15.764-15.76Zm0,29.03a13.27,13.27,0,1,1,13.273-13.27,13.287,13.287,0,0,1-13.273,13.27Z"/>
      <path id="Trazado_109128" data-name="Trazado 109128" d="M36.3,49.656a9.655,9.655,0,0,0-2.919-.777c-.828-.168-1.446-.506-1.308-1.488.251-1.785,2.863-1.494,3.478-.095a1.255,1.255,0,0,0,1.7.447,1.275,1.275,0,0,0,.447-1.7,4.1,4.1,0,0,0-2.634-2.183V42.374a1.245,1.245,0,1,0-2.49,0v1.42l-.019,0a3.979,3.979,0,0,0-2.8,5.02,3.461,3.461,0,0,0,2.284,2.286c.881.3,1.855.252,2.725.583,2.146.816,1.131,3.535-.9,3.547a2.463,2.463,0,0,1-2.208-1.139,2.216,2.216,0,0,1-.115-.223l-.011-.029c-.052-.14-.09-.284-.13-.428-.008-.03-.013-.061-.019-.091.014.095-.014,0-.019-.073,0-.019,0-.038-.006-.056s-.011-.067-.018-.1l.015.072c-.184-1.506-2.582-1.49-2.481.084a4.793,4.793,0,0,0,1.8,3.438,4.917,4.917,0,0,0,1.9.892v1.352a1.245,1.245,0,0,0,2.49,0V57.568a4.451,4.451,0,0,0,2.4-1.472A4.253,4.253,0,0,0,36.3,49.656Zm-4.748,4.217C31.6,53.966,31.581,53.934,31.556,53.873Z"/>
      <path id="Trazado_109129" data-name="Trazado 109129" d="M31.4,53.323c0-.031-.013-.08-.029-.157,0,.009,0,.018,0,.028.007.043.017.086.026.129Z"/>
      <path id="Trazado_109130" data-name="Trazado 109130" d="M77.361,78.2a1.245,1.245,0,0,0,1.245-1.245V71.22a1.246,1.246,0,0,0-2.49,0v5.735A1.245,1.245,0,0,0,77.361,78.2Z"/>
      <path id="Trazado_109131" data-name="Trazado 109131" d="M83.755,72.3A1.245,1.245,0,0,0,85,71.054v-21.3A5.255,5.255,0,0,0,79.751,44.5H63.466A24.168,24.168,0,0,0,47.529,23.62a4.058,4.058,0,0,0,1.335-3.011v-.983A4.072,4.072,0,0,0,44.8,15.559h-1l.808-2.759a1.246,1.246,0,0,0-2.39-.7L41.2,15.559H26.155L22.924,4.525A1.585,1.585,0,0,1,25.013,2.6a24.172,24.172,0,0,0,17.332,0,1.585,1.585,0,0,1,2.089,1.925l-.565,1.931a1.246,1.246,0,0,0,2.39.7l.565-1.931A4.075,4.075,0,0,0,41.454.275,21.684,21.684,0,0,1,25.9.275a4.075,4.075,0,0,0-5.371,4.949L23.56,15.559h-1a4.072,4.072,0,0,0-4.067,4.067v.983a4.058,4.058,0,0,0,1.332,3.008A24.186,24.186,0,0,0,3.82,46.364v26.4A6.385,6.385,0,0,0,6.385,85H79.751A5.255,5.255,0,0,0,85,79.75V77.362a1.246,1.246,0,0,0-2.49,0V79.75a2.762,2.762,0,0,1-2.759,2.758H57.212a2.762,2.762,0,0,1-2.759-2.758v-30a2.762,2.762,0,0,1,2.759-2.759h22.54a2.762,2.762,0,0,1,2.759,2.759v21.3A1.245,1.245,0,0,0,83.755,72.3ZM22.562,22.186a1.579,1.579,0,0,1-1.577-1.577v-.983a1.579,1.579,0,0,1,1.577-1.577H44.8a1.579,1.579,0,0,1,1.577,1.577v.983A1.579,1.579,0,0,1,44.8,22.186Zm29.4,27.565V72.365h-34.7a1.246,1.246,0,0,0,0,2.49h34.7V79.75a5.215,5.215,0,0,0,.786,2.758H6.385a3.894,3.894,0,0,1-1-7.658h0c.036,0,.072.005.109.005h5.317a1.246,1.246,0,0,0,0-2.49h-4.5v-26a21.488,21.488,0,0,1,6.382-15.355,21.732,21.732,0,0,1,15.419-6.332H39.247A21.67,21.67,0,0,1,60.969,44.5H57.212A5.255,5.255,0,0,0,51.963,49.751Z"/>
      <path id="Trazado_109132" data-name="Trazado 109132" d="M78.567,59.8V52.547A1.245,1.245,0,0,0,77.321,51.3H59.641A1.245,1.245,0,0,0,58.4,52.547V59.8a1.245,1.245,0,0,0,1.245,1.245h17.68A1.245,1.245,0,0,0,78.567,59.8Zm-2.49-1.245H60.887V53.792h15.19Z"/>
      <path id="Trazado_109133" data-name="Trazado 109133" d="M59.793,64.744a1.246,1.246,0,0,0,0,2.49A1.246,1.246,0,0,0,59.793,64.744Z"/>
      <path id="Trazado_109134" data-name="Trazado 109134" d="M65.649,64.744a1.246,1.246,0,0,0,0,2.49A1.246,1.246,0,0,0,65.649,64.744Z"/>
      <path id="Trazado_109135" data-name="Trazado 109135" d="M71.5,64.744a1.246,1.246,0,0,0,0,2.49A1.246,1.246,0,0,0,71.5,64.744Z"/>
      <path id="Trazado_109136" data-name="Trazado 109136" d="M77.361,64.744a1.246,1.246,0,0,0,0,2.49A1.246,1.246,0,0,0,77.361,64.744Z"/>
      <path id="Trazado_109137" data-name="Trazado 109137" d="M59.793,70.227a1.246,1.246,0,0,0,0,2.49A1.246,1.246,0,0,0,59.793,70.227Z"/>
      <path id="Trazado_109138" data-name="Trazado 109138" d="M65.649,70.227a1.246,1.246,0,0,0,0,2.49A1.246,1.246,0,0,0,65.649,70.227Z"/>
      <path id="Trazado_109139" data-name="Trazado 109139" d="M71.5,69.975a1.246,1.246,0,0,0,0,2.49A1.246,1.246,0,0,0,71.5,69.975Z"/>
      <path id="Trazado_109140" data-name="Trazado 109140" d="M59.793,78.2a1.246,1.246,0,0,0,0-2.49A1.246,1.246,0,0,0,59.793,78.2Z"/>
      <path id="Trazado_109141" data-name="Trazado 109141" d="M65.649,78.2a1.246,1.246,0,0,0,0-2.49A1.246,1.246,0,0,0,65.649,78.2Z"/>
      <path id="Trazado_109142" data-name="Trazado 109142" d="M71.5,78.2a1.246,1.246,0,0,0,0-2.49A1.246,1.246,0,0,0,71.5,78.2Z"/>
    </g>
  </g>
</svg>
