<svg xmlns="http://www.w3.org/2000/svg" width="295" height="217" viewBox="0 0 295 217">
  <g id="Grupo_57510" data-name="Grupo 57510" transform="translate(2241 9954)">
    <g id="Grupo_57394" data-name="Grupo 57394" transform="translate(178)">
      <circle id="Elipse_4530" data-name="Elipse 4530" cx="95" cy="95" r="95" transform="translate(-2403 -9954)" fill="#0ce6ea"/>
      <g id="Grupo_56288" data-name="Grupo 56288" transform="translate(-3580 -144)">
        <g id="Grupo_56249" data-name="Grupo 56249" transform="translate(0 265)">
          <g id="Grupo_56005" data-name="Grupo 56005" transform="translate(771 -10805)">
            <rect id="Rectángulo_5224" data-name="Rectángulo 5224" width="295" height="200" transform="translate(390 747)" fill="none"/>
          </g>
        </g>
        <g id="Grupo_56287" data-name="Grupo 56287" transform="translate(2047.345 -10924.914)">
          <ellipse id="Elipse_4491" data-name="Elipse 4491" cx="83.918" cy="10.389" rx="83.918" ry="10.389" transform="translate(-822.345 1290.726)" fill="#636363" opacity="0.14"/>
          <g id="Grupo_56286" data-name="Grupo 56286" transform="translate(-810.1 1152.914)">
            <g id="Grupo_56253" data-name="Grupo 56253" transform="translate(110.578 29.522)">
              <rect id="Rectángulo_5576" data-name="Rectángulo 5576" width="35.977" height="17.904" rx="2.965" fill="#0ce6ea"/>
              <g id="Grupo_56251" data-name="Grupo 56251" transform="translate(5.343 2.812)">
                <rect id="Rectángulo_5577" data-name="Rectángulo 5577" width="2.859" height="8.202" transform="translate(0 3.937)" fill="#fff"/>
                <rect id="Rectángulo_5578" data-name="Rectángulo 5578" width="2.859" height="11.014" transform="translate(9.655 1.125)" fill="#fff"/>
                <rect id="Rectángulo_5579" data-name="Rectángulo 5579" width="2.859" height="12.139" transform="translate(19.31)" fill="#fff"/>
              </g>
              <g id="Grupo_56252" data-name="Grupo 56252" transform="translate(10.171 6.749)">
                <rect id="Rectángulo_5580" data-name="Rectángulo 5580" width="2.859" height="6.187" transform="translate(0 2.015)" fill="#ff8a5b"/>
                <rect id="Rectángulo_5581" data-name="Rectángulo 5581" width="2.859" height="8.202" transform="translate(9.655)" fill="#ff8a5b"/>
                <rect id="Rectángulo_5582" data-name="Rectángulo 5582" width="2.859" height="4.828" transform="translate(19.31 3.375)" fill="#ff8a5b"/>
              </g>
            </g>
            <rect id="Rectángulo_5583" data-name="Rectángulo 5583" width="86.989" height="141.92" transform="translate(12.994 0)" fill="#1448d3"/>
            <rect id="Rectángulo_5584" data-name="Rectángulo 5584" width="86.991" height="141.92" transform="translate(18.156 0)" fill="#1448d3"/>
            <path id="Trazado_106754" data-name="Trazado 106754" d="M-735.838,1294.834h-54.569v-141.92h21.285C-770.327,1181.673-770.228,1260.6-735.838,1294.834Z" transform="translate(808.563 -1152.914)" fill="#1595bc"/>
            <rect id="Rectángulo_5585" data-name="Rectángulo 5585" width="74.805" height="122.235" transform="translate(23.78 9.187)" fill="#e1f0fc"/>
            <rect id="Rectángulo_5586" data-name="Rectángulo 5586" width="17.904" height="2.163" rx="0.927" transform="translate(52.465 3.751)" fill="#e1f0fc"/>
            <path id="Trazado_106755" data-name="Trazado 106755" d="M-744.193,1284.8H-784.5V1162.566h15.387C-769.668,1192.925-767.329,1250.831-744.193,1284.8Z" transform="translate(808.279 -1153.378)" fill="#d0e0ea"/>
            <g id="Grupo_56256" data-name="Grupo 56256" transform="translate(31.554 21.766)">
              <g id="Grupo_56254" data-name="Grupo 56254" transform="translate(41.172)">
                <rect id="Rectángulo_5587" data-name="Rectángulo 5587" width="21.218" height="1.343" fill="#65c67c"/>
                <rect id="Rectángulo_5588" data-name="Rectángulo 5588" width="21.218" height="1.343" transform="translate(0 4.45)" fill="#65c67c"/>
                <rect id="Rectángulo_5589" data-name="Rectángulo 5589" width="21.218" height="1.343" transform="translate(0 8.901)" fill="#65c67c"/>
                <rect id="Rectángulo_5590" data-name="Rectángulo 5590" width="21.218" height="1.343" transform="translate(0 13.351)" fill="#65c67c"/>
              </g>
              <g id="Grupo_56255" data-name="Grupo 56255" transform="translate(0 75.836)">
                <rect id="Rectángulo_5591" data-name="Rectángulo 5591" width="32.532" height="1.343" fill="#65c67c"/>
                <rect id="Rectángulo_5592" data-name="Rectángulo 5592" width="32.532" height="1.343" transform="translate(0 4.45)" fill="#65c67c"/>
                <rect id="Rectángulo_5593" data-name="Rectángulo 5593" width="32.532" height="1.343" transform="translate(0 8.901)" fill="#65c67c"/>
                <rect id="Rectángulo_5594" data-name="Rectángulo 5594" width="32.532" height="1.343" transform="translate(0 13.351)" fill="#65c67c"/>
              </g>
            </g>
            <g id="Grupo_56260" data-name="Grupo 56260" transform="translate(31.554 48.134)">
              <rect id="Rectángulo_5595" data-name="Rectángulo 5595" width="9.124" height="8.539" fill="#f9c921"/>
              <g id="Grupo_56257" data-name="Grupo 56257" transform="translate(1.222 1.44)">
                <path id="Trazado_106756" data-name="Trazado 106756" d="M-772.971,1210.508l-1.876-1.9a.7.7,0,0,1,.007-.992h0a.7.7,0,0,1,.992.006l.8.813a.7.7,0,0,0,1.032-.037l2.7-3.161a.7.7,0,0,1,.989-.077h0a.7.7,0,0,1,.077.99l-3.7,4.321A.7.7,0,0,1-772.971,1210.508Z" transform="translate(775.049 -1204.992)" fill="#fff"/>
              </g>
              <rect id="Rectángulo_5596" data-name="Rectángulo 5596" width="9.124" height="8.539" transform="translate(0 14.287)" fill="#f9c921"/>
              <g id="Grupo_56258" data-name="Grupo 56258" transform="translate(1.222 15.727)">
                <path id="Trazado_106757" data-name="Trazado 106757" d="M-772.971,1225.518l-1.876-1.9a.7.7,0,0,1,.007-.993h0a.7.7,0,0,1,.992.006l.8.812a.7.7,0,0,0,1.032-.036l2.7-3.161a.7.7,0,0,1,.989-.077h0a.7.7,0,0,1,.077.989l-3.7,4.322A.7.7,0,0,1-772.971,1225.518Z" transform="translate(775.049 -1220.002)" fill="#fff"/>
              </g>
              <rect id="Rectángulo_5597" data-name="Rectángulo 5597" width="9.124" height="8.539" transform="translate(0 28.575)" fill="#f9c921"/>
              <g id="Grupo_56259" data-name="Grupo 56259" transform="translate(1.222 30.015)">
                <path id="Trazado_106758" data-name="Trazado 106758" d="M-772.971,1240.527l-1.876-1.9a.7.7,0,0,1,.007-.992h0a.7.7,0,0,1,.992.007l.8.813a.7.7,0,0,0,1.032-.037l2.7-3.161a.7.7,0,0,1,.989-.077h0a.7.7,0,0,1,.077.989l-3.7,4.322A.7.7,0,0,1-772.971,1240.527Z" transform="translate(775.049 -1235.011)" fill="#fff"/>
              </g>
            </g>
            <g id="Grupo_56264" data-name="Grupo 56264" transform="translate(46.347 49.574)">
              <g id="Grupo_56261" data-name="Grupo 56261">
                <rect id="Rectángulo_5598" data-name="Rectángulo 5598" width="46.272" height="0.891" fill="#6d778b"/>
                <rect id="Rectángulo_5599" data-name="Rectángulo 5599" width="46.272" height="0.891" transform="translate(0 2.417)" fill="#6d778b"/>
                <rect id="Rectángulo_5600" data-name="Rectángulo 5600" width="46.272" height="0.891" transform="translate(0 4.834)" fill="#6d778b"/>
              </g>
              <g id="Grupo_56262" data-name="Grupo 56262" transform="translate(0 14.288)">
                <rect id="Rectángulo_5601" data-name="Rectángulo 5601" width="46.272" height="0.891" fill="#6d778b"/>
                <rect id="Rectángulo_5602" data-name="Rectángulo 5602" width="46.272" height="0.891" transform="translate(0 2.417)" fill="#6d778b"/>
                <rect id="Rectángulo_5603" data-name="Rectángulo 5603" width="46.272" height="0.891" transform="translate(0 4.834)" fill="#6d778b"/>
              </g>
              <g id="Grupo_56263" data-name="Grupo 56263" transform="translate(0 28.575)">
                <rect id="Rectángulo_5604" data-name="Rectángulo 5604" width="46.272" height="0.891" fill="#6d778b"/>
                <rect id="Rectángulo_5605" data-name="Rectángulo 5605" width="46.272" height="0.891" transform="translate(0 2.417)" fill="#6d778b"/>
                <rect id="Rectángulo_5606" data-name="Rectángulo 5606" width="46.272" height="0.891" transform="translate(0 4.834)" fill="#6d778b"/>
              </g>
            </g>
            <g id="Grupo_56267" data-name="Grupo 56267" transform="translate(31.554 19.385)">
              <rect id="Rectángulo_5607" data-name="Rectángulo 5607" width="36.604" height="19.773" transform="translate(0 0)" fill="#87d296"/>
              <path id="Trazado_106759" data-name="Trazado 106759" d="M-768.484,1193.051h-7.849v-19.773h7.4A171.465,171.465,0,0,0-768.484,1193.051Z" transform="translate(776.333 -1173.278)" fill="#7ac185"/>
              <rect id="Rectángulo_5608" data-name="Rectángulo 5608" width="33.044" height="16.778" transform="translate(1.696 1.498)" fill="#65c67c"/>
              <g id="Grupo_56266" data-name="Grupo 56266" transform="translate(14.958 3.445)">
                <g id="Grupo_56265" data-name="Grupo 56265" transform="translate(0 1.759)">
                  <path id="Trazado_106760" data-name="Trazado 106760" d="M-759.658,1185.038a4.958,4.958,0,0,0,2.066.845.916.916,0,0,0,.577-.178.527.527,0,0,0,.23-.427.436.436,0,0,0-.192-.394q-.193-.124-1.441-.672a3.5,3.5,0,0,1-1.441-1.042,2.45,2.45,0,0,1-.443-1.494,2.762,2.762,0,0,1,.88-2.1,3.143,3.143,0,0,1,2.244-.826,7.094,7.094,0,0,1,3.248,1.057l-1.077,1.99a4.228,4.228,0,0,0-2.047-.769q-.691,0-.692.558a.577.577,0,0,0,.255.465,3.673,3.673,0,0,0,.927.438,4.51,4.51,0,0,1,1.831,1.057,2.2,2.2,0,0,1,.572,1.556,2.928,2.928,0,0,1-.9,2.21,3.2,3.2,0,0,1-2.306.865,6.255,6.255,0,0,1-3.248-1.067Z" transform="translate(760.619 -1178.744)" fill="#fff"/>
                </g>
                <rect id="Rectángulo_5609" data-name="Rectángulo 5609" width="1.759" height="2.354" transform="translate(2.465)" fill="#fff"/>
                <rect id="Rectángulo_5610" data-name="Rectángulo 5610" width="1.759" height="2.354" transform="translate(2.465 10.531)" fill="#fff"/>
              </g>
              <path id="Trazado_106761" data-name="Trazado 106761" d="M-768.515,1191.629h-6.036v-16.778h5.658C-769,1178.744-769.013,1184.809-768.515,1191.629Z" transform="translate(776.247 -1173.354)" fill="#58b76c"/>
            </g>
            <g id="Grupo_56278" data-name="Grupo 56278" transform="translate(73.743 70.96)">
              <path id="Trazado_106762" data-name="Trazado 106762" d="M-698.266,1227.459l33.746,31.59v35.933h-67.492v-35.933Z" transform="translate(732.012 -1227.459)" fill="#c66a4a"/>
              <g id="Grupo_56268" data-name="Grupo 56268" transform="translate(5.782 8.027)">
                <rect id="Rectángulo_5611" data-name="Rectángulo 5611" width="55.244" height="66.872" rx="4.575" fill="#e1f0fc"/>
                <path id="Trazado_106763" data-name="Trazado 106763" d="M-688.443,1302.763h-33.14a4.355,4.355,0,0,1-4.355-4.355v-58.161a4.355,4.355,0,0,1,4.355-4.355h7.029C-714.784,1249.9-712.855,1285.8-688.443,1302.763Z" transform="translate(725.938 -1235.892)" fill="#d0e0ea"/>
              </g>
              <g id="Grupo_56269" data-name="Grupo 56269" transform="translate(18.435 41.462)">
                <rect id="Rectángulo_5612" data-name="Rectángulo 5612" width="31.701" height="1.357" fill="#6d778b"/>
                <rect id="Rectángulo_5613" data-name="Rectángulo 5613" width="31.701" height="1.357" transform="translate(0 3.091)" fill="#6d778b"/>
                <rect id="Rectángulo_5614" data-name="Rectángulo 5614" width="31.701" height="1.357" transform="translate(0 6.181)" fill="#6d778b"/>
                <rect id="Rectángulo_5615" data-name="Rectángulo 5615" width="31.701" height="1.357" transform="translate(0 9.272)" fill="#6d778b"/>
              </g>
              <path id="Trazado_106764" data-name="Trazado 106764" d="M-664.519,1260.646v45.65h-67.493v-45.65l22.412,21.539,11.335,10.893Z" transform="translate(732.012 -1229.055)" fill="#ff8a5b"/>
              <g id="Grupo_56277" data-name="Grupo 56277" transform="translate(17.308 13.153)">
                <g id="Grupo_56275" data-name="Grupo 56275" transform="translate(6.316)">
                  <g id="Grupo_56270" data-name="Grupo 56270" transform="translate(15.942 15.32)">
                    <path id="Trazado_106765" data-name="Trazado 106765" d="M-683.576,1259.8l-.711,1.655-2.422,5.614a1.56,1.56,0,0,1-2.143.773l-.739-.372a1.56,1.56,0,0,1-.727-2.013l1.837-4.268s.1-.224.264-.571c.269-.584.691-1.521,1.023-2.3a1.566,1.566,0,0,1,1.942-.869l.742.251A1.563,1.563,0,0,1-683.576,1259.8Z" transform="translate(690.447 -1257.371)" fill="#64baf4"/>
                    <path id="Trazado_106766" data-name="Trazado 106766" d="M-683.463,1259.8l-.711,1.655a5.775,5.775,0,0,1-3.929-.838c.269-.584.691-1.521,1.023-2.3a1.566,1.566,0,0,1,1.942-.869l.742.251A1.563,1.563,0,0,1-683.463,1259.8Z" transform="translate(690.334 -1257.371)" fill="#54acdd"/>
                  </g>
                  <g id="Grupo_56272" data-name="Grupo 56272">
                    <path id="Trazado_106767" data-name="Trazado 106767" d="M-684.735,1252.807l-1.231,6.616-2.144.184-1.431.124-15.982,1.368,1.032-4.369,2.351-9.95.79-3.344,13.432,7.576,1.2.677Z" transform="translate(707.114 -1241.381)" fill="#64baf4"/>
                    <g id="Grupo_56271" data-name="Grupo 56271">
                      <path id="Trazado_106768" data-name="Trazado 106768" d="M-685.911,1259.8l-.055.3-19.557,1.675,1.032-4.369C-699.7,1258-689.452,1259.335-685.911,1259.8Z" transform="translate(707.114 -1242.052)" fill="#54acdd"/>
                      <path id="Trazado_106769" data-name="Trazado 106769" d="M-684.564,1252.807l-.1.536-17.163-6.566-.142,0,.79-3.344Z" transform="translate(706.943 -1241.381)" fill="#7ccbf7"/>
                      <path id="Trazado_106770" data-name="Trazado 106770" d="M-700.735,1243.057l-3.476,18.678a1.506,1.506,0,0,1-1.753,1.2,1.507,1.507,0,0,1-1.2-1.754l3.476-18.678a1.506,1.506,0,0,1,1.753-1.2,1.5,1.5,0,0,1,.966.627A1.5,1.5,0,0,1-700.735,1243.057Z" transform="translate(707.195 -1241.277)" fill="#429ed1"/>
                      <path id="Trazado_106771" data-name="Trazado 106771" d="M-702.975,1255.423l-1.236,6.643a1.506,1.506,0,0,1-1.753,1.2,1.507,1.507,0,0,1-1.2-1.754l2.487-13.365Z" transform="translate(707.195 -1241.608)" fill="#3a98c1"/>
                    </g>
                  </g>
                  <g id="Grupo_56274" data-name="Grupo 56274" transform="translate(17.574 9.628)">
                    <path id="Trazado_106772" data-name="Trazado 106772" d="M-681.757,1257a6.661,6.661,0,0,1-.484,1.539,5.709,5.709,0,0,1-1.17,1.7c-.031.03-.064.063-.1.091l-.088.023a4.018,4.018,0,0,1-1.593.022l-2.113-.393-1.431.124,1.623-8.721,1.2.678,2.2.408a4.067,4.067,0,0,1,1.4.54c.028.048.053.1.079.147A6.052,6.052,0,0,1-681.757,1257Z" transform="translate(688.733 -1251.392)" fill="#54acdd"/>
                    <g id="Grupo_56273" data-name="Grupo 56273" transform="translate(1.315 0.671)">
                      <path id="Trazado_106773" data-name="Trazado 106773" d="M-680.433,1257.2a3.979,3.979,0,0,1-.416,1.178,4.006,4.006,0,0,1-1.092,1.278,3.961,3.961,0,0,1-1.5.716l-.088.023a4.016,4.016,0,0,1-1.593.022l-2.228-.414,1.471-7.9,2.229.415a4.067,4.067,0,0,1,1.4.54,4.007,4.007,0,0,1,1.183,1.139A4,4,0,0,1-680.433,1257.2Z" transform="translate(687.351 -1252.097)" fill="#64baf4"/>
                      <path id="Trazado_106774" data-name="Trazado 106774" d="M-680.366,1257.2a3.979,3.979,0,0,1-.416,1.178c.47-4.811-5.193-5.415-5.193-5.415l.161-.865,2.229.415a3.982,3.982,0,0,1,2.58,1.678A4,4,0,0,1-680.366,1257.2Z" transform="translate(687.285 -1252.097)" fill="#7ccbf7"/>
                      <path id="Trazado_106775" data-name="Trazado 106775" d="M-681.94,1260.017a3.994,3.994,0,0,1-1.59.739,4.018,4.018,0,0,1-1.593.022l-2.228-.414.138-.742A15.1,15.1,0,0,0-681.94,1260.017Z" transform="translate(687.351 -1252.459)" fill="#54acdd"/>
                    </g>
                  </g>
                </g>
                <g id="Grupo_56276" data-name="Grupo 56276" transform="translate(0 0.463)">
                  <rect id="Rectángulo_5616" data-name="Rectángulo 5616" width="4.295" height="1.192" transform="translate(3.542 0) rotate(30)" fill="#6d778b"/>
                  <rect id="Rectángulo_5617" data-name="Rectángulo 5617" width="4.295" height="1.192" transform="translate(0 16.704) rotate(-10.154)" fill="#6d778b"/>
                  <rect id="Rectángulo_5618" data-name="Rectángulo 5618" width="4.295" height="1.192" transform="translate(0.972 7.516) rotate(15.852)" fill="#6d778b"/>
                </g>
              </g>
              <path id="Trazado_106776" data-name="Trazado 106776" d="M-705.539,1306.3h-26.473v-45.65l22.412,21.539A53.377,53.377,0,0,0-705.539,1306.3Z" transform="translate(732.012 -1229.055)" fill="#e17c54"/>
            </g>
            <g id="Grupo_56285" data-name="Grupo 56285" transform="translate(0 106.798)">
              <g id="Grupo_56280" data-name="Grupo 56280" transform="translate(0 1.458)">
                <path id="Trazado_106777" data-name="Trazado 106777" d="M-787.511,1303.248c-.159.537-.343,1.08-.544,1.638-.029.074-.06.159-.089.233a8.568,8.568,0,0,1-1.992.367c-2.606.223-7.322-.293-11.444-5.666l4.217-1.427-5.485-.735a34.141,34.141,0,0,1-4.228-8.827l2.2-.3,1.862-.247-2.448-.766-2.041-.64a55.922,55.922,0,0,1-1.509-7.594,45.4,45.4,0,0,1-.049-12.649,30.545,30.545,0,0,1,7.669,4.381l1.081,4.977.8-3.649a55.875,55.875,0,0,1,7.654,7.785l-1.639,4.656,2.748-2.328S-783.371,1289.716-787.511,1303.248Z" transform="translate(809.481 -1266.64)" fill="#0ce6ea"/>
                <g id="Grupo_56279" data-name="Grupo 56279" transform="translate(0.473 12.649)">
                  <path id="Trazado_106778" data-name="Trazado 106778" d="M-805.434,1288.162l-2.041-.64a55.911,55.911,0,0,1-1.509-7.594A45.447,45.447,0,0,0-805.434,1288.162Z" transform="translate(808.984 -1279.928)" fill="#22afaf"/>
                  <path id="Trazado_106779" data-name="Trazado 106779" d="M-787.389,1304.355c-.159.537-.343,1.08-.544,1.638-.029.074-.06.159-.089.233a8.568,8.568,0,0,1-1.992.367c-2.606.223-7.322-.293-11.444-5.666l4.217-1.427-5.485-.735a34.141,34.141,0,0,1-4.228-8.827l2.2-.3A33.567,33.567,0,0,0-787.389,1304.355Z" transform="translate(808.886 -1280.395)" fill="#22afaf"/>
                </g>
                <path id="Trazado_106780" data-name="Trazado 106780" d="M-787.9,1305.175c-.028.074-.06.156-.088.23a8.536,8.536,0,0,1-1.994.37c-.945-3.963-4.348-13.31-16.359-33.177C-805.965,1273.115-794.009,1289.336-787.9,1305.175Z" transform="translate(809.33 -1266.927)" fill="#fff"/>
              </g>
              <g id="Grupo_56282" data-name="Grupo 56282" transform="translate(11.137)">
                <path id="Trazado_106781" data-name="Trazado 106781" d="M-788.266,1304.508c-.384.349-.791.693-1.219,1.038l-.182.143a7.958,7.958,0,0,1-1.757-.666c-2.175-1.077-5.669-3.753-6.357-10l4.032.895-4-3.219a31.674,31.674,0,0,1,.888-9.036l1.891.824,1.6.7-1.573-1.785-1.312-1.489a51.874,51.874,0,0,1,2.453-6.75,42.07,42.07,0,0,1,6.041-10.059,28.341,28.341,0,0,1,3.979,7.16l-1.535,4.468,2.387-2.511a51.8,51.8,0,0,1,2.331,9.856l-3.538,2.905,3.3-.525S-778.477,1295.762-788.266,1304.508Z" transform="translate(797.781 -1265.108)" fill="#0ce6ea"/>
                <g id="Grupo_56281" data-name="Grupo 56281" transform="translate(0 10.059)">
                  <path id="Trazado_106782" data-name="Trazado 106782" d="M-794.869,1283.914l-1.312-1.489a51.88,51.88,0,0,1,2.453-6.75A42.2,42.2,0,0,0-794.869,1283.914Z" transform="translate(797.704 -1275.675)" fill="#22afaf"/>
                  <path id="Trazado_106783" data-name="Trazado 106783" d="M-788.266,1305.446c-.384.349-.791.693-1.219,1.038l-.182.143a7.95,7.95,0,0,1-1.757-.666c-2.175-1.077-5.669-3.753-6.357-10l4.032.895-4-3.219a31.673,31.673,0,0,1,.888-9.036l1.891.824A31.137,31.137,0,0,0-788.266,1305.446Z" transform="translate(797.781 -1276.104)" fill="#22afaf"/>
                </g>
                <path id="Trazado_106784" data-name="Trazado 106784" d="M-789.164,1305.837c-.058.047-.123.1-.18.142a7.958,7.958,0,0,1-1.76-.665c1.154-3.6,2.947-12.651,2.966-34.185C-788.085,1271.72-786.395,1290.337-789.164,1305.837Z" transform="translate(797.46 -1265.398)" fill="#fff"/>
              </g>
              <g id="Grupo_56284" data-name="Grupo 56284" transform="translate(16.064 9.017)">
                <path id="Trazado_106785" data-name="Trazado 106785" d="M-787.553,1305.7c-.416.155-.849.3-1.3.438l-.19.055a6.834,6.834,0,0,1-1.183-1.087c-1.385-1.546-3.309-4.781-1.871-9.956l2.917,1.991-2.152-3.827a27.076,27.076,0,0,1,3.575-6.892l1.24,1.255,1.045,1.061-.682-1.917-.569-1.6a44.305,44.305,0,0,1,4.092-4.581,36,36,0,0,1,7.991-6.067,24.233,24.233,0,0,1,.884,6.949l-2.638,3.06,2.693-1.236a44.346,44.346,0,0,1-1.28,8.565l-3.732,1.183,2.787.631S-777,1301.869-787.553,1305.7Z" transform="translate(792.605 -1274.581)" fill="#0ce6ea"/>
                <g id="Grupo_56283" data-name="Grupo 56283" transform="translate(0 6.067)">
                  <path id="Trazado_106786" data-name="Trazado 106786" d="M-785.857,1287.134l-.569-1.6a44.323,44.323,0,0,1,4.092-4.581A36.073,36.073,0,0,0-785.857,1287.134Z" transform="translate(792.308 -1280.955)" fill="#22afaf"/>
                  <path id="Trazado_106787" data-name="Trazado 106787" d="M-787.553,1306.3c-.416.155-.849.3-1.3.438l-.19.055a6.83,6.83,0,0,1-1.183-1.087c-1.385-1.546-3.309-4.781-1.871-9.956l2.917,1.991-2.152-3.827a27.074,27.074,0,0,1,3.575-6.892l1.24,1.255A26.62,26.62,0,0,0-787.553,1306.3Z" transform="translate(792.605 -1281.247)" fill="#22afaf"/>
                </g>
                <path id="Trazado_106788" data-name="Trazado 106788" d="M-788.732,1306.361l-.187.055a6.783,6.783,0,0,1-1.186-1.087c2.059-2.49,6.359-9.108,13.214-26.2C-777.037,1279.616-781.61,1294.934-788.732,1306.361Z" transform="translate(792.485 -1274.8)" fill="#fff"/>
              </g>
            </g>
          </g>
        </g>
      </g>
    </g>
  </g>
</svg>
