<svg xmlns="http://www.w3.org/2000/svg" xmlns:xlink="http://www.w3.org/1999/xlink" width="295" height="228" viewBox="0 0 295 228">
  <defs>
    <clipPath id="clip-path">
      <path id="Trazado_106357" data-name="Trazado 106357" d="M-361.971,1402.057q-.025,8.589-.051,17.174c0-.266-.24-.748-1.035-1.209l.048-17.173C-362.21,1401.31-361.971,1401.788-361.971,1402.057Z" fill="none"/>
    </clipPath>
    <clipPath id="clip-path-2">
      <path id="Trazado_106368" data-name="Trazado 106368" d="M-480.28,1437.181q.024-8.594.049-17.176a.23.23,0,0,1,.081-.195l-.046,17.17A.233.233,0,0,0-480.28,1437.181Z" fill="none"/>
    </clipPath>
  </defs>
  <g id="Grupo_57508" data-name="Grupo 57508" transform="translate(2241 10430)">
    <g id="Grupo_57507" data-name="Grupo 57507">
      <g id="Grupo_57392" data-name="Grupo 57392" transform="translate(178)">
        <circle id="Elipse_4528" data-name="Elipse 4528" cx="95" cy="95" r="95" transform="translate(-2403 -10430)" fill="#0ce6ea"/>
        <g id="Grupo_56247" data-name="Grupo 56247" transform="translate(-3580 -92)">
          <g id="Grupo_55961" data-name="Grupo 55961" transform="translate(771 -11057)">
            <rect id="Rectángulo_5224" data-name="Rectángulo 5224" width="295" height="200" transform="translate(390 747)" fill="none"/>
          </g>
          <g id="Grupo_56004" data-name="Grupo 56004" transform="translate(1729.339 -11652.626)">
            <g id="Grupo_55964" data-name="Grupo 55964">
              <g id="Grupo_55963" data-name="Grupo 55963" opacity="0.15">
                <path id="Trazado_106325" data-name="Trazado 106325" d="M-328.633,1454.871c3.284,1.9,3.589,4.79.686,6.478l-101.466,58.977c-2.894,1.681-7.9,1.508-11.186-.388l-72.061-41.6c-3.283-1.9-3.589-4.793-.7-6.474l101.476-58.971c2.9-1.687,7.9-1.52,11.186.376Z" fill="#636363"/>
              </g>
            </g>
            <g id="Grupo_56003" data-name="Grupo 56003">
              <g id="Grupo_56002" data-name="Grupo 56002">
                <g id="Grupo_55966" data-name="Grupo 55966">
                  <path id="Trazado_106326" data-name="Trazado 106326" d="M-446.31,1380.673c.009-.171.022-.33.031-.5.013-.226.024-.461.041-.68.011-.129.028-.257.038-.388.023-.249.046-.5.077-.745.014-.137.038-.266.058-.4.031-.246.067-.485.107-.724.022-.124.048-.245.071-.372.043-.243.089-.479.142-.712.028-.131.06-.258.09-.379.059-.25.118-.5.189-.735.027-.1.058-.21.087-.313.1-.32.2-.627.308-.925.009-.036.026-.074.038-.113.133-.354.277-.694.43-1.016.034-.074.066-.148.1-.218.186-.375.38-.736.587-1.067.036-.059.079-.115.122-.177.114-.172.225-.333.345-.49l.171-.216c.115-.133.224-.263.34-.388.061-.062.122-.127.182-.185.127-.125.254-.237.383-.343.054-.048.109-.1.165-.142a5.212,5.212,0,0,1,.573-.389q-1.855,1.08-3.714,2.16a5.394,5.394,0,0,0-.568.386c-.057.047-.118.094-.169.145-.131.1-.257.215-.381.336l-.184.192q-.173.188-.341.391c-.055.067-.113.136-.169.21-.124.159-.238.327-.358.505-.027.047-.061.085-.09.129a.146.146,0,0,1-.017.033,10.861,10.861,0,0,0-.593,1.075c-.015.035-.039.065-.053.1a.885.885,0,0,0-.041.1c-.152.324-.3.658-.432,1.015a.177.177,0,0,0-.011.024c-.015.048-.031.094-.044.142-.1.277-.2.567-.288.865-.011.044-.029.086-.043.134-.02.067-.035.141-.055.212q-.1.349-.187.718c-.015.071-.037.136-.054.207-.012.052-.018.112-.03.166-.049.221-.1.445-.138.676-.018.1-.044.2-.064.307,0,.041-.009.083-.016.124-.038.228-.068.46-.1.693-.013.116-.035.223-.05.342,0,.02-.005.046-.008.067-.029.248-.056.505-.075.762-.014.112-.027.222-.038.337v.041c-.017.219-.029.449-.045.68-.009.151-.019.3-.024.457v.036c-.009.154-.009.308-.012.458-.009.234-.019.461-.019.7v.067l-.056,20.5,3.712-2.154.059-20.5c0-.147,0-.29.006-.432C-446.324,1381.2-446.321,1380.934-446.31,1380.673Z" fill="#9f0925"/>
                  <g id="Grupo_55965" data-name="Grupo 55965">
                    <path id="Trazado_106327" data-name="Trazado 106327" d="M-440.527,1371.388c-5.131-2.96-9.491,2.833-9.522,12.665l-.056,20.5-3.738-2.15.06-20.5c.038-12.576,5.861-19.082,13.27-14.807Z" fill="#9f0925"/>
                  </g>
                </g>
                <g id="Grupo_55979" data-name="Grupo 55979">
                  <path id="Trazado_106328" data-name="Trazado 106328" d="M-385.445,1437.621l-1.32-.764a3.513,3.513,0,0,1-1.6-2.769l.072-25.786a1.506,1.506,0,0,1,.113-.6c-.539-.006-.911.4-.911,1.131l-.073,25.786a3.509,3.509,0,0,0,1.6,2.771l1.317.76c.685.4,1.263.239,1.5-.317A1.46,1.46,0,0,1-385.445,1437.621Z" fill="#ab4e0f"/>
                  <path id="Trazado_106329" data-name="Trazado 106329" d="M-375.325,1443.454l-1.32-.763a3.543,3.543,0,0,1-1.6-2.768l.075-25.791a1.553,1.553,0,0,1,.113-.594c-.535-.012-.909.4-.912,1.129l-.067,25.788a3.514,3.514,0,0,0,1.6,2.769l1.318.761c.68.39,1.259.236,1.495-.321A1.482,1.482,0,0,1-375.325,1443.454Z" fill="#ab4e0f"/>
                  <g id="Grupo_55978" data-name="Grupo 55978">
                    <g id="Grupo_55977" data-name="Grupo 55977" style="isolation: isolate">
                      <path id="Trazado_106330" data-name="Trazado 106330" d="M-406.11,1389.619l-1.872,40.121a2.6,2.6,0,0,0,.958,2.336c14.995,8.709,44.015,24.962,44.015,23.792l1.866-40.117Zm11.258,41.731c0,1.018-.724,1.432-1.611.918l-1.313-.762a3.5,3.5,0,0,1-1.6-2.768l.073-25.789c0-1.015.725-1.424,1.609-.913l1.319.761a3.524,3.524,0,0,1,1.6,2.769Zm10.185,5.885c0,1.013-.725,1.426-1.61.912l-1.318-.762a3.521,3.521,0,0,1-1.6-2.768l.075-25.785c0-1.02.722-1.431,1.609-.916l1.32.764a3.525,3.525,0,0,1,1.6,2.765Zm10.179,5.879c0,1.017-.718,1.426-1.6.913l-1.32-.759a3.511,3.511,0,0,1-1.6-2.769l.072-25.786c0-1.019.727-1.43,1.609-.921l1.321.765a3.523,3.523,0,0,1,1.6,2.768Z" fill="#ff9d7b"/>
                      <path id="Trazado_106331" data-name="Trazado 106331" d="M-481.041,1432.768l1.649,38.338c0,2.029,1.13,3.034,2.521,2.231l66.833-38.588c1.385-.8,2.508-3.1,2.5-5.128l1.428-40.114Zm21.292,23.508-1.317.762c-.883.51-1.608.1-1.608-.916l-.075-25.788a3.538,3.538,0,0,1,1.6-2.771l1.323-.763c.883-.511,1.6-.1,1.607.919l.074,25.785A3.515,3.515,0,0,1-459.749,1456.276Zm10.187-5.88-1.318.759c-.885.515-1.606.1-1.606-.915l-.078-25.786a3.536,3.536,0,0,1,1.6-2.771l1.323-.762c.886-.511,1.6-.1,1.606.919l.075,25.785A3.509,3.509,0,0,1-449.562,1450.4Zm10.183-5.879-1.32.759c-.882.511-1.6.1-1.607-.915l-.072-25.789a3.549,3.549,0,0,1,1.6-2.768l1.322-.762c.884-.514,1.6-.1,1.61.922l.068,25.779A3.517,3.517,0,0,1-439.379,1444.517Zm10.189-5.885-1.321.765c-.887.511-1.608.1-1.611-.915l-.072-25.787a3.532,3.532,0,0,1,1.6-2.774l1.318-.758c.885-.512,1.605-.1,1.609.918l.072,25.784A3.5,3.5,0,0,1-429.19,1438.632Zm10.182-5.879-1.319.762c-.889.514-1.606.1-1.609-.912l-.073-25.79a3.52,3.52,0,0,1,1.6-2.771l1.318-.759c.887-.513,1.6-.1,1.611.915l.072,25.79A3.519,3.519,0,0,1-419.008,1432.753Z" fill="#ff8a5b"/>
                      <g id="Grupo_55967" data-name="Grupo 55967">
                        <path id="Trazado_106332" data-name="Trazado 106332" d="M-434.518,1498.168l-44.971-26.137,71.535-41.151,44.972,26.132Z" fill="#c95f17"/>
                      </g>
                      <g id="Grupo_55968" data-name="Grupo 55968">
                        <path id="Trazado_106333" data-name="Trazado 106333" d="M-436.113,1458.819l74.932-43.258-1.426,40.111c0,2.033-1.117,4.332-2.5,5.132l-66.834,38.588c-1.389.8-2.513-.2-2.519-2.231Z" fill="#ff8a5b"/>
                      </g>
                      <g id="Grupo_55974" data-name="Grupo 55974">
                        <g id="Grupo_55969" data-name="Grupo 55969">
                          <path id="Trazado_106334" data-name="Trazado 106334" d="M-418.093,1455.247c.888-.511,1.606-.1,1.609.913l.077,25.789a3.525,3.525,0,0,1-1.6,2.77l-1.314.763c-.889.511-1.606.1-1.61-.915l-.072-25.79a3.5,3.5,0,0,1,1.6-2.767Z" fill="#ab4e0f"/>
                        </g>
                        <g id="Grupo_55970" data-name="Grupo 55970">
                          <path id="Trazado_106335" data-name="Trazado 106335" d="M-407.9,1449.368c.888-.511,1.6-.1,1.606.913l.075,25.792a3.522,3.522,0,0,1-1.6,2.767l-1.316.762c-.89.512-1.608.1-1.614-.918l-.072-25.786a3.544,3.544,0,0,1,1.6-2.771Z" fill="#ab4e0f"/>
                        </g>
                        <g id="Grupo_55971" data-name="Grupo 55971">
                          <path id="Trazado_106336" data-name="Trazado 106336" d="M-397.723,1443.489c.887-.513,1.606-.1,1.61.915l.076,25.789a3.525,3.525,0,0,1-1.6,2.768l-1.318.762c-.885.512-1.606.1-1.608-.918l-.073-25.786a3.528,3.528,0,0,1,1.6-2.771Z" fill="#ab4e0f"/>
                        </g>
                        <g id="Grupo_55972" data-name="Grupo 55972">
                          <path id="Trazado_106337" data-name="Trazado 106337" d="M-387.537,1437.606c.885-.51,1.6-.1,1.61.919l.075,25.787a3.522,3.522,0,0,1-1.607,2.77l-1.313.76c-.887.507-1.606.1-1.612-.917l-.071-25.784a3.533,3.533,0,0,1,1.6-2.772Z" fill="#ab4e0f"/>
                        </g>
                        <g id="Grupo_55973" data-name="Grupo 55973">
                          <path id="Trazado_106338" data-name="Trazado 106338" d="M-377.355,1431.727c.888-.51,1.606-.1,1.609.919l.075,25.789a3.517,3.517,0,0,1-1.6,2.765l-1.317.76c-.886.513-1.606.106-1.612-.914l-.069-25.785a3.515,3.515,0,0,1,1.594-2.768Z" fill="#ab4e0f"/>
                        </g>
                      </g>
                      <g id="Grupo_55975" data-name="Grupo 55975">
                        <path id="Trazado_106339" data-name="Trazado 106339" d="M-375.74,1432.77c0-.717-.364-1.122-.88-1.13a1.416,1.416,0,0,1,.182.728l.075,25.786a3.524,3.524,0,0,1-1.6,2.774l-1.319.762a1.423,1.423,0,0,1-.729.211c.268.44.807.549,1.427.189l1.319-.763a3.516,3.516,0,0,0,1.6-2.769Z" fill="#f97319"/>
                        <path id="Trazado_106340" data-name="Trazado 106340" d="M-417.513,1404.158c0-.713-.363-1.123-.88-1.126a1.381,1.381,0,0,1,.182.728l.074,25.785a3.514,3.514,0,0,1-1.6,2.77l-1.315.76a1.414,1.414,0,0,1-.731.212c.268.443.8.547,1.424.186l1.321-.762a3.516,3.516,0,0,0,1.6-2.77Z" fill="#c95f17"/>
                        <path id="Trazado_106341" data-name="Trazado 106341" d="M-427.68,1410.137c0-.712-.363-1.117-.884-1.126a1.369,1.369,0,0,1,.184.731l.074,25.785a3.5,3.5,0,0,1-1.6,2.768l-1.318.762a1.412,1.412,0,0,1-.73.213c.267.444.8.549,1.428.186l1.318-.761a3.52,3.52,0,0,0,1.6-2.77Z" fill="#c95f17"/>
                        <path id="Trazado_106342" data-name="Trazado 106342" d="M-437.75,1416.019c0-.712-.361-1.12-.882-1.125a1.39,1.39,0,0,1,.184.726l.072,25.788a3.54,3.54,0,0,1-1.6,2.775l-1.318.757a1.474,1.474,0,0,1-.727.213c.268.44.8.545,1.422.186l1.32-.763a3.5,3.5,0,0,0,1.6-2.768Z" fill="#c95f17"/>
                        <path id="Trazado_106343" data-name="Trazado 106343" d="M-448.017,1421.8c-.006-.715-.363-1.123-.883-1.129a1.384,1.384,0,0,1,.185.734l.073,25.782a3.53,3.53,0,0,1-1.6,2.768l-1.318.762a1.4,1.4,0,0,1-.729.213c.265.44.8.547,1.427.183l1.316-.76a3.51,3.51,0,0,0,1.6-2.768Z" fill="#c95f17"/>
                        <path id="Trazado_106344" data-name="Trazado 106344" d="M-458.09,1427.686c0-.718-.363-1.122-.878-1.129a1.408,1.408,0,0,1,.182.728l.073,25.79a3.517,3.517,0,0,1-1.6,2.77l-1.318.758a1.428,1.428,0,0,1-.727.214c.266.44.8.546,1.424.185l1.319-.759a3.54,3.54,0,0,0,1.6-2.771Z" fill="#c95f17"/>
                        <path id="Trazado_106345" data-name="Trazado 106345" d="M-385.926,1438.507c0-.717-.364-1.122-.88-1.127a1.362,1.362,0,0,1,.183.727l.072,25.787a3.515,3.515,0,0,1-1.6,2.772l-1.319.759a1.451,1.451,0,0,1-.73.213c.271.446.8.546,1.427.188l1.317-.764a3.517,3.517,0,0,0,1.6-2.768Z" fill="#f97319"/>
                        <path id="Trazado_106346" data-name="Trazado 106346" d="M-396.094,1444.39c0-.717-.362-1.122-.883-1.128a1.4,1.4,0,0,1,.187.729l.072,25.789a3.524,3.524,0,0,1-1.6,2.765l-1.315.763a1.428,1.428,0,0,1-.731.209c.265.446.8.552,1.427.192l1.316-.766a3.514,3.514,0,0,0,1.6-2.765Z" fill="#f97319"/>
                        <path id="Trazado_106347" data-name="Trazado 106347" d="M-406.347,1450.319c0-.718-.36-1.116-.879-1.125a1.385,1.385,0,0,1,.181.727l.075,25.787a3.526,3.526,0,0,1-1.6,2.77l-1.318.762a1.453,1.453,0,0,1-.727.212c.264.44.8.55,1.424.186l1.319-.762a3.507,3.507,0,0,0,1.6-2.768Z" fill="#f97319"/>
                        <path id="Trazado_106348" data-name="Trazado 106348" d="M-416.43,1456.155c0-.715-.365-1.124-.884-1.129a1.375,1.375,0,0,1,.182.729l.077,25.786a3.532,3.532,0,0,1-1.6,2.769l-1.319.762a1.36,1.36,0,0,1-.727.208c.268.447.8.55,1.424.19l1.32-.765a3.5,3.5,0,0,0,1.6-2.765Z" fill="#f97319"/>
                      </g>
                      <g id="Grupo_55976" data-name="Grupo 55976">
                        <path id="Trazado_106349" data-name="Trazado 106349" d="M-447.34,1485.423l-1.32-.762a3.505,3.505,0,0,1-1.6-2.765l.072-25.786a1.534,1.534,0,0,1,.108-.6c-.529-.008-.9.4-.9,1.129l-.074,25.789a3.512,3.512,0,0,0,1.6,2.766l1.32.767c.684.39,1.261.232,1.492-.322A1.475,1.475,0,0,1-447.34,1485.423Z" fill="#ab4e0f"/>
                        <path id="Trazado_106350" data-name="Trazado 106350" d="M-395.666,1431.736l-1.319-.762a3.514,3.514,0,0,1-1.6-2.768l.073-25.785a1.529,1.529,0,0,1,.11-.6c-.533-.009-.908.4-.911,1.125l-.072,25.792a3.516,3.516,0,0,0,1.6,2.765l1.319.766c.683.392,1.265.235,1.5-.323A1.425,1.425,0,0,1-395.666,1431.736Z" fill="#ab4e0f"/>
                        <path id="Trazado_106351" data-name="Trazado 106351" d="M-457.632,1479.573l-1.32-.76a3.52,3.52,0,0,1-1.6-2.767l.073-25.786a1.634,1.634,0,0,1,.111-.6c-.535-.005-.908.405-.91,1.135l-.073,25.783a3.518,3.518,0,0,0,1.6,2.768l1.32.765c.683.4,1.26.236,1.494-.319A1.456,1.456,0,0,1-457.632,1479.573Z" fill="#ab4e0f"/>
                        <path id="Trazado_106352" data-name="Trazado 106352" d="M-467.735,1473.661l-1.318-.765a3.508,3.508,0,0,1-1.6-2.765l.072-25.788a1.572,1.572,0,0,1,.113-.6c-.536-.01-.909.4-.913,1.135l-.07,25.782a3.521,3.521,0,0,0,1.6,2.771l1.32.762c.681.393,1.263.237,1.494-.318A1.5,1.5,0,0,1-467.735,1473.661Z" fill="#ab4e0f"/>
                      </g>
                      <path id="Trazado_106353" data-name="Trazado 106353" d="M-434.463,1497.161l-1.65-38.342-44.968-26.128,1.649,38.332a2.607,2.607,0,0,0,.96,2.343q22.488,13.063,44.971,26.131A2.593,2.593,0,0,1-434.463,1497.161Zm-32.433-23.8c-.008,1.023-.727,1.428-1.611.914l-1.32-.757a3.533,3.533,0,0,1-1.6-2.771l.075-25.786c0-1.019.723-1.43,1.608-.918l1.318.762a3.521,3.521,0,0,1,1.6,2.771Zm10.183,5.879c0,1.019-.724,1.431-1.606.916l-1.323-.759a3.54,3.54,0,0,1-1.6-2.771l.078-25.785c0-1.017.722-1.428,1.607-.916l1.318.759a3.529,3.529,0,0,1,1.6,2.768Zm10.181,5.879c0,1.023-.721,1.433-1.608.918l-1.316-.761a3.528,3.528,0,0,1-1.6-2.768l.076-25.788c0-1.017.723-1.428,1.61-.914l1.321.76a3.51,3.51,0,0,1,1.6,2.768Z" fill="#ff9d7b"/>
                      <path id="Trazado_106354" data-name="Trazado 106354" d="M-406.116,1394.022l37.129,21.531-67.12,38.749-37.167-21.6,67.158-38.684Zm.006-4.515-74.971,43.184,44.968,26.128,74.932-43.258-44.929-26.054Z" fill="#f7ae1c"/>
                    </g>
                  </g>
                </g>
                <g id="Grupo_55991" data-name="Grupo 55991">
                  <g id="Grupo_55990" data-name="Grupo 55990" style="isolation: isolate">
                    <path id="Trazado_106355" data-name="Trazado 106355" d="M-403.71,1377.349a4.869,4.869,0,0,0-.538-.259.571.571,0,0,1-.061-.027c-.034-.014-.072-.023-.106-.038-.078-.029-.159-.056-.234-.08a.507.507,0,0,1-.09-.03c-.039-.011-.069-.014-.1-.026-.049-.012-.1-.023-.146-.032-.029-.006-.055-.018-.084-.024-.055-.012-.1-.014-.153-.023-.023-.007-.046-.009-.067-.016s-.033-.006-.046-.006c-.08-.009-.152-.02-.221-.027h-.024l-.005,0c-.05,0-.1-.005-.145-.005h-.138l-.1.005c-.023,0-.04.009-.058.009l-.011,0h-.008a.337.337,0,0,0-.062.018.087.087,0,0,0-.04.015l-.051,17.175a.371.371,0,0,1,.11-.033h.013a.9.9,0,0,1,.167-.015h.053c.052,0,.113,0,.173,0,.022,0,.041,0,.064.005.082.007.173.018.267.031l.1.017c.074.015.146.026.221.044.044.013.1.024.144.039a1.438,1.438,0,0,1,.191.053c.077.021.152.05.227.077s.119.045.18.07a4.6,4.6,0,0,1,.532.257l40.7,23.5.048-17.173Z" fill="#863f0f"/>
                    <g id="Grupo_55982" data-name="Grupo 55982" style="isolation: isolate">
                      <g id="Grupo_55981" data-name="Grupo 55981" clip-path="url(#clip-path)">
                        <g id="Grupo_55980" data-name="Grupo 55980" style="isolation: isolate">
                          <path id="Trazado_106356" data-name="Trazado 106356" d="M-361.971,1402.057l-.051,17.174c0-.266-.24-.748-1.035-1.209l.048-17.173c.8.461,1.038.939,1.038,1.208Z" fill="#813d0f"/>
                        </g>
                      </g>
                    </g>
                    <path id="Trazado_106358" data-name="Trazado 106358" d="M-356.789,1402.663c-.006.029-.015.059-.02.088a2.819,2.819,0,0,1-.262.532.651.651,0,0,0-.065.1,3.21,3.21,0,0,1-.452.5,2.581,2.581,0,0,1-.306.227,3.472,3.472,0,0,1-.426.3l-.046,17.175a.332.332,0,0,0,.063-.039,3.726,3.726,0,0,0,.337-.242c.11-.088.233-.163.335-.251a.069.069,0,0,1,.022-.016,3.773,3.773,0,0,0,.344-.371c.034-.042.052-.08.083-.121s.038-.06.059-.092.062-.086.085-.125a2.039,2.039,0,0,0,.157-.333c.008-.026.016-.053.023-.078s.016-.058.023-.082c.016-.061.04-.121.052-.18a2.319,2.319,0,0,0,.042-.369v-.053q.024-8.587.049-17.177A2.119,2.119,0,0,1-356.789,1402.663Z" fill="#b35414"/>
                    <g id="Grupo_55983" data-name="Grupo 55983">
                      <path id="Trazado_106359" data-name="Trazado 106359" d="M-406.146,1376.8l-.05,17.174-74,43,.046-17.17Z" fill="#c05a16"/>
                    </g>
                    <g id="Grupo_55986" data-name="Grupo 55986" style="isolation: isolate">
                      <g id="Grupo_55985" data-name="Grupo 55985" clip-path="url(#clip-path-2)">
                        <g id="Grupo_55984" data-name="Grupo 55984" style="isolation: isolate">
                          <path id="Trazado_106360" data-name="Trazado 106360" d="M-480.15,1419.81l-.046,17.17h0l.047-17.17Z" fill="#b35414"/>
                          <path id="Trazado_106361" data-name="Trazado 106361" d="M-480.15,1419.81l-.048,17.17c-.007.007-.015.012-.018.018l.047-17.176a.024.024,0,0,1,.019-.012Z" fill="#ae5214"/>
                          <path id="Trazado_106362" data-name="Trazado 106362" d="M-480.169,1419.822l-.047,17.176c-.006.007-.012.009-.019.018l.051-17.177c.006-.009.012-.011.015-.017Z" fill="#a95013"/>
                          <path id="Trazado_106363" data-name="Trazado 106363" d="M-480.184,1419.839l-.051,17.177c-.006.006-.007.015-.015.015l.052-17.167a.033.033,0,0,1,.014-.025Z" fill="#a44d12"/>
                          <path id="Trazado_106364" data-name="Trazado 106364" d="M-480.2,1419.864l-.052,17.167a.149.149,0,0,1-.011.032l.048-17.173a.059.059,0,0,1,.015-.026Z" fill="#9f4b12"/>
                          <path id="Trazado_106365" data-name="Trazado 106365" d="M-480.213,1419.89l-.048,17.173a.148.148,0,0,0-.01.045l.049-17.177.009-.041Z" fill="#9a4911"/>
                          <path id="Trazado_106366" data-name="Trazado 106366" d="M-480.222,1419.931l-.049,17.177a.156.156,0,0,0-.009.062l.052-17.177a.217.217,0,0,1,.006-.062Z" fill="#954611"/>
                          <path id="Trazado_106367" data-name="Trazado 106367" d="M-480.228,1419.993l-.052,17.177v.011l.049-17.176,0-.012Z" fill="#904410"/>
                        </g>
                      </g>
                    </g>
                    <path id="Trazado_106369" data-name="Trazado 106369" d="M-485.512,1420q-.023,8.589-.049,17.177c-.008,1.146.882,2.381,2.6,3.371l.051-17.174C-484.629,1422.383-485.512,1421.151-485.512,1420Z" fill="#813d0f"/>
                    <g id="Grupo_55987" data-name="Grupo 55987">
                      <path id="Trazado_106370" data-name="Trazado 106370" d="M-442.21,1446.872l-.049,17.177-40.7-23.5.05-17.174Z" fill="#863f0f"/>
                    </g>
                    <g id="Grupo_55988" data-name="Grupo 55988">
                      <path id="Trazado_106371" data-name="Trazado 106371" d="M-358.32,1404.417l-.046,17.174-74,43,.049-17.173Z" fill="#c05a16"/>
                    </g>
                    <g id="Grupo_55989" data-name="Grupo 55989">
                      <path id="Trazado_106372" data-name="Trazado 106372" d="M-359.3,1398.69c3.047,1.757,3.477,4.274.975,5.727l-74,43.005c-2.5,1.45-6.844,1.211-9.891-.55l-40.7-23.5c-3.048-1.761-3.477-4.275-.976-5.725l74-43.007c2.5-1.453,6.844-1.211,9.89.546Zm-76.763,46.574,74-43.009c.184-.107.138-.774-.955-1.406l-40.7-23.5a3.7,3.7,0,0,0-2.436-.546l-74,43.007c-.178.1-.141.773.954,1.4l40.7,23.5a3.713,3.713,0,0,0,2.437.552Z" fill="#d76518"/>
                    </g>
                    <path id="Trazado_106373" data-name="Trazado 106373" d="M-432.319,1447.422a6.155,6.155,0,0,1-.933.424c-.047.018-.1.039-.15.056a7.876,7.876,0,0,1-.831.225c-.1.023-.2.056-.306.075a9.129,9.129,0,0,1-1.11.138c-.06,0-.118.009-.175.009a10.307,10.307,0,0,1-1.151,0c-.057,0-.112,0-.169-.009-.384-.023-.779-.072-1.168-.133-.066-.008-.133-.018-.2-.033a11.375,11.375,0,0,1-1.2-.269l-.015,0a11.581,11.581,0,0,1-1.184-.411,10.247,10.247,0,0,1-1.292-.623l-.049,17.177a10.352,10.352,0,0,0,1.3.625.5.5,0,0,1,.077.038q.525.205,1.076.365h.015a.2.2,0,0,1,.054.011c.265.076.533.148.808.2.118.024.239.04.363.063.069.013.136.026.205.035s.14.03.208.038c.238.032.481.059.719.079.085.009.165.009.246.015l.156.009c.1.006.19.016.284.016.224,0,.45,0,.67,0,.07,0,.136-.013.2-.016s.119-.009.18-.015c.1-.009.213-.009.313-.023.258-.024.509-.06.756-.1a.2.2,0,0,1,.047-.009c.1-.022.2-.053.3-.078.233-.049.473-.1.692-.17.029-.009.052-.027.083-.04a5.772,5.772,0,0,0,1.133-.5Z" fill="#813d0f"/>
                  </g>
                </g>
                <g id="Grupo_55993" data-name="Grupo 55993">
                  <path id="Trazado_106374" data-name="Trazado 106374" d="M-390.352,1412.873c-.008-.26-.025-.523-.038-.786-.007-.114-.01-.233-.016-.351,0-.1-.009-.195-.014-.291-.029-.471-.065-.941-.113-1.411-.011-.126-.024-.248-.04-.379s-.027-.235-.041-.354c-.024-.219-.044-.438-.072-.659q-.09-.69-.194-1.37a.84.84,0,0,1-.016-.085c-.006-.04-.015-.083-.02-.125-.062-.38-.128-.769-.2-1.147-.061-.322-.129-.635-.2-.954-.011-.065-.025-.126-.038-.2s-.023-.123-.04-.186c-.1-.434-.2-.869-.3-1.3-.044-.186-.1-.366-.145-.546-.028-.116-.055-.227-.087-.333-.033-.125-.066-.253-.094-.371-.113-.4-.228-.8-.35-1.193-.043-.124-.083-.249-.12-.372-.032-.1-.064-.2-.1-.3-.049-.153-.1-.3-.145-.454q-.172-.523-.359-1.031c-.048-.139-.1-.278-.156-.42-.023-.058-.046-.121-.073-.186-.043-.127-.091-.254-.144-.377-.113-.3-.231-.588-.349-.882-.1-.225-.19-.446-.288-.67-.012-.027-.023-.056-.037-.083s-.03-.077-.044-.109c-.126-.281-.254-.556-.378-.831s-.267-.561-.408-.836c-.023-.043-.042-.086-.065-.124s-.045-.089-.065-.133c-.113-.221-.226-.443-.341-.658-.153-.284-.309-.558-.467-.833-.074-.128-.146-.264-.221-.388a.967.967,0,0,0-.078-.142c-.289-.49-.583-.962-.889-1.42a.542.542,0,0,1-.034-.044c-.037-.054-.069-.1-.109-.157-.206-.308-.415-.612-.629-.9-.13-.178-.259-.343-.389-.512-.026-.035-.053-.071-.079-.1s-.046-.065-.071-.092c-.131-.175-.269-.342-.412-.512s-.277-.331-.415-.49c-.09-.1-.174-.2-.261-.286a.669.669,0,0,0-.051-.056l-.1-.114c-.138-.147-.279-.3-.413-.436s-.28-.281-.423-.417l-.288-.262a.463.463,0,0,0-.046-.045c-.035-.029-.065-.065-.1-.091-.141-.134-.288-.255-.433-.378s-.277-.231-.418-.347l-.34-.257c-.009,0-.014-.011-.026-.017l-.054-.045c-.136-.1-.274-.2-.41-.289s-.265-.181-.4-.264-.269-.167-.4-.248c-.034-.017-.065-.038-.094-.053l-33.323-19.239c-.1-.055-.2-.113-.3-.165-.127-.071-.255-.136-.382-.2s-.242-.114-.36-.17l-.009,0-.013-.009c-.127-.055-.257-.109-.384-.163s-.257-.1-.383-.142c-.066-.023-.13-.044-.194-.063-.025-.008-.054-.019-.078-.024a.83.83,0,0,0-.112-.038c-.135-.041-.271-.077-.409-.11s-.271-.066-.4-.091a.1.1,0,0,0-.026,0,.349.349,0,0,0-.039-.008c-.121-.023-.248-.045-.369-.063-.154-.018-.311-.035-.459-.046-.028,0-.051,0-.072,0s-.066,0-.1,0c-.107,0-.216-.01-.321-.007-.181,0-.355.007-.531.023a.05.05,0,0,0-.019,0h-.006a5.537,5.537,0,0,0-.667.1,1.057,1.057,0,0,0-.108.029c-.139.03-.274.073-.411.112-.106.033-.219.055-.325.091a.965.965,0,0,0-.1.048,6.372,6.372,0,0,0-.96.449q-1.848,1.074-3.708,2.154a6.97,6.97,0,0,1,.952-.445c.147-.054.29-.1.432-.139s.269-.082.409-.111a6.257,6.257,0,0,1,.78-.131.04.04,0,0,1,.019,0,6.4,6.4,0,0,1,.857-.016c.031,0,.061,0,.1,0a7.746,7.746,0,0,1,.9.108c.016,0,.031,0,.045.009a7.643,7.643,0,0,1,.946.243.35.35,0,0,1,.08.024,9.649,9.649,0,0,1,.972.376.026.026,0,0,1,.012.006,11.246,11.246,0,0,1,1.04.532l33.321,19.238a14.464,14.464,0,0,1,1.35.892c.017.013.031.021.046.033.43.324.848.677,1.268,1.051.021.022.044.045.067.065.411.38.809.784,1.2,1.212.027.027.049.053.076.08.386.429.77.887,1.144,1.361l.084.114c.345.447.68.914,1.009,1.4.037.059.075.112.112.165.347.517.681,1.051,1,1.608.083.134.156.268.231.407.265.469.526.943.775,1.433a2.068,2.068,0,0,1,.1.192c.306.6.6,1.22.872,1.855.026.053.046.1.069.154.262.6.51,1.219.749,1.849.032.089.069.172.1.26.23.611.449,1.235.651,1.864.032.1.066.2.1.3.2.638.386,1.279.561,1.929.032.115.061.227.089.34.17.661.335,1.332.477,2.006.023.094.037.192.058.283.137.651.259,1.306.37,1.965.01.073.026.148.035.227.11.676.2,1.36.272,2.042.019.145.039.289.049.434.071.677.126,1.347.167,2.023.005.134.011.266.014.4.035.706.06,1.412.058,2.114l-.058,20.5,3.713-2.157.055-20.5C-390.332,1413.777-390.337,1413.326-390.352,1412.873Z" fill="#f76689"/>
                  <g id="Grupo_55992" data-name="Grupo 55992">
                    <path id="Trazado_106375" data-name="Trazado 106375" d="M-407.192,1386.331c7.4,4.275,13.179,17.481,13.147,30.054l-.058,20.5-3.742-2.16.061-20.5c.023-9.835-4.29-20.639-9.42-23.6l-33.323-19.241c-5.131-2.96-9.491,2.833-9.522,12.665l-3.734-2.153c.038-12.576,5.861-19.082,13.27-14.807Z" fill="#9f0925"/>
                  </g>
                </g>
                <g id="Grupo_55997" data-name="Grupo 55997">
                  <g id="Grupo_55996" data-name="Grupo 55996" style="isolation: isolate">
                    <path id="Trazado_106376" data-name="Trazado 106376" d="M-397.938,1437.016c.03-.175.059-.351.093-.53.021-.1.038-.212.061-.312s.054-.218.08-.328c.04-.154.078-.308.124-.458.023-.088.05-.174.078-.263.05-.159.1-.32.161-.476.027-.073.055-.156.082-.227.085-.227.175-.453.267-.674.027-.052.05-.106.079-.162.077-.171.15-.336.238-.505.038-.077.073-.156.116-.236.1-.177.187-.352.283-.521.026-.05.055-.1.081-.148.126-.212.253-.418.386-.623.045-.065.091-.135.135-.2.1-.148.2-.29.3-.432.061-.085.124-.168.186-.25.088-.113.172-.222.261-.332s.177-.225.269-.331c.071-.082.147-.162.219-.248.139-.156.282-.3.421-.451.077-.072.145-.146.221-.217a11.1,11.1,0,0,1,.88-.773c.053-.038.106-.078.156-.119a9.311,9.311,0,0,1,.986-.661,8.479,8.479,0,0,1,.784-.4c.086-.036.165-.069.252-.1.152-.059.3-.109.441-.153.091-.031.184-.054.271-.077s.181-.041.268-.059c.108-.016.215-.033.319-.047.069-.006.136-.015.207-.022.124-.005.248-.009.362-.005h.127a3.958,3.958,0,0,1,.458.058c.037.007.075.016.114.025.114.029.228.059.338.1.038.016.08.031.115.045a2.949,2.949,0,0,1,.409.193l-.5-.294-.664-.386a3.43,3.43,0,0,0-.317-.154.647.647,0,0,0-.064-.018c-.033-.014-.068-.026-.1-.038-.059-.021-.111-.045-.166-.059s-.121-.029-.179-.044-.077-.016-.119-.025a.434.434,0,0,1-.054-.014c-.124-.02-.25-.035-.381-.044h-.133c-.094,0-.187-.009-.279,0-.035,0-.073.008-.106.011-.062,0-.131.011-.194.018s-.113.008-.17.017-.1.023-.153.033c-.086.015-.176.035-.266.056-.046.012-.086.017-.134.03s-.09.031-.134.047a4.3,4.3,0,0,0-.457.157c-.049.017-.1.029-.148.049-.028.015-.06.03-.091.045a8.63,8.63,0,0,0-.79.393,8.681,8.681,0,0,0-.97.662c-.058.04-.115.079-.175.127a10.828,10.828,0,0,0-.875.767c-.024.024-.053.049-.079.071-.046.042-.088.1-.136.152-.142.144-.285.289-.424.448-.041.048-.084.089-.122.133s-.066.081-.1.119c-.088.1-.172.2-.256.31-.054.065-.107.123-.161.191-.043.053-.081.113-.125.17-.054.073-.106.147-.161.221-.045.056-.087.114-.129.177-.069.094-.133.194-.2.292-.042.056-.08.112-.117.169-.013.026-.035.052-.053.082-.111.174-.216.349-.322.529,0,.009-.011.018-.014.027-.027.044-.052.088-.076.133-.069.124-.141.248-.207.368-.029.058-.052.116-.082.17s-.071.141-.108.206-.053.107-.078.16c-.062.133-.124.269-.183.4-.02.045-.042.09-.062.13a.056.056,0,0,1-.006.016c-.081.188-.157.375-.229.563-.011.033-.023.065-.034.1-.028.068-.051.142-.078.213-.032.094-.071.189-.1.281s-.044.15-.067.224-.052.163-.075.248c-.017.056-.04.112-.054.168-.024.1-.043.2-.069.288s-.052.215-.076.318c-.006.039-.02.074-.029.116-.016.073-.025.15-.04.223-.029.17-.061.34-.084.51-.009.04-.019.091-.026.138s0,.077-.007.121a9.84,9.84,0,0,0-.071,1.1c0,1.978.7,3.371,1.826,4.024l1.136.661c-1.127-.657-1.823-2.047-1.829-4.024a8.353,8.353,0,0,1,.075-1.106C-397.957,1437.184-397.949,1437.1-397.938,1437.016Z" fill="#9f0925"/>
                    <g id="Grupo_55994" data-name="Grupo 55994">
                      <path id="Trazado_106377" data-name="Trazado 106377" d="M-391.776,1427.536c3.465-2,6.283-.4,6.294,3.585a13.77,13.77,0,0,1-6.257,10.837c-3.465,2-6.29.4-6.3-3.586A13.782,13.782,0,0,1-391.776,1427.536Z" fill="#f76689"/>
                    </g>
                    <g id="Grupo_55995" data-name="Grupo 55995">
                      <path id="Trazado_106378" data-name="Trazado 106378" d="M-391.851,1429.388c2.649-1.531,4.8-.3,4.81,2.744a10.511,10.511,0,0,1-4.781,8.273c-2.647,1.533-4.8.306-4.812-2.736A10.541,10.541,0,0,1-391.851,1429.388Z" fill="#9f0925"/>
                    </g>
                    <path id="Trazado_106379" data-name="Trazado 106379" d="M-390.146,1428.77c1.334.213,2.219,1.41,2.228,3.362a10.521,10.521,0,0,1-4.786,8.275,4.783,4.783,0,0,1-1.7.621,4,4,0,0,0,2.584-.621,10.508,10.508,0,0,0,4.781-8.275C-387.05,1429.778-388.339,1428.516-390.146,1428.77Z" fill="#9f0925"/>
                  </g>
                </g>
                <g id="Grupo_56001" data-name="Grupo 56001">
                  <g id="Grupo_56000" data-name="Grupo 56000" style="isolation: isolate">
                    <path id="Trazado_106380" data-name="Trazado 106380" d="M-394.815,1436.348c.012-.1.026-.2.046-.289.007-.056.023-.112.032-.168s.029-.116.044-.174c.02-.081.04-.165.068-.252.014-.045.029-.092.044-.136a2.333,2.333,0,0,1,.086-.26,1.227,1.227,0,0,1,.043-.124c.046-.121.093-.242.147-.361.012-.031.024-.061.037-.091.042-.088.087-.18.13-.269.023-.044.044-.089.067-.132.046-.092.1-.187.152-.279a.723.723,0,0,1,.041-.079c.072-.115.138-.228.208-.34.026-.036.048-.069.077-.107.05-.083.1-.156.16-.233.033-.046.068-.091.1-.138.047-.06.093-.123.139-.181s.1-.115.146-.177c.04-.042.078-.086.119-.134.078-.082.152-.161.225-.242.043-.037.083-.079.121-.117a6.275,6.275,0,0,1,.478-.417l.081-.062a4.95,4.95,0,0,1,.534-.36,4.666,4.666,0,0,1,.423-.214,1.045,1.045,0,0,1,.138-.052c.081-.031.16-.06.239-.083a1.469,1.469,0,0,1,.146-.042c.049-.011.1-.023.144-.032l.173-.026a.8.8,0,0,1,.112-.009c.066-.006.132-.006.195-.006h.07a1.87,1.87,0,0,1,.243.033l.063.011c.066.018.124.035.186.056.018.006.039.015.061.021a1.87,1.87,0,0,1,.219.1l-.271-.153-.359-.21a1.371,1.371,0,0,0-.17-.08.15.15,0,0,0-.033-.012c-.019-.008-.04-.014-.058-.023s-.059-.021-.089-.03a.624.624,0,0,0-.1-.02.208.208,0,0,1-.064-.018c-.01,0-.023-.007-.031-.007-.07-.008-.136-.02-.2-.022h-.075c-.049,0-.1,0-.15,0a.271.271,0,0,1-.055.006c-.037,0-.072.009-.106.012a.746.746,0,0,1-.093.008c-.026.007-.055.016-.083.021a.992.992,0,0,0-.145.027c-.023.009-.044.009-.067.017s-.049.019-.075.025c-.08.027-.164.053-.245.082-.026.014-.054.018-.078.03a.171.171,0,0,0-.051.024,4.02,4.02,0,0,0-.426.212,5.11,5.11,0,0,0-.529.358c-.029.02-.058.043-.091.065-.162.13-.321.268-.473.416-.015.015-.032.027-.044.038-.025.027-.048.056-.075.083-.075.077-.153.16-.227.243-.026.023-.046.049-.07.074s-.031.04-.049.06c-.049.054-.1.114-.139.17-.03.036-.057.065-.086.1s-.045.063-.069.092a.975.975,0,0,0-.084.121c-.025.029-.052.06-.075.091-.034.056-.066.107-.106.161-.023.031-.038.061-.06.1-.007.007-.016.021-.032.038-.058.1-.115.19-.174.29a.014.014,0,0,1-.01.012.677.677,0,0,1-.036.071c-.036.067-.075.133-.11.2-.014.032-.033.062-.043.088a.912.912,0,0,0-.059.116c-.02.029-.029.054-.047.085-.031.071-.067.142-.1.213a.77.77,0,0,1-.03.073v.01c-.046.1-.091.2-.129.3a.384.384,0,0,1-.017.054,1.167,1.167,0,0,0-.039.118.969.969,0,0,0-.056.151c-.015.04-.027.08-.038.12s-.026.092-.041.137a.4.4,0,0,0-.026.089c-.019.052-.026.1-.04.156s-.028.114-.043.17l-.014.063a1.14,1.14,0,0,0-.018.121c-.018.091-.04.183-.052.275,0,.024-.008.05-.011.073s0,.045,0,.072a4.217,4.217,0,0,0-.042.591,2.377,2.377,0,0,0,.991,2.174l.611.355a2.365,2.365,0,0,1-.989-2.172,5.748,5.748,0,0,1,.038-.6C-394.829,1436.439-394.824,1436.392-394.815,1436.348Z" fill="#9f0925"/>
                    <g id="Grupo_55998" data-name="Grupo 55998">
                      <path id="Trazado_106381" data-name="Trazado 106381" d="M-391.49,1431.226c1.873-1.082,3.395-.216,3.4,1.938a7.436,7.436,0,0,1-3.377,5.854c-1.873,1.082-3.4.217-3.4-1.937A7.446,7.446,0,0,1-391.49,1431.226Z" fill="#f76689"/>
                    </g>
                    <g id="Grupo_55999" data-name="Grupo 55999">
                      <path id="Trazado_106382" data-name="Trazado 106382" d="M-391.53,1432.228c1.43-.828,2.592-.163,2.6,1.479a5.7,5.7,0,0,1-2.586,4.473c-1.43.823-2.6.162-2.6-1.483A5.68,5.68,0,0,1-391.53,1432.228Z" fill="#9f0925"/>
                    </g>
                    <path id="Trazado_106383" data-name="Trazado 106383" d="M-390.611,1431.893c.724.116,1.2.762,1.2,1.817a5.692,5.692,0,0,1-2.581,4.47,2.589,2.589,0,0,1-.927.333,2.148,2.148,0,0,0,1.4-.333,5.7,5.7,0,0,0,2.586-4.47C-388.936,1432.437-389.631,1431.758-390.611,1431.893Z" fill="#9f0925"/>
                  </g>
                </g>
              </g>
            </g>
          </g>
        </g>
      </g>
    </g>
  </g>
</svg>
