<svg xmlns="http://www.w3.org/2000/svg" xmlns:xlink="http://www.w3.org/1999/xlink" width="295" height="229" viewBox="0 0 295 229">
  <defs>
    <linearGradient id="linear-gradient" y1="0.5" x2="1" y2="0.5" gradientUnits="objectBoundingBox">
      <stop offset="0" stop-color="#9da2a5"/>
      <stop offset="0.042" stop-color="#979c9f"/>
      <stop offset="0.26" stop-color="#7f8386"/>
      <stop offset="0.487" stop-color="#6e7174"/>
      <stop offset="0.727" stop-color="#646769"/>
      <stop offset="1" stop-color="#616466"/>
    </linearGradient>
    <linearGradient id="linear-gradient-2" x1="0" y1="0.5" x2="1" y2="0.5" xlink:href="#linear-gradient"/>
    <linearGradient id="linear-gradient-3" y1="0.5" x2="1" y2="0.5" gradientUnits="objectBoundingBox">
      <stop offset="0" stop-color="#84837e"/>
      <stop offset="0.134" stop-color="#6e6d68"/>
      <stop offset="0.331" stop-color="#55544f"/>
      <stop offset="0.536" stop-color="#43423e"/>
      <stop offset="0.753" stop-color="#383733"/>
      <stop offset="1" stop-color="#353430"/>
    </linearGradient>
    <linearGradient id="linear-gradient-5" x1="0" y1="0.5" x2="1" y2="0.5" xlink:href="#linear-gradient"/>
    <linearGradient id="linear-gradient-7" y1="0.5" x2="1" y2="0.5" gradientUnits="objectBoundingBox">
      <stop offset="0" stop-color="#1d2866"/>
      <stop offset="0.24" stop-color="#2c4380"/>
      <stop offset="0.754" stop-color="#538ac3"/>
      <stop offset="1" stop-color="#67afe5"/>
    </linearGradient>
    <clipPath id="clip-path">
      <path id="Trazado_106029" data-name="Trazado 106029" d="M-437.409,1161.617l-.822-.477a.282.282,0,0,1-.121-.261,35.13,35.13,0,0,0-2.069-12.715,10.676,10.676,0,0,0-4.074-5.415l.821.478a10.664,10.664,0,0,1,4.074,5.412,35.2,35.2,0,0,1,2.071,12.718A.279.279,0,0,0-437.409,1161.617Z" fill="none"/>
    </clipPath>
    <clipPath id="clip-path-2">
      <path id="Trazado_106040" data-name="Trazado 106040" d="M-443.9,1141.744l.821.475a5.769,5.769,0,0,0-1.217-.533,6.139,6.139,0,0,0-4.953.78l-.82-.477a6.127,6.127,0,0,1,4.953-.782A5.789,5.789,0,0,1-443.9,1141.744Z" fill="none"/>
    </clipPath>
    <clipPath id="clip-path-3">
      <path id="Trazado_106056" data-name="Trazado 106056" d="M-461.534,1175.545l-.822-.478a.283.283,0,0,1-.12-.26,59.343,59.343,0,0,1,2.044-15.424,41.973,41.973,0,0,1,5.418-12.462,15.989,15.989,0,0,1,4.941-4.932l.82.477a16.055,16.055,0,0,0-4.94,4.93,42.066,42.066,0,0,0-5.42,12.463,59.442,59.442,0,0,0-2.042,15.428A.28.28,0,0,0-461.534,1175.545Z" fill="none"/>
    </clipPath>
    <clipPath id="clip-path-4">
      <path id="Trazado_106070" data-name="Trazado 106070" d="M-428.712,1165.958l-.909-.528a.325.325,0,0,1-.134-.3,35.14,35.14,0,0,0-2.067-12.7,10.587,10.587,0,0,0-4.059-5.4l.91.529a10.6,10.6,0,0,1,4.059,5.4,35.157,35.157,0,0,1,2.066,12.7A.324.324,0,0,0-428.712,1165.958Z" fill="none"/>
    </clipPath>
    <clipPath id="clip-path-5">
      <path id="Trazado_106081" data-name="Trazado 106081" d="M-435.238,1145.916l.91.529a5.764,5.764,0,0,0-1.216-.535,6.162,6.162,0,0,0-4.973.785l-.91-.528a6.156,6.156,0,0,1,4.973-.785A5.788,5.788,0,0,1-435.238,1145.916Z" fill="none"/>
    </clipPath>
    <clipPath id="clip-path-6">
      <path id="Trazado_106097" data-name="Trazado 106097" d="M-452.83,1179.886l-.91-.528a.33.33,0,0,1-.136-.3,59.214,59.214,0,0,1,2.053-15.445,41.9,41.9,0,0,1,5.427-12.492,16.172,16.172,0,0,1,4.969-4.955l.91.528a16.183,16.183,0,0,0-4.97,4.957,41.885,41.885,0,0,0-5.427,12.491,59.21,59.21,0,0,0-2.053,15.445A.326.326,0,0,0-452.83,1179.886Z" fill="none"/>
    </clipPath>
    <clipPath id="clip-path-7">
      <path id="Trazado_106106" data-name="Trazado 106106" d="M-385.6,1154.174l.67-.388a.236.236,0,0,0,.1-.217,28.615,28.615,0,0,1,1.689-10.366,8.709,8.709,0,0,1,3.32-4.418l-.67.389a8.727,8.727,0,0,0-3.321,4.416,28.7,28.7,0,0,0-1.686,10.371A.232.232,0,0,1-385.6,1154.174Z" fill="none"/>
    </clipPath>
    <clipPath id="clip-path-8">
      <path id="Trazado_106117" data-name="Trazado 106117" d="M-380.3,1137.969l-.668.387a4.828,4.828,0,0,1,.991-.436,5.013,5.013,0,0,1,4.038.634l.669-.389a5,5,0,0,0-4.037-.632A4.474,4.474,0,0,0-380.3,1137.969Z" fill="none"/>
    </clipPath>
    <clipPath id="clip-path-9">
      <path id="Trazado_106133" data-name="Trazado 106133" d="M-365.928,1165.528l.67-.388a.229.229,0,0,0,.1-.212,48.3,48.3,0,0,0-1.667-12.577,34.2,34.2,0,0,0-4.417-10.162,13.071,13.071,0,0,0-4.03-4.024l-.669.389a13.123,13.123,0,0,1,4.03,4.023,34.231,34.231,0,0,1,4.419,10.163,48.4,48.4,0,0,1,1.666,12.578A.219.219,0,0,1-365.928,1165.528Z" fill="none"/>
    </clipPath>
    <clipPath id="clip-path-10">
      <path id="Trazado_106147" data-name="Trazado 106147" d="M-392.682,1157.647l.671-.391a.239.239,0,0,0,.1-.218,28.7,28.7,0,0,1,1.689-10.361,8.633,8.633,0,0,1,3.323-4.42l-.67.388a8.663,8.663,0,0,0-3.323,4.421,28.668,28.668,0,0,0-1.688,10.361A.236.236,0,0,1-392.682,1157.647Z" fill="none"/>
    </clipPath>
    <clipPath id="clip-path-11">
      <path id="Trazado_106158" data-name="Trazado 106158" d="M-387.39,1141.439l-.668.391a4.645,4.645,0,0,1,.994-.435,4.994,4.994,0,0,1,4.035.632l.667-.39a4.979,4.979,0,0,0-4.031-.63A4.679,4.679,0,0,0-387.39,1141.439Z" fill="none"/>
    </clipPath>
    <clipPath id="clip-path-12">
      <path id="Trazado_106174" data-name="Trazado 106174" d="M-373.012,1169l.674-.388a.243.243,0,0,0,.093-.221,48.444,48.444,0,0,0-1.667-12.574,34.149,34.149,0,0,0-4.419-10.161,13.089,13.089,0,0,0-4.031-4.022l-.667.39a13.117,13.117,0,0,1,4.029,4.022,34.084,34.084,0,0,1,4.417,10.16,48.685,48.685,0,0,1,1.672,12.579A.231.231,0,0,1-373.012,1169Z" fill="none"/>
    </clipPath>
    <clipPath id="clip-path-13">
      <path id="Trazado_106183" data-name="Trazado 106183" d="M-395.8,1185.692l-.82-.479a.288.288,0,0,1-.121-.267c-.022-7.427-2.251-12.871-5.827-15.667a10.454,10.454,0,0,0-1.161-.785l.822.477a9.731,9.731,0,0,1,1.158.786c3.579,2.8,5.807,8.239,5.829,15.666A.3.3,0,0,0-395.8,1185.692Z" fill="none"/>
    </clipPath>
    <clipPath id="clip-path-14">
      <path id="Trazado_106194" data-name="Trazado 106194" d="M-403.155,1167.479l.822.481c-3.576-2.078-8.219-1.914-13.3,1.017l-.822-.477C-411.373,1165.569-406.729,1165.4-403.155,1167.479Z" fill="none"/>
    </clipPath>
    <clipPath id="clip-path-15">
      <path id="Trazado_106210" data-name="Trazado 106210" d="M-435.887,1208.837c-.273-.158-.548-.317-.819-.48a.285.285,0,0,1-.123-.266,51.582,51.582,0,0,1,5.917-23.057c3.676-7.164,8.792-13.26,14.461-16.534l.822.477c-5.669,3.273-10.785,9.37-14.462,16.533a51.621,51.621,0,0,0-5.916,23.057A.3.3,0,0,0-435.887,1208.837Z" fill="none"/>
    </clipPath>
    <clipPath id="clip-path-16">
      <path id="Trazado_106230" data-name="Trazado 106230" d="M-385.044,1190.4c.275.155.547.315.822.477a.276.276,0,0,0-.3.026l-.821-.474A.278.278,0,0,1-385.044,1190.4Z" fill="none"/>
    </clipPath>
    <clipPath id="clip-path-17">
      <path id="Trazado_106269" data-name="Trazado 106269" d="M-417.2,1230.738l-.82-.474c3.442,2,7.881,1.835,12.719-.96,5.4-3.117,10.287-8.927,13.835-15.83a50.186,50.186,0,0,0,5.72-22.335.9.9,0,0,1,.408-.711l.821.474a.923.923,0,0,0-.41.717,50.113,50.113,0,0,1-5.717,22.334c-3.549,6.9-8.436,12.708-13.836,15.826C-409.318,1232.575-413.756,1232.741-417.2,1230.738Z" fill="none"/>
    </clipPath>
    <clipPath id="clip-path-18">
      <path id="Trazado_106294" data-name="Trazado 106294" d="M-417.789,1231.749l-.821-.475a10.445,10.445,0,0,1-1.2-.817c-3.7-2.9-6-8.522-6.022-16.174a.919.919,0,0,1,.407-.714.3.3,0,0,1,.3-.029l.821.48a.294.294,0,0,0-.3.029.905.905,0,0,0-.408.711c.02,7.653,2.319,13.269,6.02,16.171A10.3,10.3,0,0,0-417.789,1231.749Z" fill="none"/>
    </clipPath>
  </defs>
  <g id="Grupo_57506" data-name="Grupo 57506" transform="translate(2241 10665)">
    <g id="Grupo_57391" data-name="Grupo 57391" transform="translate(178 -21)">
      <circle id="Elipse_4527" data-name="Elipse 4527" cx="95" cy="95" r="95" transform="translate(-2403 -10644)" fill="#0ce6ea"/>
      <g id="Grupo_56246" data-name="Grupo 56246" transform="translate(-3580 -50)">
        <g id="Grupo_55816" data-name="Grupo 55816" transform="translate(771 -11312)">
          <rect id="Rectángulo_5224" data-name="Rectángulo 5224" width="295" height="200" transform="translate(390 747)" fill="none"/>
        </g>
        <g id="Grupo_55960" data-name="Grupo 55960" transform="translate(1729.489 -11681.345)">
          <g id="Grupo_55818" data-name="Grupo 55818">
            <g id="Grupo_55817" data-name="Grupo 55817">
              <path id="Trazado_106019" data-name="Trazado 106019" d="M-324.148,1224.7c3.376,1.949,3.61,4.982.516,6.78l-108.283,62.927c-3.1,1.8-8.332,1.673-11.708-.276l-74.175-42.824c-3.376-1.949-3.608-4.983-.514-6.781l108.283-62.927c3.094-1.8,8.331-1.673,11.707.276Z" fill="#636363" opacity="0.14"/>
            </g>
          </g>
          <g id="Grupo_55959" data-name="Grupo 55959">
            <g id="Grupo_55935" data-name="Grupo 55935">
              <g id="Grupo_55934" data-name="Grupo 55934">
                <g id="Grupo_55933" data-name="Grupo 55933">
                  <g id="Grupo_55932" data-name="Grupo 55932">
                    <g id="Grupo_55825" data-name="Grupo 55825">
                      <g id="Grupo_55824" data-name="Grupo 55824" style="isolation: isolate">
                        <path id="Trazado_106020" data-name="Trazado 106020" d="M-347.4,1216.234c-.007.024-.013.044-.02.062a2.283,2.283,0,0,1-.28.544.806.806,0,0,1-.063.1,3.089,3.089,0,0,1-.46.509,4.4,4.4,0,0,1-.432.322c-.114.081-.209.166-.34.243l-.015,4.747.07-.044c.113-.064.193-.146.3-.214a4.541,4.541,0,0,0,.4-.3c.013-.011.029-.017.039-.032a2.854,2.854,0,0,0,.364-.386c.025-.029.042-.062.064-.093l.059-.089c.036-.058.079-.11.109-.166a2.114,2.114,0,0,0,.156-.331.479.479,0,0,0,.016-.053c.005-.016.011-.041.017-.058.023-.073.048-.146.063-.217a2.079,2.079,0,0,0,.036-.336l.015-4.747v-.05A2,2,0,0,1-347.4,1216.234Z" fill="url(#linear-gradient)"/>
                        <path id="Trazado_106021" data-name="Trazado 106021" d="M-495.563,1241.371q-.011,2.378-.016,4.75a2.918,2.918,0,0,0,1.723,2.405l.012-4.751A2.907,2.907,0,0,1-495.563,1241.371Z" fill="url(#linear-gradient-2)"/>
                        <g id="Grupo_55819" data-name="Grupo 55819">
                          <path id="Trazado_106022" data-name="Trazado 106022" d="M-348.992,1218.011l-.015,4.748-90.322,52.49.012-4.75Z" fill="url(#linear-gradient-3)"/>
                        </g>
                        <g id="Grupo_55820" data-name="Grupo 55820">
                          <path id="Trazado_106023" data-name="Trazado 106023" d="M-447.561,1270.5l-.012,4.75-46.282-26.722.012-4.751Z" fill="url(#linear-gradient-3)"/>
                        </g>
                        <path id="Trazado_106024" data-name="Trazado 106024" d="M-439.317,1270.5a6.718,6.718,0,0,1-1.142.506c-.146.05-.3.09-.446.134-.191.053-.382.1-.58.144-.233.05-.467.093-.707.122-.059.007-.118.018-.177.024-.324.032-.651.053-.978.053l-.157,0c-.325,0-.648-.023-.969-.055-.048-.006-.1-.009-.142-.015a8.109,8.109,0,0,1-.941-.164,1.419,1.419,0,0,1-.163-.037,6.672,6.672,0,0,1-.813-.248l-.138-.045a6.131,6.131,0,0,1-.891-.421l-.012,4.751a6.445,6.445,0,0,0,.84.4c.014.006.029.009.044.015.051.023.106.035.159.056.165.058.331.12.5.173l.288.066c.057.015.115.029.173.042s.1.029.149.037c.189.038.382.074.578.1.067.009.136.014.206.023.05.006.1.015.149.018.07.009.14.02.21.026.193.015.382.024.575.029h.178c.054,0,.1,0,.162,0,.086,0,.172,0,.257,0,.217-.012.434-.024.648-.044a.666.666,0,0,0,.075-.012c.055-.006.11-.017.165-.024.167-.018.337-.04.5-.067.069-.015.135-.038.207-.053.2-.04.394-.093.589-.148.1-.024.209-.044.308-.077a.983.983,0,0,0,.128-.059,6.66,6.66,0,0,0,1.148-.5Z" fill="url(#linear-gradient-5)"/>
                        <g id="Grupo_55821" data-name="Grupo 55821">
                          <path id="Trazado_106025" data-name="Trazado 106025" d="M-349.018,1213.233c2.281,1.316,2.3,3.458.026,4.778l-90.325,52.487a9.077,9.077,0,0,1-8.244,0l-46.283-26.723c-2.282-1.315-2.3-3.458-.027-4.773l90.324-52.492a9.093,9.093,0,0,1,8.246,0Z" fill="url(#linear-gradient-5)"/>
                        </g>
                        <g id="Grupo_55822" data-name="Grupo 55822">
                          <path id="Trazado_106026" data-name="Trazado 106026" d="M-353.421,1213.268c2.076,1.2,2.09,3.145.026,4.344l-82.166,47.752a8.273,8.273,0,0,1-7.5,0l-42.1-24.309c-2.08-1.2-2.09-3.148-.027-4.347l82.167-47.746a8.256,8.256,0,0,1,7.5,0Z" fill="url(#linear-gradient-7)"/>
                        </g>
                        <g id="Grupo_55823" data-name="Grupo 55823">
                          <path id="Trazado_106027" data-name="Trazado 106027" d="M-459.416,1259.437a.249.249,0,0,1,0,.471.919.919,0,0,1-.824,0l-16.326-9.422c-.226-.133-.226-.345,0-.481a.9.9,0,0,1,.816,0Z" fill="#0b0c0c"/>
                        </g>
                      </g>
                    </g>
                    <g id="Grupo_55861" data-name="Grupo 55861">
                      <g id="Grupo_55837" data-name="Grupo 55837">
                        <g id="Grupo_55836" data-name="Grupo 55836" style="isolation: isolate">
                          <g id="Grupo_55828" data-name="Grupo 55828" style="isolation: isolate">
                            <g id="Grupo_55827" data-name="Grupo 55827" clip-path="url(#clip-path)">
                              <g id="Grupo_55826" data-name="Grupo 55826" style="isolation: isolate">
                                <path id="Trazado_106028" data-name="Trazado 106028" d="M-437.409,1161.617l-.822-.477a.282.282,0,0,1-.121-.261,35.13,35.13,0,0,0-2.069-12.715,10.676,10.676,0,0,0-4.074-5.415l.821.478a10.664,10.664,0,0,1,4.074,5.412,35.2,35.2,0,0,1,2.071,12.718.279.279,0,0,0,.12.26Z" fill="#858381"/>
                              </g>
                            </g>
                          </g>
                          <g id="Grupo_55831" data-name="Grupo 55831" style="isolation: isolate">
                            <g id="Grupo_55830" data-name="Grupo 55830" clip-path="url(#clip-path-2)">
                              <g id="Grupo_55829" data-name="Grupo 55829" style="isolation: isolate">
                                <path id="Trazado_106030" data-name="Trazado 106030" d="M-449.253,1142.466l-.82-.477a9.259,9.259,0,0,1,1.014-.5l.821.478a8.764,8.764,0,0,0-1.015.5Z" fill="#cccac6"/>
                                <path id="Trazado_106031" data-name="Trazado 106031" d="M-448.238,1141.963l-.821-.478a7.24,7.24,0,0,1,.864-.3l.82.478a7.123,7.123,0,0,0-.863.3Z" fill="#c7c5c1"/>
                                <path id="Trazado_106032" data-name="Trazado 106032" d="M-447.375,1141.668l-.82-.478a5.435,5.435,0,0,1,.687-.145l.82.476a5.838,5.838,0,0,0-.687.147Z" fill="#c2c0bc"/>
                                <path id="Trazado_106033" data-name="Trazado 106033" d="M-446.688,1141.521l-.82-.476c.2-.029.409-.052.61-.061l.822.478c-.2.01-.4.03-.612.059Z" fill="#bdbab8"/>
                                <path id="Trazado_106034" data-name="Trazado 106034" d="M-446.076,1141.462l-.822-.478a5,5,0,0,1,.576.006l.821.476a5.5,5.5,0,0,0-.575,0Z" fill="#b8b5b3"/>
                                <path id="Trazado_106035" data-name="Trazado 106035" d="M-445.5,1141.466l-.821-.476a4.374,4.374,0,0,1,.561.067l.822.478a5.481,5.481,0,0,0-.562-.069Z" fill="#b3b0ae"/>
                                <path id="Trazado_106036" data-name="Trazado 106036" d="M-444.939,1141.535l-.822-.478a5.2,5.2,0,0,1,.574.133l.822.478a4.784,4.784,0,0,0-.574-.133Z" fill="#adaba9"/>
                                <path id="Trazado_106037" data-name="Trazado 106037" d="M-444.365,1141.668l-.822-.478a.409.409,0,0,0,.067.017c.178.058.356.12.529.194l.821.479a5.269,5.269,0,0,0-.53-.194c-.022-.005-.043-.013-.065-.018Z" fill="#a8a6a4"/>
                                <path id="Trazado_106038" data-name="Trazado 106038" d="M-443.77,1141.88l-.821-.479a6.143,6.143,0,0,1,.616.3l.821.478a5,5,0,0,0-.616-.3Z" fill="#a3a19f"/>
                                <path id="Trazado_106039" data-name="Trazado 106039" d="M-443.154,1142.181l-.821-.478.071.041.821.475-.071-.038Z" fill="#9e9c9a"/>
                              </g>
                            </g>
                          </g>
                          <g id="Grupo_55834" data-name="Grupo 55834" style="isolation: isolate">
                            <g id="Grupo_55833" data-name="Grupo 55833" clip-path="url(#clip-path-3)">
                              <g id="Grupo_55832" data-name="Grupo 55832" style="isolation: isolate">
                                <path id="Trazado_106041" data-name="Trazado 106041" d="M-461.534,1175.545l-.822-.478a.283.283,0,0,1-.12-.26,57.884,57.884,0,0,1,.489-7.588l.82.477a58.079,58.079,0,0,0-.488,7.591.28.28,0,0,0,.121.258Z" fill="#858381"/>
                                <path id="Trazado_106042" data-name="Trazado 106042" d="M-461.167,1167.7l-.82-.477c.213-1.635.49-3.252.827-4.826l.82.476c-.336,1.576-.614,3.192-.827,4.827Z" fill="#8a8886"/>
                                <path id="Trazado_106043" data-name="Trazado 106043" d="M-460.34,1162.869l-.82-.476q.327-1.533.728-3.01c.029-.109.057-.217.088-.323l.822.474c-.031.108-.06.22-.091.325q-.4,1.477-.727,3.01Z" fill="#8f8d8b"/>
                                <path id="Trazado_106044" data-name="Trazado 106044" d="M-459.522,1159.534l-.822-.474c.25-.9.518-1.779.8-2.641l.823.479c-.288.858-.559,1.739-.806,2.636Z" fill="#949290"/>
                                <path id="Trazado_106045" data-name="Trazado 106045" d="M-458.716,1156.9l-.823-.479q.359-1.078.757-2.11l.82.476q-.4,1.033-.754,2.113Z" fill="#999795"/>
                                <path id="Trazado_106046" data-name="Trazado 106046" d="M-457.962,1154.785l-.82-.476c.228-.6.467-1.182.714-1.75l.821.479q-.367.855-.715,1.747Z" fill="#9e9c9a"/>
                                <path id="Trazado_106047" data-name="Trazado 106047" d="M-457.247,1153.038l-.821-.479c.221-.506.446-1,.678-1.48l.821.475c-.232.484-.458.977-.678,1.484Z" fill="#a3a19f"/>
                                <path id="Trazado_106048" data-name="Trazado 106048" d="M-456.569,1151.554l-.821-.475q.321-.664.652-1.291l.822.477c-.223.419-.439.849-.653,1.289Z" fill="#a8a6a4"/>
                                <path id="Trazado_106049" data-name="Trazado 106049" d="M-455.916,1150.265l-.822-.477q.311-.586.635-1.14l.822.476c-.215.373-.427.752-.635,1.141Z" fill="#adaba9"/>
                                <path id="Trazado_106050" data-name="Trazado 106050" d="M-455.281,1149.124l-.822-.476c.207-.354.417-.7.63-1.03l.821.476c-.214.334-.424.676-.629,1.03Z" fill="#b3b0ae"/>
                                <path id="Trazado_106051" data-name="Trazado 106051" d="M-454.652,1148.094l-.821-.476c.152-.24.3-.471.459-.7.059-.087.117-.171.175-.255l.821.478c-.058.085-.115.168-.175.252-.155.231-.307.461-.459.7Z" fill="#b8b5b3"/>
                                <path id="Trazado_106052" data-name="Trazado 106052" d="M-454.018,1147.144l-.821-.478c.218-.307.438-.609.663-.9l.822.478c-.225.286-.446.588-.664.9Z" fill="#bdbab8"/>
                                <path id="Trazado_106053" data-name="Trazado 106053" d="M-453.354,1146.246l-.822-.478c.24-.31.483-.6.729-.887l.82.475q-.369.428-.727.89Z" fill="#c2c0bc"/>
                                <path id="Trazado_106054" data-name="Trazado 106054" d="M-452.627,1145.356l-.82-.475c.3-.344.6-.662.9-.965l.823.479c-.307.3-.606.62-.9.961Z" fill="#c7c5c1"/>
                                <path id="Trazado_106055" data-name="Trazado 106055" d="M-451.723,1144.4l-.823-.479a12.462,12.462,0,0,1,2.473-1.927l.82.477a12.333,12.333,0,0,0-2.47,1.929Z" fill="#cccac6"/>
                              </g>
                            </g>
                          </g>
                          <g id="Grupo_55835" data-name="Grupo 55835">
                            <path id="Trazado_106057" data-name="Trazado 106057" d="M-449.253,1142.466a6.139,6.139,0,0,1,4.953-.78,7.553,7.553,0,0,1,3.959,3.256c2.237,3.358,3.615,8.922,3.635,15.942a.9.9,0,0,1-.414.707c-.224.129-.409.023-.409-.234a35.2,35.2,0,0,0-2.071-12.718c-1.3-3.21-3.115-5.281-5.2-5.907a5.476,5.476,0,0,0-4.448.684,14.367,14.367,0,0,0-4.437,4.443,34.933,34.933,0,0,0-3.71,7.391,57,57,0,0,0-3.431,19.56.907.907,0,0,1-.408.7c-.232.135-.418.029-.419-.225a59.442,59.442,0,0,1,2.042-15.428,42.066,42.066,0,0,1,5.42-12.463A16.055,16.055,0,0,1-449.253,1142.466Z" fill="#c5c3c0"/>
                          </g>
                        </g>
                      </g>
                      <g id="Grupo_55838" data-name="Grupo 55838">
                        <path id="Trazado_106058" data-name="Trazado 106058" d="M-452.409,1185.868l-15.75-9.332-5.257-3.114,42.375-24.466,2.226,2.7,7.379,1.941Z" fill="#c66a4a"/>
                      </g>
                      <g id="Grupo_55839" data-name="Grupo 55839">
                        <path id="Trazado_106059" data-name="Trazado 106059" d="M-452.409,1250.446l-12.875-10.487-10.846-3.3,42.375-24.464,11.592,6.518Z" fill="#c66a4a"/>
                      </g>
                      <g id="Grupo_55840" data-name="Grupo 55840">
                        <path id="Trazado_106060" data-name="Trazado 106060" d="M-452.226,1250.682l-12.218-14.3-11.5.514,2.529-63.475,6.347.173,11.068,8.542Z" fill="#c66a4a"/>
                      </g>
                      <path id="Trazado_106061" data-name="Trazado 106061" d="M-464.444,1236.384l-2.625-62.788-6.347-.173-2.529,63.475Z" fill="#ff8a5b"/>
                      <path id="Trazado_106062" data-name="Trazado 106062" d="M-428.816,1151.654v22.524l7.379-20.582Z" fill="#ff8a5b"/>
                      <path id="Trazado_106063" data-name="Trazado 106063" d="M-428.816,1151.654v17.864l-2.226-20.561Z" fill="#c66a4a"/>
                      <g id="Grupo_55841" data-name="Grupo 55841">
                        <path id="Trazado_106064" data-name="Trazado 106064" d="M-421.437,1153.6l11.584,72.625-42.373,24.461-9.9-73.327Z" fill="#ff8a5b"/>
                      </g>
                      <g id="Grupo_55842" data-name="Grupo 55842">
                        <path id="Trazado_106065" data-name="Trazado 106065" d="M-409.852,1226.221l-42.373,24.461-9.9-73.327Z" fill="#e17c54"/>
                      </g>
                      <g id="Grupo_55843" data-name="Grupo 55843">
                        <path id="Trazado_106066" data-name="Trazado 106066" d="M-452.8,1177.153c.849-.492,1.554-.091,1.558.884a3.419,3.419,0,0,1-1.545,2.677c-.859.5-1.554.1-1.556-.888A3.408,3.408,0,0,1-452.8,1177.153Z" fill="#9f6d09"/>
                      </g>
                      <g id="Grupo_55844" data-name="Grupo 55844">
                        <path id="Trazado_106067" data-name="Trazado 106067" d="M-429.108,1163.559c.849-.488,1.555-.09,1.558.886a3.42,3.42,0,0,1-1.547,2.678c-.859.494-1.553.1-1.556-.887A3.428,3.428,0,0,1-429.108,1163.559Z" fill="#9f6d09"/>
                      </g>
                      <path id="Trazado_106068" data-name="Trazado 106068" d="M-431.117,1149.373l2.053,2.486.067.081.1.026,6.625,1.743-39.831,23.26-4.771-3.631-.083-.062-.1,0-5.2-.141,41.149-23.759Zm.075-.415-42.374,24.465,6.347.173,4.942,3.76,40.69-23.76-7.379-1.942-2.226-2.7Z" fill="#ff8a5b"/>
                      <g id="Grupo_55856" data-name="Grupo 55856">
                        <g id="Grupo_55855" data-name="Grupo 55855" style="isolation: isolate">
                          <g id="Grupo_55847" data-name="Grupo 55847" style="isolation: isolate">
                            <g id="Grupo_55846" data-name="Grupo 55846" clip-path="url(#clip-path-4)">
                              <g id="Grupo_55845" data-name="Grupo 55845" style="isolation: isolate">
                                <path id="Trazado_106069" data-name="Trazado 106069" d="M-428.712,1165.958l-.909-.528a.325.325,0,0,1-.134-.3,35.14,35.14,0,0,0-2.067-12.7,10.587,10.587,0,0,0-4.059-5.4l.91.529a10.6,10.6,0,0,1,4.059,5.4,35.157,35.157,0,0,1,2.066,12.7.324.324,0,0,0,.134.3Z" fill="#858381"/>
                              </g>
                            </g>
                          </g>
                          <g id="Grupo_55850" data-name="Grupo 55850" style="isolation: isolate">
                            <g id="Grupo_55849" data-name="Grupo 55849" clip-path="url(#clip-path-5)">
                              <g id="Grupo_55848" data-name="Grupo 55848" style="isolation: isolate">
                                <path id="Trazado_106071" data-name="Trazado 106071" d="M-440.517,1146.695l-.91-.528a8.8,8.8,0,0,1,1.021-.507l.91.529a8.71,8.71,0,0,0-1.021.506Z" fill="#cccac6"/>
                                <path id="Trazado_106072" data-name="Trazado 106072" d="M-439.5,1146.189l-.91-.529a7.111,7.111,0,0,1,.868-.3l.909.528a7.3,7.3,0,0,0-.867.3Z" fill="#c7c5c1"/>
                                <path id="Trazado_106073" data-name="Trazado 106073" d="M-438.629,1145.892l-.909-.528a6.1,6.1,0,0,1,.69-.146l.91.528a6.322,6.322,0,0,0-.691.146Z" fill="#c2c0bc"/>
                                <path id="Trazado_106074" data-name="Trazado 106074" d="M-437.938,1145.746l-.91-.528a5.7,5.7,0,0,1,.615-.061l.91.529a5.617,5.617,0,0,0-.615.06Z" fill="#bdbab8"/>
                                <path id="Trazado_106075" data-name="Trazado 106075" d="M-437.323,1145.686l-.91-.529a5.6,5.6,0,0,1,.58.005l.909.53a5.051,5.051,0,0,0-.579-.006Z" fill="#b8b5b3"/>
                                <path id="Trazado_106076" data-name="Trazado 106076" d="M-436.744,1145.692l-.909-.53c.19.013.379.036.564.067l.91.53a4.794,4.794,0,0,0-.565-.067Z" fill="#b3b0ae"/>
                                <path id="Trazado_106077" data-name="Trazado 106077" d="M-436.179,1145.759l-.91-.53a5.556,5.556,0,0,1,.561.13l.909.528a5.051,5.051,0,0,0-.56-.128Z" fill="#adaba9"/>
                                <path id="Trazado_106078" data-name="Trazado 106078" d="M-435.619,1145.887l-.909-.528.074.023c.177.054.35.116.521.187l.91.53q-.258-.108-.521-.189l-.075-.023Z" fill="#a8a6a4"/>
                                <path id="Trazado_106079" data-name="Trazado 106079" d="M-435.023,1146.1l-.91-.53a6.454,6.454,0,0,1,.624.307l.909.528a5.856,5.856,0,0,0-.623-.305Z" fill="#a3a19f"/>
                                <path id="Trazado_106080" data-name="Trazado 106080" d="M-434.4,1146.4l-.909-.528c.024.014.048.026.071.04l.91.529-.072-.041Z" fill="#9e9c9a"/>
                              </g>
                            </g>
                          </g>
                          <g id="Grupo_55853" data-name="Grupo 55853" style="isolation: isolate">
                            <g id="Grupo_55852" data-name="Grupo 55852" clip-path="url(#clip-path-6)">
                              <g id="Grupo_55851" data-name="Grupo 55851" style="isolation: isolate">
                                <path id="Trazado_106082" data-name="Trazado 106082" d="M-452.83,1179.886l-.91-.528a.33.33,0,0,1-.136-.3,57.808,57.808,0,0,1,.487-7.571l.91.528a58,58,0,0,0-.488,7.572.326.326,0,0,0,.137.3Z" fill="#858381"/>
                                <path id="Trazado_106083" data-name="Trazado 106083" d="M-452.479,1172.016l-.91-.528c.212-1.63.488-3.241.825-4.815l.909.53c-.336,1.574-.613,3.183-.824,4.813Z" fill="#8a8886"/>
                                <path id="Trazado_106084" data-name="Trazado 106084" d="M-451.655,1167.2l-.909-.53c.222-1.037.469-2.059.741-3.059.035-.131.071-.262.107-.393l.91.529q-.055.2-.108.393-.408,1.5-.741,3.06Z" fill="#8f8d8b"/>
                                <path id="Trazado_106085" data-name="Trazado 106085" d="M-450.806,1163.75l-.91-.529q.369-1.33.8-2.606l.909.53c-.283.847-.548,1.718-.794,2.6Z" fill="#949290"/>
                                <path id="Trazado_106086" data-name="Trazado 106086" d="M-450.012,1161.145l-.909-.53q.357-1.07.75-2.093l.909.528q-.393,1.023-.75,2.095Z" fill="#999795"/>
                                <path id="Trazado_106087" data-name="Trazado 106087" d="M-449.262,1159.05l-.909-.528q.342-.891.712-1.743l.909.529q-.369.851-.712,1.742Z" fill="#9e9c9a"/>
                                <path id="Trazado_106088" data-name="Trazado 106088" d="M-448.55,1157.308l-.909-.529q.327-.758.676-1.481l.91.529q-.35.723-.677,1.481Z" fill="#a3a19f"/>
                                <path id="Trazado_106089" data-name="Trazado 106089" d="M-447.873,1155.827l-.91-.529q.319-.661.655-1.293l.909.528q-.334.632-.654,1.294Z" fill="#a8a6a4"/>
                                <path id="Trazado_106090" data-name="Trazado 106090" d="M-447.219,1154.533l-.909-.528c.208-.393.422-.776.639-1.149l.91.528c-.218.373-.431.757-.64,1.149Z" fill="#adaba9"/>
                                <path id="Trazado_106091" data-name="Trazado 106091" d="M-446.579,1153.384l-.91-.528q.312-.535.636-1.042l.909.529c-.216.338-.427.686-.635,1.041Z" fill="#b3b0ae"/>
                                <path id="Trazado_106092" data-name="Trazado 106092" d="M-445.944,1152.343l-.909-.529c.149-.234.3-.466.457-.692.054-.079.108-.157.163-.235l.909.529c-.055.078-.109.156-.163.236-.154.225-.307.456-.457.691Z" fill="#b8b5b3"/>
                                <path id="Trazado_106093" data-name="Trazado 106093" d="M-445.324,1151.416l-.909-.529q.327-.468.666-.9l.909.527c-.226.291-.447.594-.666.905Z" fill="#bdbab8"/>
                                <path id="Trazado_106094" data-name="Trazado 106094" d="M-444.658,1150.511l-.909-.527q.361-.468.736-.9l.909.529c-.249.286-.494.586-.736.9Z" fill="#c2c0bc"/>
                                <path id="Trazado_106095" data-name="Trazado 106095" d="M-443.922,1149.614l-.909-.529q.448-.516.912-.974l.91.528c-.31.3-.614.631-.913.975Z" fill="#c7c5c1"/>
                                <path id="Trazado_106096" data-name="Trazado 106096" d="M-443.009,1148.639l-.91-.528a12.446,12.446,0,0,1,2.492-1.944l.91.528a12.38,12.38,0,0,0-2.492,1.944Z" fill="#cccac6"/>
                              </g>
                            </g>
                          </g>
                          <g id="Grupo_55854" data-name="Grupo 55854">
                            <path id="Trazado_106098" data-name="Trazado 106098" d="M-440.517,1146.695a6.162,6.162,0,0,1,4.973-.785,7.639,7.639,0,0,1,3.978,3.268c2.236,3.364,3.615,8.941,3.635,15.955a1.012,1.012,0,0,1-.453.792c-.255.147-.462.029-.462-.263a35.157,35.157,0,0,0-2.066-12.7c-1.288-3.21-3.11-5.269-5.181-5.891a5.432,5.432,0,0,0-4.421.674,14.26,14.26,0,0,0-4.411,4.423,34.521,34.521,0,0,0-3.7,7.362,57.06,57.06,0,0,0-3.427,19.529,1.012,1.012,0,0,1-.46.8c-.247.142-.454.023-.455-.269a59.21,59.21,0,0,1,2.053-15.445,41.885,41.885,0,0,1,5.427-12.491A16.183,16.183,0,0,1-440.517,1146.695Z" fill="#c5c3c0"/>
                          </g>
                        </g>
                      </g>
                      <g id="Grupo_55858" data-name="Grupo 55858">
                        <g id="Grupo_55857" data-name="Grupo 55857">
                          <path id="Trazado_106099" data-name="Trazado 106099" d="M-452.8,1176.486c1.11-.638,2.005-.126,2.009,1.138a4.395,4.395,0,0,1-1.994,3.455c-1.1.635-2,.123-2-1.149A4.4,4.4,0,0,1-452.8,1176.486Z" fill="#e2ded9"/>
                        </g>
                        <path id="Trazado_106100" data-name="Trazado 106100" d="M-452.592,1179.817c-1.06.613-1.92.15-1.988-1.014a3.5,3.5,0,0,0-.207,1.127c0,1.272.9,1.784,2,1.149a4.395,4.395,0,0,0,1.994-3.455c0-.05-.009-.085-.012-.131A4.411,4.411,0,0,1-452.592,1179.817Z" fill="#c5c3c0"/>
                        <path id="Trazado_106101" data-name="Trazado 106101" d="M-451.481,1179.3c-.245.567-.663.927-.933.812s-.29-.673-.046-1.237.665-.93.934-.812S-451.236,1178.724-451.481,1179.3Z" fill="#fff"/>
                      </g>
                      <g id="Grupo_55860" data-name="Grupo 55860">
                        <g id="Grupo_55859" data-name="Grupo 55859">
                          <path id="Trazado_106102" data-name="Trazado 106102" d="M-429.013,1163.139c1.109-.641,2-.13,2.008,1.134a4.381,4.381,0,0,1-2,3.455c-1.1.637-1.993.126-2-1.147A4.378,4.378,0,0,1-429.013,1163.139Z" fill="#e2ded9"/>
                        </g>
                        <path id="Trazado_106103" data-name="Trazado 106103" d="M-428.8,1166.464c-1.059.612-1.918.155-1.989-1.009a3.5,3.5,0,0,0-.2,1.126c0,1.273.9,1.784,2,1.147a4.381,4.381,0,0,0,2-3.455c0-.047-.01-.085-.012-.131A4.391,4.391,0,0,1-428.8,1166.464Z" fill="#c5c3c0"/>
                        <path id="Trazado_106104" data-name="Trazado 106104" d="M-427.693,1165.944c-.246.564-.664.93-.934.813s-.29-.674-.045-1.238.665-.927.933-.813S-427.449,1165.379-427.693,1165.944Z" fill="#fff"/>
                      </g>
                    </g>
                    <g id="Grupo_55897" data-name="Grupo 55897">
                      <g id="Grupo_55873" data-name="Grupo 55873">
                        <g id="Grupo_55872" data-name="Grupo 55872" style="isolation: isolate">
                          <g id="Grupo_55864" data-name="Grupo 55864" style="isolation: isolate">
                            <g id="Grupo_55863" data-name="Grupo 55863" clip-path="url(#clip-path-7)">
                              <g id="Grupo_55862" data-name="Grupo 55862" style="isolation: isolate">
                                <path id="Trazado_106105" data-name="Trazado 106105" d="M-385.6,1154.174l.67-.388a.236.236,0,0,0,.1-.217,28.615,28.615,0,0,1,1.689-10.366,8.709,8.709,0,0,1,3.32-4.418l-.67.389a8.727,8.727,0,0,0-3.321,4.416,28.7,28.7,0,0,0-1.686,10.371.232.232,0,0,1-.1.213Z" fill="#858381"/>
                              </g>
                            </g>
                          </g>
                          <g id="Grupo_55867" data-name="Grupo 55867" style="isolation: isolate">
                            <g id="Grupo_55866" data-name="Grupo 55866" clip-path="url(#clip-path-8)">
                              <g id="Grupo_55865" data-name="Grupo 55865" style="isolation: isolate">
                                <path id="Trazado_106107" data-name="Trazado 106107" d="M-375.943,1138.554l.669-.389a7.437,7.437,0,0,0-.826-.41l-.671.392a7.046,7.046,0,0,1,.828.407Z" fill="#cccac6"/>
                                <path id="Trazado_106108" data-name="Trazado 106108" d="M-376.771,1138.147l.671-.392a6.045,6.045,0,0,0-.7-.238l-.67.388a5.437,5.437,0,0,1,.7.242Z" fill="#c7c5c1"/>
                                <path id="Trazado_106109" data-name="Trazado 106109" d="M-377.475,1137.905l.67-.388a4.48,4.48,0,0,0-.559-.12l-.669.389c.181.03.37.069.558.119Z" fill="#c2c0bc"/>
                                <path id="Trazado_106110" data-name="Trazado 106110" d="M-378.033,1137.786l.669-.389a4.777,4.777,0,0,0-.5-.05l-.668.389c.163.009.33.026.5.05Z" fill="#bdbab8"/>
                                <path id="Trazado_106111" data-name="Trazado 106111" d="M-378.531,1137.736l.668-.389c-.157-.005-.313-.005-.468,0l-.669.391a4.07,4.07,0,0,1,.469-.006Z" fill="#b8b5b3"/>
                                <path id="Trazado_106112" data-name="Trazado 106112" d="M-379,1137.742l.669-.391a4.277,4.277,0,0,0-.458.056l-.671.386c.152-.023.3-.04.46-.051Z" fill="#b3b0ae"/>
                                <path id="Trazado_106113" data-name="Trazado 106113" d="M-379.46,1137.793l.671-.386a3.535,3.535,0,0,0-.468.11l-.671.388c.154-.044.312-.081.468-.112Z" fill="#adaba9"/>
                                <path id="Trazado_106114" data-name="Trazado 106114" d="M-379.928,1137.905l.671-.388a.179.179,0,0,0-.054.016,3.735,3.735,0,0,0-.432.155l-.67.387c.142-.058.286-.111.432-.155.018,0,.038-.01.053-.015Z" fill="#a8a6a4"/>
                                <path id="Trazado_106115" data-name="Trazado 106115" d="M-380.413,1138.075l.67-.387a4.575,4.575,0,0,0-.5.247l-.669.386c.164-.089.332-.17.5-.246Z" fill="#a3a19f"/>
                                <path id="Trazado_106116" data-name="Trazado 106116" d="M-380.915,1138.321l.669-.386a.607.607,0,0,0-.058.034l-.668.387c.018-.014.039-.02.057-.035Z" fill="#9e9c9a"/>
                              </g>
                            </g>
                          </g>
                          <g id="Grupo_55870" data-name="Grupo 55870" style="isolation: isolate">
                            <g id="Grupo_55869" data-name="Grupo 55869" clip-path="url(#clip-path-9)">
                              <g id="Grupo_55868" data-name="Grupo 55868" style="isolation: isolate">
                                <path id="Trazado_106118" data-name="Trazado 106118" d="M-365.928,1165.528l.67-.388a.229.229,0,0,0,.1-.212,46.46,46.46,0,0,0-.4-6.187l-.668.39a47.093,47.093,0,0,1,.4,6.187.219.219,0,0,1-.1.21Z" fill="#858381"/>
                                <path id="Trazado_106119" data-name="Trazado 106119" d="M-366.227,1159.131l.668-.39c-.173-1.333-.4-2.651-.673-3.936l-.669.387c.273,1.286.5,2.606.674,3.939Z" fill="#8a8886"/>
                                <path id="Trazado_106120" data-name="Trazado 106120" d="M-366.9,1155.192l.669-.387c-.179-.832-.375-1.653-.6-2.454-.02-.09-.047-.178-.07-.265l-.67.39c.024.087.049.176.073.264.216.8.416,1.622.593,2.452Z" fill="#8f8d8b"/>
                                <path id="Trazado_106121" data-name="Trazado 106121" d="M-367.567,1152.476l.67-.39c-.2-.729-.423-1.45-.655-2.152l-.672.388c.236.7.456,1.421.657,2.154Z" fill="#949290"/>
                                <path id="Trazado_106122" data-name="Trazado 106122" d="M-368.224,1150.322l.672-.388q-.3-.877-.62-1.72l-.668.39c.216.56.421,1.135.616,1.718Z" fill="#999795"/>
                                <path id="Trazado_106123" data-name="Trazado 106123" d="M-368.84,1148.6l.668-.39c-.184-.485-.381-.963-.582-1.429l-.67.388c.2.467.4.942.584,1.431Z" fill="#9e9c9a"/>
                                <path id="Trazado_106124" data-name="Trazado 106124" d="M-369.424,1147.173l.67-.388c-.18-.409-.363-.816-.552-1.206l-.669.389c.189.393.375.8.551,1.2Z" fill="#a3a19f"/>
                                <path id="Trazado_106125" data-name="Trazado 106125" d="M-369.975,1145.968l.669-.389q-.26-.539-.533-1.051l-.669.386c.181.346.361.7.533,1.054Z" fill="#a8a6a4"/>
                                <path id="Trazado_106126" data-name="Trazado 106126" d="M-370.508,1144.914l.669-.386c-.167-.319-.341-.628-.517-.932l-.671.39c.178.3.35.614.519.928Z" fill="#adaba9"/>
                                <path id="Trazado_106127" data-name="Trazado 106127" d="M-371.027,1143.986l.671-.39c-.168-.287-.338-.567-.515-.841l-.669.386c.175.277.345.559.513.845Z" fill="#b3b0ae"/>
                                <path id="Trazado_106128" data-name="Trazado 106128" d="M-371.54,1143.141l.669-.386c-.123-.191-.247-.381-.373-.566-.046-.071-.1-.138-.14-.207l-.674.39c.05.068.1.139.145.205.125.186.251.377.373.564Z" fill="#b8b5b3"/>
                                <path id="Trazado_106129" data-name="Trazado 106129" d="M-372.058,1142.372l.674-.39q-.27-.378-.543-.734l-.668.389c.182.237.362.481.537.735Z" fill="#bdbab8"/>
                                <path id="Trazado_106130" data-name="Trazado 106130" d="M-372.6,1141.637l.668-.389c-.2-.251-.395-.494-.6-.726l-.67.389c.2.233.4.476.6.726Z" fill="#c2c0bc"/>
                                <path id="Trazado_106131" data-name="Trazado 106131" d="M-373.192,1140.911l.67-.389c-.242-.277-.486-.538-.736-.785l-.67.392c.252.243.5.508.736.782Z" fill="#c7c5c1"/>
                                <path id="Trazado_106132" data-name="Trazado 106132" d="M-373.928,1140.129l.67-.392a10.176,10.176,0,0,0-2.016-1.572l-.669.389a9.888,9.888,0,0,1,2.015,1.575Z" fill="#cccac6"/>
                              </g>
                            </g>
                          </g>
                          <g id="Grupo_55871" data-name="Grupo 55871">
                            <path id="Trazado_106134" data-name="Trazado 106134" d="M-375.943,1138.554a5.013,5.013,0,0,0-4.038-.634,6.138,6.138,0,0,0-3.228,2.655c-1.822,2.738-2.948,7.274-2.963,13a.741.741,0,0,0,.336.581c.185.107.337.018.337-.192a28.7,28.7,0,0,1,1.686-10.371c1.06-2.62,2.541-4.307,4.244-4.818a4.459,4.459,0,0,1,3.624.557,11.755,11.755,0,0,1,3.618,3.625,28.634,28.634,0,0,1,3.026,6.025,46.461,46.461,0,0,1,2.8,15.949.74.74,0,0,0,.334.577c.188.1.342.021.342-.187a48.4,48.4,0,0,0-1.666-12.578,34.231,34.231,0,0,0-4.419-10.163A13.123,13.123,0,0,0-375.943,1138.554Z" fill="#c5c3c0"/>
                          </g>
                        </g>
                      </g>
                      <g id="Grupo_55874" data-name="Grupo 55874">
                        <path id="Trazado_106135" data-name="Trazado 106135" d="M-373.368,1173.95l12.842-7.612,4.29-2.539-34.555-19.949-1.817,2.2-6.015,1.582Z" fill="#ce4761"/>
                      </g>
                      <g id="Grupo_55875" data-name="Grupo 55875">
                        <path id="Trazado_106136" data-name="Trazado 106136" d="M-373.368,1226.608l10.5-8.554,8.843-2.687-34.552-19.951-9.452,5.318Z" fill="#ce4761"/>
                      </g>
                      <g id="Grupo_55876" data-name="Grupo 55876">
                        <path id="Trazado_106137" data-name="Trazado 106137" d="M-373.516,1226.8l9.959-11.66,9.379.418-2.059-51.757-5.179.142-9.024,6.968Z" fill="#f76689"/>
                      </g>
                      <path id="Trazado_106138" data-name="Trazado 106138" d="M-363.557,1215.138l2.142-51.2,5.179-.142,2.059,51.757Z" fill="#9f0925"/>
                      <path id="Trazado_106139" data-name="Trazado 106139" d="M-392.609,1146.049v18.368l-6.015-16.785Z" fill="#ce4761"/>
                      <path id="Trazado_106140" data-name="Trazado 106140" d="M-392.609,1146.049v14.568l1.817-16.767Z" fill="#ce4761"/>
                      <g id="Grupo_55877" data-name="Grupo 55877">
                        <path id="Trazado_106141" data-name="Trazado 106141" d="M-398.623,1147.631l-9.447,59.216,34.554,19.951,8.072-59.788Z" fill="#9f0925"/>
                      </g>
                      <g id="Grupo_55878" data-name="Grupo 55878">
                        <path id="Trazado_106142" data-name="Trazado 106142" d="M-398.623,1147.34l-9.447,59.217,34.554,19.948Z" fill="#ce4761"/>
                      </g>
                      <g id="Grupo_55879" data-name="Grupo 55879">
                        <path id="Trazado_106143" data-name="Trazado 106143" d="M-373.051,1166.842c-.69-.4-1.267-.073-1.27.722a2.779,2.779,0,0,0,1.262,2.18c.7.4,1.266.085,1.269-.723A2.776,2.776,0,0,0-373.051,1166.842Z" fill="#9f6d09"/>
                      </g>
                      <g id="Grupo_55880" data-name="Grupo 55880">
                        <path id="Trazado_106144" data-name="Trazado 106144" d="M-392.368,1155.755c-.691-.4-1.268-.069-1.268.723a2.79,2.79,0,0,0,1.257,2.183c.7.406,1.27.085,1.27-.722A2.789,2.789,0,0,0-392.368,1155.755Z" fill="#9f6d09"/>
                      </g>
                      <path id="Trazado_106145" data-name="Trazado 106145" d="M-390.736,1144.157l33.652,19.429-4.337.118-.076,0-.061.047-3.9,2.972-32.547-19.011,5.463-1.435.075-.022.047-.057,1.689-2.043Zm-.056-.307-1.817,2.2-6.014,1.582,33.178,19.38,4.029-3.07,5.179-.142-34.555-19.949Z" fill="#ffcace"/>
                      <g id="Grupo_55892" data-name="Grupo 55892">
                        <g id="Grupo_55891" data-name="Grupo 55891" style="isolation: isolate">
                          <g id="Grupo_55883" data-name="Grupo 55883" style="isolation: isolate">
                            <g id="Grupo_55882" data-name="Grupo 55882" clip-path="url(#clip-path-10)">
                              <g id="Grupo_55881" data-name="Grupo 55881" style="isolation: isolate">
                                <path id="Trazado_106146" data-name="Trazado 106146" d="M-392.682,1157.647l.671-.391a.239.239,0,0,0,.1-.218,28.7,28.7,0,0,1,1.689-10.361,8.633,8.633,0,0,1,3.323-4.42l-.67.388a8.663,8.663,0,0,0-3.323,4.421,28.668,28.668,0,0,0-1.688,10.361.236.236,0,0,1-.1.22Z" fill="#858381"/>
                              </g>
                            </g>
                          </g>
                          <g id="Grupo_55886" data-name="Grupo 55886" style="isolation: isolate">
                            <g id="Grupo_55885" data-name="Grupo 55885" clip-path="url(#clip-path-11)">
                              <g id="Grupo_55884" data-name="Grupo 55884" style="isolation: isolate">
                                <path id="Trazado_106148" data-name="Trazado 106148" d="M-383.029,1142.027l.667-.39a7.51,7.51,0,0,0-.819-.407l-.668.391a6.868,6.868,0,0,1,.82.406Z" fill="#cccac6"/>
                                <path id="Trazado_106149" data-name="Trazado 106149" d="M-383.849,1141.621l.668-.391a6.286,6.286,0,0,0-.7-.24l-.67.389a5.785,5.785,0,0,1,.706.242Z" fill="#c7c5c1"/>
                                <path id="Trazado_106150" data-name="Trazado 106150" d="M-384.555,1141.379l.67-.389a5.31,5.31,0,0,0-.558-.119l-.671.389a5.328,5.328,0,0,1,.559.119Z" fill="#c2c0bc"/>
                                <path id="Trazado_106151" data-name="Trazado 106151" d="M-385.114,1141.26l.671-.389a4.3,4.3,0,0,0-.5-.046l-.67.385c.166.009.332.025.5.05Z" fill="#bdbab8"/>
                                <path id="Trazado_106152" data-name="Trazado 106152" d="M-385.613,1141.21l.67-.385a3.911,3.911,0,0,0-.471,0l-.669.388a4.1,4.1,0,0,1,.47-.006Z" fill="#b8b5b3"/>
                                <path id="Trazado_106153" data-name="Trazado 106153" d="M-386.083,1141.216l.669-.388a3.571,3.571,0,0,0-.458.054l-.669.389c.152-.026.3-.043.458-.055Z" fill="#b3b0ae"/>
                                <path id="Trazado_106154" data-name="Trazado 106154" d="M-386.541,1141.271l.669-.389a4.339,4.339,0,0,0-.485.115l-.669.387a4.054,4.054,0,0,1,.485-.113Z" fill="#adaba9"/>
                                <path id="Trazado_106155" data-name="Trazado 106155" d="M-387.026,1141.384l.669-.387a.1.1,0,0,0-.036.01c-.15.044-.3.1-.443.157l-.67.39a4.678,4.678,0,0,1,.442-.159c.014,0,.025-.008.038-.011Z" fill="#a8a6a4"/>
                                <path id="Trazado_106156" data-name="Trazado 106156" d="M-387.506,1141.554l.67-.39a5.08,5.08,0,0,0-.5.244l-.669.39a4.853,4.853,0,0,1,.495-.244Z" fill="#a3a19f"/>
                                <path id="Trazado_106157" data-name="Trazado 106157" d="M-388,1141.8l.669-.39c-.02.008-.037.022-.058.031l-.668.391a.533.533,0,0,1,.057-.032Z" fill="#9e9c9a"/>
                              </g>
                            </g>
                          </g>
                          <g id="Grupo_55889" data-name="Grupo 55889" style="isolation: isolate">
                            <g id="Grupo_55888" data-name="Grupo 55888" clip-path="url(#clip-path-12)">
                              <g id="Grupo_55887" data-name="Grupo 55887" style="isolation: isolate">
                                <path id="Trazado_106159" data-name="Trazado 106159" d="M-373.012,1169l.674-.388a.243.243,0,0,0,.093-.221,47.642,47.642,0,0,0-.394-6.16l-.674.389a47.668,47.668,0,0,1,.4,6.165.231.231,0,0,1-.1.215Z" fill="#858381"/>
                                <path id="Trazado_106160" data-name="Trazado 106160" d="M-373.313,1162.623l.674-.389c-.177-1.339-.4-2.658-.678-3.949l-.671.389c.277,1.291.5,2.61.675,3.949Z" fill="#8a8886"/>
                                <path id="Trazado_106161" data-name="Trazado 106161" d="M-373.988,1158.674l.671-.389q-.27-1.258-.6-2.465c-.028-.094-.051-.188-.079-.284l-.67.388c.026.1.053.191.078.285q.324,1.211.6,2.465Z" fill="#8f8d8b"/>
                                <path id="Trazado_106162" data-name="Trazado 106162" d="M-374.661,1155.924l.67-.388c-.2-.736-.423-1.452-.657-2.153l-.67.391c.235.7.453,1.417.657,2.15Z" fill="#949290"/>
                                <path id="Trazado_106163" data-name="Trazado 106163" d="M-375.318,1153.774l.67-.391q-.292-.878-.612-1.713l-.671.389q.321.837.613,1.715Z" fill="#999795"/>
                                <path id="Trazado_106164" data-name="Trazado 106164" d="M-375.931,1152.059l.671-.389q-.283-.726-.581-1.42l-.67.39c.2.463.394.936.58,1.419Z" fill="#9e9c9a"/>
                                <path id="Trazado_106165" data-name="Trazado 106165" d="M-376.511,1150.64l.67-.39q-.267-.612-.55-1.2l-.67.39c.188.388.372.791.55,1.2Z" fill="#a3a19f"/>
                                <path id="Trazado_106166" data-name="Trazado 106166" d="M-377.061,1149.442l.67-.39c-.172-.359-.348-.7-.527-1.045l-.673.388c.183.343.359.688.53,1.047Z" fill="#a8a6a4"/>
                                <path id="Trazado_106167" data-name="Trazado 106167" d="M-377.591,1148.4l.673-.388q-.255-.472-.518-.929l-.667.391c.174.3.347.609.512.926Z" fill="#adaba9"/>
                                <path id="Trazado_106168" data-name="Trazado 106168" d="M-378.1,1147.469l.667-.391c-.168-.285-.337-.563-.51-.835l-.672.388q.261.41.515.838Z" fill="#b3b0ae"/>
                                <path id="Trazado_106169" data-name="Trazado 106169" d="M-378.618,1146.631l.672-.388c-.127-.2-.255-.392-.385-.584-.052-.076-.1-.147-.156-.222l-.669.389c.052.075.1.151.156.223.131.191.256.382.382.582Z" fill="#b8b5b3"/>
                                <path id="Trazado_106170" data-name="Trazado 106170" d="M-379.156,1145.826l.669-.389c-.174-.251-.349-.489-.531-.719l-.67.386c.182.234.358.475.532.722Z" fill="#bdbab8"/>
                                <path id="Trazado_106171" data-name="Trazado 106171" d="M-379.688,1145.1l.67-.386c-.192-.251-.39-.491-.59-.723l-.668.391c.2.231.393.47.588.718Z" fill="#c2c0bc"/>
                                <path id="Trazado_106172" data-name="Trazado 106172" d="M-380.276,1144.386l.668-.391c-.239-.275-.486-.537-.733-.783l-.668.391c.247.244.491.509.733.783Z" fill="#c7c5c1"/>
                                <path id="Trazado_106173" data-name="Trazado 106173" d="M-381.009,1143.6l.668-.391a10.181,10.181,0,0,0-2.021-1.575l-.667.39a10.106,10.106,0,0,1,2.02,1.576Z" fill="#cccac6"/>
                              </g>
                            </g>
                          </g>
                          <g id="Grupo_55890" data-name="Grupo 55890">
                            <path id="Trazado_106175" data-name="Trazado 106175" d="M-383.029,1142.027a4.994,4.994,0,0,0-4.035-.632,6.165,6.165,0,0,0-3.231,2.651c-1.826,2.737-2.943,7.279-2.967,12.99a.755.755,0,0,0,.34.588c.188.108.34.02.34-.2a28.668,28.668,0,0,1,1.688-10.361c1.052-2.627,2.542-4.309,4.235-4.822a4.479,4.479,0,0,1,3.627.556,11.779,11.779,0,0,1,3.623,3.629,28.329,28.329,0,0,1,3.022,6.02,46.505,46.505,0,0,1,2.8,15.943.745.745,0,0,0,.337.588c.189.109.341.02.341-.192a48.685,48.685,0,0,0-1.672-12.579,34.084,34.084,0,0,0-4.417-10.16A13.117,13.117,0,0,0-383.029,1142.027Z" fill="#c5c3c0"/>
                          </g>
                        </g>
                      </g>
                      <g id="Grupo_55894" data-name="Grupo 55894">
                        <g id="Grupo_55893" data-name="Grupo 55893">
                          <path id="Trazado_106176" data-name="Trazado 106176" d="M-373.048,1166.3c-.9-.522-1.636-.1-1.638.925a3.584,3.584,0,0,0,1.627,2.818c.9.516,1.628.1,1.632-.936A3.568,3.568,0,0,0-373.048,1166.3Z" fill="#e2ded9"/>
                        </g>
                        <path id="Trazado_106177" data-name="Trazado 106177" d="M-373.217,1169.012c.862.5,1.563.13,1.619-.824a2.841,2.841,0,0,1,.171.919c0,1.038-.736,1.452-1.632.936a3.584,3.584,0,0,1-1.627-2.818c0-.038.007-.07.01-.108A3.576,3.576,0,0,0-373.217,1169.012Z" fill="#c5c3c0"/>
                        <path id="Trazado_106178" data-name="Trazado 106178" d="M-374.127,1168.589c.2.458.542.754.763.66s.236-.547.037-1.01-.543-.757-.759-.66S-374.324,1168.126-374.127,1168.589Z" fill="#fff"/>
                      </g>
                      <g id="Grupo_55896" data-name="Grupo 55896">
                        <g id="Grupo_55895" data-name="Grupo 55895">
                          <path id="Trazado_106179" data-name="Trazado 106179" d="M-392.446,1155.414c-.9-.523-1.635-.107-1.636.925a3.571,3.571,0,0,0,1.628,2.818c.893.514,1.625.1,1.628-.938A3.57,3.57,0,0,0-392.446,1155.414Z" fill="#e2ded9"/>
                        </g>
                        <path id="Trazado_106180" data-name="Trazado 106180" d="M-392.613,1158.126c.862.5,1.563.128,1.618-.825a2.824,2.824,0,0,1,.169.918c0,1.038-.733,1.452-1.628.938a3.571,3.571,0,0,1-1.628-2.818c0-.041.008-.07.01-.106A3.558,3.558,0,0,0-392.613,1158.126Z" fill="#c5c3c0"/>
                        <path id="Trazado_106181" data-name="Trazado 106181" d="M-393.521,1157.7c.2.461.541.757.759.663s.236-.547.04-1.008-.542-.758-.761-.662S-393.723,1157.241-393.521,1157.7Z" fill="#fff"/>
                      </g>
                    </g>
                    <g id="Grupo_55931" data-name="Grupo 55931">
                      <g id="Grupo_55909" data-name="Grupo 55909">
                        <g id="Grupo_55908" data-name="Grupo 55908" style="isolation: isolate">
                          <g id="Grupo_55900" data-name="Grupo 55900" style="isolation: isolate">
                            <g id="Grupo_55899" data-name="Grupo 55899" clip-path="url(#clip-path-13)">
                              <g id="Grupo_55898" data-name="Grupo 55898" style="isolation: isolate">
                                <path id="Trazado_106182" data-name="Trazado 106182" d="M-395.8,1185.692l-.82-.479a.288.288,0,0,1-.121-.267c-.022-7.427-2.251-12.871-5.827-15.667a10.454,10.454,0,0,0-1.161-.785l.822.477a9.731,9.731,0,0,1,1.158.786c3.579,2.8,5.807,8.239,5.829,15.666a.3.3,0,0,0,.12.269Z" fill="#7a7977"/>
                              </g>
                            </g>
                          </g>
                          <g id="Grupo_55903" data-name="Grupo 55903" style="isolation: isolate">
                            <g id="Grupo_55902" data-name="Grupo 55902" clip-path="url(#clip-path-14)">
                              <g id="Grupo_55901" data-name="Grupo 55901" style="isolation: isolate">
                                <path id="Trazado_106184" data-name="Trazado 106184" d="M-415.629,1168.977l-.822-.477a21.89,21.89,0,0,1,2.473-1.228l.822.48a20.524,20.524,0,0,0-2.473,1.225Z" fill="#bbbab6"/>
                                <path id="Trazado_106185" data-name="Trazado 106185" d="M-413.156,1167.752l-.822-.48a16.994,16.994,0,0,1,2.052-.7l.82.475a16.2,16.2,0,0,0-2.05.7Z" fill="#b7b5b2"/>
                                <path id="Trazado_106186" data-name="Trazado 106186" d="M-411.106,1167.047l-.82-.475a13.64,13.64,0,0,1,1.586-.336l.82.474a14.637,14.637,0,0,0-1.586.337Z" fill="#b2b0ad"/>
                                <path id="Trazado_106187" data-name="Trazado 106187" d="M-409.52,1166.71l-.82-.474a11.869,11.869,0,0,1,1.373-.14l.82.476a12.426,12.426,0,0,0-1.373.138Z" fill="#adaca9"/>
                                <path id="Trazado_106188" data-name="Trazado 106188" d="M-408.147,1166.572l-.82-.476a10.4,10.4,0,0,1,1.249.014l.822.474a12.118,12.118,0,0,0-1.251-.012Z" fill="#a8a7a4"/>
                                <path id="Trazado_106189" data-name="Trazado 106189" d="M-406.9,1166.584l-.822-.474a11.208,11.208,0,0,1,1.168.135l.822.48a10.03,10.03,0,0,0-1.168-.141Z" fill="#a4a2a0"/>
                                <path id="Trazado_106190" data-name="Trazado 106190" d="M-405.728,1166.725l-.822-.48a9.384,9.384,0,0,1,1.117.261l.823.476a10.157,10.157,0,0,0-1.118-.257Z" fill="#9f9e9b"/>
                                <path id="Trazado_106191" data-name="Trazado 106191" d="M-404.61,1166.982l-.823-.476a8.648,8.648,0,0,1,1.09.385l.821.474a10.225,10.225,0,0,0-1.088-.383Z" fill="#9a9996"/>
                                <path id="Trazado_106192" data-name="Trazado 106192" d="M-403.522,1167.365l-.821-.474a10.134,10.134,0,0,1,1.07.521l.821.479a9.917,9.917,0,0,0-1.07-.526Z" fill="#969492"/>
                                <path id="Trazado_106193" data-name="Trazado 106193" d="M-402.452,1167.891l-.821-.479c.04.024.078.047.118.067l.822.481a.725.725,0,0,0-.119-.069Z" fill="#91908d"/>
                              </g>
                            </g>
                          </g>
                          <g id="Grupo_55906" data-name="Grupo 55906" style="isolation: isolate">
                            <g id="Grupo_55905" data-name="Grupo 55905" clip-path="url(#clip-path-15)">
                              <g id="Grupo_55904" data-name="Grupo 55904" style="isolation: isolate">
                                <path id="Trazado_106195" data-name="Trazado 106195" d="M-435.887,1208.837l-.819-.48a.285.285,0,0,1-.123-.266,42.457,42.457,0,0,1,.36-5.544l.822.479a42.226,42.226,0,0,0-.36,5.541.3.3,0,0,0,.12.27Z" fill="#7a7977"/>
                                <path id="Trazado_106196" data-name="Trazado 106196" d="M-435.647,1203.026l-.822-.479c.168-1.3.393-2.6.671-3.9l.824.477q-.422,1.952-.673,3.9Z" fill="#7e7d7b"/>
                                <path id="Trazado_106197" data-name="Trazado 106197" d="M-434.974,1199.125l-.824-.477q.33-1.539.755-3.069l.82.478c-.283,1.014-.535,2.04-.751,3.068Z" fill="#838280"/>
                                <path id="Trazado_106198" data-name="Trazado 106198" d="M-434.223,1196.057l-.82-.478c.247-.892.518-1.776.811-2.661l.821.479q-.439,1.321-.812,2.66Z" fill="#888784"/>
                                <path id="Trazado_106199" data-name="Trazado 106199" d="M-433.411,1193.4l-.821-.479c.268-.793.551-1.587.855-2.379l.822.48c-.3.786-.589,1.582-.856,2.378Z" fill="#8c8b89"/>
                                <path id="Trazado_106200" data-name="Trazado 106200" d="M-432.555,1191.019l-.822-.48c.282-.735.58-1.459.892-2.183l.823.478q-.471,1.083-.893,2.185Z" fill="#91908d"/>
                                <path id="Trazado_106201" data-name="Trazado 106201" d="M-431.662,1188.834l-.823-.478c.3-.69.612-1.374.938-2.047l.821.48c-.327.673-.636,1.355-.936,2.045Z" fill="#969492"/>
                                <path id="Trazado_106202" data-name="Trazado 106202" d="M-430.726,1186.789l-.821-.48c.206-.427.419-.854.635-1.275q.184-.356.372-.711l.822.477c-.126.237-.249.473-.373.71-.217.425-.429.849-.635,1.279Z" fill="#9a9996"/>
                                <path id="Trazado_106203" data-name="Trazado 106203" d="M-429.718,1184.8l-.822-.477c.333-.626.678-1.246,1.034-1.852l.821.474q-.533.914-1.033,1.855Z" fill="#9f9e9b"/>
                                <path id="Trazado_106204" data-name="Trazado 106204" d="M-428.685,1182.945l-.821-.474c.355-.614.721-1.211,1.1-1.8l.82.48c-.374.588-.741,1.191-1.1,1.8Z" fill="#a4a2a0"/>
                                <path id="Trazado_106205" data-name="Trazado 106205" d="M-427.588,1181.149l-.82-.48c.385-.6.782-1.2,1.188-1.773l.818.478c-.4.579-.8,1.17-1.186,1.775Z" fill="#a8a7a4"/>
                                <path id="Trazado_106206" data-name="Trazado 106206" d="M-426.4,1179.374l-.818-.478q.642-.92,1.319-1.786l.82.476q-.677.868-1.321,1.788Z" fill="#adaca9"/>
                                <path id="Trazado_106207" data-name="Trazado 106207" d="M-425.081,1177.586l-.82-.476q.75-.969,1.536-1.877l.822.481q-.787.9-1.538,1.872Z" fill="#b2b0ad"/>
                                <path id="Trazado_106208" data-name="Trazado 106208" d="M-423.543,1175.714l-.822-.481q.978-1.125,2.007-2.147l.823.478q-1.026,1.017-2.008,2.15Z" fill="#b7b5b2"/>
                                <path id="Trazado_106209" data-name="Trazado 106209" d="M-421.535,1173.564l-.823-.478a29.721,29.721,0,0,1,5.907-4.586l.822.477a29.592,29.592,0,0,0-5.906,4.587Z" fill="#bbbab6"/>
                              </g>
                            </g>
                          </g>
                          <g id="Grupo_55907" data-name="Grupo 55907">
                            <path id="Trazado_106211" data-name="Trazado 106211" d="M-415.629,1168.977c5.673-3.277,10.809-3.1,14.514-.194s6,8.511,6.02,16.163a.9.9,0,0,1-.409.714c-.231.137-.416.029-.416-.237-.022-7.427-2.25-12.868-5.829-15.666s-8.478-2.945-13.879.168-10.286,8.927-13.835,15.831a50.142,50.142,0,0,0-5.719,22.335.915.915,0,0,1-.407.717c-.231.131-.418.026-.418-.241a51.621,51.621,0,0,1,5.916-23.057C-426.414,1178.347-421.3,1172.25-415.629,1168.977Z" fill="#b5b3b0"/>
                          </g>
                        </g>
                      </g>
                      <g id="Grupo_55910" data-name="Grupo 55910">
                        <path id="Trazado_106212" data-name="Trazado 106212" d="M-434.057,1218.359l-5.22-10.007-3.558-2.113,50.139-28.854,2.524,3.882,9.127,2.328Z" fill="#20a5a5"/>
                      </g>
                      <g id="Grupo_55911" data-name="Grupo 55911">
                        <path id="Trazado_106213" data-name="Trazado 106213" d="M-428.614,1258.385l-9.132-6.436-6.8-2.735L-394.9,1220l7.847,4.415Z" fill="#156d6a"/>
                      </g>
                      <g id="Grupo_55912" data-name="Grupo 55912">
                        <path id="Trazado_106214" data-name="Trazado 106214" d="M-428.488,1258.549l-8.272-9.686-7.788.35,1.712-42.975,7.419.269,5.744,5.664Z" fill="#20a5a5"/>
                      </g>
                      <path id="Trazado_106215" data-name="Trazado 106215" d="M-436.76,1248.863l1.343-42.355-7.419-.269-1.712,42.975Z" fill="#0ce6ea"/>
                      <path id="Trazado_106216" data-name="Trazado 106216" d="M-390.173,1181.266v28.254l9.127-25.926Z" fill="#156d6a"/>
                      <path id="Trazado_106217" data-name="Trazado 106217" d="M-390.173,1181.266l.389,27.959-2.913,2.333v-34.175Z" fill="#156d6a"/>
                      <g id="Grupo_55913" data-name="Grupo 55913">
                        <path id="Trazado_106218" data-name="Trazado 106218" d="M-381.047,1183.595l2.327,45.9-49.768,29.055-1.185-46.377Z" fill="#47f4f4"/>
                      </g>
                      <g id="Grupo_55914" data-name="Grupo 55914">
                        <path id="Trazado_106219" data-name="Trazado 106219" d="M-378.869,1229.645l-49.765,29.044-1.185-46.37Z" fill="#0ce6ea"/>
                      </g>
                      <g id="Grupo_55926" data-name="Grupo 55926">
                        <g id="Grupo_55925" data-name="Grupo 55925" style="isolation: isolate">
                          <g id="Grupo_55917" data-name="Grupo 55917" style="isolation: isolate">
                            <g id="Grupo_55916" data-name="Grupo 55916" clip-path="url(#clip-path-16)">
                              <g id="Grupo_55915" data-name="Grupo 55915" style="isolation: isolate">
                                <path id="Trazado_106220" data-name="Trazado 106220" d="M-384.518,1190.9l-.821-.474a.15.15,0,0,1,.058-.029l.823.477a.312.312,0,0,0-.06.026Z" fill="#bbbab6"/>
                                <path id="Trazado_106221" data-name="Trazado 106221" d="M-384.458,1190.876l-.823-.477a.318.318,0,0,1,.049-.018l.822.474a.354.354,0,0,0-.048.021Z" fill="#b7b5b2"/>
                                <path id="Trazado_106222" data-name="Trazado 106222" d="M-384.41,1190.855l-.822-.474a.088.088,0,0,1,.038-.009l.821.475-.037.008Z" fill="#b2b0ad"/>
                                <path id="Trazado_106223" data-name="Trazado 106223" d="M-384.373,1190.847l-.821-.475a.155.155,0,0,1,.03,0l.822.474c-.011,0-.022,0-.031,0Z" fill="#adaca9"/>
                                <path id="Trazado_106224" data-name="Trazado 106224" d="M-384.342,1190.844l-.822-.474h.028l.82.474Z" fill="#a8a7a4"/>
                                <path id="Trazado_106225" data-name="Trazado 106225" d="M-384.316,1190.844l-.82-.474.025,0,.82.475c-.009,0-.014,0-.025,0Z" fill="#a4a2a0"/>
                                <path id="Trazado_106226" data-name="Trazado 106226" d="M-384.291,1190.847l-.82-.475a.047.047,0,0,1,.022.007l.821.476c-.007,0-.014-.006-.023-.008Z" fill="#9f9e9b"/>
                                <path id="Trazado_106227" data-name="Trazado 106227" d="M-384.268,1190.855l-.821-.476.022.008.82.475a.038.038,0,0,0-.021-.007Z" fill="#9a9996"/>
                                <path id="Trazado_106228" data-name="Trazado 106228" d="M-384.247,1190.862l-.82-.475.02.008.822.478a.045.045,0,0,0-.022-.011Z" fill="#969492"/>
                                <path id="Trazado_106229" data-name="Trazado 106229" d="M-384.225,1190.873l-.822-.478,0,0,.822.477,0,0Z" fill="#91908d"/>
                              </g>
                            </g>
                          </g>
                          <g id="Grupo_55920" data-name="Grupo 55920" style="isolation: isolate">
                            <g id="Grupo_55919" data-name="Grupo 55919" clip-path="url(#clip-path-17)">
                              <g id="Grupo_55918" data-name="Grupo 55918" style="isolation: isolate">
                                <path id="Trazado_106231" data-name="Trazado 106231" d="M-417.2,1230.738l-.82-.474c.038.02.074.041.115.065l.819.473c-.039-.02-.076-.044-.114-.064Z" fill="#91908d"/>
                                <path id="Trazado_106232" data-name="Trazado 106232" d="M-417.087,1230.8l-.819-.473a9.069,9.069,0,0,0,1.035.5l.821.48a9.223,9.223,0,0,1-1.037-.509Z" fill="#969492"/>
                                <path id="Trazado_106233" data-name="Trazado 106233" d="M-416.05,1231.311l-.821-.48a8.858,8.858,0,0,0,1.046.372l.821.477a9.144,9.144,0,0,1-1.046-.369Z" fill="#9a9996"/>
                                <path id="Trazado_106234" data-name="Trazado 106234" d="M-415,1231.68l-.821-.477a10.439,10.439,0,0,0,1.077.252l.82.474a9.589,9.589,0,0,1-1.076-.249Z" fill="#9f9e9b"/>
                                <path id="Trazado_106235" data-name="Trazado 106235" d="M-413.928,1231.929l-.82-.474c.366.058.74.1,1.121.129l.82.48a11.074,11.074,0,0,1-1.121-.135Z" fill="#a4a2a0"/>
                                <path id="Trazado_106236" data-name="Trazado 106236" d="M-412.807,1232.064l-.82-.48a10.757,10.757,0,0,0,1.194.011l.82.477a11.852,11.852,0,0,1-1.194-.008Z" fill="#a8a7a4"/>
                                <path id="Trazado_106237" data-name="Trazado 106237" d="M-411.613,1232.072l-.82-.477a11.673,11.673,0,0,0,1.308-.131l.824.48a12.233,12.233,0,0,1-1.312.128Z" fill="#adaca9"/>
                                <path id="Trazado_106238" data-name="Trazado 106238" d="M-410.3,1231.944l-.824-.48a12.851,12.851,0,0,0,1.514-.323l.822.48a13.913,13.913,0,0,1-1.512.323Z" fill="#b2b0ad"/>
                                <path id="Trazado_106239" data-name="Trazado 106239" d="M-408.789,1231.621l-.822-.48a16.077,16.077,0,0,0,1.953-.669l.824.477a16.3,16.3,0,0,1-1.955.672Z" fill="#b7b5b2"/>
                                <path id="Trazado_106240" data-name="Trazado 106240" d="M-406.834,1230.949l-.824-.477a20.016,20.016,0,0,0,2.356-1.168,28.04,28.04,0,0,0,5.639-4.385l.82.48a27.8,27.8,0,0,1-5.638,4.38,19.049,19.049,0,0,1-2.353,1.17Z" fill="#bbbab6"/>
                                <path id="Trazado_106241" data-name="Trazado 106241" d="M-398.843,1225.4l-.82-.48q.979-.969,1.921-2.054l.821.481c-.625.719-1.267,1.407-1.922,2.053Z" fill="#b7b5b2"/>
                                <path id="Trazado_106242" data-name="Trazado 106242" d="M-396.921,1223.346l-.821-.481c.5-.573.991-1.171,1.472-1.786l.818.476c-.48.612-.969,1.215-1.469,1.791Z" fill="#b2b0ad"/>
                                <path id="Trazado_106243" data-name="Trazado 106243" d="M-395.452,1221.555l-.818-.476q.643-.837,1.263-1.72l.822.476c-.412.591-.834,1.159-1.267,1.72Z" fill="#adaca9"/>
                                <path id="Trazado_106244" data-name="Trazado 106244" d="M-394.185,1219.835l-.822-.476c.391-.556.772-1.127,1.143-1.706l.822.477c-.372.583-.753,1.149-1.143,1.7Z" fill="#a8a7a4"/>
                                <path id="Trazado_106245" data-name="Trazado 106245" d="M-393.042,1218.13l-.822-.477c.363-.568.717-1.151,1.062-1.74l.82.48q-.516.881-1.06,1.737Z" fill="#a4a2a0"/>
                                <path id="Trazado_106246" data-name="Trazado 106246" d="M-391.982,1216.393l-.82-.48c.34-.582.667-1.176.99-1.779l.822.479c-.321.6-.651,1.194-.992,1.78Z" fill="#9f9e9b"/>
                                <path id="Trazado_106247" data-name="Trazado 106247" d="M-390.99,1214.613l-.822-.479q.176-.328.345-.66c.2-.39.4-.782.586-1.18l.82.48c-.188.4-.386.787-.584,1.179-.114.22-.23.439-.345.66Z" fill="#9a9996"/>
                                <path id="Trazado_106248" data-name="Trazado 106248" d="M-390.061,1212.774l-.82-.48c.314-.649.618-1.308.907-1.983l.823.48c-.29.666-.594,1.33-.91,1.983Z" fill="#969492"/>
                                <path id="Trazado_106249" data-name="Trazado 106249" d="M-389.151,1210.791l-.823-.48q.456-1.048.871-2.123l.821.479q-.414,1.071-.869,2.124Z" fill="#91908d"/>
                                <path id="Trazado_106250" data-name="Trazado 106250" d="M-388.282,1208.667l-.821-.479q.439-1.141.828-2.312l.822.477c-.26.781-.536,1.547-.829,2.314Z" fill="#8c8b89"/>
                                <path id="Trazado_106251" data-name="Trazado 106251" d="M-387.453,1206.353l-.822-.477c.286-.853.55-1.717.792-2.583l.82.477c-.241.866-.5,1.729-.79,2.583Z" fill="#888784"/>
                                <path id="Trazado_106252" data-name="Trazado 106252" d="M-386.663,1203.77l-.82-.477c.274-.992.521-1.988.734-2.987l.82.48q-.318,1.5-.734,2.984Z" fill="#838280"/>
                                <path id="Trazado_106253" data-name="Trazado 106253" d="M-385.929,1200.786l-.82-.48c.268-1.257.487-2.527.652-3.785l.82.477c-.164,1.258-.383,2.525-.652,3.788Z" fill="#7e7d7b"/>
                                <path id="Trazado_106254" data-name="Trazado 106254" d="M-385.277,1197l-.82-.477a41.753,41.753,0,0,0,.35-5.382.774.774,0,0,1,0-.08l.822.475a.809.809,0,0,0-.006.085,40.632,40.632,0,0,1-.349,5.379Z" fill="#7a7977"/>
                                <path id="Trazado_106255" data-name="Trazado 106255" d="M-384.922,1191.534l-.822-.475c0-.016.007-.04.011-.06l.823.476a.509.509,0,0,0-.012.059Z" fill="#7e7d7b"/>
                                <path id="Trazado_106256" data-name="Trazado 106256" d="M-384.91,1191.475l-.823-.476c0-.013.01-.033.013-.047l.82.479a.333.333,0,0,0-.01.044Z" fill="#838280"/>
                                <path id="Trazado_106257" data-name="Trazado 106257" d="M-384.9,1191.431l-.82-.479.011-.044.821.479-.012.044Z" fill="#888784"/>
                                <path id="Trazado_106258" data-name="Trazado 106258" d="M-384.888,1191.387l-.821-.479.015-.038.821.476a.284.284,0,0,1-.015.041Z" fill="#8c8b89"/>
                                <path id="Trazado_106259" data-name="Trazado 106259" d="M-384.873,1191.346l-.821-.476a.288.288,0,0,0,.015-.039l.823.48-.017.035Z" fill="#91908d"/>
                                <path id="Trazado_106260" data-name="Trazado 106260" d="M-384.856,1191.311l-.823-.48a.2.2,0,0,0,.018-.038l.819.483-.014.035Z" fill="#969492"/>
                                <path id="Trazado_106261" data-name="Trazado 106261" d="M-384.842,1191.276l-.819-.483c.006-.009.01-.02.018-.031l.822.474a.394.394,0,0,0-.021.04Z" fill="#9a9996"/>
                                <path id="Trazado_106262" data-name="Trazado 106262" d="M-384.821,1191.236l-.822-.474c.006-.013.014-.024.021-.036l.821.475-.02.035Z" fill="#9f9e9b"/>
                                <path id="Trazado_106263" data-name="Trazado 106263" d="M-384.8,1191.2l-.821-.475a.221.221,0,0,1,.019-.035l.822.477a.152.152,0,0,0-.02.033Z" fill="#a4a2a0"/>
                                <path id="Trazado_106264" data-name="Trazado 106264" d="M-384.781,1191.168l-.822-.477a.17.17,0,0,1,.025-.037l.82.475c-.008.016-.015.025-.023.039Z" fill="#a8a7a4"/>
                                <path id="Trazado_106265" data-name="Trazado 106265" d="M-384.758,1191.129l-.82-.475a.383.383,0,0,0,.026-.036l.822.474a.169.169,0,0,1-.028.037Z" fill="#adaca9"/>
                                <path id="Trazado_106266" data-name="Trazado 106266" d="M-384.73,1191.094l-.822-.476.035-.041.821.477c-.012.011-.022.029-.034.04Z" fill="#b2b0ad"/>
                                <path id="Trazado_106267" data-name="Trazado 106267" d="M-384.7,1191.054l-.821-.477a.274.274,0,0,1,.043-.047l.821.474c-.015.017-.029.035-.043.05Z" fill="#b7b5b2"/>
                                <path id="Trazado_106268" data-name="Trazado 106268" d="M-384.653,1191l-.821-.474a.5.5,0,0,1,.135-.1l.821.474a1,1,0,0,0-.135.1Z" fill="#bbbab6"/>
                              </g>
                            </g>
                          </g>
                          <g id="Grupo_55923" data-name="Grupo 55923" style="isolation: isolate">
                            <g id="Grupo_55922" data-name="Grupo 55922" clip-path="url(#clip-path-18)">
                              <g id="Grupo_55921" data-name="Grupo 55921" style="isolation: isolate">
                                <path id="Trazado_106270" data-name="Trazado 106270" d="M-417.789,1231.749l-.821-.475a10.445,10.445,0,0,1-1.2-.817c-3.7-2.9-6-8.522-6.022-16.174a.507.507,0,0,1,.006-.079l.821.474c0,.033-.005.059-.005.082.02,7.653,2.319,13.269,6.02,16.171a10.3,10.3,0,0,0,1.2.818Z" fill="#7a7977"/>
                                <path id="Trazado_106271" data-name="Trazado 106271" d="M-425.008,1214.678l-.821-.474c0-.02.006-.04.008-.061l.823.477a.44.44,0,0,0-.01.058Z" fill="#7e7d7b"/>
                                <path id="Trazado_106272" data-name="Trazado 106272" d="M-425,1214.62l-.823-.477a.438.438,0,0,1,.015-.047l.822.477a.2.2,0,0,0-.014.047Z" fill="#838280"/>
                                <path id="Trazado_106273" data-name="Trazado 106273" d="M-424.984,1214.573l-.822-.477.011-.04.822.473c-.005.018-.008.032-.011.044Z" fill="#888784"/>
                                <path id="Trazado_106274" data-name="Trazado 106274" d="M-424.973,1214.529l-.822-.473a.317.317,0,0,1,.016-.038l.82.473c0,.012-.009.027-.014.038Z" fill="#8c8b89"/>
                                <path id="Trazado_106275" data-name="Trazado 106275" d="M-424.959,1214.491l-.82-.473a.4.4,0,0,1,.015-.042l.822.476a.177.177,0,0,0-.017.039Z" fill="#91908d"/>
                                <path id="Trazado_106276" data-name="Trazado 106276" d="M-424.942,1214.452l-.822-.476.016-.038.82.477-.014.037Z" fill="#969492"/>
                                <path id="Trazado_106277" data-name="Trazado 106277" d="M-424.928,1214.415l-.82-.477a.173.173,0,0,1,.02-.032l.817.477a.168.168,0,0,1-.017.032Z" fill="#9a9996"/>
                                <path id="Trazado_106278" data-name="Trazado 106278" d="M-424.911,1214.383l-.817-.477c0-.014.012-.023.017-.038l.821.48a.232.232,0,0,1-.021.035Z" fill="#9f9e9b"/>
                                <path id="Trazado_106279" data-name="Trazado 106279" d="M-424.89,1214.348l-.821-.48a.362.362,0,0,0,.023-.035l.818.479a.276.276,0,0,1-.02.036Z" fill="#a4a2a0"/>
                                <path id="Trazado_106280" data-name="Trazado 106280" d="M-424.87,1214.312l-.818-.479c.008-.012.015-.023.022-.036l.825.478a.153.153,0,0,0-.029.037Z" fill="#a8a7a4"/>
                                <path id="Trazado_106281" data-name="Trazado 106281" d="M-424.841,1214.275l-.825-.478c.011-.011.019-.025.029-.034l.82.474a.17.17,0,0,0-.024.038Z" fill="#adaca9"/>
                                <path id="Trazado_106282" data-name="Trazado 106282" d="M-424.817,1214.237l-.82-.474a.146.146,0,0,1,.032-.039l.823.475c-.012.014-.025.025-.035.038Z" fill="#b2b0ad"/>
                                <path id="Trazado_106283" data-name="Trazado 106283" d="M-424.782,1214.2l-.823-.475a.352.352,0,0,1,.045-.049l.822.477a.25.25,0,0,0-.044.047Z" fill="#b7b5b2"/>
                                <path id="Trazado_106284" data-name="Trazado 106284" d="M-424.738,1214.152l-.822-.477a.62.62,0,0,1,.132-.106c.022-.008.042-.022.06-.029l.821.48a.517.517,0,0,0-.058.029.56.56,0,0,0-.133.1Z" fill="#bbbab6"/>
                                <path id="Trazado_106285" data-name="Trazado 106285" d="M-424.547,1214.02l-.821-.48c.017-.008.034-.011.047-.017l.825.477a.267.267,0,0,0-.051.02Z" fill="#b7b5b2"/>
                                <path id="Trazado_106286" data-name="Trazado 106286" d="M-424.5,1214l-.825-.477a.264.264,0,0,0,.04-.005l.819.475c-.011,0-.022,0-.034.007Z" fill="#b2b0ad"/>
                                <path id="Trazado_106287" data-name="Trazado 106287" d="M-424.462,1213.993l-.819-.475a.085.085,0,0,1,.031,0l.821.477a.188.188,0,0,0-.033,0Z" fill="#adaca9"/>
                                <path id="Trazado_106288" data-name="Trazado 106288" d="M-424.429,1213.991l-.821-.477h.028l.82.477a.032.032,0,0,0-.027,0Z" fill="#a8a7a4"/>
                                <path id="Trazado_106289" data-name="Trazado 106289" d="M-424.4,1213.991l-.82-.477a.044.044,0,0,1,.022,0l.824.475a.123.123,0,0,0-.026,0Z" fill="#a4a2a0"/>
                                <path id="Trazado_106290" data-name="Trazado 106290" d="M-424.376,1213.993l-.824-.475a.227.227,0,0,1,.026.005l.82.473a.057.057,0,0,1-.022,0Z" fill="#9f9e9b"/>
                                <path id="Trazado_106291" data-name="Trazado 106291" d="M-424.354,1214l-.82-.473a.086.086,0,0,1,.023.006l.819.48a.1.1,0,0,0-.022-.013Z" fill="#9a9996"/>
                                <path id="Trazado_106292" data-name="Trazado 106292" d="M-424.332,1214.009l-.819-.48a.056.056,0,0,1,.02.011l.821.48a.064.064,0,0,0-.022-.011Z" fill="#969492"/>
                                <path id="Trazado_106293" data-name="Trazado 106293" d="M-424.31,1214.02l-.822-.481h0l.821.481Z" fill="#91908d"/>
                              </g>
                            </g>
                          </g>
                          <g id="Grupo_55924" data-name="Grupo 55924">
                            <path id="Trazado_106295" data-name="Trazado 106295" d="M-384.518,1190.9c.231-.129.415-.023.415.237a51.727,51.727,0,0,1-5.907,23.065c-3.684,7.158-8.8,13.254-14.467,16.528s-10.811,3.1-14.516.2-6-8.518-6.02-16.171a.905.905,0,0,1,.408-.711c.232-.137.417-.027.417.234.022,7.431,2.249,12.874,5.825,15.671s8.482,2.946,13.882-.175,10.287-8.925,13.836-15.826a50.113,50.113,0,0,0,5.717-22.334A.923.923,0,0,1-384.518,1190.9Z" fill="#b5b3b0"/>
                          </g>
                        </g>
                      </g>
                      <g id="Grupo_55928" data-name="Grupo 55928">
                        <g id="Grupo_55927" data-name="Grupo 55927">
                          <path id="Trazado_106296" data-name="Trazado 106296" d="M-424.993,1212.028c1.111-.641,2.006-.128,2.01,1.138a4.39,4.39,0,0,1-1.995,3.455c-1.1.631-2,.126-2-1.153A4.393,4.393,0,0,1-424.993,1212.028Z" fill="#e2ded9"/>
                        </g>
                        <path id="Trazado_106297" data-name="Trazado 106297" d="M-424.782,1215.357c-1.06.609-1.921.152-1.989-1.011a3.482,3.482,0,0,0-.208,1.122c.005,1.279.9,1.784,2,1.153a4.39,4.39,0,0,0,1.995-3.455c0-.049-.011-.091-.012-.138A4.392,4.392,0,0,1-424.782,1215.357Z" fill="#c5c3c0"/>
                        <path id="Trazado_106298" data-name="Trazado 106298" d="M-423.671,1214.833c-.244.568-.664.931-.934.814s-.29-.673-.046-1.237.666-.932.933-.814S-423.426,1214.268-423.671,1214.833Z" fill="#fff"/>
                      </g>
                      <g id="Grupo_55930" data-name="Grupo 55930">
                        <g id="Grupo_55929" data-name="Grupo 55929">
                          <path id="Trazado_106299" data-name="Trazado 106299" d="M-385.1,1188.726c1.108-.642,2-.133,2.008,1.135a4.392,4.392,0,0,1-1.995,3.454c-1.1.635-2,.126-2-1.147A4.389,4.389,0,0,1-385.1,1188.726Z" fill="#e2ded9"/>
                        </g>
                        <path id="Trazado_106300" data-name="Trazado 106300" d="M-384.9,1192.051c-1.058.615-1.918.156-1.987-1.008a3.506,3.506,0,0,0-.209,1.125c.006,1.273.9,1.782,2,1.147a4.392,4.392,0,0,0,1.995-3.454c0-.051-.012-.086-.013-.132A4.378,4.378,0,0,1-384.9,1192.051Z" fill="#c5c3c0"/>
                        <path id="Trazado_106301" data-name="Trazado 106301" d="M-383.783,1191.528c-.247.567-.666.934-.935.817s-.291-.673-.045-1.238.664-.931.932-.814S-383.542,1190.966-383.783,1191.528Z" fill="#fff"/>
                      </g>
                      <path id="Trazado_106302" data-name="Trazado 106302" d="M-392.9,1178.249l2.19,3.369.135.212.245.061,7.61,1.942-47,27.682-5.2-4.939-.158-.15-.217-.024-5.5-.592,47.894-27.561Zm.206-.864-50.139,28.854,7.467.8,5.55,5.274,48.772-28.723-9.126-2.329-2.524-3.881Z" fill="#b2b0aa"/>
                    </g>
                  </g>
                </g>
              </g>
            </g>
            <g id="Grupo_55958" data-name="Grupo 55958">
              <g id="Grupo_55957" data-name="Grupo 55957">
                <g id="Grupo_55939" data-name="Grupo 55939">
                  <g id="Grupo_55938" data-name="Grupo 55938" style="isolation: isolate">
                    <path id="Trazado_106303" data-name="Trazado 106303" d="M-390.877,1219.134c.062-.025.125-.055.188-.082l-1.566-.91c-.238.107-.478.2-.708.278-.023.008-.042.012-.063.019-.176.06-.35.107-.526.151-.142.036-.277.064-.415.09-.1.019-.2.04-.3.054s-.2.021-.293.028c-.117.012-.235.021-.349.025-.081,0-.163,0-.242,0-.121,0-.24-.008-.357-.018-.071-.007-.142-.016-.214-.025-.12-.018-.239-.04-.357-.065-.059-.013-.124-.027-.183-.044-.136-.036-.265-.079-.4-.127-.039-.015-.075-.024-.112-.04a3.584,3.584,0,0,1-.494-.242q.78.456,1.563.91c.016.007.029.016.044.024a4.6,4.6,0,0,0,.425.208.151.151,0,0,0,.028.008.963.963,0,0,0,.11.039c.1.041.2.08.31.112l.085.018c.062.017.124.029.184.043s.135.035.2.047c.051.01.1.01.153.019.069.008.142.018.215.025.049,0,.093.013.14.015.07,0,.145,0,.218,0s.16,0,.242,0c.036,0,.067,0,.1,0,.082,0,.167-.018.246-.022.1-.01.2-.016.3-.031.029,0,.057,0,.086-.009.07-.009.146-.032.216-.045.139-.027.276-.054.416-.09.037-.009.07-.012.11-.021.134-.038.274-.082.415-.129l.062-.02C-391.228,1219.271-391.053,1219.2-390.877,1219.134Z" fill="#e5b313"/>
                    <path id="Trazado_106304" data-name="Trazado 106304" d="M-400.493,1219.636a3.053,3.053,0,0,0,.023-.39,1.386,1.386,0,0,0-.578-1.275c-.523-.3-1.041-.6-1.565-.908a1.383,1.383,0,0,1,.58,1.273,2.767,2.767,0,0,1-.039.458.242.242,0,0,1-.013.066,3.632,3.632,0,0,1-.1.439.093.093,0,0,0-.01.036c-.051.158-.108.314-.174.468l-.008.014a4.719,4.719,0,0,1-.228.456l-.014.019a4.426,4.426,0,0,1-.273.423c-.01.011-.02.023-.029.035a4.4,4.4,0,0,1-.286.347c-.024.026-.047.051-.072.075a3.25,3.25,0,0,1-.244.228,1.527,1.527,0,0,1-.122.1,2.534,2.534,0,0,1-.37.258,2.453,2.453,0,0,1-.251.126c-.025.01-.049.019-.076.031-.047.017-.1.034-.144.048-.029.009-.056.017-.084.024l-.083.018a.769.769,0,0,1-.106.015c-.021,0-.04.006-.058.008-.046,0-.086,0-.126,0h-.032a1.343,1.343,0,0,1-.147-.017l-.032-.01c-.037-.009-.075-.019-.111-.031-.009-.005-.023-.006-.034-.011-.043-.02-.088-.038-.13-.062l1.566.91.01.006c.034.018.064.033.1.049l.02.005c.009.005.022.008.031.013a.4.4,0,0,0,.054.016l.06.016a.164.164,0,0,0,.033.006l.019.006a1.1,1.1,0,0,0,.119.014h.039c.03,0,.062,0,.091,0a.239.239,0,0,0,.036,0l.058-.006.056-.005.051-.012c.026-.005.053-.01.079-.017l.045-.009c.014,0,.031-.012.046-.017a1.284,1.284,0,0,0,.137-.047c.016,0,.03-.009.051-.015a.135.135,0,0,1,.029-.015,2.7,2.7,0,0,0,.247-.125,3.1,3.1,0,0,0,.376-.258c.04-.031.074-.068.114-.1.058-.049.119-.1.176-.154.026-.026.051-.054.075-.081a.58.58,0,0,0,.064-.069c.028-.028.054-.053.08-.082.054-.063.108-.13.16-.2a.764.764,0,0,1,.053-.071c.007-.011.018-.025.024-.036s.038-.049.053-.071c.04-.058.081-.115.116-.172s.072-.11.1-.169l.011-.016.005-.007c.025-.046.053-.093.079-.142s.058-.112.086-.168.048-.108.074-.16v0l0-.011c.027-.059.052-.118.073-.179s.048-.125.069-.185c.011-.033.02-.063.029-.095,0-.016.009-.028.014-.043a.648.648,0,0,1,.018-.066c.02-.075.038-.153.053-.229.011-.044.02-.089.028-.137,0-.024.008-.049.011-.072S-400.495,1219.658-400.493,1219.636Z" fill="#e2a814"/>
                    <g id="Grupo_55936" data-name="Grupo 55936">
                      <path id="Trazado_106305" data-name="Trazado 106305" d="M-414.094,1264.824l-1.569-.911-.09-32.206,1.567.911Z" fill="#ce930f"/>
                    </g>
                    <g id="Grupo_55937" data-name="Grupo 55937">
                      <path id="Trazado_106306" data-name="Trazado 106306" d="M-406.834,1217.587l-1.564-.909,8.73-5.04,1.566.909Z" fill="#e5b313"/>
                    </g>
                  </g>
                </g>
                <g id="Grupo_55940" data-name="Grupo 55940">
                  <path id="Trazado_106307" data-name="Trazado 106307" d="M-390.689,1219.052c-4.2,1.853-7.462-.359-7.474-5.329,0-.385.023-.78.06-1.176l-2.066,1.192a14.336,14.336,0,0,1-1.138,4.132c.505.122.837.608.837,1.375a4.343,4.343,0,0,1-1.979,3.428c-1.04.6-1.894.173-1.98-.949-.005-.059-.011-.122-.011-.186a3.255,3.255,0,0,1,.139-.9,4.388,4.388,0,0,1,1.841-2.525c.028-.015.055-.027.081-.04a12.811,12.811,0,0,0,1.236-3.77l-5.691,3.286a10.829,10.829,0,0,1,.066,1.106c.014,4.968-3.228,10.939-7.417,13.926l.091,32.2,23.494-13.566Z" fill="#ffe422"/>
                </g>
                <g id="Grupo_55941" data-name="Grupo 55941">
                  <path id="Trazado_106308" data-name="Trazado 106308" d="M-414.512,1219.516a5.534,5.534,0,0,1-.878-4.549c.488-2.622,2.254-3.574,3.961-4.5,1.646-.89,3.348-1.811,3.3-4.214a5.3,5.3,0,0,0-4.656-4.916c-2.956-.528-6.822.836-9.431,5.911a13.8,13.8,0,0,1,1.618-.984c2.318-3.491,5.311-4.471,7.654-4.053a4.42,4.42,0,0,1,3.923,4.057c.039,1.864-1.23,2.55-2.835,3.416-1.8.976-3.846,2.08-4.411,5.118a6.389,6.389,0,0,0,1.044,5.249,8.286,8.286,0,0,0,5.891,2.891c.017-.044.033-.084.047-.127.033-.095.069-.187.1-.283.052-.144.09-.289.137-.434a.464.464,0,0,0-.1-.028A7.458,7.458,0,0,1-414.512,1219.516Z" fill="#e5e5e5"/>
                  <path id="Trazado_106309" data-name="Trazado 106309" d="M-406.834,1217.587l-1.564-.909c.035.352.063.72.063,1.1,0,.293-.012.589-.032.886-.005.093-.019.187-.027.283-.02.216-.043.435-.072.654-.011.057-.018.114-.028.171-.044.284-.1.567-.157.855-.031.151-.073.3-.112.457-.041.173-.079.348-.13.521-.019.072-.044.142-.062.212-.028.095-.062.186-.087.278-.047.145-.085.29-.137.434-.033.1-.069.188-.1.283-.014.043-.03.083-.047.127-.063.168-.123.337-.193.505-.035.093-.075.186-.113.282-.093.222-.189.442-.292.662-.029.071-.064.144-.1.217-.138.288-.28.574-.429.856-.025.043-.048.083-.072.126-.128.236-.265.474-.4.708-.055.092-.113.181-.17.271-.115.187-.231.369-.348.55-.066.1-.134.2-.2.3-.117.171-.24.338-.359.507-.079.1-.155.21-.232.31-.106.14-.217.273-.324.407s-.232.289-.352.426c-.086.1-.176.2-.261.3-.191.214-.388.42-.587.622-.131.137-.267.273-.4.4-.037.034-.073.067-.109.1-.212.2-.433.392-.657.578l-.123.1c-.232.189-.465.37-.7.538l1.567.911c.235-.169.464-.348.69-.534.047-.037.093-.073.14-.113.219-.179.433-.37.645-.564.04-.039.085-.082.125-.123.08-.075.163-.147.239-.225.05-.048.1-.1.142-.154.21-.207.409-.422.606-.642.051-.06.107-.113.161-.173.027-.034.056-.072.085-.106.129-.144.249-.3.372-.451.073-.1.153-.183.227-.277.027-.034.049-.067.075-.1.084-.107.164-.219.244-.331s.165-.216.241-.328c.04-.053.073-.108.111-.165.069-.1.136-.2.2-.3s.121-.175.174-.263.118-.19.174-.283.118-.186.172-.281c.031-.051.064-.1.093-.151.1-.176.2-.351.294-.528l.086-.153a.1.1,0,0,1,.017-.033c.128-.235.245-.475.363-.717.016-.031.029-.064.044-.1.039-.079.073-.158.11-.235.058-.133.122-.264.183-.4.032-.082.063-.167.1-.249s.075-.188.115-.285c.029-.072.063-.145.087-.219.056-.142.105-.283.155-.424.033-.089.065-.178.1-.267.012-.036.025-.069.034-.1.068-.2.127-.4.184-.606.025-.074.048-.149.072-.223a.164.164,0,0,1,.007-.028c.045-.163.08-.325.12-.487s.08-.306.113-.459a.2.2,0,0,0,.005-.028c.06-.275.108-.551.152-.824.007-.059.014-.116.025-.173s.019-.123.029-.184c.018-.157.032-.312.044-.467.01-.1.02-.193.029-.293.02-.295.032-.591.032-.881A10.829,10.829,0,0,0-406.834,1217.587Z" fill="#ce930f"/>
                </g>
                <g id="Grupo_55946" data-name="Grupo 55946">
                  <g id="Grupo_55942" data-name="Grupo 55942">
                    <path id="Trazado_106310" data-name="Trazado 106310" d="M-410.166,1247.392c.844-.485,1.414-.525,1.714-.114a4.15,4.15,0,0,1,.455,2.3l0,.773-1.526.878v-.892a3.591,3.591,0,0,0-.139-1.226c-.09-.208-.267-.239-.524-.088a1.292,1.292,0,0,0-.555.616,2.58,2.58,0,0,0-.164.99,1.56,1.56,0,0,0,.174.853,2.213,2.213,0,0,0,.625.547l.9.6a2.961,2.961,0,0,1,1.02,1.108,3.609,3.609,0,0,1,.348,1.675,7.124,7.124,0,0,1-.5,2.886,4.142,4.142,0,0,1-1.792,1.867c-.856.493-1.449.529-1.786.1a4.207,4.207,0,0,1-.51-2.428l0-1.113,1.565-.905.005,1.255a3.833,3.833,0,0,0,.158,1.376c.105.223.3.251.582.087a1.2,1.2,0,0,0,.564-.674,4.273,4.273,0,0,0,.134-1.214,2.536,2.536,0,0,0-.252-1.23,2.12,2.12,0,0,0-.787-.771l-.8-.487a2.5,2.5,0,0,1-.877-.891,2.99,2.99,0,0,1-.318-1.5,5.854,5.854,0,0,1,.513-2.594A4.274,4.274,0,0,1-410.166,1247.392Z" fill="#f91919"/>
                  </g>
                  <g id="Grupo_55943" data-name="Grupo 55943">
                    <path id="Trazado_106311" data-name="Trazado 106311" d="M-403.414,1243.642l1.683,11.53-1.542.891-.267-2.077-1.753,1.011-.229,2.364-1.59.918,1.515-13.376Zm-1.72,9.738,1.416-.818-.744-5.853-.025.017-.647,6.654Z" fill="#f91919"/>
                  </g>
                  <g id="Grupo_55944" data-name="Grupo 55944">
                    <path id="Trazado_106312" data-name="Trazado 106312" d="M-398.978,1241.078l.033,10.868,2.09-1.208,0,1.617-3.743,2.161-.036-12.484Z" fill="#f91919"/>
                  </g>
                  <g id="Grupo_55945" data-name="Grupo 55945">
                    <path id="Trazado_106313" data-name="Trazado 106313" d="M-392.292,1237.22l0,1.641-1.988,1.148.008,3.631,1.89-1.09,0,1.6-1.89,1.088.014,3.97,2.06-1.188.005,1.637-3.716,2.146-.037-12.482Z" fill="#f91919"/>
                  </g>
                </g>
                <g id="Grupo_55954" data-name="Grupo 55954">
                  <g id="Grupo_55947" data-name="Grupo 55947">
                    <path id="Trazado_106314" data-name="Trazado 106314" d="M-409.915,1238.658v.824l-1.959,1.129v-.824Z" fill="#f91919"/>
                  </g>
                  <g id="Grupo_55948" data-name="Grupo 55948">
                    <path id="Trazado_106315" data-name="Trazado 106315" d="M-406.188,1232.15l.006,1.128-1.659.956,0,1.686a1.418,1.418,0,0,1,.283-.452,1.857,1.857,0,0,1,.447-.367q.627-.363.878.14a4.81,4.81,0,0,1,.251,1.883,15.933,15.933,0,0,1-.076,1.97,3.9,3.9,0,0,1-.251.972,2.61,2.61,0,0,1-1.135,1.208q-1.437.829-1.443-.886l0-1.042,1.031-.6,0,.912c0,.384.068.587.193.6a.428.428,0,0,0,.239-.082l.022-.009c.245-.141.362-.487.359-1.028v-2.12a1.809,1.809,0,0,0-.086-.625c-.056-.121-.164-.131-.323-.04a1.11,1.11,0,0,0-.425,1.05l-.965.506-.013-4.227Z" fill="#f91919"/>
                  </g>
                  <g id="Grupo_55949" data-name="Grupo 55949">
                    <path id="Trazado_106316" data-name="Trazado 106316" d="M-402.2,1230.3c.264.216.39.686.394,1.418l.011,3.958a4.544,4.544,0,0,1-.38,1.964,2.951,2.951,0,0,1-1.245,1.315c-.565.326-.983.371-1.244.122a2.156,2.156,0,0,1-.394-1.519l-.008-3.958a4.12,4.12,0,0,1,.382-1.868,3.045,3.045,0,0,1,1.238-1.265C-402.884,1230.139-402.464,1230.079-402.2,1230.3Zm-.694,6.037-.01-4.037c0-.615-.127-.882-.374-.821a1.668,1.668,0,0,0-.237.123.918.918,0,0,0-.31.361,2.132,2.132,0,0,0-.148.947l.013,4.043a1.782,1.782,0,0,0,.135.925c.086.1.22.094.395-.006a1.012,1.012,0,0,0,.4-.465,2.922,2.922,0,0,0,.131-1.07Z" fill="#f91919"/>
                  </g>
                  <g id="Grupo_55950" data-name="Grupo 55950">
                    <path id="Trazado_106317" data-name="Trazado 106317" d="M-398.37,1232.718a2.551,2.551,0,0,1-1.059,1.095c-.475.275-.83.32-1.051.123a1.821,1.821,0,0,1-.338-1.327l-.007-1.687a3.8,3.8,0,0,1,.32-1.691,2.5,2.5,0,0,1,1.059-1.076c.5-.29.86-.343,1.071-.156s.318.629.321,1.324l0,1.686A3.85,3.85,0,0,1-398.37,1232.718Zm-.6-.864-.005-2.315a.968.968,0,0,0-.1-.539c-.063-.081-.183-.067-.361.033a.81.81,0,0,0-.365.385,1.691,1.691,0,0,0-.1.652l.006,2.316a1.029,1.029,0,0,0,.1.561c.069.085.189.081.361-.016a.8.8,0,0,0,.357-.4,1.814,1.814,0,0,0,.1-.681Z" fill="#f91919"/>
                  </g>
                  <g id="Grupo_55953" data-name="Grupo 55953" style="isolation: isolate">
                    <g id="Grupo_55951" data-name="Grupo 55951">
                      <path id="Trazado_106318" data-name="Trazado 106318" d="M-393.144,1227.814c.215.181.323.627.325,1.327l.006,1.687a3.933,3.933,0,0,1-.331,1.712,2.511,2.511,0,0,1-1.057,1.088c-.483.279-.835.324-1.05.129a1.841,1.841,0,0,1-.34-1.328l-.007-1.685a3.853,3.853,0,0,1,.318-1.7,2.564,2.564,0,0,1,1.064-1.077C-393.713,1227.678-393.36,1227.634-393.144,1227.814Zm-.6,3.859,0-2.323a.947.947,0,0,0-.1-.535c-.065-.078-.183-.068-.37.037a.8.8,0,0,0-.356.381,1.673,1.673,0,0,0-.1.652l.007,2.323a1.022,1.022,0,0,0,.1.556c.07.082.19.081.359-.018a.843.843,0,0,0,.365-.4,1.84,1.84,0,0,0,.1-.673Z" fill="#f91919"/>
                    </g>
                    <g id="Grupo_55952" data-name="Grupo 55952">
                      <path id="Trazado_106319" data-name="Trazado 106319" d="M-395.835,1226.165l.83-.481-2.745,9.9-.87.5Z" fill="#f91919"/>
                    </g>
                  </g>
                </g>
                <g id="Grupo_55955" data-name="Grupo 55955">
                  <path id="Trazado_106320" data-name="Trazado 106320" d="M-421.616,1206.836a11.13,11.13,0,0,1,4.9-5.08,10.911,10.911,0,0,0-5.506,5.5C-422.021,1207.116-421.824,1206.969-421.616,1206.836Z" fill="#cdd3d1"/>
                  <path id="Trazado_106321" data-name="Trazado 106321" d="M-414.675,1219.785a6.391,6.391,0,0,1-1.045-5.249c.57-3.039,2.613-4.144,4.412-5.117,1.6-.869,2.875-1.554,2.841-3.416a4.43,4.43,0,0,0-3.926-4.06,6.462,6.462,0,0,0-3.925.581,6.368,6.368,0,0,1,3.407-.358,4.422,4.422,0,0,1,3.923,4.057c.036,1.864-1.233,2.549-2.839,3.418-1.8.975-3.842,2.08-4.41,5.117a6.36,6.36,0,0,0,1.047,5.248,8.261,8.261,0,0,0,5.889,2.89c.015-.04.033-.082.046-.125s.039-.1.057-.154A8.119,8.119,0,0,1-414.675,1219.785Z" fill="#cdd3d1"/>
                </g>
                <path id="Trazado_106322" data-name="Trazado 106322" d="M-405.528,1201c-2.325-2.773-4.516-5.388-3.907-7.729a8.7,8.7,0,0,1,7.915-6.851c3.486-.276,6.814,1.343,7.906,3.846.011.026.036.038.057.055.236-.165.476-.325.709-.493-1.273-2.791-4.93-4.591-8.742-4.294a9.564,9.564,0,0,0-8.706,7.516c-.724,2.783,1.614,5.569,4.085,8.519,2.156,2.574,4.383,5.236,5.018,8.194a12.2,12.2,0,0,1,.05,4.541,12.811,12.811,0,0,1-1.236,3.77,9.211,9.211,0,0,1-1.922,2.565,3.255,3.255,0,0,0-.139.9c0,.064.006.127.011.186a.4.4,0,0,0,.048.011.438.438,0,0,0,.277-.1,10.09,10.09,0,0,0,2.8-3.769,14.336,14.336,0,0,0,1.138-4.132,12.785,12.785,0,0,0-.155-4.162C-401,1206.4-403.407,1203.528-405.528,1201Z" fill="#e5e5e5"/>
                <g id="Grupo_55956" data-name="Grupo 55956">
                  <path id="Trazado_106323" data-name="Trazado 106323" d="M-405.453,1201c-2.324-2.773-4.515-5.388-3.909-7.729a8.74,8.74,0,0,1,6.187-6.546,8.72,8.72,0,0,0-6.632,6.658c-.6,2.339,1.587,4.956,3.908,7.727,2.122,2.534,4.527,5.4,5.2,8.579a12.8,12.8,0,0,1,.157,4.164,14.3,14.3,0,0,1-1.137,4.132,10.192,10.192,0,0,1-2.683,3.672.557.557,0,0,0,0,.071.405.405,0,0,0,.051.011.443.443,0,0,0,.275-.1,10.035,10.035,0,0,0,2.8-3.769,14.179,14.179,0,0,0,1.138-4.132,12.785,12.785,0,0,0-.152-4.162C-400.927,1206.4-403.334,1203.528-405.453,1201Z" fill="#cdd3d1"/>
                  <path id="Trazado_106324" data-name="Trazado 106324" d="M-393.168,1190.019c0,.009,0,.018,0,.026.123-.087.25-.169.371-.258-1.292-2.769-4.928-4.552-8.722-4.256a10.416,10.416,0,0,0-1.875.327,10.492,10.492,0,0,1,1.431-.215C-398.109,1185.342-394.408,1187.179-393.168,1190.019Z" fill="#cdd3d1"/>
                </g>
              </g>
            </g>
          </g>
        </g>
      </g>
    </g>
  </g>
</svg>
