<svg xmlns="http://www.w3.org/2000/svg" width="313" height="210" viewBox="0 0 313 210">
  <g id="Grupo_57511" data-name="Grupo 57511" transform="translate(2217 9354)">
    <g id="Grupo_57397" data-name="Grupo 57397" transform="translate(-2161 -58)">
      <circle id="Elipse_4532" data-name="Elipse 4532" cx="95" cy="95" r="95" transform="translate(-56 -9296)" fill="#ff8a5b"/>
      <g id="Grupo_56380" data-name="Grupo 56380" transform="translate(849.697 -9605.469)">
        <rect id="Rectángulo_5574" data-name="Rectángulo 5574" width="295" height="200" transform="translate(-887.697 319.469)" fill="none"/>
        <g id="Grupo_56356" data-name="Grupo 56356" transform="translate(-12.559 -11.129)">
          <g id="Grupo_56293" data-name="Grupo 56293" transform="translate(-824.248 344.989)">
            <g id="Grupo_56289" data-name="Grupo 56289" transform="translate(10.399 8.779)">
              <path id="Trazado_106789" data-name="Trazado 106789" d="M-812.384,443.935l45.343-26.548-.177-64.759-45.343,26.549Z" transform="translate(815.596 -352.627)" fill="#7b4121"/>
              <path id="Trazado_106790" data-name="Trazado 106790" d="M-811.99,440.71l-3.034-1.741-.177-64.759,3.034,1.741Z" transform="translate(815.201 -349.402)" fill="#955730"/>
            </g>
            <g id="Grupo_56290" data-name="Grupo 56290" transform="translate(56.748 8.167)">
              <path id="Trazado_106791" data-name="Trazado 106791" d="M-774.7,418.61l3.024-1.757-.177-64.759-3.025,1.757Z" transform="translate(774.877 -352.094)" fill="#7b4121"/>
            </g>
            <g id="Grupo_56291" data-name="Grupo 56291" transform="translate(133.551 79.129)">
              <path id="Trazado_106792" data-name="Trazado 106792" d="M-705.242,505.859l47.214-27.268-.177-64.759L-705.419,441.1Z" transform="translate(708.453 -413.832)" fill="#7b4121"/>
              <path id="Trazado_106793" data-name="Trazado 106793" d="M-704.847,502.54l-3.034-1.74-.177-64.759,3.034,1.741Z" transform="translate(708.058 -410.513)" fill="#955730"/>
            </g>
            <g id="Grupo_56292" data-name="Grupo 56292" transform="translate(182.287 78.25)">
              <path id="Trazado_106794" data-name="Trazado 106794" d="M-665.481,479.584l3.024-1.757-.177-64.759-3.024,1.757Z" transform="translate(665.658 -413.067)" fill="#7b4121"/>
            </g>
            <path id="Trazado_106795" data-name="Trazado 106795" d="M-687.541,455.632l-136.7-78.794-.009-3.234,136.7,78.794Z" transform="translate(824.248 -340.713)" fill="#7b4121"/>
            <path id="Trazado_106796" data-name="Trazado 106796" d="M-705.32,446.426l56.512-32.852.008,3.036-56.512,32.852Z" transform="translate(842.018 -334.741)" fill="#6d361b"/>
            <path id="Trazado_106797" data-name="Trazado 106797" d="M-636.882,418.315l-63.251-36.471-84.994,16.448,91.733,52.875Z" transform="translate(830.093 -339.482)" fill="#aa643d"/>
            <path id="Trazado_106798" data-name="Trazado 106798" d="M-767.757,344.989l-56.491,32.892,44.966,25.918,84.994-16.448Z" transform="translate(824.248 -344.989)" fill="#aa643d"/>
          </g>
          <path id="Trazado_106799" data-name="Trazado 106799" d="M-786.641,385.819s4.761-2.52,9.472-5.545,16.092-7.76,21.03-9.2c7.924-2.307,15.948-1.188,20.491.715,5.693,2.385,15.273,8.31,15.273,8.31s-12.633,6.949-18.449,9.786c-3.262,1.591-22.456,5.248-22.456,5.248l-14.962,3.506Z" transform="translate(5.619 3.705)" fill="#bac927"/>
          <g id="Grupo_56316" data-name="Grupo 56316" transform="translate(-774.253 364.963)">
            <g id="Grupo_56298" data-name="Grupo 56298">
              <path id="Trazado_106800" data-name="Trazado 106800" d="M-751.7,382.677v7.9l8.637,4.986v-16.8a6.213,6.213,0,0,0-.089-1Z" transform="translate(785.094 -360.066)" fill="#d3d3d3"/>
              <path id="Trazado_106801" data-name="Trazado 106801" d="M-751.695,370.783v5.1l4.424-2.542Z" transform="translate(785.094 -361.109)" fill="#d3d3d3"/>
              <path id="Trazado_106802" data-name="Trazado 106802" d="M-764.062,362.674a1.73,1.73,0,0,0-1.532-.209l-.318.183-11.588,6.669.437,3.016,10.415-5.36,5.306-2.729Z" transform="translate(781.238 -362.367)" fill="#fff"/>
              <path id="Trazado_106803" data-name="Trazado 106803" d="M-761.791,371.843l-1.825-1.053-4.444-2.566,2,5.792,6.719,3.88,2-3.487Z" transform="translate(782.649 -361.492)" fill="#d3d3d3"/>
              <path id="Trazado_106804" data-name="Trazado 106804" d="M-764.533,378.626a1.733,1.733,0,0,0-1.533-.209l-.318.183-11.589,6.669.437,3.016,10.416-5.359,5.306-2.73Z" transform="translate(781.167 -359.983)" fill="#e2e2e2"/>
              <path id="Trazado_106805" data-name="Trazado 106805" d="M-755.4,397.947l-21.655-12.5,10.826-6.25,21.655,12.5Z" transform="translate(781.304 -359.853)" fill="#d3d3d3"/>
              <path id="Trazado_106806" data-name="Trazado 106806" d="M-754.647,384.339v24.949l11.6-6.691V377.648Z" transform="translate(784.653 -360.083)" fill="#d1d1d1"/>
              <g id="Grupo_56294" data-name="Grupo 56294" transform="translate(27.199 25.446)">
                <path id="Trazado_106807" data-name="Trazado 106807" d="M-743.416,392.4l-13.673-7.894v10.6l12.814,7.4,2.023-1.163V394.62A2.794,2.794,0,0,0-743.416,392.4Z" transform="translate(757.089 -384.505)" fill="#d3d3d3"/>
                <path id="Trazado_106808" data-name="Trazado 106808" d="M-754.647,405.876V407.6l11.608-6.677a1,1,0,0,0,.422-.94v-1Z" transform="translate(757.454 -382.342)" fill="#bfbfbf"/>
              </g>
              <path id="Trazado_106809" data-name="Trazado 106809" d="M-762.754,364l-5.306,2.73v2.125l22.867,13.2v-7.918Z" transform="translate(782.649 -362.123)" fill="#d3d3d3"/>
              <path id="Trazado_106810" data-name="Trazado 106810" d="M-745.141,373.687l-1.18-.682-4.424,2.541-7.3,4.194,3.907,5.6,3.393-1.949,8.548-4.91A7.127,7.127,0,0,0-745.141,373.687Z" transform="translate(784.145 -360.777)" fill="#fff"/>
              <path id="Trazado_106811" data-name="Trazado 106811" d="M-769.587,387.7l-5.691-3.286,5.536-3.189,5.691,3.286Z" transform="translate(781.57 -359.549)" fill="#b2b2b2"/>
              <path id="Trazado_106812" data-name="Trazado 106812" d="M-770.677,386.584l-3.992-2.3,4.609-2.661,3.992,2.3Z" transform="translate(781.661 -359.49)" fill="#3f2a2a"/>
              <path id="Trazado_106813" data-name="Trazado 106813" d="M-751.85,409.724l-25.388-14.659a2.793,2.793,0,0,1-1.162-2.221v-7.5c0-.853.523-1.248,1.162-.879l25.388,14.657a2.8,2.8,0,0,1,1.163,2.222v7.5C-750.686,409.7-751.209,410.093-751.85,409.724Z" transform="translate(781.103 -359.086)" fill="#efefef"/>
              <path id="Trazado_106814" data-name="Trazado 106814" d="M-776.765,392.95s2.725-2.975,4.193-4.291c1.5-1.348,8.89-3.561,10.411-3.934a57.7,57.7,0,0,0,5.7-2.236l-10.756-3.884s-7.494,5.041-8.371,5.485a61.142,61.142,0,0,0-5.168,4.734Z" transform="translate(780.752 -359.941)" fill="#a8af1b"/>
              <g id="Grupo_56296" data-name="Grupo 56296" transform="translate(9.023 18.06)">
                <g id="Grupo_56295" data-name="Grupo 56295" transform="translate(0 6.013)">
                  <path id="Trazado_106815" data-name="Trazado 106815" d="M-771.4,384.4l-.94-.543.687-.411a.945.945,0,0,1,.957-.007l.123.071a.227.227,0,0,1,0,.392Z" transform="translate(772.985 -383.311)" fill="#efefef"/>
                  <path id="Trazado_106816" data-name="Trazado 106816" d="M-772.205,383.754a1.39,1.39,0,0,1-.569.124c-.229.017-.13.248.136.276a2.724,2.724,0,0,0,.843-.175Z" transform="translate(772.902 -383.245)" fill="#efefef"/>
                  <path id="Trazado_106817" data-name="Trazado 106817" d="M-771.736,384.031a2.243,2.243,0,0,1-.617.183c-.226.038-.129.247.136.276a1.71,1.71,0,0,0,.886-.228C-771.093,384.116-771.736,384.031-771.736,384.031Z" transform="translate(772.965 -383.203)" fill="#efefef"/>
                </g>
                <path id="Trazado_106818" data-name="Trazado 106818" d="M-770.936,384.393V378.38a.3.3,0,0,0-.3-.3.3.3,0,0,0-.3.3v6.013A2.786,2.786,0,0,0-770.936,384.393Z" transform="translate(773.106 -378.079)" fill="#593d3d"/>
                <ellipse id="Elipse_4492" data-name="Elipse 4492" cx="0.301" cy="0.17" rx="0.301" ry="0.17" transform="translate(1.567 6.161)" fill="#593d3d"/>
              </g>
              <path id="Trazado_106819" data-name="Trazado 106819" d="M-770.581,383.156l8.794-5.082-7.57-.266Z" transform="translate(782.272 -360.06)" fill="#bfbfbf"/>
              <g id="Grupo_56297" data-name="Grupo 56297" transform="translate(2.971 6.69)">
                <path id="Trazado_106820" data-name="Trazado 106820" d="M-756.2,379.842l-5.6-3.236v20.841l8.636,4.986v-16.8A7.259,7.259,0,0,0-756.2,379.842Z" transform="translate(780.613 -366.929)" fill="#efefef"/>
                <path id="Trazado_106821" data-name="Trazado 106821" d="M-755.3,388.124l-22.867-13.2v-4.468c0-1.906,1.159-2.782,2.587-1.956l20.279,11.708Z" transform="translate(778.167 -368.187)" fill="#efefef"/>
                <path id="Trazado_106822" data-name="Trazado 106822" d="M-771.9,377.665l-1.824-1.053-4.444-2.566,2,5.792,6.719,3.879,2-3.487Z" transform="translate(778.167 -367.311)" fill="#efefef"/>
              </g>
              <path id="Trazado_106823" data-name="Trazado 106823" d="M-754.542,381.689l-21.655-12.5,11.646-6.69L-742.9,375Z" transform="translate(781.433 -362.347)" fill="#e2e2e2"/>
              <path id="Trazado_106824" data-name="Trazado 106824" d="M-760.175,404.713V381.246c0-.784.482-1.148,1.069-.808l2.6,1.5a2.572,2.572,0,0,1,1.069,2.044v23.47Z" transform="translate(783.827 -359.686)" fill="#fe733e"/>
            </g>
            <g id="Grupo_56299" data-name="Grupo 56299" transform="translate(34.148 24.15)">
              <path id="Trazado_106825" data-name="Trazado 106825" d="M-746.372,385.423a5.591,5.591,0,0,1-2.336,4.463c-1.29.745-2.336-.046-2.336-1.766a5.594,5.594,0,0,1,2.336-4.463C-747.417,382.913-746.372,383.7-746.372,385.423Z" transform="translate(751.043 -383.377)" fill="#fe733e"/>
              <path id="Trazado_106826" data-name="Trazado 106826" d="M-745.6,384.488l-1.683-.973-3.111,6.437,2.09,1.166Z" transform="translate(751.14 -383.357)" fill="#fe733e"/>
              <path id="Trazado_106827" data-name="Trazado 106827" d="M-744.681,386.367a5.6,5.6,0,0,1-2.336,4.463c-1.291.744-2.336-.046-2.336-1.767a5.591,5.591,0,0,1,2.336-4.462C-745.727,383.857-744.681,384.647-744.681,386.367Z" transform="translate(751.296 -383.236)" fill="#ff8a66"/>
              <ellipse id="Elipse_4493" data-name="Elipse 4493" cx="2.293" cy="1.297" rx="2.293" ry="1.297" transform="matrix(0.392, -0.92, 0.92, 0.392, 2.297, 6.212)" fill="#fff"/>
              <path id="Trazado_106828" data-name="Trazado 106828" d="M-748.114,391.584a1.459,1.459,0,0,1-.608,1.162c-.337.193-.608-.013-.608-.46a1.452,1.452,0,0,1,.608-1.162C-748.386,390.93-748.114,391.136-748.114,391.584Z" transform="translate(751.299 -382.23)" fill="#bfbfbf"/>
            </g>
            <g id="Grupo_56300" data-name="Grupo 56300" transform="translate(24.295 28.065)">
              <path id="Trazado_106829" data-name="Trazado 106829" d="M-757.868,390.332l.9-.514-1.372-2.976-.927.533Z" transform="translate(759.667 -386.775)" fill="#d1d1d1"/>
              <path id="Trazado_106830" data-name="Trazado 106830" d="M-758.791,387.72a2.556,2.556,0,0,0,1.069,2.041c.59.341,1.068-.021,1.068-.807a2.562,2.562,0,0,0-1.068-2.043C-758.313,386.571-758.791,386.933-758.791,387.72Z" transform="translate(759.738 -386.784)" fill="#d1d1d1"/>
              <path id="Trazado_106831" data-name="Trazado 106831" d="M-759.615,388.2a2.556,2.556,0,0,0,1.069,2.041c.59.341,1.068-.021,1.068-.807a2.562,2.562,0,0,0-1.068-2.043C-759.137,387.055-759.615,387.417-759.615,388.2Z" transform="translate(759.615 -386.711)" fill="#fff"/>
            </g>
            <g id="Grupo_56301" data-name="Grupo 56301" transform="translate(24.295 23.361)">
              <path id="Trazado_106832" data-name="Trazado 106832" d="M-757.868,386.239l.9-.513-1.372-2.976-.927.533Z" transform="translate(759.667 -382.683)" fill="#d1d1d1"/>
              <path id="Trazado_106833" data-name="Trazado 106833" d="M-758.791,383.627a2.56,2.56,0,0,0,1.069,2.043c.59.34,1.068-.022,1.068-.808a2.558,2.558,0,0,0-1.068-2.041C-758.313,382.478-758.791,382.84-758.791,383.627Z" transform="translate(759.738 -382.691)" fill="#d1d1d1"/>
              <path id="Trazado_106834" data-name="Trazado 106834" d="M-759.615,384.111a2.56,2.56,0,0,0,1.069,2.043c.59.34,1.068-.022,1.068-.808a2.558,2.558,0,0,0-1.068-2.041C-759.137,382.962-759.615,383.324-759.615,384.111Z" transform="translate(759.615 -382.619)" fill="#fff"/>
            </g>
            <g id="Grupo_56302" data-name="Grupo 56302" transform="translate(16.779 16.557)">
              <path id="Trazado_106835" data-name="Trazado 106835" d="M-763.829,381.241l.616-.352-1.862-4.039-.609.35Z" transform="translate(766.224 -376.76)" fill="#d1d1d1"/>
              <path id="Trazado_106836" data-name="Trazado 106836" d="M-765.6,378.042a3.471,3.471,0,0,0,1.451,2.77c.8.462,1.449-.029,1.449-1.1a3.47,3.47,0,0,0-1.449-2.77C-764.954,376.484-765.6,376.974-765.6,378.042Z" transform="translate(766.236 -376.772)" fill="#d1d1d1"/>
              <path id="Trazado_106837" data-name="Trazado 106837" d="M-766.154,378.347a3.471,3.471,0,0,0,1.451,2.77c.8.462,1.449-.028,1.449-1.1a3.474,3.474,0,0,0-1.449-2.771C-765.5,376.789-766.154,377.279-766.154,378.347Z" transform="translate(766.154 -376.726)" fill="#fff"/>
            </g>
            <g id="Grupo_56303" data-name="Grupo 56303" transform="translate(11.609 13.081)">
              <path id="Trazado_106838" data-name="Trazado 106838" d="M-767.924,378.993l.723-.413-2.185-4.741-.715.411Z" transform="translate(770.734 -373.734)" fill="#fe733e"/>
              <path id="Trazado_106839" data-name="Trazado 106839" d="M-770.005,375.239a4.076,4.076,0,0,0,1.7,3.252c.939.543,1.7-.033,1.7-1.287a4.078,4.078,0,0,0-1.7-3.252C-769.243,373.409-770.005,373.985-770.005,375.239Z" transform="translate(770.749 -373.747)" fill="#fe733e"/>
              <path id="Trazado_106840" data-name="Trazado 106840" d="M-770.652,375.6a4.074,4.074,0,0,0,1.7,3.252c.94.543,1.7-.033,1.7-1.286a4.076,4.076,0,0,0-1.7-3.252C-769.89,373.768-770.652,374.344-770.652,375.6Z" transform="translate(770.652 -373.694)" fill="#ff8a66"/>
              <path id="Trazado_106841" data-name="Trazado 106841" d="M-770.356,375.729a3.264,3.264,0,0,0,1.362,2.6c.752.433,1.362-.028,1.362-1.03a3.264,3.264,0,0,0-1.362-2.6C-769.746,374.266-770.356,374.726-770.356,375.729Z" transform="translate(770.696 -373.63)" fill="#fff"/>
            </g>
            <path id="Trazado_106842" data-name="Trazado 106842" d="M-757.324,402.777l-1.2-.694a1.7,1.7,0,0,1-.708-1.353v-7.41c0-.52.318-.76.708-.536l1.2.7a1.7,1.7,0,0,1,.708,1.353v7.41C-756.615,402.761-756.934,403-757.324,402.777Z" transform="translate(783.967 -357.834)" fill="#fff"/>
            <g id="Grupo_56304" data-name="Grupo 56304" transform="translate(21.912 36.381)">
              <path id="Trazado_106843" data-name="Trazado 106843" d="M-758.849,394.019v1.206s-2.038,1.03-2.485,1.2-.507-.222.026-.671S-758.849,394.019-758.849,394.019Z" transform="translate(761.689 -394.019)" fill="#d1d1d1"/>
              <path id="Trazado_106844" data-name="Trazado 106844" d="M-761.619,396.449l2.642,1.532,2.724-2.45-2.606-1.512Z" transform="translate(761.699 -394.019)" fill="#d1d1d1"/>
              <path id="Trazado_106845" data-name="Trazado 106845" d="M-756.582,395.334v1.207s-2.037,1.029-2.485,1.2-.506-.222.028-.671S-756.582,395.334-756.582,395.334Z" transform="translate(762.028 -393.822)" fill="#bfbfbf"/>
            </g>
            <path id="Trazado_106846" data-name="Trazado 106846" d="M-744.565,399.048l-1.73,1v-3.38l1.73-1Z" transform="translate(785.901 -357.391)" fill="#bfbfbf"/>
            <path id="Trazado_106847" data-name="Trazado 106847" d="M-744.89,396.14l-1.155.667v2.649l1.155-.667Z" transform="translate(785.938 -357.32)" fill="#3f2a2a"/>
            <path id="Trazado_106848" data-name="Trazado 106848" d="M-745.04,396.14s.082.876.092,1.294a2.094,2.094,0,0,0,.317.88c.068.17.029.233-.092.308-.094.057-.317.167-.317.167Z" transform="translate(786.088 -357.32)" fill="#3f2a2a"/>
            <path id="Trazado_106849" data-name="Trazado 106849" d="M-746.045,396.721s.082.875.092,1.293a2.1,2.1,0,0,0,.317.882c.068.169.029.233-.092.307-.094.059-.317.167-.317.167Z" transform="translate(785.938 -357.234)" fill="#593d3d"/>
            <g id="Grupo_56305" data-name="Grupo 56305" transform="translate(31.946 42.926)">
              <path id="Trazado_106850" data-name="Trazado 106850" d="M-752.534,399.9a.511.511,0,0,1-.213.407c-.118.068-.213,0-.213-.161a.506.506,0,0,1,.213-.407C-752.629,399.671-752.534,399.743-752.534,399.9Z" transform="translate(752.959 -399.713)" fill="#593d3d"/>
              <path id="Trazado_106851" data-name="Trazado 106851" d="M-752.534,400.761a.51.51,0,0,1-.213.407c-.118.068-.213,0-.213-.161a.508.508,0,0,1,.213-.407C-752.629,400.533-752.534,400.6-752.534,400.761Z" transform="translate(752.959 -399.584)" fill="#593d3d"/>
              <path id="Trazado_106852" data-name="Trazado 106852" d="M-752.534,401.7a.509.509,0,0,1-.213.406c-.118.068-.213,0-.213-.16a.506.506,0,0,1,.213-.407C-752.629,401.471-752.534,401.543-752.534,401.7Z" transform="translate(752.959 -399.444)" fill="#593d3d"/>
              <path id="Trazado_106853" data-name="Trazado 106853" d="M-752.534,402.562a.511.511,0,0,1-.213.407c-.118.068-.213,0-.213-.161a.508.508,0,0,1,.213-.407C-752.629,402.333-752.534,402.406-752.534,402.562Z" transform="translate(752.959 -399.315)" fill="#593d3d"/>
            </g>
            <g id="Grupo_56306" data-name="Grupo 56306" transform="translate(32.838 42.387)">
              <path id="Trazado_106854" data-name="Trazado 106854" d="M-751.757,399.43a.509.509,0,0,1-.213.406c-.118.068-.214,0-.214-.161a.507.507,0,0,1,.214-.406C-751.852,399.2-751.757,399.273-751.757,399.43Z" transform="translate(752.183 -399.244)" fill="#593d3d"/>
              <path id="Trazado_106855" data-name="Trazado 106855" d="M-751.757,400.292a.512.512,0,0,1-.213.407c-.118.068-.214,0-.214-.161a.508.508,0,0,1,.214-.407C-751.852,400.064-751.757,400.136-751.757,400.292Z" transform="translate(752.183 -399.115)" fill="#593d3d"/>
              <path id="Trazado_106856" data-name="Trazado 106856" d="M-751.757,401.231a.509.509,0,0,1-.213.406c-.118.068-.214,0-.214-.161a.507.507,0,0,1,.214-.406C-751.852,401-751.757,401.074-751.757,401.231Z" transform="translate(752.183 -398.975)" fill="#593d3d"/>
              <path id="Trazado_106857" data-name="Trazado 106857" d="M-751.757,402.093a.512.512,0,0,1-.213.407c-.118.068-.214,0-.214-.161a.508.508,0,0,1,.214-.407C-751.852,401.865-751.757,401.937-751.757,402.093Z" transform="translate(752.183 -398.846)" fill="#593d3d"/>
            </g>
            <g id="Grupo_56307" data-name="Grupo 56307" transform="translate(33.702 41.935)">
              <path id="Trazado_106858" data-name="Trazado 106858" d="M-751,399.037a.509.509,0,0,1-.213.406c-.118.068-.214,0-.214-.161a.507.507,0,0,1,.214-.406C-751.1,398.809-751,398.88-751,399.037Z" transform="translate(751.431 -398.851)" fill="#593d3d"/>
              <path id="Trazado_106859" data-name="Trazado 106859" d="M-751,399.9a.512.512,0,0,1-.213.407c-.118.068-.214,0-.214-.161a.507.507,0,0,1,.214-.407C-751.1,399.671-751,399.743-751,399.9Z" transform="translate(751.431 -398.722)" fill="#593d3d"/>
              <path id="Trazado_106860" data-name="Trazado 106860" d="M-751,400.837a.51.51,0,0,1-.213.407c-.118.068-.214,0-.214-.161a.507.507,0,0,1,.214-.406C-751.1,400.61-751,400.681-751,400.837Z" transform="translate(751.431 -398.582)" fill="#593d3d"/>
              <path id="Trazado_106861" data-name="Trazado 106861" d="M-751,401.7a.509.509,0,0,1-.213.406c-.118.068-.214,0-.214-.16a.507.507,0,0,1,.214-.407C-751.1,401.471-751,401.543-751,401.7Z" transform="translate(751.431 -398.453)" fill="#593d3d"/>
            </g>
            <g id="Grupo_56308" data-name="Grupo 56308" transform="translate(34.617 41.469)">
              <path id="Trazado_106862" data-name="Trazado 106862" d="M-750.21,398.631a.51.51,0,0,1-.213.407c-.117.068-.213,0-.213-.161a.511.511,0,0,1,.213-.407C-750.305,398.4-750.21,398.475-750.21,398.631Z" transform="translate(750.635 -398.445)" fill="#593d3d"/>
              <path id="Trazado_106863" data-name="Trazado 106863" d="M-750.21,399.494a.509.509,0,0,1-.213.406c-.117.068-.213,0-.213-.161a.509.509,0,0,1,.213-.406C-750.305,399.266-750.21,399.337-750.21,399.494Z" transform="translate(750.635 -398.316)" fill="#593d3d"/>
              <path id="Trazado_106864" data-name="Trazado 106864" d="M-750.21,400.432a.51.51,0,0,1-.213.407c-.117.068-.213,0-.213-.161a.511.511,0,0,1,.213-.407C-750.305,400.2-750.21,400.276-750.21,400.432Z" transform="translate(750.635 -398.176)" fill="#593d3d"/>
              <path id="Trazado_106865" data-name="Trazado 106865" d="M-750.21,401.294a.51.51,0,0,1-.213.407c-.117.068-.213,0-.213-.161a.509.509,0,0,1,.213-.406C-750.305,401.066-750.21,401.138-750.21,401.294Z" transform="translate(750.635 -398.047)" fill="#593d3d"/>
            </g>
            <g id="Grupo_56309" data-name="Grupo 56309" transform="translate(34.167 7.286)">
              <ellipse id="Elipse_4494" data-name="Elipse 4494" cx="0.86" cy="0.484" rx="0.86" ry="0.484" transform="translate(0 4.348)" fill="#3f2a2a"/>
              <path id="Trazado_106866" data-name="Trazado 106866" d="M-749.815,372.939c0,.128-.184.231-.409.231s-.41-.1-.41-.231.184-.23.41-.23S-749.815,372.812-749.815,372.939Z" transform="translate(751.085 -368.108)" fill="#fe733e"/>
              <rect id="Rectángulo_5625" data-name="Rectángulo 5625" width="0.82" height="4.601" transform="translate(0.45 0.231)" fill="#fe733e"/>
              <path id="Trazado_106867" data-name="Trazado 106867" d="M-749.815,368.937c0,.128-.184.231-.409.231s-.41-.1-.41-.231.184-.231.41-.231S-749.815,368.809-749.815,368.937Z" transform="translate(751.085 -368.706)" fill="#ff8a66"/>
            </g>
            <g id="Grupo_56310" data-name="Grupo 56310" transform="translate(29.107 11.786)">
              <path id="Trazado_106868" data-name="Trazado 106868" d="M-753.709,374.886c0,.268-.385.484-.86.484s-.86-.216-.86-.484.385-.484.86-.484S-753.709,374.619-753.709,374.886Z" transform="translate(755.429 -372.355)" fill="#3f2a2a"/>
              <path id="Trazado_106869" data-name="Trazado 106869" d="M-754.217,374.853c0,.128-.184.231-.41.231s-.409-.1-.409-.231.183-.231.409-.231S-754.217,374.725-754.217,374.853Z" transform="translate(755.488 -372.322)" fill="#fe733e"/>
              <rect id="Rectángulo_5626" data-name="Rectángulo 5626" width="0.82" height="2.268" transform="translate(0.45 0.263)" fill="#fe733e"/>
              <path id="Trazado_106870" data-name="Trazado 106870" d="M-754.217,372.852c0,.126-.184.23-.41.23s-.409-.1-.409-.23.183-.231.409-.231S-754.217,372.724-754.217,372.852Z" transform="translate(755.488 -372.621)" fill="#ff8a66"/>
            </g>
            <g id="Grupo_56311" data-name="Grupo 56311" transform="translate(29.966 7.517)">
              <path id="Trazado_106871" data-name="Trazado 106871" d="M-752.961,371.172c0,.267-.385.484-.86.484s-.86-.217-.86-.484.385-.484.86-.484S-752.961,370.9-752.961,371.172Z" transform="translate(754.681 -368.641)" fill="#3f2a2a"/>
              <path id="Trazado_106872" data-name="Trazado 106872" d="M-753.469,371.139c0,.128-.184.231-.41.231s-.409-.1-.409-.231.183-.231.409-.231S-753.469,371.011-753.469,371.139Z" transform="translate(754.74 -368.608)" fill="#fe733e"/>
              <rect id="Rectángulo_5627" data-name="Rectángulo 5627" width="0.82" height="2.268" transform="translate(0.45 0.262)" fill="#fe733e"/>
              <path id="Trazado_106873" data-name="Trazado 106873" d="M-753.469,369.138c0,.126-.184.23-.41.23s-.409-.1-.409-.23.183-.231.409-.231S-753.469,369.01-753.469,369.138Z" transform="translate(754.74 -368.907)" fill="#ff8a66"/>
            </g>
            <g id="Grupo_56312" data-name="Grupo 56312" transform="translate(7.581 8.193)">
              <path id="Trazado_106874" data-name="Trazado 106874" d="M-773.885,382.184l-.271-.157V369.495l.271.157Z" transform="translate(774.157 -369.495)" fill="#3f2a2a"/>
            </g>
            <g id="Grupo_56313" data-name="Grupo 56313" transform="translate(7.581 1.503)">
              <path id="Trazado_106875" data-name="Trazado 106875" d="M-773.885,370.521l-.271-.157,11.645-6.69.272.157Z" transform="translate(774.157 -363.674)" fill="#593d3d"/>
            </g>
            <g id="Grupo_56314" data-name="Grupo 56314" transform="translate(9.023 9.022)">
              <path id="Trazado_106876" data-name="Trazado 106876" d="M-772.631,382.906l-.271-.156V370.216l.271.157Z" transform="translate(772.902 -370.216)" fill="#3f2a2a"/>
            </g>
            <g id="Grupo_56315" data-name="Grupo 56315" transform="translate(9.023 2.332)">
              <path id="Trazado_106877" data-name="Trazado 106877" d="M-772.631,371.242l-.272-.157,11.646-6.69.271.157Z" transform="translate(772.902 -364.396)" fill="#593d3d"/>
            </g>
            <path id="Trazado_106878" data-name="Trazado 106878" d="M-774.815,372.093l-2.444-1.411v-.908l2.444,1.411Z" transform="translate(781.274 -361.26)" fill="#3f2a2a"/>
            <path id="Trazado_106879" data-name="Trazado 106879" d="M-763.535,385.984l-1.988-1.147.187-.108,1.988,1.147Z" transform="translate(783.028 -359.026)" fill="#b2b2b2"/>
            <path id="Trazado_106880" data-name="Trazado 106880" d="M-764.794,386.712l-1.988-1.148.187-.108,1.988,1.148Z" transform="translate(782.839 -358.917)" fill="#b2b2b2"/>
            <path id="Trazado_106881" data-name="Trazado 106881" d="M-766.049,387.433l-1.988-1.148.187-.108,1.988,1.148Z" transform="translate(782.652 -358.809)" fill="#b2b2b2"/>
            <path id="Trazado_106882" data-name="Trazado 106882" d="M-767.309,388.161l-1.988-1.148.187-.108,1.988,1.148Z" transform="translate(782.464 -358.7)" fill="#b2b2b2"/>
          </g>
          <path id="Trazado_106883" data-name="Trazado 106883" d="M-784.562,385.336a36.591,36.591,0,0,0,6.1-2.509,14.242,14.242,0,0,1,5.244-1.922,4.7,4.7,0,0,1,2.287.466l-3.615,2.311s3.249.072,2.67,1.115c-.632,1.139-2.339.574-3.62,1.128-1.025.444-4.876,3.1-5.13,3.034S-784.562,385.336-784.562,385.336Z" transform="translate(5.93 5.364)" fill="#ffc5b3"/>
          <g id="Grupo_56324" data-name="Grupo 56324" transform="translate(-819.283 359.609)">
            <g id="Grupo_56317" data-name="Grupo 56317" transform="translate(52.228 86.989)">
              <path id="Trazado_106884" data-name="Trazado 106884" d="M-764.624,460.966c2.778-1.39,5.417-3.089,4.574-4.674a2.819,2.819,0,0,0-2.122-1.176c-2.562.844-3.841,1.417-3.841,1.417s.269-14.872,1.364-21.037c.361-2.031-9.353-2.107-9.353-2.107-.347,1.42-.653,13.923,0,21.535a22.27,22.27,0,0,1-.107,5.454c.662.287,2.026.882,3.044,1.344C-769.676,462.354-767.4,462.354-764.624,460.966Z" transform="translate(774.506 -433.39)" fill="#ffc5b3"/>
              <path id="Trazado_106885" data-name="Trazado 106885" d="M-774.207,461.742c.929,2.21,3.07,2,7.4.447a37.271,37.271,0,0,0,9.741-4.967c2.731-2.021,2.759-2.29,3.12-3.656.506-1.914-2.287-2.986-6.932-1.542-.458.141-.88.278-1.277.408a2.819,2.819,0,0,1,2.122,1.176c.844,1.585-1.8,3.284-4.574,4.674s-5.052,1.388-6.441.757c-1.017-.462-2.382-1.056-3.044-1.344C-774.375,459.551-774.765,460.413-774.207,461.742Z" transform="translate(774.49 -430.706)" fill="#33211f"/>
            </g>
            <g id="Grupo_56318" data-name="Grupo 56318" transform="translate(66.986 87.241)">
              <path id="Trazado_106886" data-name="Trazado 106886" d="M-751.8,468.846c2.778-1.39,5.417-3.089,4.574-4.674A2.819,2.819,0,0,0-749.348,463c-2.562.844-3.841,1.417-3.841,1.417s1.376-24.038,2.471-30.2c.361-2.032-10.049,1.72-10.049,1.72-.347,1.421-1.064,19.262-.41,26.873a22.333,22.333,0,0,1-.107,5.454c.662.287,2.026.882,3.044,1.344C-756.851,470.235-754.578,470.235-751.8,468.846Z" transform="translate(761.681 -433.609)" fill="#ffc5b3"/>
              <path id="Trazado_106887" data-name="Trazado 106887" d="M-761.367,468.626c.929,2.21,3.07,2,7.4.447a37.234,37.234,0,0,0,9.741-4.967c2.731-2.021,2.759-2.288,3.12-3.656.506-1.913-2.287-2.985-6.932-1.542-.459.143-.88.278-1.277.408a2.819,2.819,0,0,1,2.122,1.176c.844,1.585-1.8,3.284-4.574,4.674s-5.052,1.39-6.441.757c-1.017-.462-2.382-1.056-3.044-1.344C-761.535,466.436-761.925,467.3-761.367,468.626Z" transform="translate(761.65 -429.929)" fill="#33211f"/>
            </g>
            <g id="Grupo_56319" data-name="Grupo 56319" transform="translate(0 48.808)">
              <path id="Trazado_106888" data-name="Trazado 106888" d="M-817.9,488.057l2.337-1.349V401.362l-2.337,1.349Z" transform="translate(820.233 -399.994)" fill="#7b4121"/>
              <path id="Trazado_106889" data-name="Trazado 106889" d="M-819.929,486.708l2.337,1.349V402.712l-2.337-1.349Z" transform="translate(819.929 -399.994)" fill="#955730"/>
              <path id="Trazado_106890" data-name="Trazado 106890" d="M-819.929,401.54l2.337,1.349,2.337-1.349-2.337-1.368Z" transform="translate(819.929 -400.172)" fill="#ad663e"/>
            </g>
            <g id="Grupo_56321" data-name="Grupo 56321" transform="translate(0 76.511)">
              <path id="Trazado_106891" data-name="Trazado 106891" d="M-788.566,438.661l33.712,19.728V455.4l-31.375-18.167Z" transform="translate(824.615 -422.337)" fill="#ad663e"/>
              <path id="Trazado_106892" data-name="Trazado 106892" d="M-790.6,437.235l1.168,3.49,33.477,19.216,0-2.706Z" transform="translate(824.311 -422.337)" fill="#955730"/>
              <g id="Grupo_56320" data-name="Grupo 56320" transform="translate(68.293 18.205)">
                <path id="Trazado_106893" data-name="Trazado 106893" d="M-758.48,482.129l2.337-1.349V441.342l-2.337-.3Z" transform="translate(760.817 -439.973)" fill="#7b4121"/>
                <path id="Trazado_106894" data-name="Trazado 106894" d="M-760.513,480.779l2.337,1.349V441.04l-2.337.3Z" transform="translate(760.513 -439.973)" fill="#955730"/>
                <path id="Trazado_106895" data-name="Trazado 106895" d="M-760.513,441.48l2.337,1.349,2.337-1.349-2.337-1.369Z" transform="translate(760.513 -440.112)" fill="#ad663e"/>
              </g>
              <path id="Trazado_106896" data-name="Trazado 106896" d="M-816.206,460.076l33.476-19.216v-2.816L-816.2,457.37Z" transform="translate(820.485 -422.216)" fill="#7b4121"/>
              <path id="Trazado_106897" data-name="Trazado 106897" d="M-815.862,454.538v2.994l32.6-19.032-2.337-1.425Z" transform="translate(820.536 -422.361)" fill="#ad663e"/>
              <path id="Trazado_106898" data-name="Trazado 106898" d="M-817.9,445.681l33.711,19.728,36.919-21.562-33.841-19.574Z" transform="translate(820.233 -424.273)" fill="#bac927"/>
              <path id="Trazado_106899" data-name="Trazado 106899" d="M-787.188,464.277l33.476-19.216v-2.816l-33.474,19.326Z" transform="translate(824.821 -421.588)" fill="#7b4121"/>
              <path id="Trazado_106900" data-name="Trazado 106900" d="M-817.9,443.084l33.711,19.728v-2.987l-31.374-18.167Z" transform="translate(820.233 -421.676)" fill="#ad663e"/>
              <path id="Trazado_106901" data-name="Trazado 106901" d="M-788.008,425.7l32.549,19.047,1.737-2.114-31.948-18.358Z" transform="translate(824.698 -424.273)" fill="#ad663e"/>
              <path id="Trazado_106902" data-name="Trazado 106902" d="M-788.566,460.063v2.987l36.919-21.562-2.337-1.426Z" transform="translate(824.615 -421.914)" fill="#ad663e"/>
              <path id="Trazado_106903" data-name="Trazado 106903" d="M-787.188,477.614l33.476-19.216v-2.816l-33.474,19.326Z" transform="translate(824.821 -419.595)" fill="#7b4121"/>
              <path id="Trazado_106904" data-name="Trazado 106904" d="M-788.566,473.219v2.987l34.582-20.166-2.337-1.425Z" transform="translate(824.615 -419.74)" fill="#ad663e"/>
              <path id="Trazado_106905" data-name="Trazado 106905" d="M-816.039,444.38l1.81,1.824,35.209-20.564-2.437-1.367Z" transform="translate(820.51 -424.273)" fill="#ad663e"/>
              <path id="Trazado_106906" data-name="Trazado 106906" d="M-819.929,441.658l1.169,3.491,33.476,19.216,0-2.706Z" transform="translate(819.929 -421.676)" fill="#955730"/>
              <path id="Trazado_106907" data-name="Trazado 106907" d="M-817.9,456.3l33.711,19.728v-2.987l-31.374-18.166Z" transform="translate(820.233 -419.701)" fill="#ad663e"/>
              <path id="Trazado_106908" data-name="Trazado 106908" d="M-819.929,454.873l1.169,3.49,33.476,19.216,0-2.706Z" transform="translate(819.929 -419.701)" fill="#955730"/>
              <path id="Trazado_106909" data-name="Trazado 106909" d="M-755.722,440.843c-2.871-1.914-20.714-12.229-23.238-13.776s-3.514-1.547-5.209-.489-20.493,11.856-25.571,14.9c-4.146,2.486-3.963,3.979-3.963,3.979l60.777-1.71A9.856,9.856,0,0,0-755.722,440.843Z" transform="translate(820.859 -424.04)" fill="#bac927"/>
              <path id="Trazado_106910" data-name="Trazado 106910" d="M-754.63,439.642s-24,14.107-26.447,15.491-4.153,1.792-7.572-.082-23.987-13.47-23.987-13.47a3.794,3.794,0,0,0-.859,1.1,1.467,1.467,0,0,0-.208.711l28.893,16.73,31.884-18.44a6.8,6.8,0,0,0-.772-1.067A9.339,9.339,0,0,0-754.63,439.642Z" transform="translate(820.859 -421.977)" fill="#a8af1b"/>
            </g>
            <path id="Trazado_106911" data-name="Trazado 106911" d="M-784.226,360.566c1.049.729,4.922,1.633,6.059,10.254.762,5.791-1.161,8.377-2.808,9.886-.684.628-3.368.738-3.368.738l.117,6.455a10.957,10.957,0,0,1-7.414,0l-3.63-1.5a12.777,12.777,0,0,0,1.18-6.676c-.294-5.248-2.153-12.722-.838-15.5C-792.55,359.206-787.075,358.589-784.226,360.566Z" transform="translate(823.595 -357.438)" fill="#ffc5b3"/>
            <path id="Trazado_106912" data-name="Trazado 106912" d="M-794.36,443.551c2.932,1.625,7.832,3.862,17.983,1.217,12.193-3.178,12.864-.91,16.371,1.221,3.082,1.872,10.768,3.107,14.421-.1s3.187-12.287,3.187-12.287-1.172-9.864-13.178-13.059c-6.655-1.771-23.474-6.655-23.474-6.655s-20.072,5.556-22.047,11.445C-804.693,436.06-799.645,440.62-794.36,443.551Z" transform="translate(822.561 -349.314)" fill="#33211f"/>
            <path id="Trazado_106913" data-name="Trazado 106913" d="M-802.189,430.3c1.813,5.067,9.9,6.964,14.588,6.888,6.268-.1,13.437-3.367,15.56-9.332a72.634,72.634,0,0,0-2.239-6.948c-.609-1.568-3.513-8.151.866-17.5,2.141-4.572-2.715-12.872-4.078-15.856s-5.724-4.8-5.724-4.8l-11.038.171s-3.913,6.918-4.683,12.925-1.134,8.553-.182,16.155c.264,2.117,1.024,7.113-2.549,16.272A11.881,11.881,0,0,0-802.189,430.3Z" transform="translate(822.579 -353.966)" fill="#389ec6"/>
            <path id="Trazado_106914" data-name="Trazado 106914" d="M-796.174,382.645s.559,1.816,4.248,2.991a13.409,13.409,0,0,0,10.653-.841c.023-2.387-2.9-3.457-2.9-3.457a10.769,10.769,0,0,1-7.039,0L-794.936,380Z" transform="translate(823.478 -354.378)" fill="#2a78b7"/>
            <path id="Trazado_106915" data-name="Trazado 106915" d="M-790.3,358.088c-4.924,1.04-10.1,4.149-8.269,14.628a16.529,16.529,0,0,0,4.126,7.008c.972,1,2.121,2.06,2.363,3.466a9.272,9.272,0,0,0,1.418-.656,1.508,1.508,0,0,1,.391-.506c4.716-3.367,5.876-5.53,8.041-7.793s4.6-3.144,4.872-6.107C-776.791,362.048-781.066,356.137-790.3,358.088Z" transform="translate(823.064 -357.709)" fill="#33211f"/>
            <path id="Trazado_106916" data-name="Trazado 106916" d="M-739.266,386.913c-.559.454-2.229,2.091-3.2,2.994-.254.237.251-2.639-1.37-2.994-.938-.2-.163,1.947-.677,3.268-1.154,2.968-5.1,5.7-6.469,6.631-.809.548-8.986,5.836-8.986,5.836s-17.37-15.893-21.37-14.936c-2.086.5-2.929,4.893-1.149,9.416,2.276,5.79,21.337,13.855,21.337,13.855,1.567.325,3.085-.067,5.444-1.906,1.621-1.264,9.024-9.811,9.449-10.344,2.469-3.086,5.338-2.876,7.807-6.157C-736,389.323-734.6,383.126-739.266,386.913Z" transform="translate(825.379 -353.523)" fill="#ffc5b3"/>
            <path id="Trazado_106917" data-name="Trazado 106917" d="M-780.755,386.048c-2.741-.375-4.609,1.362-5.439,5.88-.982,5.348,5.919,7.634,5.919,7.634s-2.754-3.925-.963-7.347a5.5,5.5,0,0,1,5.052-2.8S-776.089,386.688-780.755,386.048Z" transform="translate(824.955 -353.482)" fill="#2a78b7"/>
            <path id="Trazado_106918" data-name="Trazado 106918" d="M-781.936,370.685s-2.267-3.883-3.241,0a3.945,3.945,0,0,0,2.24,4.821Z" transform="translate(825.097 -356.028)" fill="#ffc5b3"/>
            <path id="Trazado_106919" data-name="Trazado 106919" d="M-798.459,365.615s-1.56,10.583-2.255,14.123a41.748,41.748,0,0,0,.236,12.726c.6,3.232,3.657,5.868,2.907,8.183s-3.826,1.286-3.826,1.286,1.461,2.182,3.489,2.182c1.576,0,3.414-1.892,3.414-1.892s-1.613,4.821.413,6.7c1.963,1.818,3.957-.466,3.957-.466s-3.152.017-2.7-1.644,2.513-.207,3.451-2.694c.376-1-1.049-3.241-1.049-3.241s2.138,1.462,3.769,1.06c1.27-.314,2.194-2.471,2.194-2.471s-2.532,1.807-3.48.341c-1.12-1.729,1.714-2.271,2.146-2.523.849-.5,2.178-.459,2.855-4.111.552-2.977.288-19.253.288-19.253Z" transform="translate(822.698 -356.527)" fill="#33211f"/>
            <g id="Grupo_56323" data-name="Grupo 56323" transform="translate(1.169 54.069)">
              <path id="Trazado_106920" data-name="Trazado 106920" d="M-815.426,406.426l29.7,20.668.556-5.613s-22.77-13.183-25.946-15.218S-815.426,406.426-815.426,406.426Z" transform="translate(819.433 -404.652)" fill="#bac927"/>
              <path id="Trazado_106921" data-name="Trazado 106921" d="M-817.9,406.175l33.711,19.728v-2.987l-31.374-18.167Z" transform="translate(819.064 -404.749)" fill="#ad663e"/>
              <g id="Grupo_56322" data-name="Grupo 56322" transform="translate(32.543 14.464)">
                <path id="Trazado_106922" data-name="Trazado 106922" d="M-788.566,505.219l2.337-1.349V418.524l-2.337,1.349Z" transform="translate(790.903 -417.155)" fill="#7b4121"/>
                <path id="Trazado_106923" data-name="Trazado 106923" d="M-790.6,503.869l2.337,1.349V419.873l-2.337-1.349Z" transform="translate(790.599 -417.155)" fill="#955730"/>
                <path id="Trazado_106924" data-name="Trazado 106924" d="M-790.6,418.7l2.337,1.349,2.337-1.349-2.337-1.369Z" transform="translate(790.599 -417.333)" fill="#ad663e"/>
              </g>
              <path id="Trazado_106925" data-name="Trazado 106925" d="M-818.912,418.135l33.476,19.216,1.167-12.094-34.643-20Z" transform="translate(818.912 -404.673)" fill="#955730"/>
            </g>
          </g>
          <g id="Grupo_56325" data-name="Grupo 56325" transform="translate(-702.819 419.694)">
            <path id="Trazado_106926" data-name="Trazado 106926" d="M-714.887,429.443s1.276,1.78,4.76.968c2.9-.676,10.683-6.232,15.07-9.579.948-.2,2.021-.326,2.021-.326s1.155-2.106,2.171-2.18c.508-.038,1.476.984,3.782,2.007a7.407,7.407,0,0,0,6.277.391,7.483,7.483,0,0,0,3.552-2.234,2.356,2.356,0,0,0,.187-1.637s-2.525,2.264-4.159,2.667a8.1,8.1,0,0,1-6.149-.794,13.707,13.707,0,0,0-3.065-1.651Z" transform="translate(719.159 -408.957)" fill="#9b9b9b"/>
            <path id="Trazado_106927" data-name="Trazado 106927" d="M-691.851,417.986s-.238-1.028,2.248-1.857c2.333-.778,4.449-.752,5.86.018s1.637,1.521,1.637,1.521.938-1.975-2.172-2.66-5.366-.474-7.006.537A1.616,1.616,0,0,0-691.851,417.986Z" transform="translate(722.55 -409.292)" fill="#9b9b9b"/>
            <path id="Trazado_106928" data-name="Trazado 106928" d="M-695.2,418.37a7.739,7.739,0,0,1,2.755-3.232,7.387,7.387,0,0,0,2.354-.665,4.811,4.811,0,0,0,1.926-1.555,1.962,1.962,0,0,0,.109-.9,6.214,6.214,0,0,1-3.361,2.091c-2.037.384-3.854,1.371-4.193,2.046a21.775,21.775,0,0,0-.817,2.159Z" transform="translate(721.918 -409.679)" fill="#9b9b9b"/>
            <path id="Trazado_106929" data-name="Trazado 106929" d="M-695.281,413.465a2.072,2.072,0,0,1,.766-1.483,3.377,3.377,0,0,1,2.733-.617c.59.074,1.754.61,1.753,1.478s1.152.443.854-.53-.528-2.082-2.493-1.832-3.264.009-3.733,1.134A1.848,1.848,0,0,0-695.281,413.465Z" transform="translate(722.044 -409.914)" fill="#9b9b9b"/>
            <path id="Trazado_106930" data-name="Trazado 106930" d="M-696.778,412.022a2.6,2.6,0,0,0,.028,1.472,2.721,2.721,0,0,0,1.945,1.512c1.19.346,1.318-.016,1.318-.016Z" transform="translate(721.85 -409.678)" fill="#9b9b9b"/>
            <path id="Trazado_106931" data-name="Trazado 106931" d="M-685.933,411.192a5.311,5.311,0,0,0-5.652-.73c-3.514,1.278-2.908,3-1.179,4.147a2.648,2.648,0,0,0,.6.291,11.133,11.133,0,0,0-2.869,4.479l-19.849,11.09a6.813,6.813,0,0,0,5.634.151c2.6-1.014,15.9-10.649,15.9-10.649.289-1.5,1.655-4.159,3.594-4.983h0a8.721,8.721,0,0,0,2.333-.584C-685.361,413.436-684.632,412.124-685.933,411.192Zm-2.375,2.514c-1.252.384-2.484.666-3.3.126-1.068-.708-1.441-1.771.729-2.561a3.245,3.245,0,0,1,3.49.451C-686.66,412.393-687.055,413.322-688.308,413.706Z" transform="translate(719.159 -409.983)" fill="#d3d3d3"/>
            <path id="Trazado_106932" data-name="Trazado 106932" d="M-718.6,425.158s.321.86,4.269-.211,21.66-4.83,21.66-4.83l.141-1.093Z" transform="translate(718.604 -408.632)" fill="#9b9b9b"/>
            <path id="Trazado_106933" data-name="Trazado 106933" d="M-677.77,415.438c-2.475-1.967-5.423-1.921-10.415-.243-2.476.833-3.169,2.436-4.924,2.829-2.991.671-24.344,4.547-25.5,7.893l26.014-5.78s1.509-1.978,2.194-1.92c1.267.107,5.761,3.876,9.314,2.559S-674.815,417.786-677.77,415.438Zm-.647,1.872c-.286.73-1.679,2.045-4.428,2.169a6.375,6.375,0,0,1-5.009-1.751c-1.312-.978,2.161-2.256,3.535-2.408C-679.556,414.8-678.132,416.58-678.417,417.31Z" transform="translate(718.604 -409.39)" fill="#bfbfbf"/>
            <path id="Trazado_106934" data-name="Trazado 106934" d="M-696.565,418.418c-.293-.315-.671-.151-.932-.031-.187.084-.425.617.714.562C-696.56,418.938-696.3,418.7-696.565,418.418Z" transform="translate(721.734 -408.75)" fill="#9b9b9b"/>
          </g>
          <g id="Grupo_56326" data-name="Grupo 56326" transform="translate(-733.369 412.612)">
            <path id="Trazado_106935" data-name="Trazado 106935" d="M-709.382,408.513c5.3,4.732,2.163,11.021-7.011,14.046S-737.3,424.2-742.6,419.471s-2.162-11.021,7.011-14.046S-714.684,403.782-709.382,408.513Z" transform="translate(745.183 -403.822)" fill="#fff"/>
            <ellipse id="Elipse_4495" data-name="Elipse 4495" cx="15.088" cy="7.983" rx="15.088" ry="7.983" transform="translate(4.245 2.896) rotate(-1.896)" fill="#e2e2e2" opacity="0.5"/>
          </g>
          <g id="Grupo_56329" data-name="Grupo 56329" transform="translate(-719.789 411.354)">
            <path id="Trazado_106936" data-name="Trazado 106936" d="M-730.8,407.445a5.211,5.211,0,0,0-1.664.81,2.384,2.384,0,0,0-.9,1.575c.088.082.23.068.3-.132a2.071,2.071,0,0,1,.908-1.346,4.335,4.335,0,0,1,1.546-.652Z" transform="translate(733.368 -402.022)" fill="#a8af1b"/>
            <g id="Grupo_56327" data-name="Grupo 56327" transform="translate(1.921 5.069)">
              <path id="Trazado_106937" data-name="Trazado 106937" d="M-726.909,408.991c0,.745-1.071,1.348-2.394,1.348s-2.394-.6-2.394-1.348,1.072-1.347,2.394-1.347S-726.909,408.247-726.909,408.991Z" transform="translate(731.697 -407.061)" fill="#7b4121"/>
              <rect id="Rectángulo_5628" data-name="Rectángulo 5628" width="4.789" height="0.582" transform="translate(0 1.348)" fill="#7b4121"/>
              <path id="Trazado_106938" data-name="Trazado 106938" d="M-726.909,408.485c0,.744-1.071,1.347-2.394,1.347s-2.394-.6-2.394-1.347,1.072-1.348,2.394-1.348S-726.909,407.74-726.909,408.485Z" transform="translate(731.697 -407.137)" fill="#bc724d"/>
              <ellipse id="Elipse_4496" data-name="Elipse 4496" cx="0.799" cy="0.45" rx="0.799" ry="0.45" transform="translate(1.595 0.811)" fill="#fe733e"/>
            </g>
            <path id="Trazado_106939" data-name="Trazado 106939" d="M-727.224,408.231a.686.686,0,0,0,.191-.372.353.353,0,0,0-.264-.355.637.637,0,0,0,.116-.271.447.447,0,0,0-.079-.324.414.414,0,0,0,.12-.189.358.358,0,0,0-.1-.346.536.536,0,0,0,.156-.315.18.18,0,0,0-.161-.2.357.357,0,0,0,.123-.264.251.251,0,0,0-.175-.225.766.766,0,0,0,.109-.553c-.022-.076-.064-.136-.124-.139v-.529h-4v.892a.359.359,0,0,0-.007.54.338.338,0,0,0-.2.383.334.334,0,0,0,.149.2.349.349,0,0,0-.251.387c.02.128.114.185.236.225a.362.362,0,0,0-.245.476.4.4,0,0,0,.269.237.327.327,0,0,0-.125.321.347.347,0,0,0,.175.244v.017a.416.416,0,0,0-.168.24.2.2,0,0,0,.079.223c-.247.163-.089.534.155.594a2.135,2.135,0,0,0,1.932.84c1.084,0,1.966-.487,2-1.093.12-.032.153-.121.215-.252A.351.351,0,0,0-727.224,408.231Z" transform="translate(733.625 -402.514)" fill="#bac927"/>
            <path id="Trazado_106940" data-name="Trazado 106940" d="M-727.2,405.833c.108-.041.116-.2.006-.159a7.218,7.218,0,0,1-1.387.372,2.616,2.616,0,0,0,1.124-1.009c.021-.036-.031-.08-.06-.046a4.076,4.076,0,0,1-1.715,1.117,2.8,2.8,0,0,1-2.162-.734c-.028-.028-.1.028-.053.1a2.019,2.019,0,0,0,1.643.81,5.75,5.75,0,0,1-1.734.27c-.1,0-.1.149,0,.156.061,0,.125,0,.189.006a5.456,5.456,0,0,0,3.909.217,4.412,4.412,0,0,1-1.616.857,2.858,2.858,0,0,1-2.259-.439c-.07-.049-.129-.051-.054.036a2.829,2.829,0,0,0,2.077.578,3.315,3.315,0,0,0,2.025-1.115l.037-.01c.085-.028.092-.108.036-.125.108-.091.093-.208.054-.169-.022.022-.182.167-.2.189a9.855,9.855,0,0,1-2.12.29,5.013,5.013,0,0,1-1.612-.315,6.945,6.945,0,0,0,1.951-.43A7.145,7.145,0,0,0-727.2,405.833Z" transform="translate(733.63 -402.39)" fill="#a8af1b"/>
            <path id="Trazado_106941" data-name="Trazado 106941" d="M-727.28,407.784c-.209.521-1.086.864-1.583.953a2.391,2.391,0,0,1-2.387-.932c1.347,1.146,2.848.456,3.987-.7.052-.052.034-.168-.015-.113-1.067,1.182-2.937,1.677-4.031.62-.049-.048-.164-.04-.1.091a2.334,2.334,0,0,0,2.12,1.213,2.214,2.214,0,0,0,2.08-1.115C-727.191,407.76-727.263,407.741-727.28,407.784Z" transform="translate(733.658 -402.091)" fill="#a8af1b"/>
            <g id="Grupo_56328" data-name="Grupo 56328" transform="translate(1.921)">
              <path id="Trazado_106942" data-name="Trazado 106942" d="M-726.909,404.581c0,.745-1.071,1.348-2.394,1.348s-2.394-.6-2.394-1.348,1.072-1.347,2.394-1.347S-726.909,403.837-726.909,404.581Z" transform="translate(731.697 -402.651)" fill="#7b4121"/>
              <rect id="Rectángulo_5629" data-name="Rectángulo 5629" width="4.789" height="0.582" transform="translate(0 1.348)" fill="#7b4121"/>
              <path id="Trazado_106943" data-name="Trazado 106943" d="M-726.909,404.075c0,.744-1.071,1.347-2.394,1.347s-2.394-.6-2.394-1.347,1.072-1.348,2.394-1.348S-726.909,403.33-726.909,404.075Z" transform="translate(731.697 -402.727)" fill="#bc724d"/>
              <ellipse id="Elipse_4497" data-name="Elipse 4497" cx="0.799" cy="0.45" rx="0.799" ry="0.45" transform="translate(1.595 0.81)" fill="#7b4121"/>
            </g>
          </g>
          <g id="Grupo_56332" data-name="Grupo 56332" transform="translate(-724.129 417.129)">
            <path id="Trazado_106944" data-name="Trazado 106944" d="M-726.858,417.008a9.136,9.136,0,0,1-3.682-.3c-.512-.2-1.422-.548-.974-1.339a2.268,2.268,0,0,1,.724-.54c.42-.261.868-.471,1.283-.737.54-.344,1.372-.925,1.224-1.677-.115-.576-.767-1.062-1.236-1.343-1.706-1.02-4.264-.92-6.117-.408-.756.209-2.457,1.271-.823,2.152a.046.046,0,0,0,.046-.08c-1.483-1.06.63-1.88,1.29-2.014a10.856,10.856,0,0,1,3.482-.1,4.137,4.137,0,0,1,2.839,1.328c.97,1.3-1.171,2.131-1.983,2.616s-1.69,1.18-.6,1.955a6.241,6.241,0,0,0,4.544.609C-726.769,417.121-726.787,417-726.858,417.008Z" transform="translate(737.144 -407.372)" fill="#e3960e"/>
            <g id="Grupo_56330" data-name="Grupo 56330" transform="translate(0.627 3.605)">
              <path id="Trazado_106945" data-name="Trazado 106945" d="M-731.81,412.741c0,.744-1.071,1.347-2.394,1.347s-2.394-.6-2.394-1.347,1.073-1.348,2.394-1.348S-731.81,412-731.81,412.741Z" transform="translate(736.598 -410.811)" fill="#7b4121"/>
              <rect id="Rectángulo_5630" data-name="Rectángulo 5630" width="4.789" height="0.582" transform="translate(0 1.347)" fill="#7b4121"/>
              <path id="Trazado_106946" data-name="Trazado 106946" d="M-731.81,412.234c0,.745-1.071,1.348-2.394,1.348s-2.394-.6-2.394-1.348,1.073-1.347,2.394-1.347S-731.81,411.49-731.81,412.234Z" transform="translate(736.598 -410.887)" fill="#bc724d"/>
              <path id="Trazado_106947" data-name="Trazado 106947" d="M-733.611,412.041c0,.248-.359.449-.8.449s-.8-.2-.8-.449.358-.449.8-.449S-733.611,411.793-733.611,412.041Z" transform="translate(736.806 -410.782)" fill="#fe733e"/>
            </g>
            <path id="Trazado_106948" data-name="Trazado 106948" d="M-732.2,411.208a.655.655,0,0,0,.116-.272.448.448,0,0,0-.079-.324.418.418,0,0,0,.12-.189.359.359,0,0,0-.1-.346.534.534,0,0,0,.156-.314.181.181,0,0,0-.161-.2.361.361,0,0,0,.123-.264.252.252,0,0,0-.175-.225.859.859,0,0,0,.12-.477,4.971,4.971,0,0,0-4.078.1l-.054.031v.021a.359.359,0,0,0-.007.54.336.336,0,0,0-.2.382.323.323,0,0,0,.149.2.35.35,0,0,0-.251.387c.02.129.114.186.236.225a.364.364,0,0,0-.246.476.4.4,0,0,0,.27.237.329.329,0,0,0-.125.321.349.349,0,0,0,.175.245v.016a.42.42,0,0,0-.168.24.2.2,0,0,0,.079.224c-.247.162-.089.534.155.593a2.135,2.135,0,0,0,1.932.84c1.084,0,1.964-.486,2-1.092.12-.033.153-.121.215-.253a.349.349,0,0,0-.125-.392.693.693,0,0,0,.191-.374A.351.351,0,0,0-732.2,411.208Z" transform="translate(737.233 -407.683)" fill="#fdd110"/>
            <path id="Trazado_106949" data-name="Trazado 106949" d="M-732.148,410.239a3.973,3.973,0,0,1-1.834,1.082,2.858,2.858,0,0,1-2.259-.439c-.07-.049-.128-.052-.054.034a2.829,2.829,0,0,0,2.077.579,4.379,4.379,0,0,0,2.04-1.074C-732.07,410.332-732.1,410.191-732.148,410.239Z" transform="translate(737.266 -407.381)" fill="#e3960e"/>
            <path id="Trazado_106950" data-name="Trazado 106950" d="M-732.181,411.533c-.209.522-1.087.864-1.583.954a2.4,2.4,0,0,1-2.387-.932c1.347,1.146,2.848.455,3.987-.7.052-.052.034-.168-.015-.113-1.067,1.183-2.937,1.677-4.031.621-.049-.049-.164-.041-.1.09a2.33,2.33,0,0,0,2.12,1.213,2.214,2.214,0,0,0,2.08-1.115C-732.092,411.509-732.164,411.49-732.181,411.533Z" transform="translate(737.266 -407.306)" fill="#e3960e"/>
            <g id="Grupo_56331" data-name="Grupo 56331" transform="translate(0.627)">
              <path id="Trazado_106951" data-name="Trazado 106951" d="M-731.81,409.605c0,.745-1.071,1.348-2.394,1.348s-2.394-.6-2.394-1.348,1.073-1.347,2.394-1.347S-731.81,408.861-731.81,409.605Z" transform="translate(736.598 -407.675)" fill="#7b4121"/>
              <rect id="Rectángulo_5631" data-name="Rectángulo 5631" width="4.789" height="0.582" transform="translate(0 1.348)" fill="#7b4121"/>
              <path id="Trazado_106952" data-name="Trazado 106952" d="M-731.81,409.1c0,.744-1.071,1.347-2.394,1.347s-2.394-.6-2.394-1.347,1.073-1.348,2.394-1.348S-731.81,408.354-731.81,409.1Z" transform="translate(736.598 -407.751)" fill="#bc724d"/>
              <path id="Trazado_106953" data-name="Trazado 106953" d="M-733.611,408.907c0,.248-.359.449-.8.449s-.8-.2-.8-.449.358-.451.8-.451S-733.611,408.657-733.611,408.907Z" transform="translate(736.806 -407.646)" fill="#7b4121"/>
            </g>
          </g>
          <g id="Grupo_56336" data-name="Grupo 56336" transform="translate(-716.693 399.246)">
            <path id="Trazado_106954" data-name="Trazado 106954" d="M-720.016,402.43c-1.584-1.215-3.628-1.178-5.506-.989a6.7,6.7,0,0,1-3.462-.316c-.831-.362-1.98-1.054-1.226-2.163a2.629,2.629,0,0,1,1.864-.878c.008,0,.006-.014,0-.014a2.263,2.263,0,0,0-2.277,1.291c-.3.976.82,1.615,1.553,1.941a7.5,7.5,0,0,0,4.038.276,8.753,8.753,0,0,1,4.955.959A.062.062,0,0,0-720.016,402.43Z" transform="translate(730.675 -391.315)" fill="#2a78b7"/>
            <g id="Grupo_56335" data-name="Grupo 56335" transform="translate(1.346)">
              <g id="Grupo_56333" data-name="Grupo 56333" transform="translate(0 6.405)">
                <ellipse id="Elipse_4498" data-name="Elipse 4498" cx="2.394" cy="1.348" rx="2.394" ry="1.348" transform="translate(0 0.582)" fill="#7b4121"/>
                <rect id="Rectángulo_5632" data-name="Rectángulo 5632" width="4.789" height="0.582" transform="translate(0 1.348)" fill="#7b4121"/>
                <path id="Trazado_106955" data-name="Trazado 106955" d="M-724.716,399.112c0,.745-1.071,1.348-2.394,1.348s-2.394-.6-2.394-1.348,1.072-1.347,2.394-1.347S-724.716,398.368-724.716,399.112Z" transform="translate(729.504 -397.765)" fill="#bc724d"/>
                <ellipse id="Elipse_4499" data-name="Elipse 4499" cx="0.799" cy="0.45" rx="0.799" ry="0.45" transform="translate(1.595 0.81)" fill="#fe733e"/>
              </g>
              <path id="Trazado_106956" data-name="Trazado 106956" d="M-725.1,398.22a.636.636,0,0,0,.116-.272.45.45,0,0,0-.079-.324.418.418,0,0,0,.12-.189.36.36,0,0,0-.1-.346.53.53,0,0,0,.156-.314.182.182,0,0,0-.161-.2.353.353,0,0,0,.123-.264.253.253,0,0,0-.175-.225.765.765,0,0,0,.109-.553.175.175,0,0,0-.107-.133c.157-.06.178-.247.061-.411a.475.475,0,0,0,.085-.731.153.153,0,0,0-.261,0c-.246.5-.915.451-1.4.5a3.686,3.686,0,0,1-1.971-.22.207.207,0,0,0-.2.01v-.01c-.031-.176-.135-.341-.329-.336a.169.169,0,0,0-.168.169.533.533,0,0,0,.048.2.382.382,0,0,0-.176.289.376.376,0,0,0,.107.294.324.324,0,0,0-.09.224.355.355,0,0,0,.285.317v.067a.359.359,0,0,0-.007.54.337.337,0,0,0-.2.383.329.329,0,0,0,.149.2.35.35,0,0,0-.251.387c.02.129.114.186.236.226a.362.362,0,0,0-.246.475.4.4,0,0,0,.27.237.33.33,0,0,0-.125.322.35.35,0,0,0,.175.244v.017a.413.413,0,0,0-.168.239.2.2,0,0,0,.079.224c-.247.162-.089.534.155.593a2.133,2.133,0,0,0,1.932.84c1.084,0,1.964-.486,2-1.092.12-.033.153-.121.215-.252a.351.351,0,0,0-.125-.393.69.69,0,0,0,.191-.372A.352.352,0,0,0-725.1,398.22Z" transform="translate(729.512 -391.895)" fill="#389ec6"/>
              <path id="Trazado_106957" data-name="Trazado 106957" d="M-724.945,397.2c-.022.023-.182.167-.2.189a9.857,9.857,0,0,1-2.12.291,5.077,5.077,0,0,1-1.611-.315,6.984,6.984,0,0,0,1.951-.43,7.146,7.146,0,0,0,1.926-.451c.108-.043.116-.2.006-.159a7.139,7.139,0,0,1-1.387.371,2.627,2.627,0,0,0,1.107-.984c.093-.008.185-.015.277-.025.122-.013.123-.2,0-.191-1.3.139-2.894.493-4.146-.034a.037.037,0,0,0-.037.063,2.959,2.959,0,0,0,1.709.37,14.778,14.778,0,0,0,2.071-.171,4.151,4.151,0,0,1-1.632,1.036,2.8,2.8,0,0,1-2.162-.736c-.028-.028-.1.029-.053.1a2.022,2.022,0,0,0,1.643.81,5.748,5.748,0,0,1-1.734.27c-.1,0-.1.149,0,.156.061,0,.125,0,.188,0a5.45,5.45,0,0,0,3.909.217,4.4,4.4,0,0,1-1.616.859,2.858,2.858,0,0,1-2.259-.439c-.07-.049-.129-.052-.054.036a2.829,2.829,0,0,0,2.077.578,3.315,3.315,0,0,0,2.025-1.115l.037-.012c.085-.026.092-.107.036-.125C-724.891,397.279-724.906,397.16-724.945,397.2Z" transform="translate(729.517 -391.705)" fill="#2a78b7"/>
              <path id="Trazado_106958" data-name="Trazado 106958" d="M-725.087,398.413c-.209.521-1.086.863-1.583.953a2.4,2.4,0,0,1-2.387-.932c1.347,1.146,2.848.455,3.987-.7.052-.053.034-.168-.015-.114-1.067,1.183-2.937,1.677-4.031.621-.051-.048-.164-.041-.1.091a2.334,2.334,0,0,0,2.12,1.213,2.218,2.218,0,0,0,2.08-1.115C-725,398.387-725.07,398.369-725.087,398.413Z" transform="translate(729.544 -391.384)" fill="#2a78b7"/>
              <path id="Trazado_106959" data-name="Trazado 106959" d="M-725.109,395.234c-1.194.356-3.308.4-4.139-.723a.021.021,0,1,0-.037.022c.649,1.322,3.07,1.231,4.222.864C-724.959,395.364-725,395.2-725.109,395.234Z" transform="translate(729.536 -391.848)" fill="#2a78b7"/>
              <g id="Grupo_56334" data-name="Grupo 56334">
                <path id="Trazado_106960" data-name="Trazado 106960" d="M-724.716,394.047c0,.744-1.071,1.347-2.394,1.347s-2.394-.6-2.394-1.347,1.072-1.348,2.394-1.348S-724.716,393.3-724.716,394.047Z" transform="translate(729.504 -392.117)" fill="#7b4121"/>
                <rect id="Rectángulo_5633" data-name="Rectángulo 5633" width="4.789" height="0.582" transform="translate(0 1.348)" fill="#7b4121"/>
                <ellipse id="Elipse_4500" data-name="Elipse 4500" cx="2.394" cy="1.348" rx="2.394" ry="1.348" fill="#bc724d"/>
                <path id="Trazado_106961" data-name="Trazado 106961" d="M-726.518,393.347c0,.248-.357.451-.8.451s-.8-.2-.8-.451.358-.449.8-.449S-726.518,393.1-726.518,393.347Z" transform="translate(729.711 -392.087)" fill="#7b4121"/>
              </g>
            </g>
          </g>
          <g id="Grupo_56337" data-name="Grupo 56337" transform="translate(-710.212 376.264)">
            <path id="Trazado_106962" data-name="Trazado 106962" d="M-722.939,384.293v16.466l18.7,10.8V395.09Z" transform="translate(725.35 -370.392)" fill="#fe733e"/>
            <path id="Trazado_106963" data-name="Trazado 106963" d="M-725.036,382.774v3.8l21.113,12.311v-3.912Z" transform="translate(725.036 -370.619)" fill="#fff"/>
            <path id="Trazado_106964" data-name="Trazado 106964" d="M-687.945,384.282l-18.723,10.81v16.466l18.723-10.81Z" transform="translate(727.781 -370.393)" fill="#f25e30"/>
            <path id="Trazado_106965" data-name="Trazado 106965" d="M-685.554,382.816v3.757l-21.114,12.311v-3.912Z" transform="translate(727.781 -370.612)" fill="#d1d1d1"/>
            <path id="Trazado_106966" data-name="Trazado 106966" d="M-682.8,384.4l-21.142-12.2-21.1,12.155,21.113,12.2Z" transform="translate(725.036 -372.199)" fill="#e2e2e2"/>
            <path id="Trazado_106967" data-name="Trazado 106967" d="M-710.38,400.21c0,2.13-2.168,2.606-4.843,1.062s-4.842-4.523-4.842-6.654,2.168-2.606,4.842-1.062S-710.38,398.079-710.38,400.21Z" transform="translate(725.779 -369.143)" fill="#fff"/>
            <path id="Trazado_106968" data-name="Trazado 106968" d="M-694.869,395.866l-4.386,2.532c-.576.332-1.046-.023-1.046-.791h0a2.512,2.512,0,0,1,1.046-2l4.386-2.532c.575-.332,1.045.023,1.045.791h0A2.514,2.514,0,0,1-694.869,395.866Z" transform="translate(728.732 -369.098)" fill="#e0471e"/>
          </g>
          <g id="Grupo_56354" data-name="Grupo 56354" transform="translate(-714.231 414.176)">
            <g id="Grupo_56338" data-name="Grupo 56338" transform="translate(2.996 2.402)">
              <path id="Trazado_106969" data-name="Trazado 106969" d="M-725.406,407.562c.579.6,2.677,3.229,2.677,3.229l-.154.12s-2.471-2.755-2.778-3.066C-726.095,407.407-725.986,406.964-725.406,407.562Zm-.263.143c.066.089.23.255.23.255l.139-.1-.088-.108c-.089-.108-.261-.311-.338-.271S-725.735,407.617-725.67,407.7Z" transform="translate(725.926 -407.272)" fill="#d1d1d1"/>
            </g>
            <g id="Grupo_56339" data-name="Grupo 56339" transform="translate(4.815)">
              <path id="Trazado_106970" data-name="Trazado 106970" d="M-723.91,405.619c.316.77,1.286,3.992,1.286,3.992l-.187.054s-1.271-3.477-1.44-3.878C-724.491,405.219-724.226,404.849-723.91,405.619Zm-.3.036c.028.106.118.322.118.322l.168-.046-.041-.133c-.043-.133-.128-.386-.214-.377S-724.235,405.548-724.206,405.654Z" transform="translate(724.344 -405.182)" fill="#d1d1d1"/>
            </g>
            <g id="Grupo_56340" data-name="Grupo 56340" transform="translate(12.105 2.285)">
              <path id="Trazado_106971" data-name="Trazado 106971" d="M-718,409.771s1.7-1.679,2.183-2.133c.363-.345.56-.363.174.034s-2.3,2.178-2.3,2.178Z" transform="translate(718.001 -407.138)" fill="#d1d1d1"/>
              <path id="Trazado_106972" data-name="Trazado 106972" d="M-715.86,407.876a.354.354,0,0,1-.313-.391.354.354,0,0,1,.39-.314.355.355,0,0,1,.314.391A.356.356,0,0,1-715.86,407.876Z" transform="translate(718.274 -407.169)" fill="#389ec6"/>
            </g>
            <g id="Grupo_56341" data-name="Grupo 56341" transform="translate(8.421 1.581)">
              <path id="Trazado_106973" data-name="Trazado 106973" d="M-721.191,410.216s.169-2.386.23-3.043c.046-.5.18-.644.153-.089s-.286,3.151-.286,3.151Z" transform="translate(721.208 -406.532)" fill="#d1d1d1"/>
              <path id="Trazado_106974" data-name="Trazado 106974" d="M-720.649,407.2a.355.355,0,0,1-.493-.087.354.354,0,0,1,.086-.493.354.354,0,0,1,.493.087A.354.354,0,0,1-720.649,407.2Z" transform="translate(721.206 -406.557)" fill="#389ec6"/>
            </g>
            <g id="Grupo_56343" data-name="Grupo 56343" transform="translate(0 3.295)">
              <g id="Grupo_56342" data-name="Grupo 56342" transform="translate(2.135)">
                <path id="Trazado_106975" data-name="Trazado 106975" d="M-716.322,409.216a1.12,1.12,0,0,1-.079.487.849.849,0,0,1-1.074.522,1.15,1.15,0,0,1-.584-1.487c-.512.139-1.537.277-1.67-.283a.36.36,0,0,1,.169-.407,4.716,4.716,0,0,0-1.059.115,6.39,6.39,0,0,0-2.167,1.036,1.068,1.068,0,0,1,.2.172,1.46,1.46,0,0,1,.3,1.04,1.164,1.164,0,0,1,1.752.214c.47.676-.114,1.077-.746,1.2a1.314,1.314,0,0,1,.011,1.968.978.978,0,0,1-1.16.084,1.243,1.243,0,0,1-.433-1.125c-.515.364-1.266.571-1.64-.086a.753.753,0,0,1,.009-.757c.2-.307.585-.339.935-.4a2.6,2.6,0,0,1-.758-1.041,13.968,13.968,0,0,0-1.844,2.152,3.409,3.409,0,0,0-.39.748c-.429,1.186.191,2.208,2.641,2.487,2.955.338,7.16.2,8.9-2.157C-714.006,412.339-714.774,410.431-716.322,409.216Z" transform="translate(726.675 -408.048)" fill="#fe733e"/>
                <path id="Trazado_106976" data-name="Trazado 106976" d="M-723.829,411.359c-.349.056-.732.089-.935.4a.753.753,0,0,0-.009.757c.375.657,1.125.451,1.64.086a1.243,1.243,0,0,0,.433,1.125.978.978,0,0,0,1.16-.084,1.314,1.314,0,0,0-.011-1.968c.632-.12,1.216-.521.746-1.2a1.164,1.164,0,0,0-1.752-.214,1.46,1.46,0,0,0-.3-1.04,1.068,1.068,0,0,0-.2-.172,12.449,12.449,0,0,0-1.531,1.269A2.6,2.6,0,0,0-723.829,411.359Z" transform="translate(726.945 -407.898)" fill="#fdd110"/>
                <path id="Trazado_106977" data-name="Trazado 106977" d="M-720.63,408.455c.133.56,1.159.422,1.67.283a1.15,1.15,0,0,0,.584,1.487.849.849,0,0,0,1.074-.522,1.12,1.12,0,0,0,.079-.487,5.345,5.345,0,0,0-3.238-1.168A.36.36,0,0,0-720.63,408.455Z" transform="translate(727.577 -408.048)" fill="#fdd110"/>
                <path id="Trazado_106978" data-name="Trazado 106978" d="M-716.5,411.021a1.17,1.17,0,0,0-1.976-.124c-.271-.5-.8-1.107-1.317-.559-.377.4-.08.871.3,1.145a.915.915,0,0,0-.966.846.885.885,0,0,0,.393.732c.31.192.6.064.913-.024a.98.98,0,0,0,.694,1.483c.871.1,1.924-1.009,1.332-1.839-.009-.013-.142-.229-.2-.2.207-.106.549-.176.721-.39A1,1,0,0,0-716.5,411.021Z" transform="translate(727.604 -407.738)" fill="#fdd110"/>
                <path id="Trazado_106979" data-name="Trazado 106979" d="M-720.436,413.439c-.154,0-.5.128-.276.51a.34.34,0,0,0,.59-.008A.344.344,0,0,0-720.436,413.439Z" transform="translate(727.556 -407.242)" fill="#fdd110"/>
                <path id="Trazado_106980" data-name="Trazado 106980" d="M-723.383,413.184c-.138-.069-.5-.12-.483.322a.339.339,0,0,0,.523.269A.344.344,0,0,0-723.383,413.184Z" transform="translate(727.095 -407.287)" fill="#fdd110"/>
                <path id="Trazado_106981" data-name="Trazado 106981" d="M-721.125,409.069a.313.313,0,0,0-.149.561.338.338,0,0,0,.57-.146A.343.343,0,0,0-721.125,409.069Z" transform="translate(727.463 -407.897)" fill="#fdd110"/>
              </g>
              <path id="Trazado_106982" data-name="Trazado 106982" d="M-724.664,412.354a.478.478,0,0,0-.513.11.446.446,0,0,0-.075.532.456.456,0,0,0,.717.053A.446.446,0,0,0-724.664,412.354Z" transform="translate(729.015 -407.41)" fill="#7b4121"/>
              <path id="Trazado_106983" data-name="Trazado 106983" d="M-725.868,411.631c-.157-.055-.356-.086-.451.057-.077.116-.194.417.031.541A5.967,5.967,0,0,1-725.868,411.631Z" transform="translate(728.849 -407.52)" fill="#7b4121"/>
              <path id="Trazado_106984" data-name="Trazado 106984" d="M-722.7,410.687a.582.582,0,0,0-.707.563c0,.4.608.811.967.471A.632.632,0,0,0-722.7,410.687Z" transform="translate(729.299 -407.655)" fill="#fe733e"/>
              <path id="Trazado_106985" data-name="Trazado 106985" d="M-718.138,411.617a.7.7,0,0,0-.609-.269.443.443,0,0,0-.4.446.6.6,0,0,0,1,.408A.476.476,0,0,0-718.138,411.617Z" transform="translate(729.935 -407.555)" fill="#fe733e"/>
              <path id="Trazado_106986" data-name="Trazado 106986" d="M-726.086,412.146a6.989,6.989,0,0,1-1.3,1.39c-.5.375-.517.674-.045.9a23.43,23.43,0,0,0,2.738.643Z" transform="translate(728.646 -407.436)" fill="#fe733e"/>
              <path id="Trazado_106987" data-name="Trazado 106987" d="M-726.98,413.738a.928.928,0,0,0-.707-.417c-.124-.016-.687,0-.809.3-.25.614.847.845,1.24.686A.423.423,0,0,0-726.98,413.738Z" transform="translate(728.533 -407.261)" fill="#7b4121"/>
            </g>
            <g id="Grupo_56344" data-name="Grupo 56344" transform="translate(9.94 0.921)">
              <path id="Trazado_106988" data-name="Trazado 106988" d="M-718.083,406.374c-.415.721-1.8,3.787-1.8,3.787l.179.078s1.718-3.278,1.939-3.654C-717.454,406.054-717.668,405.652-718.083,406.374Zm.29.074c-.042.1-.16.3-.16.3l-.161-.067.059-.126c.06-.126.177-.365.262-.346S-717.751,406.346-717.793,406.447Z" transform="translate(719.885 -405.983)" fill="#d1d1d1"/>
            </g>
            <g id="Grupo_56345" data-name="Grupo 56345" transform="translate(12.004 3.641)">
              <path id="Trazado_106989" data-name="Trazado 106989" d="M-714.411,408.472c-.759.343-3.678,2.016-3.678,2.016l.1.168s3.313-1.652,3.713-1.826C-713.714,408.582-713.652,408.131-714.411,408.472Zm.191.23c-.093.057-.307.153-.307.153l-.091-.148.122-.068c.122-.069.357-.193.414-.128S-714.127,408.646-714.22,408.7Z" transform="translate(718.089 -408.349)" fill="#d1d1d1"/>
            </g>
            <g id="Grupo_56346" data-name="Grupo 56346" transform="translate(1.592 4.053)">
              <path id="Trazado_106990" data-name="Trazado 106990" d="M-724.29,411.217s-1.856-1.508-2.36-1.935c-.382-.324-.423-.518.015-.177s2.416,2.044,2.416,2.044Z" transform="translate(727.178 -408.675)" fill="#d1d1d1"/>
              <path id="Trazado_106991" data-name="Trazado 106991" d="M-726.44,409.062a.354.354,0,0,1-.354.354.354.354,0,0,1-.354-.354.354.354,0,0,1,.354-.354A.354.354,0,0,1-726.44,409.062Z" transform="translate(727.148 -408.708)" fill="#bac927"/>
            </g>
            <g id="Grupo_56347" data-name="Grupo 56347" transform="translate(9.48 1.182)">
              <path id="Trazado_106992" data-name="Trazado 106992" d="M-720.285,409.771s.549-2.328.714-2.967c.125-.485.282-.606.166-.063s-.787,3.064-.787,3.064Z" transform="translate(720.285 -406.184)" fill="#d1d1d1"/>
              <path id="Trazado_106993" data-name="Trazado 106993" d="M-719.332,406.882a.354.354,0,0,1-.472-.164.354.354,0,0,1,.164-.472.354.354,0,0,1,.472.164A.354.354,0,0,1-719.332,406.882Z" transform="translate(720.352 -406.21)" fill="#bac927"/>
            </g>
            <g id="Grupo_56348" data-name="Grupo 56348" transform="translate(6.546 0.985)">
              <path id="Trazado_106994" data-name="Trazado 106994" d="M-721.991,409.672s-.449-2.349-.56-3c-.084-.494.009-.668.125-.125s.533,3.118.533,3.118Z" transform="translate(722.876 -406.012)" fill="#d1d1d1"/>
              <path id="Trazado_106995" data-name="Trazado 106995" d="M-722.213,406.62a.355.355,0,0,1-.5.044.354.354,0,0,1-.042-.5.355.355,0,0,1,.5-.044A.354.354,0,0,1-722.213,406.62Z" transform="translate(722.838 -406.038)" fill="#fdd110"/>
            </g>
            <g id="Grupo_56349" data-name="Grupo 56349" transform="translate(4.719 2.725)">
              <path id="Trazado_106996" data-name="Trazado 106996" d="M-722.644,410.888s-1.109-2.118-1.4-2.709c-.224-.448-.185-.643.084-.156s1.413,2.831,1.413,2.831Z" transform="translate(724.462 -407.524)" fill="#d1d1d1"/>
              <path id="Trazado_106997" data-name="Trazado 106997" d="M-723.748,408.046a.354.354,0,0,1-.464.185.355.355,0,0,1-.186-.466.355.355,0,0,1,.466-.185A.354.354,0,0,1-723.748,408.046Z" transform="translate(724.427 -407.552)" fill="#fe733e"/>
            </g>
            <g id="Grupo_56350" data-name="Grupo 56350" transform="translate(4.977 5.468)">
              <path id="Trazado_106998" data-name="Trazado 106998" d="M-722.62,411.707s-.678-.682-1.121-1.171c-.336-.371-.351-.569.039-.172s1.162,1.285,1.162,1.285Z" transform="translate(724.234 -409.908)" fill="#fff"/>
              <path id="Trazado_106999" data-name="Trazado 106999" d="M-723.5,410.34a.352.352,0,0,1-.4.3.353.353,0,0,1-.3-.4.354.354,0,0,1,.4-.3A.353.353,0,0,1-723.5,410.34Z" transform="translate(724.203 -409.939)" fill="#389ec6"/>
            </g>
            <g id="Grupo_56351" data-name="Grupo 56351" transform="translate(10.61 4.25)">
              <path id="Trazado_107000" data-name="Trazado 107000" d="M-719.212,411.107s.579-1.038.915-1.607c.254-.431.229-.628-.072-.161s-.932,1.728-.932,1.728Z" transform="translate(719.302 -408.85)" fill="#fff"/>
              <path id="Trazado_107001" data-name="Trazado 107001" d="M-718.645,409.349a.353.353,0,0,0,.451.217.353.353,0,0,0,.217-.451.354.354,0,0,0-.451-.217A.353.353,0,0,0-718.645,409.349Z" transform="translate(719.397 -408.879)" fill="#bac927"/>
            </g>
            <g id="Grupo_56352" data-name="Grupo 56352" transform="translate(7.356 5.7)">
              <path id="Trazado_107002" data-name="Trazado 107002" d="M-721.712,410.614c-.068-.249-.185-.19-.134,0s.4,1.269.4,1.269h.076S-721.644,410.864-721.712,410.614Z" transform="translate(722.174 -410.095)" fill="#fff"/>
              <path id="Trazado_107003" data-name="Trazado 107003" d="M-722.113,410.611a.354.354,0,0,0,.451.218.354.354,0,0,0,.217-.451.354.354,0,0,0-.451-.218A.354.354,0,0,0-722.113,410.611Z" transform="translate(722.133 -410.141)" fill="#fe733e"/>
            </g>
            <g id="Grupo_56353" data-name="Grupo 56353" transform="translate(8.982 5.283)">
              <path id="Trazado_107004" data-name="Trazado 107004" d="M-720.38,410.25c.067-.249.185-.189.134,0s-.4,1.269-.4,1.269h-.076S-720.448,410.5-720.38,410.25Z" transform="translate(720.718 -409.732)" fill="#fff"/>
              <path id="Trazado_107005" data-name="Trazado 107005" d="M-719.95,410.248a.354.354,0,0,1-.451.217.353.353,0,0,1-.218-.451.354.354,0,0,1,.451-.217A.353.353,0,0,1-719.95,410.248Z" transform="translate(720.73 -409.778)" fill="#389ec6"/>
            </g>
          </g>
          <g id="Grupo_56355" data-name="Grupo 56355" transform="translate(-715.426 426.923)">
            <path id="Trazado_107006" data-name="Trazado 107006" d="M-729.572,418.64s5.64-1.829,6.859-2.247c.949-.326.977.08.19.36C-725.159,417.688-729.572,418.64-729.572,418.64Z" transform="translate(729.572 -416.272)" fill="#d1d1d1"/>
            <path id="Trazado_107007" data-name="Trazado 107007" d="M-723.605,416.505l.076.156s.362-.089.455-.226S-723.242,416.379-723.605,416.505Z" transform="translate(730.464 -416.258)" fill="#e2e2e2"/>
          </g>
        </g>
      </g>
    </g>
  </g>
</svg>
