<svg xmlns="http://www.w3.org/2000/svg" xmlns:xlink="http://www.w3.org/1999/xlink" width="85" height="85" viewBox="0 0 85 85">
  <defs>
    <clipPath id="clip-path">
      <rect id="Rectángulo_6411" data-name="Rectángulo 6411" width="85" height="85" transform="translate(180 2681)" fill="#ff8a5b" stroke="#707070" stroke-width="1"/>
    </clipPath>
  </defs>
  <g id="Enmascarar_grupo_55" data-name="Enmascarar grupo 55" transform="translate(-180 -2681)" clip-path="url(#clip-path)">
    <g id="ropa" transform="translate(180.002 2681.053)">
      <path id="Trazado_109143" data-name="Trazado 109143" d="M79.137,83.75H22.293A1.791,1.791,0,0,1,20.5,81.959v-53.5a1.952,1.952,0,0,1,1.474-1.892l14.6-3.68a10.221,10.221,0,0,1,2.5-.31H62.357a10.221,10.221,0,0,1,2.5.31l14.6,3.68a1.951,1.951,0,0,1,1.474,1.892v53.5A1.791,1.791,0,0,1,79.137,83.75Z" fill="#fedba6"/>
      <path id="Trazado_109144" data-name="Trazado 109144" d="M79.454,26.564l-14.6-3.68a10.221,10.221,0,0,0-2.5-.31H39.073a10.221,10.221,0,0,0-2.5.31l-3.679.927a10.212,10.212,0,0,1,1.194-.071H57.375a10.221,10.221,0,0,1,2.5.31l14.6,3.68a1.952,1.952,0,0,1,1.474,1.892v53.5a1.784,1.784,0,0,1-.114.625h3.306a1.791,1.791,0,0,0,1.791-1.791v-53.5A1.952,1.952,0,0,0,79.454,26.564Z" fill="#fece85"/>
      <rect id="Rectángulo_6412" data-name="Rectángulo 6412" width="7.968" height="6.862" transform="translate(72.96 62.695)" fill="#f9f3f1"/>
      <rect id="Rectángulo_6413" data-name="Rectángulo 6413" width="4.98" height="6.862" transform="translate(75.948 62.695)" fill="#f3eae6"/>
      <rect id="Rectángulo_6414" data-name="Rectángulo 6414" width="7.968" height="6.862" transform="translate(72.96 45.387)" fill="#f9f3f1"/>
      <rect id="Rectángulo_6415" data-name="Rectángulo 6415" width="4.98" height="6.862" transform="translate(75.948 45.387)" fill="#f3eae6"/>
      <path id="Trazado_109145" data-name="Trazado 109145" d="M71.169,75.677H14.325a1.791,1.791,0,0,1-1.791-1.791v-53.5a1.952,1.952,0,0,1,1.474-1.892l14.6-3.68a10.221,10.221,0,0,1,2.5-.31H54.389a10.221,10.221,0,0,1,2.5.31l14.6,3.68a1.951,1.951,0,0,1,1.474,1.892v53.5A1.791,1.791,0,0,1,71.169,75.677Z" fill="#fe93bb"/>
      <path id="Trazado_109146" data-name="Trazado 109146" d="M71.485,18.49l-14.6-3.68a10.221,10.221,0,0,0-2.5-.31H31.1a10.221,10.221,0,0,0-2.5.31l-3.679.927a10.212,10.212,0,0,1,1.194-.071H49.406a10.221,10.221,0,0,1,2.5.31l14.6,3.68a1.952,1.952,0,0,1,1.474,1.892v53.5a1.784,1.784,0,0,1-.114.625h3.306a1.791,1.791,0,0,0,1.791-1.791v-53.5A1.952,1.952,0,0,0,71.485,18.49Z" fill="#fe76a8"/>
      <path id="Trazado_109147" data-name="Trazado 109147" d="M62.7,68.068H5.858a1.791,1.791,0,0,1-1.791-1.791v-53.5a1.952,1.952,0,0,1,1.474-1.892L20.14,7.2a10.221,10.221,0,0,1,2.5-.31H45.923a10.221,10.221,0,0,1,2.5.31l14.6,3.68a1.951,1.951,0,0,1,1.474,1.892v53.5A1.791,1.791,0,0,1,62.7,68.068Z" fill="#d9b1ee"/>
      <path id="Trazado_109148" data-name="Trazado 109148" d="M63.019,10.882,48.421,7.2a10.221,10.221,0,0,0-2.5-.31H22.638a10.221,10.221,0,0,0-2.5.31l-3.679.927a10.212,10.212,0,0,1,1.194-.071H40.94a10.221,10.221,0,0,1,2.5.31l14.6,3.68a1.952,1.952,0,0,1,1.474,1.892v53.5a1.784,1.784,0,0,1-.114.625H62.7a1.791,1.791,0,0,0,1.791-1.791v-53.5A1.952,1.952,0,0,0,63.019,10.882Z" fill="#cb97e7"/>
      <path id="Trazado_109149" data-name="Trazado 109149" d="M36.093,24.79H32.468a.679.679,0,0,1-.678-.678V8.209h4.983v15.9A.678.678,0,0,1,36.093,24.79Z" fill="#f3eae6"/>
      <g id="Grupo_57404" data-name="Grupo 57404">
        <path id="Trazado_109150" data-name="Trazado 109150" d="M34.28,8.3,21.993,1.375a1.01,1.01,0,0,0-1.354.346L17.156,7.38a.979.979,0,0,0,.4,1.392L28.25,14.034a1.605,1.605,0,0,0,1.98-.458Z" fill="#f9f3f1"/>
        <path id="Trazado_109151" data-name="Trazado 109151" d="M34.28,8.3,46.568,1.375a1.01,1.01,0,0,1,1.354.346L51.4,7.38A.979.979,0,0,1,51,8.772L40.31,14.034a1.605,1.605,0,0,1-1.98-.458Z" fill="#f9f3f1"/>
        <path id="Trazado_109152" data-name="Trazado 109152" d="M51.4,7.38,47.922,1.721a1.01,1.01,0,0,0-1.354-.346L43.715,2.982l2.706,4.4a.979.979,0,0,1-.4,1.392l-8.258,4.064.568.74a1.606,1.606,0,0,0,1.98.458L51,8.772A.979.979,0,0,0,51.4,7.38Z" fill="#f3eae6"/>
      </g>
      <path id="Trazado_109153" data-name="Trazado 109153" d="M53.362,48.087H45.246A3.947,3.947,0,0,1,41.3,44.139V30.605a1.111,1.111,0,0,1,1.111-1.111H56.2a1.111,1.111,0,0,1,1.111,1.111V44.139A3.947,3.947,0,0,1,53.362,48.087Z" fill="#f9f3f1"/>
      <path id="Trazado_109154" data-name="Trazado 109154" d="M56.2,29.494h-4.98a1.111,1.111,0,0,1,1.111,1.111V44.139a3.947,3.947,0,0,1-3.947,3.947h4.98a3.947,3.947,0,0,0,3.947-3.947V30.605A1.111,1.111,0,0,0,56.2,29.494Z" fill="#f3eae6"/>
      <rect id="Rectángulo_6416" data-name="Rectángulo 6416" width="16.01" height="4.814" transform="translate(41.299 34.861)" fill="#fedba6"/>
      <rect id="Rectángulo_6417" data-name="Rectángulo 6417" width="4.98" height="4.814" transform="translate(52.329 34.861)" fill="#fece85"/>
      <g id="Grupo_57406" data-name="Grupo 57406">
        <path id="Trazado_109155" data-name="Trazado 109155" d="M69.879,83.75H22.293A1.791,1.791,0,0,1,20.5,81.959V75.931" fill="none" stroke="#000" stroke-linecap="round" stroke-linejoin="round" stroke-miterlimit="10" stroke-width="2.49"/>
        <path id="Trazado_109156" data-name="Trazado 109156" d="M73.171,24.98l6.282,1.584a1.951,1.951,0,0,1,1.474,1.892v53.5a1.791,1.791,0,0,1-1.791,1.791H75.808" fill="none" stroke="#000" stroke-linecap="round" stroke-linejoin="round" stroke-miterlimit="10" stroke-width="2.49"/>
        <path id="Trazado_109157" data-name="Trazado 109157" d="M64.717,16.784l6.768,1.706a1.951,1.951,0,0,1,1.474,1.892v53.5a1.791,1.791,0,0,1-1.791,1.791H14.325a1.791,1.791,0,0,1-1.791-1.791v-5.6" fill="none" stroke="#000" stroke-linecap="round" stroke-linejoin="round" stroke-miterlimit="10" stroke-width="2.49"/>
        <path id="Trazado_109158" data-name="Trazado 109158" d="M4.067,19.226V12.774a1.952,1.952,0,0,1,1.474-1.892l11.29-2.846" fill="none" stroke="#000" stroke-linecap="round" stroke-linejoin="round" stroke-miterlimit="10" stroke-width="2.49"/>
        <path id="Trazado_109159" data-name="Trazado 109159" d="M51.816,8.058l11.2,2.824a1.951,1.951,0,0,1,1.474,1.892v53.5A1.791,1.791,0,0,1,62.7,68.068H5.858a1.791,1.791,0,0,1-1.791-1.791V24.98" fill="none" stroke="#000" stroke-linecap="round" stroke-linejoin="round" stroke-miterlimit="10" stroke-width="2.49"/>
        <g id="Grupo_57405" data-name="Grupo 57405">
          <path id="Trazado_109160" data-name="Trazado 109160" d="M34.28,8.3,21.993,1.375a1.01,1.01,0,0,0-1.354.346L17.156,7.38a.979.979,0,0,0,.4,1.392L28.25,14.034a1.605,1.605,0,0,0,1.98-.458Z" fill="none" stroke="#000" stroke-linecap="round" stroke-linejoin="round" stroke-miterlimit="10" stroke-width="2.49"/>
          <path id="Trazado_109161" data-name="Trazado 109161" d="M34.28,8.3,46.568,1.375a1.01,1.01,0,0,1,1.354.346L51.4,7.38A.979.979,0,0,1,51,8.772L40.31,14.034a1.605,1.605,0,0,1-1.98-.458Z" fill="none" stroke="#000" stroke-linecap="round" stroke-linejoin="round" stroke-miterlimit="10" stroke-width="2.49"/>
        </g>
        <path id="Trazado_109162" data-name="Trazado 109162" d="M36.772,11.7V24.112a.679.679,0,0,1-.678.678H32.468a.679.679,0,0,1-.678-.678V11.662" fill="none" stroke="#000" stroke-linecap="round" stroke-linejoin="round" stroke-miterlimit="10" stroke-width="2.49"/>
        <path id="Trazado_109163" data-name="Trazado 109163" d="M53.362,48.087H45.246A3.947,3.947,0,0,1,41.3,44.139V30.605a1.111,1.111,0,0,1,1.111-1.111H56.2a1.111,1.111,0,0,1,1.111,1.111V44.139A3.947,3.947,0,0,1,53.362,48.087Z" fill="none" stroke="#000" stroke-linecap="round" stroke-linejoin="round" stroke-miterlimit="10" stroke-width="2.49"/>
        <rect id="Rectángulo_6418" data-name="Rectángulo 6418" width="16.01" height="4.814" transform="translate(41.299 34.861)" fill="none" stroke="#000" stroke-linecap="round" stroke-linejoin="round" stroke-miterlimit="10" stroke-width="2.49"/>
        <line id="Línea_247" data-name="Línea 247" x2="6.954" y2="0.019" transform="translate(73.412 62.695)" fill="none" stroke="#000" stroke-linecap="round" stroke-linejoin="round" stroke-miterlimit="10" stroke-width="2.49"/>
        <line id="Línea_248" data-name="Línea 248" x2="6.954" y2="0.018" transform="translate(73.412 52.239)" fill="none" stroke="#000" stroke-linecap="round" stroke-linejoin="round" stroke-miterlimit="10" stroke-width="2.49"/>
        <line id="Línea_249" data-name="Línea 249" x2="6.954" y2="0.018" transform="translate(73.412 45.378)" fill="none" stroke="#000" stroke-linecap="round" stroke-linejoin="round" stroke-miterlimit="10" stroke-width="2.49"/>
        <line id="Línea_250" data-name="Línea 250" x2="6.954" y2="0.019" transform="translate(73.412 69.547)" fill="none" stroke="#000" stroke-linecap="round" stroke-linejoin="round" stroke-miterlimit="10" stroke-width="2.49"/>
      </g>
    </g>
  </g>
</svg>
