<svg xmlns="http://www.w3.org/2000/svg" xmlns:xlink="http://www.w3.org/1999/xlink" width="85" height="85" viewBox="0 0 85 85">
  <defs>
    <clipPath id="clip-path">
      <rect id="Rectángulo_6419" data-name="Rectángulo 6419" width="85" height="85" transform="translate(180 404)" fill="#fff"/>
    </clipPath>
    <clipPath id="clip-path-2">
      <path id="path6513" d="M0-85H85V0H0Z"/>
    </clipPath>
  </defs>
  <g id="Enmascarar_grupo_56" data-name="Enmascarar grupo 56" transform="translate(-180 -404)" clip-path="url(#clip-path)">
    <g id="g6507" transform="translate(180 489)">
      <g id="g6509">
        <g id="g6511" clip-path="url(#clip-path-2)">
          <g id="g6517" transform="translate(58.142 -52.145)">
            <path id="path6519" d="M0,0,2.56,4.435.306,5.765A5.168,5.168,0,0,0-1.542,12.8l-22.13,12.777A18.652,18.652,0,0,1-37.4,27.548l-7.259-1.763Z" fill="#cad8e8"/>
          </g>
          <g id="g6521" transform="translate(50.543 -47.756)">
            <path id="path6523" d="M0,0,7.6-4.388,10.158.046,7.9,1.376A5.143,5.143,0,0,0,5.95,3.435" fill="none" stroke="#000" stroke-linecap="round" stroke-linejoin="round" stroke-miterlimit="10" stroke-width="2.49"/>
          </g>
          <g id="g6525" transform="translate(50.542 -35.848)">
            <path id="path6527" d="M0,0-8.042,4.642" fill="none" stroke="#000" stroke-linecap="round" stroke-linejoin="round" stroke-miterlimit="10" stroke-width="2.49"/>
          </g>
          <g id="g6529" transform="translate(42.5 -1.245)">
            <path id="path6531" d="M0,0H-41.255V-82.509H0V-40.38l-10.314-.18.876.015A9.6,9.6,0,0,1,0-30.941Z" fill="#f9e487"/>
          </g>
          <path id="path6533" d="M1.245-1.245h4.98V-83.755H1.245Z" fill="#f9bf6c"/>
          <g id="g6535" transform="translate(33.062 -41.79)">
            <path id="path6537" d="M0,0-.876-.015l-.3,9.619H9.437A9.6,9.6,0,0,0,0,0" fill="#f9bf6c"/>
          </g>
          <g id="g6539" transform="translate(77.893 -14.102)">
            <path id="path6541" d="M0,0H0A5.157,5.157,0,0,1-7.044,1.887L-11.51-.691A5.157,5.157,0,0,1-13.4-7.735,5.157,5.157,0,0,1-6.354-9.623l4.466,2.578A5.157,5.157,0,0,1,0,0M.693-11.553l-4.433-2.559q-.393-.227-.8-.415l-12.638-7.3-3.868,6.7,4.743,2.738a10.357,10.357,0,0,0-1.556,2.056h0A10.333,10.333,0,0,0-14.072,3.785l4.433,2.559A10.333,10.333,0,0,0,4.475,2.562,10.333,10.333,0,0,0,.693-11.553" fill="#e17ea9"/>
          </g>
          <g id="g6543" transform="translate(71.574 -7.758)">
            <path id="path6545" d="M0,0-4.433-2.559A10.333,10.333,0,0,1-8.215-16.674h0a10.357,10.357,0,0,1,1.556-2.056L-11.4-21.469l3.038-5.261-2.49-1.438-3.868,6.7,4.743,2.738a10.357,10.357,0,0,0-1.556,2.056h0A10.333,10.333,0,0,0-7.753-2.559L-3.32,0A10.289,10.289,0,0,0,3.5,1.252,10.311,10.311,0,0,1,0,0" fill="#d6679c"/>
          </g>
          <g id="g6547" transform="translate(76.005 -62.458)">
            <path id="path6549" d="M0,0-4.466,2.578A5.157,5.157,0,0,1-11.51.691,5.157,5.157,0,0,1-9.623-6.354l4.466-2.578A5.157,5.157,0,0,1,1.888-7.044,5.157,5.157,0,0,1,0,0M6.363-9.606h0A10.333,10.333,0,0,0-7.752-13.388l-4.433,2.559A10.333,10.333,0,0,0-15.967,3.286,10.347,10.347,0,0,0-14.41,5.343l-4.743,2.738,3.867,6.7,12.638-7.3q.4-.189.8-.415L2.581,4.509A10.333,10.333,0,0,0,6.363-9.606" fill="#e17ea9"/>
          </g>
          <g id="g6551" transform="translate(61.179 -54.959)">
            <path id="path6553" d="M0,0,2.526-1.459a1.157,1.157,0,0,0,.355-1.694,10.436,10.436,0,0,1-.7-1.061A10.333,10.333,0,0,1,5.962-18.329l4.433-2.559a10.308,10.308,0,0,1,3.5-1.252,10.289,10.289,0,0,0-6.819,1.252L2.642-18.329A10.333,10.333,0,0,0-1.14-4.214,10.349,10.349,0,0,0,.416-2.157L-4.327.581l3.867,6.7,2.49-1.438L-.425,1.587A1.162,1.162,0,0,1,0,0" fill="#d6679c"/>
          </g>
          <g id="g6555" transform="translate(75.079 -55.926)">
            <path id="path6557" d="M0,0,3.508-2.024A10.332,10.332,0,0,0,7.29-16.138,10.332,10.332,0,0,0-6.825-19.92l-4.433,2.558A10.332,10.332,0,0,0-15.039-3.247,10.351,10.351,0,0,0-13.484-1.19l-4.743,2.738,3.868,6.7,9.641-5.567M.927-6.533-3.539-3.954a5.157,5.157,0,0,1-7.044-1.888A5.157,5.157,0,0,1-8.7-12.886l4.466-2.578a5.156,5.156,0,0,1,7.044,1.887A5.157,5.157,0,0,1,.927-6.533Z" fill="none" stroke="#000" stroke-linecap="round" stroke-linejoin="round" stroke-miterlimit="10" stroke-width="2.49"/>
          </g>
          <g id="g6559" transform="translate(42.5 -14.003)">
            <path id="path6561" d="M0,0V12.758H-41.255v-82.51h19.919" fill="none" stroke="#000" stroke-linecap="round" stroke-linejoin="round" stroke-miterlimit="10" stroke-width="2.49"/>
          </g>
          <g id="g6563" transform="translate(40.475 -41.66)">
            <path id="path6565" d="M0,0-7.384-.129a9.606,9.606,0,0,1,9.41,9.6V22.231" fill="none" stroke="#000" stroke-linecap="round" stroke-linejoin="round" stroke-miterlimit="10" stroke-width="2.49"/>
          </g>
          <g id="g6567" transform="translate(26.591 -83.755)">
            <path id="path6569" d="M0,0H15.909V31.355" fill="none" stroke="#000" stroke-linecap="round" stroke-linejoin="round" stroke-miterlimit="10" stroke-width="2.49"/>
          </g>
          <g id="g6571" transform="translate(58.142 -31.46)">
            <path id="path6573" d="M0,0,2.56-4.435.306-5.765A5.168,5.168,0,0,1-1.542-12.8l-22.13-12.776A18.652,18.652,0,0,0-37.4-27.548l-7.259,1.763Z" fill="#f0f6ff"/>
          </g>
          <g id="g6575" transform="translate(18.156 -58.379)">
            <path id="path6577" d="M0,0-4.674,1.136,39.986,26.92l1.66-2.875Z" fill="#dfe9f7"/>
          </g>
          <g id="g6579" transform="translate(51.655 -40.783)">
            <path id="path6581" d="M0,0H0A1.333,1.333,0,0,1-1.821.492a1.333,1.333,0,0,1-.492-1.821A1.333,1.333,0,0,1-.492-1.821h0A1.334,1.334,0,0,1,0,0"/>
          </g>
          <g id="g6583" transform="translate(58.142 -31.46)">
            <path id="path6585" d="M0,0,2.56-4.435.306-5.765A5.168,5.168,0,0,1-1.542-12.8l-22.13-12.776A18.652,18.652,0,0,0-37.4-27.548l-7.259,1.763Z" fill="none" stroke="#000" stroke-linecap="round" stroke-linejoin="round" stroke-miterlimit="10" stroke-width="2.49"/>
          </g>
          <g id="g6587" transform="translate(77.893 -14.102)">
            <path id="path6589" d="M0,0H0A5.157,5.157,0,0,1-7.044,1.887L-11.51-.691A5.157,5.157,0,0,1-13.4-7.735,5.157,5.157,0,0,1-6.354-9.623l4.466,2.578A5.157,5.157,0,0,1,0,0ZM.693-11.553l-4.433-2.559q-.393-.227-.8-.415l-12.638-7.3-3.868,6.7,4.743,2.738a10.357,10.357,0,0,0-1.556,2.056h0A10.333,10.333,0,0,0-14.072,3.785l4.433,2.559A10.333,10.333,0,0,0,4.475,2.562,10.333,10.333,0,0,0,.693-11.553Z" fill="none" stroke="#000" stroke-linecap="round" stroke-linejoin="round" stroke-miterlimit="10" stroke-width="2.49"/>
          </g>
          <g id="g6591" transform="translate(27.03 -41.805)">
            <path id="path6593" d="M0,0H-5.157" fill="none" stroke="#000" stroke-linecap="round" stroke-linejoin="round" stroke-miterlimit="10" stroke-width="2.49"/>
          </g>
          <g id="g6595" transform="translate(6.402 -41.805)">
            <path id="path6597" d="M0,0H-5.157" fill="none" stroke="#000" stroke-linecap="round" stroke-linejoin="round" stroke-miterlimit="10" stroke-width="2.49"/>
          </g>
          <g id="g6599" transform="translate(16.716 -41.805)">
            <path id="path6601" d="M0,0H-5.157" fill="none" stroke="#000" stroke-linecap="round" stroke-linejoin="round" stroke-miterlimit="10" stroke-width="2.49"/>
          </g>
          <g id="g6603" transform="translate(32.186 -41.805)">
            <path id="path6605" d="M0,0-.3,9.618H10.314" fill="none" stroke="#000" stroke-linecap="round" stroke-linejoin="round" stroke-miterlimit="10" stroke-width="2.49"/>
          </g>
        </g>
      </g>
    </g>
  </g>
</svg>
