<svg xmlns="http://www.w3.org/2000/svg" xmlns:xlink="http://www.w3.org/1999/xlink" width="78" height="78" viewBox="0 0 78 78">
  <defs>
    <clipPath id="clip-path">
      <rect id="Rectángulo_6499" data-name="Rectángulo 6499" width="78" height="78" transform="translate(1152 2726)" fill="#fff"/>
    </clipPath>
  </defs>
  <g id="Enmascarar_grupo_64" data-name="Enmascarar grupo 64" transform="translate(-1152 -2726)" clip-path="url(#clip-path)">
    <g id="tela_2_" data-name="tela (2)" transform="translate(1155.641 2726)">
      <path id="Trazado_109499" data-name="Trazado 109499" d="M21.073,4,31.72,1.146,33.511,7.82,22.863,10.677Zm0,0" fill="#dc8839"/>
      <path id="Trazado_109500" data-name="Trazado 109500" d="M38.831,70.174l10.647-2.858,1.791,6.673L40.622,76.847Zm0,0" fill="#dc8839"/>
      <path id="Trazado_109501" data-name="Trazado 109501" d="M69.57,61.93,52.664,66.466,36.7,6.967a17.5,17.5,0,0,1,21.442,12.37Zm0,0" fill="#5dc159"/>
      <path id="Trazado_109502" data-name="Trazado 109502" d="M19.734,11.517,36.64,6.979l15.968,59.5L35.7,71.014Zm0,0" fill="#7dd177"/>
      <path id="Trazado_109503" data-name="Trazado 109503" d="M4.388,1.288H15.412V8.2H4.388Zm0,0" fill="#dc8839"/>
      <path id="Trazado_109504" data-name="Trazado 109504" d="M4.388,69.8H15.412v6.91H4.388Zm0,0" fill="#dc8839"/>
      <path id="Trazado_109505" data-name="Trazado 109505" d="M1.148,8.2h17.5V69.8H1.148Zm0,0" fill="#ffe999"/>
      <path id="Trazado_109506" data-name="Trazado 109506" d="M31.721,1.148,27.439,2.3l1.482,5.525L22.556,9.53l.308,1.149L33.512,7.822Zm0,0" fill="#ac5a28"/>
      <path id="Trazado_109507" data-name="Trazado 109507" d="M49.477,67.321,45.194,68.47l1.482,5.525L40.311,75.7l.309,1.149,10.647-2.857Zm0,0" fill="#ac5a28"/>
      <path id="Trazado_109508" data-name="Trazado 109508" d="M58.141,19.337A17.507,17.507,0,0,0,38.949,6.518a17.51,17.51,0,0,1,14.6,12.819L64.979,61.93,52.356,65.317l.308,1.149L69.57,61.93Zm0,0" fill="#3fac4b"/>
      <path id="Trazado_109509" data-name="Trazado 109509" d="M36.641,6.982,32.358,8.131l15.657,58.35L35.391,69.869l.308,1.149,16.906-4.536Zm0,0" fill="#3fac4b"/>
      <path id="Trazado_109510" data-name="Trazado 109510" d="M10.821,1.288h4.591V8.2H10.821Zm0,0" fill="#ac5a28"/>
      <path id="Trazado_109511" data-name="Trazado 109511" d="M10.821,69.8h4.591v6.91H10.821Zm0,0" fill="#ac5a28"/>
      <path id="Trazado_109512" data-name="Trazado 109512" d="M14.061,8.2h4.591V69.8H14.061Zm0,0" fill="#ffcf3b"/>
      <path id="Trazado_109513" data-name="Trazado 109513" d="M70.678,61.633,59.25,19.039A18.652,18.652,0,0,0,36.4,5.859l-.026.008-.032.007-2.02.542L32.83.85A1.149,1.149,0,0,0,31.424.039L20.776,2.9A1.148,1.148,0,0,0,19.965,4.3l1.493,5.565-1.658.445V8.2A1.148,1.148,0,0,0,18.652,7.05H16.56V1.288A1.148,1.148,0,0,0,15.412.14H4.388A1.148,1.148,0,0,0,3.24,1.288V7.05H1.148A1.148,1.148,0,0,0,0,8.2V20.8a1.148,1.148,0,0,0,2.3,0V9.346H8.885a1.147,1.147,0,0,0,2.029,0H17.5V68.654H10.915a1.147,1.147,0,0,0-2.029,0H2.3V25.393a1.148,1.148,0,0,0-2.3,0V69.8A1.148,1.148,0,0,0,1.148,70.95H3.24v5.762A1.148,1.148,0,0,0,4.388,77.86H15.412a1.147,1.147,0,0,0,1.147-1.148V70.95h2.092A1.148,1.148,0,0,0,19.8,69.8V16.19l7.493,27.941a1.148,1.148,0,0,0,2.217-.594L21.141,12.33,35.83,8.388,51.2,65.671,36.511,69.612l-5.929-22.1a1.148,1.148,0,0,0-2.217.6l6.226,23.2A1.147,1.147,0,0,0,36,72.126l2.021-.542,1.493,5.565a1.148,1.148,0,0,0,1.406.811L51.565,75.1a1.147,1.147,0,0,0,.811-1.406l-1.494-5.565,2.021-.542.029-.01.029-.006,16.906-4.536a1.148,1.148,0,0,0,.811-1.406ZM30.91,2.554l1.2,4.457L23.675,9.273l-1.2-4.457ZM5.535,7.05V2.436h8.729V7.05Zm8.729,68.514H5.535V70.95h8.729Zm27.166-.118-1.2-4.457,8.431-2.262,1.2,4.457ZM53.475,65.06,38.116,7.816A16.359,16.359,0,0,1,57.033,19.634L68.164,61.119Zm0,0"/>
      <path id="Trazado_109514" data-name="Trazado 109514" d="M8.752,54.974a1.148,1.148,0,1,0,2.3,0V53.8a1.148,1.148,0,1,0-2.3,0Zm0,0"/>
      <path id="Trazado_109515" data-name="Trazado 109515" d="M8.752,44.716a1.148,1.148,0,0,0,2.3,0V43.544a1.148,1.148,0,1,0-2.3,0Zm0,0"/>
      <path id="Trazado_109516" data-name="Trazado 109516" d="M8.752,49.845a1.148,1.148,0,1,0,2.3,0V48.673a1.148,1.148,0,0,0-2.3,0Zm0,0"/>
      <path id="Trazado_109517" data-name="Trazado 109517" d="M8.752,60.1a1.148,1.148,0,0,0,2.3,0V58.931a1.148,1.148,0,1,0-2.3,0Zm0,0"/>
      <path id="Trazado_109518" data-name="Trazado 109518" d="M8.752,39.586a1.148,1.148,0,1,0,2.3,0V38.414a1.148,1.148,0,1,0-2.3,0Zm0,0"/>
      <path id="Trazado_109519" data-name="Trazado 109519" d="M8.752,65.233a1.148,1.148,0,1,0,2.3,0V64.06a1.148,1.148,0,0,0-2.3,0Zm0,0"/>
      <path id="Trazado_109520" data-name="Trazado 109520" d="M8.752,34.457a1.148,1.148,0,0,0,2.3,0V33.285a1.148,1.148,0,1,0-2.3,0Zm0,0"/>
      <path id="Trazado_109521" data-name="Trazado 109521" d="M8.752,29.327a1.148,1.148,0,0,0,2.3,0V28.155a1.148,1.148,0,0,0-2.3,0Zm0,0"/>
      <path id="Trazado_109522" data-name="Trazado 109522" d="M8.752,19.069a1.148,1.148,0,0,0,2.3,0V17.9a1.148,1.148,0,0,0-2.3,0Zm0,0"/>
      <path id="Trazado_109523" data-name="Trazado 109523" d="M9.9,15.087a1.148,1.148,0,0,0,1.148-1.148V12.767a1.148,1.148,0,0,0-2.3,0v1.172A1.148,1.148,0,0,0,9.9,15.087Zm0,0"/>
      <path id="Trazado_109524" data-name="Trazado 109524" d="M8.752,24.2a1.148,1.148,0,0,0,2.3,0V23.026a1.148,1.148,0,0,0-2.3,0Zm0,0"/>
    </g>
  </g>
</svg>
