<svg xmlns="http://www.w3.org/2000/svg" xmlns:xlink="http://www.w3.org/1999/xlink" width="295" height="406" viewBox="0 0 295 406">
  <defs>
    <clipPath id="clip-path">
      <rect id="Rectángulo_6424" data-name="Rectángulo 6424" width="199.644" height="406" fill="none"/>
    </clipPath>
    <clipPath id="clip-path-3">
      <rect id="Rectángulo_6422" data-name="Rectángulo 6422" width="21.144" height="36.178" fill="none"/>
    </clipPath>
  </defs>
  <g id="Grupo_57518" data-name="Grupo 57518" transform="translate(-1125 -1011)">
    <g id="Grupo_57417" data-name="Grupo 57417">
      <rect id="Rectángulo_6425" data-name="Rectángulo 6425" width="245" height="336" rx="49" transform="translate(1175 1081)" fill="#0ce6ea"/>
      <g id="Grupo_57416" data-name="Grupo 57416" transform="translate(1125 1011)">
        <g id="Grupo_57415" data-name="Grupo 57415" clip-path="url(#clip-path)">
          <g id="Grupo_57414" data-name="Grupo 57414">
            <g id="Grupo_57413" data-name="Grupo 57413" clip-path="url(#clip-path)">
              <path id="Trazado_109164" data-name="Trazado 109164" d="M228.719,38.876c-1.3-4.54-.656-9.374-.227-14.076.4-4.372.551-9.31-1.44-13.353a19.051,19.051,0,0,0-8.622-8.333c-4.712-2.373-10.87-3.8-16.1-2.783a15.512,15.512,0,0,0-7.6,3.814,12.867,12.867,0,0,0-12.959,12.69c-.091,6.076,4.073,11.956,2.65,17.865-1.288,5.347-6.809,8.914-7.99,14.286-.914,4.16,1.177,8.657,4.637,11.141a15.6,15.6,0,0,0,12.214,2.212,25.881,25.881,0,0,0,11.194-5.885c3.306,1.921,6.585,4.2,10.226,5.365a17.851,17.851,0,0,0,11.268.251c3.607-1.269,6.7-4.364,7.275-8.144.8-5.246-3.067-9.948-4.527-15.05" transform="translate(-55.242 0)" fill="#3f3e66"/>
              <path id="Trazado_109165" data-name="Trazado 109165" d="M197.742,242.465,176.418,467.124a5.626,5.626,0,0,1-11.227-.549l.7-225.667a15.961,15.961,0,0,1,31.921.1c0,.483-.028.987-.071,1.459" transform="translate(-51.786 -70.534)" fill="#efad9c"/>
              <path id="Trazado_109166" data-name="Trazado 109166" d="M168.862,585.377H125.543a9.4,9.4,0,0,1-.06-2.674c.3-2.665,1.926-6.42,8.491-6.712a48.462,48.462,0,0,0,17.256-3.8,54.286,54.286,0,0,0,13.959,0,22.865,22.865,0,0,1,3.671,13.184" transform="translate(-39.317 -179.377)" fill="#3f3e66"/>
              <path id="Trazado_109167" data-name="Trazado 109167" d="M147.622,578.736a9.783,9.783,0,0,0-1.994-2.933,1.37,1.37,0,0,0-.7-.414,1.256,1.256,0,0,0-.822.091.777.777,0,0,0-.229,1.232,9.633,9.633,0,0,1,1.168,1.453,8.491,8.491,0,0,1,.551,1.051,1.291,1.291,0,0,0,1.414.629.8.8,0,0,0,.612-1.107" transform="translate(-45.036 -180.37)" fill="#acc8c9"/>
              <path id="Trazado_109168" data-name="Trazado 109168" d="M153.043,577.777a9.783,9.783,0,0,0-1.994-2.933,1.37,1.37,0,0,0-.7-.414,1.252,1.252,0,0,0-.822.091.776.776,0,0,0-.229,1.231,9.667,9.667,0,0,1,1.168,1.453,8.542,8.542,0,0,1,.551,1.052,1.29,1.29,0,0,0,1.414.628.8.8,0,0,0,.612-1.107" transform="translate(-46.735 -180.069)" fill="#acc8c9"/>
              <path id="Trazado_109169" data-name="Trazado 109169" d="M158.464,576.816a9.782,9.782,0,0,0-1.994-2.933,1.373,1.373,0,0,0-.7-.414,1.256,1.256,0,0,0-.822.091.777.777,0,0,0-.229,1.232,9.631,9.631,0,0,1,1.168,1.453,8.5,8.5,0,0,1,.551,1.051,1.29,1.29,0,0,0,1.414.629.8.8,0,0,0,.612-1.107" transform="translate(-48.435 -179.768)" fill="#acc8c9"/>
              <path id="Trazado_109170" data-name="Trazado 109170" d="M125.544,590.177h43.318a16.529,16.529,0,0,0-.062-2.674H125.484a9.369,9.369,0,0,0,.06,2.674" transform="translate(-39.318 -184.177)" fill="#acc8c9"/>
              <path id="Trazado_109171" data-name="Trazado 109171" d="M248.047,240.3,262.9,466.863a5.626,5.626,0,0,1-11.172,1.245L216.355,243.836a15.961,15.961,0,0,1,31.531-4.974c.075.474.128.973.161,1.443" transform="translate(-67.763 -70.656)" fill="#efad9c"/>
              <path id="Trazado_109172" data-name="Trazado 109172" d="M270.931,585.377H227.612a9.4,9.4,0,0,1-.06-2.674c.3-2.665,1.926-6.42,8.491-6.712a48.462,48.462,0,0,0,17.256-3.8,54.286,54.286,0,0,0,13.959,0,22.866,22.866,0,0,1,3.671,13.184" transform="translate(-71.315 -179.377)" fill="#3f3e66"/>
              <path id="Trazado_109173" data-name="Trazado 109173" d="M249.691,578.736A9.8,9.8,0,0,0,247.7,575.8a1.37,1.37,0,0,0-.7-.414,1.256,1.256,0,0,0-.822.091.777.777,0,0,0-.229,1.232,9.635,9.635,0,0,1,1.168,1.453,8.5,8.5,0,0,1,.551,1.051,1.292,1.292,0,0,0,1.414.629.8.8,0,0,0,.612-1.107" transform="translate(-77.034 -180.37)" fill="#acc8c9"/>
              <path id="Trazado_109174" data-name="Trazado 109174" d="M255.112,577.777a9.783,9.783,0,0,0-1.994-2.933,1.37,1.37,0,0,0-.7-.414,1.252,1.252,0,0,0-.822.091.777.777,0,0,0-.229,1.231,9.63,9.63,0,0,1,1.169,1.453,8.545,8.545,0,0,1,.551,1.052,1.29,1.29,0,0,0,1.414.628.8.8,0,0,0,.612-1.107" transform="translate(-78.733 -180.069)" fill="#acc8c9"/>
              <path id="Trazado_109175" data-name="Trazado 109175" d="M260.532,576.816a9.783,9.783,0,0,0-1.994-2.933,1.37,1.37,0,0,0-.7-.414,1.256,1.256,0,0,0-.822.091.777.777,0,0,0-.229,1.232,9.63,9.63,0,0,1,1.168,1.453,8.5,8.5,0,0,1,.551,1.051,1.29,1.29,0,0,0,1.414.629.8.8,0,0,0,.612-1.107" transform="translate(-80.432 -179.768)" fill="#acc8c9"/>
              <path id="Trazado_109176" data-name="Trazado 109176" d="M227.612,590.177h43.319a16.63,16.63,0,0,0-.062-2.674H227.552a9.4,9.4,0,0,0,.06,2.674" transform="translate(-71.315 -184.177)" fill="#acc8c9"/>
              <path id="Trazado_109177" data-name="Trazado 109177" d="M226.337,421.591H245.76L238.138,251.1a118.905,118.905,0,0,0-14.192-51.242L218.613,190l-26.256-4.206-.884-4.295-16.607,8.46-6.074,17.9a121.076,121.076,0,0,0-6.42,38.063l-1.227,175.677h19.959l16.423-179.623,1.079.111Z" transform="translate(-50.518 -56.897)" fill="#84acaf"/>
              <path id="Trazado_109178" data-name="Trazado 109178" d="M160.073,510.536v14.78a139.731,139.731,0,0,0,21.536,0l1.206-14.78a169.222,169.222,0,0,1-22.743,0" transform="translate(-50.181 -160.048)" fill="#557677"/>
              <path id="Trazado_109179" data-name="Trazado 109179" d="M251.549,510.536l2.353,15.209c9.773,1.2,21.174.369,21.174,0s-.976-14.787-.976-14.787c-9.46,1.086-22.55-.422-22.55-.422" transform="translate(-78.858 -160.048)" fill="#557677"/>
              <path id="Trazado_109180" data-name="Trazado 109180" d="M209.567,267.546a.243.243,0,0,1-.066-.009,17.523,17.523,0,0,1-6.81-3.842.236.236,0,1,1,.315-.352,17.048,17.048,0,0,0,6.627,3.739.236.236,0,0,1-.066.463" transform="translate(-63.517 -82.537)" fill="#557677"/>
              <path id="Trazado_109181" data-name="Trazado 109181" d="M97.875,156.717l-39.4-35.909a4.65,4.65,0,0,1,5.8-7.244l43.643,30.613a8.05,8.05,0,0,1-9.245,13.18,8.856,8.856,0,0,1-.8-.641" transform="translate(-17.855 -35.337)" fill="#efad9c"/>
              <path id="Trazado_109182" data-name="Trazado 109182" d="M118.041,150.5a8.037,8.037,0,0,1-3.194-12.926L157.6,90.2a8.034,8.034,0,1,1,11.928,10.765l-42.754,47.375a8.037,8.037,0,0,1-8.733,2.16" transform="translate(-35.355 -27.446)" fill="#efad9c"/>
              <path id="Trazado_109183" data-name="Trazado 109183" d="M130.47,157.653a.235.235,0,0,1-.176-.039l-6.709-4.65a.236.236,0,1,1,.269-.388l6.709,4.651a.236.236,0,0,1-.093.426" transform="translate(-38.711 -47.818)" fill="#b56757"/>
              <path id="Trazado_109184" data-name="Trazado 109184" d="M53.382,106.473s-3.238-15.987-4.765-16.565-1.7,10.712-1.7,10.712-25.2-3.231-25.771-1.734,10.379,3.426,10.379,3.426-12.624-.413-12.9,1.181c-.255,1.445,12.744,2.688,12.744,2.688s-13.353,1.053-12.785,2.309,12.653,1.274,12.653,1.274-10.706,2.224-10.25,3.036,11.478.656,11.478.656c5.478-.043,7.683,1.1,13.428,2.41,10.34,2.364,11.068-1.611,7.494-9.392" transform="translate(-5.819 -28.178)" fill="#efad9c"/>
              <path id="Trazado_109185" data-name="Trazado 109185" d="M158.174,83.764a17.789,17.789,0,0,0-11.41,5.873l-34.824,39.2-12.183-8.984c-5.734,2.952-10.475,12.13-10.475,12.13l17,16.142a11.1,11.1,0,0,0,15.484-.185L160.2,109.65l2.574-26.378Z" transform="translate(-27.989 -26.105)" fill="#fd684a"/>
              <path id="Trazado_109186" data-name="Trazado 109186" d="M127.546,158.749a.491.491,0,0,1-.465-.333,19.7,19.7,0,0,0-4.854-7.751.49.49,0,0,1,.685-.7,20.717,20.717,0,0,1,5.1,8.139.491.491,0,0,1-.308.622.5.5,0,0,1-.157.025" transform="translate(-38.271 -46.968)" fill="#b23e32"/>
              <path id="Trazado_109187" data-name="Trazado 109187" d="M225.379,83.175l-20.686-1.668-15.3,1.212-9.332,22.693c-2.791,3.882-5.6,8.154-5.863,13.692a13.128,13.128,0,0,0,4.956,10.714l-.2,28.792c8.581,5.66,24.851,4.085,43.746.041l10.018-57.062Z" transform="translate(-54.604 -25.552)" fill="#fff"/>
              <path id="Trazado_109188" data-name="Trazado 109188" d="M224.236,150.777c-.172,0-.345,0-.519-.005a.237.237,0,0,1-.232-.241.243.243,0,0,1,.241-.231c.161,0,.324,0,.483,0,9.05,0,14.485-5.248,15.469-9.052a.238.238,0,0,1,.288-.17.236.236,0,0,1,.17.288c-.952,3.68-6.1,9.408-15.9,9.408" transform="translate(-70.061 -44.226)" fill="#acc8c9"/>
              <path id="Trazado_109189" data-name="Trazado 109189" d="M183.685,83.165l-8.951,22.286c-5.462,4.534-10.11,17.635-1.324,24.63l-.606,29.362c-9.677,18.661-15.338,49.383-15.338,49.383,8.365,2.086,19.962,0,19.962,0s1.916-83.165,10.714-126.054Z" transform="translate(-49.364 -25.948)" fill="#fd684a"/>
              <path id="Trazado_109190" data-name="Trazado 109190" d="M174.324,123.855c.284-5.933,3.6-10.5,6.522-14.538l.286-.394a.242.242,0,0,0,.045-.143c0-.078-.137-7.79,1.37-11.834a.236.236,0,1,0-.443-.164c-1,2.673-1.291,6.78-1.374,9.433a5.876,5.876,0,0,1-1.718-2.985.236.236,0,0,0-.464.087,6.039,6.039,0,0,0,2.167,3.487c-.021.964-.015,1.667-.012,1.905l-.239.33c-2.962,4.087-6.32,8.719-6.61,14.794-.391,8.166,6.912,12.263,6.986,12.3a.241.241,0,0,0,.113.029.236.236,0,0,0,.114-.443c-.071-.039-7.118-4-6.742-11.867" transform="translate(-54.496 -30.292)" fill="#b23e32"/>
              <path id="Trazado_109191" data-name="Trazado 109191" d="M236.814,82.772c-10.764,20.367-4.49,126.863-4.49,126.863a118.427,118.427,0,0,0,31.691,0s-7.4-41.491-22.361-50.587l9.994-62.163-8.612-13.314Z" transform="translate(-72.262 -25.948)" fill="#fd684a"/>
              <path id="Trazado_109192" data-name="Trazado 109192" d="M242.876,131.277c-2.182-5.121-5.57-9.617-8.412-14.4s-5.2-10.131-4.972-15.692c.291-7.044,4.669-13.258,9.573-18.321L237,82.479c-5.053,5.376-10.3,11.468-10.68,18.836-.216,4.228,1.243,8.382,3.2,12.137s4.411,7.23,6.419,10.959a41.846,41.846,0,0,1,5.29,19.314,30.028,30.028,0,0,1-6.151,18.858c1.488.441,2.927,1.092,4.416,1.533a34.807,34.807,0,0,0,3.383-32.838" transform="translate(-70.944 -25.856)" fill="#ffba57"/>
              <path id="Trazado_109193" data-name="Trazado 109193" d="M187.665,81.742l-2.414.165a30.792,30.792,0,0,1-6.01,20.046c-5.548,7.431-14.248,12.05-19.69,19.56a30.139,30.139,0,0,0-3.443,28.5c1.718-.251,3.466-.567,5.184-.818-1.335-7.853-1.689-16.442,1.959-23.523,5.4-10.483,18.368-15.777,22.732-26.731,2.17-5.447,2.379-11.38,1.682-17.2" transform="translate(-48.276 -25.625)" fill="#ffba57"/>
              <path id="Trazado_109194" data-name="Trazado 109194" d="M223.285,58.794l1.234,18.973S216.245,83.1,209.567,78.9l.234-14.4Z" transform="translate(-65.697 -18.431)" fill="#efad9c"/>
              <path id="Trazado_109195" data-name="Trazado 109195" d="M209.76,73.962a16.5,16.5,0,0,0,13.4-4.92H209.84Z" transform="translate(-65.758 -21.644)" fill="#ad6253"/>
              <path id="Trazado_109196" data-name="Trazado 109196" d="M214.434,81.506l-9.183.728c0,9.311,16.139,12.988,22.44.341Z" transform="translate(-64.344 -25.551)" fill="#efad9c"/>
              <path id="Trazado_109197" data-name="Trazado 109197" d="M204.013,12.383c14.924-2.224,22.759,6.4,21.5,23.145-1.006,13.331-9.317,20.721-19.68,19.053-8.2-1.321-13.387-7.828-14.235-17.732-1.21-14.135,3.558-23.146,12.42-24.466" transform="translate(-60.005 -3.774)" fill="#efad9c"/>
              <path id="Trazado_109198" data-name="Trazado 109198" d="M233.829,27.975a26.29,26.29,0,0,0-1.118-3.9,23.009,23.009,0,0,0-9.665-12,18.479,18.479,0,0,0-17.307-.693.637.637,0,0,0-.3.722.531.531,0,0,0-.246.612,30.029,30.029,0,0,0,8.02,14.658,23.466,23.466,0,0,0,14.5,6.735,17.88,17.88,0,0,0,4.046-.082,2.631,2.631,0,0,0,2.4-1.843,10.238,10.238,0,0,0-.334-4.2" transform="translate(-64.322 -2.995)" fill="#3f3e66"/>
              <path id="Trazado_109199" data-name="Trazado 109199" d="M237.813,46.143c-.945,2.335-.266,4.587,1.425,5.271s3.826-.653,4.771-2.988.34-4.782-1.35-5.467-3.9.849-4.845,3.183" transform="translate(-74.418 -13.416)" fill="#efad9c"/>
              <path id="Trazado_109200" data-name="Trazado 109200" d="M240.167,49.866a.472.472,0,0,1-.159-.917,1.075,1.075,0,0,0,.746-.864,1.36,1.36,0,0,0-.131-.525,2.407,2.407,0,0,1-.191-.733,1.933,1.933,0,0,1,.54-1.438,1.91,1.91,0,0,1,1.656-.634,1.841,1.841,0,0,1,1.438,1.889.472.472,0,1,1-.945,0,.922.922,0,0,0-.645-.956,1.019,1.019,0,0,0-.823.357.973.973,0,0,0-.277.724,1.618,1.618,0,0,0,.13.454,2.14,2.14,0,0,1,.193.913,2,2,0,0,1-1.373,1.7.445.445,0,0,1-.159.028" transform="translate(-75.142 -14.024)" fill="#ad6253"/>
              <path id="Trazado_109201" data-name="Trazado 109201" d="M193.495,34.839a27.658,27.658,0,0,1,7.369-.273c-1.535-2.123-5.6-1.1-7.369.273" transform="translate(-60.659 -10.455)" fill="#3f3e66"/>
              <path id="Trazado_109202" data-name="Trazado 109202" d="M222.276,34.839a27.661,27.661,0,0,0-7.369-.273c1.535-2.123,5.6-1.1,7.369.273" transform="translate(-67.371 -10.455)" fill="#3f3e66"/>
              <path id="Trazado_109203" data-name="Trazado 109203" d="M200.938,44.55a1.356,1.356,0,1,1-1.327-1.635,1.5,1.5,0,0,1,1.327,1.635" transform="translate(-62.16 -13.453)" fill="#3f3e66"/>
              <path id="Trazado_109204" data-name="Trazado 109204" d="M199.836,44.19a.428.428,0,1,1-.417-.526.482.482,0,0,1,.417.526" transform="translate(-62.386 -13.688)" fill="#fff"/>
              <path id="Trazado_109205" data-name="Trazado 109205" d="M219.639,44.55a1.356,1.356,0,1,1-1.327-1.635,1.5,1.5,0,0,1,1.327,1.635" transform="translate(-68.023 -13.453)" fill="#3f3e66"/>
              <path id="Trazado_109206" data-name="Trazado 109206" d="M218.537,44.19a.428.428,0,1,1-.417-.526.482.482,0,0,1,.417.526" transform="translate(-68.248 -13.688)" fill="#fff"/>
              <path id="Trazado_109207" data-name="Trazado 109207" d="M206.663,51.816a.474.474,0,0,1-.087-.008,2.238,2.238,0,0,1-1.632-.965,1.562,1.562,0,0,1-.047-1.369,9.252,9.252,0,0,1,.689-1.281,9.044,9.044,0,0,0,.634-1.165.472.472,0,1,1,.885.331,9.274,9.274,0,0,1-.708,1.32,9.09,9.09,0,0,0-.616,1.129.617.617,0,0,0-.013.571,1.421,1.421,0,0,0,.982.5.473.473,0,0,1-.087.937" transform="translate(-64.192 -14.647)" fill="#ad6253"/>
              <path id="Trazado_109208" data-name="Trazado 109208" d="M202.869,57a46.285,46.285,0,0,0,9.125-.33c-1.626,3.632-8.12,2.995-9.125.33" transform="translate(-63.598 -17.765)" fill="#fff"/>
              <path id="Trazado_109209" data-name="Trazado 109209" d="M67.455,7.02c-5.947,0-6.42,8.478-1.424,9.847l-.194,10.079c-.042,2.157,3.309,2.157,3.351,0q.1-5.121.2-10.243c4.447-1.784,3.818-9.683-1.93-9.683" transform="translate(-19.627 -2.201)" fill="#fd684a"/>
              <path id="Trazado_109210" data-name="Trazado 109210" d="M68.789,203.682a2.838,2.838,0,0,0-2.835,2.835V437.2a2.835,2.835,0,1,0,5.671,0V206.517a2.839,2.839,0,0,0-2.835-2.835" transform="translate(-20.676 -63.852)" fill="#fd684a"/>
              <path id="Trazado_109211" data-name="Trazado 109211" d="M72.585,493.321l-14.8.251a2.363,2.363,0,1,0,0,4.725l14.8-.251a2.363,2.363,0,1,0,0-4.725" transform="translate(-17.373 -154.652)" fill="#b23e32"/>
              <path id="Trazado_109212" data-name="Trazado 109212" d="M52.294,501.754a7.9,7.9,0,0,0-9.062-1.59c-2.938,1.387-4.367,4.6-4.634,7.677-.3,3.47,1.19,6.752,2.662,9.8a37.629,37.629,0,0,1,3.98,20.063c-.522,5.762-2.753,12.979-9,14.763a6.4,6.4,0,0,1-7.366-2.6,4.047,4.047,0,0,1-.384-3.724c.273-.608,1.391-1.753,2.176-1.14a2.439,2.439,0,0,0,3.341,0,2.378,2.378,0,0,0,0-3.341,6.3,6.3,0,0,0-9.407,1.753,8.752,8.752,0,0,0,.655,9.52,11.1,11.1,0,0,0,8.564,4.569,13.91,13.91,0,0,0,9.63-3.881c5.417-4.963,6.842-13.3,6.652-20.31a40.333,40.333,0,0,0-1.867-11.136c-1.127-3.522-3.105-6.664-4.3-10.142-.794-2.314-1.344-6.513,1.552-7.72a3.012,3.012,0,0,1,3.7,4.355c-1.515,2.643,2.566,5.026,4.08,2.386a7.964,7.964,0,0,0-.975-9.29" transform="translate(-7.364 -156.557)" fill="#3f3e66"/>
              <path id="Trazado_109213" data-name="Trazado 109213" d="M72.749,501.754a7.9,7.9,0,0,1,9.061-1.59c2.938,1.387,4.368,4.6,4.635,7.677.3,3.47-1.19,6.752-2.662,9.8A37.636,37.636,0,0,0,79.8,537.7c.522,5.762,2.753,12.979,9,14.763a6.4,6.4,0,0,0,7.366-2.6,4.051,4.051,0,0,0,.383-3.724c-.273-.608-1.391-1.753-2.176-1.14a2.44,2.44,0,0,1-3.342,0,2.379,2.379,0,0,1,0-3.341,6.3,6.3,0,0,1,9.407,1.753,8.752,8.752,0,0,1-.656,9.52,11.093,11.093,0,0,1-8.563,4.569,13.913,13.913,0,0,1-9.63-3.881c-5.417-4.963-6.842-13.3-6.652-20.31a40.334,40.334,0,0,1,1.867-11.136c1.126-3.522,3.105-6.664,4.3-10.142.794-2.314,1.344-6.513-1.553-7.72a3.012,3.012,0,0,0-3.7,4.355c1.514,2.643-2.567,5.026-4.081,2.386a7.965,7.965,0,0,1,.975-9.29" transform="translate(-22.169 -156.557)" fill="#3f3e66"/>
              <path id="Trazado_109214" data-name="Trazado 109214" d="M36.616,31.777a137.539,137.539,0,0,1,23.29-.56c3.627,12.956,33.226,10.808,36.321,28.408C92.246,62.9,85.7,63.076,85.7,63.076c6.544,14.416-14,35.259-8.7,62.971C93.4,146.33,87.854,171.92,87.854,171.92c-24.705,13.384-63.62,5.778-77.063-1.828-.177-28.3,10.967-42.983,10.967-42.983,4.068-23.88-17.512-38.738-12.205-62.264C1.061,62.545,0,56.885,0,56.885,9.2,39.727,29.186,44.6,36.616,31.777" transform="translate(0 -9.706)" fill="#9b956b"/>
              <path id="Trazado_109215" data-name="Trazado 109215" d="M47.3,45.8a.219.219,0,0,1-.069-.01c-1.221-.369-2.427-.79-3.588-1.252a.236.236,0,1,1,.175-.439c1.149.457,2.342.873,3.55,1.238a.236.236,0,0,1-.068.463" transform="translate(-13.636 -13.819)" fill="#fff"/>
              <path id="Trazado_109216" data-name="Trazado 109216" d="M66.3,49.126a47.581,47.581,0,0,1-4.9-.255.237.237,0,0,1,.049-.471,47.194,47.194,0,0,0,8.7.1.231.231,0,0,1,.255.216.235.235,0,0,1-.216.255c-1.282.106-2.59.16-3.886.16" transform="translate(-19.181 -15.173)" fill="#fff"/>
              <path id="Trazado_109217" data-name="Trazado 109217" d="M86.708,46.237a.236.236,0,0,1-.064-.464c1.208-.336,2.411-.728,3.577-1.162a.236.236,0,1,1,.165.443c-1.179.439-2.395.835-3.614,1.175a.259.259,0,0,1-.064.008" transform="translate(-27.108 -13.98)" fill="#fff"/>
              <path id="Trazado_109218" data-name="Trazado 109218" d="M69.986,40.887a.236.236,0,0,1-.236-.23q-.048-1.89-.1-3.779a.237.237,0,0,1,.23-.243.233.233,0,0,1,.243.23q.053,1.89.1,3.78a.236.236,0,0,1-.23.242Z" transform="translate(-21.834 -11.484)" fill="#fff"/>
              <path id="Trazado_109219" data-name="Trazado 109219" d="M68.84,172.65h-.009a.237.237,0,0,1-.227-.245q.153-3.948.291-7.9a.237.237,0,0,1,.236-.228h.009a.238.238,0,0,1,.228.244q-.138,3.95-.292,7.9a.236.236,0,0,1-.236.227m.55-15.8h-.007a.238.238,0,0,1-.229-.244q.123-3.951.227-7.9a.236.236,0,0,1,.236-.23h.007a.236.236,0,0,1,.229.243q-.105,3.949-.227,7.9a.237.237,0,0,1-.237.229m.422-15.8h-.005a.236.236,0,0,1-.231-.242q.09-3.95.163-7.9a.236.236,0,0,1,.236-.232h0a.237.237,0,0,1,.232.241q-.073,3.951-.163,7.9a.236.236,0,0,1-.236.231m.295-15.8h0a.236.236,0,0,1-.233-.24q.057-3.951.1-7.9a.243.243,0,0,1,.239-.233.236.236,0,0,1,.233.24q-.041,3.95-.1,7.9a.237.237,0,0,1-.236.233m.166-15.807h0a.235.235,0,0,1-.235-.238q.026-3.95.035-7.9a.237.237,0,0,1,.473,0q-.01,3.951-.036,7.9a.236.236,0,0,1-.236.234m.038-15.806a.237.237,0,0,1-.237-.236q-.006-3.951-.028-7.9a.236.236,0,0,1,.235-.238.22.22,0,0,1,.238.235q.023,3.951.029,7.9A.237.237,0,0,1,70.311,93.636Zm-.09-15.807a.236.236,0,0,1-.236-.234q-.038-3.95-.093-7.9a.236.236,0,0,1,.233-.24h0a.236.236,0,0,1,.236.233q.055,3.952.093,7.9a.235.235,0,0,1-.233.238ZM70,62.024a.236.236,0,0,1-.236-.232q-.07-3.949-.157-7.9a.236.236,0,0,1,.231-.242h.005a.236.236,0,0,1,.236.231q.087,3.952.157,7.9a.237.237,0,0,1-.232.241Z" transform="translate(-21.507 -16.819)" fill="#fff"/>
              <path id="Trazado_109220" data-name="Trazado 109220" d="M68.129,242.059h-.011a.236.236,0,0,1-.224-.246q.083-1.889.164-3.777a.221.221,0,0,1,.247-.226.238.238,0,0,1,.227.246q-.082,1.889-.167,3.777a.235.235,0,0,1-.235.226" transform="translate(-21.284 -74.551)" fill="#fff"/>
              <path id="Trazado_109221" data-name="Trazado 109221" d="M22.327,101.446a.253.253,0,0,1-.08-.014c-1.193-.43-2.384-.888-3.538-1.361a.236.236,0,0,1,.179-.437c1.149.47,2.333.926,3.52,1.354a.236.236,0,0,1-.08.459" transform="translate(-5.819 -31.229)" fill="#fff"/>
              <path id="Trazado_109222" data-name="Trazado 109222" d="M58.805,108.6c-2.062,0-4.148-.069-6.2-.206a.236.236,0,1,1,.032-.47c2.819.187,5.677.244,8.5.174h.006a.236.236,0,0,1,.006.472q-1.17.029-2.34.03m10.836-.632a.236.236,0,0,1-.028-.47c2.817-.332,5.64-.8,8.389-1.38a.236.236,0,1,1,.1.461c-2.763.588-5.6,1.055-8.431,1.387h-.028m-25.491-.526a.225.225,0,0,1-.037,0c-2.809-.447-5.624-1.031-8.368-1.734a.237.237,0,0,1-.17-.288.242.242,0,0,1,.288-.17c2.73.7,5.531,1.28,8.324,1.725a.236.236,0,0,1-.036.47" transform="translate(-11.15 -32.992)" fill="#fff"/>
              <path id="Trazado_109223" data-name="Trazado 109223" d="M109.357,103.274a.236.236,0,0,1-.071-.461c1.184-.372,2.386-.779,3.572-1.208a.24.24,0,0,1,.3.142.236.236,0,0,1-.141.3c-1.192.432-2.4.84-3.591,1.214a.233.233,0,0,1-.071.011" transform="translate(-34.208 -31.848)" fill="#fff"/>
              <path id="Trazado_109224" data-name="Trazado 109224" d="M39.976,173.371h-.025c-1.275-.13-2.54-.273-3.762-.426a.236.236,0,0,1,.059-.469c1.218.153,2.48.3,3.751.424a.236.236,0,0,1-.023.472" transform="translate(-11.28 -54.069)" fill="#fff"/>
              <path id="Trazado_109225" data-name="Trazado 109225" d="M60.944,174.509h0c-2.616-.019-5.26-.1-7.859-.239a.238.238,0,0,1-.223-.249c.008-.129.1-.207.249-.224,2.592.141,5.228.221,7.837.24a.236.236,0,0,1,0,.472m7.852-.134a.236.236,0,0,1-.01-.472c2.6-.106,5.228-.275,7.825-.5a.236.236,0,0,1,.042.471c-2.605.229-5.246.4-7.847.5Z" transform="translate(-16.571 -54.359)" fill="#fff"/>
              <path id="Trazado_109226" data-name="Trazado 109226" d="M98.745,172.35a.236.236,0,0,1-.032-.47c1.217-.165,2.473-.35,3.735-.551a.236.236,0,1,1,.075.467c-1.265.2-2.526.388-3.746.553l-.032,0" transform="translate(-30.882 -53.709)" fill="#fff"/>
              <path id="Trazado_109227" data-name="Trazado 109227" d="M55.142,43.711a.249.249,0,0,1-.1-.022.237.237,0,0,1-.115-.314q.788-1.7,1.58-3.4a.254.254,0,0,1,.321-.131.221.221,0,0,1,.122.3l-.015.033q-.791,1.7-1.578,3.4a.238.238,0,0,1-.215.137" transform="translate(-17.212 -12.486)" fill="#fff"/>
              <path id="Trazado_109228" data-name="Trazado 109228" d="M35.281,166.671a.237.237,0,0,1-.22-.323,36.726,36.726,0,0,1,2.112-4.416c.413-.74.879-1.541,1.47-2.518a.238.238,0,0,1,.325-.08.234.234,0,0,1,.08.323c-.587.974-1.052,1.77-1.462,2.505a36.236,36.236,0,0,0-2.084,4.358.238.238,0,0,1-.22.15m7.507-13.6a.234.234,0,0,1-.11-.027.236.236,0,0,1-.1-.319,29.876,29.876,0,0,0,2.217-5.276c.187-.623.35-1.267.485-1.915a.239.239,0,0,1,.279-.183.236.236,0,0,1,.183.279c-.138.661-.3,1.318-.5,1.954A30.3,30.3,0,0,1,43,152.947a.236.236,0,0,1-.209.126m3.2-14.989a.237.237,0,0,1-.236-.221,43.037,43.037,0,0,0-1.264-7.618.235.235,0,0,1,.172-.286.23.23,0,0,1,.288.172,43.605,43.605,0,0,1,1.277,7.7.236.236,0,0,1-.22.251h-.016M42.4,123.005a.236.236,0,0,1-.222-.157c-.457-1.284-.93-2.563-1.4-3.842-.426-1.153-.852-2.305-1.266-3.461a.236.236,0,1,1,.445-.159c.413,1.153.839,2.3,1.265,3.455.474,1.281.947,2.561,1.4,3.847a.235.235,0,0,1-.143.3.233.233,0,0,1-.08.014M37.38,108.3a.237.237,0,0,1-.229-.176c-.193-.737-.367-1.462-.518-2.157a51.36,51.36,0,0,1-.886-5.52.236.236,0,0,1,.21-.26.242.242,0,0,1,.259.211,50.916,50.916,0,0,0,.877,5.468c.15.689.323,1.408.514,2.138a.237.237,0,0,1-.169.289.3.3,0,0,1-.06.007M35.7,92.892H35.7a.236.236,0,0,1-.229-.244,68.451,68.451,0,0,1,.69-7.767.236.236,0,0,1,.468.068,67.991,67.991,0,0,0-.685,7.714.236.236,0,0,1-.236.229m2.182-15.366a.229.229,0,0,1-.056-.007.237.237,0,0,1-.173-.286c.233-.951.489-1.929.763-2.9.417-1.485.888-3.027,1.4-4.582a.236.236,0,1,1,.449.148c-.51,1.547-.979,3.082-1.394,4.561-.272.97-.527,1.941-.759,2.889a.237.237,0,0,1-.23.18M42.7,62.753a.242.242,0,0,1-.086-.016.236.236,0,0,1-.133-.306c.884-2.236,1.868-4.584,3.009-7.178a.236.236,0,0,1,.433.19c-1.139,2.59-2.121,4.932-3,7.161a.235.235,0,0,1-.22.15" transform="translate(-10.986 -17.277)" fill="#fff"/>
              <path id="Trazado_109229" data-name="Trazado 109229" d="M33.532,232.19a.236.236,0,0,1-.227-.17,13.91,13.91,0,0,1-.549-3.8.236.236,0,0,1,.234-.238h0a.236.236,0,0,1,.236.234,13.464,13.464,0,0,0,.529,3.667.237.237,0,0,1-.16.294.25.25,0,0,1-.067.009" transform="translate(-10.269 -71.472)" fill="#fff"/>
              <path id="Trazado_109230" data-name="Trazado 109230" d="M84.522,43.7a.238.238,0,0,1-.215-.137q-.794-1.717-1.594-3.43a.236.236,0,0,1,.115-.314.239.239,0,0,1,.314.114q.8,1.715,1.6,3.431a.237.237,0,0,1-.215.336" transform="translate(-25.923 -12.477)" fill="#fff"/>
              <path id="Trazado_109231" data-name="Trazado 109231" d="M100.223,166.671a.238.238,0,0,1-.22-.15,36.236,36.236,0,0,0-2.084-4.358c-.411-.737-.876-1.533-1.462-2.505a.236.236,0,0,1,.4-.244c.589.976,1.057,1.776,1.47,2.518a36.727,36.727,0,0,1,2.112,4.416.237.237,0,0,1-.22.323m-7.507-13.6a.236.236,0,0,1-.209-.126,30.253,30.253,0,0,1-2.252-5.36c-.192-.637-.358-1.294-.5-1.955a.236.236,0,0,1,.183-.279.24.24,0,0,1,.279.183c.135.647.3,1.291.485,1.915a29.856,29.856,0,0,0,2.218,5.276.237.237,0,0,1-.1.319.232.232,0,0,1-.11.027m-3.2-14.989H89.5a.235.235,0,0,1-.22-.251,43.606,43.606,0,0,1,1.277-7.7.23.23,0,0,1,.287-.172.235.235,0,0,1,.172.286,43.1,43.1,0,0,0-1.264,7.618.237.237,0,0,1-.235.221M93.1,123.005a.23.23,0,0,1-.08-.014.235.235,0,0,1-.143-.3c.457-1.286.93-2.566,1.4-3.847.426-1.151.851-2.3,1.265-3.455a.236.236,0,1,1,.445.159c-.414,1.155-.84,2.308-1.266,3.461-.473,1.278-.946,2.558-1.4,3.842a.236.236,0,0,1-.222.157m5.022-14.71a.3.3,0,0,1-.06-.007A.237.237,0,0,1,97.9,108c.192-.73.364-1.449.514-2.138a51.053,51.053,0,0,0,.877-5.467.236.236,0,1,1,.47.049,51.321,51.321,0,0,1-.886,5.519c-.151.7-.325,1.421-.518,2.158a.237.237,0,0,1-.229.176m1.678-15.4a.236.236,0,0,1-.236-.229,67.992,67.992,0,0,0-.685-7.714.236.236,0,0,1,.468-.068,68.45,68.45,0,0,1,.69,7.767.236.236,0,0,1-.229.244ZM97.619,77.526a.237.237,0,0,1-.23-.18c-.231-.947-.487-1.919-.759-2.889-.415-1.479-.884-3.014-1.394-4.561a.236.236,0,1,1,.449-.148c.512,1.555.983,3.1,1.4,4.582.273.975.53,1.952.763,2.9a.237.237,0,0,1-.173.286.229.229,0,0,1-.056.007M92.8,62.753a.235.235,0,0,1-.22-.15c-.881-2.229-1.863-4.571-3-7.161a.236.236,0,0,1,.433-.19c1.141,2.594,2.125,4.942,3.009,7.178a.236.236,0,0,1-.133.306.241.241,0,0,1-.086.016" transform="translate(-27.989 -17.277)" fill="#fff"/>
              <path id="Trazado_109232" data-name="Trazado 109232" d="M106.613,232.19a.25.25,0,0,1-.067-.009.237.237,0,0,1-.16-.294,13.427,13.427,0,0,0,.529-3.667.236.236,0,0,1,.236-.234h0a.236.236,0,0,1,.235.238,13.88,13.88,0,0,1-.549,3.8.236.236,0,0,1-.227.17" transform="translate(-33.348 -71.472)" fill="#fff"/>
              <path id="Trazado_109233" data-name="Trazado 109233" d="M53.3,30.475c1.946-4.609,21.978-4.963,23.29-.56.77,2.583-24.9,4.368-23.29.56" transform="translate(-16.687 -8.404)" fill="#fd684a"/>
              <path id="Trazado_109234" data-name="Trazado 109234" d="M33.769,39.732,45.625,85.085,39.7,162.842c-10.673,3.7-29.173-2.925-29.173-2.925l8.864-37.622L8.432,72.56l8.044-28.029Z" transform="translate(-2.643 -12.456)" fill="#4c4725"/>
              <path id="Trazado_109235" data-name="Trazado 109235" d="M38.978,40.927,38.79,71.548,43.638,76.7l-2.424,26.778,11.7,10.822,2.227-29.212L43.286,39.732Z" transform="translate(-12.16 -12.456)" fill="#ffba57"/>
              <g id="Grupo_57412" data-name="Grupo 57412" transform="translate(15.123 36.831)" opacity="0.5" style="mix-blend-mode: soft-light;isolation: isolate">
                <g id="Grupo_57411" data-name="Grupo 57411">
                  <g id="Grupo_57410" data-name="Grupo 57410" clip-path="url(#clip-path-3)">
                    <path id="Trazado_109236" data-name="Trazado 109236" d="M41.622,74.52c-3.043,9.87-9.549,16.626-14.531,15.089S20.537,78.827,23.58,68.958s9.549-16.626,14.531-15.09S44.665,64.65,41.622,74.52" transform="translate(-22.029 -53.65)" fill="#fff"/>
                  </g>
                </g>
              </g>
              <path id="Trazado_109237" data-name="Trazado 109237" d="M89.213,39.732,77.357,85.085l5.928,77.757c10.673,3.7,29.173-2.925,29.173-2.925l-8.864-37.622L114.549,72.56l-8.043-28.029Z" transform="translate(-24.251 -12.456)" fill="#4c4725"/>
              <path id="Trazado_109238" data-name="Trazado 109238" d="M93.522,40.927l.187,30.621L88.862,76.7l2.423,26.778L79.585,114.3,77.358,85.085,89.214,39.732Z" transform="translate(-24.251 -12.456)" fill="#ffba57"/>
              <path id="Trazado_109239" data-name="Trazado 109239" d="M162.256,125.954,112.017,95.2a4.649,4.649,0,0,0-5.294,7.624l46.37,36.324a8.047,8.047,0,0,0,9.924-12.67,8.253,8.253,0,0,0-.761-.529" transform="translate(-32.898 -29.631)" fill="#efad9c"/>
              <path id="Trazado_109240" data-name="Trazado 109240" d="M173.014,136.362a8.036,8.036,0,0,0,10.161.709l49.268-34.932a8.034,8.034,0,0,0-9.293-13.107l-49.267,34.932a8.045,8.045,0,0,0-.868,12.4" transform="translate(-53.448 -27.446)" fill="#efad9c"/>
              <path id="Trazado_109241" data-name="Trazado 109241" d="M190.055,141.553a.24.24,0,0,0,.166-.115.236.236,0,0,0-.087-.323l-7.8-4.53a.236.236,0,1,0-.238.408l7.8,4.53a.23.23,0,0,0,.157.03" transform="translate(-57.048 -42.808)" fill="#b56757"/>
              <path id="Trazado_109242" data-name="Trazado 109242" d="M100,88.864S94.168,73.3,92.491,72.691s-.115,10.3-.115,10.3-26.7-3.963-27.062-2.535,11.32,3.657,11.32,3.657-13.189-.82-13.235.713c-.041,1.388,13.665,3.023,13.665,3.023s-13.721.573-12.937,1.806,13.353,1.653,13.353,1.653S66.69,93.1,67.29,93.9s12.035,1.017,12.035,1.017c5.69.141,8.158,1.316,14.334,2.777,11.115,2.629,11.259-1.188,6.343-8.83" transform="translate(-19.875 -22.78)" fill="#efad9c"/>
              <path id="Trazado_109243" data-name="Trazado 109243" d="M216.65,83.936l4.786.366a9.254,9.254,0,0,1,7.743,5.451,9.417,9.417,0,0,1-3.128,11.509l-47.493,33.872A13.111,13.111,0,0,1,163.148,135l-16.813-12.44c4.183-10.207,9.814-13.341,9.814-13.341l14.317,8.523Z" transform="translate(-45.875 -26.313)" fill="#fd684a"/>
              <path id="Trazado_109244" data-name="Trazado 109244" d="M174.723,129.552a.5.5,0,0,1-.251-.069l-14.319-8.523a.49.49,0,0,1,.5-.842l14.038,8.356,9.7-7.1a.49.49,0,1,1,.577.792l-9.96,7.29a.5.5,0,0,1-.289.094" transform="translate(-50.132 -37.635)" fill="#b23e32"/>
              <path id="Trazado_109245" data-name="Trazado 109245" d="M156.28,147.987a.484.484,0,0,1-.291-.1l-10.169-7.526a.49.49,0,1,1,.581-.788l10.169,7.525a.49.49,0,0,1-.291.884" transform="translate(-45.651 -43.726)" fill="#b23e32"/>
              <path id="Trazado_109246" data-name="Trazado 109246" d="M231.748,125.172a.49.49,0,0,1-.285-.888l18.44-13.153a.49.49,0,1,1,.57.8L232.033,125.08a.476.476,0,0,1-.285.092" transform="translate(-72.497 -34.809)" fill="#b23e32"/>
              <path id="Trazado_109247" data-name="Trazado 109247" d="M181.618,161.457a9.882,9.882,0,0,1-1.433-.1.487.487,0,0,1-.413-.555.477.477,0,0,1,.555-.414,12.167,12.167,0,0,0,7.78-1.866.49.49,0,1,1,.559.8,13.2,13.2,0,0,1-7.047,2.132" transform="translate(-56.355 -49.668)" fill="#b23e32"/>
            </g>
          </g>
        </g>
      </g>
    </g>
  </g>
</svg>
