<svg xmlns="http://www.w3.org/2000/svg" xmlns:xlink="http://www.w3.org/1999/xlink" width="78" height="78" viewBox="0 0 78 78">
  <defs>
    <clipPath id="clip-path">
      <rect id="Rectángulo_6497" data-name="Rectángulo 6497" width="78" height="78" transform="translate(522 2726)" fill="#fff"/>
    </clipPath>
  </defs>
  <g id="Enmascarar_grupo_63" data-name="Enmascarar grupo 63" transform="translate(-522 -2726)" clip-path="url(#clip-path)">
    <g id="capas" transform="translate(522 2726)">
      <g id="Grupo_57495" data-name="Grupo 57495">
        <path id="Trazado_109465" data-name="Trazado 109465" d="M74.913,56.831,42.453,75.78a6.853,6.853,0,0,1-6.907,0L3.086,56.831a3.919,3.919,0,0,1,0-6.77l1.287-.752,31.172-18.2a6.853,6.853,0,0,1,6.907,0l31.172,18.2,1.287.752A3.919,3.919,0,0,1,74.913,56.831Z" fill="#dd646e"/>
        <path id="Trazado_109466" data-name="Trazado 109466" d="M73.626,49.31l-31.172,18.2a6.853,6.853,0,0,1-6.907,0L4.374,49.31l31.172-18.2a6.853,6.853,0,0,1,6.907,0Z" fill="#da515d"/>
        <path id="Trazado_109467" data-name="Trazado 109467" d="M74.913,43.736,42.453,62.683a6.853,6.853,0,0,1-6.907,0L3.086,43.736a3.921,3.921,0,0,1,0-6.772l11.486-6.7L35.546,18.018a6.853,6.853,0,0,1,6.907,0L71.368,34.9l3.545,2.069A3.921,3.921,0,0,1,74.913,43.736Z" fill="#b1e39e"/>
        <path id="Trazado_109468" data-name="Trazado 109468" d="M71.368,34.9,42.452,51.772a6.843,6.843,0,0,1-6.905,0l-11.48-6.7-4.968-2.9-.006,0a6.39,6.39,0,0,1-3.128-4.749l-1.392-7.159L35.546,18.017a6.853,6.853,0,0,1,6.907,0Z" fill="#93d4a2"/>
        <path id="Trazado_109469" data-name="Trazado 109469" d="M12.669,15.575l3.3,16.957a6.39,6.39,0,0,0,3.128,4.749l.006,0,4.968,2.9,11.48,6.7a6.843,6.843,0,0,0,6.905,0L74.914,27.939a3.919,3.919,0,0,0,0-6.77L42.452,2.22a6.85,6.85,0,0,0-6.905,0Z" fill="#ecf7f7"/>
        <path id="Trazado_109470" data-name="Trazado 109470" d="M15.968,32.544l0-.012" fill="#ecf7f7"/>
        <g id="Grupo_57494" data-name="Grupo 57494">
          <path id="Trazado_109471" data-name="Trazado 109471" d="M15.964,32.524a6.392,6.392,0,0,1,1.368-4.8L19.6,24.9l2.428-3.023a2.82,2.82,0,0,0-1.567-4.514l-7.793-1.79Z" fill="#daf0f4"/>
          <path id="Trazado_109472" data-name="Trazado 109472" d="M15.965,32.531l0-.008" fill="#daf0f4"/>
          <path id="Trazado_109473" data-name="Trazado 109473" d="M15.968,32.543l0-.012,0-.008" fill="#daf0f4"/>
        </g>
      </g>
      <g id="Grupo_57496" data-name="Grupo 57496">
        <path id="Trazado_109474" data-name="Trazado 109474" d="M75.49,49.075,71.761,46.9l3.728-2.176a5.063,5.063,0,0,0,0-8.745l-6.041-3.526,6.041-3.526a5.062,5.062,0,0,0,0-8.744l-2.211-1.29a1.143,1.143,0,1,0-1.152,1.973l2.211,1.29a2.777,2.777,0,0,1,0,4.8L41.876,45.9a5.712,5.712,0,0,1-5.753,0L19.713,36.32l-.012-.007-.03-.019A5.267,5.267,0,0,1,17.148,32.7q-.025-.134-.042-.268c0-.021,0-.041-.008-.062a5.268,5.268,0,0,1,1.125-3.928l4.7-5.849a3.962,3.962,0,0,0-2.2-6.343l-4.981-1.144,20.385-11.9a5.718,5.718,0,0,1,5.754,0L68.227,18.587a1.143,1.143,0,1,0,1.152-1.973L43.028,1.233a8.008,8.008,0,0,0-8.058,0L12.108,14.58l-.011.007,0,0,0,0a1.137,1.137,0,0,0-.542,1.2l2.6,13.39L2.51,35.978a5.063,5.063,0,0,0,0,8.745L6.239,46.9,2.51,49.075a5.062,5.062,0,0,0,0,8.744l15.376,8.976a1.143,1.143,0,1,0,1.152-1.973L3.663,55.845a2.777,2.777,0,0,1,0-4.8l4.843-2.826L34.971,63.67a8.008,8.008,0,0,0,8.058,0L69.495,48.222l4.843,2.827a2.777,2.777,0,0,1,0,4.8L41.878,74.793a5.722,5.722,0,0,1-5.756,0L22.981,67.122A1.143,1.143,0,0,0,21.829,69.1l13.142,7.672a8.011,8.011,0,0,0,8.059,0L75.49,57.819a5.062,5.062,0,0,0,0-8.744Zm-55.283-30.6a1.677,1.677,0,0,1,.932,2.684l-4.7,5.849q-.16.2-.3.407l-2.01-10.337ZM41.877,61.7a5.719,5.719,0,0,1-5.755,0L9.1,45.924l-.008,0L3.663,42.75a2.778,2.778,0,0,1,0-4.8L14.613,31.56l.225,1.158q.026.2.062.4a7.551,7.551,0,0,0,3.582,5.132l.041.025,4.968,2.9.009,0,11.47,6.7a8,8,0,0,0,8.058,0l24.153-14.1,7.155,4.177a2.778,2.778,0,0,1,0,4.8Z"/>
        <path id="Trazado_109475" data-name="Trazado 109475" d="M43.962,55.2a1.143,1.143,0,0,0,.577,2.13,1.129,1.129,0,0,0,.574-.157A1.142,1.142,0,1,0,43.962,55.2Z"/>
        <path id="Trazado_109476" data-name="Trazado 109476" d="M23.184,48.869a1.143,1.143,0,1,0,.411,1.563,1.144,1.144,0,0,0-.411-1.563Z"/>
        <path id="Trazado_109477" data-name="Trazado 109477" d="M49.39,52.036a1.143,1.143,0,1,0,1.563.411,1.144,1.144,0,0,0-1.563-.411Z"/>
        <path id="Trazado_109478" data-name="Trazado 109478" d="M34.04,55.206a1.143,1.143,0,0,0-1.153,1.973,1.131,1.131,0,0,0,.576.157,1.143,1.143,0,0,0,.577-2.13Z"/>
        <path id="Trazado_109479" data-name="Trazado 109479" d="M39,57.92a1.143,1.143,0,1,0,1.143,1.143A1.143,1.143,0,0,0,39,57.92Z"/>
        <path id="Trazado_109480" data-name="Trazado 109480" d="M28.612,52.038a1.143,1.143,0,1,0,.41,1.563A1.142,1.142,0,0,0,28.612,52.038Z"/>
        <path id="Trazado_109481" data-name="Trazado 109481" d="M17.756,45.7a1.142,1.142,0,1,0,.411,1.562,1.143,1.143,0,0,0-.411-1.562Z"/>
        <path id="Trazado_109482" data-name="Trazado 109482" d="M60.246,45.7a1.143,1.143,0,0,0,.576,2.13,1.131,1.131,0,0,0,.576-.157A1.142,1.142,0,1,0,60.246,45.7Z"/>
        <path id="Trazado_109483" data-name="Trazado 109483" d="M12.328,42.533a1.142,1.142,0,1,0-1.152,1.973,1.129,1.129,0,0,0,.574.157,1.143,1.143,0,0,0,.577-2.13Z"/>
        <path id="Trazado_109484" data-name="Trazado 109484" d="M65.674,42.531a1.143,1.143,0,1,0,1.562.411A1.142,1.142,0,0,0,65.674,42.531Z"/>
        <path id="Trazado_109485" data-name="Trazado 109485" d="M54.818,48.869A1.143,1.143,0,0,0,55.4,51a1.129,1.129,0,0,0,.574-.157,1.142,1.142,0,1,0-1.152-1.973Z"/>
        <path id="Trazado_109486" data-name="Trazado 109486" d="M49.687,46.588A1.143,1.143,0,1,0,51.25,47,1.143,1.143,0,0,0,49.687,46.588Z"/>
        <path id="Trazado_109487" data-name="Trazado 109487" d="M60.951,40.015a1.142,1.142,0,1,0,1.563.41A1.14,1.14,0,0,0,60.951,40.015Z"/>
        <path id="Trazado_109488" data-name="Trazado 109488" d="M55.319,43.3a1.143,1.143,0,1,0,1.563.411A1.142,1.142,0,0,0,55.319,43.3Z"/>
        <path id="Trazado_109489" data-name="Trazado 109489" d="M44.056,49.876a1.143,1.143,0,1,0,1.562.411A1.142,1.142,0,0,0,44.056,49.876Z"/>
        <path id="Trazado_109490" data-name="Trazado 109490" d="M32.792,51.85a1.143,1.143,0,1,0-.411-1.563A1.143,1.143,0,0,0,32.792,51.85Z"/>
        <path id="Trazado_109491" data-name="Trazado 109491" d="M27.734,48.718a1.142,1.142,0,1,0-.574-.155,1.144,1.144,0,0,0,.574.155Z"/>
        <path id="Trazado_109492" data-name="Trazado 109492" d="M17.459,41.576a1.144,1.144,0,1,0-.987.567A1.141,1.141,0,0,0,17.459,41.576Z"/>
        <path id="Trazado_109493" data-name="Trazado 109493" d="M22.1,45.43a1.141,1.141,0,1,0-.576-.155A1.14,1.14,0,0,0,22.1,45.43Z"/>
        <path id="Trazado_109494" data-name="Trazado 109494" d="M11.417,36.726A1.142,1.142,0,1,0,10.265,38.7a1.129,1.129,0,0,0,.574.157,1.143,1.143,0,0,0,.577-2.13Z"/>
        <path id="Trazado_109495" data-name="Trazado 109495" d="M6.84,39.327A1.142,1.142,0,1,0,5.689,41.3a1.129,1.129,0,0,0,.574.157,1.143,1.143,0,0,0,.577-2.13Z"/>
        <path id="Trazado_109496" data-name="Trazado 109496" d="M39.577,53.163a1.142,1.142,0,1,0-1.152,1.973,1.129,1.129,0,0,0,.574.157,1.143,1.143,0,0,0,.577-2.13Z"/>
        <path id="Trazado_109497" data-name="Trazado 109497" d="M72.255,39.363A1.142,1.142,0,1,0,71.1,41.335a1.129,1.129,0,0,0,.574.157,1.143,1.143,0,0,0,.577-2.13Z"/>
        <path id="Trazado_109498" data-name="Trazado 109498" d="M67.737,36.725A1.142,1.142,0,1,0,66.585,38.7a1.129,1.129,0,0,0,.574.157,1.143,1.143,0,0,0,.577-2.13Z"/>
      </g>
    </g>
  </g>
</svg>
