<svg xmlns="http://www.w3.org/2000/svg" width="504.942" height="252.206" viewBox="0 0 504.942 252.206">
  <g id="Grupo_57157" data-name="Grupo 57157" transform="translate(2506.309 -290.676)">
    <g id="Rectángulo_5869" data-name="Rectángulo 5869" transform="translate(-2421.31 338.186)" fill="none" stroke="#ff8a5b" stroke-width="2">
      <rect width="338" height="191" rx="22" stroke="none"/>
      <rect x="1" y="1" width="336" height="189" rx="21" fill="none"/>
    </g>
    <rect id="Rectángulo_5864" data-name="Rectángulo 5864" width="119.906" height="38.064" rx="6.012" transform="translate(-2506.309 435.953)" fill="#dbfafa"/>
    <rect id="Rectángulo_5865" data-name="Rectángulo 5865" width="119.906" height="27.684" rx="5.127" transform="translate(-2313.32 515.198)" fill="#dbfafa"/>
    <rect id="Rectángulo_5866" data-name="Rectángulo 5866" width="273.407" height="27.684" rx="6.404" transform="translate(-2379.717 324.595)" fill="#dbfafa"/>
    <rect id="Rectángulo_5867" data-name="Rectángulo 5867" width="119.906" height="38.064" rx="6.012" transform="translate(-2121.273 435.581)" fill="#dbfafa"/>
    <g id="Grupo_57145" data-name="Grupo 57145">
      <path id="Trazado_108465" data-name="Trazado 108465" d="M-2204.07,383.032H-2255.8v-4.24a3.07,3.07,0,0,0-3.061-3.062h-27.794a3.071,3.071,0,0,0-3.062,3.062v4.24h-2.262a4.819,4.819,0,0,0-4.8,4.8v66.235a4.819,4.819,0,0,0,4.8,4.8h87.905a4.819,4.819,0,0,0,4.805-4.8V387.837A4.82,4.82,0,0,0-2204.07,383.032Z" fill="#25ced1"/>
      <rect id="Rectángulo_5868" data-name="Rectángulo 5868" width="87.307" height="63.125" rx="5.544" transform="translate(-2291.676 390.805)" fill="#fff"/>
      <path id="Trazado_108466" data-name="Trazado 108466" d="M-2203.317,458.876h-89.411a5.289,5.289,0,0,1-4.91-4.039L-2307.379,409a3.2,3.2,0,0,1,3.2-4.064h89.7a5.276,5.276,0,0,1,4.905,4.064l9.474,45.836A3.2,3.2,0,0,1-2203.317,458.876Z" fill="#25ced1"/>
      <g id="Grupo_57144" data-name="Grupo 57144">
        <path id="Trazado_108467" data-name="Trazado 108467" d="M-2274.2,432.04h-2.009l-2.659-10.971h7.048l.4,1.694h-5.015l.686,2.847h4.278l.4,1.681h-4.272Z"/>
        <path id="Trazado_108468" data-name="Trazado 108468" d="M-2267.456,432.04l-2.583-10.971h2.026l2.566,10.971Z"/>
        <path id="Trazado_108469" data-name="Trazado 108469" d="M-2259.638,422.573a3.686,3.686,0,0,0-1.463.272,2.4,2.4,0,0,0-1.016.791,2.769,2.769,0,0,0-.485,1.28,4.828,4.828,0,0,0,.12,1.736,6.064,6.064,0,0,0,.647,1.7,4.47,4.47,0,0,0,1.012,1.221,4.1,4.1,0,0,0,1.331.739,5.074,5.074,0,0,0,1.614.248,8.106,8.106,0,0,0,1.25-.1,6.39,6.39,0,0,0,1.151-.286l.388,1.718a7.982,7.982,0,0,1-1.181.256,9.473,9.473,0,0,1-1.356.094,7.788,7.788,0,0,1-2.543-.395,6.46,6.46,0,0,1-2.025-1.115,6.422,6.422,0,0,1-1.468-1.729,7.919,7.919,0,0,1-.875-2.23,6.661,6.661,0,0,1-.158-2.332,4.182,4.182,0,0,1,.673-1.87,3.646,3.646,0,0,1,1.524-1.248,5.668,5.668,0,0,1,2.355-.463,9.27,9.27,0,0,1,1.354.1,7.554,7.554,0,0,1,1.194.268l.387,1.717a9.506,9.506,0,0,0-1.3-.288A8.185,8.185,0,0,0-2259.638,422.573Z"/>
        <path id="Trazado_108470" data-name="Trazado 108470" d="M-2252.427,425.61h5.111l-.991-4.541h2.026l2.378,10.971h-2.009l-1.037-4.749h-5.1l1.056,4.749h-2.009l-2.457-10.971h2.026Z"/>
        <path id="Trazado_108471" data-name="Trazado 108471" d="M-2235.58,429.262h-4.141l-.483,2.778h-2.14l2.027-10.971h1.854l6.665,10.971h-2.124Zm-3.256-5.535q-.215,1.728-.422,2.883l-.169.977h2.846l-.582-.977q-.693-1.165-1.64-2.883Z"/>
        <path id="Trazado_108472" data-name="Trazado 108472" d="M-2278.4,446.868h-1.985l-2.253-9.06h-3.526l-.416-1.653h9.057l.4,1.653h-3.518Z"/>
        <path id="Trazado_108473" data-name="Trazado 108473" d="M-2271.77,445.239h5.34l.386,1.629h-7.318l-2.6-10.713h7.087l.393,1.653h-5.078l.671,2.781h4.35l.39,1.641h-4.344Zm.848-11.658-1.077,2h-1.538l.649-2Z"/>
        <path id="Trazado_108474" data-name="Trazado 108474" d="M-2260.8,437.623a3.665,3.665,0,0,0-1.445.266,2.365,2.365,0,0,0-1,.772,2.685,2.685,0,0,0-.478,1.25,4.66,4.66,0,0,0,.12,1.695,5.9,5.9,0,0,0,.641,1.659,4.394,4.394,0,0,0,1,1.193,4.074,4.074,0,0,0,1.316.721,5.049,5.049,0,0,0,1.595.243,8.058,8.058,0,0,0,1.236-.1,6.263,6.263,0,0,0,1.137-.279l.385,1.678a7.96,7.96,0,0,1-1.167.25,9.414,9.414,0,0,1-1.34.092,7.777,7.777,0,0,1-2.513-.386,6.391,6.391,0,0,1-2-1.089,6.3,6.3,0,0,1-1.452-1.688,7.659,7.659,0,0,1-.866-2.178,6.446,6.446,0,0,1-.159-2.277,4.051,4.051,0,0,1,.664-1.826,3.581,3.581,0,0,1,1.5-1.218,5.645,5.645,0,0,1,2.327-.452,9.2,9.2,0,0,1,1.338.093,7.386,7.386,0,0,1,1.18.262l.385,1.677a9.4,9.4,0,0,0-1.281-.282A8.141,8.141,0,0,0-2260.8,437.623Z"/>
        <path id="Trazado_108475" data-name="Trazado 108475" d="M-2249.86,441.158q1.538,1.641,2.55,2.909h.049q-.56-2.083-.771-3.038l-1.081-4.874h2l2.357,10.713h-2.083l-4.636-4.909q-1.224-1.283-2.609-2.976h-.048q.543,1.975.787,3.055l1.092,4.83h-1.985l-2.439-10.713h2.1Z"/>
        <path id="Trazado_108476" data-name="Trazado 108476" d="M-2242.159,446.868l-2.335-10.713h2l2.318,10.713Z"/>
        <path id="Trazado_108477" data-name="Trazado 108477" d="M-2234.246,437.623a3.71,3.71,0,0,0-1.451.266,2.425,2.425,0,0,0-1.019.772,2.726,2.726,0,0,0-.5,1.25,4.615,4.615,0,0,0,.084,1.695,5.783,5.783,0,0,0,.606,1.659,4.27,4.27,0,0,0,.975,1.193,3.975,3.975,0,0,0,1.3.721,5,5,0,0,0,1.589.243,8.092,8.092,0,0,0,1.238-.1,6.352,6.352,0,0,0,1.143-.279l.349,1.678a8.072,8.072,0,0,1-1.171.25,9.466,9.466,0,0,1-1.343.092,7.707,7.707,0,0,1-2.505-.386,6.228,6.228,0,0,1-1.979-1.089,6.131,6.131,0,0,1-1.417-1.688,7.491,7.491,0,0,1-.82-2.178,6.382,6.382,0,0,1-.11-2.277,4.134,4.134,0,0,1,.7-1.826,3.694,3.694,0,0,1,1.53-1.218,5.712,5.712,0,0,1,2.337-.452,9.17,9.17,0,0,1,1.336.093,7.286,7.286,0,0,1,1.174.262l.349,1.677a9.2,9.2,0,0,0-1.275-.282A8.092,8.092,0,0,0-2234.246,437.623Z"/>
        <path id="Trazado_108478" data-name="Trazado 108478" d="M-2222.218,444.155h-4.092l-.507,2.713h-2.115l2.119-10.713h1.831l6.473,10.713h-2.1Zm-3.16-5.406q-.231,1.688-.447,2.816l-.178.954h2.813l-.565-.954q-.672-1.139-1.59-2.816Z"/>
      </g>
    </g>
    <path id="Trazado_108555" data-name="Trazado 108555" d="M-99.98-1.148h5.359V0h-6.633V-10.453h6.344V-9.3h-5.07V-5.93h4.508v1.148H-99.98Zm8.188-2.516a4.081,4.081,0,0,0,.211,1.43,2.3,2.3,0,0,0,.535.863,1.737,1.737,0,0,0,.707.422,2.562,2.562,0,0,0,.727.113,2.492,2.492,0,0,0,1.055-.227,2.835,2.835,0,0,0,.867-.617V-5.562a2.738,2.738,0,0,0-.281-.32,2.468,2.468,0,0,0-.418-.332,2.556,2.556,0,0,0-.543-.258,2.018,2.018,0,0,0-.664-.105,2.016,2.016,0,0,0-.949.215,1.967,1.967,0,0,0-.687.6,2.731,2.731,0,0,0-.418.918A4.654,4.654,0,0,0-91.793-3.664Zm-1.266.1a5.216,5.216,0,0,1,.28-1.8,3.757,3.757,0,0,1,.74-1.262,2.963,2.963,0,0,1,1.051-.746,3.153,3.153,0,0,1,1.222-.246,2.86,2.86,0,0,1,.841.125,2.442,2.442,0,0,1,.607.285,2.128,2.128,0,0,1,.393.328,2.072,2.072,0,0,1,.23.3h.031l.249-.844h.911V3.633h-1.188V-.687h-.023a2.619,2.619,0,0,1-.926.66A3.079,3.079,0,0,1-89.848.2a3.51,3.51,0,0,1-.672-.07,3.1,3.1,0,0,1-.719-.238,3.1,3.1,0,0,1-.687-.445,2.742,2.742,0,0,1-.578-.7,3.859,3.859,0,0,1-.4-.988A5.14,5.14,0,0,1-93.059-3.562ZM-81.27.2A3.973,3.973,0,0,1-82.309.07a2.824,2.824,0,0,1-.809-.352,2.354,2.354,0,0,1-.59-.543,2.678,2.678,0,0,1-.383-.691,2.745,2.745,0,0,1-.156-.617,5.332,5.332,0,0,1-.047-.734V-7.422h1.211v4.547a2.816,2.816,0,0,0,.164,1.031,1.535,1.535,0,0,0,.605.738,1.934,1.934,0,0,0,1.066.27,1.87,1.87,0,0,0,1.105-.3,1.626,1.626,0,0,0,.6-.8,2.911,2.911,0,0,0,.133-.945V-7.422H-78.2v4.563a5.333,5.333,0,0,1-.043.7,3.1,3.1,0,0,1-.137.6,2.707,2.707,0,0,1-.387.707,2.393,2.393,0,0,1-.605.559A2.917,2.917,0,0,1-80.2.066,4.057,4.057,0,0,1-81.27.2Zm5.414-.2V-7.422h1.211V0Zm-.031-9.148V-10.5h1.211v1.352Zm8.977,5.367a4.523,4.523,0,0,0-.138-1.164,2.511,2.511,0,0,0-.412-.879,1.86,1.86,0,0,0-.676-.559,2.092,2.092,0,0,0-.927-.2,2.2,2.2,0,0,0-.688.1,2.579,2.579,0,0,0-.562.258,2.425,2.425,0,0,0-.432.336,3.556,3.556,0,0,0-.291.32V-1.68a2.966,2.966,0,0,0,.876.617A2.492,2.492,0,0,0-69.1-.836a2.3,2.3,0,0,0,.731-.129,1.8,1.8,0,0,0,.711-.461,2.526,2.526,0,0,0,.538-.9A4.222,4.222,0,0,0-66.91-3.781Zm1.266-.016A5.55,5.55,0,0,1-65.8-2.426a4.279,4.279,0,0,1-.4,1.043,2.888,2.888,0,0,1-.589.746,3.3,3.3,0,0,1-.7.484,3.071,3.071,0,0,1-.734.266,3.274,3.274,0,0,1-.7.082,2.9,2.9,0,0,1-1.185-.223,2.7,2.7,0,0,1-.9-.66h-.023v4.32h-1.188V-7.422h.914l.258.844h.023a1.632,1.632,0,0,1,.262-.3,2.879,2.879,0,0,1,.43-.316,3.008,3.008,0,0,1,.648-.293,2.617,2.617,0,0,1,.824-.125,3.516,3.516,0,0,1,1.207.211,2.688,2.688,0,0,1,1.027.672,3.373,3.373,0,0,1,.715,1.184A5.037,5.037,0,0,1-65.645-3.8Zm7.266.094a4.082,4.082,0,0,0-.168-1.223,2.712,2.712,0,0,0-.469-.906,1.984,1.984,0,0,0-.715-.562,2.133,2.133,0,0,0-.906-.191,2.133,2.133,0,0,0-.906.191,1.984,1.984,0,0,0-.715.563,2.712,2.712,0,0,0-.469.906A4.082,4.082,0,0,0-62.895-3.7a4.053,4.053,0,0,0,.168,1.215,2.627,2.627,0,0,0,.473.9,2.038,2.038,0,0,0,.719.559,2.133,2.133,0,0,0,.906.191,2.107,2.107,0,0,0,.9-.191,2.012,2.012,0,0,0,.711-.559,2.667,2.667,0,0,0,.469-.9A4.053,4.053,0,0,0-58.379-3.7Zm1.266,0a4.826,4.826,0,0,1-.25,1.594,3.6,3.6,0,0,1-.707,1.23,3.134,3.134,0,0,1-1.105.793A3.616,3.616,0,0,1-60.629.2a3.706,3.706,0,0,1-1.48-.281,3.126,3.126,0,0,1-1.109-.793,3.5,3.5,0,0,1-.7-1.23A4.968,4.968,0,0,1-64.16-3.7a4.852,4.852,0,0,1,.25-1.6A3.638,3.638,0,0,1-63.2-6.539a3.1,3.1,0,0,1,1.109-.8,3.644,3.644,0,0,1,1.457-.281,3.714,3.714,0,0,1,1.477.281,3.059,3.059,0,0,1,1.109.8,3.573,3.573,0,0,1,.7,1.234A5,5,0,0,1-57.113-3.7ZM-48.082.016a2.515,2.515,0,0,1-.477.117A5.161,5.161,0,0,1-49.324.2,3.194,3.194,0,0,1-50.34.051a1.909,1.909,0,0,1-.715-.414,1.681,1.681,0,0,1-.426-.652,2.454,2.454,0,0,1-.141-.852V-6.383h-1.43V-7.422h1.43V-9.453h1.211v2.031h2.219v1.039H-50.41v4.328a1.475,1.475,0,0,0,.074.477A.968.968,0,0,0-50.1-1.2a1.092,1.092,0,0,0,.41.25,1.785,1.785,0,0,0,.6.09A3.573,3.573,0,0,0-48.578-.9a4.058,4.058,0,0,0,.5-.1Zm6.273-11.523-1.258,2.727h-1.016l.961-2.727Zm-1.748,4.93a1.856,1.856,0,0,0-.779.164,2.021,2.021,0,0,0-.629.445,2.256,2.256,0,0,0-.435.66,2.591,2.591,0,0,0-.206.809h3.8a2.805,2.805,0,0,0-.115-.816,1.983,1.983,0,0,0-.336-.66,1.571,1.571,0,0,0-.546-.441A1.677,1.677,0,0,0-43.557-6.578Zm.639,5.719a5.7,5.7,0,0,0,1.1-.1,6.592,6.592,0,0,0,.988-.277V-.227a3.955,3.955,0,0,1-.984.309A6.625,6.625,0,0,1-43.074.2a5.34,5.34,0,0,1-1.5-.2,3.1,3.1,0,0,1-1.211-.656,3.049,3.049,0,0,1-.8-1.184,4.784,4.784,0,0,1-.289-1.762,5,5,0,0,1,.281-1.762,3.71,3.71,0,0,1,.748-1.246,3.048,3.048,0,0,1,1.075-.75,3.308,3.308,0,0,1,1.27-.25,3.235,3.235,0,0,1,1.165.207,2.387,2.387,0,0,1,.939.652,3.188,3.188,0,0,1,.627,1.148,5.461,5.461,0,0,1,.23,1.688v.16q0,.066-.008.3h-5.125a3.032,3.032,0,0,0,.215,1.207,2.121,2.121,0,0,0,.586.8A2.33,2.33,0,0,0-44-1,3.968,3.968,0,0,0-42.918-.859Zm7.625-6.758a4.585,4.585,0,0,1,1.031.113,3.049,3.049,0,0,1,.844.316V-6.18a6.771,6.771,0,0,0-.906-.281,3.809,3.809,0,0,0-.844-.094,2.825,2.825,0,0,0-.9.148,2.084,2.084,0,0,0-.8.488,2.45,2.45,0,0,0-.566.9,3.888,3.888,0,0,0-.215,1.387,3.672,3.672,0,0,0,.16,1.109,2.492,2.492,0,0,0,.477.879,2.15,2.15,0,0,0,.793.578,2.743,2.743,0,0,0,1.1.207,4.4,4.4,0,0,0,.914-.1,5.193,5.193,0,0,0,.9-.277V-.227a2.144,2.144,0,0,1-.348.156,3.941,3.941,0,0,1-.473.137,5.424,5.424,0,0,1-.547.094A4.784,4.784,0,0,1-35.246.2a4.385,4.385,0,0,1-1.418-.227,3.179,3.179,0,0,1-1.168-.7,3.272,3.272,0,0,1-.789-1.187,4.553,4.553,0,0,1-.289-1.7,5.255,5.255,0,0,1,.152-1.32,3.937,3.937,0,0,1,.418-1.031,3.141,3.141,0,0,1,.621-.758,3.5,3.5,0,0,1,.758-.512,3.469,3.469,0,0,1,.832-.289A4.08,4.08,0,0,1-35.293-7.617Zm5,1.227h.023a3.912,3.912,0,0,1,.449-.48,2.913,2.913,0,0,1,.551-.391,2.855,2.855,0,0,1,.668-.262,3.169,3.169,0,0,1,.793-.094,3.148,3.148,0,0,1,.953.141,1.962,1.962,0,0,1,.773.453,2.17,2.17,0,0,1,.52.816,3.505,3.505,0,0,1,.191,1.238V0h-1.211V-4.773a2.077,2.077,0,0,0-.371-1.383,1.364,1.364,0,0,0-1.082-.422,2.343,2.343,0,0,0-1.211.348,3.226,3.226,0,0,0-1.008.957V0h-1.211V-7.422h.938ZM-22.949,0V-7.422h1.211V0Zm-.031-9.148V-10.5h1.211v1.352Zm6.852,1.531A4.585,4.585,0,0,1-15.1-7.5a3.049,3.049,0,0,1,.844.316V-6.18a6.771,6.771,0,0,0-.906-.281A3.809,3.809,0,0,0-16-6.555a2.825,2.825,0,0,0-.9.148,2.084,2.084,0,0,0-.8.488,2.45,2.45,0,0,0-.566.9,3.888,3.888,0,0,0-.215,1.387,3.672,3.672,0,0,0,.16,1.109,2.492,2.492,0,0,0,.477.879,2.15,2.15,0,0,0,.793.578,2.743,2.743,0,0,0,1.1.207,4.4,4.4,0,0,0,.914-.1,5.193,5.193,0,0,0,.9-.277V-.227a2.144,2.144,0,0,1-.348.156,3.941,3.941,0,0,1-.473.137A5.424,5.424,0,0,1-15.5.16,4.784,4.784,0,0,1-16.082.2,4.385,4.385,0,0,1-17.5-.031a3.179,3.179,0,0,1-1.168-.7,3.272,3.272,0,0,1-.789-1.187,4.553,4.553,0,0,1-.289-1.7,5.255,5.255,0,0,1,.152-1.32,3.937,3.937,0,0,1,.418-1.031,3.141,3.141,0,0,1,.621-.758,3.5,3.5,0,0,1,.758-.512,3.468,3.468,0,0,1,.832-.289A4.08,4.08,0,0,1-16.129-7.617ZM-6.949-3.7a4.082,4.082,0,0,0-.168-1.223,2.712,2.712,0,0,0-.469-.906A1.984,1.984,0,0,0-8.3-6.395a2.133,2.133,0,0,0-.906-.191,2.133,2.133,0,0,0-.906.191,1.984,1.984,0,0,0-.715.563,2.712,2.712,0,0,0-.469.906A4.082,4.082,0,0,0-11.465-3.7,4.053,4.053,0,0,0-11.3-2.488a2.627,2.627,0,0,0,.473.9,2.038,2.038,0,0,0,.719.559A2.133,2.133,0,0,0-9.2-.836a2.107,2.107,0,0,0,.9-.191,2.012,2.012,0,0,0,.711-.559,2.667,2.667,0,0,0,.469-.9A4.053,4.053,0,0,0-6.949-3.7Zm1.266,0a4.826,4.826,0,0,1-.25,1.594,3.6,3.6,0,0,1-.707,1.23,3.134,3.134,0,0,1-1.105.793A3.616,3.616,0,0,1-9.2.2a3.706,3.706,0,0,1-1.48-.281,3.126,3.126,0,0,1-1.109-.793,3.5,3.5,0,0,1-.7-1.23A4.968,4.968,0,0,1-12.73-3.7a4.852,4.852,0,0,1,.25-1.6,3.638,3.638,0,0,1,.707-1.234,3.1,3.1,0,0,1,1.109-.8,3.644,3.644,0,0,1,1.457-.281,3.714,3.714,0,0,1,1.477.281,3.059,3.059,0,0,1,1.109.8,3.573,3.573,0,0,1,.7,1.234A5,5,0,0,1-5.684-3.7ZM-1.5-7.422H-.293L2.012-1.6H2.06l2.366-5.82H5.637L1.041,3.633h-1.2L1.424-.148ZM11.145-3.633a4.326,4.326,0,0,0,.145,1.16,2.619,2.619,0,0,0,.418.883,1.852,1.852,0,0,0,.672.559,2.051,2.051,0,0,0,.914.2,2.242,2.242,0,0,0,.7-.1,2.45,2.45,0,0,0,.559-.258,2.453,2.453,0,0,0,.422-.332,2.346,2.346,0,0,0,.277-.324V-5.734a2.961,2.961,0,0,0-.867-.613,2.474,2.474,0,0,0-1.062-.23,2.243,2.243,0,0,0-.723.129,1.774,1.774,0,0,0-.7.465,2.575,2.575,0,0,0-.535.9A4.21,4.21,0,0,0,11.145-3.633Zm-1.266.016a5.574,5.574,0,0,1,.152-1.371,4.29,4.29,0,0,1,.4-1.043,2.886,2.886,0,0,1,.586-.746,3.41,3.41,0,0,1,.7-.488,2.955,2.955,0,0,1,.73-.27,3.246,3.246,0,0,1,.7-.082,2.838,2.838,0,0,1,1.18.227,2.741,2.741,0,0,1,.9.664h.023v-4.586h1.211V0h-.914l-.25-.828h-.031a3.724,3.724,0,0,1-.328.363,2.249,2.249,0,0,1-.441.332,2.4,2.4,0,0,1-.586.238,2.96,2.96,0,0,1-.77.09,3.564,3.564,0,0,1-1.2-.207A2.764,2.764,0,0,1,10.9-.676a3.369,3.369,0,0,1-.738-1.18A4.871,4.871,0,0,1,9.879-3.617ZM21.764-6.578a1.856,1.856,0,0,0-.779.164,2.021,2.021,0,0,0-.629.445,2.256,2.256,0,0,0-.435.66,2.591,2.591,0,0,0-.206.809h3.8a2.805,2.805,0,0,0-.115-.816,1.983,1.983,0,0,0-.336-.66,1.571,1.571,0,0,0-.546-.441A1.677,1.677,0,0,0,21.764-6.578ZM22.4-.859a5.7,5.7,0,0,0,1.1-.1,6.592,6.592,0,0,0,.988-.277V-.227A3.955,3.955,0,0,1,23.5.082,6.625,6.625,0,0,1,22.246.2a5.34,5.34,0,0,1-1.5-.2,3.1,3.1,0,0,1-1.211-.656,3.049,3.049,0,0,1-.8-1.184,4.784,4.784,0,0,1-.289-1.762,5,5,0,0,1,.281-1.762,3.71,3.71,0,0,1,.748-1.246,3.048,3.048,0,0,1,1.075-.75,3.308,3.308,0,0,1,1.27-.25,3.235,3.235,0,0,1,1.165.207,2.387,2.387,0,0,1,.939.652,3.188,3.188,0,0,1,.627,1.148,5.461,5.461,0,0,1,.23,1.688v.16q0,.066-.008.3H19.652a3.033,3.033,0,0,0,.215,1.207,2.121,2.121,0,0,0,.586.8A2.33,2.33,0,0,0,21.324-1,3.968,3.968,0,0,0,22.4-.859ZM35.355-3.781a4.523,4.523,0,0,0-.138-1.164,2.511,2.511,0,0,0-.412-.879,1.86,1.86,0,0,0-.676-.559,2.092,2.092,0,0,0-.927-.2,2.2,2.2,0,0,0-.688.1,2.579,2.579,0,0,0-.562.258,2.425,2.425,0,0,0-.432.336,3.556,3.556,0,0,0-.291.32V-1.68a2.966,2.966,0,0,0,.876.617,2.492,2.492,0,0,0,1.057.227,2.3,2.3,0,0,0,.731-.129,1.8,1.8,0,0,0,.711-.461,2.526,2.526,0,0,0,.538-.9A4.222,4.222,0,0,0,35.355-3.781ZM36.621-3.8a5.55,5.55,0,0,1-.153,1.371,4.279,4.279,0,0,1-.4,1.043,2.888,2.888,0,0,1-.589.746,3.3,3.3,0,0,1-.7.484,3.071,3.071,0,0,1-.734.266,3.274,3.274,0,0,1-.7.082,2.9,2.9,0,0,1-1.185-.223,2.7,2.7,0,0,1-.9-.66h-.023v4.32H30.043V-7.422h.914l.258.844h.023a1.632,1.632,0,0,1,.262-.3,2.879,2.879,0,0,1,.43-.316,3.007,3.007,0,0,1,.648-.293,2.617,2.617,0,0,1,.824-.125,3.516,3.516,0,0,1,1.207.211,2.688,2.688,0,0,1,1.027.672,3.373,3.373,0,0,1,.715,1.184A5.037,5.037,0,0,1,36.621-3.8Zm5.984-2.641h-.094a4.541,4.541,0,0,0-.844.078,3.553,3.553,0,0,0-.777.238,2.948,2.948,0,0,0-.656.395,2.115,2.115,0,0,0-.488.555V0H38.535V-7.422h.938l.234,1.18h.023a2.762,2.762,0,0,1,.441-.539,3.015,3.015,0,0,1,.59-.437,3.037,3.037,0,0,1,.719-.293,3.134,3.134,0,0,1,.82-.105q.078,0,.16,0t.145.012ZM49.246-3.7a4.082,4.082,0,0,0-.168-1.223,2.712,2.712,0,0,0-.469-.906,1.984,1.984,0,0,0-.715-.562,2.133,2.133,0,0,0-.906-.191,2.133,2.133,0,0,0-.906.191,1.984,1.984,0,0,0-.715.563,2.712,2.712,0,0,0-.469.906A4.082,4.082,0,0,0,44.73-3.7,4.053,4.053,0,0,0,44.9-2.488a2.627,2.627,0,0,0,.473.9,2.038,2.038,0,0,0,.719.559A2.133,2.133,0,0,0,47-.836a2.107,2.107,0,0,0,.9-.191,2.012,2.012,0,0,0,.711-.559,2.667,2.667,0,0,0,.469-.9A4.053,4.053,0,0,0,49.246-3.7Zm1.266,0a4.826,4.826,0,0,1-.25,1.594,3.6,3.6,0,0,1-.707,1.23,3.134,3.134,0,0,1-1.105.793A3.616,3.616,0,0,1,47,.2a3.706,3.706,0,0,1-1.48-.281,3.126,3.126,0,0,1-1.109-.793,3.5,3.5,0,0,1-.7-1.23A4.968,4.968,0,0,1,43.465-3.7a4.852,4.852,0,0,1,.25-1.6,3.638,3.638,0,0,1,.707-1.234,3.1,3.1,0,0,1,1.109-.8,3.644,3.644,0,0,1,1.457-.281,3.714,3.714,0,0,1,1.477.281,3.059,3.059,0,0,1,1.109.8,3.573,3.573,0,0,1,.7,1.234A5,5,0,0,1,50.512-3.7Zm2.75.07a4.326,4.326,0,0,0,.145,1.16,2.619,2.619,0,0,0,.418.883,1.852,1.852,0,0,0,.672.559,2.051,2.051,0,0,0,.914.2,2.242,2.242,0,0,0,.7-.1,2.45,2.45,0,0,0,.559-.258,2.453,2.453,0,0,0,.422-.332,2.346,2.346,0,0,0,.277-.324V-5.734a2.961,2.961,0,0,0-.867-.613,2.474,2.474,0,0,0-1.062-.23,2.243,2.243,0,0,0-.723.129,1.774,1.774,0,0,0-.7.465,2.575,2.575,0,0,0-.535.9A4.21,4.21,0,0,0,53.262-3.633ZM52-3.617a5.574,5.574,0,0,1,.152-1.371,4.29,4.29,0,0,1,.4-1.043,2.886,2.886,0,0,1,.586-.746,3.41,3.41,0,0,1,.7-.488,2.955,2.955,0,0,1,.73-.27,3.246,3.246,0,0,1,.7-.082,2.838,2.838,0,0,1,1.18.227,2.741,2.741,0,0,1,.9.664h.023v-4.586h1.211V0H57.66l-.25-.828h-.031a3.724,3.724,0,0,1-.328.363,2.249,2.249,0,0,1-.441.332,2.4,2.4,0,0,1-.586.238,2.96,2.96,0,0,1-.77.09,3.564,3.564,0,0,1-1.2-.207,2.764,2.764,0,0,1-1.043-.664,3.369,3.369,0,0,1-.738-1.18A4.871,4.871,0,0,1,52-3.617ZM63.941.2A3.973,3.973,0,0,1,62.9.07a2.824,2.824,0,0,1-.809-.352,2.354,2.354,0,0,1-.59-.543,2.679,2.679,0,0,1-.383-.691,2.745,2.745,0,0,1-.156-.617,5.332,5.332,0,0,1-.047-.734V-7.422h1.211v4.547a2.816,2.816,0,0,0,.164,1.031,1.535,1.535,0,0,0,.605.738,1.934,1.934,0,0,0,1.066.27,1.87,1.87,0,0,0,1.105-.3,1.626,1.626,0,0,0,.6-.8,2.911,2.911,0,0,0,.133-.945V-7.422h1.211v4.563a5.333,5.333,0,0,1-.043.7,3.1,3.1,0,0,1-.137.6,2.707,2.707,0,0,1-.387.707A2.393,2.393,0,0,1,65.84-.3a2.917,2.917,0,0,1-.832.363A4.057,4.057,0,0,1,63.941.2Zm8.523-7.812A4.585,4.585,0,0,1,73.5-7.5a3.049,3.049,0,0,1,.844.316V-6.18a6.771,6.771,0,0,0-.906-.281,3.809,3.809,0,0,0-.844-.094,2.825,2.825,0,0,0-.9.148,2.084,2.084,0,0,0-.8.488,2.45,2.45,0,0,0-.566.9,3.888,3.888,0,0,0-.215,1.387,3.672,3.672,0,0,0,.16,1.109,2.492,2.492,0,0,0,.477.879,2.15,2.15,0,0,0,.793.578,2.743,2.743,0,0,0,1.1.207,4.4,4.4,0,0,0,.914-.1,5.193,5.193,0,0,0,.9-.277V-.227a2.144,2.144,0,0,1-.348.156,3.941,3.941,0,0,1-.473.137A5.424,5.424,0,0,1,73.09.16,4.784,4.784,0,0,1,72.512.2a4.385,4.385,0,0,1-1.418-.227,3.179,3.179,0,0,1-1.168-.7,3.272,3.272,0,0,1-.789-1.187,4.553,4.553,0,0,1-.289-1.7A5.255,5.255,0,0,1,69-4.937a3.937,3.937,0,0,1,.418-1.031,3.141,3.141,0,0,1,.621-.758,3.5,3.5,0,0,1,.758-.512,3.468,3.468,0,0,1,.832-.289A4.08,4.08,0,0,1,72.465-7.617Zm6.781,0a4.585,4.585,0,0,1,1.031.113,3.049,3.049,0,0,1,.844.316V-6.18a6.771,6.771,0,0,0-.906-.281,3.809,3.809,0,0,0-.844-.094,2.825,2.825,0,0,0-.9.148,2.084,2.084,0,0,0-.8.488,2.45,2.45,0,0,0-.566.9,3.888,3.888,0,0,0-.215,1.387,3.672,3.672,0,0,0,.16,1.109,2.492,2.492,0,0,0,.477.879,2.15,2.15,0,0,0,.793.578,2.743,2.743,0,0,0,1.1.207,4.4,4.4,0,0,0,.914-.1,5.193,5.193,0,0,0,.9-.277V-.227a2.144,2.144,0,0,1-.348.156,3.941,3.941,0,0,1-.473.137,5.424,5.424,0,0,1-.547.094A4.784,4.784,0,0,1,79.293.2a4.385,4.385,0,0,1-1.418-.227,3.179,3.179,0,0,1-1.168-.7,3.272,3.272,0,0,1-.789-1.187,4.553,4.553,0,0,1-.289-1.7,5.255,5.255,0,0,1,.152-1.32A3.937,3.937,0,0,1,76.2-5.969a3.141,3.141,0,0,1,.621-.758,3.5,3.5,0,0,1,.758-.512,3.468,3.468,0,0,1,.832-.289A4.08,4.08,0,0,1,79.246-7.617ZM83.152,0V-7.422h1.211V0Zm-.031-9.148V-10.5h1.211v1.352ZM92.137-3.7a4.082,4.082,0,0,0-.168-1.223,2.712,2.712,0,0,0-.469-.906,1.984,1.984,0,0,0-.715-.562,2.133,2.133,0,0,0-.906-.191,2.133,2.133,0,0,0-.906.191,1.984,1.984,0,0,0-.715.563,2.712,2.712,0,0,0-.469.906A4.082,4.082,0,0,0,87.621-3.7a4.053,4.053,0,0,0,.168,1.215,2.627,2.627,0,0,0,.473.9,2.038,2.038,0,0,0,.719.559,2.133,2.133,0,0,0,.906.191,2.107,2.107,0,0,0,.9-.191,2.012,2.012,0,0,0,.711-.559,2.667,2.667,0,0,0,.469-.9A4.053,4.053,0,0,0,92.137-3.7Zm1.266,0a4.826,4.826,0,0,1-.25,1.594,3.6,3.6,0,0,1-.707,1.23,3.134,3.134,0,0,1-1.105.793A3.616,3.616,0,0,1,89.887.2a3.706,3.706,0,0,1-1.48-.281A3.126,3.126,0,0,1,87.3-.879a3.5,3.5,0,0,1-.7-1.23A4.968,4.968,0,0,1,86.355-3.7a4.852,4.852,0,0,1,.25-1.6,3.638,3.638,0,0,1,.707-1.234,3.1,3.1,0,0,1,1.109-.8,3.644,3.644,0,0,1,1.457-.281,3.714,3.714,0,0,1,1.477.281,3.059,3.059,0,0,1,1.109.8,3.573,3.573,0,0,1,.7,1.234A5,5,0,0,1,93.4-3.7Zm-1.687-7.8L90.457-8.781H89.441l.961-2.727Zm4.773,5.117h.023a3.912,3.912,0,0,1,.449-.48,2.913,2.913,0,0,1,.551-.391,2.855,2.855,0,0,1,.668-.262,3.168,3.168,0,0,1,.793-.094,3.148,3.148,0,0,1,.953.141,1.962,1.962,0,0,1,.773.453,2.17,2.17,0,0,1,.52.816,3.505,3.505,0,0,1,.191,1.238V0H100.2V-4.773a2.077,2.077,0,0,0-.371-1.383,1.364,1.364,0,0,0-1.082-.422,2.343,2.343,0,0,0-1.211.348,3.226,3.226,0,0,0-1.008.957V0H95.316V-7.422h.938Z" transform="translate(-2247.367 343.937)"/>
    <path id="Trazado_108553" data-name="Trazado 108553" d="M-21.6,0h-1.273V-10.453h6.234V-9.3H-21.6V-5.93h4.4v1.148h-4.4Zm10.984-.82h-.031a2.412,2.412,0,0,1-.375.371,2.715,2.715,0,0,1-.523.328,3.228,3.228,0,0,1-.648.23,3.151,3.151,0,0,1-.75.086,2.925,2.925,0,0,1-.988-.16A2.156,2.156,0,0,1-14.7-.434a2.12,2.12,0,0,1-.5-.754,2.674,2.674,0,0,1-.18-1.008,2.369,2.369,0,0,1,.2-.992,2.1,2.1,0,0,1,.559-.742,2.528,2.528,0,0,1,.863-.469,3.581,3.581,0,0,1,1.113-.164,6.174,6.174,0,0,1,1.07.1,5.57,5.57,0,0,1,.875.234h.031v-.516a3.309,3.309,0,0,0-.039-.539,1.381,1.381,0,0,0-.133-.414,1.576,1.576,0,0,0-.648-.621,2.494,2.494,0,0,0-1.2-.246,5.084,5.084,0,0,0-1.059.105,6.67,6.67,0,0,0-.988.293V-7.18a3.176,3.176,0,0,1,.441-.176A5.171,5.171,0,0,1-13.77-7.5a5.687,5.687,0,0,1,.594-.09q.312-.031.625-.031a3.755,3.755,0,0,1,1.84.4A2.372,2.372,0,0,1-9.684-6.164a2.125,2.125,0,0,1,.168.551,3.976,3.976,0,0,1,.051.66V0H-10.48Zm-.062-2.437q-.334-.094-.793-.18a5.965,5.965,0,0,0-1.011-.094,1.964,1.964,0,0,0-1.205.328A1.18,1.18,0,0,0-14.121-2.2a1.537,1.537,0,0,0,.109.6,1.158,1.158,0,0,0,.3.426,1.232,1.232,0,0,0,.451.25,1.841,1.841,0,0,0,.556.082,2.241,2.241,0,0,0,.723-.113,3.069,3.069,0,0,0,.595-.27,3.275,3.275,0,0,0,.443-.312q.183-.156.268-.242Zm.055-8.25-1.258,2.727h-1.016l.961-2.727ZM-1.73-3.742a4.145,4.145,0,0,0-.207-1.434,2.265,2.265,0,0,0-.531-.859,1.8,1.8,0,0,0-.691-.426,2.4,2.4,0,0,0-.734-.117,2.447,2.447,0,0,0-1.059.234,3.2,3.2,0,0,0-.879.609v3.883a2.919,2.919,0,0,0,.285.324,2.38,2.38,0,0,0,.418.328,2.684,2.684,0,0,0,.543.258,1.983,1.983,0,0,0,.66.105,2.047,2.047,0,0,0,.949-.211,1.915,1.915,0,0,0,.688-.6,2.776,2.776,0,0,0,.418-.922A4.621,4.621,0,0,0-1.73-3.742Zm1.266-.094a5.166,5.166,0,0,1-.281,1.8A3.715,3.715,0,0,1-1.488-.785a2.951,2.951,0,0,1-1.055.738A3.218,3.218,0,0,1-3.77.2a2.656,2.656,0,0,1-.84-.121,2.616,2.616,0,0,1-.617-.289,2.056,2.056,0,0,1-.406-.34,2.17,2.17,0,0,1-.215-.273h-.023L-6.129,0h-.914V-11.312h1.211v4.586h.023a2.847,2.847,0,0,1,.93-.656,2.972,2.972,0,0,1,1.211-.234,3.57,3.57,0,0,1,.676.07,2.925,2.925,0,0,1,.719.242,3.176,3.176,0,0,1,.684.453,2.809,2.809,0,0,1,.578.7,3.759,3.759,0,0,1,.4.992A5.315,5.315,0,0,1-.465-3.836Zm5.984-2.6H5.426a4.541,4.541,0,0,0-.844.078,3.553,3.553,0,0,0-.777.238,2.948,2.948,0,0,0-.656.395,2.115,2.115,0,0,0-.488.555V0H1.449V-7.422h.938l.234,1.18h.023a2.762,2.762,0,0,1,.441-.539,3.015,3.015,0,0,1,.59-.437,3.037,3.037,0,0,1,.719-.293,3.134,3.134,0,0,1,.82-.105q.078,0,.16,0T5.52-7.6ZM6.887,0V-7.422H8.1V0ZM6.855-9.148V-10.5H8.066v1.352Zm6.852,1.531a4.585,4.585,0,0,1,1.031.113,3.049,3.049,0,0,1,.844.316V-6.18a6.771,6.771,0,0,0-.906-.281,3.809,3.809,0,0,0-.844-.094,2.825,2.825,0,0,0-.9.148,2.084,2.084,0,0,0-.8.488,2.45,2.45,0,0,0-.566.9,3.888,3.888,0,0,0-.215,1.387,3.672,3.672,0,0,0,.16,1.109,2.492,2.492,0,0,0,.477.879,2.15,2.15,0,0,0,.793.578,2.743,2.743,0,0,0,1.1.207,4.4,4.4,0,0,0,.914-.1,5.193,5.193,0,0,0,.9-.277V-.227a2.144,2.144,0,0,1-.348.156,3.941,3.941,0,0,1-.473.137,5.424,5.424,0,0,1-.547.094A4.784,4.784,0,0,1,13.754.2a4.385,4.385,0,0,1-1.418-.227,3.179,3.179,0,0,1-1.168-.7,3.272,3.272,0,0,1-.789-1.187,4.553,4.553,0,0,1-.289-1.7,5.255,5.255,0,0,1,.152-1.32,3.937,3.937,0,0,1,.418-1.031,3.141,3.141,0,0,1,.621-.758,3.5,3.5,0,0,1,.758-.512,3.469,3.469,0,0,1,.832-.289A4.08,4.08,0,0,1,13.707-7.617Zm8.172,6.8h-.031a2.412,2.412,0,0,1-.375.371,2.715,2.715,0,0,1-.523.328,3.228,3.228,0,0,1-.648.23,3.151,3.151,0,0,1-.75.086,2.925,2.925,0,0,1-.988-.16,2.156,2.156,0,0,1-.773-.469,2.12,2.12,0,0,1-.5-.754,2.674,2.674,0,0,1-.18-1.008,2.369,2.369,0,0,1,.2-.992,2.1,2.1,0,0,1,.559-.742,2.528,2.528,0,0,1,.863-.469,3.581,3.581,0,0,1,1.113-.164,6.174,6.174,0,0,1,1.07.1,5.571,5.571,0,0,1,.875.234h.031v-.516a3.309,3.309,0,0,0-.039-.539,1.381,1.381,0,0,0-.133-.414A1.576,1.576,0,0,0,21-6.316a2.494,2.494,0,0,0-1.2-.246,5.084,5.084,0,0,0-1.059.105,6.67,6.67,0,0,0-.988.293V-7.18a3.176,3.176,0,0,1,.441-.176,5.171,5.171,0,0,1,.535-.141,5.687,5.687,0,0,1,.594-.09q.313-.031.625-.031a3.755,3.755,0,0,1,1.84.4,2.372,2.372,0,0,1,1.027,1.055,2.125,2.125,0,0,1,.168.551,3.976,3.976,0,0,1,.051.66V0H22.012Zm-.062-2.437q-.334-.094-.793-.18a5.965,5.965,0,0,0-1.011-.094,1.964,1.964,0,0,0-1.205.328A1.18,1.18,0,0,0,18.371-2.2a1.537,1.537,0,0,0,.109.6,1.158,1.158,0,0,0,.3.426,1.232,1.232,0,0,0,.451.25,1.841,1.841,0,0,0,.556.082,2.241,2.241,0,0,0,.723-.113,3.069,3.069,0,0,0,.595-.27,3.275,3.275,0,0,0,.443-.312q.183-.156.268-.242Z" transform="translate(-2253.367 534.103)"/>
    <path id="Trazado_108552" data-name="Trazado 108552" d="M-31.223-5.273a6.316,6.316,0,0,1-.227,1.719,4.672,4.672,0,0,1-.684,1.449A4.507,4.507,0,0,1-33.273-.992a5.388,5.388,0,0,1-1.6.727A6.393,6.393,0,0,1-36-.059Q-36.613,0-37.324,0h-2.367V-10.453H-37.3q.711,0,1.32.059a6.393,6.393,0,0,1,1.133.207,5.512,5.512,0,0,1,1.6.719,4.392,4.392,0,0,1,1.133,1.09,4.544,4.544,0,0,1,.672,1.414A6.177,6.177,0,0,1-31.223-5.273Zm-1.266,0a4.135,4.135,0,0,0-.665-2.445,3.562,3.562,0,0,0-1.908-1.328,5.17,5.17,0,0,0-1.061-.2q-.586-.055-1.322-.055h-.974v8.156h.974q.736,0,1.322-.055a5.17,5.17,0,0,0,1.061-.2,3.488,3.488,0,0,0,1.908-1.367A4.35,4.35,0,0,0-32.488-5.273ZM-29.035,0V-7.422h1.211V0Zm-.031-9.148V-10.5h1.211v1.352Zm4.531,3.7a.886.886,0,0,0,.13.5.982.982,0,0,0,.348.316,2.257,2.257,0,0,0,.5.2q.286.078.592.141.42.094.794.207a2.353,2.353,0,0,1,.691.34,1.647,1.647,0,0,1,.512.613,2.235,2.235,0,0,1,.195,1,2.182,2.182,0,0,1-.219,1,2.022,2.022,0,0,1-.617.727,2.879,2.879,0,0,1-.953.445A4.593,4.593,0,0,1-23.777.2a5.785,5.785,0,0,1-.738-.043A4.74,4.74,0,0,1-25.1.043a3.948,3.948,0,0,1-.434-.137,2.853,2.853,0,0,1-.3-.133V-1.242a6.411,6.411,0,0,0,.913.3,4.245,4.245,0,0,0,1,.109,3.519,3.519,0,0,0,.775-.078,1.966,1.966,0,0,0,.594-.23,1.091,1.091,0,0,0,.384-.383,1.044,1.044,0,0,0,.134-.535.984.984,0,0,0-.123-.516,1.026,1.026,0,0,0-.33-.336,2,2,0,0,0-.479-.219q-.272-.086-.571-.156-.391-.086-.794-.2a2.805,2.805,0,0,1-.732-.328,1.587,1.587,0,0,1-.533-.574,1.9,1.9,0,0,1-.2-.934,2.281,2.281,0,0,1,.211-1.016,2.016,2.016,0,0,1,.57-.711,2.479,2.479,0,0,1,.836-.422,3.543,3.543,0,0,1,1.008-.141,5.274,5.274,0,0,1,1.145.117,5.668,5.668,0,0,1,.957.3v1.031A7.077,7.077,0,0,0-22-6.465a4.387,4.387,0,0,0-.964-.121,2.606,2.606,0,0,0-.717.086,1.393,1.393,0,0,0-.488.238.913.913,0,0,0-.278.359A1.161,1.161,0,0,0-24.535-5.445Zm8.486-1.133a1.856,1.856,0,0,0-.779.164,2.021,2.021,0,0,0-.629.445,2.256,2.256,0,0,0-.435.66A2.591,2.591,0,0,0-18.1-4.5h3.8a2.805,2.805,0,0,0-.115-.816,1.983,1.983,0,0,0-.336-.66,1.571,1.571,0,0,0-.546-.441A1.677,1.677,0,0,0-16.049-6.578Zm.639,5.719a5.7,5.7,0,0,0,1.1-.1,6.592,6.592,0,0,0,.988-.277V-.227a3.955,3.955,0,0,1-.984.309A6.625,6.625,0,0,1-15.566.2a5.34,5.34,0,0,1-1.5-.2,3.1,3.1,0,0,1-1.211-.656,3.049,3.049,0,0,1-.8-1.184,4.784,4.784,0,0,1-.289-1.762,5,5,0,0,1,.281-1.762,3.71,3.71,0,0,1,.748-1.246,3.048,3.048,0,0,1,1.075-.75,3.308,3.308,0,0,1,1.27-.25,3.235,3.235,0,0,1,1.165.207,2.387,2.387,0,0,1,.939.652,3.188,3.188,0,0,1,.627,1.148,5.461,5.461,0,0,1,.23,1.688q0,.094,0,.16t-.008.3H-18.16a3.033,3.033,0,0,0,.215,1.207,2.121,2.121,0,0,0,.586.8A2.33,2.33,0,0,0-16.488-1,3.968,3.968,0,0,0-15.41-.859ZM-9.8-6.391h.023a3.912,3.912,0,0,1,.449-.48,2.913,2.913,0,0,1,.551-.391,2.855,2.855,0,0,1,.668-.262,3.169,3.169,0,0,1,.793-.094,3.148,3.148,0,0,1,.953.141,1.962,1.962,0,0,1,.773.453,2.17,2.17,0,0,1,.52.816,3.505,3.505,0,0,1,.191,1.238V0H-6.09V-4.773a2.077,2.077,0,0,0-.371-1.383,1.364,1.364,0,0,0-1.082-.422,2.343,2.343,0,0,0-1.211.348,3.226,3.226,0,0,0-1.008.957V0h-1.211V-7.422h.938ZM-10.418-9.2v-.18a2.407,2.407,0,0,1,.059-.527,1.31,1.31,0,0,1,.211-.477,1.088,1.088,0,0,1,.41-.344,1.405,1.405,0,0,1,.633-.129,1.78,1.78,0,0,1,.625.113,4.311,4.311,0,0,1,.563.254q.258.141.5.258a1.034,1.034,0,0,0,.434.117.4.4,0,0,0,.355-.172.929.929,0,0,0,.113-.508h.953v.18a2.407,2.407,0,0,1-.059.527,1.31,1.31,0,0,1-.211.477,1.088,1.088,0,0,1-.41.344,1.405,1.405,0,0,1-.633.129A1.78,1.78,0,0,1-7.5-9.254a4.31,4.31,0,0,1-.562-.254q-.258-.141-.5-.258A1.034,1.034,0,0,0-9-9.883a.4.4,0,0,0-.355.172.929.929,0,0,0-.113.508ZM1.809-.82H1.777A2.412,2.412,0,0,1,1.4-.449a2.715,2.715,0,0,1-.523.328A3.228,3.228,0,0,1,.23.109,3.151,3.151,0,0,1-.52.2a2.925,2.925,0,0,1-.988-.16,2.156,2.156,0,0,1-.773-.469,2.12,2.12,0,0,1-.5-.754A2.674,2.674,0,0,1-2.965-2.2a2.369,2.369,0,0,1,.2-.992,2.1,2.1,0,0,1,.559-.742A2.528,2.528,0,0,1-1.344-4.4,3.581,3.581,0,0,1-.23-4.562a6.174,6.174,0,0,1,1.07.1,5.57,5.57,0,0,1,.875.234h.031v-.516a3.309,3.309,0,0,0-.039-.539A1.381,1.381,0,0,0,1.574-5.7a1.576,1.576,0,0,0-.648-.621,2.494,2.494,0,0,0-1.2-.246,5.084,5.084,0,0,0-1.059.105,6.67,6.67,0,0,0-.988.293V-7.18a3.176,3.176,0,0,1,.441-.176A5.171,5.171,0,0,1-1.348-7.5a5.687,5.687,0,0,1,.594-.09q.313-.031.625-.031a3.755,3.755,0,0,1,1.84.4A2.372,2.372,0,0,1,2.738-6.164a2.125,2.125,0,0,1,.168.551,3.976,3.976,0,0,1,.051.66V0H1.941ZM1.746-3.258q-.334-.094-.793-.18A5.965,5.965,0,0,0-.058-3.531,1.964,1.964,0,0,0-1.264-3.2,1.18,1.18,0,0,0-1.7-2.2a1.537,1.537,0,0,0,.109.6,1.158,1.158,0,0,0,.3.426,1.232,1.232,0,0,0,.451.25,1.841,1.841,0,0,0,.556.082A2.241,2.241,0,0,0,.44-.949a3.069,3.069,0,0,0,.595-.27,3.275,3.275,0,0,0,.443-.312q.183-.156.268-.242Zm4.391-.375a4.326,4.326,0,0,0,.145,1.16A2.619,2.619,0,0,0,6.7-1.59a1.852,1.852,0,0,0,.672.559,2.051,2.051,0,0,0,.914.2,2.242,2.242,0,0,0,.7-.1A2.45,2.45,0,0,0,9.539-1.2a2.453,2.453,0,0,0,.422-.332,2.346,2.346,0,0,0,.277-.324V-5.734a2.961,2.961,0,0,0-.867-.613,2.474,2.474,0,0,0-1.062-.23,2.243,2.243,0,0,0-.723.129,1.774,1.774,0,0,0-.7.465,2.575,2.575,0,0,0-.535.9A4.21,4.21,0,0,0,6.137-3.633Zm-1.266.016a5.574,5.574,0,0,1,.152-1.371,4.29,4.29,0,0,1,.4-1.043,2.886,2.886,0,0,1,.586-.746,3.41,3.41,0,0,1,.7-.488,2.955,2.955,0,0,1,.73-.27,3.246,3.246,0,0,1,.7-.082,2.838,2.838,0,0,1,1.18.227,2.741,2.741,0,0,1,.9.664h.023v-4.586h1.211V0h-.914l-.25-.828h-.031a3.724,3.724,0,0,1-.328.363,2.249,2.249,0,0,1-.441.332A2.4,2.4,0,0,1,8.9.105a2.96,2.96,0,0,1-.77.09,3.564,3.564,0,0,1-1.2-.207A2.764,2.764,0,0,1,5.891-.676a3.369,3.369,0,0,1-.738-1.18A4.871,4.871,0,0,1,4.871-3.617ZM19.223-3.7a4.082,4.082,0,0,0-.168-1.223,2.712,2.712,0,0,0-.469-.906,1.984,1.984,0,0,0-.715-.562,2.133,2.133,0,0,0-.906-.191,2.133,2.133,0,0,0-.906.191,1.984,1.984,0,0,0-.715.563,2.712,2.712,0,0,0-.469.906A4.082,4.082,0,0,0,14.707-3.7a4.053,4.053,0,0,0,.168,1.215,2.627,2.627,0,0,0,.473.9,2.038,2.038,0,0,0,.719.559,2.133,2.133,0,0,0,.906.191,2.107,2.107,0,0,0,.9-.191,2.012,2.012,0,0,0,.711-.559,2.667,2.667,0,0,0,.469-.9A4.053,4.053,0,0,0,19.223-3.7Zm1.266,0a4.826,4.826,0,0,1-.25,1.594,3.6,3.6,0,0,1-.707,1.23,3.134,3.134,0,0,1-1.105.793A3.616,3.616,0,0,1,16.973.2a3.706,3.706,0,0,1-1.48-.281,3.126,3.126,0,0,1-1.109-.793,3.5,3.5,0,0,1-.7-1.23A4.968,4.968,0,0,1,13.441-3.7a4.852,4.852,0,0,1,.25-1.6A3.638,3.638,0,0,1,14.4-6.539a3.1,3.1,0,0,1,1.109-.8,3.644,3.644,0,0,1,1.457-.281,3.714,3.714,0,0,1,1.477.281,3.059,3.059,0,0,1,1.109.8,3.573,3.573,0,0,1,.7,1.234A5,5,0,0,1,20.488-3.7Zm5.984-2.734h-.094a4.541,4.541,0,0,0-.844.078,3.553,3.553,0,0,0-.777.238,2.948,2.948,0,0,0-.656.395,2.115,2.115,0,0,0-.488.555V0H22.4V-7.422h.938l.234,1.18H23.6a2.762,2.762,0,0,1,.441-.539,3.015,3.015,0,0,1,.59-.437,3.037,3.037,0,0,1,.719-.293,3.134,3.134,0,0,1,.82-.105q.078,0,.16,0t.145.012Zm4.174-.141a1.856,1.856,0,0,0-.779.164,2.021,2.021,0,0,0-.629.445,2.256,2.256,0,0,0-.435.66A2.591,2.591,0,0,0,28.6-4.5h3.8a2.805,2.805,0,0,0-.115-.816,1.983,1.983,0,0,0-.336-.66,1.571,1.571,0,0,0-.546-.441A1.677,1.677,0,0,0,30.646-6.578Zm.639,5.719a5.7,5.7,0,0,0,1.1-.1,6.592,6.592,0,0,0,.988-.277V-.227a3.955,3.955,0,0,1-.984.309A6.625,6.625,0,0,1,31.129.2a5.34,5.34,0,0,1-1.5-.2,3.1,3.1,0,0,1-1.211-.656,3.049,3.049,0,0,1-.8-1.184,4.784,4.784,0,0,1-.289-1.762,5,5,0,0,1,.281-1.762,3.71,3.71,0,0,1,.748-1.246,3.048,3.048,0,0,1,1.075-.75,3.308,3.308,0,0,1,1.27-.25,3.235,3.235,0,0,1,1.165.207,2.387,2.387,0,0,1,.939.652,3.188,3.188,0,0,1,.627,1.148,5.461,5.461,0,0,1,.23,1.688v.16q0,.066-.008.3H28.535a3.033,3.033,0,0,0,.215,1.207,2.121,2.121,0,0,0,.586.8A2.33,2.33,0,0,0,30.207-1,3.968,3.968,0,0,0,31.285-.859Zm5.3-4.586a.886.886,0,0,0,.13.5.982.982,0,0,0,.348.316,2.257,2.257,0,0,0,.5.2q.286.078.592.141.42.094.794.207a2.353,2.353,0,0,1,.691.34,1.647,1.647,0,0,1,.512.613,2.235,2.235,0,0,1,.195,1,2.182,2.182,0,0,1-.219,1A2.022,2.022,0,0,1,39.52-.4a2.879,2.879,0,0,1-.953.445A4.593,4.593,0,0,1,37.348.2a5.785,5.785,0,0,1-.738-.043,4.74,4.74,0,0,1-.586-.109,3.948,3.948,0,0,1-.434-.137,2.853,2.853,0,0,1-.3-.133V-1.242a6.411,6.411,0,0,0,.913.3,4.245,4.245,0,0,0,1,.109,3.519,3.519,0,0,0,.775-.078,1.966,1.966,0,0,0,.594-.23,1.091,1.091,0,0,0,.384-.383,1.044,1.044,0,0,0,.134-.535.984.984,0,0,0-.123-.516,1.026,1.026,0,0,0-.33-.336,2,2,0,0,0-.479-.219q-.272-.086-.571-.156-.391-.086-.794-.2a2.805,2.805,0,0,1-.732-.328,1.587,1.587,0,0,1-.533-.574,1.9,1.9,0,0,1-.2-.934,2.281,2.281,0,0,1,.211-1.016,2.016,2.016,0,0,1,.57-.711,2.479,2.479,0,0,1,.836-.422,3.543,3.543,0,0,1,1.008-.141,5.274,5.274,0,0,1,1.145.117,5.668,5.668,0,0,1,.957.3v1.031a7.076,7.076,0,0,0-.926-.293,4.387,4.387,0,0,0-.964-.121,2.606,2.606,0,0,0-.717.086,1.393,1.393,0,0,0-.488.238.913.913,0,0,0-.278.359A1.161,1.161,0,0,0,36.59-5.445Z" transform="translate(-2446.356 458.504)"/>
    <path id="Trazado_108554" data-name="Trazado 108554" d="M-44.41,0h-1.273V-10.453h2.9a8.544,8.544,0,0,1,1.2.078,5.174,5.174,0,0,1,1.01.242,2.9,2.9,0,0,1,1.42,1,2.729,2.729,0,0,1,.484,1.645,2.988,2.988,0,0,1-.316,1.4,2.745,2.745,0,0,1-.917,1.012,4.442,4.442,0,0,1-1.463.613,8.4,8.4,0,0,1-1.954.207q-.523,0-1.084-.047Zm0-5.461q.258.031.539.047t.531.016a7.167,7.167,0,0,0,1.531-.141,2.992,2.992,0,0,0,1.031-.41,1.612,1.612,0,0,0,.578-.656,2.063,2.063,0,0,0,.18-.879,1.622,1.622,0,0,0-.293-1,1.8,1.8,0,0,0-.832-.594,3.318,3.318,0,0,0-.773-.176A8.921,8.921,0,0,0-42.934-9.3H-44.41Zm11.766-.977h-.094a4.541,4.541,0,0,0-.844.078,3.553,3.553,0,0,0-.777.238,2.948,2.948,0,0,0-.656.395,2.115,2.115,0,0,0-.488.555V0h-1.211V-7.422h.938l.234,1.18h.023a2.762,2.762,0,0,1,.441-.539,3.015,3.015,0,0,1,.59-.437,3.037,3.037,0,0,1,.719-.293,3.134,3.134,0,0,1,.82-.105q.078,0,.16,0t.145.012ZM-26-3.7a4.082,4.082,0,0,0-.168-1.223,2.712,2.712,0,0,0-.469-.906,1.984,1.984,0,0,0-.715-.562,2.133,2.133,0,0,0-.906-.191,2.133,2.133,0,0,0-.906.191,1.984,1.984,0,0,0-.715.563,2.712,2.712,0,0,0-.469.906A4.082,4.082,0,0,0-30.52-3.7a4.053,4.053,0,0,0,.168,1.215,2.627,2.627,0,0,0,.473.9,2.038,2.038,0,0,0,.719.559,2.133,2.133,0,0,0,.906.191,2.107,2.107,0,0,0,.9-.191,2.012,2.012,0,0,0,.711-.559,2.667,2.667,0,0,0,.469-.9A4.053,4.053,0,0,0-26-3.7Zm1.266,0a4.826,4.826,0,0,1-.25,1.594A3.6,3.6,0,0,1-25.7-.879,3.134,3.134,0,0,1-26.8-.086,3.616,3.616,0,0,1-28.254.2a3.706,3.706,0,0,1-1.48-.281,3.126,3.126,0,0,1-1.109-.793,3.5,3.5,0,0,1-.7-1.23A4.968,4.968,0,0,1-31.785-3.7a4.852,4.852,0,0,1,.25-1.6,3.638,3.638,0,0,1,.707-1.234,3.1,3.1,0,0,1,1.109-.8,3.644,3.644,0,0,1,1.457-.281,3.714,3.714,0,0,1,1.477.281,3.059,3.059,0,0,1,1.109.8,3.573,3.573,0,0,1,.7,1.234A5,5,0,0,1-24.738-3.7Zm4.418,2.477q.269-.812.728-2.07l1.487-4.125h1.211L-19.7,0h-1.256l-2.806-7.422h1.211L-21.074-3.3q.44,1.219.723,2.07Zm7.771-5.352a1.856,1.856,0,0,0-.779.164,2.021,2.021,0,0,0-.629.445,2.256,2.256,0,0,0-.435.66A2.591,2.591,0,0,0-14.6-4.5h3.8a2.805,2.805,0,0,0-.115-.816,1.983,1.983,0,0,0-.336-.66,1.571,1.571,0,0,0-.546-.441A1.677,1.677,0,0,0-12.549-6.578Zm.639,5.719a5.7,5.7,0,0,0,1.1-.1,6.592,6.592,0,0,0,.988-.277V-.227a3.955,3.955,0,0,1-.984.309A6.625,6.625,0,0,1-12.066.2a5.34,5.34,0,0,1-1.5-.2,3.1,3.1,0,0,1-1.211-.656,3.049,3.049,0,0,1-.8-1.184,4.784,4.784,0,0,1-.289-1.762,5,5,0,0,1,.281-1.762,3.71,3.71,0,0,1,.748-1.246,3.048,3.048,0,0,1,1.075-.75,3.308,3.308,0,0,1,1.27-.25,3.235,3.235,0,0,1,1.165.207,2.387,2.387,0,0,1,.939.652,3.188,3.188,0,0,1,.627,1.148,5.461,5.461,0,0,1,.23,1.688q0,.094,0,.16t-.008.3H-14.66a3.032,3.032,0,0,0,.215,1.207,2.121,2.121,0,0,0,.586.8A2.33,2.33,0,0,0-12.988-1,3.968,3.968,0,0,0-11.91-.859Zm7.322-5.719a1.856,1.856,0,0,0-.779.164A2.021,2.021,0,0,0-6-5.969a2.256,2.256,0,0,0-.435.66,2.591,2.591,0,0,0-.206.809h3.8a2.805,2.805,0,0,0-.115-.816,1.983,1.983,0,0,0-.336-.66,1.571,1.571,0,0,0-.546-.441A1.677,1.677,0,0,0-4.588-6.578Zm.639,5.719a5.7,5.7,0,0,0,1.1-.1,6.592,6.592,0,0,0,.988-.277V-.227a3.955,3.955,0,0,1-.984.309A6.625,6.625,0,0,1-4.105.2a5.34,5.34,0,0,1-1.5-.2A3.1,3.1,0,0,1-6.812-.664a3.049,3.049,0,0,1-.8-1.184A4.784,4.784,0,0,1-7.9-3.609a5,5,0,0,1,.281-1.762,3.71,3.71,0,0,1,.748-1.246A3.048,3.048,0,0,1-5.8-7.367a3.308,3.308,0,0,1,1.27-.25,3.235,3.235,0,0,1,1.165.207,2.387,2.387,0,0,1,.939.652A3.188,3.188,0,0,1-1.8-5.609a5.461,5.461,0,0,1,.23,1.688q0,.094,0,.16t-.008.3H-6.7a3.032,3.032,0,0,0,.215,1.207,2.121,2.121,0,0,0,.586.8A2.33,2.33,0,0,0-5.027-1,3.968,3.968,0,0,0-3.949-.859ZM1.324-3.633a4.326,4.326,0,0,0,.145,1.16,2.619,2.619,0,0,0,.418.883,1.852,1.852,0,0,0,.672.559,2.051,2.051,0,0,0,.914.2,2.242,2.242,0,0,0,.7-.1A2.45,2.45,0,0,0,4.727-1.2a2.453,2.453,0,0,0,.422-.332,2.346,2.346,0,0,0,.277-.324V-5.734a2.961,2.961,0,0,0-.867-.613A2.474,2.474,0,0,0,3.5-6.578a2.243,2.243,0,0,0-.723.129,1.774,1.774,0,0,0-.7.465,2.575,2.575,0,0,0-.535.9A4.21,4.21,0,0,0,1.324-3.633ZM.059-3.617A5.574,5.574,0,0,1,.211-4.988a4.29,4.29,0,0,1,.4-1.043A2.886,2.886,0,0,1,1.2-6.777a3.41,3.41,0,0,1,.7-.488,2.955,2.955,0,0,1,.73-.27,3.246,3.246,0,0,1,.7-.082,2.838,2.838,0,0,1,1.18.227,2.741,2.741,0,0,1,.9.664h.023v-4.586H6.637V0H5.723l-.25-.828H5.441a3.724,3.724,0,0,1-.328.363,2.249,2.249,0,0,1-.441.332,2.4,2.4,0,0,1-.586.238,2.96,2.96,0,0,1-.77.09,3.564,3.564,0,0,1-1.2-.207A2.764,2.764,0,0,1,1.078-.676,3.369,3.369,0,0,1,.34-1.855,4.871,4.871,0,0,1,.059-3.617ZM14.41-3.7a4.082,4.082,0,0,0-.168-1.223,2.712,2.712,0,0,0-.469-.906,1.984,1.984,0,0,0-.715-.562,2.133,2.133,0,0,0-.906-.191,2.133,2.133,0,0,0-.906.191,1.984,1.984,0,0,0-.715.563,2.712,2.712,0,0,0-.469.906A4.082,4.082,0,0,0,9.895-3.7a4.053,4.053,0,0,0,.168,1.215,2.627,2.627,0,0,0,.473.9,2.038,2.038,0,0,0,.719.559,2.133,2.133,0,0,0,.906.191,2.107,2.107,0,0,0,.9-.191,2.012,2.012,0,0,0,.711-.559,2.667,2.667,0,0,0,.469-.9A4.053,4.053,0,0,0,14.41-3.7Zm1.266,0a4.826,4.826,0,0,1-.25,1.594,3.6,3.6,0,0,1-.707,1.23,3.134,3.134,0,0,1-1.105.793A3.616,3.616,0,0,1,12.16.2a3.706,3.706,0,0,1-1.48-.281A3.126,3.126,0,0,1,9.57-.879a3.5,3.5,0,0,1-.7-1.23A4.968,4.968,0,0,1,8.629-3.7a4.852,4.852,0,0,1,.25-1.6,3.638,3.638,0,0,1,.707-1.234,3.1,3.1,0,0,1,1.109-.8,3.644,3.644,0,0,1,1.457-.281,3.714,3.714,0,0,1,1.477.281,3.059,3.059,0,0,1,1.109.8,3.573,3.573,0,0,1,.7,1.234A5,5,0,0,1,15.676-3.7ZM21.66-6.437h-.094a4.541,4.541,0,0,0-.844.078,3.553,3.553,0,0,0-.777.238,2.948,2.948,0,0,0-.656.395,2.115,2.115,0,0,0-.488.555V0H17.59V-7.422h.938l.234,1.18h.023a2.762,2.762,0,0,1,.441-.539,3.015,3.015,0,0,1,.59-.437,3.037,3.037,0,0,1,.719-.293,3.134,3.134,0,0,1,.82-.105q.078,0,.16,0t.145.012Zm4.174-.141a1.856,1.856,0,0,0-.779.164,2.021,2.021,0,0,0-.629.445,2.256,2.256,0,0,0-.435.66,2.591,2.591,0,0,0-.206.809h3.8a2.805,2.805,0,0,0-.115-.816,1.983,1.983,0,0,0-.336-.66,1.571,1.571,0,0,0-.546-.441A1.677,1.677,0,0,0,25.834-6.578Zm.639,5.719a5.7,5.7,0,0,0,1.1-.1,6.592,6.592,0,0,0,.988-.277V-.227a3.955,3.955,0,0,1-.984.309A6.625,6.625,0,0,1,26.316.2a5.34,5.34,0,0,1-1.5-.2A3.1,3.1,0,0,1,23.61-.664a3.049,3.049,0,0,1-.8-1.184,4.784,4.784,0,0,1-.289-1.762A5,5,0,0,1,22.8-5.371a3.71,3.71,0,0,1,.748-1.246,3.048,3.048,0,0,1,1.075-.75,3.308,3.308,0,0,1,1.27-.25,3.235,3.235,0,0,1,1.165.207A2.387,2.387,0,0,1,28-6.758a3.188,3.188,0,0,1,.627,1.148,5.461,5.461,0,0,1,.23,1.688v.16q0,.066-.008.3H23.723a3.033,3.033,0,0,0,.215,1.207,2.121,2.121,0,0,0,.586.8A2.33,2.33,0,0,0,25.395-1,3.968,3.968,0,0,0,26.473-.859Zm5.3-4.586a.886.886,0,0,0,.13.5.982.982,0,0,0,.348.316,2.257,2.257,0,0,0,.5.2q.286.078.592.141.42.094.794.207a2.353,2.353,0,0,1,.691.34,1.647,1.647,0,0,1,.512.613,2.235,2.235,0,0,1,.195,1,2.182,2.182,0,0,1-.219,1,2.022,2.022,0,0,1-.617.727,2.879,2.879,0,0,1-.953.445A4.593,4.593,0,0,1,32.535.2,5.785,5.785,0,0,1,31.8.152a4.74,4.74,0,0,1-.586-.109,3.948,3.948,0,0,1-.434-.137,2.853,2.853,0,0,1-.3-.133V-1.242a6.411,6.411,0,0,0,.913.3,4.245,4.245,0,0,0,1,.109,3.519,3.519,0,0,0,.775-.078,1.966,1.966,0,0,0,.594-.23,1.091,1.091,0,0,0,.384-.383,1.044,1.044,0,0,0,.134-.535.984.984,0,0,0-.123-.516,1.026,1.026,0,0,0-.33-.336,2,2,0,0,0-.479-.219q-.272-.086-.571-.156-.391-.086-.794-.2a2.805,2.805,0,0,1-.732-.328,1.587,1.587,0,0,1-.533-.574,1.9,1.9,0,0,1-.2-.934,2.281,2.281,0,0,1,.211-1.016,2.016,2.016,0,0,1,.57-.711,2.479,2.479,0,0,1,.836-.422,3.543,3.543,0,0,1,1.008-.141,5.274,5.274,0,0,1,1.145.117,5.668,5.668,0,0,1,.957.3v1.031a7.076,7.076,0,0,0-.926-.293,4.387,4.387,0,0,0-.964-.121,2.606,2.606,0,0,0-.717.086,1.393,1.393,0,0,0-.488.238.913.913,0,0,0-.278.359A1.161,1.161,0,0,0,31.777-5.445Zm7.773,7.391,2.969-12.4h1.156l-2.969,12.4ZM-34.242,5.484a4.77,4.77,0,0,0-1.641.277,3.645,3.645,0,0,0-1.325.828,3.9,3.9,0,0,0-.886,1.367,5.133,5.133,0,0,0-.324,1.9,5.274,5.274,0,0,0,.3,1.871,3.436,3.436,0,0,0,.854,1.313,3.463,3.463,0,0,0,1.333.77,5.662,5.662,0,0,0,1.736.25q.261,0,.554-.027t.589-.078q.3-.051.577-.117a4.925,4.925,0,0,0,.5-.145V14.82a5.239,5.239,0,0,1-1.07.277,7.888,7.888,0,0,1-1.25.1,6.8,6.8,0,0,1-2.312-.363A4.544,4.544,0,0,1-38.3,13.789a4.394,4.394,0,0,1-1.035-1.66,6.559,6.559,0,0,1-.352-2.223,6.533,6.533,0,0,1,.371-2.242,4.97,4.97,0,0,1,1.07-1.758,4.864,4.864,0,0,1,1.7-1.145,5.83,5.83,0,0,1,2.238-.41q.328,0,.648.027t.613.078a5.443,5.443,0,0,1,.543.121,3.392,3.392,0,0,1,.43.148V5.852A8.1,8.1,0,0,0-33.11,5.59,6.115,6.115,0,0,0-34.242,5.484Zm9.574,5.813a4.082,4.082,0,0,0-.168-1.223,2.712,2.712,0,0,0-.469-.906,1.984,1.984,0,0,0-.715-.562,2.133,2.133,0,0,0-.906-.191,2.133,2.133,0,0,0-.906.191,1.984,1.984,0,0,0-.715.563,2.712,2.712,0,0,0-.469.906,4.082,4.082,0,0,0-.168,1.223,4.053,4.053,0,0,0,.168,1.215,2.627,2.627,0,0,0,.473.9,2.038,2.038,0,0,0,.719.559,2.133,2.133,0,0,0,.906.191,2.107,2.107,0,0,0,.9-.191,2.012,2.012,0,0,0,.711-.559,2.667,2.667,0,0,0,.469-.9A4.053,4.053,0,0,0-24.668,11.3Zm1.266,0a4.826,4.826,0,0,1-.25,1.594,3.6,3.6,0,0,1-.707,1.23,3.134,3.134,0,0,1-1.105.793,3.616,3.616,0,0,1-1.453.281,3.706,3.706,0,0,1-1.48-.281,3.126,3.126,0,0,1-1.109-.793,3.5,3.5,0,0,1-.7-1.23,4.968,4.968,0,0,1-.242-1.594,4.852,4.852,0,0,1,.25-1.6,3.638,3.638,0,0,1,.707-1.234,3.1,3.1,0,0,1,1.109-.8,3.644,3.644,0,0,1,1.457-.281,3.714,3.714,0,0,1,1.477.281,3.059,3.059,0,0,1,1.109.8,3.573,3.573,0,0,1,.7,1.234A5,5,0,0,1-23.4,11.3Zm7.977,3.7h-1.211V10.227a2.806,2.806,0,0,0-.105-.824,1.457,1.457,0,0,0-.3-.559,1.188,1.188,0,0,0-.477-.32,1.8,1.8,0,0,0-.621-.1,2.109,2.109,0,0,0-1.18.348,3.506,3.506,0,0,0-.953.957V15h-1.211V7.578h.938l.234,1.031h.023a4.291,4.291,0,0,1,.441-.48,2.853,2.853,0,0,1,.531-.391,2.675,2.675,0,0,1,.645-.262,2.965,2.965,0,0,1,.766-.094,2.274,2.274,0,0,1,1.375.4,2.568,2.568,0,0,1,.844,1.086h.031a3.948,3.948,0,0,1,1.127-1.09,2.74,2.74,0,0,1,1.479-.395,3.429,3.429,0,0,1,.829.109,2.1,2.1,0,0,1,.806.4,2.216,2.216,0,0,1,.61.809,3.132,3.132,0,0,1,.243,1.328V15h-1.211V10.227a2.806,2.806,0,0,0-.105-.824,1.457,1.457,0,0,0-.3-.559,1.188,1.188,0,0,0-.477-.32,1.8,1.8,0,0,0-.621-.1,2.127,2.127,0,0,0-1.184.348,3.482,3.482,0,0,0-.957.957Zm10.08-6.578a1.856,1.856,0,0,0-.779.164,2.021,2.021,0,0,0-.629.445,2.256,2.256,0,0,0-.435.66,2.591,2.591,0,0,0-.206.809h3.8a2.805,2.805,0,0,0-.115-.816,1.983,1.983,0,0,0-.336-.66,1.571,1.571,0,0,0-.546-.441A1.677,1.677,0,0,0-5.346,8.422Zm.639,5.719a5.7,5.7,0,0,0,1.1-.1,6.592,6.592,0,0,0,.988-.277v1.008a3.955,3.955,0,0,1-.984.309,6.625,6.625,0,0,1-1.258.113,5.34,5.34,0,0,1-1.5-.2,3.1,3.1,0,0,1-1.211-.656,3.049,3.049,0,0,1-.8-1.184,4.784,4.784,0,0,1-.289-1.762A5,5,0,0,1-8.38,9.629a3.71,3.71,0,0,1,.748-1.246,3.048,3.048,0,0,1,1.075-.75,3.308,3.308,0,0,1,1.27-.25,3.235,3.235,0,0,1,1.165.207,2.387,2.387,0,0,1,.939.652,3.188,3.188,0,0,1,.627,1.148,5.461,5.461,0,0,1,.23,1.688q0,.094,0,.16t-.008.3H-7.457a3.032,3.032,0,0,0,.215,1.207,2.121,2.121,0,0,0,.586.8A2.33,2.33,0,0,0-5.785,14,3.968,3.968,0,0,0-4.707,14.141ZM3.8,8.563H3.707a4.541,4.541,0,0,0-.844.078,3.553,3.553,0,0,0-.777.238,2.948,2.948,0,0,0-.656.395,2.115,2.115,0,0,0-.488.555V15H-.27V7.578H.668L.9,8.758H.926a2.762,2.762,0,0,1,.441-.539,3.015,3.015,0,0,1,1.309-.73,3.134,3.134,0,0,1,.82-.105q.078,0,.16,0T3.8,7.4Zm4.477-1.18A4.585,4.585,0,0,1,9.309,7.5a3.049,3.049,0,0,1,.844.316V8.82a6.771,6.771,0,0,0-.906-.281A3.809,3.809,0,0,0,8.4,8.445a2.825,2.825,0,0,0-.9.148,2.084,2.084,0,0,0-.8.488,2.45,2.45,0,0,0-.566.9,3.888,3.888,0,0,0-.215,1.387,3.672,3.672,0,0,0,.16,1.109,2.492,2.492,0,0,0,.477.879,2.15,2.15,0,0,0,.793.578,2.743,2.743,0,0,0,1.1.207,4.4,4.4,0,0,0,.914-.1,5.193,5.193,0,0,0,.9-.277v1.008a2.144,2.144,0,0,1-.348.156,3.941,3.941,0,0,1-.473.137,5.424,5.424,0,0,1-.547.094,4.784,4.784,0,0,1-.578.035,4.385,4.385,0,0,1-1.418-.227,3.179,3.179,0,0,1-1.168-.7,3.272,3.272,0,0,1-.789-1.187,4.553,4.553,0,0,1-.289-1.7,5.255,5.255,0,0,1,.152-1.32A3.937,3.937,0,0,1,5.23,9.031a3.141,3.141,0,0,1,.621-.758,3.468,3.468,0,0,1,1.59-.8A4.08,4.08,0,0,1,8.277,7.383ZM12.184,15V7.578h1.211V15Zm-.031-9.148V4.5h1.211V5.852ZM20.16,14.18h-.031a2.412,2.412,0,0,1-.375.371,2.715,2.715,0,0,1-.523.328,3.228,3.228,0,0,1-.648.23,3.151,3.151,0,0,1-.75.086,2.925,2.925,0,0,1-.988-.16,2.156,2.156,0,0,1-.773-.469,2.12,2.12,0,0,1-.5-.754,2.674,2.674,0,0,1-.18-1.008,2.369,2.369,0,0,1,.2-.992,2.1,2.1,0,0,1,.559-.742,2.528,2.528,0,0,1,.863-.469,3.581,3.581,0,0,1,1.113-.164,6.174,6.174,0,0,1,1.07.1,5.571,5.571,0,0,1,.875.234H20.1v-.516a3.309,3.309,0,0,0-.039-.539,1.381,1.381,0,0,0-.133-.414,1.576,1.576,0,0,0-.648-.621,2.494,2.494,0,0,0-1.2-.246,5.084,5.084,0,0,0-1.059.105,6.671,6.671,0,0,0-.988.293V7.82a3.176,3.176,0,0,1,.441-.176A5.171,5.171,0,0,1,17,7.5a5.687,5.687,0,0,1,.594-.09q.313-.031.625-.031a3.755,3.755,0,0,1,1.84.4A2.372,2.372,0,0,1,21.09,8.836a2.125,2.125,0,0,1,.168.551,3.976,3.976,0,0,1,.051.66V15H20.293ZM20.1,11.742q-.334-.094-.793-.18a5.965,5.965,0,0,0-1.011-.094,1.964,1.964,0,0,0-1.205.328,1.18,1.18,0,0,0-.436,1.008,1.537,1.537,0,0,0,.109.6,1.158,1.158,0,0,0,.3.426,1.232,1.232,0,0,0,.451.25,1.841,1.841,0,0,0,.556.082,2.241,2.241,0,0,0,.723-.113,3.069,3.069,0,0,0,.595-.27,3.275,3.275,0,0,0,.443-.312q.183-.156.268-.242ZM23.73,15V3.688h1.211V15Zm6.517-6.578a1.856,1.856,0,0,0-.779.164,2.021,2.021,0,0,0-.629.445,2.256,2.256,0,0,0-.435.66,2.591,2.591,0,0,0-.206.809H32a2.805,2.805,0,0,0-.115-.816,1.983,1.983,0,0,0-.336-.66A1.571,1.571,0,0,0,31,8.582,1.677,1.677,0,0,0,30.248,8.422Zm.639,5.719a5.7,5.7,0,0,0,1.1-.1,6.592,6.592,0,0,0,.988-.277v1.008a3.955,3.955,0,0,1-.984.309,6.625,6.625,0,0,1-1.258.113,5.34,5.34,0,0,1-1.5-.2,3.1,3.1,0,0,1-1.211-.656,3.049,3.049,0,0,1-.8-1.184,4.784,4.784,0,0,1-.289-1.762,5,5,0,0,1,.281-1.762,3.71,3.71,0,0,1,.748-1.246,3.048,3.048,0,0,1,1.075-.75,3.308,3.308,0,0,1,1.27-.25,3.235,3.235,0,0,1,1.165.207,2.387,2.387,0,0,1,.939.652,3.188,3.188,0,0,1,.627,1.148,5.461,5.461,0,0,1,.23,1.688v.16q0,.066-.008.3H28.137a3.033,3.033,0,0,0,.215,1.207,2.121,2.121,0,0,0,.586.8,2.33,2.33,0,0,0,.871.449A3.968,3.968,0,0,0,30.887,14.141Zm5.3-4.586a.886.886,0,0,0,.13.5.982.982,0,0,0,.348.316,2.257,2.257,0,0,0,.5.2q.286.078.592.141.42.094.794.207a2.353,2.353,0,0,1,.691.34,1.647,1.647,0,0,1,.512.613,2.235,2.235,0,0,1,.195,1,2.182,2.182,0,0,1-.219,1,2.022,2.022,0,0,1-.617.727,2.879,2.879,0,0,1-.953.445,4.593,4.593,0,0,1-1.219.152,5.785,5.785,0,0,1-.738-.043,4.74,4.74,0,0,1-.586-.109,3.948,3.948,0,0,1-.434-.137,2.853,2.853,0,0,1-.3-.133V13.758a6.411,6.411,0,0,0,.913.3,4.245,4.245,0,0,0,1,.109,3.519,3.519,0,0,0,.775-.078,1.966,1.966,0,0,0,.594-.23,1.091,1.091,0,0,0,.384-.383,1.044,1.044,0,0,0,.134-.535.984.984,0,0,0-.123-.516,1.026,1.026,0,0,0-.33-.336,2,2,0,0,0-.479-.219q-.272-.086-.571-.156-.391-.086-.794-.2a2.805,2.805,0,0,1-.732-.328,1.587,1.587,0,0,1-.533-.574,1.9,1.9,0,0,1-.2-.934,2.281,2.281,0,0,1,.211-1.016,2.016,2.016,0,0,1,.57-.711,2.479,2.479,0,0,1,.836-.422,3.543,3.543,0,0,1,1.008-.141A5.274,5.274,0,0,1,38.7,7.5a5.668,5.668,0,0,1,.957.3V8.828a7.076,7.076,0,0,0-.926-.293,4.387,4.387,0,0,0-.964-.121,2.606,2.606,0,0,0-.717.086,1.393,1.393,0,0,0-.488.238.913.913,0,0,0-.278.359A1.161,1.161,0,0,0,36.191,9.555Z" transform="translate(-2059.267 453.93)"/>
    <g id="Grupo_57154" data-name="Grupo 57154" transform="translate(0 5.187)">
      <g id="Grupo_57147" data-name="Grupo 57147">
        <g id="Grupo_57146" data-name="Grupo 57146">
          <path id="Trazado_108479" data-name="Trazado 108479" d="M-2244.38,303.833l-.4-2.163a1.456,1.456,0,0,0-1.154-1,2.61,2.61,0,0,1-1.847-1.163,2.564,2.564,0,0,1,.04-2.17,1.51,1.51,0,0,0-.18-1.532,10.974,10.974,0,0,0-.772-.8c-.5-.474-.834-.729-.834-.729a1.478,1.478,0,0,0-.879-.269,1.4,1.4,0,0,0-.672.159,2.973,2.973,0,0,1-1.3.327,2.012,2.012,0,0,1-.878-.191,2.576,2.576,0,0,1-1.253-1.778,1.455,1.455,0,0,0-1.061-1.1l-2.195-.295h-.065a1.475,1.475,0,0,0-1.254.784,2.6,2.6,0,0,1-1.685,1.38,1.9,1.9,0,0,1-.339.03,2.758,2.758,0,0,1-1.729-.739,1.457,1.457,0,0,0-1-.376,1.257,1.257,0,0,0-.512.1l-1.95,1.045a1.445,1.445,0,0,0-.6,1.4,2.567,2.567,0,0,1-.545,2.1,2.424,2.424,0,0,1-1.747.654,2.448,2.448,0,0,1-.343-.021,1.142,1.142,0,0,0-.166-.012,1.483,1.483,0,0,0-1.217.673l-.967,1.979a1.447,1.447,0,0,0,.343,1.486,2.576,2.576,0,0,1,.806,2.018,2.589,2.589,0,0,1-1.314,1.731,1.448,1.448,0,0,0-.729,1.342l.394,2.164a1.455,1.455,0,0,0,1.154,1,2.608,2.608,0,0,1,1.846,1.163,2.565,2.565,0,0,1-.039,2.168,1.512,1.512,0,0,0,.18,1.533s.271.32.771.8.835.728.835.728a1.479,1.479,0,0,0,.881.269,1.388,1.388,0,0,0,.67-.159,2.971,2.971,0,0,1,1.3-.327,2.038,2.038,0,0,1,.88.191,2.58,2.58,0,0,1,1.252,1.778,1.456,1.456,0,0,0,1.061,1.1l2.2.294.065,0a1.477,1.477,0,0,0,1.255-.784,2.591,2.591,0,0,1,1.684-1.378,1.882,1.882,0,0,1,.339-.03,2.762,2.762,0,0,1,1.729.738,1.458,1.458,0,0,0,1,.375,1.266,1.266,0,0,0,.513-.1l1.949-1.045a1.442,1.442,0,0,0,.6-1.4,2.568,2.568,0,0,1,.545-2.1,2.429,2.429,0,0,1,1.747-.653,2.472,2.472,0,0,1,.344.021,1.122,1.122,0,0,0,.165.012,1.485,1.485,0,0,0,1.218-.673l.966-1.979a1.446,1.446,0,0,0-.343-1.486,2.574,2.574,0,0,1-.806-2.019,2.592,2.592,0,0,1,1.315-1.731A1.45,1.45,0,0,0-2244.38,303.833Zm-1.414.132a3.933,3.933,0,0,0-2.016,2.754,3.912,3.912,0,0,0,1.207,3.19l.007.025-.844,1.729-.017.01a3.959,3.959,0,0,0-.512-.031,3.764,3.764,0,0,0-2.756,1.082,3.9,3.9,0,0,0-.915,3.28l-.01.024-1.7.912-.026-.006a4.151,4.151,0,0,0-2.677-1.1,3.28,3.28,0,0,0-.587.052,3.938,3.938,0,0,0-2.682,2.118l-.025.015-1.917-.258-.016-.018a3.922,3.922,0,0,0-2.017-2.754,3.423,3.423,0,0,0-1.486-.329,4.344,4.344,0,0,0-1.95.485h-.023l-.061-.006c-.088-.07-.343-.279-.688-.606s-.57-.575-.642-.656l-.009-.082a3.906,3.906,0,0,0,0-3.413,3.953,3.953,0,0,0-2.863-1.877l-.018-.015-.344-1.89.014-.023a3.934,3.934,0,0,0,2.014-2.754,3.9,3.9,0,0,0-1.207-3.189l-.006-.025.843-1.73.017-.01a3.982,3.982,0,0,0,.512.031,3.764,3.764,0,0,0,2.757-1.082,3.9,3.9,0,0,0,.915-3.28l.009-.024,1.7-.912.025.005a4.152,4.152,0,0,0,2.678,1.107,3.316,3.316,0,0,0,.589-.052,3.947,3.947,0,0,0,2.682-2.119l.024-.015,1.917.257.015.018a3.925,3.925,0,0,0,2.018,2.756,3.415,3.415,0,0,0,1.485.328,4.358,4.358,0,0,0,1.952-.485h.023l.059.006c.088.069.343.279.689.608s.57.574.642.655l.01.082a3.9,3.9,0,0,0-.006,3.414,3.959,3.959,0,0,0,2.864,1.877l.018.015.344,1.89Z"/>
        </g>
      </g>
      <g id="Grupo_57149" data-name="Grupo 57149">
        <g id="Grupo_57148" data-name="Grupo 57148">
          <path id="Trazado_108480" data-name="Trazado 108480" d="M-2253.987,300.505a6.644,6.644,0,0,0-4.591-1.829,6.646,6.646,0,0,0-4.8,2.036,6.555,6.555,0,0,0,.209,9.32,6.644,6.644,0,0,0,4.591,1.829,6.653,6.653,0,0,0,4.8-2.035A6.556,6.556,0,0,0-2253.987,300.505Zm-.8,8.362a5.225,5.225,0,0,1-3.793,1.607,5.247,5.247,0,0,1-3.626-1.444,5.15,5.15,0,0,1-1.618-3.646,5.15,5.15,0,0,1,1.454-3.715,5.229,5.229,0,0,1,3.793-1.607,5.245,5.245,0,0,1,3.625,1.444,5.15,5.15,0,0,1,1.619,3.646A5.152,5.152,0,0,1-2254.788,308.867Z"/>
        </g>
      </g>
      <g id="Grupo_57151" data-name="Grupo 57151">
        <g id="Grupo_57150" data-name="Grupo 57150">
          <path id="Trazado_108481" data-name="Trazado 108481" d="M-2231.409,293.63a2.9,2.9,0,0,1-1.219-1.435,2.872,2.872,0,0,1,.4-1.835.82.82,0,0,0,0-.787l-.978-1.311a.843.843,0,0,0-.6-.256.615.615,0,0,0-.151.018,3.714,3.714,0,0,1-.808.09,2.129,2.129,0,0,1-1.076-.25,2.881,2.881,0,0,1-1.024-1.578.824.824,0,0,0-.565-.552l-1.627-.244h-.039a.845.845,0,0,0-.665.364,2.9,2.9,0,0,1-1.445,1.21,1.6,1.6,0,0,1-.377.043,3.33,3.33,0,0,1-1.473-.441.783.783,0,0,0-.391-.1.78.78,0,0,0-.4.1l-1.323.971a.82.82,0,0,0-.24.75,2.858,2.858,0,0,1-.16,1.868,2.922,2.922,0,0,1-1.591,1.016.83.83,0,0,0-.556.562l-.245,1.613a.828.828,0,0,0,.366.7,2.893,2.893,0,0,1,1.218,1.434,2.868,2.868,0,0,1-.4,1.834.82.82,0,0,0,.006.787l.978,1.311a.843.843,0,0,0,.6.256.662.662,0,0,0,.15-.017,3.746,3.746,0,0,1,.808-.089,2.13,2.13,0,0,1,1.077.248,2.885,2.885,0,0,1,1.023,1.579.828.828,0,0,0,.566.552l1.625.243h.039a.849.849,0,0,0,.667-.365,2.9,2.9,0,0,1,1.445-1.208,1.585,1.585,0,0,1,.376-.044,3.326,3.326,0,0,1,1.473.442.769.769,0,0,0,.391.1.772.772,0,0,0,.4-.1l1.323-.969a.821.821,0,0,0,.24-.75,2.88,2.88,0,0,1,.16-1.871,2.921,2.921,0,0,1,1.593-1.016.825.825,0,0,0,.555-.56l.246-1.614A.826.826,0,0,0-2231.409,293.63Zm-1.192,1.656a3.9,3.9,0,0,0-2.032,1.518,3.855,3.855,0,0,0-.4,2.49l-.585.429a4.413,4.413,0,0,0-1.805-.436,2.962,2.962,0,0,0-.713.084,3.917,3.917,0,0,0-2.06,1.479l-.718-.108a3.9,3.9,0,0,0-1.53-2.016,3.467,3.467,0,0,0-1.8-.446,5.22,5.22,0,0,0-.71.05l-.434-.582a3.838,3.838,0,0,0,.355-2.5,3.871,3.871,0,0,0-1.49-2.044l.108-.714a3.91,3.91,0,0,0,2.031-1.517,3.851,3.851,0,0,0,.4-2.489l.585-.43a4.423,4.423,0,0,0,1.8.436,2.99,2.99,0,0,0,.714-.085,3.913,3.913,0,0,0,2.059-1.479l.718.107a3.87,3.87,0,0,0,1.528,2.014,3.446,3.446,0,0,0,1.8.45,5.2,5.2,0,0,0,.711-.051l.434.581a3.85,3.85,0,0,0-.356,2.5,3.879,3.879,0,0,0,1.492,2.045Z"/>
        </g>
      </g>
      <g id="Grupo_57153" data-name="Grupo 57153">
        <g id="Grupo_57152" data-name="Grupo 57152">
          <path id="Trazado_108482" data-name="Trazado 108482" d="M-2237.8,291.076a3.311,3.311,0,0,0-1.7-.47,3.317,3.317,0,0,0-2.839,1.59,3.27,3.27,0,0,0,1.129,4.5,3.3,3.3,0,0,0,1.7.472,3.317,3.317,0,0,0,2.839-1.59A3.272,3.272,0,0,0-2237.8,291.076Zm-.069,3.791a1.906,1.906,0,0,1-1.642.92,1.918,1.918,0,0,1-.982-.273,1.892,1.892,0,0,1-.652-2.6,1.908,1.908,0,0,1,1.642-.919,1.915,1.915,0,0,1,.981.271A1.894,1.894,0,0,1-2237.869,294.867Z"/>
        </g>
      </g>
    </g>
    <path id="Trazado_108483" data-name="Trazado 108483" d="M-2039.354,414.848h-3.732v-1.866a1.868,1.868,0,0,0-1.866-1.866h-6.221a1.86,1.86,0,0,0-1.358.594l-6.729-1.121V409.03a6.219,6.219,0,0,0,3.11-5.379h.622a1.869,1.869,0,0,0,1.867-1.866,1.87,1.87,0,0,0-1.867-1.867h-.3l.341-.79a5.038,5.038,0,0,0-.3-4.576,5,5,0,0,0-2.226-1.987l-1.737-.791a6.377,6.377,0,0,0-6.364.691l-.981.735v0a3.9,3.9,0,0,0-2.353,1.755,3.856,3.856,0,0,0-.143,3.726l.617,1.235h-.237a1.869,1.869,0,0,0-1.866,1.867,1.868,1.868,0,0,0,1.866,1.866h.622a6.219,6.219,0,0,0,3.11,5.379v1.559l-7.559,1.26a4.34,4.34,0,0,0-3.638,4.3v13.012a.622.622,0,0,0,.622.622h36.7a1.246,1.246,0,0,0,1.245-1.244V416.092A1.246,1.246,0,0,0-2039.354,414.848Zm-4.976-1.866v1.866h-3.939a4.359,4.359,0,0,0-2.015-2.488h5.332A.623.623,0,0,1-2044.33,412.982Zm-7.465.121a3.106,3.106,0,0,1,2.2,1.745h-2.2Zm-3.11-11.318a.624.624,0,0,1-.623.622h-.622v-1.244h.622A.624.624,0,0,1-2054.905,401.785Zm-13.478-6.188a2.643,2.643,0,0,1,2.255-1.277,2.906,2.906,0,0,1,2.423,1.3l.2.293,1.035-.69-.195-.293a4.146,4.146,0,0,0-2.347-1.7,5.115,5.115,0,0,1,4.749-.325l1.736.79a3.766,3.766,0,0,1,1.675,1.5,3.787,3.787,0,0,1,.23,3.442l-.042.1-.79-1.58a.628.628,0,0,0-.414-.327.622.622,0,0,0-.516.108l-1,.746a5,5,0,0,1-2.986,1,5.006,5.006,0,0,1-2.986-1l-1-.747a.615.615,0,0,0-.516-.107.621.621,0,0,0-.414.327l-.843,1.686-.355-.711a2.615,2.615,0,0,1,.1-2.53Zm-.83,6.81a.623.623,0,0,1-.622-.622.623.623,0,0,1,.622-.622h.622v1.244Zm1.866,1.244v-3.586l.845-1.69.4.3a6.258,6.258,0,0,0,3.733,1.244,6.257,6.257,0,0,0,3.732-1.244l.4-.3.845,1.69v3.586a4.981,4.981,0,0,1-4.976,4.976A4.982,4.982,0,0,1-2067.347,403.651Zm4.977,6.221a6.194,6.194,0,0,0,1.866-.287v1.273l-1.866,1.866-1.867-1.866v-1.273a6.2,6.2,0,0,0,1.867.287Zm-.2,6.842h.4l1.015,2.538-1.216,5.271-1.216-5.271Zm1.38-2.579-.89,1.335h-.579l-.89-1.335.207-.623.533.532a.62.62,0,0,0,.44.182.62.62,0,0,0,.439-.182l.533-.533Zm-8.022,14.4V417.959h-1.244v10.575h-4.977v-12.39a3.1,3.1,0,0,1,2.6-3.069l7.763-1.293.746.746-.5,1.5a.617.617,0,0,0,.073.541l1.062,1.594-1.122,2.807a.618.618,0,0,0-.029.371l1.866,8.087a.623.623,0,0,0,.607.482.622.622,0,0,0,.606-.482l1.866-8.087a.628.628,0,0,0-.028-.371l-1.123-2.807,1.062-1.594a.617.617,0,0,0,.073-.541l-.5-1.5.746-.746,6.639,1.106c0,.032-.009.062-.009.094v1.866h-3.733a1.245,1.245,0,0,0-1.244,1.244v12.442Zm13.063,0h-.622V427.29h17.419v1.244Zm16.8-2.488h-17.419V421a4.342,4.342,0,0,0,3.111,1.313h3.732v.622a1.868,1.868,0,0,0,1.866,1.866,1.869,1.869,0,0,0,1.867-1.866v-.622h3.732a4.34,4.34,0,0,0,3.111-1.313Zm-9.332-3.111v-3.11h1.244v3.11a.622.622,0,0,1-.622.622A.623.623,0,0,1-2048.685,422.935Zm9.331-4.976a3.113,3.113,0,0,1-3.11,3.11h-3.732V419.2a.622.622,0,0,0-.622-.622h-2.489a.622.622,0,0,0-.622.622v1.866h-3.732a3.114,3.114,0,0,1-3.111-3.11v-1.867h17.418Z" transform="translate(0 5.803)"/>
    <g id="Grupo_57155" data-name="Grupo 57155">
      <path id="Trazado_108484" data-name="Trazado 108484" d="M-2235.083,504.669l-1.811-2.651a2.228,2.228,0,0,0-1.842-.973h-.515l-.48-6.8a.572.572,0,0,0-.61-.53.573.573,0,0,0-.53.611l.474,6.714h-5.855l.849-12.019h4.158l.181,2.567a.571.571,0,0,0,.61.529.571.571,0,0,0,.53-.61l-.439-6.219a.572.572,0,0,0-.57-.532h-4.782a.571.571,0,0,0-.57.532l-1.112,15.752h-2.965a.7.7,0,0,1-.695-.7v-4.756a1.878,1.878,0,0,0-1.875-1.875h-9a2.9,2.9,0,0,0-2.453,1.342l-3.63,5.67a2.908,2.908,0,0,0-.46,1.57v10.488a1.878,1.878,0,0,0,1.875,1.875h4.479a.572.572,0,0,0,.572-.571.572.572,0,0,0-.572-.572h-4.479a.733.733,0,0,1-.732-.732v-1.4h6.569a.57.57,0,0,0,.571-.571v-3.272a.57.57,0,0,0-.571-.571h-6.569V502.3a1.774,1.774,0,0,1,.279-.954l3.631-5.67a1.761,1.761,0,0,1,1.49-.815h9a.733.733,0,0,1,.733.732v4.755a1.84,1.84,0,0,0,1.838,1.839h11.626a1.088,1.088,0,0,1,.9.474l1.811,2.652a1.084,1.084,0,0,1,.19.614v1.05h-6.569a.571.571,0,0,0-.572.571v3.272a.571.571,0,0,0,.572.571h6.569v1.4a.733.733,0,0,1-.733.732h-9.724v-5.4h.81a.571.571,0,0,0,.571-.571v-1.941a.571.571,0,0,0-.571-.571h-12.29a.571.571,0,0,0-.571.571v1.941a.571.571,0,0,0,.571.571h.81v5.4h-2.426a.571.571,0,0,0-.571.572.57.57,0,0,0,.571.571h22.82a1.877,1.877,0,0,0,1.875-1.875v-6.861A2.228,2.228,0,0,0-2235.083,504.669Zm-6.383-18.765.14,1.979h-4l.139-1.979Zm-19.869,22.216v2.13h-6v-2.13Zm4.133-1.94h11.146v.8H-2257.2Zm4.747,7.341v-2.835h1.652v2.835Zm2.8,0v-3.406a.57.57,0,0,0-.571-.571h-2.8a.571.571,0,0,0-.571.571v3.406h-2.223v-5.4h8.384v5.4Zm7.825-3.271v-2.129h6v2.129Z"/>
      <path id="Trazado_108485" data-name="Trazado 108485" d="M-2254.908,502.188a.572.572,0,0,0,.571-.572v-4.363a.572.572,0,0,0-.571-.571h-7.169a.572.572,0,0,0-.572.571v4.363a.572.572,0,0,0,.572.572Zm-3.014-1.143v-1.039h2.442v1.039Zm2.442-2.182h-2.441v-1.038h2.441Zm-3.584-1.038v1.038h-2.442v-1.038Zm-2.442,2.181h2.442v1.039h-2.442Z"/>
      <path id="Trazado_108486" data-name="Trazado 108486" d="M-2259.84,486.722h6.3a2.135,2.135,0,0,0,2.133-2.132.475.475,0,0,1,.475-.475h.845a2.224,2.224,0,0,0,2.2-1.957h2.6a.413.413,0,0,1,.411.382,1.541,1.541,0,0,0,.446,1.112,1.612,1.612,0,0,0,2.218.026,1.534,1.534,0,0,0,.436-1.107.481.481,0,0,1,.606-.413,2.085,2.085,0,0,0,1.512-.642,2.088,2.088,0,0,0,.589-1.536,2.139,2.139,0,0,0-2.137-2.025h-5.338a.373.373,0,0,1-.365-.376,1.927,1.927,0,0,0-.566-1.357,1.923,1.923,0,0,0-1.369-.567h-4.212a2.428,2.428,0,0,0-2.426,2.426v.9h-4.27a2.9,2.9,0,0,0-2.9,2.9v2.037a2.812,2.812,0,0,0,2.809,2.809Zm-1.666-4.846a1.758,1.758,0,0,1,1.756-1.756h4.289a2.335,2.335,0,0,0,2.312,2.039.572.572,0,0,0,.572-.572.571.571,0,0,0-.572-.571,1.19,1.19,0,0,1-1.188-1.189v-1.745a1.285,1.285,0,0,1,1.283-1.284h4.212a.787.787,0,0,1,.56.232.793.793,0,0,1,.233.556,1.518,1.518,0,0,0,1.507,1.513h5.338a.987.987,0,0,1,1,.922.956.956,0,0,1-.269.7.951.951,0,0,1-.69.293,1.6,1.6,0,0,0-1.749,1.573.394.394,0,0,1-.107.288.45.45,0,0,1-.59-.026.4.4,0,0,1-.117-.293,1.573,1.573,0,0,0-1.554-1.542h-5.076a.57.57,0,0,0-.571.571.571.571,0,0,0,.571.572h1.317a1.078,1.078,0,0,1-1.044.814h-.845a1.619,1.619,0,0,0-1.618,1.618.991.991,0,0,1-.99.989h-6.3a1.668,1.668,0,0,1-1.666-1.666v-2.037Z"/>
    </g>
    <g id="Grupo_57156" data-name="Grupo 57156" transform="translate(-3 6.395)">
      <path id="Trazado_108487" data-name="Trazado 108487" d="M-2431.314,413.985h1.415V415.4h-1.415Z"/>
      <path id="Trazado_108488" data-name="Trazado 108488" d="M-2431.314,419.648h1.415v1.416h-1.415Z"/>
      <path id="Trazado_108489" data-name="Trazado 108489" d="M-2425.651,390.626h-19.113a.707.707,0,0,0-.708.708v12.741a.707.707,0,0,0,.708.708h6.848l-1.012,3.54h-9.724l.343-2.744a.628.628,0,0,0,.006-.088,3.512,3.512,0,0,0-.072-.708h.78a.707.707,0,0,0,.707-.708V391.334a.707.707,0,0,0-.707-.708h-19.113a.707.707,0,0,0-.708.708v12.741a.707.707,0,0,0,.708.708h4.319a3.512,3.512,0,0,0-.072.708.666.666,0,0,0,.006.088l.343,2.744h-4.6a.707.707,0,0,0-.708.707v2.832a.708.708,0,0,0,.708.708h.708v16.989h1.416V412.57h3l.462,3.693a2.124,2.124,0,0,0-1.341,1.97,2.126,2.126,0,0,0,2.124,2.123h4.247v1.686l-.391-.2a.712.712,0,0,0-.317-.075h-1.415v1.416h1.248l.875.437v2.394h-2.831a.707.707,0,0,0-.708.708v1.416h-.708v1.416h2.831v-1.416h-.707v-.708h5.663v.708h-.708v1.416h2.831v-1.416h-.708v-1.416a.707.707,0,0,0-.708-.708h-2.831v-5.663h4.247a2.126,2.126,0,0,0,2.124-2.123,2.124,2.124,0,0,0-1.341-1.97l.462-3.693h3v16.281a.708.708,0,0,0,.708.708h18.405a.708.708,0,0,0,.708-.708V412.57h.708a.707.707,0,0,0,.707-.708V409.03a.706.706,0,0,0-.707-.707h-5.837l-1.011-3.54h6.848a.706.706,0,0,0,.707-.708V391.334A.706.706,0,0,0-2425.651,390.626Zm-34.061,25.483-1.332-10.659a2.125,2.125,0,0,1,2.123-2.083h7.078a2.125,2.125,0,0,1,2.123,2.083l-1.332,10.659ZM-2466,403.367V392.041h17.7v11.326h-.727a3.525,3.525,0,0,0-2.813-1.415h-7.078a3.522,3.522,0,0,0-2.813,1.415Zm0,7.787v-1.416h4.065l.177,1.416Zm15.573,7.787h-9.91a.709.709,0,0,1-.708-.708.708.708,0,0,1,.708-.708h9.91a.708.708,0,0,1,.708.708A.709.709,0,0,1-2450.427,418.941Zm5.663,9.2v-9.91h16.989v9.91Zm16.989-11.326h-16.989V412.57h16.989Zm1.416-5.663H-2449l.176-1.416h22.47Zm-6.6-2.831h-4.493l1.011-3.54h2.471Zm6.6-4.956h-17.7V392.041h17.7Z"/>
      <path id="Trazado_108490" data-name="Trazado 108490" d="M-2436.943,397.134l3.141,1.885a.705.705,0,0,0,.825-.07l4.955-4.247-.921-1.074-4.568,3.914-3.1-1.861a.706.706,0,0,0-.776.032l-4.955,3.539.823,1.152Z"/>
      <path id="Trazado_108491" data-name="Trazado 108491" d="M-2463.169,395.581h1.416v4.955h-1.416Z"/>
      <path id="Trazado_108492" data-name="Trazado 108492" d="M-2460.337,393.457h1.416V397.7h-1.416Z"/>
      <path id="Trazado_108493" data-name="Trazado 108493" d="M-2457.506,395.581h1.416v4.955h-1.416Z"/>
      <path id="Trazado_108494" data-name="Trazado 108494" d="M-2454.674,397.7h1.416v2.124h-1.416Z"/>
      <path id="Trazado_108495" data-name="Trazado 108495" d="M-2451.843,394.873h1.416v3.539h-1.416Z"/>
    </g>
  </g>
</svg>
