<svg xmlns="http://www.w3.org/2000/svg" width="91.026" height="91.026" viewBox="0 0 91.026 91.026">
  <g id="Grupo_57172" data-name="Grupo 57172" transform="translate(-285 -6288.5)">
    <g id="Grupo_57107" data-name="Grupo 57107" transform="translate(285 6288.5)">
      <circle id="Elipse_4484" data-name="Elipse 4484" cx="45.513" cy="45.513" r="45.513" transform="translate(0 0)" fill="#35b8bb"/>
      <path id="Trazado_105737" data-name="Trazado 105737" d="M-26.405,148.065a44.263,44.263,0,0,0-2.23-13.884,45.361,45.361,0,0,0-31.912-13.072,45.513,45.513,0,0,0-45.513,45.513,45.651,45.651,0,0,0,1,9.511A44.242,44.242,0,0,0-70.741,192.4,44.335,44.335,0,0,0-26.405,148.065Z" transform="translate(106.06 -121.109)" fill="#25ced1"/>
    </g>
    <path id="Trazado_108370" data-name="Trazado 108370" d="M-1670.115-2213.558a1.284,1.284,0,0,0-.78-.885l-22.5-8.723a1.282,1.282,0,0,0-1.431.356l-5.509,6.365-22.2,8.608a1.248,1.248,0,0,0-.491.36l-.014,0-5.719,6.606a1.28,1.28,0,0,0,.13,1.806,1.285,1.285,0,0,0,.366.222l4.913,1.953v17.852a1.282,1.282,0,0,0,.817,1.194l22.5,8.722a1.3,1.3,0,0,0,.463.086,1.276,1.276,0,0,0,.459-.1l0,.01,22.5-8.72a1.282,1.282,0,0,0,.815-1.194v-27.128l5.406-6.246A1.284,1.284,0,0,0-1670.115-2213.558Zm-28.181.065,17.677,6.851-17.677,6.851Zm-2.561,0v13.7l-17.677-6.852Zm-20.841,8.37,19.962,7.734-4.083,4.71-15.757-6.263h0l-4.067-1.618Zm.9,25.206v-15.959l14.875,5.915a1.28,1.28,0,0,0,1.441-.351l3.624-4.18v22.3Zm22.5,7.728v-24.857l19.937-7.729v24.857Zm20.842-35.975-19.964-7.736,3.938-4.552,19.964,7.737Z" transform="translate(2030.076 8529.752)" fill="#fff"/>
  </g>
</svg>
