<svg xmlns="http://www.w3.org/2000/svg" width="57.737" height="83.868" viewBox="0 0 57.737 83.868">
  <g id="Grupo_57166" data-name="Grupo 57166" transform="translate(-666 -2890.5)">
    <rect id="Rectángulo_6321" data-name="Rectángulo 6321" width="48.945" height="1.512" transform="translate(670.869 2972.856)" fill="#0ac4bf"/>
    <g id="Grupo_57162" data-name="Grupo 57162" transform="translate(3430.219 2743.585)">
      <g id="Grupo_57162-2" data-name="Grupo 57162">
        <path id="Trazado_108497" data-name="Trazado 108497" d="M-2706.82,161.11l-13.857-13.857a1.149,1.149,0,0,0-.816-.338h-41.571a1.155,1.155,0,0,0-1.155,1.155v69.284a1.156,1.156,0,0,0,1.155,1.155h55.428a1.155,1.155,0,0,0,1.154-1.155V161.926A1.151,1.151,0,0,0-2706.82,161.11Zm-13.519-10.253,9.915,9.915h-9.915Zm-41.57,65.342V149.224h39.261v12.7a1.154,1.154,0,0,0,1.155,1.155h12.7V216.2Z" fill="#25ced1"/>
        <path id="Trazado_108498" data-name="Trazado 108498" d="M-2743.433,179.247h2.309v2.31h-2.309Z" fill="#25ced1"/>
        <path id="Trazado_108499" data-name="Trazado 108499" d="M-2738.814,179.247h18.475v2.31h-18.475Z" fill="#25ced1"/>
        <path id="Trazado_108500" data-name="Trazado 108500" d="M-2743.433,174.629h2.309v2.309h-2.309Z" fill="#25ced1"/>
        <path id="Trazado_108501" data-name="Trazado 108501" d="M-2738.814,174.629h18.475v2.309h-18.475Z" fill="#25ced1"/>
        <path id="Trazado_108502" data-name="Trazado 108502" d="M-2743.433,192.338h2.309v2.31h-2.309Z" fill="#25ced1"/>
        <path id="Trazado_108503" data-name="Trazado 108503" d="M-2738.814,192.338h12.05v2.31h-12.05Z" fill="#25ced1"/>
        <path id="Trazado_108504" data-name="Trazado 108504" d="M-2743.433,187.719h2.309v2.31h-2.309Z" fill="#25ced1"/>
        <path id="Trazado_108505" data-name="Trazado 108505" d="M-2738.814,187.719h16.491v2.31h-16.491Z" fill="#25ced1"/>
        <path id="Trazado_108506" data-name="Trazado 108506" d="M-2743.433,163.081h2.309v2.31h-2.309Z" fill="#25ced1"/>
        <path id="Trazado_108507" data-name="Trazado 108507" d="M-2738.814,163.081h13.856v2.31h-13.856Z" fill="#25ced1"/>
        <path id="Trazado_108508" data-name="Trazado 108508" d="M-2743.433,158.462h2.309v2.31h-2.309Z" fill="#25ced1"/>
        <path id="Trazado_108509" data-name="Trazado 108509" d="M-2738.814,158.462h13.856v2.31h-13.856Z" fill="#25ced1"/>
      </g>
      <path id="Trazado_108510" data-name="Trazado 108510" d="M-2749,157.9h-6.166a.963.963,0,0,0-.963.963v6.166a.963.963,0,0,0,.963.963H-2749a.964.964,0,0,0,.964-.963v-6.166A.964.964,0,0,0-2749,157.9Zm-.963,6.165h-4.239v-4.239h4.239Z" fill="#25ced1"/>
      <path id="Trazado_108511" data-name="Trazado 108511" d="M-2752.971,194.488a1.251,1.251,0,0,0,.886.367,1.254,1.254,0,0,0,.886-.367l5.657-5.657a1.254,1.254,0,0,0,0-1.772,1.254,1.254,0,0,0-1.772,0l-4.771,4.771-1.9-1.9a1.254,1.254,0,0,0-1.772,0,1.254,1.254,0,0,0,0,1.772Z" fill="#25ced1"/>
      <path id="Trazado_108512" data-name="Trazado 108512" d="M-2752.971,181.19a1.251,1.251,0,0,0,.886.367,1.254,1.254,0,0,0,.886-.367l5.657-5.657a1.255,1.255,0,0,0,0-1.773,1.254,1.254,0,0,0-1.772,0l-4.771,4.772-1.9-1.9a1.254,1.254,0,0,0-1.772,0,1.254,1.254,0,0,0,0,1.772Z" fill="#25ced1"/>
      <path id="Trazado_108513" data-name="Trazado 108513" d="M-2752.971,208a1.251,1.251,0,0,0,.886.367,1.254,1.254,0,0,0,.886-.367l5.657-5.657a1.255,1.255,0,0,0,0-1.773,1.254,1.254,0,0,0-1.772,0l-4.771,4.772-1.9-1.9a1.254,1.254,0,0,0-1.772,0,1.254,1.254,0,0,0,0,1.772Z" fill="#25ced1"/>
      <path id="Trazado_108514" data-name="Trazado 108514" d="M-2712.413,184.157a4.95,4.95,0,0,0-6.991,0l-6.21,6.21h0l-2.713,2.713h0l-2.713,2.713h0l-2.712,2.712h0l-1.546,1.544a1.375,1.375,0,0,0-.279.408l-4.072,9.144a1.357,1.357,0,0,0,.28,1.511,1.357,1.357,0,0,0,.96.4,1.352,1.352,0,0,0,.551-.118l3.187-1.418,3.631-1.617h0l.518-.23,2.2-1.066,3.178-3.176h0l12.736-12.736A4.949,4.949,0,0,0-2712.413,184.157Zm-23.32,23.32,1.831-4.113,2.283,2.282Zm16.346-13.191-9.878,9.878-3.155-3.155,12.231-12.23,3.155,3.155Zm5.056-5.055-.785.784-3.155-3.154.785-.785a2.233,2.233,0,0,1,3.155,0A2.235,2.235,0,0,1-2714.331,189.231Z" fill="#25ced1"/>
    </g>
  </g>
</svg>
