<svg xmlns="http://www.w3.org/2000/svg" xmlns:xlink="http://www.w3.org/1999/xlink" width="216" height="216" viewBox="0 0 216 216">
  <defs>
    <filter id="Trazado_113935" x="0" y="0" width="216" height="216" filterUnits="userSpaceOnUse">
      <feOffset input="SourceAlpha"/>
      <feGaussianBlur stdDeviation="20" result="blur"/>
      <feFlood flood-color="#402d27" flood-opacity="0.263"/>
      <feComposite operator="in" in2="blur"/>
      <feComposite in="SourceGraphic"/>
    </filter>
    <clipPath id="clip-path">
      <rect id="Rectángulo_33785" data-name="Rectángulo 33785" width="96.418" height="99.744" fill="none"/>
    </clipPath>
  </defs>
  <g id="Grupo_80214" data-name="Grupo 80214" transform="translate(-844.33 -322.5)">
    <g transform="matrix(1, 0, 0, 1, 844.33, 322.5)" filter="url(#Trazado_113935)">
      <path id="Trazado_113935-2" data-name="Trazado 113935" d="M48,0A48,48,0,1,1,0,48,48,48,0,0,1,48,0Z" transform="translate(60 60)" fill="#9f0925"/>
    </g>
    <g id="Grupo_80213" data-name="Grupo 80213" transform="translate(901.333 372)">
      <g id="Grupo_80212" data-name="Grupo 80212" clip-path="url(#clip-path)">
        <path id="Trazado_113705" data-name="Trazado 113705" d="M111.05,99.651A37.136,37.136,0,1,1,73.914,62.515,37.136,37.136,0,0,1,111.05,99.651" transform="translate(-22.482 -38.215)" fill="#f2a6aa"/>
        <path id="Trazado_113706" data-name="Trazado 113706" d="M141.722,33.417l-.358-.058c1-6.131,4.577-10.808,8.368-15.76,1.02-1.332,2.075-2.71,3.076-4.118,1.2-1.644,2.407-3.756,1.16-5.52l.3-.209c1.4,1.974.005,4.336-1.162,5.941-1,1.412-2.061,2.792-3.082,4.126-3.763,4.915-7.318,9.557-8.3,15.6" transform="translate(-86.415 -4.739)" fill="#91bfb3"/>
        <path id="Trazado_113707" data-name="Trazado 113707" d="M113.932,104.45A32.421,32.421,0,1,1,81.511,72.029a32.421,32.421,0,0,1,32.421,32.421" transform="translate(-30.009 -44.031)" fill="#e89199"/>
        <path id="Trazado_113708" data-name="Trazado 113708" d="M93.055,82.067a.218.218,0,0,1-.211-.165c-.134-.542-.2-.842-.2-.854a.218.218,0,1,1,.426-.089s.065.306.2.839a.218.218,0,0,1-.159.264.223.223,0,0,1-.052.006" transform="translate(-56.63 -49.384)" fill="#d17d87"/>
        <path id="Trazado_113709" data-name="Trazado 113709" d="M106.18,109.352a.218.218,0,0,1-.153-.063c-.389-.386-.779-.8-1.159-1.214a.218.218,0,1,1,.323-.292c.374.414.759.817,1.142,1.2a.217.217,0,0,1-.153.372m-2.237-2.47a.218.218,0,0,1-.169-.08c-.347-.425-.694-.87-1.03-1.323a.218.218,0,0,1,.349-.259c.332.447.675.887,1.018,1.307a.218.218,0,0,1-.168.355m-1.989-2.674a.217.217,0,0,1-.18-.1c-.308-.453-.615-.925-.914-1.4a.218.218,0,1,1,.369-.231c.3.473.6.941.9,1.39a.217.217,0,0,1-.18.34m-1.767-2.827a.217.217,0,0,1-.189-.109c-.273-.473-.546-.967-.811-1.465a.218.218,0,1,1,.384-.2c.263.494.534.983.8,1.452a.217.217,0,0,1-.189.326m-1.568-2.943a.217.217,0,0,1-.2-.121c-.243-.492-.485-1-.719-1.512a.22.22,0,1,1,.4-.181c.232.507.472,1.012.713,1.5a.217.217,0,0,1-.2.314M97.23,95.406a.218.218,0,0,1-.2-.132c-.215-.507-.429-1.028-.634-1.549a.218.218,0,0,1,.4-.16c.2.517.416,1.035.63,1.538a.217.217,0,0,1-.2.3M96,92.3a.217.217,0,0,1-.2-.143c-.19-.521-.377-1.053-.555-1.579a.218.218,0,0,1,.412-.139c.176.523.362,1.051.551,1.569a.218.218,0,0,1-.2.292m-1.067-3.161a.217.217,0,0,1-.208-.153c-.167-.539-.327-1.079-.475-1.606a.218.218,0,0,1,.419-.118c.147.523.306,1.06.472,1.594a.218.218,0,0,1-.208.282" transform="translate(-57.613 -53.248)" fill="#d17d87"/>
        <path id="Trazado_113710" data-name="Trazado 113710" d="M58.492,119.037a.22.22,0,0,1-.12-.036c-.493-.328-.717-.505-.726-.513a.217.217,0,1,1,.272-.339s.221.175.7.49a.217.217,0,0,1-.12.4" transform="translate(-35.188 -72.194)" fill="#d17d87"/>
        <path id="Trazado_113711" data-name="Trazado 113711" d="M86.541,131.44a.228.228,0,0,1-.064-.009q-.816-.249-1.6-.5a.218.218,0,1,1,.13-.416q.784.246,1.6.494a.218.218,0,0,1-.063.426m-3.2-1a.221.221,0,0,1-.067-.01q-.815-.263-1.594-.522a.218.218,0,1,1,.138-.413q.777.258,1.59.521a.217.217,0,0,1-.067.424m-3.179-1.058a.223.223,0,0,1-.07-.012q-.813-.279-1.584-.553a.218.218,0,1,1,.145-.41q.769.273,1.579.551a.218.218,0,0,1-.071.423m-3.157-1.12a.221.221,0,0,1-.075-.013c-.527-.194-1.056-.391-1.572-.587a.218.218,0,0,1,.155-.407c.514.2,1.041.392,1.567.585a.218.218,0,0,1-.075.422m-3.131-1.191a.213.213,0,0,1-.08-.015c-.523-.206-1.046-.417-1.556-.627a.218.218,0,0,1,.165-.4c.508.209,1.03.419,1.551.625a.218.218,0,0,1-.08.42m-3.1-1.275a.216.216,0,0,1-.086-.018c-.522-.224-1.04-.451-1.537-.675a.219.219,0,1,1,.178-.4c.5.223,1.01.449,1.53.672a.217.217,0,0,1-.086.417m-3.055-1.375a.221.221,0,0,1-.093-.021c-.52-.247-1.029-.494-1.51-.736a.219.219,0,1,1,.2-.389c.479.241.984.487,1.5.732a.217.217,0,0,1-.093.414m-2.992-1.5a.213.213,0,0,1-.1-.026c-.518-.278-1.012-.555-1.469-.822a.218.218,0,1,1,.22-.376c.452.264.941.538,1.455.814a.218.218,0,0,1-.1.409" transform="translate(-38.544 -74.37)" fill="#d17d87"/>
        <path id="Trazado_113712" data-name="Trazado 113712" d="M51.438,171.926a.218.218,0,0,1-.119-.4c.01-.007.264-.172.749-.46a.218.218,0,0,1,.222.374c-.476.283-.731.449-.734.45a.218.218,0,0,1-.119.035" transform="translate(-31.311 -104.554)" fill="#d17d87"/>
        <path id="Trazado_113713" data-name="Trazado 113713" d="M57.338,156.619a.217.217,0,0,1-.1-.409c.508-.276,1.042-.557,1.587-.833a.218.218,0,1,1,.2.388c-.541.274-1.071.552-1.575.827a.217.217,0,0,1-.1.026M60.522,155a.217.217,0,0,1-.093-.414c.532-.252,1.08-.5,1.627-.746a.219.219,0,0,1,.176.4c-.545.241-1.089.491-1.618.741a.214.214,0,0,1-.093.021m3.263-1.447a.217.217,0,0,1-.083-.418c.545-.226,1.1-.45,1.662-.665a.218.218,0,1,1,.157.406c-.555.214-1.111.437-1.652.661a.219.219,0,0,1-.084.016m3.33-1.285a.218.218,0,0,1-.073-.423c.559-.2,1.128-.4,1.692-.583a.218.218,0,1,1,.137.413c-.561.186-1.127.381-1.683.58a.21.21,0,0,1-.073.013m3.389-1.122a.218.218,0,0,1-.063-.426c.568-.173,1.146-.341,1.719-.5a.217.217,0,1,1,.116.419c-.57.158-1.145.325-1.709.5a.223.223,0,0,1-.063.009m3.44-.953a.217.217,0,0,1-.052-.428c.578-.144,1.164-.283,1.743-.411a.217.217,0,1,1,.094.424c-.575.128-1.158.265-1.732.409a.223.223,0,0,1-.053.006m3.484-.774a.218.218,0,0,1-.042-.431c.586-.114,1.179-.222,1.762-.319a.218.218,0,1,1,.072.429c-.58.1-1.168.2-1.751.317a.217.217,0,0,1-.042,0m3.52-.587a.218.218,0,0,1-.03-.433c.589-.082,1.187-.156,1.777-.221a.218.218,0,0,1,.048.433c-.586.065-1.18.138-1.765.22h-.03" transform="translate(-34.917 -90.582)" fill="#d17d87"/>
        <path id="Trazado_113714" data-name="Trazado 113714" d="M75.693,214.995a.227.227,0,0,1-.058-.008.218.218,0,0,1-.152-.268c0-.012.085-.307.264-.841a.217.217,0,1,1,.412.138c-.175.522-.256.816-.257.819a.218.218,0,0,1-.21.16" transform="translate(-46.137 -130.652)" fill="#d17d87"/>
        <path id="Trazado_113715" data-name="Trazado 113715" d="M77.875,174.3a.218.218,0,0,1-.2-.3c.2-.526.426-1.065.66-1.6a.218.218,0,0,1,.4.173c-.231.533-.451,1.067-.653,1.587a.217.217,0,0,1-.2.139m1.371-3.165a.218.218,0,0,1-.2-.311c.246-.516.5-1.038.77-1.551a.217.217,0,1,1,.386.2c-.263.509-.52,1.026-.764,1.538a.218.218,0,0,1-.2.124m1.586-3.062a.217.217,0,0,1-.19-.324c.282-.5.575-1.006.872-1.5a.218.218,0,0,1,.372.225c-.294.486-.585.985-.864,1.484a.217.217,0,0,1-.19.111m1.785-2.95a.214.214,0,0,1-.118-.035.217.217,0,0,1-.064-.3c.314-.482.639-.965.969-1.435a.217.217,0,0,1,.356.249c-.326.466-.65.945-.96,1.423a.218.218,0,0,1-.183.1M84.59,162.3a.218.218,0,0,1-.174-.349c.346-.461.7-.92,1.063-1.366a.218.218,0,1,1,.339.273c-.356.442-.711.9-1.055,1.354a.217.217,0,0,1-.174.087m2.164-2.683a.218.218,0,0,1-.164-.36c.378-.436.767-.87,1.157-1.289a.219.219,0,0,1,.318.3c-.386.416-.772.845-1.146,1.278a.217.217,0,0,1-.164.075m2.348-2.524a.217.217,0,0,1-.154-.371c.407-.407.826-.811,1.247-1.2a.219.219,0,1,1,.3.319c-.416.387-.832.788-1.235,1.191a.216.216,0,0,1-.154.063m2.525-2.345a.218.218,0,0,1-.142-.382c.437-.376.885-.748,1.332-1.106a.218.218,0,0,1,.272.34c-.444.354-.888.723-1.32,1.1a.218.218,0,0,1-.142.053m2.694-2.15a.218.218,0,0,1-.129-.393c.463-.342.938-.678,1.413-1a.217.217,0,1,1,.244.36c-.47.32-.941.653-1.4.992a.219.219,0,0,1-.129.042" transform="translate(-47.472 -92.406)" fill="#d17d87"/>
        <path id="Trazado_113716" data-name="Trazado 113716" d="M124.687,236.227a.218.218,0,0,1-.212-.17c0-.012-.068-.3-.168-.863a.218.218,0,0,1,.428-.077c.1.548.164.842.164.845a.218.218,0,0,1-.165.26.2.2,0,0,1-.047,0" transform="translate(-75.986 -143.617)" fill="#d17d87"/>
        <path id="Trazado_113717" data-name="Trazado 113717" d="M122.633,184.5a.218.218,0,0,1-.215-.187c-.08-.559-.155-1.144-.224-1.738a.218.218,0,0,1,.432-.05c.068.59.143,1.171.223,1.726a.218.218,0,0,1-.185.246h-.031m-.4-3.468a.218.218,0,0,1-.217-.2c-.052-.571-.1-1.159-.14-1.745a.218.218,0,0,1,.434-.03c.04.583.087,1.167.14,1.736a.218.218,0,0,1-.2.237h-.02m-.243-3.483a.218.218,0,0,1-.217-.207c-.028-.576-.051-1.164-.067-1.749a.217.217,0,0,1,.211-.224.214.214,0,0,1,.224.211c.017.582.039,1.168.067,1.74a.217.217,0,0,1-.207.228h-.01m-.1-3.49a.218.218,0,0,1-.217-.216v-.814q0-.462,0-.936a.221.221,0,0,1,.22-.215.218.218,0,0,1,.215.22q0,.472,0,.932v.81a.218.218,0,0,1-.216.22Zm.036-3.491h-.007a.218.218,0,0,1-.211-.224c.017-.578.04-1.166.068-1.748a.215.215,0,0,1,.227-.207.218.218,0,0,1,.207.227c-.028.58-.051,1.165-.067,1.741a.218.218,0,0,1-.217.211m.167-3.488h-.015a.218.218,0,0,1-.2-.232c.038-.58.083-1.167.133-1.745a.217.217,0,1,1,.433.037c-.049.576-.093,1.16-.132,1.737a.218.218,0,0,1-.217.2m.3-3.479h-.023a.218.218,0,0,1-.194-.239c.06-.576.126-1.161.2-1.739a.218.218,0,0,1,.432.053c-.07.575-.136,1.157-.2,1.731a.218.218,0,0,1-.216.2m.425-3.466h-.031a.218.218,0,0,1-.185-.246c.082-.576.169-1.158.261-1.73a.218.218,0,1,1,.43.069c-.091.569-.179,1.149-.26,1.722a.218.218,0,0,1-.215.187m.553-3.448a.22.22,0,0,1-.039,0,.217.217,0,0,1-.176-.252c.1-.572.212-1.151.325-1.72a.218.218,0,1,1,.427.085c-.113.566-.222,1.142-.324,1.711a.217.217,0,0,1-.214.179" transform="translate(-74.375 -94.468)" fill="#d17d87"/>
        <path id="Trazado_113718" data-name="Trazado 113718" d="M179.6,220.909a.215.215,0,0,1-.155-.065s-.218-.221-.6-.632a.218.218,0,1,1,.317-.3c.382.407.6.623.6.625a.217.217,0,0,1-.155.37" transform="translate(-109.289 -134.391)" fill="#d17d87"/>
        <path id="Trazado_113719" data-name="Trazado 113719" d="M148.563,178.662a.217.217,0,0,1-.162-.072c-.382-.424-.777-.869-1.172-1.322a.218.218,0,0,1,.328-.286c.395.452.788.9,1.168,1.317a.218.218,0,0,1-.016.307.215.215,0,0,1-.146.056M146.243,176a.216.216,0,0,1-.166-.077c-.377-.444-.758-.9-1.133-1.355a.218.218,0,1,1,.336-.277c.374.453.754.908,1.129,1.351a.217.217,0,0,1-.166.358M144,173.283a.216.216,0,0,1-.17-.081c-.364-.452-.733-.918-1.1-1.384a.217.217,0,0,1,.342-.268c.363.464.732.928,1.094,1.38a.217.217,0,0,1-.169.354m-2.175-2.777a.218.218,0,0,1-.173-.086c-.353-.462-.711-.937-1.063-1.411a.218.218,0,0,1,.349-.26c.352.472.708.945,1.06,1.406a.217.217,0,0,1-.173.349m-2.106-2.83a.217.217,0,0,1-.176-.09c-.343-.473-.689-.956-1.028-1.436a.218.218,0,0,1,.356-.251c.338.478.683.96,1.025,1.432a.217.217,0,0,1-.176.345m-2.035-2.881a.218.218,0,0,1-.18-.094c-.333-.484-.667-.976-.992-1.462a.218.218,0,0,1,.361-.242c.325.484.657.975.989,1.457a.217.217,0,0,1-.056.3.214.214,0,0,1-.123.038m-1.962-2.931a.217.217,0,0,1-.183-.1c-.322-.5-.643-1-.954-1.486a.218.218,0,0,1,.368-.232c.31.489.629.988.951,1.481a.217.217,0,0,1-.182.336m-1.885-2.981a.217.217,0,0,1-.186-.1c-.309-.5-.616-1.011-.914-1.512a.218.218,0,0,1,.374-.223c.3.5.6,1.006.911,1.507a.217.217,0,0,1-.185.331m-1.8-3.03a.216.216,0,0,1-.189-.109c-.3-.512-.589-1.029-.872-1.536a.218.218,0,1,1,.38-.212c.283.506.575,1.021.869,1.531a.218.218,0,0,1-.188.327" transform="translate(-80.045 -94.069)" fill="#d17d87"/>
        <path id="Trazado_113720" data-name="Trazado 113720" d="M207.414,186.781a.218.218,0,0,1-.128-.042s-.25-.181-.707-.5a.218.218,0,0,1,.247-.358c.463.32.713.5.716.5a.217.217,0,0,1-.128.393" transform="translate(-126.224 -113.606)" fill="#d17d87"/>
        <path id="Trazado_113721" data-name="Trazado 113721" d="M161.034,163.319a.216.216,0,0,1-.12-.036c-.471-.311-.964-.63-1.467-.95a.218.218,0,1,1,.234-.367c.5.321,1,.642,1.473.954a.218.218,0,0,1-.12.4m-2.954-1.881a.216.216,0,0,1-.114-.032c-.486-.3-.989-.6-1.5-.9a.218.218,0,0,1,.223-.374c.508.3,1.013.608,1.5.908a.217.217,0,0,1-.114.4m-3.009-1.791a.219.219,0,0,1-.108-.029c-.5-.289-1.012-.579-1.52-.862a.218.218,0,1,1,.212-.38c.51.284,1.023.575,1.525.865a.217.217,0,0,1-.109.406m-3.057-1.705a.213.213,0,0,1-.1-.026c-.515-.278-1.034-.553-1.544-.818a.218.218,0,0,1,.2-.386c.512.266,1.033.543,1.549.821a.217.217,0,0,1-.1.409m-3.1-1.617a.219.219,0,0,1-.1-.023c-.519-.261-1.046-.521-1.567-.773a.218.218,0,0,1,.19-.392c.522.253,1.051.514,1.573.775a.218.218,0,0,1-.1.412m-3.151-1.524a.22.22,0,0,1-.092-.02c-.533-.248-1.068-.491-1.59-.724a.219.219,0,0,1,.177-.4c.524.233,1.06.478,1.6.727a.217.217,0,0,1-.092.415m-3.2-1.425a.215.215,0,0,1-.085-.018c-.538-.229-1.08-.454-1.612-.671a.218.218,0,1,1,.164-.4c.534.217,1.079.444,1.619.673a.218.218,0,0,1-.086.418m-3.243-1.315a.22.22,0,0,1-.078-.014c-.543-.209-1.094-.415-1.636-.612a.218.218,0,0,1,.149-.409c.544.2,1.1.4,1.643.615a.218.218,0,0,1-.078.421m-3.29-1.2a.223.223,0,0,1-.07-.012c-.55-.187-1.107-.371-1.656-.546a.218.218,0,1,1,.132-.415c.552.176,1.112.36,1.664.548a.218.218,0,0,1-.07.424" transform="translate(-82.005 -91.623)" fill="#d17d87"/>
        <path id="Trazado_113722" data-name="Trazado 113722" d="M210.9,137.136h-.015s-.3-.02-.86-.035a.218.218,0,1,1,.012-.435c.569.016.865.035.877.036a.218.218,0,0,1-.014.435" transform="translate(-128.257 -83.543)" fill="#d17d87"/>
        <path id="Trazado_113723" data-name="Trazado 113723" d="M134.223,140.833a.217.217,0,0,1-.052-.429q.814-.2,1.611-.388a.218.218,0,0,1,.1.424q-.8.187-1.607.386a.22.22,0,0,1-.052.006m3.222-.756a.218.218,0,0,1-.047-.43q.819-.182,1.619-.351a.218.218,0,0,1,.09.426q-.8.168-1.615.349a.2.2,0,0,1-.047.005m3.238-.681a.218.218,0,0,1-.042-.431c.544-.108,1.092-.213,1.628-.313a.218.218,0,0,1,.08.428c-.534.1-1.08.2-1.622.312a.231.231,0,0,1-.043,0m3.254-.6a.218.218,0,0,1-.037-.432c.54-.094,1.09-.185,1.635-.273a.218.218,0,0,1,.069.43c-.543.087-1.091.178-1.629.272a.205.205,0,0,1-.037,0m3.267-.524a.218.218,0,0,1-.031-.433c.547-.08,1.1-.159,1.641-.231a.217.217,0,0,1,.058.431c-.54.073-1.091.15-1.636.231h-.032m3.28-.441a.218.218,0,0,1-.026-.434c.553-.067,1.107-.13,1.647-.187a.218.218,0,0,1,.046.433c-.538.058-1.09.121-1.641.187h-.026m3.29-.351a.218.218,0,0,1-.019-.434c.551-.051,1.107-.1,1.652-.14a.218.218,0,1,1,.033.434c-.543.042-1.1.089-1.646.14h-.02m3.3-.255a.218.218,0,0,1-.013-.435c.563-.034,1.12-.064,1.656-.087a.218.218,0,0,1,.019.435c-.533.023-1.088.052-1.648.087h-.013m3.306-.145a.218.218,0,0,1-.005-.435c.571-.014,1.129-.022,1.66-.024h0a.218.218,0,0,1,0,.435c-.527,0-1.083.009-1.65.023Z" transform="translate(-81.917 -83.514)" fill="#d17d87"/>
        <path id="Trazado_113724" data-name="Trazado 113724" d="M184.25,92.042a.217.217,0,0,1-.185-.331c.29-.47.44-.737.442-.739a.218.218,0,0,1,.379.213c-.006.011-.155.276-.451.754a.217.217,0,0,1-.185.1" transform="translate(-112.499 -55.543)" fill="#d17d87"/>
        <path id="Trazado_113725" data-name="Trazado 113725" d="M133.729,115.639a.218.218,0,0,1-.117-.4c.491-.313.985-.641,1.469-.973a.218.218,0,0,1,.246.359c-.488.335-.986.665-1.481.981a.22.22,0,0,1-.117.034m2.918-2a.218.218,0,0,1-.129-.393c.47-.345.943-.7,1.4-1.063a.218.218,0,1,1,.268.343c-.465.363-.942.724-1.416,1.071a.216.216,0,0,1-.128.042m2.789-2.176a.218.218,0,0,1-.139-.385c.451-.374.9-.759,1.341-1.145a.218.218,0,0,1,.287.327c-.442.389-.9.776-1.35,1.153a.219.219,0,0,1-.139.05m2.658-2.335a.217.217,0,0,1-.148-.377c.425-.394.854-.8,1.276-1.217a.218.218,0,1,1,.3.311c-.424.416-.857.828-1.285,1.225a.217.217,0,0,1-.148.058m2.528-2.475a.217.217,0,0,1-.156-.369c.406-.419.813-.85,1.211-1.282a.218.218,0,1,1,.32.295c-.4.435-.81.869-1.219,1.291a.216.216,0,0,1-.156.066m2.4-2.6a.217.217,0,0,1-.164-.361c.385-.44.77-.892,1.145-1.342a.217.217,0,1,1,.334.278c-.377.453-.765.907-1.152,1.35a.217.217,0,0,1-.164.074m2.263-2.72a.215.215,0,0,1-.135-.047.218.218,0,0,1-.036-.306c.363-.459.726-.929,1.077-1.4a.218.218,0,1,1,.348.261c-.353.471-.718.944-1.083,1.406a.217.217,0,0,1-.171.083M151.4,98.5a.216.216,0,0,1-.177-.34c.346-.488.683-.976,1-1.452a.218.218,0,0,1,.362.242c-.32.479-.659.971-1.008,1.462a.216.216,0,0,1-.177.092" transform="translate(-81.615 -59.056)" fill="#d17d87"/>
        <path id="Trazado_113726" data-name="Trazado 113726" d="M142.747,73.506h-.013a.217.217,0,0,1-.2-.23c.033-.559.044-.863.044-.864a.218.218,0,0,1,.435.016s-.011.308-.044.874a.217.217,0,0,1-.217.2" transform="translate(-87.127 -44.137)" fill="#d17d87"/>
        <path id="Trazado_113727" data-name="Trazado 113727" d="M130.179,103.69a.225.225,0,0,1-.071-.012.218.218,0,0,1-.135-.277c.178-.516.354-1.048.523-1.58a.218.218,0,0,1,.415.132c-.17.536-.348,1.071-.527,1.591a.217.217,0,0,1-.206.147m1.013-3.182a.226.226,0,0,1-.061-.009.217.217,0,0,1-.148-.27c.154-.526.306-1.065.452-1.6a.218.218,0,0,1,.42.114c-.146.54-.3,1.082-.454,1.611a.217.217,0,0,1-.208.157m.874-3.224a.225.225,0,0,1-.053-.006.218.218,0,0,1-.158-.264c.132-.528.263-1.073.389-1.621a.218.218,0,1,1,.424.1c-.127.55-.259,1.1-.391,1.628a.218.218,0,0,1-.211.164m.753-3.255a.2.2,0,0,1-.045,0,.217.217,0,0,1-.168-.258c.114-.533.226-1.083.334-1.633a.218.218,0,1,1,.427.084c-.108.553-.221,1.1-.335,1.64a.218.218,0,0,1-.213.172m.643-3.279h-.038a.217.217,0,0,1-.176-.253c.1-.539.192-1.092.283-1.643a.218.218,0,0,1,.43.071c-.091.554-.187,1.108-.284,1.65a.218.218,0,0,1-.214.179m.543-3.3h-.032a.218.218,0,0,1-.183-.247c.082-.545.161-1.1.235-1.651a.218.218,0,1,1,.431.058c-.075.552-.154,1.11-.236,1.657a.218.218,0,0,1-.215.185m.449-3.311h-.026a.217.217,0,0,1-.19-.242c.066-.55.13-1.107.189-1.657a.218.218,0,1,1,.433.046c-.059.552-.123,1.111-.19,1.663a.217.217,0,0,1-.216.191m.356-3.322h-.02a.217.217,0,0,1-.2-.236c.052-.562.1-1.12.142-1.662a.217.217,0,1,1,.433.034q-.063.814-.142,1.668a.217.217,0,0,1-.216.2" transform="translate(-79.445 -48.121)" fill="#d17d87"/>
        <path id="Trazado_113728" data-name="Trazado 113728" d="M60.9,60.692,73.214,84.47a.333.333,0,0,0,.494.113l.043-.033a.332.332,0,0,0,.1-.416l-12.163-23.9a.332.332,0,0,0-.5-.108l-.194.155a.332.332,0,0,0-.087.412" transform="translate(-37.206 -36.71)" fill="#ededed"/>
        <path id="Trazado_113729" data-name="Trazado 113729" d="M60.076,57.438a1.958,1.958,0,1,1-1.958-1.958,1.958,1.958,0,0,1,1.958,1.958" transform="translate(-34.33 -33.915)" fill="#ea7a5c"/>
        <path id="Trazado_113730" data-name="Trazado 113730" d="M123.528,78.694l-.98,20.207a.332.332,0,0,0,.37.346l.054-.006a.332.332,0,0,0,.293-.311l1.129-20.3q-.433.029-.866.067" transform="translate(-74.913 -48.064)" fill="#ededed"/>
        <path id="Trazado_113731" data-name="Trazado 113731" d="M125.3,76.146a1.958,1.958,0,1,1-.709-2.676,1.958,1.958,0,0,1,.709,2.676" transform="translate(-74.362 -44.749)" fill="#3a3c48"/>
        <path id="Trazado_113732" data-name="Trazado 113732" d="M89.321,218.013l7.807-19.533c.06-.15-.061-.307-.254-.33l-.051-.006a.327.327,0,0,0-.345.172l-7.991,19.517c-.063.153.065.314.263.333l.234.022a.324.324,0,0,0,.336-.175" transform="translate(-54.082 -121.123)" fill="#ededed"/>
        <path id="Trazado_113733" data-name="Trazado 113733" d="M140.8,122.171v-.006a.345.345,0,0,1-.437-.162v0a.308.308,0,0,1-.025-.058l-1.712,2.71-2.266,3.586-1.7,2.7a8.245,8.245,0,0,0-.953,1.6.725.725,0,0,0,.028.59.371.371,0,0,0,.353.209.293.293,0,0,0,.188-.11,1.282,1.282,0,0,0,.086-.138l.213-.343.593-.955,1.9-3.054,2.414-3.888,1.672-2.693a1.507,1.507,0,0,0-.346.026" transform="translate(-81.704 -74.541)" fill="#ededed"/>
        <path id="Trazado_113734" data-name="Trazado 113734" d="M86.942,248.49a1.958,1.958,0,1,1-1.958-1.958,1.958,1.958,0,0,1,1.958,1.958" transform="translate(-50.753 -150.704)" fill="#ea7a5c"/>
        <path id="Trazado_113735" data-name="Trazado 113735" d="M155.848,175l20.43,17.309a.332.332,0,0,0,.5-.084l.028-.046a.332.332,0,0,0-.069-.422L156.4,174.274a.332.332,0,0,0-.507.091l-.12.217a.332.332,0,0,0,.076.414" transform="translate(-95.198 -106.484)" fill="#ededed"/>
        <path id="Trazado_113736" data-name="Trazado 113736" d="M4.488,129.928l26.26,1.133a.272.272,0,0,0,.3-.335l-.012-.049a.367.367,0,0,0-.336-.264L4.384,129.1a.272.272,0,0,0-.3.345l.063.223a.368.368,0,0,0,.336.255" transform="translate(-2.492 -78.921)" fill="#ededed"/>
        <path id="Trazado_113737" data-name="Trazado 113737" d="M27.915,164.341l25.447,6.58a.272.272,0,0,0,.36-.266v-.05a.368.368,0,0,0-.274-.329l-25.461-6.761a.272.272,0,0,0-.361.276l.016.231a.368.368,0,0,0,.276.32" transform="translate(-16.886 -99.949)" fill="#ededed"/>
        <path id="Trazado_113738" data-name="Trazado 113738" d="M183.892,61.718l-8.569,16.89c-.066.129.121.3.393.367l.072.017c.213.049.407.011.46-.09l8.826-16.836c.069-.132-.127-.312-.4-.372l-.329-.07c-.21-.045-.4-.005-.447.094" transform="translate(-107.166 -37.659)" fill="#ededed"/>
        <path id="Trazado_113739" data-name="Trazado 113739" d="M171.923,150.7l17.489,5.091c.134.039.207-.129.154-.353l-.014-.059a.5.5,0,0,0-.256-.359l-17.545-5.3c-.138-.042-.211.134-.152.363l.07.271a.487.487,0,0,0,.254.348" transform="translate(-104.885 -91.517)" fill="#ededed"/>
        <path id="Trazado_113740" data-name="Trazado 113740" d="M178.7,109.672l24-11.87a.332.332,0,0,0,.122-.492l-.032-.044a.332.332,0,0,0-.414-.1l-24.122,11.717a.332.332,0,0,0-.118.5l.152.2a.332.332,0,0,0,.41.1" transform="translate(-108.851 -59.374)" fill="#ededed"/>
        <path id="Trazado_113741" data-name="Trazado 113741" d="M3.651,129.133a1.958,1.958,0,1,1-.709-2.677,1.958,1.958,0,0,1,.709,2.677" transform="translate(0 -77.14)" fill="#f2a6aa"/>
        <path id="Trazado_113742" data-name="Trazado 113742" d="M27.533,161.97a1.958,1.958,0,1,1-.709-2.677,1.958,1.958,0,0,1,.709,2.677" transform="translate(-14.599 -97.213)" fill="#aabbc0"/>
        <path id="Trazado_113743" data-name="Trazado 113743" d="M208.137,218.688a1.958,1.958,0,1,1-.71-2.677,1.958,1.958,0,0,1,.71,2.677" transform="translate(-125.001 -131.885)" fill="#f4c769"/>
        <path id="Trazado_113744" data-name="Trazado 113744" d="M218.211,164.209a1.958,1.958,0,1,1-.709-2.677,1.958,1.958,0,0,1,.709,2.677" transform="translate(-131.16 -98.582)" fill="#abd6cc"/>
        <path id="Trazado_113745" data-name="Trazado 113745" d="M139.371,198.324l-3.384-5.608s.025-.846.484-.387a50.255,50.255,0,0,1,3.481,5.8Z" transform="translate(-83.128 -117.487)" fill="#ededed"/>
        <path id="Trazado_113746" data-name="Trazado 113746" d="M241.625,95.519a1.958,1.958,0,1,1-.709-2.677,1.958,1.958,0,0,1,.709,2.677" transform="translate(-145.472 -56.592)" fill="#f4c769"/>
        <path id="Trazado_113747" data-name="Trazado 113747" d="M197.688,58.981a1.958,1.958,0,1,1-.709-2.677,1.958,1.958,0,0,1,.709,2.677" transform="translate(-118.614 -34.256)" fill="#aabbc0"/>
        <path id="Trazado_113748" data-name="Trazado 113748" d="M145.546,207.86a1.958,1.958,0,1,1-.709-2.677,1.958,1.958,0,0,1,.709,2.677" transform="translate(-86.74 -125.266)" fill="#3a3c48"/>
        <path id="Trazado_113749" data-name="Trazado 113749" d="M157.029,38.432,163.39,1.541c.129-.78-.1-1.468-.507-1.536s-.847.509-.977,1.289l-5.924,37.077a2.512,2.512,0,0,0,1.047.061M162.7,1.092c.2.033.307.349.221.664l-.6,2.221c-.027.075-.08.122-.13.113s-.085-.069-.086-.149l.173-2.3c.024-.323.224-.582.424-.549" transform="translate(-95.351)" fill="#ededed"/>
        <path id="Trazado_113750" data-name="Trazado 113750" d="M165.186,46.266l-.36-.04c.36-3.232.633-6.519.81-9.77a174.493,174.493,0,0,0,.073-17.5c-.126-2.725-.329-5.565-.62-8.682a6.035,6.035,0,0,1,.265-2.936,2.117,2.117,0,0,1,2.777-.735l-.141.334c-.829-.349-1.979-.212-2.3.544a5.725,5.725,0,0,0-.237,2.759c.292,3.122.495,5.967.621,8.7A175,175,0,0,1,166,36.476c-.178,3.257-.451,6.551-.812,9.79" transform="translate(-100.757 -3.907)" fill="#abd6cc"/>
        <path id="Trazado_113751" data-name="Trazado 113751" d="M149.431,116.608a1.958,1.958,0,1,1-1.938,1.977,1.958,1.958,0,0,1,1.938-1.977" transform="translate(-90.162 -71.282)" fill="#ea7a5c"/>
        <path id="Trazado_113752" data-name="Trazado 113752" d="M100.99,160.834h0a.657.657,0,0,0,.116-.482h0a.287.287,0,0,0-.014-.047l1.879-.594,2.486-.786,1.868-.591a3.188,3.188,0,0,1,1.083-.3.279.279,0,0,1,.239.255.678.678,0,0,1-.061.42.317.317,0,0,1-.126.138.5.5,0,0,1-.1.029l-.236.072-.657.2-2.1.637-2.677.81-1.855.562a2.875,2.875,0,0,1,.157-.322" transform="translate(-61.639 -96.604)" fill="#ededed"/>
        <path id="Trazado_113753" data-name="Trazado 113753" d="M98.529,163.58a1.958,1.958,0,1,1-.709-2.677,1.958,1.958,0,0,1,.709,2.677" transform="translate(-57.998 -98.197)" fill="#f4c769"/>
        <path id="Trazado_113754" data-name="Trazado 113754" d="M104.872,137.833a1.958,1.958,0,1,1-.709-2.677,1.958,1.958,0,0,1,.709,2.677" transform="translate(-61.876 -82.458)" fill="#abd6cc"/>
        <path id="Trazado_113755" data-name="Trazado 113755" d="M138.731,166.821a1.958,1.958,0,1,1-.709-2.677,1.958,1.958,0,0,1,.709,2.677" transform="translate(-82.574 -100.179)" fill="#f2a6aa"/>
      </g>
    </g>
  </g>
</svg>
