<svg xmlns="http://www.w3.org/2000/svg" xmlns:xlink="http://www.w3.org/1999/xlink" width="200.004" height="200.003" viewBox="0 0 200.004 200.003">
  <defs>
    <filter id="Trazado_113938" x="0" y="0" width="200.004" height="200.003" filterUnits="userSpaceOnUse">
      <feOffset input="SourceAlpha"/>
      <feGaussianBlur stdDeviation="20" result="blur"/>
      <feFlood flood-color="#402d27" flood-opacity="0.192"/>
      <feComposite operator="in" in2="blur"/>
      <feComposite in="SourceGraphic"/>
    </filter>
    <clipPath id="clip-path">
      <rect id="Rectángulo_33787" data-name="Rectángulo 33787" width="69.783" height="64.668" fill="none"/>
    </clipPath>
  </defs>
  <g id="Grupo_80220" data-name="Grupo 80220" transform="translate(-890.329 -114)">
    <g transform="matrix(1, 0, 0, 1, 890.33, 114)" filter="url(#Trazado_113938)">
      <path id="Trazado_113938-2" data-name="Trazado 113938" d="M40,0A40,40,0,1,1,10.363,13.136,40,40,0,0,1,40,0Z" transform="translate(60 60)" fill="#9f0925"/>
    </g>
    <g id="Grupo_80219" data-name="Grupo 80219" transform="translate(955.442 184.001)">
      <path id="Trazado_113822" data-name="Trazado 113822" d="M34.984,28.345l-.527,1.074L33.5,28.7l-.985-.743-.544,1.107-.527,1.074-.955-.721-.985-.743-.544,1.107-.527,1.074-.956-.721-.985-.743L25.95,30.5l-.508,1.034-.92-.694-.985-.743-.544,1.1-.527,1.074-.955-.721-.985-.743-.544,1.107-.528,1.074L18.5,32.27l-.984-.743-.544,1.107-.527,1.074-.956-.721-.985-.743-.544,1.107L13.443,34.4l-.932-.7-.985-.743-.544,1.108-.528,1.074-.954-.72-.985-.742-.544,1.107-.527,1.074-.956-.721L5.5,34.394,4.959,35.5l-.528,1.074-.955-.721-.985-.743-.544,1.107L1.4,37.326l.041-.01-.7.932L0,39.232l1.107.544,1.05.515.008.034-.7.933-.743.985,1.108.544,1.049.516.008.034-.7.933-.742.985,1.107.544,1.034.508-.694.92-.743.985,1.107.544,1.049.516.008.034-.7.933-.743.985,1.107.544,1.049.515.008.034-.7.933-.743.985,1.107.544,1.05.516.008.034-.7.933-.743.985,1.108.544,1.048.515-.7.932L5,60.223l1.108.544,1.049.515.008.034-.7.933-.742.985,1.107.544,1.049.516.008.034-.7.933-.743.985,1.107.544L8.6,67.3l.008.035-.7.933-.743.985,1.107.544,1.051.516.927.7.985.743.544-1.107.524-1.067h.01l.949.715.984.743.544-1.107.524-1.067h.01l.949.716.985.743.544-1.107.524-1.067h.01l.949.716.984.743.544-1.108.508-1.034.92.694.985.743.544-1.107.524-1.067h.01l.949.716.985.743.544-1.107L27.3,66.01h.011l.949.716.985.743.544-1.107.524-1.067h.01l.949.716.985.743.544-1.107.515-1.049.932.7.985.743.544-1.107.524-1.067h.01l.949.716.985.743.544-1.108.524-1.067h.01l.949.715.985.743L41.8,63.5l.524-1.067h.011l.949.716.985.743.544-1.107.524-1.067h.018L45.35,61.7l.007-.014h-.01l-.008-.034.717-.951.743-.985-1.107-.544-1.069-.525v-.006l.717-.951.743-.985-1.107-.544L43.9,55.623v-.007l.718-.951.743-.985-1.107-.544-1.034-.508.694-.92.743-.985-1.107-.544-1.069-.525v-.007L43.2,48.7l.743-.985-1.107-.544-1.069-.525v-.007l.718-.951.743-.985-1.107-.544L41.05,43.63v-.007l.717-.951.743-.985L41.4,41.143l-1.048-.515.7-.932.743-.985-1.107-.544-1.069-.525v-.007l.718-.951.742-.984-1.107-.544L38.9,34.633v-.007l.717-.951.743-.985-1.107-.544-1.069-.525v-.007l.717-.951.743-.984-1.107-.544-1.107-.544.022.092-.932-.7-.984-.742Z" transform="translate(0 -18.504)" fill="#3d524c"/>
      <path id="Trazado_113823" data-name="Trazado 113823" d="M89.7,63.932l-.528,1.075-.956-.721-.985-.742L86.69,64.65l-.528,1.074L85.207,65l-.984-.743-.544,1.107-.527,1.074-.956-.721-.985-.743-.544,1.107-.508,1.034-.92-.694-.984-.743-.544,1.107-.527,1.074-.956-.721-.985-.743L74.7,67.509l-.528,1.074-.955-.721-.984-.742-.544,1.107-.53,1.073-.959-.72-.985-.743-.544,1.107-.515,1.049-.932-.7-.985-.743-.539,1.1-.527,1.074-.956-.721-.985-.743-.544,1.107-.528,1.074-.955-.721-.985-.743-.544,1.107-.527,1.074-.955-.721-.985-.743-.544,1.107-.544,1.107.041-.01-.7.931-.743.985,1.107.544,1.049.515.008.034-.7.933-.743.985,1.107.544,1.049.516.008.034-.7.933-.743.985,1.107.544,1.035.508-.694.92-.743.985,1.107.544,1.049.515.008.035-.7.933-.742.985,1.107.544,1.049.515.008.034-.7.933-.743.985,1.107.544,1.05.516.008.034-.7.933-.743.985,1.107.544,1.048.515-.7.932-.743.985,1.107.544,1.049.515.008.034-.7.933-.743.985,1.107.544,1.05.515.008.035-.7.933-.743.985,1.107.544,1.05.515.008.034-.7.933-.743.985,1.107.544,1.051.516.927.7.985.743.544-1.107.524-1.067h.011l.949.716.985.743.544-1.107.524-1.067h.01l.949.716.985.743.544-1.107.524-1.067h.01l.949.716.985.743.544-1.107.508-1.034.92.694.985.743.544-1.107L79,102.316h.011l.949.716.985.743.544-1.107.524-1.067h.01l.949.716.985.743.544-1.107.524-1.067h.01l.949.715.985.743.544-1.107.515-1.048.932.7.985.743.544-1.107.524-1.067h.01l.949.715.985.743L93.5,99.8l.524-1.067h.01l.949.716.984.743.544-1.107.524-1.067h.01L98,98.73l.985.743.544-1.107.524-1.067h.018l0-.022.007-.014h-.01l-.008-.034.717-.951.743-.985-1.107-.544-1.07-.525v-.007l.717-.951.743-.985-1.107-.544-1.069-.525V91.2l.717-.951.743-.985-1.107-.544-1.034-.508.694-.92.743-.985-1.107-.544L97.2,85.238v-.007l.718-.951.743-.985-1.107-.544-1.069-.525v-.007l.718-.951.743-.985-1.107-.544-1.069-.525v-.007l.717-.951.743-.985-1.107-.544-1.049-.515.7-.932.743-.985L95.4,73.758l-1.069-.525v-.007l.717-.951.743-.984-1.107-.544-1.069-.525v-.007l.718-.951.743-.985-1.107-.544L92.9,67.209V67.2l.717-.951.743-.985-1.107-.544-1.107-.544.022.091-.932-.7-.985-.743Z" transform="translate(-37.171 -42.68)" fill="#f4f1ed"/>
      <path id="Trazado_113824" data-name="Trazado 113824" d="M120.71,0,120,1.006l-.692.977-.829-.864-.854-.89-.713,1.006-.692.976-.829-.864-.854-.89-.713,1.007-.692.976-.828-.864-.854-.89-.713,1.006-.666.94-.8-.831-.854-.89L107.7,1.918l-.692.976-.829-.864-.854-.89-.713,1.006-.692.977-.82-.863-.854-.89-.713,1.007-.692.976-.829-.864-.854-.89-.717,1-.675.953-.808-.843L96.1,1.82,95.39,2.831l-.692.977-.829-.864-.854-.89L92.3,3.06l-.692.976-.829-.864-.854-.89-.713,1.006-.692.977L87.695,3.4l-.854-.89-.713,1.006-.713,1.006h.043l-.842.807-.89.854,1.007.713.954.676v.035l-.843.809-.89.854,1.006.713.954.676V10.7l-.844.809-.89.854,1.006.713.94.666-.832.8-.89.854,1.006.713.954.676v.036l-.844.809-.89.854,1.006.713.954.676V19.9l-.843.809-.89.854,1.006.713.954.676v.035l-.844.809-.89.854,1.006.713.953.675-.843.808-.89.854,1.007.713.954.676v.035l-.843.809-.89.854,1.006.713.954.676v.036l-.844.809-.89.854,1.006.713.954.676V35.3l-.844.809-.89.854L87,37.678l.955.677.8.838.854.89.713-1.006.687-.97h.01l.823.858.854.89.713-1.006.687-.97H94.1l.823.857.854.89.713-1.007.687-.97h.011l.823.857.854.89L99.6,38.39l.666-.94.8.831.854.89.713-1.006.687-.97h.011l.823.857.854.89.713-1.006.687-.97h.011l.823.858.854.89.713-1.007.687-.97h.011l.823.857.854.89.713-1.006.675-.953.809.843.854.89.713-1.006.687-.97h.01l.823.858.854.89.713-1.007.687-.97h.01l.823.857.854.89.713-1.006.687-.97h.01l.823.858.854.89.713-1.006.687-.97h.019v-.023l.009-.013h-.01v-.035l.86-.825.89-.854-1.006-.713-.972-.689v-.007l.86-.825.89-.854-1.007-.713-.972-.689v-.007l.86-.825.89-.854-1.006-.713-.941-.666.832-.8.89-.854-1.007-.713L124,23.238v-.007l.86-.825.89-.854-1.006-.713-.972-.688v-.007l.86-.825.89-.854-1.007-.713-.972-.689v-.007l.86-.824.89-.854-1.007-.713-.953-.675.843-.809.89-.854-1.006-.713-.972-.689v-.007l.86-.825.89-.854-1.007-.713-.972-.689V7.83l.86-.825.89-.854L123.6,5.438l-.972-.688V4.743l.86-.825.89-.854-1.006-.713-1.006-.713.007.094L121.564.89Z" transform="translate(-56.877)" fill="#efb860"/>
      <g id="Grupo_80218" data-name="Grupo 80218">
        <g id="Grupo_80217" data-name="Grupo 80217" clip-path="url(#clip-path)">
          <path id="Trazado_113825" data-name="Trazado 113825" d="M137.92,34.375l-.2-.135c2.309-3.449,5.786-5.3,9.467-7.251.99-.526,2.014-1.07,3.014-1.647,1.184-.667,2.507-1.614,2.24-3.032l.238-.045c.3,1.588-1.2,2.637-2.358,3.287-1,.579-2.029,1.124-3.021,1.651-3.653,1.941-7.1,3.774-9.379,7.172" transform="translate(-93.557 -15.125)" fill="#91bfb3"/>
          <path id="Trazado_113826" data-name="Trazado 113826" d="M139.389,40.091a.34.34,0,0,0,.4-.139l13.95-20.44c.3-.438.377-.9.182-1.031s-.593.117-.888.555L139.3,39.61a.323.323,0,0,0,.086.481m14.12-21c.1.065.059.277-.078.447l-.964,1.2c-.036.039-.077.055-.1.039s-.024-.06,0-.108l.762-1.339c.107-.188.287-.3.382-.234" transform="translate(-94.587 -12.531)" fill="#ededed"/>
          <path id="Trazado_113827" data-name="Trazado 113827" d="M149.355,54.521a.535.535,0,0,1-.425.25.626.626,0,0,1-.348-.15L144.4,51.584c-.128-.093-.264-.2-.274-.326a.439.439,0,0,1,.126-.275,80.394,80.394,0,0,0,5.665-8.861l2.706,2.475c.585.535,1.943,1.1,1.754,1.795a14.016,14.016,0,0,1-1.52,2.778,43.2,43.2,0,0,1-3.507,5.352" transform="translate(-97.913 -28.615)" fill="#efb860"/>
          <path id="Trazado_113828" data-name="Trazado 113828" d="M143.334,43.728l-.208-.125c1.118-1.864,2.2-3.785,3.208-5.712a116.594,116.594,0,0,0,4.909-10.615c.681-1.691,1.347-3.473,2.037-5.448a4.038,4.038,0,0,1,.977-1.711,1.414,1.414,0,0,1,1.892.326l-.179.164c-.407-.443-1.143-.679-1.551-.31a3.827,3.827,0,0,0-.911,1.611c-.691,1.978-1.358,3.764-2.041,5.459A116.957,116.957,0,0,1,146.549,38c-1.014,1.93-2.1,3.856-3.215,5.724" transform="translate(-97.231 -13.5)" fill="#abd6cc"/>
        </g>
      </g>
    </g>
  </g>
</svg>
