<svg xmlns="http://www.w3.org/2000/svg" xmlns:xlink="http://www.w3.org/1999/xlink" width="85" height="85" viewBox="0 0 85 85">
  <defs>
    <clipPath id="clip-path">
      <rect id="Rectángulo_6440" data-name="Rectángulo 6440" width="50" height="50" transform="translate(1142 3946)" fill="#fff"/>
    </clipPath>
    <clipPath id="clip-path-2">
      <path id="path2047" d="M0-50H50V0H0Z"/>
    </clipPath>
  </defs>
  <g id="Grupo_57512" data-name="Grupo 57512" transform="translate(-1125 -3928)">
    <g id="Grupo_57511" data-name="Grupo 57511">
      <circle id="Elipse_4543" data-name="Elipse 4543" cx="42.5" cy="42.5" r="42.5" transform="translate(1125 3928)" fill="#1448d3"/>
      <g id="Enmascarar_grupo_60" data-name="Enmascarar grupo 60" clip-path="url(#clip-path)">
        <g id="g2037" transform="translate(1142 3996)">
          <path id="path2039" d="M25.146-16.911H.732v-4.117H25.146Z" fill="#06c19d"/>
          <path id="path2041" d="M25.147-16.911H.733v4.118H25.147Z" fill="#0ed2b3"/>
          <g id="g2043">
            <g id="g2045" clip-path="url(#clip-path-2)">
              <g id="g2051" transform="translate(25.147 -23.975)">
                <path id="path2053" d="M0,0A1.172,1.172,0,0,0-1.172-1.172h-22.07A1.172,1.172,0,0,0-24.414,0V2.946H0Z" fill="#0ed2b3"/>
              </g>
              <path id="path2055" d="M25.146-8.968H.732v-3.825H25.146Z" fill="#06c19d"/>
              <g id="g2057" transform="translate(25.146 -4.851)">
                <path id="path2059" d="M0,0V2.946A1.172,1.172,0,0,1-1.172,4.118h-22.07a1.168,1.168,0,0,1-.828-.343c-.026-.026-.052-.055-.076-.083s-.046-.06-.067-.091a.864.864,0,0,1-.059-.1,1.164,1.164,0,0,1-.142-.56V0Z" fill="#06c19d"/>
              </g>
              <path id="path2061" d="M25.147-8.968H.733V-4.85H25.147Z" fill="#0ed2b3"/>
              <g id="g2063" transform="translate(4.346 -0.733)">
                <path id="path2065" d="M0,0H-2.441A1.172,1.172,0,0,1-3.613-1.172v-22.07a1.172,1.172,0,0,1,1.172-1.172H0a1.172,1.172,0,0,0-1.172,1.172v22.07A1.172,1.172,0,0,0,0,0" fill="#06c19d"/>
              </g>
              <path id="path2067" d="M.732-12.793H3.174v3.825H.732Z" fill="#00a38e"/>
              <path id="path2069" d="M3.174-16.911H.732v-4.117H3.174Z" fill="#00a38e"/>
              <g id="g2071" transform="translate(4.346 -0.732)">
                <path id="path2073" d="M0,0H-2.441A1.168,1.168,0,0,1-3.27-.343C-3.3-.369-3.321-.4-3.346-.426s-.046-.06-.067-.091a.864.864,0,0,1-.059-.1,1.164,1.164,0,0,1-.142-.56V-4.118h2.441v2.946A1.172,1.172,0,0,0,0,0" fill="#00a38e"/>
              </g>
              <g id="g2075" transform="translate(37.207 -36.035)">
                <path id="path2077" d="M0,0V22.07a1.172,1.172,0,0,1-1.172,1.172h-22.07a1.172,1.172,0,0,1-1.172-1.172V0a1.172,1.172,0,0,1,1.172-1.172h22.07A1.172,1.172,0,0,1,0,0" fill="#8ac9fe"/>
              </g>
              <g id="g2079" transform="translate(16.406 -12.793)">
                <path id="path2081" d="M0,0H-2.441A1.172,1.172,0,0,1-3.613-1.172v-22.07a1.172,1.172,0,0,1,1.172-1.172H0a1.172,1.172,0,0,0-1.172,1.172v22.07A1.172,1.172,0,0,0,0,0" fill="#60b8fe"/>
              </g>
              <g id="g2083" transform="translate(31.526 -19.062)">
                <path id="path2085" d="M0,0A3.735,3.735,0,0,1,0,2.771l-1.4,3.5H-13.606l1.4-3.5a3.735,3.735,0,0,0,0-2.771l-.845-2.111a3.732,3.732,0,0,1,0-2.772l.844-2.11a3.728,3.728,0,0,0,0-2.772l-.844-2.11a3.737,3.737,0,0,1,0-2.772l1.4-3.5H.554l-1.4,3.5a3.737,3.737,0,0,0,0,2.772L0-9.767A3.728,3.728,0,0,1,0-6.994l-.844,2.11a3.732,3.732,0,0,0,0,2.772Z" fill="#eaf6ff"/>
              </g>
              <g id="g2087" transform="translate(48.096 -24.853)">
                <path id="path2089" d="M0,0H-22.07a1.172,1.172,0,0,1-1.172-1.172v-22.07a1.172,1.172,0,0,1,1.172-1.172H0a1.172,1.172,0,0,1,1.172,1.172v22.07A1.172,1.172,0,0,1,0,0" fill="#f58a97"/>
              </g>
              <g id="g2091" transform="translate(38.875 -43.743)">
                <path id="path2093" d="M0,0-1.4,1.4a.586.586,0,0,1-.829,0L-3.629,0a.586.586,0,0,1,0-.829l1.4-1.4a.586.586,0,0,1,.829,0L0-.829A.586.586,0,0,1,0,0" fill="#ffe270"/>
              </g>
              <g id="g2095" transform="translate(45.963 -43.743)">
                <path id="path2097" d="M0,0-1.4,1.4a.586.586,0,0,1-.829,0L-3.629,0a.586.586,0,0,1,0-.829l1.4-1.4a.586.586,0,0,1,.829,0L0-.829A.586.586,0,0,1,0,0" fill="#ffe270"/>
              </g>
              <g id="g2099" transform="translate(38.875 -29.549)">
                <path id="path2101" d="M0,0-1.4,1.4a.586.586,0,0,1-.829,0L-3.629,0a.586.586,0,0,1,0-.829l1.4-1.4a.586.586,0,0,1,.829,0L0-.829A.586.586,0,0,1,0,0" fill="#ffe270"/>
              </g>
              <g id="g2103" transform="translate(45.963 -29.549)">
                <path id="path2105" d="M0,0-1.4,1.4a.586.586,0,0,1-.829,0L-3.629,0a.586.586,0,0,1,0-.829l1.4-1.4a.586.586,0,0,1,.829,0L0-.829A.586.586,0,0,1,0,0" fill="#ffe270"/>
              </g>
              <g id="g2107" transform="translate(42.419 -36.645)">
                <path id="path2109" d="M0,0-1.4,1.4a.586.586,0,0,1-.829,0L-3.629,0a.586.586,0,0,1,0-.829l1.4-1.4a.586.586,0,0,1,.829,0L0-.829A.586.586,0,0,1,0,0" fill="#ffe270"/>
              </g>
              <g id="g2111" transform="translate(28.467 -24.854)">
                <path id="path2113" d="M0,0H-2.441A1.172,1.172,0,0,1-3.613-1.172v-22.07a1.172,1.172,0,0,1,1.172-1.172H0a1.172,1.172,0,0,0-1.172,1.172v22.07A1.172,1.172,0,0,0,0,0" fill="#f07181"/>
              </g>
              <g id="g2115" transform="translate(31.788 -43.743)">
                <path id="path2117" d="M0,0-1.4,1.4a.586.586,0,0,1-.829,0L-3.629,0a.586.586,0,0,1,0-.829l1.4-1.4a.586.586,0,0,1,.829,0L0-.829A.586.586,0,0,1,0,0" fill="#ffe270"/>
              </g>
              <g id="g2119" transform="translate(31.788 -29.549)">
                <path id="path2121" d="M0,0-1.4,1.4a.586.586,0,0,1-.829,0L-3.629,0a.586.586,0,0,1,0-.829l1.4-1.4a.586.586,0,0,1,.829,0L0-.829A.586.586,0,0,1,0,0" fill="#ffe270"/>
              </g>
              <g id="g2123" transform="translate(35.331 -36.645)">
                <path id="path2125" d="M0,0-1.4,1.4a.586.586,0,0,1-.829,0L-3.629,0a.586.586,0,0,1,0-.829l1.4-1.4a.586.586,0,0,1,.829,0L0-.829A.586.586,0,0,1,0,0" fill="#ffe270"/>
              </g>
              <g id="g2127" transform="translate(25.146 -12.793)">
                <path id="path2129" d="M0,0V10.889a1.172,1.172,0,0,1-1.172,1.172h-22.07a1.172,1.172,0,0,1-1.172-1.172v-22.07a1.172,1.172,0,0,1,1.172-1.172h10.889" fill="none" stroke="#000" stroke-linecap="round" stroke-linejoin="round" stroke-miterlimit="10" stroke-width="1.465"/>
              </g>
              <g id="g2131" transform="translate(25.171 -12.793)">
                <path id="path2133" d="M0,0H-24.414" fill="none" stroke="#000" stroke-linecap="round" stroke-linejoin="round" stroke-miterlimit="10" stroke-width="1.465"/>
              </g>
              <g id="g2135" transform="translate(12.793 -16.911)">
                <path id="path2137" d="M0,0H-12.036" fill="none" stroke="#000" stroke-linecap="round" stroke-linejoin="round" stroke-miterlimit="10" stroke-width="1.465"/>
              </g>
              <g id="g2139" transform="translate(12.793 -21.029)">
                <path id="path2141" d="M0,0H-12.036" fill="none" stroke="#000" stroke-linecap="round" stroke-linejoin="round" stroke-miterlimit="10" stroke-width="1.465"/>
              </g>
              <g id="g2143" transform="translate(7.003 -4.851)">
                <path id="path2145" d="M0,0H-6.246" fill="none" stroke="#000" stroke-linecap="round" stroke-linejoin="round" stroke-miterlimit="10" stroke-width="1.465"/>
              </g>
              <g id="g2147" transform="translate(25.146 -4.851)">
                <path id="path2149" d="M0,0H-14.735" fill="none" stroke="#000" stroke-linecap="round" stroke-linejoin="round" stroke-miterlimit="10" stroke-width="1.465"/>
              </g>
              <g id="g2151" transform="translate(25.146 -8.968)">
                <path id="path2153" d="M0,0H-24.39" fill="none" stroke="#000" stroke-linecap="round" stroke-linejoin="round" stroke-miterlimit="10" stroke-width="1.465"/>
              </g>
              <g id="g2155" transform="translate(37.207 -24.854)">
                <path id="path2157" d="M0,0V10.889a1.172,1.172,0,0,1-1.172,1.172H-24.414V-11.182a1.172,1.172,0,0,1,1.172-1.172h10.889" fill="none" stroke="#000" stroke-linecap="round" stroke-linejoin="round" stroke-miterlimit="10" stroke-width="1.465"/>
              </g>
              <g id="g2159" transform="translate(19.873 -37.207)">
                <path id="path2161" d="M0,0-1.4,3.5a3.732,3.732,0,0,0,0,2.772l.844,2.111a3.731,3.731,0,0,1,0,2.772l-.844,2.11a3.732,3.732,0,0,0,0,2.772l.844,2.111a3.732,3.732,0,0,1,0,2.772l-1.4,3.5" fill="none" stroke="#000" stroke-linecap="round" stroke-linejoin="round" stroke-miterlimit="10" stroke-width="1.465"/>
              </g>
              <g id="g2163" transform="translate(31.045 -24.854)">
                <path id="path2165" d="M0,0-.363.908a3.725,3.725,0,0,0,0,2.771L.48,5.791a3.728,3.728,0,0,1,0,2.772l-1.4,3.5" fill="none" stroke="#000" stroke-linecap="round" stroke-linejoin="round" stroke-miterlimit="10" stroke-width="1.465"/>
              </g>
              <g id="g2167" transform="translate(49.268 -37.329)">
                <path id="path2169" d="M0,0V11.3a1.172,1.172,0,0,1-1.172,1.172h-22.07A1.172,1.172,0,0,1-24.414,11.3v-22.07a1.172,1.172,0,0,1,1.172-1.172h22.07A1.172,1.172,0,0,1,0-10.767v7.349" fill="none" stroke="#000" stroke-linecap="round" stroke-linejoin="round" stroke-miterlimit="10" stroke-width="1.465"/>
              </g>
              <g id="g2171" transform="translate(38.875 -43.743)">
                <path id="path2173" d="M0,0-1.4,1.4a.586.586,0,0,1-.829,0L-3.629,0a.586.586,0,0,1,0-.829l1.4-1.4a.586.586,0,0,1,.829,0L0-.829A.586.586,0,0,1,0,0Z" fill="none" stroke="#000" stroke-linecap="round" stroke-linejoin="round" stroke-miterlimit="10" stroke-width="1.465"/>
              </g>
              <g id="g2175" transform="translate(31.788 -43.743)">
                <path id="path2177" d="M0,0-1.4,1.4a.586.586,0,0,1-.829,0L-3.629,0a.586.586,0,0,1,0-.829l1.4-1.4a.586.586,0,0,1,.829,0L0-.829A.586.586,0,0,1,0,0Z" fill="none" stroke="#000" stroke-linecap="round" stroke-linejoin="round" stroke-miterlimit="10" stroke-width="1.465"/>
              </g>
              <g id="g2179" transform="translate(45.962 -43.743)">
                <path id="path2181" d="M0,0-1.4,1.4a.586.586,0,0,1-.829,0L-3.629,0a.586.586,0,0,1,0-.829l1.4-1.4a.586.586,0,0,1,.829,0L0-.829A.586.586,0,0,1,0,0Z" fill="none" stroke="#000" stroke-linecap="round" stroke-linejoin="round" stroke-miterlimit="10" stroke-width="1.465"/>
              </g>
              <g id="g2183" transform="translate(38.875 -29.549)">
                <path id="path2185" d="M0,0-1.4,1.4a.586.586,0,0,1-.829,0L-3.629,0a.586.586,0,0,1,0-.829l1.4-1.4a.586.586,0,0,1,.829,0L0-.829A.586.586,0,0,1,0,0Z" fill="none" stroke="#000" stroke-linecap="round" stroke-linejoin="round" stroke-miterlimit="10" stroke-width="1.465"/>
              </g>
              <g id="g2187" transform="translate(31.788 -29.549)">
                <path id="path2189" d="M0,0-1.4,1.4a.586.586,0,0,1-.829,0L-3.629,0a.586.586,0,0,1,0-.829l1.4-1.4a.586.586,0,0,1,.829,0L0-.829A.586.586,0,0,1,0,0Z" fill="none" stroke="#000" stroke-linecap="round" stroke-linejoin="round" stroke-miterlimit="10" stroke-width="1.465"/>
              </g>
              <g id="g2191" transform="translate(45.962 -29.549)">
                <path id="path2193" d="M0,0-1.4,1.4a.586.586,0,0,1-.829,0L-3.629,0a.586.586,0,0,1,0-.829l1.4-1.4a.586.586,0,0,1,.829,0L0-.829A.586.586,0,0,1,0,0Z" fill="none" stroke="#000" stroke-linecap="round" stroke-linejoin="round" stroke-miterlimit="10" stroke-width="1.465"/>
              </g>
              <g id="g2195" transform="translate(42.419 -36.645)">
                <path id="path2197" d="M0,0-1.4,1.4a.586.586,0,0,1-.829,0L-3.629,0a.586.586,0,0,1,0-.829l1.4-1.4a.586.586,0,0,1,.829,0L0-.829A.586.586,0,0,1,0,0Z" fill="none" stroke="#000" stroke-linecap="round" stroke-linejoin="round" stroke-miterlimit="10" stroke-width="1.465"/>
              </g>
              <g id="g2199" transform="translate(35.331 -36.645)">
                <path id="path2201" d="M0,0-1.4,1.4a.586.586,0,0,1-.829,0L-3.629,0a.586.586,0,0,1,0-.829l1.4-1.4a.586.586,0,0,1,.829,0L0-.829A.586.586,0,0,1,0,0Z" fill="none" stroke="#000" stroke-linecap="round" stroke-linejoin="round" stroke-miterlimit="10" stroke-width="1.465"/>
              </g>
            </g>
          </g>
        </g>
      </g>
    </g>
  </g>
</svg>
