<svg xmlns="http://www.w3.org/2000/svg" width="295" height="225" viewBox="0 0 295 225">
  <g id="Grupo_57505" data-name="Grupo 57505" transform="translate(2419 10893)">
    <g id="Grupo_57504" data-name="Grupo 57504">
      <circle id="Elipse_4526" data-name="Elipse 4526" cx="95" cy="95" r="95" transform="translate(-2403 -10893)" fill="#0ce6ea"/>
      <g id="Grupo_55815" data-name="Grupo 55815" transform="translate(-2809 -11615)">
        <rect id="Rect치ngulo_5224" data-name="Rect치ngulo 5224" width="295" height="200" transform="translate(390 747)" fill="none"/>
        <g id="Grupo_55813" data-name="Grupo 55813" transform="translate(624.421 -362.555)">
          <g id="Grupo_55795" data-name="Grupo 55795" opacity="0.15">
            <path id="Trazado_105978" data-name="Trazado 105978" d="M-27.17,1226.569c33.383,12.875,33.559,33.747.4,46.616s-87.116,12.876-120.5,0-33.56-33.749-.394-46.622S-60.555,1213.695-27.17,1226.569Z" fill="#636363"/>
          </g>
          <g id="Grupo_55812" data-name="Grupo 55812">
            <path id="Trazado_105979" data-name="Trazado 105979" d="M-87.215,1200.925c-.792,13.124,31.634,41.975,47.245,44.913,4.955.929,13.658-18.165,13.939-20.134,3.016,4.262-27.32-34.672-42.469-39.064C-68.5,1186.64-86.24,1184.812-87.215,1200.925Z" fill="#c66a4a" fill-rule="evenodd"/>
            <g id="Grupo_55796" data-name="Grupo 55796">
              <path id="Trazado_105980" data-name="Trazado 105980" d="M-56.707,1193.74a.411.411,0,0,0,.041.016c-.034-.01-.061-.023-.093-.031C-56.74,1193.73-56.727,1193.733-56.707,1193.74Z" fill="#ff8a5b"/>
              <path id="Trazado_105981" data-name="Trazado 105981" d="M-98.347,1214.476c.245-.259.509-.518.76-.779-.755.776-1.475,1.557-2.152,2.34.435-.509.88-1.014,1.349-1.518A.125.125,0,0,0-98.347,1214.476Z" fill="#ff8a5b"/>
              <path id="Trazado_105982" data-name="Trazado 105982" d="M-141.467,1242.68c.916,5.884,4.5,11.59,10.8,16.1,6.618,4.738,15.083,7.346,23.755,7.853,10.749.63,21.817-1.974,30.074-7.847,9.168-6.522,12.707-15.533,10.648-23.974.281-3.069.362-6.1.549-9.084,2.6-41.345-29.808-48.553-29.808-48.553a6.662,6.662,0,0,0-1.142-.661c-.084-.035-.169-.053-.252-.087-.109-.043-.226-.076-.339-.112a4.9,4.9,0,0,0-.525-.184,7.622,7.622,0,0,0-1-.182.093.093,0,0,1-.039-.006c-.288-.031-.593-.046-.9-.053s-.63.013-.959.041c-.043,0-.089.012-.128.017s-.085.013-.127.016c-.239.026-.469.049-.717.09-.334.056-.673.127-1.024.21-.129.033-.265.074-.391.109l-.251.069c-.157.047-.3.078-.468.129-.389.118-.787.256-1.195.406-.224.085-.463.187-.693.285-.094.038-.183.072-.275.11-.114.049-.226.087-.347.14q-.72.315-1.494.7c-.252.123-.519.271-.773.407-.144.074-.289.148-.434.225-.164.084-.312.158-.468.246q-.948.526-1.958,1.142c-.141.084-.287.184-.421.271-.256.155-.511.324-.763.488-.392.247-.766.479-1.171.745-.655.445-1.334.911-2.03,1.4-.21.151-.422.3-.632.456-.912.66-1.789,1.315-2.631,1.979-.327.251-.627.509-.945.767l-.6.487c-.219.179-.445.358-.655.535-.678.566-1.333,1.139-1.959,1.712-.3.271-.586.546-.877.817-.126.12-.254.235-.377.351-.142.137-.294.273-.432.409q-.773.744-1.5,1.5c-.452.474-.895.944-1.316,1.418a.05.05,0,0,0-.017.021c-.031.03-.059.064-.088.094-.36.4-.714.806-1.059,1.206s-.674.809-1,1.215c-.274.341-.531.679-.793,1.022l-.08.107a.438.438,0,0,0-.057.072c-.264.346-.515.693-.765,1.045s-.494.7-.728,1.046q-.385.566-.743,1.127c-.043.068-.076.132-.123.2s-.088.147-.132.218c-.178.284-.357.571-.529.855q-.782,1.314-1.454,2.639c-.05.09-.083.18-.131.269-.381.762-.749,1.526-1.087,2.293-.167.386-.331.768-.489,1.154a.408.408,0,0,0-.017.054s0,.005-.007.008c-.132.336-.27.676-.4,1.016-.114.3-.226.6-.331.9s-.217.607-.322.911-.2.609-.292.914a.211.211,0,0,1-.015.035l0,.011c-.107.338-.205.675-.305,1.019s-.207.716-.305,1.077-.194.732-.283,1.1c-.043.174-.083.343-.124.515-.021.094-.046.186-.064.276-.046.179-.088.356-.126.534-.1.438-.194.884-.282,1.329q-.157.76-.287,1.521c-.026.11-.035.22-.058.328-.01.071-.023.147-.035.217-.058.353-.117.7-.17,1.057-.093.616-.179,1.229-.261,1.851-.028.247-.056.491-.082.74-.022.161-.04.327-.058.488-.026.256-.06.509-.085.761-.086.811-.153,1.628-.217,2.449-.011.112-.018.228-.019.345-.032.366-.05.74-.072,1.109-.033.525-.072,1.046-.1,1.574-.012.281-.017.568-.032.85-.037.786-.061,1.582-.084,2.38-.011.3-.025.6-.033.9,0,.159,0,.335,0,.5-.011.482-.011.978-.019,1.464Q-141.469,1239.483-141.467,1242.68Zm38.211-32.044c-.085.1-.183.193-.27.29l0,0C-103.438,1210.826-103.341,1210.733-103.256,1210.636Zm15.68-12.836c-.125.079-.253.163-.381.243.108-.072.22-.143.325-.21C-87.614,1197.821-87.593,1197.813-87.576,1197.8Zm3.365-1.923c-.091.046-.175.087-.263.134l.162-.087C-84.278,1195.908-84.246,1195.9-84.211,1195.877Zm2.7-1.272c-.1.041-.213.095-.317.139.044-.018.094-.047.137-.065C-81.626,1194.652-81.568,1194.629-81.507,1194.6Zm2.808-.944c-.156.043-.31.08-.469.126.033-.009.072-.026.107-.037.08-.022.157-.046.238-.063C-78.781,1193.674-78.742,1193.674-78.7,1193.661Zm4.28-.372c-.113-.015-.235-.022-.351-.033.065.006.142-.007.209,0l.007,0C-74.5,1193.264-74.465,1193.283-74.419,1193.289Zm-33.178,22.748c.353-.509.714-1.014,1.095-1.518a.117.117,0,0,0,.035-.043c.2-.259.413-.518.617-.779Q-106.769,1214.861-107.6,1216.037Z" transform="translate(6.923)" fill="#ff8a5b"/>
              <path id="Trazado_105983" data-name="Trazado 105983" d="M-140.867,1242.68c1.129,5.884,5.54,11.59,13.31,16.1,8.155,4.738,18.583,7.346,29.266,7.853,13.244.63,26.879-1.974,37.05-7.847a31.787,31.787,0,0,0,10.382-9.077c-.209-.006-.42,0-.63-.01-10.685-.509-21.113-3.115-29.266-7.854-7.769-4.514-12.181-10.222-13.31-16.1q0-3.2.059-6.29c.012-.486.012-.982.023-1.464,0-.161,0-.337,0-.5.012-.3.028-.6.041-.9.03-.8.059-1.595.105-2.381.02-.281.025-.568.04-.849.034-.528.082-1.048.124-1.575.028-.369.05-.742.089-1.11a2.635,2.635,0,0,1,.023-.343c.077-.822.163-1.638.268-2.448.031-.253.072-.507.105-.763.023-.161.044-.325.072-.486.031-.25.067-.5.1-.744.1-.62.2-1.234.32-1.849.065-.355.141-.7.21-1.056.016-.07.029-.146.042-.216.028-.109.04-.218.071-.329q.162-.76.354-1.522c.11-.444.224-.89.348-1.328.046-.177.1-.355.155-.532.021-.093.052-.184.078-.277.051-.173.1-.343.153-.517.11-.368.231-.737.35-1.1s.242-.72.375-1.076.245-.68.376-1.016a.018.018,0,0,1,0-.015.365.365,0,0,0,.017-.034c.116-.3.241-.611.364-.914s.259-.6.394-.911.267-.6.407-.9c.161-.34.331-.679.492-1.017a.031.031,0,0,1,.012-.009.3.3,0,0,1,.019-.055c.2-.384.4-.767.6-1.149.417-.77.87-1.533,1.339-2.3.059-.088.1-.18.161-.271q.831-1.321,1.792-2.637c.21-.285.433-.571.651-.857.056-.068.109-.142.165-.216s.1-.135.149-.2c.3-.376.6-.75.914-1.126.292-.351.591-.7.9-1.049s.618-.7.944-1.045a.525.525,0,0,1,.07-.073c.036-.037.067-.072.1-.106.321-.342.641-.681.976-1.021.2-.2.407-.405.612-.606a41.07,41.07,0,0,0-5.074-1.39,8.877,8.877,0,0,0-1.407-.661c-.1-.035-.208-.053-.308-.087-.137-.043-.279-.076-.417-.112-.219-.064-.42-.139-.65-.184a11.244,11.244,0,0,0-1.226-.182.154.154,0,0,1-.049-.006c-.355-.031-.729-.046-1.111-.053s-.775.013-1.184.041c-.052,0-.108.012-.157.017s-.1.013-.155.016c-.292.026-.579.049-.884.09-.41.056-.829.127-1.26.21-.16.033-.327.074-.483.109l-.31.069c-.192.047-.373.078-.575.129-.48.118-.971.256-1.47.406-.278.085-.573.187-.857.285-.113.038-.226.072-.338.11-.143.049-.279.087-.427.14-.59.21-1.206.443-1.839.7-.309.123-.642.271-.952.407-.179.074-.356.148-.537.225-.2.084-.382.158-.576.246-.78.351-1.585.732-2.409,1.142-.176.084-.353.184-.522.271-.314.155-.63.324-.939.488-.484.247-.944.479-1.442.745-.808.445-1.643.911-2.5,1.4q-.39.227-.778.456c-1.124.66-2.2,1.315-3.242,1.979-.4.251-.771.509-1.161.767-.246.16-.5.328-.744.487-.269.179-.547.358-.808.535-.834.566-1.641,1.139-2.415,1.712-.369.271-.72.546-1.077.817-.156.12-.314.235-.464.351-.177.137-.362.273-.532.409q-.953.744-1.847,1.5c-.557.474-1.105.944-1.623,1.418-.011.005-.014.013-.02.021-.039.03-.072.064-.109.094-.442.4-.881.806-1.3,1.206s-.83.809-1.226,1.215c-.337.341-.657.679-.978,1.022-.032.033-.063.069-.1.107a.639.639,0,0,0-.068.072c-.326.346-.636.693-.944,1.045s-.607.7-.9,1.046q-.473.566-.911,1.127c-.055.068-.1.132-.153.2s-.109.147-.164.218c-.219.284-.442.571-.651.855-.643.876-1.237,1.756-1.79,2.639-.064.09-.1.18-.161.269-.469.762-.924,1.526-1.34,2.293-.205.386-.409.768-.6,1.154a.273.273,0,0,0-.021.054c-.007,0-.007.005-.011.008-.162.336-.33.676-.492,1.016-.14.3-.28.6-.406.9s-.269.607-.4.911-.247.609-.363.914a.281.281,0,0,1-.017.035.012.012,0,0,0,0,.011c-.129.338-.252.675-.376,1.019s-.255.716-.377,1.077-.239.732-.349,1.1c-.051.174-.1.343-.151.515-.027.094-.058.186-.078.276-.058.179-.111.356-.156.534-.123.438-.237.884-.348,1.329-.127.507-.244,1.014-.355,1.521-.031.11-.042.22-.069.328-.011.071-.027.147-.044.217-.069.353-.142.7-.211,1.057-.116.616-.221,1.229-.319,1.851-.034.247-.068.491-.1.74-.025.161-.05.327-.074.488-.03.256-.073.509-.1.761-.1.811-.189,1.628-.266,2.449-.015.112-.02.228-.024.345-.038.366-.059.74-.087,1.109-.042.525-.091,1.046-.127,1.574-.014.281-.017.568-.037.85-.047.786-.076,1.582-.106,2.38-.013.3-.031.6-.04.9,0,.159,0,.335,0,.5-.014.482-.014.978-.025,1.464Q-140.864,1239.483-140.867,1242.68Zm46.743-31.754,0,0c.108-.1.226-.19.331-.287C-93.9,1210.734-94.016,1210.829-94.124,1210.926Zm-5.014,5.111c.437-.509.881-1.014,1.349-1.518a.1.1,0,0,0,.043-.043c.244-.259.509-.518.761-.779C-97.738,1214.473-98.46,1215.254-99.138,1216.037Z" fill="#e17c54"/>
            </g>
            <g id="Grupo_55800" data-name="Grupo 55800">
              <path id="Trazado_105984" data-name="Trazado 105984" d="M-89.066,1177.779s7.39-.712,10.118,7.438c2.711,8.149-.824,11.047-4.584,13.131-8.022,4.44-13.276,1.192-20.292-8.383-.567-.781-2.514-7.374,5.884-9.158Z" fill="#f1b287" fill-rule="evenodd"/>
              <path id="Trazado_105985" data-name="Trazado 105985" d="M-97.641,1165.37c-.514,4.546-.036,6.939-1.266,12.334-.408,1.723-1.437,3.857-1.715,6.307-.466,4.129,3.831,6.427,5.976,7.858,1.969,1.311,12.606,1.472,14.1-1.1,1.314-2.233,3.619-7.387,3.047-9.806-.612-2.678-9.136-5.261-8.829-7.978Z" fill="#e2a67d" fill-rule="evenodd"/>
              <path id="Trazado_105986" data-name="Trazado 105986" d="M-63.5,1143.6a39.062,39.062,0,0,0-.337,9.627c.289,2.355-1.244,8.035-1.093,14.219.1,3.9-1.68,7.655-3.138,11.257-1.143,2.844-1.935,6.228-4.754,7.73-7.042,3.747-13.911-1.767-20.338-4.751-6.35-2.967-4.324-12.389-5.823-18.068-2.711-10.223,1.4-23.769,12.718-26.947,5.061-1.429,13.157-1.575,17.935.824,1.693.841,5.353,2.679,4.83,6.109Z" fill="#f1b287" fill-rule="evenodd"/>
              <path id="Trazado_105987" data-name="Trazado 105987" d="M-106.456,1158.215l.121.561a4.008,4.008,0,0,1-.121-.561Z" fill="#221f1f" fill-rule="evenodd"/>
              <path id="Trazado_105988" data-name="Trazado 105988" d="M-105.844,1160.225c-4.722-5.634-7.249-27.836,6.043-32.469,16.4-5.72,32.046-4.134,38.517,7.651,2.552,4.65-2.764,18.726-2.764,18.726l-1.208-6.151c-.837,1.753-5.768,4.5-8.747,4.159-1.313-.146,3.148-3.7.656-4.681-1.3-.509-9.167,5.405-8.931,4.474,1.728-6.67-4.613-6.929-7.221-3.414-1.833,2.477-3.567,4.047-4.361,6.393a36.5,36.5,0,0,0-1.964,5.731c-.179.971-.893,13.748-2.488,13.858C-98.312,1174.5-105.4,1160.764-105.844,1160.225Z" fill="#352209" fill-rule="evenodd"/>
              <g id="Grupo_55797" data-name="Grupo 55797">
                <path id="Trazado_105989" data-name="Trazado 105989" d="M-64.071,1136.817c-6.459-11.776-22.087-13.366-38.471-7.673a12.637,12.637,0,0,1,2.741-1.375c16.4-5.718,32.043-4.134,38.517,7.655,2.546,4.647-2.76,18.725-2.76,18.725l-.885-4.529C-63.718,1145.189-62.61,1139.467-64.071,1136.817Z" fill="#492e0f" fill-rule="evenodd"/>
              </g>
              <path id="Trazado_105990" data-name="Trazado 105990" d="M-65.105,1165.62s-2.031,10.434-4.113,11.915c-2.469,1.754-7.646,2.462-11.773.243s-9.88-7.174-10.389-12.1-1.979-12.471-1.979-12.471L-95.6,1159.7s1.631,10.2.813,12.438c-.747,2.011-1.072,8.492-1.072,8.492a19.3,19.3,0,0,0,12.425,9.811c2.813.766,9.777,1.29,12-1.017C-64.676,1182.4-63.083,1167.22-65.105,1165.62Z" fill="#352209" fill-rule="evenodd"/>
              <g id="Grupo_55798" data-name="Grupo 55798">
                <path id="Trazado_105991" data-name="Trazado 105991" d="M-104.726,1154.122a7.477,7.477,0,0,1-1.108.635c.02-.02.057-.03.072-.045,2.08-1.478,4.111-11.92,4.111-11.92a2.439,2.439,0,0,1,.614,1.376C-101.734,1147.258-103.218,1153.055-104.726,1154.122Z" fill="#352209" fill-rule="evenodd"/>
                <path id="Trazado_105992" data-name="Trazado 105992" d="M-95.752,1159.685s2.667,9.609,1.838,11.859c-.734,2-1.07,8.485-1.07,8.485a19.269,19.269,0,0,0,12.43,9.8c2.357.643,7.578,1.1,10.527-.118-2.542,1.912-8.891,1.438-11.557.711a19.277,19.277,0,0,1-12.432-9.805s.334-6.486,1.065-8.493C-94.121,1169.884-95.752,1159.685-95.752,1159.685Z" fill="#1e1305" fill-rule="evenodd"/>
              </g>
              <path id="Trazado_105993" data-name="Trazado 105993" d="M-72.439,1173.089c.41.82.454,2.946-2.711,2.982a68.139,68.139,0,0,0-9.029,1.214l-.869-.891a16.424,16.424,0,0,0,4.065-2.063C-79.135,1172.989-74.369,1169.188-72.439,1173.089Z" fill="#352209" fill-rule="evenodd"/>
              <path id="Trazado_105994" data-name="Trazado 105994" d="M-72.213,1172.381c-.576.708-1.1,2.767,1.976,3.511a4.416,4.416,0,0,1,3.542,3.028l.627-1.3a2.113,2.113,0,0,0,.356-3.142C-67.205,1172.764-69.462,1169.006-72.213,1172.381Z" fill="#352209" fill-rule="evenodd"/>
              <path id="Trazado_105995" data-name="Trazado 105995" d="M-70.7,1160.411s1.929,9.294.978,9.579-3.934,1.072-4.9.271,1.15-10.165,1.15-10.165S-71.057,1159.48-70.7,1160.411Z" fill="#e2a67d" fill-rule="evenodd"/>
              <g id="Grupo_55799" data-name="Grupo 55799">
                <path id="Trazado_105996" data-name="Trazado 105996" d="M-105.78,1152.43l2.825,7.572.054-9.795,2.453,10.886,1.254-11.078,1.264,10.556,2.583-9.678-.19,8.262a10.413,10.413,0,0,0-.456,1.533c-.187.968-.892,13.746-2.49,13.852,0,0-7.167-13.675-7.536-14.274a23.1,23.1,0,0,1-2.219-5.156c.692,1.116,1.613,2.6,2.857,4.619C-100.564,1167.53-105.78,1152.43-105.78,1152.43Z" fill="#1e1305"/>
              </g>
              <path id="Trazado_105997" data-name="Trazado 105997" d="M-101.5,1165.682c1.029,3.686,3.179,6.317,4.8,5.858s3.645-3.654,2.6-7.332c-1-3.692-4.705-6.468-6.325-6.006-1.623.444-2.092,3.8-1.075,7.48Z" fill="#ffd7a6" fill-rule="evenodd"/>
              <path id="Trazado_105998" data-name="Trazado 105998" d="M-101.5,1165.682c1.029,3.686,3.179,6.317,4.8,5.858s3.645-3.654,2.6-7.332c-1-3.692-4.705-6.468-6.325-6.006-1.623.444-2.092,3.8-1.075,7.48Z" fill="#e2a67d" fill-rule="evenodd"/>
            </g>
            <g id="Grupo_55811" data-name="Grupo 55811">
              <path id="Trazado_105999" data-name="Trazado 105999" d="M-74.676,1254.713c.307-.185,1.462-3.7,3.614-4.961a25.143,25.143,0,0,1,7.131-2.685,7.9,7.9,0,0,0,2.713-1.814c2.544-2.227,2.7.944,1.938,2.661-1.064,2.455-4.587,4.222-5.866,4.593Z" fill="#f1b287" fill-rule="evenodd"/>
              <g id="Grupo_55810" data-name="Grupo 55810">
                <path id="Trazado_106000" data-name="Trazado 106000" d="M-120.565,1191.628c-15.219,3.648-36.846,50.584-34.787,69.387.657,5.966,25.424,9.263,27.763,8.9,0,0,23.624-39.137,23.326-61.848C-104.263,1208.062-101.867,1187.152-120.565,1191.628Z" fill="#ff8a5b" fill-rule="evenodd"/>
                <g id="Grupo_55807" data-name="Grupo 55807">
                  <g id="Grupo_55806" data-name="Grupo 55806">
                    <g id="Grupo_55805" data-name="Grupo 55805">
                      <g id="Grupo_55804" data-name="Grupo 55804">
                        <path id="Trazado_106001" data-name="Trazado 106001" d="M-8.681,1202.994a2.707,2.707,0,0,0-3.988-1.792L-63.6,1230.427a2.71,2.71,0,0,0-1.359,2.352v58.9a2.7,2.7,0,0,0,3.622,2.528,2.663,2.663,0,0,0,.435-.179l50.934-29.222a2.7,2.7,0,0,0,1.36-2.351v-58.9A2.682,2.682,0,0,0-8.681,1202.994Z" fill="#222528"/>
                        <path id="Trazado_106002" data-name="Trazado 106002" d="M-62.234,1226.3l-4.31,2.47a2.658,2.658,0,0,0-1.142,1.351,2.625,2.625,0,0,0-.222,1v5.564l2.948,1.738v-5.647a2.661,2.661,0,0,1,.192-.951,2.663,2.663,0,0,1,1.167-1.4l4.145-2.377Z" fill="#6e7072"/>
                        <g id="Grupo_55801" data-name="Grupo 55801">
                          <path id="Trazado_106003" data-name="Trazado 106003" d="M-62.234,1226.3l2.778,1.746,41.563-23.848-2.887-1.687Z" fill="#606366"/>
                          <path id="Trazado_106004" data-name="Trazado 106004" d="M-8.681,1202.994l0-.052c0-2.084-4.515-4.712-7.761-2.912l-4.34,2.485,2.887,1.687,5.224-3A2.707,2.707,0,0,1-8.681,1202.994Z" fill="#6e7072"/>
                        </g>
                        <g id="Grupo_55802" data-name="Grupo 55802">
                          <path id="Trazado_106005" data-name="Trazado 106005" d="M-67.908,1236.688v12.654l0,35.371,2.949,1.746v-48.032Z" fill="#606366"/>
                          <path id="Trazado_106006" data-name="Trazado 106006" d="M-61.4,1294.248l.067-.041a2.7,2.7,0,0,1-3.622-2.528v-5.221l-2.949-1.746v6.371C-67.918,1293.9-63.206,1295.285-61.4,1294.248Z" fill="#6e7072"/>
                        </g>
                        <g id="Grupo_55803" data-name="Grupo 55803">
                          <path id="Trazado_106007" data-name="Trazado 106007" d="M-21.17,1205.215l-4.7,2.657v-1.139l4.7-2.657Z" fill="#6e7072"/>
                          <path id="Trazado_106008" data-name="Trazado 106008" d="M-26.941,1207.294l1.07.578v-1.139l-1.07-.578Z" fill="#555759"/>
                          <path id="Trazado_106009" data-name="Trazado 106009" d="M-26.941,1206.159l1.07.576,4.7-2.659-1.077-.578Z" fill="#96a1aa"/>
                        </g>
                        <path id="Trazado_106010" data-name="Trazado 106010" d="M-65.669,1246.648a.848.848,0,0,1-.77.9.845.845,0,0,1-.765-.9.839.839,0,0,1,.765-.9A.842.842,0,0,1-65.669,1246.648Z" fill="#212626"/>
                        <path id="Rect치ngulo_5575" data-name="Rect치ngulo 5575" d="M.975,0h.263a.972.972,0,0,1,.972.972V5.848a.97.97,0,0,1-.97.97H.972A.972.972,0,0,1,0,5.846V.975A.975.975,0,0,1,.975,0Z" transform="translate(-67.54 1259.486)" fill="#212626"/>
                      </g>
                    </g>
                  </g>
                </g>
                <g id="Grupo_55809" data-name="Grupo 55809">
                  <g id="Grupo_55808" data-name="Grupo 55808">
                    <path id="Trazado_106011" data-name="Trazado 106011" d="M-54.929,1264.665s-8.136,3.48-12.529,3.473a17.547,17.547,0,0,1-8.437-1.956l-8.607,1.144-5.946-8.605s5.508-3.049,7.587-3.307,12.383-2.48,13.982-2.5c1.352-.012,1.964,5.393,4.711,3.725.38-.23,1.423,1.553,1.671,1.894.384.532,1.669-.97,2.268-.336C-57.887,1260.692-54.568,1263.229-54.929,1264.665Z" fill="#f1b287" fill-rule="evenodd"/>
                    <path id="Trazado_106012" data-name="Trazado 106012" d="M-73.855,1253.71c.351-.065,3.041-4.354,4.846-2.632,1.961,1.872.863,4.792,10.034,4.019.775-.067,2.068.612,6.522-2.977s4.678-1.694,4.678-1.694c.165,1.65-1.891,3.65-2.334,4.3a18.237,18.237,0,0,1-4.354,4.661,16.4,16.4,0,0,1-3.542,2.418Z" fill="#f1b287" fill-rule="evenodd"/>
                    <path id="Trazado_106013" data-name="Trazado 106013" d="M-57.411,1258.153c2.838-1.832.785.171,5.337-3.255,4.578-3.443,4.737-1.554,4.737-1.554.108,1.65-2.022,3.59-2.462,4.238a18.3,18.3,0,0,1-4.525,4.5,15.135,15.135,0,0,1-3.617,2.294Z" fill="#f1b287" fill-rule="evenodd"/>
                    <path id="Trazado_106014" data-name="Trazado 106014" d="M-56.626,1261.47c2.565-1.676.627,1.19,4.733-2,3.989-3.082,4.71-2.831,4.71-2.831.829,1.932-1.448,3.46-2.746,4.675-3.221,3-5,3.349-5,3.349s-2.943.978-4.75,1.781Z" fill="#f1b287" fill-rule="evenodd"/>
                    <path id="Trazado_106015" data-name="Trazado 106015" d="M-67.112,1256.256c2.565-1.673,8.1-2.572,12.211-5.759,3.986-3.084,4.977-2.37,4.977-2.37.831,1.932-1.444,3.458-2.742,4.672-3.223,3-5,3.35-5,3.35s-2.946.978-4.752,1.782Z" fill="#f1b287" fill-rule="evenodd"/>
                  </g>
                </g>
                <path id="Trazado_106016" data-name="Trazado 106016" d="M-151.431,1267.838c7.346,5.891,69.887,1.948,71.574,1.846,4.454-.282,2.242-17.569.5-18.956,5.178,1.374-52.837-10.512-63.966-5.931C-143.326,1244.8-165.422,1256.6-151.431,1267.838Z" fill="#ff8a5b" fill-rule="evenodd"/>
                <path id="Trazado_106017" data-name="Trazado 106017" d="M-155.34,1256.563c1.1-20.865,20.734-61.528,34.862-64.916a22.94,22.94,0,0,1,3.29-.554c-12.856,11.568-26.924,43.173-27.851,60.74-1.359,3.5-.817,7.426,3.994,11.294,5.827,4.673,46.35,3.161,63.718,2.283-.3,2.431-1.043,4.2-2.443,4.295-1.687.1-64.23,4.042-71.576-1.851C-156.158,1263.989-156.7,1260.057-155.34,1256.563Z" fill="#c66a4a" fill-rule="evenodd"/>
                <path id="Trazado_106018" data-name="Trazado 106018" d="M-22.191,1238.779a2.428,2.428,0,0,1-2.2-1.459s.219-1.2,5.222-1.778c3.759-.423,7.207-2.228,9.969-3.415,1-2.854.478-4.031.551-6,.094-2.493,2.492,4.385,2.792,4.19,0,0,1.553.942,1.769,6.374a13.993,13.993,0,0,1-1.459,6.635,25.9,25.9,0,0,1-3.723,2.359s-1.52.991-5.92,1.088c-1.776.032-4.474.527-5.226-1.436,0,0,.271-.507,3.539-1.015-.33-.037-.657-.078-1-.139-.77-.158-3.648-.059-4.725-1.321,0,0-.492-.614.7-1.244a4.1,4.1,0,0,1-2.419-1.151S-25.1,1239.442-22.191,1238.779Z" fill="#f1b287" fill-rule="evenodd"/>
              </g>
            </g>
          </g>
        </g>
      </g>
    </g>
  </g>
</svg>
