<svg xmlns="http://www.w3.org/2000/svg" width="91.026" height="91.026" viewBox="0 0 91.026 91.026">
  <g id="Grupo_57524" data-name="Grupo 57524" transform="translate(-285 -7947.5)">
    <g id="Grupo_57523" data-name="Grupo 57523">
      <g id="Grupo_57522" data-name="Grupo 57522">
        <g id="Grupo_57108" data-name="Grupo 57108" transform="translate(285 7947.5)">
          <circle id="Elipse_4484" data-name="Elipse 4484" cx="45.513" cy="45.513" r="45.513" transform="translate(0 0)" fill="#9f0925"/>
        </g>
      </g>
      <g id="Grupo_57119" data-name="Grupo 57119" transform="translate(499.757 10295.081)">
        <g id="Grupo_57110" data-name="Grupo 57110" transform="translate(-181.098 -2289.895)">
          <g id="Grupo_57109" data-name="Grupo 57109">
            <path id="Trazado_108372" data-name="Trazado 108372" d="M-49.685-1959.581a1.073,1.073,0,0,0-1.073,1.073,1.073,1.073,0,0,0,1.073,1.073,1.073,1.073,0,0,0,1.073-1.073A1.073,1.073,0,0,0-49.685-1959.581Z" transform="translate(50.758 1959.581)" fill="#fff"/>
          </g>
        </g>
        <g id="Grupo_57112" data-name="Grupo 57112" transform="translate(-196.757 -2329.581)">
          <g id="Grupo_57111" data-name="Grupo 57111">
            <path id="Trazado_108373" data-name="Trazado 108373" d="M-148.476-2309.2l6.321-6.321a1.072,1.072,0,0,0,.283-1.016,1.072,1.072,0,0,0-.725-.767l-15.392-4.751a10.7,10.7,0,0,0-10.238-7.524,10.729,10.729,0,0,0-9.95,6.717L-196-2317.305a1.073,1.073,0,0,0-.722.768,1.073,1.073,0,0,0,.283,1.015l6.487,6.487-4.091,6.819a1.072,1.072,0,0,0-.086.924,1.073,1.073,0,0,0,.667.646l5.934,1.978v16.5a1.073,1.073,0,0,0,.7,1c3.628,1.36,17.109,6.417,17.181,6.442a1.068,1.068,0,0,0,.686.01l.009,0,19.307-6.436a1.073,1.073,0,0,0,.733-1.018v-16.938l6.328-1.989a1.072,1.072,0,0,0,.72-.768,1.073,1.073,0,0,0-.283-1.014Zm-9.025-9.653c0-.272-.011-.544-.032-.815l12.6,3.89-5.352,5.352-8.745-2.914A10.756,10.756,0,0,0-157.5-2318.855Zm-18.842-2.792a8.584,8.584,0,0,1,8.117-5.789,8.563,8.563,0,0,1,8.325,6.492,8.629,8.629,0,0,1,.256,2.088,8.477,8.477,0,0,1-1.912,5.4,8.55,8.55,0,0,1-6.669,3.18,8.588,8.588,0,0,1-7.05-3.69,8.517,8.517,0,0,1-1.53-4.89A8.553,8.553,0,0,1-176.343-2321.647Zm-17.329,5.862,14.834-4.625a10.814,10.814,0,0,0-.114,1.555,10.662,10.662,0,0,0,1.189,4.909l-10.552,3.517Zm2.152,13.526,3.392-5.653,17.222,5.741-3.391,5.653Zm21.148,24.974-15.016-5.631v-15.038c11.815,3.917,11.238,3.8,11.567,3.8a1.073,1.073,0,0,0,.92-.521l2.53-4.217Zm1.073-26.612-15.915-5.3,8.666-2.888a10.733,10.733,0,0,0,8.321,3.961,10.679,10.679,0,0,0,7.84-3.406l7,2.334Zm18.234,20.951-17.161,5.72v-22.483l3.8,4.752a1.072,1.072,0,0,0,1.159.353l12.2-3.834Zm-12.143-13.924-4.293-5.366,17.218-5.74,5.359,5.359Z" transform="translate(196.757 2329.581)" fill="#fff"/>
          </g>
        </g>
        <g id="Grupo_57114" data-name="Grupo 57114" transform="translate(-177.048 -2288.478)">
          <g id="Grupo_57113" data-name="Grupo 57113" transform="translate(0 0)">
            <path id="Trazado_108374" data-name="Trazado 108374" d="M-9.165-1945.4l-2.385-.894a1.073,1.073,0,0,0-1.381.627,1.072,1.072,0,0,0,.628,1.381l2.385.895a1.073,1.073,0,0,0,1.381-.628A1.073,1.073,0,0,0-9.165-1945.4Z" transform="translate(13 1946.364)" fill="#fff"/>
          </g>
        </g>
        <g id="Grupo_57116" data-name="Grupo 57116" transform="translate(-181.098 -2285.414)">
          <g id="Grupo_57115" data-name="Grupo 57115" transform="translate(0 0)">
            <path id="Trazado_108375" data-name="Trazado 108375" d="M-42.877-1915.323l-6.436-2.413a1.073,1.073,0,0,0-1.381.628,1.072,1.072,0,0,0,.628,1.381l6.436,2.414a1.074,1.074,0,0,0,.376.069,1.073,1.073,0,0,0,1-.7A1.073,1.073,0,0,0-42.877-1915.323Z" transform="translate(50.762 1917.804)" fill="#fff"/>
          </g>
        </g>
        <g id="Grupo_57118" data-name="Grupo 57118" transform="translate(-172.517 -2323.146)">
          <g id="Grupo_57117" data-name="Grupo 57117" transform="translate(0 0)">
            <path id="Trazado_108376" data-name="Trazado 108376" d="M39.653-2269.268a1.073,1.073,0,0,0-1.517,0l-5.677,5.677-1.387-1.387a1.073,1.073,0,0,0-1.517,0,1.073,1.073,0,0,0,0,1.517l2.145,2.145a1.073,1.073,0,0,0,1.517,0l6.436-6.436A1.072,1.072,0,0,0,39.653-2269.268Z" transform="translate(-29.241 2269.582)" fill="#fff"/>
          </g>
        </g>
      </g>
    </g>
  </g>
</svg>
