<svg xmlns="http://www.w3.org/2000/svg" width="820.434" height="590.351" viewBox="0 0 820.434 590.351">
  <g id="Grupo_55792" data-name="Grupo 55792" transform="translate(-390 -5828.235)">
    <g id="Grupo_55781" data-name="Grupo 55781" transform="translate(432.3 4805.756)">
      <circle id="Elipse_4060" data-name="Elipse 4060" cx="94.193" cy="94.193" r="94.193" transform="translate(564.676 1054.608)" fill="#ea526f"/>
      <circle id="Elipse_4060-2" data-name="Elipse 4060" cx="86.871" cy="86.871" r="86.871" transform="translate(571.998 1061.93)" fill="#fff"/>
      <path id="Trazado_105952" data-name="Trazado 105952" d="M658.869,1268.065A119.264,119.264,0,1,1,778.134,1148.8,119.4,119.4,0,0,1,658.869,1268.065Zm0-235.661a116.4,116.4,0,1,0,116.4,116.4A116.527,116.527,0,0,0,658.869,1032.4Z" fill="#b0c0d2"/>
      <g id="Grupo_53887" data-name="Grupo 53887">
        <path id="Trazado_100683" data-name="Trazado 100683" d="M545.374,1148.8H531.7a126.318,126.318,0,0,1,126.318-126.32h0v13.674A112.775,112.775,0,0,0,545.374,1148.8Z" fill="#ea526f"/>
      </g>
      <path id="Trazado_107817" data-name="Trazado 107817" d="M50.27,12.992V17H47.926V5.625h4.438a5.134,5.134,0,0,1,2.254.469,3.454,3.454,0,0,1,1.5,1.332,3.714,3.714,0,0,1,.523,1.965,3.266,3.266,0,0,1-1.145,2.637,4.767,4.767,0,0,1-3.168.965Zm0-1.9h2.094a2.059,2.059,0,0,0,1.418-.437,1.591,1.591,0,0,0,.488-1.25,1.876,1.876,0,0,0-.492-1.352,1.839,1.839,0,0,0-1.359-.531H50.27Zm12.578-.43a6.134,6.134,0,0,0-.812-.062,1.654,1.654,0,0,0-1.68.867V17H58.1V8.547h2.133l.063,1.008a2.092,2.092,0,0,1,1.883-1.164,2.366,2.366,0,0,1,.7.1ZM63.3,12.7a5.013,5.013,0,0,1,.484-2.242A3.546,3.546,0,0,1,65.18,8.93a4.069,4.069,0,0,1,2.113-.539,3.849,3.849,0,0,1,2.793,1.047,4.2,4.2,0,0,1,1.207,2.844l.016.578a4.418,4.418,0,0,1-1.086,3.121,4.209,4.209,0,0,1-5.832,0A4.5,4.5,0,0,1,63.3,12.8Zm2.258.16a3.16,3.16,0,0,0,.453,1.843,1.628,1.628,0,0,0,2.578.008,3.457,3.457,0,0,0,.461-2.015,3.128,3.128,0,0,0-.461-1.831,1.5,1.5,0,0,0-1.3-.649,1.474,1.474,0,0,0-1.281.646A3.516,3.516,0,0,0,65.559,12.856Zm6.789-.145a5.094,5.094,0,0,1,.887-3.148,2.877,2.877,0,0,1,2.426-1.172,2.589,2.589,0,0,1,2.039.922V5h2.266V17H77.926l-.109-.9a2.657,2.657,0,0,1-2.172,1.055A2.869,2.869,0,0,1,73.25,15.98,5.258,5.258,0,0,1,72.348,12.711Zm2.258.168A3.337,3.337,0,0,0,75.02,14.7a1.349,1.349,0,0,0,1.2.634,1.511,1.511,0,0,0,1.477-.884V11.111a1.489,1.489,0,0,0-1.461-.884Q74.606,10.227,74.606,12.879Zm12.172,3.262a2.831,2.831,0,0,1-2.312,1.016,2.67,2.67,0,0,1-2.074-.781,3.335,3.335,0,0,1-.73-2.289V8.547h2.258v5.467q0,1.322,1.2,1.322a1.63,1.63,0,0,0,1.578-.8V8.547h2.266V17H86.84Zm7.406-.8a1.481,1.481,0,0,0,1.016-.344,1.2,1.2,0,0,0,.406-.914h2.117a2.9,2.9,0,0,1-.469,1.574,3.093,3.093,0,0,1-1.262,1.109,3.949,3.949,0,0,1-1.77.395A3.67,3.67,0,0,1,91.364,16a4.56,4.56,0,0,1-1.047-3.184v-.148a4.508,4.508,0,0,1,1.039-3.117,3.627,3.627,0,0,1,2.852-1.164,3.555,3.555,0,0,1,2.543.9,3.2,3.2,0,0,1,.973,2.4H95.606a1.551,1.551,0,0,0-.406-1.072,1.51,1.51,0,0,0-2.223.163,3.333,3.333,0,0,0-.4,1.866v.235a3.375,3.375,0,0,0,.4,1.878A1.377,1.377,0,0,0,94.184,15.336Zm7.531-8.867V8.547h1.445V10.2h-1.445v4.219a1.007,1.007,0,0,0,.18.672.9.9,0,0,0,.688.2,3.6,3.6,0,0,0,.664-.055v1.711a4.648,4.648,0,0,1-1.367.2,2.156,2.156,0,0,1-2.422-2.4V10.2H98.223V8.547h1.234V6.469Zm2.117,6.227a5.013,5.013,0,0,1,.484-2.242,3.546,3.546,0,0,1,1.395-1.523,4.069,4.069,0,0,1,2.113-.539,3.849,3.849,0,0,1,2.793,1.047,4.2,4.2,0,0,1,1.207,2.844l.016.578a4.418,4.418,0,0,1-1.086,3.121,4.209,4.209,0,0,1-5.832,0,4.5,4.5,0,0,1-1.09-3.187Zm2.258.16a3.16,3.16,0,0,0,.453,1.843,1.628,1.628,0,0,0,2.578.008,3.457,3.457,0,0,0,.461-2.015,3.128,3.128,0,0,0-.461-1.831,1.5,1.5,0,0,0-1.3-.649,1.474,1.474,0,0,0-1.281.646A3.516,3.516,0,0,0,106.09,12.856Z" transform="translate(578.998 1172.029)"/>
    </g>
    <g id="Grupo_55782" data-name="Grupo 55782" transform="translate(145.083 4805.756)">
      <circle id="Elipse_4060-3" data-name="Elipse 4060" cx="94.193" cy="94.193" r="94.193" transform="translate(564.676 1054.608)" fill="#ff8a5b"/>
      <circle id="Elipse_4060-4" data-name="Elipse 4060" cx="86.871" cy="86.871" r="86.871" transform="translate(571.998 1061.93)" fill="#fff"/>
      <path id="Trazado_105952-2" data-name="Trazado 105952" d="M658.869,1268.065A119.264,119.264,0,1,1,778.134,1148.8,119.4,119.4,0,0,1,658.869,1268.065Zm0-235.661a116.4,116.4,0,1,0,116.4,116.4A116.527,116.527,0,0,0,658.869,1032.4Z" fill="#b0c0d2"/>
      <g id="Grupo_53887-2" data-name="Grupo 53887">
        <path id="Trazado_100683-2" data-name="Trazado 100683" d="M545.374,1148.8H531.7a126.318,126.318,0,0,1,126.318-126.32h0v13.674A112.775,112.775,0,0,0,545.374,1148.8Z" fill="#ff8a5b"/>
      </g>
      <path id="Trazado_107816" data-name="Trazado 107816" d="M25.086,5.625l2.922,8.25,2.906-8.25h3.078V17H31.641V13.891l.234-5.367L28.805,17H27.2L24.133,8.531l.234,5.359V17H22.024V5.625ZM40.79,17a2.507,2.507,0,0,1-.227-.758,2.732,2.732,0,0,1-2.133.914,3,3,0,0,1-2.059-.719,2.312,2.312,0,0,1-.816-1.812,2.389,2.389,0,0,1,1-2.062,4.915,4.915,0,0,1,2.879-.727h1.039v-.484a1.393,1.393,0,0,0-.3-.937,1.183,1.183,0,0,0-.949-.352,1.345,1.345,0,0,0-.895.273.929.929,0,0,0-.324.75H35.743A2.268,2.268,0,0,1,36.2,9.727a3,3,0,0,1,1.281-.98,4.669,4.669,0,0,1,1.859-.355,3.689,3.689,0,0,1,2.48.785,2.747,2.747,0,0,1,.918,2.207v3.664a4.041,4.041,0,0,0,.336,1.82V17Zm-1.867-1.57a1.945,1.945,0,0,0,.922-.223,1.462,1.462,0,0,0,.625-.6V13.156h-.844q-1.7,0-1.8,1.172l-.008.133a.9.9,0,0,0,.3.7A1.153,1.153,0,0,0,38.922,15.43Zm8.25-8.961V8.547h1.445V10.2H47.172v4.219a1.007,1.007,0,0,0,.18.672.9.9,0,0,0,.688.2,3.6,3.6,0,0,0,.664-.055v1.711a4.648,4.648,0,0,1-1.367.2,2.156,2.156,0,0,1-2.422-2.4V10.2H43.68V8.547h1.234V6.469Zm6.594,10.688a4.15,4.15,0,0,1-3.027-1.141,4.054,4.054,0,0,1-1.168-3.039v-.219a5.106,5.106,0,0,1,.492-2.277,3.612,3.612,0,0,1,1.395-1.547,3.914,3.914,0,0,1,2.059-.543,3.508,3.508,0,0,1,2.73,1.094,4.444,4.444,0,0,1,1,3.1v.922H51.86a2.1,2.1,0,0,0,.66,1.328,2,2,0,0,0,1.395.5,2.437,2.437,0,0,0,2.039-.945l1.109,1.242a3.389,3.389,0,0,1-1.375,1.121A4.511,4.511,0,0,1,53.766,17.156Zm-.258-6.945a1.411,1.411,0,0,0-1.09.455,2.357,2.357,0,0,0-.535,1.3h3.141v-.181a1.681,1.681,0,0,0-.406-1.165A1.456,1.456,0,0,0,53.508,10.211Zm9.766.453a6.134,6.134,0,0,0-.812-.062,1.654,1.654,0,0,0-1.68.867V17H58.524V8.547h2.133l.063,1.008A2.092,2.092,0,0,1,62.6,8.391a2.366,2.366,0,0,1,.7.1ZM66.743,17H64.477V8.547h2.266Zm-2.4-10.641a1.112,1.112,0,0,1,.34-.836,1.465,1.465,0,0,1,1.848,0,1.105,1.105,0,0,1,.344.836,1.108,1.108,0,0,1-.348.844,1.448,1.448,0,0,1-1.836,0A1.108,1.108,0,0,1,64.344,6.359ZM73.5,17a2.507,2.507,0,0,1-.227-.758,2.732,2.732,0,0,1-2.133.914,3,3,0,0,1-2.059-.719,2.312,2.312,0,0,1-.816-1.812,2.389,2.389,0,0,1,1-2.062,4.915,4.915,0,0,1,2.879-.727H73.18v-.484a1.393,1.393,0,0,0-.3-.937,1.183,1.183,0,0,0-.949-.352,1.345,1.345,0,0,0-.895.273.929.929,0,0,0-.324.75H68.454a2.268,2.268,0,0,1,.453-1.359,3,3,0,0,1,1.281-.98,4.669,4.669,0,0,1,1.859-.355,3.689,3.689,0,0,1,2.48.785,2.747,2.747,0,0,1,.918,2.207v3.664a4.041,4.041,0,0,0,.336,1.82V17Zm-1.867-1.57a1.945,1.945,0,0,0,.922-.223,1.462,1.462,0,0,0,.625-.6V13.156h-.844q-1.7,0-1.8,1.172l-.008.133a.9.9,0,0,0,.3.7A1.153,1.153,0,0,0,71.633,15.43Zm10.125-.766a.727.727,0,0,0-.41-.652,4.659,4.659,0,0,0-1.316-.426q-3.016-.633-3.016-2.562a2.323,2.323,0,0,1,.934-1.879,3.766,3.766,0,0,1,2.441-.754,4.053,4.053,0,0,1,2.574.758,2.388,2.388,0,0,1,.965,1.969H81.672a1.092,1.092,0,0,0-.312-.8A1.322,1.322,0,0,0,80.383,10a1.351,1.351,0,0,0-.883.258.814.814,0,0,0-.312.656.7.7,0,0,0,.355.605,3.657,3.657,0,0,0,1.2.4,9.8,9.8,0,0,1,1.422.379,2.336,2.336,0,0,1,1.789,2.273,2.2,2.2,0,0,1-.992,1.871,4.28,4.28,0,0,1-2.562.715,4.47,4.47,0,0,1-1.887-.379,3.166,3.166,0,0,1-1.293-1.039,2.414,2.414,0,0,1-.469-1.426h2.141a1.179,1.179,0,0,0,.445.922,1.766,1.766,0,0,0,1.109.32,1.635,1.635,0,0,0,.98-.246A.766.766,0,0,0,81.758,14.664ZM97,12.852a5.07,5.07,0,0,1-.887,3.129,2.843,2.843,0,0,1-2.395,1.176,2.633,2.633,0,0,1-2.07-.891V20.25H89.391V8.547h2.094l.078.828A2.654,2.654,0,0,1,93.7,8.391a2.862,2.862,0,0,1,2.43,1.156A5.207,5.207,0,0,1,97,12.734Zm-2.258-.164a3.327,3.327,0,0,0-.418-1.82,1.361,1.361,0,0,0-1.215-.641,1.478,1.478,0,0,0-1.461.813V14.5a1.5,1.5,0,0,0,1.477.836Q94.743,15.336,94.743,12.688Zm8.406-2.023a6.134,6.134,0,0,0-.812-.062,1.654,1.654,0,0,0-1.68.867V17H98.4V8.547h2.133l.063,1.008a2.092,2.092,0,0,1,1.883-1.164,2.366,2.366,0,0,1,.7.1ZM106.618,17h-2.266V8.547h2.266Zm-2.4-10.641a1.112,1.112,0,0,1,.34-.836,1.465,1.465,0,0,1,1.848,0,1.105,1.105,0,0,1,.344.836,1.108,1.108,0,0,1-.348.844,1.448,1.448,0,0,1-1.836,0A1.108,1.108,0,0,1,104.219,6.359Zm6.375,2.188.07.945a2.971,2.971,0,0,1,2.43-1.1,2.255,2.255,0,0,1,2.242,1.289,2.9,2.9,0,0,1,2.539-1.289,2.521,2.521,0,0,1,2.047.8,3.681,3.681,0,0,1,.672,2.41V17h-2.266V11.609a1.61,1.61,0,0,0-.281-1.051,1.246,1.246,0,0,0-.992-.332,1.409,1.409,0,0,0-1.406.969l.008,5.8H113.4V11.617a1.59,1.59,0,0,0-.289-1.062,1.259,1.259,0,0,0-.984-.328,1.463,1.463,0,0,0-1.391.8V17h-2.258V8.547ZM127.227,17a2.507,2.507,0,0,1-.227-.758,2.732,2.732,0,0,1-2.133.914,3,3,0,0,1-2.059-.719,2.312,2.312,0,0,1-.816-1.812,2.389,2.389,0,0,1,1-2.062,4.915,4.915,0,0,1,2.879-.727h1.039v-.484a1.393,1.393,0,0,0-.3-.937,1.183,1.183,0,0,0-.949-.352,1.345,1.345,0,0,0-.895.273.929.929,0,0,0-.324.75H122.18a2.268,2.268,0,0,1,.453-1.359,3,3,0,0,1,1.281-.98,4.669,4.669,0,0,1,1.859-.355,3.689,3.689,0,0,1,2.48.785,2.747,2.747,0,0,1,.918,2.207v3.664a4.041,4.041,0,0,0,.336,1.82V17Zm-1.867-1.57a1.945,1.945,0,0,0,.922-.223,1.462,1.462,0,0,0,.625-.6V13.156h-.844q-1.7,0-1.8,1.172l-.008.133a.9.9,0,0,0,.3.7A1.153,1.153,0,0,0,125.36,15.43Zm10.125-.766a.727.727,0,0,0-.41-.652,4.659,4.659,0,0,0-1.316-.426q-3.016-.633-3.016-2.562a2.323,2.323,0,0,1,.934-1.879,3.766,3.766,0,0,1,2.441-.754,4.053,4.053,0,0,1,2.574.758,2.388,2.388,0,0,1,.965,1.969H135.4a1.092,1.092,0,0,0-.312-.8A1.322,1.322,0,0,0,134.11,10a1.351,1.351,0,0,0-.883.258.814.814,0,0,0-.312.656.7.7,0,0,0,.355.605,3.657,3.657,0,0,0,1.2.4,9.8,9.8,0,0,1,1.422.379,2.336,2.336,0,0,1,1.789,2.273,2.205,2.205,0,0,1-.992,1.871,4.28,4.28,0,0,1-2.562.715,4.47,4.47,0,0,1-1.887-.379,3.166,3.166,0,0,1-1.293-1.039,2.414,2.414,0,0,1-.469-1.426h2.141a1.179,1.179,0,0,0,.445.922,1.766,1.766,0,0,0,1.109.32,1.635,1.635,0,0,0,.98-.246A.766.766,0,0,0,135.485,14.664ZM49.317,35.156a4.15,4.15,0,0,1-3.027-1.141,4.054,4.054,0,0,1-1.168-3.039v-.219a5.106,5.106,0,0,1,.492-2.277,3.612,3.612,0,0,1,1.395-1.547,3.914,3.914,0,0,1,2.059-.543,3.508,3.508,0,0,1,2.73,1.094,4.444,4.444,0,0,1,1,3.1v.922H47.411a2.1,2.1,0,0,0,.66,1.328,2,2,0,0,0,1.395.5,2.437,2.437,0,0,0,2.039-.945l1.109,1.242a3.389,3.389,0,0,1-1.375,1.121A4.511,4.511,0,0,1,49.317,35.156Zm-.258-6.945a1.411,1.411,0,0,0-1.09.455,2.357,2.357,0,0,0-.535,1.3h3.141v-.181a1.681,1.681,0,0,0-.406-1.165A1.456,1.456,0,0,0,49.059,28.211ZM60.442,35H58.176V26.547h2.266Zm-2.4-10.641a1.112,1.112,0,0,1,.34-.836,1.465,1.465,0,0,1,1.848,0,1.193,1.193,0,0,1,0,1.68,1.448,1.448,0,0,1-1.836,0A1.108,1.108,0,0,1,58.043,24.359Zm6.336,2.188.07.977a2.951,2.951,0,0,1,2.43-1.133,2.453,2.453,0,0,1,2,.789,3.682,3.682,0,0,1,.672,2.359V35H67.293V29.594a1.465,1.465,0,0,0-.312-1.043,1.4,1.4,0,0,0-1.039-.324,1.553,1.553,0,0,0-1.43.813V35H62.254V26.547ZM75.84,32.664a.727.727,0,0,0-.41-.652,4.659,4.659,0,0,0-1.316-.426Q71.1,30.953,71.1,29.023a2.323,2.323,0,0,1,.934-1.879,3.766,3.766,0,0,1,2.441-.754,4.053,4.053,0,0,1,2.574.758,2.388,2.388,0,0,1,.965,1.969H75.754a1.092,1.092,0,0,0-.312-.8A1.322,1.322,0,0,0,74.465,28a1.351,1.351,0,0,0-.883.258.814.814,0,0,0-.312.656.7.7,0,0,0,.355.605,3.657,3.657,0,0,0,1.2.4,9.8,9.8,0,0,1,1.422.379,2.336,2.336,0,0,1,1.789,2.273,2.2,2.2,0,0,1-.992,1.871,4.28,4.28,0,0,1-2.562.715,4.47,4.47,0,0,1-1.887-.379A3.166,3.166,0,0,1,71.3,33.738a2.414,2.414,0,0,1-.469-1.426h2.141a1.179,1.179,0,0,0,.445.922,1.766,1.766,0,0,0,1.109.32,1.635,1.635,0,0,0,.98-.246A.766.766,0,0,0,75.84,32.664Zm8.711,1.477a2.831,2.831,0,0,1-2.312,1.016,2.67,2.67,0,0,1-2.074-.781,3.335,3.335,0,0,1-.73-2.289V26.547h2.258v5.467q0,1.322,1.2,1.322a1.63,1.63,0,0,0,1.578-.8V26.547h2.266V35H84.614Zm6.008-7.594.07.945a2.971,2.971,0,0,1,2.43-1.1A2.255,2.255,0,0,1,95.3,27.68a2.9,2.9,0,0,1,2.539-1.289,2.521,2.521,0,0,1,2.047.8,3.681,3.681,0,0,1,.672,2.41V35H98.293V29.609a1.61,1.61,0,0,0-.281-1.051,1.246,1.246,0,0,0-.992-.332,1.409,1.409,0,0,0-1.406.969l.008,5.8H93.364V29.617a1.59,1.59,0,0,0-.289-1.062,1.259,1.259,0,0,0-.984-.328,1.463,1.463,0,0,0-1.391.8V35H88.442V26.547ZM101.942,30.7a5.013,5.013,0,0,1,.484-2.242,3.546,3.546,0,0,1,1.395-1.523,4.069,4.069,0,0,1,2.113-.539,3.849,3.849,0,0,1,2.793,1.047,4.2,4.2,0,0,1,1.207,2.844l.016.578a4.418,4.418,0,0,1-1.086,3.121,4.209,4.209,0,0,1-5.832,0,4.5,4.5,0,0,1-1.09-3.187Zm2.258.16a3.16,3.16,0,0,0,.453,1.843,1.628,1.628,0,0,0,2.578.008,3.457,3.457,0,0,0,.461-2.015,3.128,3.128,0,0,0-.461-1.831,1.5,1.5,0,0,0-1.3-.649,1.474,1.474,0,0,0-1.281.646A3.516,3.516,0,0,0,104.2,30.856Zm11.719,1.808a.727.727,0,0,0-.41-.652,4.659,4.659,0,0,0-1.316-.426q-3.016-.633-3.016-2.562a2.323,2.323,0,0,1,.934-1.879,3.766,3.766,0,0,1,2.441-.754,4.053,4.053,0,0,1,2.574.758,2.388,2.388,0,0,1,.965,1.969h-2.258a1.092,1.092,0,0,0-.312-.8,1.322,1.322,0,0,0-.977-.316,1.351,1.351,0,0,0-.883.258.814.814,0,0,0-.312.656.7.7,0,0,0,.355.605,3.657,3.657,0,0,0,1.2.4,9.8,9.8,0,0,1,1.422.379,2.336,2.336,0,0,1,1.789,2.273,2.2,2.2,0,0,1-.992,1.871,4.28,4.28,0,0,1-2.562.715,4.47,4.47,0,0,1-1.887-.379,3.166,3.166,0,0,1-1.293-1.039,2.414,2.414,0,0,1-.469-1.426h2.141a1.179,1.179,0,0,0,.445.922,1.766,1.766,0,0,0,1.109.32,1.635,1.635,0,0,0,.98-.246A.766.766,0,0,0,115.918,32.664Z" transform="translate(579.998 1173.029)"/>
    </g>
    <g id="Grupo_55784" data-name="Grupo 55784" transform="translate(-3282.197 2658.953)">
      <rect id="Rectángulo_5232" data-name="Rectángulo 5232" width="25.07" height="11.15" transform="translate(4184.91 3290.732)" fill="#ff8a5b"/>
      <g id="Grupo_53896" data-name="Grupo 53896">
        <path id="Trazado_100701" data-name="Trazado 100701" d="M4225.918,3296.305l-27.493,16.262,6.524-16.262-6.524-16.258Z" fill="#ff8a5b"/>
      </g>
    </g>
    <g id="Grupo_55786" data-name="Grupo 55786" transform="translate(4383.567 1916.406) rotate(90)">
      <rect id="Rectángulo_5232-2" data-name="Rectángulo 5232" width="73.838" height="11.15" transform="translate(4149.557 3290.732)" fill="#ea526f"/>
      <g id="Grupo_53896-2" data-name="Grupo 53896" transform="translate(18)">
        <path id="Trazado_100701-2" data-name="Trazado 100701" d="M4225.918,3296.305l-27.493,16.262,6.524-16.262-6.524-16.258Z" fill="#ea526f"/>
      </g>
      <rect id="Rectángulo_5573" data-name="Rectángulo 5573" width="27.277" height="14.15" transform="translate(4175.757 3288.732)" fill="#fff"/>
    </g>
    <text id="_Transformación_Valor_agregado_Control_de_calidad_" data-name="●  Transformación
●  Valor agregado
●  Control de calidad
" transform="translate(705 6152)" fill="#ff8a5b" font-size="16" font-family="SegoeUI, Segoe UI"><tspan x="0" y="17">●</tspan><tspan y="17" xml:space="preserve" fill="#12263f" font-family="Roboto-Regular, Roboto">  Transformación</tspan><tspan x="0" y="39">●</tspan><tspan y="39" font-family="Roboto-Regular, Roboto"> </tspan><tspan y="39" xml:space="preserve" fill="#12263f" font-family="Roboto-Regular, Roboto"> Valor agregado</tspan><tspan x="0" y="61">●</tspan><tspan y="61" xml:space="preserve" fill="#12263f" font-family="Roboto-Regular, Roboto">  Control de calidad</tspan><tspan fill="#12263f" font-family="Roboto-Regular, Roboto"><tspan x="0" y="83"></tspan></tspan></text>
    <path id="Trazado_107818" data-name="Trazado 107818" d="M1.32,17V5.625H4.531a5.169,5.169,0,0,1,2.625.656A4.438,4.438,0,0,1,8.918,8.148a6.078,6.078,0,0,1,.629,2.781v.727a6.1,6.1,0,0,1-.621,2.82,4.369,4.369,0,0,1-1.773,1.859A5.5,5.5,0,0,1,4.469,17ZM2.82,6.852v8.922H4.4a3.434,3.434,0,0,0,2.7-1.079,4.458,4.458,0,0,0,.965-3.073v-.665a4.529,4.529,0,0,0-.91-3.014A3.239,3.239,0,0,0,4.57,6.852ZM13.156,17H11.711V8.547h1.445ZM11.594,6.3a.863.863,0,0,1,.215-.594.807.807,0,0,1,.637-.242.819.819,0,0,1,.641.242A.854.854,0,0,1,13.3,6.3a.826.826,0,0,1-.219.586.834.834,0,0,1-.641.234.821.821,0,0,1-.637-.234A.834.834,0,0,1,11.594,6.3Zm8.8,8.453a1.064,1.064,0,0,0-.441-.91,4.249,4.249,0,0,0-1.539-.559,7.277,7.277,0,0,1-1.742-.562,2.479,2.479,0,0,1-.953-.781,1.869,1.869,0,0,1-.309-1.078,2.193,2.193,0,0,1,.879-1.758,3.432,3.432,0,0,1,2.246-.719,3.532,3.532,0,0,1,2.332.742,2.357,2.357,0,0,1,.895,1.9H20.3a1.3,1.3,0,0,0-.5-1.023,1.888,1.888,0,0,0-1.27-.43,1.976,1.976,0,0,0-1.234.344,1.082,1.082,0,0,0-.445.9.877.877,0,0,0,.414.789,5.1,5.1,0,0,0,1.5.508,7.8,7.8,0,0,1,1.754.578,2.558,2.558,0,0,1,1,.809,1.988,1.988,0,0,1,.324,1.152,2.163,2.163,0,0,1-.906,1.816,3.8,3.8,0,0,1-2.352.684,4.257,4.257,0,0,1-1.8-.359,2.922,2.922,0,0,1-1.223-1,2.42,2.42,0,0,1-.441-1.395h1.445a1.5,1.5,0,0,0,.582,1.152,2.258,2.258,0,0,0,1.434.426,2.331,2.331,0,0,0,1.316-.332A1.02,1.02,0,0,0,20.391,14.758ZM25.68,6.5V8.547h1.578V9.664H25.68v5.249a1.173,1.173,0,0,0,.211.763.888.888,0,0,0,.719.254,3.5,3.5,0,0,0,.688-.094V17a4.215,4.215,0,0,1-1.109.155,1.8,1.8,0,0,1-1.461-.586,2.517,2.517,0,0,1-.492-1.664V9.664H22.7V8.547h1.539V6.5Zm7.352,3.344a4.331,4.331,0,0,0-.711-.055A1.9,1.9,0,0,0,30.391,11v6H28.945V8.547h1.406l.023.977a2.251,2.251,0,0,1,2.016-1.133,1.477,1.477,0,0,1,.641.109ZM35.93,17H34.484V8.547H35.93ZM34.367,6.3a.863.863,0,0,1,.215-.594.807.807,0,0,1,.637-.242.819.819,0,0,1,.641.242.854.854,0,0,1,.219.594.826.826,0,0,1-.219.586.834.834,0,0,1-.641.234.821.821,0,0,1-.637-.234A.834.834,0,0,1,34.367,6.3ZM45.4,12.867a5.026,5.026,0,0,1-.891,3.113,2.846,2.846,0,0,1-2.391,1.176,2.947,2.947,0,0,1-2.477-1.133L39.57,17H38.242V5h1.445V9.477A2.93,2.93,0,0,1,42.1,8.391,2.863,2.863,0,0,1,44.52,9.555a5.177,5.177,0,0,1,.879,3.188ZM43.953,12.7a3.906,3.906,0,0,0-.57-2.281,1.888,1.888,0,0,0-1.641-.8,2.122,2.122,0,0,0-2.055,1.328V14.6a2.181,2.181,0,0,0,2.07,1.328,1.878,1.878,0,0,0,1.617-.8A4.153,4.153,0,0,0,43.953,12.7Zm8.484,3.461a3.07,3.07,0,0,1-2.477.992,2.628,2.628,0,0,1-2.059-.785,3.4,3.4,0,0,1-.715-2.324v-5.5h1.445v5.461q0,1.922,1.563,1.922A2.163,2.163,0,0,0,52.4,14.7V8.547h1.445V17H52.469Zm6.992-.187a2.082,2.082,0,0,0,1.352-.469,1.649,1.649,0,0,0,.641-1.172h1.367a2.621,2.621,0,0,1-.5,1.383,3.293,3.293,0,0,1-1.23,1.047,3.55,3.55,0,0,1-1.629.391A3.482,3.482,0,0,1,56.684,16a4.59,4.59,0,0,1-1.02-3.152v-.242a5.089,5.089,0,0,1,.453-2.2,3.451,3.451,0,0,1,1.3-1.492,3.7,3.7,0,0,1,2-.531,3.39,3.39,0,0,1,2.363.852,3.043,3.043,0,0,1,1,2.211H61.422a1.992,1.992,0,0,0-.621-1.348,1.932,1.932,0,0,0-1.379-.527,2.023,2.023,0,0,0-1.707.793,3.724,3.724,0,0,0-.605,2.293v.273a3.65,3.65,0,0,0,.6,2.25A2.033,2.033,0,0,0,59.43,15.977ZM65.984,17H64.539V8.547h1.445ZM64.422,6.3a.863.863,0,0,1,.215-.594.807.807,0,0,1,.637-.242.819.819,0,0,1,.641.242.854.854,0,0,1,.219.594.826.826,0,0,1-.219.586.834.834,0,0,1-.641.234.821.821,0,0,1-.637-.234A.834.834,0,0,1,64.422,6.3ZM67.914,12.7a4.993,4.993,0,0,1,.488-2.234A3.643,3.643,0,0,1,69.762,8.93a3.7,3.7,0,0,1,1.988-.539,3.565,3.565,0,0,1,2.793,1.2,4.6,4.6,0,0,1,1.066,3.18v.1a5.036,5.036,0,0,1-.473,2.215,3.589,3.589,0,0,1-1.352,1.527,3.743,3.743,0,0,1-2.02.547,3.556,3.556,0,0,1-2.785-1.2A4.575,4.575,0,0,1,67.914,12.8Zm1.453.172a3.616,3.616,0,0,0,.652,2.258,2.211,2.211,0,0,0,3.5-.012,3.955,3.955,0,0,0,.648-2.418,3.61,3.61,0,0,0-.66-2.254,2.1,2.1,0,0,0-1.754-.863,2.075,2.075,0,0,0-1.727.852A3.925,3.925,0,0,0,69.367,12.867ZM72.406,5h1.75L72.063,7.3l-1.164,0Zm6.383,3.547.047,1.063a3.08,3.08,0,0,1,2.531-1.219q2.68,0,2.7,3.023V17H82.625V11.406a1.946,1.946,0,0,0-.418-1.352,1.675,1.675,0,0,0-1.277-.437,2.086,2.086,0,0,0-1.234.375,2.546,2.546,0,0,0-.828.984V17H77.422V8.547Z" transform="translate(1046 6097)" fill="#12263f"/>
    <path id="Trazado_105953" data-name="Trazado 105953" d="M4206.512,3035.275v60.846" transform="translate(-3406.512 3038.547)" fill="none" stroke="#b0c0d2" stroke-miterlimit="10" stroke-width="2.314" stroke-dasharray="11"/>
    <path id="Trazado_105954" data-name="Trazado 105954" d="M4206.512,3035.275v190" transform="translate(3930.275 1928.157) rotate(90)" fill="none" stroke="#b0c0d2" stroke-miterlimit="10" stroke-width="2.314" stroke-dasharray="11"/>
    <g id="Grupo_55787" data-name="Grupo 55787" transform="translate(0 4)">
      <g id="Grupo_55785" data-name="Grupo 55785" transform="translate(431.866 5146.521)">
        <circle id="Elipse_4060-5" data-name="Elipse 4060" cx="94.193" cy="94.193" r="94.193" transform="translate(564.676 1054.608)" fill="#0075a4"/>
        <circle id="Elipse_4060-6" data-name="Elipse 4060" cx="84.871" cy="84.871" r="84.871" transform="translate(573.998 1063.93)" fill="#fff"/>
        <path id="Trazado_105952-3" data-name="Trazado 105952" d="M658.869,1268.065A119.264,119.264,0,1,1,778.134,1148.8,119.4,119.4,0,0,1,658.869,1268.065Zm0-235.661a116.4,116.4,0,1,0,116.4,116.4A116.527,116.527,0,0,0,658.869,1032.4Z" fill="#b0c0d2"/>
        <g id="Grupo_53887-3" data-name="Grupo 53887">
          <path id="Trazado_100683-3" data-name="Trazado 100683" d="M545.374,1148.8H531.7a126.318,126.318,0,0,1,126.318-126.32h0v13.674A112.775,112.775,0,0,0,545.374,1148.8Z" fill="#0075a4"/>
        </g>
        <path id="Trazado_107819" data-name="Trazado 107819" d="M64.274,13.211A4.025,4.025,0,0,1,62.918,16.1,4.76,4.76,0,0,1,59.7,17.156a4.28,4.28,0,0,1-3.441-1.473A6.038,6.038,0,0,1,55,11.641v-.7a6.819,6.819,0,0,1,.578-2.891,4.332,4.332,0,0,1,1.652-1.918,5.164,5.164,0,0,1,5.668.387A4.326,4.326,0,0,1,64.29,9.484H61.946a2.376,2.376,0,0,0-.613-1.6,2.271,2.271,0,0,0-1.605-.5,1.991,1.991,0,0,0-1.754.84,4.707,4.707,0,0,0-.6,2.605V11.7a5.038,5.038,0,0,0,.559,2.7,1.954,1.954,0,0,0,1.762.852,2.314,2.314,0,0,0,1.621-.5,2.241,2.241,0,0,0,.613-1.535ZM68.047,17H65.782V5h2.266Zm4.242,0H70.024V8.547H72.29Zm-2.4-10.641a1.112,1.112,0,0,1,.34-.836,1.465,1.465,0,0,1,1.848,0,1.105,1.105,0,0,1,.344.836,1.108,1.108,0,0,1-.348.844,1.448,1.448,0,0,1-1.836,0A1.108,1.108,0,0,1,69.891,6.359Zm8.148,10.8a4.15,4.15,0,0,1-3.027-1.141,4.054,4.054,0,0,1-1.168-3.039v-.219a5.106,5.106,0,0,1,.492-2.277,3.612,3.612,0,0,1,1.395-1.547,3.914,3.914,0,0,1,2.059-.543,3.508,3.508,0,0,1,2.73,1.094,4.444,4.444,0,0,1,1,3.1v.922H76.133a2.1,2.1,0,0,0,.66,1.328,2,2,0,0,0,1.395.5,2.437,2.437,0,0,0,2.039-.945l1.109,1.242a3.389,3.389,0,0,1-1.375,1.121A4.511,4.511,0,0,1,78.04,17.156Zm-.258-6.945a1.411,1.411,0,0,0-1.09.455,2.357,2.357,0,0,0-.535,1.3H79.3v-.181a1.681,1.681,0,0,0-.406-1.165A1.456,1.456,0,0,0,77.782,10.211Zm7.094-1.664.07.977a2.951,2.951,0,0,1,2.43-1.133,2.453,2.453,0,0,1,2,.789,3.682,3.682,0,0,1,.672,2.359V17H87.79V11.594a1.465,1.465,0,0,0-.312-1.043,1.4,1.4,0,0,0-1.039-.324,1.553,1.553,0,0,0-1.43.813V17H82.75V8.547Zm9.586-2.078V8.547h1.445V10.2H94.461v4.219a1.007,1.007,0,0,0,.18.672.9.9,0,0,0,.688.2,3.6,3.6,0,0,0,.664-.055v1.711a4.648,4.648,0,0,1-1.367.2,2.156,2.156,0,0,1-2.422-2.4V10.2H90.969V8.547H92.2V6.469Zm6.594,10.688a4.15,4.15,0,0,1-3.027-1.141,4.054,4.054,0,0,1-1.168-3.039v-.219a5.106,5.106,0,0,1,.492-2.277,3.612,3.612,0,0,1,1.395-1.547,3.914,3.914,0,0,1,2.059-.543,3.508,3.508,0,0,1,2.73,1.094,4.444,4.444,0,0,1,1,3.1v.922H99.149a2.1,2.1,0,0,0,.66,1.328,2,2,0,0,0,1.395.5,2.437,2.437,0,0,0,2.039-.945l1.109,1.242a3.389,3.389,0,0,1-1.375,1.121A4.511,4.511,0,0,1,101.055,17.156Zm-.258-6.945a1.411,1.411,0,0,0-1.09.455,2.357,2.357,0,0,0-.535,1.3h3.141v-.181a1.681,1.681,0,0,0-.406-1.165A1.456,1.456,0,0,0,100.8,10.211Z" transform="translate(579.998 1173.029)"/>
      </g>
      <path id="Trazado_105955" data-name="Trazado 105955" d="M801.173,622.56v-11.2a16,16,0,1,0-32,0v11.2a6.165,6.165,0,0,0-4.923,6.031v2.461a6.2,6.2,0,0,0,3.359,5.48l-2.836,5.6H762.95l-2.4-6.389a6.162,6.162,0,0,0-6.15-5.919h-2.932l-.891-1.781a1.23,1.23,0,0,0-1.1-.68h-4.923a1.23,1.23,0,0,0-1.231,1.231,1.218,1.218,0,0,0,.063.389l.793,2.378c-.1.086-.193.174-.284.265a6.112,6.112,0,0,0-1.8,4.352v6.154h-3.693a1.23,1.23,0,0,0-1.225,1.107l-2.461,24.615a1.231,1.231,0,0,0,1.1,1.348c.041,0,.082.006.123.006h33.231a1.231,1.231,0,0,0,1.231-1.231,1.15,1.15,0,0,0-.006-.123l-1.179-11.794,3.647-4.376v16.292a1.231,1.231,0,0,0,1.231,1.231h29.539a1.231,1.231,0,0,0,1.231-1.231V638.437a6.116,6.116,0,0,0-.723-2.892,6.192,6.192,0,0,0,1.954-4.493v-2.461A6.165,6.165,0,0,0,801.173,622.56Zm2.462,6.031v2.461a3.662,3.662,0,0,1-1.065,2.6,6.125,6.125,0,0,0-3.859-1.365H790.1v-3.62a11.13,11.13,0,0,0,5.529-6.257,6.118,6.118,0,0,0,3.087-1.2v2.465a1.23,1.23,0,0,0,1.231,1.231A3.7,3.7,0,0,1,803.635,628.591Zm-18.461-1.231a8.625,8.625,0,0,1-8.615-8.615v-6.5l13.206-4.4,4.025,4.025v6.875A8.626,8.626,0,0,1,785.174,627.36Zm-2.462,2.182a11,11,0,0,0,4.923,0v3.971a1.232,1.232,0,0,1-1.231,1.231h-2.462a1.233,1.233,0,0,1-1.231-1.231Zm13.539-10.8V612.8a3.691,3.691,0,0,1-.05,6.978C796.232,619.439,796.251,619.094,796.251,618.745Zm-11.077-20.923a13.553,13.553,0,0,1,13.538,13.538v0a6.122,6.122,0,0,0-3.158-1.21l-4.587-4.587a1.231,1.231,0,0,0-1.26-.3l-14.6,4.865a6.119,6.119,0,0,0-3.477,1.229v0A13.553,13.553,0,0,1,785.174,597.822Zm-11.027,21.959a3.691,3.691,0,0,1-.05-6.978v5.942C774.1,619.094,774.115,619.439,774.147,619.781Zm-7.434,8.81A3.7,3.7,0,0,1,770.4,624.9a1.23,1.23,0,0,0,1.231-1.231V621.2a6.128,6.128,0,0,0,3.087,1.2,11.133,11.133,0,0,0,5.529,6.256v3.62h-6.71a6.176,6.176,0,0,0-4.653,2.132,3.716,3.716,0,0,1-2.174-3.364Zm-8.615,7.385a1.223,1.223,0,0,0,.078.432l2.146,5.722h-3.455v-6.154a6.107,6.107,0,0,0-1.022-3.4A3.7,3.7,0,0,1,758.1,635.975Zm-9.376-6.154.89,1.782a1.231,1.231,0,0,0,1.1.68,3.691,3.691,0,0,1,3.692,3.69v3.061l-1.309-3.491a1.231,1.231,0,0,0-1.153-.8h-1.375a3.687,3.687,0,0,1-3.5-2.525l-.8-2.4Zm-4.162,6.154a3.663,3.663,0,0,1,.592-2.006,6.144,6.144,0,0,0,5.418,3.237h.522l1.847,4.923h-8.378ZM737.3,666.744l2.215-22.153h19.925l2.215,22.153Zm26.831,0-2.215-22.153h3.68l2.215,22.153Zm11.193-23.384a1.231,1.231,0,1,0-2.461,0v4.477l-3.99,4.789-.939-9.389a1.227,1.227,0,0,0-.517-.884l2.758-5.443.017-.035a3.7,3.7,0,0,1,3.346-2.13h6.923a3.7,3.7,0,0,0,3.479,2.461H786.4a3.7,3.7,0,0,0,3.481-2.461h8.827a3.7,3.7,0,0,1,3.693,3.692v13.539h-4.923V643.36a1.231,1.231,0,1,0-2.461,0v23.384H775.328Zm22.154,23.384V654.437H802.4v12.307Z" transform="translate(317.753 5639.64)" fill="#0075a4"/>
    </g>
    <path id="Trazado_105956" data-name="Trazado 105956" d="M1340.919,515.846h61.536a1.231,1.231,0,0,0,1.231-1.231c0-.039,0-.078-.005-.117l-4.923-51.69a1.231,1.231,0,0,0-1.226-1.114h-13.538v-8.615a14.782,14.782,0,0,0-29.537,0v8.615h-8.615a1.23,1.23,0,0,0-1.225,1.114l-4.922,51.69a1.23,1.23,0,0,0,1.108,1.342C1340.841,515.844,1340.88,515.846,1340.919,515.846Zm54.792-6.643,3.909,4.182H1392.6Zm5.177,1.933-4.1-4.384-4.056-42.6h3.681Zm-6.554-4.205-3.263,4.384-4.492-47.159h3.681Zm-21.416-62.466a8.625,8.625,0,0,1,8.615,8.615v8.615h-4.923v-8.615a11.059,11.059,0,0,0-4.112-8.6C1372.637,444.468,1372.777,444.464,1372.917,444.464Zm-3.692.833a8.626,8.626,0,0,1,4.923,7.782v8.615H1364.3v-8.615A8.625,8.625,0,0,1,1369.225,445.3Zm-12.307,7.782a8.624,8.624,0,0,1,8.615-8.615c.141,0,.281,0,.42.01a11.059,11.059,0,0,0-4.111,8.6v8.615h-4.923Zm-9.957,11.077h7.5v5.135a3.692,3.692,0,0,0,0,6.961v2.673h-1.23a1.231,1.231,0,0,0-1.168.842l-1.231,3.692a1.245,1.245,0,0,0-.063.389v8.615a1.231,1.231,0,0,0,1.23,1.231h7.384a1.23,1.23,0,0,0,1.23-1.231v-8.615a1.245,1.245,0,0,0-.063-.389l-1.231-3.692a1.231,1.231,0,0,0-1.168-.842h-1.231v-2.673a3.692,3.692,0,0,0,0-6.961v-5.135h17.23v5.135a3.692,3.692,0,1,0,2.461,0v-5.135h7.5l4.688,49.229h-46.521Zm10.3,17.23.887,2.661v7.184h-4.923v-7.184l.887-2.661ZM1355.688,474a1.231,1.231,0,1,1,1.231-1.231A1.231,1.231,0,0,1,1355.688,474Zm20.922-1.231a1.231,1.231,0,1,1-1.231-1.231A1.231,1.231,0,0,1,1376.61,472.771Z" transform="translate(-283.089 5455.674)" fill="#ea526f"/>
    <g id="Grupo_55780" data-name="Grupo 55780" transform="translate(-141.7 4805.756)">
      <circle id="Elipse_4060-7" data-name="Elipse 4060" cx="94.193" cy="94.193" r="94.193" transform="translate(564.676 1054.608)" fill="#25ced1"/>
      <circle id="Elipse_4060-8" data-name="Elipse 4060" cx="87.831" cy="87.831" r="87.831" transform="translate(571.039 1060.97)" fill="#fff"/>
      <path id="Trazado_105952-4" data-name="Trazado 105952" d="M658.869,1268.065A119.264,119.264,0,1,1,778.134,1148.8,119.4,119.4,0,0,1,658.869,1268.065Zm0-235.661a116.4,116.4,0,1,0,116.4,116.4A116.527,116.527,0,0,0,658.869,1032.4Z" fill="#b0c0d2"/>
      <g id="Grupo_53887-4" data-name="Grupo 53887">
        <path id="Trazado_100683-4" data-name="Trazado 100683" d="M545.374,1148.8H531.7a126.318,126.318,0,0,1,126.318-126.32h0v13.674A112.775,112.775,0,0,0,545.374,1148.8Z" fill="#25ced1"/>
      </g>
      <path id="Trazado_107815" data-name="Trazado 107815" d="M45.954,12.992V17H43.61V5.625h4.438a5.134,5.134,0,0,1,2.254.469,3.454,3.454,0,0,1,1.5,1.332,3.714,3.714,0,0,1,.523,1.965,3.266,3.266,0,0,1-1.145,2.637,4.767,4.767,0,0,1-3.168.965Zm0-1.9h2.094a2.059,2.059,0,0,0,1.418-.437,1.591,1.591,0,0,0,.488-1.25,1.876,1.876,0,0,0-.492-1.352A1.839,1.839,0,0,0,48.1,7.523H45.954Zm12.578-.43a6.134,6.134,0,0,0-.812-.062,1.654,1.654,0,0,0-1.68.867V17H53.782V8.547h2.133l.063,1.008A2.092,2.092,0,0,1,57.86,8.391a2.366,2.366,0,0,1,.7.1Zm.453,2.031a5.013,5.013,0,0,1,.484-2.242A3.546,3.546,0,0,1,60.864,8.93a4.069,4.069,0,0,1,2.113-.539A3.849,3.849,0,0,1,65.77,9.438a4.2,4.2,0,0,1,1.207,2.844l.016.578a4.418,4.418,0,0,1-1.086,3.121,4.209,4.209,0,0,1-5.832,0,4.5,4.5,0,0,1-1.09-3.187Zm2.258.16A3.16,3.16,0,0,0,61.7,14.7a1.628,1.628,0,0,0,2.578.008,3.457,3.457,0,0,0,.461-2.015,3.128,3.128,0,0,0-.461-1.831,1.5,1.5,0,0,0-1.3-.649,1.474,1.474,0,0,0-1.281.646A3.516,3.516,0,0,0,61.243,12.856ZM71.43,14.242,73,8.547H75.36L72.508,17H70.352L67.5,8.547H69.86Zm8.813,2.914a4.15,4.15,0,0,1-3.027-1.141,4.054,4.054,0,0,1-1.168-3.039v-.219a5.106,5.106,0,0,1,.492-2.277,3.612,3.612,0,0,1,1.395-1.547,3.914,3.914,0,0,1,2.059-.543,3.508,3.508,0,0,1,2.73,1.094,4.444,4.444,0,0,1,1,3.1v.922H78.336A2.1,2.1,0,0,0,79,14.836a2,2,0,0,0,1.395.5,2.437,2.437,0,0,0,2.039-.945l1.109,1.242a3.389,3.389,0,0,1-1.375,1.121A4.511,4.511,0,0,1,80.243,17.156Zm-.258-6.945a1.411,1.411,0,0,0-1.09.455,2.357,2.357,0,0,0-.535,1.3H81.5v-.181a1.681,1.681,0,0,0-.406-1.165A1.456,1.456,0,0,0,79.985,10.211Zm8.906,6.945a4.15,4.15,0,0,1-3.027-1.141A4.054,4.054,0,0,1,84.7,12.977v-.219a5.106,5.106,0,0,1,.492-2.277,3.612,3.612,0,0,1,1.395-1.547,3.914,3.914,0,0,1,2.059-.543,3.508,3.508,0,0,1,2.73,1.094,4.444,4.444,0,0,1,1,3.1v.922H86.985a2.1,2.1,0,0,0,.66,1.328,2,2,0,0,0,1.395.5,2.437,2.437,0,0,0,2.039-.945l1.109,1.242a3.389,3.389,0,0,1-1.375,1.121A4.511,4.511,0,0,1,88.891,17.156Zm-.258-6.945a1.411,1.411,0,0,0-1.09.455,2.357,2.357,0,0,0-.535,1.3h3.141v-.181a1.681,1.681,0,0,0-.406-1.165A1.456,1.456,0,0,0,88.633,10.211Zm4.664,2.5a5.094,5.094,0,0,1,.887-3.148A2.877,2.877,0,0,1,96.61,8.391a2.589,2.589,0,0,1,2.039.922V5h2.266V17H98.875l-.109-.9a2.657,2.657,0,0,1-2.172,1.055A2.869,2.869,0,0,1,94.2,15.98,5.258,5.258,0,0,1,93.3,12.711Zm2.258.168a3.337,3.337,0,0,0,.414,1.823,1.349,1.349,0,0,0,1.2.634,1.511,1.511,0,0,0,1.477-.884V11.111a1.489,1.489,0,0,0-1.461-.884Q95.555,10.227,95.555,12.879Zm6.758-.184a5.013,5.013,0,0,1,.484-2.242,3.546,3.546,0,0,1,1.395-1.523,4.069,4.069,0,0,1,2.113-.539A3.849,3.849,0,0,1,109.1,9.438a4.2,4.2,0,0,1,1.207,2.844l.016.578a4.418,4.418,0,0,1-1.086,3.121,4.209,4.209,0,0,1-5.832,0,4.5,4.5,0,0,1-1.09-3.187Zm2.258.16a3.16,3.16,0,0,0,.453,1.843,1.628,1.628,0,0,0,2.578.008,3.457,3.457,0,0,0,.461-2.015,3.128,3.128,0,0,0-.461-1.831,1.5,1.5,0,0,0-1.3-.649,1.474,1.474,0,0,0-1.281.646A3.516,3.516,0,0,0,104.571,12.856Zm11.891-2.192a6.134,6.134,0,0,0-.812-.062,1.654,1.654,0,0,0-1.68.867V17h-2.258V8.547h2.133l.063,1.008a2.092,2.092,0,0,1,1.883-1.164,2.366,2.366,0,0,1,.7.1Z" transform="translate(577.998 1171.055)"/>
    </g>
    <g id="Grupo_55788" data-name="Grupo 55788" transform="translate(-353.983 5108.802)">
      <circle id="Elipse_4489" data-name="Elipse 4489" cx="1.453" cy="1.453" r="1.453" transform="translate(1174.64 860.292)" fill="#ff8a5b"/>
      <path id="Trazado_105957" data-name="Trazado 105957" d="M1193.53,807.979h-15.984v-7.265a1.453,1.453,0,0,0-1.453-1.453h-16.857v-9.009a1.453,1.453,0,0,0-1.453-1.453h-35.747a1.453,1.453,0,0,0-1.453,1.453v54.057a1.453,1.453,0,0,0,1.453,1.453h16.857v7.266a1.453,1.453,0,0,0,1.453,1.453H1157.2v7.266a1.453,1.453,0,0,0,1.453,1.453h10.9a1.453,1.453,0,0,0,0-2.906h-9.446V846.9a27.508,27.508,0,0,1,1.665,2.521c1.515,2.486,3.082,5.056,5.6,5.056s4.085-2.57,5.6-5.056c.943-1.545,2.233-3.662,3.119-3.662s2.176,2.117,3.119,3.662c1.515,2.486,3.081,5.056,5.6,5.056s4.085-2.57,5.6-5.056a27.584,27.584,0,0,1,1.665-2.521v13.39h-9.445a1.453,1.453,0,1,0,0,2.906h10.9a1.453,1.453,0,0,0,1.453-1.453V809.432A1.453,1.453,0,0,0,1193.53,807.979ZM1157.2,825.417h-15.4V815.245h15.4Zm-15.4,2.906h15.4V838.5h-15.4Zm18.309-7.577a27.507,27.507,0,0,1,1.665,2.52c1.515,2.486,3.082,5.056,5.6,5.056s4.085-2.57,5.6-5.056c.943-1.545,2.233-3.662,3.119-3.662s2.176,2.117,3.119,3.662c1.515,2.486,3.081,5.056,5.6,5.056s4.085-2.57,5.6-5.056a27.583,27.583,0,0,1,1.665-2.52v9.34c-1.713.755-2.946,2.776-4.147,4.746-.942,1.546-2.233,3.663-3.119,3.663s-2.177-2.117-3.119-3.663c-1.515-2.486-3.082-5.056-5.6-5.056s-4.085,2.57-5.6,5.056c-.942,1.546-2.232,3.663-3.119,3.663s-2.176-2.117-3.118-3.663c-1.2-1.969-2.434-3.991-4.147-4.746Zm31.969-3.738c-1.713.755-2.946,2.777-4.147,4.746-.942,1.546-2.233,3.663-3.119,3.663s-2.177-2.117-3.119-3.662c-1.515-2.486-3.082-5.056-5.6-5.056s-4.085,2.57-5.6,5.056c-.942,1.545-2.232,3.662-3.119,3.662s-2.176-2.117-3.118-3.662c-1.2-1.97-2.434-3.991-4.147-4.746v-6.123h31.969Zm-17.437-9.029h-15.984a1.453,1.453,0,0,0-1.453,1.453v2.907h-15.4V802.167h32.84Zm-51.15,34.876V791.7h32.841v7.556h-15.984a1.453,1.453,0,0,0-1.453,1.453v42.141Zm18.31,8.719V841.4h15.4v10.172Zm46.131-3.662c-.942,1.546-2.233,3.662-3.119,3.662s-2.177-2.116-3.119-3.662c-1.515-2.486-3.082-5.056-5.6-5.056s-4.085,2.57-5.6,5.056c-.942,1.546-2.232,3.662-3.119,3.662s-2.176-2.116-3.118-3.662c-1.2-1.97-2.434-3.991-4.147-4.746v-9.34a27.5,27.5,0,0,1,1.665,2.52c1.515,2.486,3.082,5.056,5.6,5.056s4.085-2.57,5.6-5.056c.943-1.546,2.233-3.663,3.119-3.663s2.176,2.117,3.119,3.663c1.515,2.486,3.081,5.056,5.6,5.056s4.085-2.57,5.6-5.056a27.584,27.584,0,0,1,1.665-2.521v9.34C1190.364,843.92,1189.131,845.941,1187.93,847.911Z" transform="translate(0)" fill="#ff8a5b"/>
    </g>
    <path id="Trazado_105958" data-name="Trazado 105958" d="M1072.93,767.824a5.148,5.148,0,0,1-4.428-2.485,1.239,1.239,0,0,0-2.116,1.288,7.659,7.659,0,0,0,2.591,2.582l-1.284,5.826-3.095-3.564a1.241,1.241,0,1,0-1.806-1.7l-2.177,2.5-5.487-6.1a7.563,7.563,0,0,0,.831-2.906,16.586,16.586,0,0,0,21.24-15.9V737.138a1.239,1.239,0,0,0-2.478,0v10.239a14.091,14.091,0,1,1-28.181,0V736.864a7,7,0,0,0,6.5-5.5,42.378,42.378,0,0,0,17.007,6.293,1.239,1.239,0,0,0,.344-2.454,39.917,39.917,0,0,1-17.564-6.97,1.241,1.241,0,0,0-1.955,1.019c0,.031-.011,3.1-2.342,4.5a5.1,5.1,0,0,1-3.221.6,1.239,1.239,0,0,0-1.241,1.1c-.014.119-.009-.288-.009,9.913a2.559,2.559,0,0,1-1.394-2.267V728a2.945,2.945,0,0,1,2.942-2.942,1.239,1.239,0,0,0,1.15-.778,11.025,11.025,0,0,1,10.285-6.964h10.624a11.09,11.09,0,0,1,11.078,11.077v14.7a1.239,1.239,0,0,0,2.478,0v-14.7a13.571,13.571,0,0,0-13.556-13.555h-10.624a13.486,13.486,0,0,0-12.277,7.807,5.429,5.429,0,0,0-4.578,5.355v15.091a5.054,5.054,0,0,0,3.883,4.9,16.592,16.592,0,0,0,9.434,14.345v.327a5.168,5.168,0,0,1-5.177,5.163,12.779,12.779,0,0,0-12.786,12.786v7.318a1.239,1.239,0,0,0,2.478,0v-7.318a10.3,10.3,0,0,1,10.308-10.308,7.693,7.693,0,0,0,1.619-.172l1.728,7.845a1.24,1.24,0,0,0,2.145.546l2.441-2.811-1.508,12.065a1.239,1.239,0,0,0,2.459.307l1.743-13.942c.078.087.767.859.856.937a1.238,1.238,0,0,0,1.744-.109c.245-.28-.389.448.743-.853l1.746,13.967a1.238,1.238,0,1,0,2.458-.307L1065,775.709l2.441,2.81a1.24,1.24,0,0,0,2.145-.546l1.729-7.844a7.758,7.758,0,0,0,1.618.172,10.3,10.3,0,0,1,10.308,10.308v7.318a1.239,1.239,0,0,0,2.478,0v-7.318a12.779,12.779,0,0,0-12.786-12.786Zm-19.361,7.212-1.285-5.828a7.687,7.687,0,0,0,1.324-1.014l3,3.338Z" transform="translate(-547.545 5182.834)" fill="#25ced1"/>
    <g id="Grupo_55791" data-name="Grupo 55791" transform="translate(163.859 5223.408)">
      <ellipse id="Elipse_4490" data-name="Elipse 4490" cx="143.42" cy="8.378" rx="143.42" ry="8.378" transform="translate(234.3 1176.496)" opacity="0.2"/>
      <g id="Grupo_55790" data-name="Grupo 55790">
        <path id="Trazado_105959" data-name="Trazado 105959" d="M341.154,965.423a107.243,107.243,0,0,0,8.22,8.84c5.469,5.257,12.812,11.119,19.254,12.212a10.288,10.288,0,0,0,4.956-.245,29.605,29.605,0,0,0,9.621-5.857c8.852-7.551,16.2-18.97,16.2-18.97l-4.6-5.216s-10.3,7.651-16.748,11.759c-2.562,1.625-4.506,3.556-4.962,3.36-1.6-.685-29.321-20.232-29.321-20.232Z" fill="#ef9e78"/>
        <path id="Trazado_105960" data-name="Trazado 105960" d="M341.154,965.423a107.243,107.243,0,0,0,8.22,8.84,208.669,208.669,0,0,0,19.254,12.212,11.474,11.474,0,0,0,3.755,1.541c3.4-.2,10.71-4.8,10.71-4.8a16.222,16.222,0,0,0,.112-2.838,22.05,22.05,0,0,0-5.149-12.427c-2.562,1.625-4.516,2.694-4.972,2.5-1.6-.685-29.311-19.37-29.311-19.37Z" fill="#ce4761"/>
        <g id="Grupo_55789" data-name="Grupo 55789">
          <path id="Trazado_105961" data-name="Trazado 105961" d="M390.383,1032.529c-.947,5.8-1.594,10.02-1.594,10.02,7.119,3.1,15.263,4.373,23.2,4.624,2.65.087,5.281.056,7.844-.059,3.993-.176,7.822-.557,11.313-1.027a131.829,131.829,0,0,0,17.635-3.538,62.964,62.964,0,0,0-6.132-26.642c-3.68-8.116-7.872-14.3-9.02-19.322-1.439-6.29,1.625-20.953,3.841-30.1,1.127-4.634,2.034-7.85,2.034-7.85,7.732-11.339,4.021-17.987,4.021-17.987s-3.6-1.5-8.11-2.876c-.022-.006-.046-.015-.068-.022-1.548-.47-3.2-.925-4.841-1.3a38.379,38.379,0,0,0-5-.826c-4.4-.384-4.637-10.385-4.637-10.385s-1.792-.8-6.1-.675a32.467,32.467,0,0,0-5.343.675s0,7.908-3.7,9.555c-1.9.848-5.525,2.4-9.072,3.9v0c-.118.05-.239.1-.356.149l-1.17.495c-.514.217-1.022.433-1.517.641l-.731.309-1.173.5c-2.65,1.117-4.572,1.922-4.572,1.922-1.65,4.272,4.126,13.867,4.126,13.867a9.78,9.78,0,0,0-.4,2.158c-.009.117-.019.238-.028.359a52.649,52.649,0,0,0,1.282,12.087c1.575,8.256,4.064,17.718,4.655,24.082a15.248,15.248,0,0,1-.2,5.371,1.389,1.389,0,0,1-.05.17c-.244.737-.517,1.737-.807,2.941C394.088,1010.428,391.866,1023.422,390.383,1032.529Z" fill="#364154"/>
          <path id="Trazado_105962" data-name="Trazado 105962" d="M383.024,1184.34l27.374-17.794a6.5,6.5,0,0,0,2.958-5.53L411.7,1023.21c0-1.2,2.738-2.425,3.934-2.425s4.76.5,4.76,1.7L417.21,1161.92a4.492,4.492,0,0,0,2.043,3.87l28.536,18.55a.962.962,0,0,1-.524,1.769h0l-29.118-12.768a6.83,6.83,0,0,0-5.48,0l-29.118,12.768A.962.962,0,0,1,383.024,1184.34Z" fill="#364154"/>
        </g>
        <path id="Trazado_105963" data-name="Trazado 105963" d="M323.861,946.054s8.686,9.629,18.519,5.8a61.2,61.2,0,0,0,1.18-9.356c0-.464.009-.914.017-1.342.052-4.246.2-6.629.2-6.629l-.01,0c-.447-.187-15.031-6.174-15.019-5.677C328.993,940.331,323.861,946.054,323.861,946.054Z" fill="#ef9e78"/>
        <path id="Trazado_105964" data-name="Trazado 105964" d="M330.208,931.584c1.406,2.606,6.231,7.706,13.369,9.569.052-4.246.2-6.629.2-6.629l-.01,0C343.359,934.413,329.789,930.815,330.208,931.584Z" fill="#ef6343"/>
        <path id="Trazado_105965" data-name="Trazado 105965" d="M390.383,1032.529a92.689,92.689,0,0,0,21.432-.108,66.076,66.076,0,0,0,8.4-1.63c8.676-2.314,17.08-6.742,22.44-14.885-3.679-8.116-7.871-14.3-9.02-19.322-1.437-6.29,1.626-20.951,3.844-30.1l-2.058-28.71v0l-.068-.02s-1.56-.473-2.071-.626c-.767-.23-2.77-.671-2.77-.671s1.642,18.372-24.386,19.454c-8.192.34-12.8,1.457-15.258,2.826-.937,10.45,7.951,35.18,5.657,42.067C394.916,1005.62,392.133,1021.783,390.383,1032.529Z" fill="#ff8a5b"/>
        <path id="Trazado_105966" data-name="Trazado 105966" d="M346.827,934.082s-16.4,3.856-18.645-6.394-5.872-16.657,4.5-19.552,13.274.569,14.856,3.809S351.035,932.815,346.827,934.082Z" fill="#ef9e78"/>
        <path id="Trazado_105967" data-name="Trazado 105967" d="M328.743,930.481c-.224.143-3.753,1.227-10.436-12.087a11.593,11.593,0,0,1,.681-10.606c2.446-3.995,11.117-7.136,18.322-8.5s8.934,2.687,10.63,6.761c1.781,4.278,6.925,7.8,6.925,7.8-6.213,3.47-13.695-1.494-16.288-.677s-3.508,4.9-3.7,6.211-.494,2.4-3.754,1.228-1.473,4.62-.952,5.727C330.169,926.334,330.612,929.283,328.743,930.481Z" fill="#131f2d"/>
        <path id="Trazado_105968" data-name="Trazado 105968" d="M286.493,1186.109h-9.931c-2.081,0-4.4-2.085-4.974-5.9s-4.858-5.9-5.785-9.025,3.819-7.522,3.819-7.522l.793-1.019.826-1.063,7.866,1.851s.194,1.873.316,4.258c.084,1.723.13,3.715.032,5.461-.232,4.166,1.167,8.651,4.867,9.462S286.493,1186.109,286.493,1186.109Z" fill="#131f2d"/>
        <path id="Trazado_105969" data-name="Trazado 105969" d="M355.629,1186.109H329.3a2.474,2.474,0,0,1-.559-.162c-1.757-.881-1.207-7.61-1-9.688.041-.386.07-.611.07-.611s9.256-7.4,10.53-1.735c.041.177.087.351.136.522v0c1.607,5.3,8.79,7.714,12.94,8.385C354.6,1183.338,355.417,1185.185,355.629,1186.109Z" fill="#131f2d"/>
        <path id="Trazado_105970" data-name="Trazado 105970" d="M350.323,1034.3s-1.406,17.54-3.058,38.623c-2.246,28.64-4.947,63.82-5.214,70.485-.462,11.572-2.315,30.084-2.315,30.084s-4.395,4.4-13.191,2.544c0,0-7.837-26.426-10.076-54.386-.035-.458-.07-.92-.1-1.381-2.083-28.463-5.321-88.4-5.321-88.4Z" fill="#25ced1"/>
        <path id="Trazado_105971" data-name="Trazado 105971" d="M350.323,1034.3s-1.406,17.54-3.058,38.623l-30.8,48.727c-.035-.458-.07-.92-.1-1.381-2.083-28.463-5.321-88.4-5.321-88.4Z" fill="#35b8bb"/>
        <path id="Trazado_105972" data-name="Trazado 105972" d="M343.9,1036.387s-25.339,63.521-42,93.373-21.868,38.182-21.868,38.182-9.545-3.818-10.413-6.421c0,0,6.371-57.631,17.529-71.679,6.3-7.938,13.711-31.761,14.058-40.091s2.256-24.819,2.256-24.819Z" fill="#25ced1"/>
        <path id="Trazado_105973" data-name="Trazado 105973" d="M304.28,1035.824c6.939,4.1,13.485,7.138,21.088,8.744,9.008,1.958,20.014,1.121,23.7,1.585a1.56,1.56,0,0,0,1.081-.276c.269-.168,1.722-11.282,3.1-25.347.06-.541.128-1.137.14-1.682l.024-.2c.149-1.465.3-2.951.433-4.456.188-2.114.364-4.256.532-6.414.129-1.673.253-3.355.373-5.036.024-.369.052-.737.076-1.1.428-6.2.744-12.312.841-17.741.016-.9.024-1.781.028-2.646v-.116c.02-3.592-.077-6.815-.313-9.473-.06-.681-.128-1.317-.212-1.922-1.077-8.151-5.02-13.889-8.728-18.2l-3.059-3.384a16.224,16.224,0,0,1-10.449-2.478c-3.68-2.358-7.683-4.9-8.428-4.488-5.693,3.331-10.233,11.851-13.324,22.973A126,126,0,0,0,307.515,984q-.444,4.085-.68,8.3a273.379,273.379,0,0,1-4.532,35.412c-.393,2.15-.705,3.864-.873,5.049C301.262,1033.838,303.36,1035.279,304.28,1035.824Z" fill="#ea526f"/>
        <path id="Trazado_105974" data-name="Trazado 105974" d="M330.44,965.423s3.2,27.241,23.942,42.359c.129-1.673.253-3.355.373-5.036.024-.369.052-.737.076-1.1.428-6.2.744-12.312.841-17.741.016-.9.024-1.781.028-2.646v-.116c-.02-3.207-.121-6.11-.313-8.584C349.037,968.666,340.806,965.944,330.44,965.423Z" fill="#ce4761"/>
        <path id="Trazado_105975" data-name="Trazado 105975" d="M396.657,938.693s.582,37.1,22.386,50.616,6.318,93.361,12.659,122.8-56.917,5.421-60.12-27.81,27.626-84.445,27.359-90.8-8.055-46.971-7.231-52.72Z" fill="#ffcd91"/>
        <path id="Trazado_105976" data-name="Trazado 105976" d="M357.9,997.641a45.351,45.351,0,0,0,6.408,3.492c3.489,1.271,9.1,1.964,15.169,2.312,13.3.773,28.775-.089,28.775-.089,2.336,1.678,6.447,1.388,9.918-.568s2.715-1.11,5.208-2.446a1.553,1.553,0,0,0,.694-2.387,3.526,3.526,0,0,0-2.212-1.666c-4.636-1.2-6.653-.852-8.654-.246a2.187,2.187,0,0,0,.542-1.558c-.137-.5-3.511,1.5-5,2.42-5.008.709-16.8-2.779-25.6-5.754-5.3-1.788-9.771-2.751-10.761-3.135-.807-.312-3.358-2.782-6.52-6.214A53.331,53.331,0,0,1,357.9,997.641Z" fill="#ef9e78"/>
        <path id="Trazado_105977" data-name="Trazado 105977" d="M328.088,977.516c10.394,7.33,29.727,21.053,34.771,23.849,3.248,1.8,7.457,5.31,13.613,6.69,8.809-5.988,6.672-16.9,6.672-16.9-5.3-1.788-9.516-3.39-10.506-3.775-2.643-1.019-24.148-26.469-24.148-26.469s-8.2-10.527-15.568-8.793c-6.408,1.511-9.179,6.256-10.318,10.873A13.788,13.788,0,0,0,328.088,977.516Z" fill="#ea526f"/>
      </g>
    </g>
    <g id="Grupo_55783" data-name="Grupo 55783" transform="translate(-3568.98 2658.953)">
      <rect id="Rectángulo_5232-3" data-name="Rectángulo 5232" width="25.07" height="11.15" transform="translate(4184.91 3290.732)" fill="#25ced1"/>
      <g id="Grupo_53896-3" data-name="Grupo 53896">
        <path id="Trazado_100701-3" data-name="Trazado 100701" d="M4225.918,3296.305l-27.493,16.262,6.524-16.262-6.524-16.258Z" fill="#25ced1"/>
      </g>
    </g>
  </g>
</svg>
