<svg xmlns="http://www.w3.org/2000/svg" xmlns:xlink="http://www.w3.org/1999/xlink" width="400" height="290.084" viewBox="0 0 400 290.084">
  <defs>
    <clipPath id="clip-path">
      <path id="Rectangle_652" data-name="Rectangle 652" d="M393.7,0H6.3C2.82,0,0,4.808,0,10.744v268.6c0,5.934,2.82,10.744,6.3,10.744H393.7c3.479,0,6.3-4.808,6.3-10.744V10.744C400,4.808,397.18,0,393.7,0Z" transform="translate(0 46.689)" fill="#f6e7e0"/>
    </clipPath>
    <clipPath id="clip-path-2">
      <path id="Trazado_113844" data-name="Trazado 113844" d="M42.275,42.279A48.1,48.1,0,1,0,76.289,28.192,48.1,48.1,0,0,0,42.275,42.279" transform="translate(-28.186 -28.192)" fill="#ff8a5b"/>
    </clipPath>
  </defs>
  <g id="Grupo_57535" data-name="Grupo 57535" transform="translate(-600 -999.916)">
    <rect id="Rectángulo_5182" data-name="Rectángulo 5182" width="400" height="289" rx="10" transform="translate(600 1001)" fill="#9f0925" opacity="0.1"/>
    <g id="Enmascarar_grupo_53" data-name="Enmascarar grupo 53" transform="translate(600 953.227)" clip-path="url(#clip-path)">
      <ellipse id="Elipse_4721" data-name="Elipse 4721" cx="514.221" cy="514.221" rx="514.221" ry="514.221" transform="translate(338 -142.743)" fill="#9f0925" opacity="0.08"/>
      <path id="Trazado_113936" data-name="Trazado 113936" d="M514.221,0c284,0,514.221,230.224,514.221,514.221s-230.224,514.221-514.221,514.221S0,798.22,0,514.221,230.224,0,514.221,0Z" transform="translate(-270.401 -966.752)" fill="#9f0925" opacity="0.08"/>
      <path id="Trazado_113609" data-name="Trazado 113609" d="M315.819,66.4a34.872,34.872,0,0,0,3.738-33.122A34.871,34.871,0,0,0,293.335,12.7c-14.107-2.226-28.05,4.481-40.03,12.251s-23.487,16.974-37.267,20.729c-13.129,3.577-27.191,1.825-40.254-1.985s-25.447-9.609-38.221-14.3c-20.941-7.684-44.1-12.349-65.483-5.992S32.221,49.84,33.845,72.087c.679,9.286,4.62,17.971,8.115,26.608s6.633,17.812,5.6,27.068-7.4,18.54-16.6,20.006c-7.376,1.176-14.848-2.938-19.458-8.817s-6.82-13.265-8.373-20.57A149.57,149.57,0,0,1,27.3,0" transform="translate(397.996 14.449) rotate(56.993)" fill="none" stroke="#9f0925" stroke-miterlimit="10" stroke-width="1.701"/>
      <path id="Trazado_113693" data-name="Trazado 113693" d="M557.317,117.182a61.538,61.538,0,0,0,6.6-58.45,61.537,61.537,0,0,0-46.272-36.314C492.75,18.49,468.143,30.324,447,44.039s-41.447,29.954-65.763,36.579c-23.168,6.313-47.983,3.221-71.035-3.5S265.293,60.161,242.751,51.89C205.8,38.33,164.925,30.1,127.2,41.317s-70.339,46.639-67.471,85.9c1.2,16.391,8.153,31.713,14.314,46.949s11.71,31.432,9.89,47.766-13.065,32.717-29.294,35.3c-13.017,2.076-26.2-5.185-34.337-15.555s-12.035-23.409-14.776-36.3C-9.443,134.988,6.418,58.6,48.179,0" transform="translate(183.884 480.168) rotate(-123.007)" fill="none" stroke="#4d342c" stroke-miterlimit="10" stroke-width="1.701" stroke-dasharray="3"/>
      <path id="Trazado_113929" data-name="Trazado 113929" d="M83.016,0A83.016,83.016,0,1,1,0,83.016,83.016,83.016,0,0,1,83.016,0Z" transform="translate(-68.465 241.278)" fill="#9f0925"/>
      <g id="Grupo_80251" data-name="Grupo 80251" transform="translate(-35.148 268.061)">
        <g id="Grupo_80251-2" data-name="Grupo 80251" transform="translate(0 0)" clip-path="url(#clip-path-2)">
          <rect id="Rectángulo_33802" data-name="Rectángulo 33802" width="123.381" height="0.681" transform="translate(36.625 123.866) rotate(-45)" fill="#ff8a5b"/>
          <rect id="Rectángulo_33803" data-name="Rectángulo 33803" width="123.381" height="0.681" transform="translate(31.642 118.883) rotate(-45)" fill="#ff8a5b"/>
          <rect id="Rectángulo_33804" data-name="Rectángulo 33804" width="123.381" height="0.681" transform="translate(26.66 113.902) rotate(-45)" fill="#ff8a5b"/>
          <rect id="Rectángulo_33805" data-name="Rectángulo 33805" width="123.381" height="0.681" transform="translate(21.678 108.919) rotate(-45)" fill="#ff8a5b"/>
          <rect id="Rectángulo_33806" data-name="Rectángulo 33806" width="123.381" height="0.681" transform="translate(16.696 103.938) rotate(-45)" fill="#ff8a5b"/>
          <path id="Trazado_113843" data-name="Trazado 113843" d="M127.645,40.4,40.4,127.641l-.481-.482,87.242-87.242Z" transform="translate(-28.206 -28.207)" fill="#ff8a5b"/>
          <rect id="Rectángulo_33807" data-name="Rectángulo 33807" width="123.381" height="0.681" transform="translate(6.731 93.972) rotate(-45)" fill="#ff8a5b"/>
          <rect id="Rectángulo_33808" data-name="Rectángulo 33808" width="123.381" height="0.681" transform="translate(1.749 88.991) rotate(-45)" fill="#ff8a5b"/>
          <rect id="Rectángulo_33809" data-name="Rectángulo 33809" width="123.381" height="0.681" transform="translate(-3.233 84.008) rotate(-45)" fill="#ff8a5b"/>
          <rect id="Rectángulo_33810" data-name="Rectángulo 33810" width="123.381" height="0.681" transform="translate(-8.216 79.025) rotate(-45)" fill="#ff8a5b"/>
          <rect id="Rectángulo_33811" data-name="Rectángulo 33811" width="123.381" height="0.681" transform="translate(-13.198 74.044) rotate(-45)" fill="#ff8a5b"/>
          <rect id="Rectángulo_33812" data-name="Rectángulo 33812" width="123.381" height="0.681" transform="translate(-18.18 69.061) rotate(-45)" fill="#ff8a5b"/>
          <rect id="Rectángulo_33813" data-name="Rectángulo 33813" width="123.381" height="0.681" transform="translate(-23.162 64.079) rotate(-45)" fill="#ff8a5b"/>
          <rect id="Rectángulo_33814" data-name="Rectángulo 33814" width="123.381" height="0.681" transform="translate(-28.144 59.097) rotate(-45)" fill="#ff8a5b"/>
        </g>
      </g>
    </g>
    <path id="Trazado_109533" data-name="Trazado 109533" d="M21.559,6.2l2.856,8.9,2.848-8.9h4.061V19H28.229V16.012l.3-6.117L25.435,19H23.4l-3.1-9.114.3,6.126V19H17.507V6.2ZM38.5,19a3.344,3.344,0,0,1-.281-.853,2.754,2.754,0,0,1-2.285,1.028,3.374,3.374,0,0,1-2.285-.813,2.588,2.588,0,0,1-.94-2.043,2.66,2.66,0,0,1,1.143-2.338,5.821,5.821,0,0,1,3.322-.791h.914v-.5q0-1.316-1.134-1.316A.927.927,0,0,0,35.9,12.413H32.94a2.655,2.655,0,0,1,1.173-2.239,4.931,4.931,0,0,1,2.993-.86,4.323,4.323,0,0,1,2.874.888,3.086,3.086,0,0,1,1.081,2.435v4.21a4.311,4.311,0,0,0,.4,2V19Zm-1.854-1.934a1.652,1.652,0,0,0,.918-.237,1.487,1.487,0,0,0,.523-.536V14.772h-.861q-1.547,0-1.547,1.389a.848.848,0,0,0,.272.655A.986.986,0,0,0,36.649,17.066Zm9.5-9.94V9.49h1.564v2.057H46.15V15.9a1.111,1.111,0,0,0,.193.747,1.037,1.037,0,0,0,.765.211,4.345,4.345,0,0,0,.738-.053v2.118a5.466,5.466,0,0,1-1.67.255,3.1,3.1,0,0,1-2.259-.721,2.954,2.954,0,0,1-.729-2.188v-4.72H41.976V9.49h1.213V7.126Zm7.33,12.05a4.889,4.889,0,0,1-3.542-1.305,4.507,4.507,0,0,1-1.354-3.4v-.246a5.84,5.84,0,0,1,.541-2.575A3.955,3.955,0,0,1,50.7,9.925a4.763,4.763,0,0,1,2.461-.611,4.117,4.117,0,0,1,3.164,1.244,4.887,4.887,0,0,1,1.16,3.467v1.151H51.6a2.135,2.135,0,0,0,.694,1.257,2.066,2.066,0,0,0,1.389.457,2.662,2.662,0,0,0,2.2-.984l1.354,1.6a3.784,3.784,0,0,1-1.569,1.217A5.3,5.3,0,0,1,53.48,19.176ZM53.146,11.6q-1.3,0-1.547,1.723h2.988v-.229a1.467,1.467,0,0,0-.36-1.1A1.434,1.434,0,0,0,53.146,11.6Zm11.285.571-.976-.07a1.752,1.752,0,0,0-1.793.879V19H58.7V9.49h2.777l.1,1.222a2.294,2.294,0,0,1,2.083-1.4,2.888,2.888,0,0,1,.826.105ZM68.624,19H65.653V9.49h2.971ZM65.478,7.038A1.322,1.322,0,0,1,65.935,6a1.943,1.943,0,0,1,2.373,0,1.322,1.322,0,0,1,.457,1.037,1.322,1.322,0,0,1-.457,1.037,1.943,1.943,0,0,1-2.373,0A1.322,1.322,0,0,1,65.478,7.038ZM75.8,19a3.344,3.344,0,0,1-.281-.853,2.754,2.754,0,0,1-2.285,1.028,3.374,3.374,0,0,1-2.285-.813,2.588,2.588,0,0,1-.94-2.043,2.66,2.66,0,0,1,1.143-2.338,5.821,5.821,0,0,1,3.322-.791h.914v-.5q0-1.316-1.134-1.316A.927.927,0,0,0,73.2,12.413H70.241a2.655,2.655,0,0,1,1.173-2.239,4.931,4.931,0,0,1,2.993-.86,4.323,4.323,0,0,1,2.874.888,3.086,3.086,0,0,1,1.081,2.435v4.21a4.311,4.311,0,0,0,.4,2V19ZM73.95,17.066a1.652,1.652,0,0,0,.918-.237,1.487,1.487,0,0,0,.523-.536V14.772H74.53q-1.547,0-1.547,1.389a.848.848,0,0,0,.272.655A.986.986,0,0,0,73.95,17.066Zm11.03-.738a.684.684,0,0,0-.4-.606,6.016,6.016,0,0,0-1.5-.475,6.853,6.853,0,0,1-1.828-.646,3.062,3.062,0,0,1-1.1-.971,2.319,2.319,0,0,1-.378-1.31,2.628,2.628,0,0,1,1.081-2.158,4.453,4.453,0,0,1,2.83-.848,4.934,4.934,0,0,1,3.023.853,2.666,2.666,0,0,1,1.143,2.241H84.884q0-1.143-1.2-1.143a1.194,1.194,0,0,0-.782.259.8.8,0,0,0-.316.646.737.737,0,0,0,.387.642,3.654,3.654,0,0,0,1.235.4,10.671,10.671,0,0,1,1.49.378,2.706,2.706,0,0,1,2.145,2.646,2.491,2.491,0,0,1-1.156,2.118,5.068,5.068,0,0,1-2.993.817,5.172,5.172,0,0,1-2.18-.439,3.645,3.645,0,0,1-1.494-1.2,2.707,2.707,0,0,1-.536-1.591h2.769a1.145,1.145,0,0,0,.439.962,1.808,1.808,0,0,0,1.081.3,1.422,1.422,0,0,0,.91-.246A.787.787,0,0,0,84.98,16.328Zm17.552-2.013a5.735,5.735,0,0,1-1,3.538,3.2,3.2,0,0,1-2.694,1.323,2.742,2.742,0,0,1-2.153-.958v4.438H93.726V9.49h2.769l.088.879a2.742,2.742,0,0,1,2.241-1.055,3.224,3.224,0,0,1,2.733,1.3,5.805,5.805,0,0,1,.976,3.564Zm-2.962-.185q0-2.531-1.477-2.531a1.394,1.394,0,0,0-1.406.756V16.1a1.439,1.439,0,0,0,1.424.791q1.415,0,1.459-2.443Zm10.02-1.96-.976-.07a1.752,1.752,0,0,0-1.793.879V19h-2.962V9.49h2.777l.1,1.222a2.294,2.294,0,0,1,2.083-1.4,2.888,2.888,0,0,1,.826.105ZM113.782,19h-2.971V9.49h2.971ZM110.636,7.038A1.322,1.322,0,0,1,111.093,6a1.943,1.943,0,0,1,2.373,0,1.322,1.322,0,0,1,.457,1.037,1.322,1.322,0,0,1-.457,1.037,1.943,1.943,0,0,1-2.373,0A1.322,1.322,0,0,1,110.636,7.038Zm7.77,2.452.1,1.116a3.27,3.27,0,0,1,2.716-1.292,2.407,2.407,0,0,1,2.435,1.433,3.165,3.165,0,0,1,2.795-1.433q2.892,0,2.971,3.5V19h-2.971V13a1.813,1.813,0,0,0-.246-1.063,1.048,1.048,0,0,0-.9-.334,1.4,1.4,0,0,0-1.31.782L124,12.5V19h-2.971V13.015a1.906,1.906,0,0,0-.237-1.081,1.045,1.045,0,0,0-.905-.334,1.42,1.42,0,0,0-1.3.782V19h-2.962V9.49ZM136.467,19a3.344,3.344,0,0,1-.281-.853,2.754,2.754,0,0,1-2.285,1.028,3.374,3.374,0,0,1-2.285-.813,2.588,2.588,0,0,1-.94-2.043,2.66,2.66,0,0,1,1.143-2.338,5.821,5.821,0,0,1,3.322-.791h.914v-.5q0-1.316-1.134-1.316a.927.927,0,0,0-1.055,1.042H130.9a2.655,2.655,0,0,1,1.173-2.239,4.931,4.931,0,0,1,2.993-.86,4.323,4.323,0,0,1,2.874.888,3.086,3.086,0,0,1,1.081,2.435v4.21a4.311,4.311,0,0,0,.4,2V19Zm-1.854-1.934a1.652,1.652,0,0,0,.918-.237,1.487,1.487,0,0,0,.523-.536V14.772h-.861q-1.547,0-1.547,1.389a.848.848,0,0,0,.272.655A.986.986,0,0,0,134.612,17.066Zm11.03-.738a.684.684,0,0,0-.4-.606,6.016,6.016,0,0,0-1.5-.475,6.853,6.853,0,0,1-1.828-.646,3.062,3.062,0,0,1-1.1-.971,2.319,2.319,0,0,1-.378-1.31,2.628,2.628,0,0,1,1.081-2.158,4.453,4.453,0,0,1,2.83-.848,4.934,4.934,0,0,1,3.023.853,2.666,2.666,0,0,1,1.143,2.241h-2.971q0-1.143-1.2-1.143a1.194,1.194,0,0,0-.782.259.8.8,0,0,0-.316.646.737.737,0,0,0,.387.642,3.654,3.654,0,0,0,1.235.4,10.671,10.671,0,0,1,1.49.378A2.706,2.706,0,0,1,148.5,16.24a2.491,2.491,0,0,1-1.156,2.118,5.068,5.068,0,0,1-2.993.817,5.172,5.172,0,0,1-2.18-.439,3.645,3.645,0,0,1-1.494-1.2,2.707,2.707,0,0,1-.536-1.591h2.769a1.145,1.145,0,0,0,.439.962,1.808,1.808,0,0,0,1.081.3,1.422,1.422,0,0,0,.91-.246A.787.787,0,0,0,145.643,16.328Zm8.35-2.153a5.809,5.809,0,0,1,.976-3.56,3.211,3.211,0,0,1,2.725-1.3,2.731,2.731,0,0,1,2.145,1V5.5h2.971V19h-2.663L160,17.98a2.8,2.8,0,0,1-2.32,1.2,3.205,3.205,0,0,1-2.689-1.3A5.993,5.993,0,0,1,153.992,14.175Zm2.962.185q0,2.531,1.477,2.531a1.458,1.458,0,0,0,1.406-.826V12.443a1.419,1.419,0,0,0-1.389-.844q-1.371,0-1.485,2.215Zm12.138,4.816a4.889,4.889,0,0,1-3.542-1.305,4.507,4.507,0,0,1-1.354-3.4v-.246a5.84,5.84,0,0,1,.541-2.575,3.955,3.955,0,0,1,1.578-1.727,4.763,4.763,0,0,1,2.461-.611,4.117,4.117,0,0,1,3.164,1.244,4.887,4.887,0,0,1,1.16,3.467v1.151h-5.889a2.135,2.135,0,0,0,.694,1.257,2.066,2.066,0,0,0,1.389.457,2.662,2.662,0,0,0,2.2-.984l1.354,1.6a3.784,3.784,0,0,1-1.569,1.217A5.3,5.3,0,0,1,169.092,19.176Zm-.334-7.576q-1.3,0-1.547,1.723H170.2v-.229a1.467,1.467,0,0,0-.36-1.1A1.434,1.434,0,0,0,168.758,11.6ZM39.8,39.157a5.613,5.613,0,0,1,.554-2.536,3.96,3.96,0,0,1,1.591-1.709,4.791,4.791,0,0,1,2.435-.6,4.373,4.373,0,0,1,3.366,1.323,5.076,5.076,0,0,1,1.23,3.6v.105a4.925,4.925,0,0,1-1.235,3.529,4.384,4.384,0,0,1-3.344,1.305,4.434,4.434,0,0,1-3.261-1.217,4.761,4.761,0,0,1-1.327-3.3Zm2.962.185a3.538,3.538,0,0,0,.413,1.934,1.376,1.376,0,0,0,1.222.615q1.582,0,1.617-2.435v-.3q0-2.558-1.635-2.558-1.485,0-1.608,2.206Zm13.271-2.171-.976-.07a1.752,1.752,0,0,0-1.793.879V44H50.3V34.49h2.777l.1,1.222a2.294,2.294,0,0,1,2.083-1.4,2.888,2.888,0,0,1,.826.105ZM60.222,44H57.251V34.49h2.971ZM57.075,32.038A1.322,1.322,0,0,1,57.532,31a1.943,1.943,0,0,1,2.373,0,1.405,1.405,0,0,1,0,2.074,1.943,1.943,0,0,1-2.373,0A1.322,1.322,0,0,1,57.075,32.038ZM61.7,39.175a6.421,6.421,0,0,1,.475-2.549,3.821,3.821,0,0,1,1.362-1.709,3.591,3.591,0,0,1,2.065-.6,2.855,2.855,0,0,1,2.32,1l.105-.826h2.689V43.64a4.009,4.009,0,0,1-.584,2.184,3.75,3.75,0,0,1-1.692,1.424,6.219,6.219,0,0,1-2.566.5,5.365,5.365,0,0,1-2.026-.4,3.657,3.657,0,0,1-1.5-1.028l1.239-1.74a2.716,2.716,0,0,0,2.18.976,1.764,1.764,0,0,0,1.969-2.021v-.3a2.781,2.781,0,0,1-2.153.94,3.437,3.437,0,0,1-2.812-1.332A5.517,5.517,0,0,1,61.7,39.28Zm2.971.185a3.383,3.383,0,0,0,.439,1.85,1.387,1.387,0,0,0,1.23.681,1.573,1.573,0,0,0,1.4-.642v-4a1.534,1.534,0,0,0-1.38-.65,1.4,1.4,0,0,0-1.239.708A3.858,3.858,0,0,0,64.669,39.359ZM77,44.176a4.889,4.889,0,0,1-3.542-1.305,4.507,4.507,0,0,1-1.354-3.4v-.246a5.84,5.84,0,0,1,.541-2.575,3.955,3.955,0,0,1,1.578-1.727,4.763,4.763,0,0,1,2.461-.611,4.117,4.117,0,0,1,3.164,1.244,4.887,4.887,0,0,1,1.16,3.467v1.151H75.119a2.135,2.135,0,0,0,.694,1.257,2.066,2.066,0,0,0,1.389.457,2.662,2.662,0,0,0,2.2-.984l1.354,1.6a3.784,3.784,0,0,1-1.569,1.217A5.3,5.3,0,0,1,77,44.176ZM76.666,36.6q-1.3,0-1.547,1.723h2.988v-.229a1.467,1.467,0,0,0-.36-1.1A1.434,1.434,0,0,0,76.666,36.6Zm8.253-2.109.1,1.116a3.225,3.225,0,0,1,2.716-1.292,2.713,2.713,0,0,1,2.219.888,4.226,4.226,0,0,1,.76,2.672V44H87.74V38a1.6,1.6,0,0,0-.29-1.059A1.342,1.342,0,0,0,86.4,36.6a1.413,1.413,0,0,0-1.292.686V44H82.142V34.49ZM102.189,44a3.344,3.344,0,0,1-.281-.853,2.754,2.754,0,0,1-2.285,1.028,3.374,3.374,0,0,1-2.285-.813,2.588,2.588,0,0,1-.94-2.043,2.66,2.66,0,0,1,1.143-2.338,5.821,5.821,0,0,1,3.322-.791h.914v-.5q0-1.316-1.134-1.316a.927.927,0,0,0-1.055,1.042H96.626A2.655,2.655,0,0,1,97.8,35.175a4.931,4.931,0,0,1,2.993-.86,4.323,4.323,0,0,1,2.874.888,3.086,3.086,0,0,1,1.081,2.435v4.21a4.311,4.311,0,0,0,.4,2V44Zm-1.854-1.934a1.652,1.652,0,0,0,.918-.237,1.487,1.487,0,0,0,.523-.536V39.772h-.861q-1.547,0-1.547,1.389a.848.848,0,0,0,.272.655A.986.986,0,0,0,100.335,42.066Zm8.771-7.576.1,1.116a3.225,3.225,0,0,1,2.716-1.292,2.713,2.713,0,0,1,2.219.888,4.226,4.226,0,0,1,.76,2.672V44h-2.971V38a1.6,1.6,0,0,0-.29-1.059,1.342,1.342,0,0,0-1.055-.338,1.413,1.413,0,0,0-1.292.686V44h-2.962V34.49ZM119.662,44h-2.971V34.49h2.971Zm-3.146-11.962A1.322,1.322,0,0,1,116.973,31a1.943,1.943,0,0,1,2.373,0,1.405,1.405,0,0,1,0,2.074,1.943,1.943,0,0,1-2.373,0A1.322,1.322,0,0,1,116.516,32.038Zm7.77,2.452.1,1.116a3.27,3.27,0,0,1,2.716-1.292,2.407,2.407,0,0,1,2.435,1.433,3.165,3.165,0,0,1,2.795-1.433q2.892,0,2.971,3.5V44h-2.971V38a1.813,1.813,0,0,0-.246-1.063,1.048,1.048,0,0,0-.9-.334,1.4,1.4,0,0,0-1.31.782l.009.123V44h-2.971V38.015a1.906,1.906,0,0,0-.237-1.081,1.045,1.045,0,0,0-.905-.334,1.42,1.42,0,0,0-1.3.782V44h-2.962V34.49ZM142.347,44a3.344,3.344,0,0,1-.281-.853,2.754,2.754,0,0,1-2.285,1.028,3.374,3.374,0,0,1-2.285-.813,2.588,2.588,0,0,1-.94-2.043,2.66,2.66,0,0,1,1.143-2.338,5.821,5.821,0,0,1,3.322-.791h.914v-.5q0-1.316-1.134-1.316a.927.927,0,0,0-1.055,1.042h-2.962a2.655,2.655,0,0,1,1.173-2.239,4.931,4.931,0,0,1,2.993-.86,4.323,4.323,0,0,1,2.874.888,3.086,3.086,0,0,1,1.081,2.435v4.21a4.311,4.311,0,0,0,.4,2V44Zm-1.854-1.934a1.652,1.652,0,0,0,.918-.237,1.487,1.487,0,0,0,.523-.536V39.772h-.861q-1.547,0-1.547,1.389a.848.848,0,0,0,.272.655A.986.986,0,0,0,140.492,42.066ZM149.668,44H146.7V30.5h2.971Z" transform="translate(705 1190)" fill="#12263f"/>
    <g id="Grupo_55642" data-name="Grupo 55642" transform="translate(518.289 887.721)">
      <circle id="Elipse_4052" data-name="Elipse 4052" cx="60" cy="60" r="60" transform="translate(221.71 153.279)" fill="#ff8a5b"/>
      <g id="Grupo_55651" data-name="Grupo 55651" transform="translate(252.711 183.437)">
        <g id="Grupo_55644" data-name="Grupo 55644">
          <g id="Grupo_55642-2" data-name="Grupo 55642">
            <path id="Trazado_105674" data-name="Trazado 105674" d="M274.71,234.626a9.092,9.092,0,0,1-7.94-4.65,9.024,9.024,0,0,1-4.545,1.215,9.152,9.152,0,0,1-9.119-9.164c0-.16,0-.32.013-.479a9.182,9.182,0,0,1-4.546-15.67,9.175,9.175,0,0,1,5-15.34q-.04-.435-.041-.873a9.111,9.111,0,0,1,13.143-8.223,9.106,9.106,0,0,1,16.063,0,9.111,9.111,0,0,1,13.143,8.223q0,.438-.042.873a9.176,9.176,0,0,1,5.005,15.34,9.182,9.182,0,0,1-4.546,15.67c.008.159.013.319.013.479a9.152,9.152,0,0,1-9.119,9.164,9.021,9.021,0,0,1-4.545-1.215A9.094,9.094,0,0,1,274.71,234.626Z" transform="translate(-245.711 -176.627)" fill="#ececf1"/>
          </g>
          <g id="Grupo_55643" data-name="Grupo 55643" transform="translate(28.999)">
            <path id="Trazado_105675" data-name="Trazado 105675" d="M303.71,212.546a9.166,9.166,0,0,0-2.862-6.668,9.176,9.176,0,0,0-5.005-15.34q.042-.435.042-.873a9.111,9.111,0,0,0-13.143-8.223,9.087,9.087,0,0,0-8.032-4.815v58a9.094,9.094,0,0,0,7.941-4.65,9.021,9.021,0,0,0,4.545,1.215,9.152,9.152,0,0,0,9.119-9.164c0-.16-.005-.32-.013-.479a9.169,9.169,0,0,0,7.408-9Z" transform="translate(-274.71 -176.627)" fill="#d3d3d8"/>
          </g>
        </g>
        <g id="Grupo_55645" data-name="Grupo 55645" transform="translate(15.61 22.089)">
          <path id="Trazado_105676" data-name="Trazado 105676" d="M275.99,223.421h-2.559a7.537,7.537,0,0,1-7.528-7.529,4.115,4.115,0,0,0-1.125-2.833l-1.407-1.492a7.5,7.5,0,0,1-2.05-5.165v-5.143a1.7,1.7,0,0,1,2.591-1.447,3.191,3.191,0,0,0,4.014-.551,1.7,1.7,0,0,1,2.816.5,4.3,4.3,0,0,0,7.937,0,1.7,1.7,0,0,1,2.816-.5,3.191,3.191,0,0,0,4.014.551,1.7,1.7,0,0,1,2.591,1.447V206.4a7.5,7.5,0,0,1-2.051,5.165l-1.406,1.492a4.115,4.115,0,0,0-1.125,2.833,7.537,7.537,0,0,1-7.528,7.529Z" transform="translate(-261.321 -198.716)" fill="#f1c992"/>
        </g>
        <g id="Grupo_55646" data-name="Grupo 55646" transform="translate(28.999 22.089)">
          <path id="Trazado_105677" data-name="Trazado 105677" d="M287.229,199.775a1.7,1.7,0,0,0-1.72.037,3.191,3.191,0,0,1-4.014-.551,1.7,1.7,0,0,0-2.816.5,4.285,4.285,0,0,1-3.969,2.651v21.006h1.28a7.537,7.537,0,0,0,7.528-7.529,4.115,4.115,0,0,1,1.125-2.833l1.406-1.492A7.5,7.5,0,0,0,288.1,206.4v-5.144a1.7,1.7,0,0,0-.871-1.483Z" transform="translate(-274.71 -198.716)" fill="#eebb75"/>
        </g>
        <g id="Grupo_55647" data-name="Grupo 55647" transform="translate(10.08 22.443)">
          <path id="Trazado_105678" data-name="Trazado 105678" d="M257.491,206.007a1.7,1.7,0,0,1-.749-3.225l7.207-3.537a1.7,1.7,0,1,1,1.5,3.051l-7.207,3.537A1.7,1.7,0,0,1,257.491,206.007Z" transform="translate(-255.791 -199.07)" fill="#fed2a4"/>
        </g>
        <g id="Grupo_55648" data-name="Grupo 55648" transform="translate(37.313 22.443)">
          <path id="Trazado_105679" data-name="Trazado 105679" d="M291.929,206.007a1.7,1.7,0,0,1-.747-.174l-7.207-3.538a1.7,1.7,0,1,1,1.5-3.05l7.207,3.537a1.7,1.7,0,0,1-.75,3.225Z" transform="translate(-283.024 -199.07)" fill="#ffbd86"/>
        </g>
        <path id="Trazado_105680" data-name="Trazado 105680" d="M271.369,211.744a1.7,1.7,0,0,1-1.7-1.7v-2.265a1.7,1.7,0,0,1,3.4,0v2.265A1.7,1.7,0,0,1,271.369,211.744Z" transform="translate(-245.711 -176.627)" fill="#444"/>
        <path id="Trazado_105681" data-name="Trazado 105681" d="M277.826,211.744a1.7,1.7,0,0,1-1.7-1.7v-2.265a1.7,1.7,0,0,1,3.4,0v2.265A1.7,1.7,0,0,1,277.826,211.744Z" transform="translate(-245.711 -176.627)" fill="#292929"/>
        <g id="Grupo_55649" data-name="Grupo 55649" transform="translate(13.283 17.635)">
          <path id="Trazado_105682" data-name="Trazado 105682" d="M274.71,204.68a7.669,7.669,0,0,1-6.026-2.906,6.587,6.587,0,0,1-9.69-5.813,1.7,1.7,0,0,1,3.4,0,3.2,3.2,0,0,0,3.192,3.192,3.16,3.16,0,0,0,2.342-1.025,1.7,1.7,0,0,1,2.816.5,4.3,4.3,0,0,0,7.937,0,1.7,1.7,0,0,1,2.816-.5,3.16,3.16,0,0,0,2.342,1.025,3.2,3.2,0,0,0,3.192-3.192,1.7,1.7,0,0,1,3.4,0,6.587,6.587,0,0,1-9.69,5.813,7.671,7.671,0,0,1-6.027,2.906Z" transform="translate(-258.994 -194.262)" fill="#d3d3d8"/>
        </g>
        <g id="Grupo_55650" data-name="Grupo 55650" transform="translate(28.999 17.635)">
          <path id="Trazado_105683" data-name="Trazado 105683" d="M288.728,194.262a1.7,1.7,0,0,0-1.7,1.7,3.2,3.2,0,0,1-3.192,3.192,3.16,3.16,0,0,1-2.342-1.025,1.7,1.7,0,0,0-2.816.5,4.284,4.284,0,0,1-3.969,2.651v3.4a7.671,7.671,0,0,0,6.027-2.906,6.587,6.587,0,0,0,9.69-5.813,1.7,1.7,0,0,0-1.7-1.7Z" transform="translate(-274.71 -194.262)" fill="#bfbfbf"/>
        </g>
      </g>
    </g>
  </g>
</svg>
