<svg xmlns="http://www.w3.org/2000/svg" xmlns:xlink="http://www.w3.org/1999/xlink" width="85" height="85" viewBox="0 0 85 85">
  <defs>
    <clipPath id="clip-path">
      <rect id="Rectángulo_6446" data-name="Rectángulo 6446" width="85" height="85" transform="translate(180 397)" fill="#ff8a5b"/>
    </clipPath>
  </defs>
  <g id="Enmascarar_grupo_61" data-name="Enmascarar grupo 61" transform="translate(-180 -397)" clip-path="url(#clip-path)">
    <g id="producto" transform="translate(179.833 396.833)">
      <g id="Grupo_57450" data-name="Grupo 57450">
        <g id="Grupo_57447" data-name="Grupo 57447">
          <path id="Trazado_109337" data-name="Trazado 109337" d="M61.969,8.848a3.4,3.4,0,0,1,3.4,3.4V80.437a3.4,3.4,0,0,1-3.4,3.4H4.9a3.4,3.4,0,0,1-3.4-3.4V12.245a3.4,3.4,0,0,1,3.4-3.4Z" fill="#b4d2d7" fill-rule="evenodd"/>
          <path id="Trazado_109338" data-name="Trazado 109338" d="M61.969,8.848a3.4,3.4,0,0,1,3.4,3.4V80.437a3.4,3.4,0,0,1-3.4,3.4H58.636a3.4,3.4,0,0,0,3.4-3.4V12.245a3.4,3.4,0,0,0-3.4-3.4Z" fill="#9bb9c3" fill-rule="evenodd"/>
          <path id="Trazado_109339" data-name="Trazado 109339" d="M7.035,15.049V77.632A.668.668,0,0,0,7.7,78.3h44l8.129-8.129V15.049a.668.668,0,0,0-.667-.667H7.7a.668.668,0,0,0-.667.667Z" fill="#eff4f7" fill-rule="evenodd"/>
          <path id="Trazado_109340" data-name="Trazado 109340" d="M7.035,15.049V77.632A.668.668,0,0,0,7.7,78.3h2.892a.668.668,0,0,1-.667-.667V15.049a.668.668,0,0,1,.667-.667H7.7A.668.668,0,0,0,7.035,15.049Z" fill="#e2e3e3" fill-rule="evenodd"/>
          <path id="Trazado_109341" data-name="Trazado 109341" d="M51.7,70.17V78.3l8.129-8.129Z" fill="#e2e3e3" fill-rule="evenodd"/>
          <path id="Trazado_109342" data-name="Trazado 109342" d="M45.188,8.848H36.673l3.388-4.79A1.62,1.62,0,0,0,38.737,1.5H28.129A1.62,1.62,0,0,0,26.8,4.058l3.388,4.79H21.678a.664.664,0,0,0-.652.807l1.151,5.328a1.983,1.983,0,0,0,1.955,1.577h18.6a1.983,1.983,0,0,0,1.955-1.577L45.84,9.656A.664.664,0,0,0,45.188,8.848Z" fill="#da8c36" fill-rule="evenodd"/>
          <path id="Trazado_109343" data-name="Trazado 109343" d="M30.37,1.5H28.129A1.62,1.62,0,0,0,26.8,4.058l3.388,4.79h2.241l-3.388-4.79A1.62,1.62,0,0,1,30.37,1.5ZM23.919,8.848a.664.664,0,0,0-.652.807l1.151,5.328a1.983,1.983,0,0,0,1.955,1.577H24.132a1.983,1.983,0,0,1-1.955-1.577L21.026,9.656a.664.664,0,0,1,.652-.807Z" fill="#c97629" fill-rule="evenodd"/>
        </g>
        <g id="Grupo_57448" data-name="Grupo 57448">
          <path id="Trazado_109344" data-name="Trazado 109344" d="M15.811,62.976h8.2a.737.737,0,0,1,.735.735v8.2a.737.737,0,0,1-.735.735h-8.2a.737.737,0,0,1-.735-.735v-8.2A.737.737,0,0,1,15.811,62.976Zm0-41.572h8.2a.737.737,0,0,1,.735.735v8.2a.737.737,0,0,1-.735.735h-8.2a.737.737,0,0,1-.735-.735v-8.2A.737.737,0,0,1,15.811,21.4Zm0,13.858h8.2a.737.737,0,0,1,.735.735v8.2a.737.737,0,0,1-.735.735h-8.2a.737.737,0,0,1-.735-.735V36a.737.737,0,0,1,.735-.735Zm0,13.857h8.2a.737.737,0,0,1,.735.735v8.2a.737.737,0,0,1-.735.735h-8.2a.737.737,0,0,1-.735-.735v-8.2A.737.737,0,0,1,15.811,49.118Z" fill="#64b5f6" fill-rule="evenodd"/>
          <path id="Trazado_109345" data-name="Trazado 109345" d="M15.811,62.976h8.2a.737.737,0,0,1,.735.735v1.337h-6.86a.737.737,0,0,0-.735.735v6.86H15.811a.737.737,0,0,1-.735-.735v-8.2A.737.737,0,0,1,15.811,62.976Zm0-41.572h8.2a.737.737,0,0,1,.735.735v1.337h-6.86a.737.737,0,0,0-.735.735v6.86H15.811a.737.737,0,0,1-.735-.735v-8.2A.737.737,0,0,1,15.811,21.4Zm0,13.858h8.2a.737.737,0,0,1,.735.735v1.337h-6.86a.737.737,0,0,0-.735.735v6.86H15.811a.737.737,0,0,1-.735-.735V36a.737.737,0,0,1,.735-.735Zm0,13.857h8.2a.737.737,0,0,1,.735.735V51.19h-6.86a.737.737,0,0,0-.735.735v6.86H15.811a.737.737,0,0,1-.735-.735v-8.2A.737.737,0,0,1,15.811,49.118Z" fill="#42a5f5" fill-rule="evenodd"/>
        </g>
        <g id="Grupo_57449" data-name="Grupo 57449">
          <path id="Trazado_109346" data-name="Trazado 109346" d="M51.236,34.369H81.951a1.887,1.887,0,0,1,1.882,1.882V62.3a1.887,1.887,0,0,1-1.882,1.882H51.236A1.887,1.887,0,0,1,49.355,62.3V36.25A1.887,1.887,0,0,1,51.236,34.369Z" fill="#da8c36" fill-rule="evenodd"/>
          <path id="Trazado_109347" data-name="Trazado 109347" d="M81.528,34.369h.424a1.887,1.887,0,0,1,1.882,1.882V62.3a1.887,1.887,0,0,1-1.882,1.882H51.236A1.887,1.887,0,0,1,49.354,62.3v-.6H79.646a1.887,1.887,0,0,0,1.882-1.882Z" fill="#c97629" fill-rule="evenodd"/>
          <path id="Trazado_109348" data-name="Trazado 109348" d="M62.535,58.538H55.743A.746.746,0,0,1,55,57.793V54.6a.746.746,0,0,1,.744-.744h6.791a.746.746,0,0,1,.744.744v3.2a.746.746,0,0,1-.744.744Z" fill="#eff4f7" fill-rule="evenodd"/>
          <path id="Trazado_109349" data-name="Trazado 109349" d="M62.535,58.538H55.743A.746.746,0,0,1,55,57.793v-.41h6.382a.746.746,0,0,0,.744-.744V53.853h.41a.746.746,0,0,1,.744.744v3.2a.746.746,0,0,1-.744.744Z" fill="#e2e3e3" fill-rule="evenodd"/>
          <path id="Trazado_109350" data-name="Trazado 109350" d="M61.019,34.369H72.168v7.383a.831.831,0,0,1-1.359.643l-3.689-3.024a.825.825,0,0,0-1.054,0L62.378,42.4a.831.831,0,0,1-1.359-.643Z" fill="#ffda2d" fill-rule="evenodd"/>
          <path id="Trazado_109351" data-name="Trazado 109351" d="M70.973,34.369h1.2v7.383a.831.831,0,0,1-1.359.643l-1.194-.979a.831.831,0,0,0,1.357-.644Zm-3.854,5a.825.825,0,0,0-1.052,0L62.378,42.4a.831.831,0,0,1-1.359-.643v-.231a.858.858,0,0,0,.163-.106l3.689-3.024a.825.825,0,0,1,1.054,0Z" fill="#ffc700" fill-rule="evenodd"/>
        </g>
      </g>
      <path id="Trazado_109352" data-name="Trazado 109352" d="M61.946,55.185H56.332V57.2h5.613Zm2.667-1.333v4.685a1.333,1.333,0,0,1-1.333,1.333H55a1.333,1.333,0,0,1-1.333-1.333V53.852A1.335,1.335,0,0,1,55,52.518h8.28A1.335,1.335,0,0,1,64.612,53.852ZM82.5,36.249V62.3a.555.555,0,0,1-.548.549H51.236a.555.555,0,0,1-.548-.549V36.249a.555.555,0,0,1,.548-.547h8.45v6.05a2.165,2.165,0,0,0,3.538,1.673l3.371-2.763,3.37,2.763A2.164,2.164,0,0,0,73.5,41.752V35.7h8.45a.554.554,0,0,1,.548.547ZM64.033,65.515V80.437A2.066,2.066,0,0,1,61.97,82.5H4.9a2.066,2.066,0,0,1-2.063-2.063V12.243A2.065,2.065,0,0,1,4.9,10.182H19.776l.62,2.867H7.034A1.333,1.333,0,0,0,5.7,14.382V78.3a1.334,1.334,0,0,0,1.333,1.334H51.7a1.335,1.335,0,0,0,.943-.392l8.129-8.128a1.331,1.331,0,0,0,.39-.943V65.515h2.868ZM22.5,10.182l.977,4.52a.646.646,0,0,0,.651.527h18.6a.646.646,0,0,0,.652-.527l.977-4.52H36.674a1.333,1.333,0,0,1-1.089-2.1l3.388-4.79a.274.274,0,0,0,.023-.3.271.271,0,0,0-.258-.153H28.129a.27.27,0,0,0-.258.153.274.274,0,0,0,.022.3l3.388,4.79a1.334,1.334,0,0,1-1.089,2.1Zm39.465,0H47.09l-.62,2.867H59.832a1.333,1.333,0,0,1,1.333,1.333V33.035h2.868V12.243A2.065,2.065,0,0,0,61.97,10.182Zm.383,30.51,2.869-2.353a2.171,2.171,0,0,1,2.745,0l2.869,2.353V35.7H62.353v4.99ZM53.036,71.5v3.577L56.613,71.5Zm-1.8-38.466a3.218,3.218,0,0,0-3.215,3.214V41.67H31.088a1.333,1.333,0,0,0,0,2.667H48.021V55.528H31.088a1.333,1.333,0,0,0,0,2.667H48.021v4.1a3.218,3.218,0,0,0,3.215,3.214H58.5v3.321H51.7a1.334,1.334,0,0,0-1.333,1.333v6.8h-42V15.715h12.64a3.3,3.3,0,0,0,3.125,2.18h18.6a3.3,3.3,0,0,0,3.125-2.18H58.5v17.32Zm33.931,3.214V62.3a3.218,3.218,0,0,1-3.215,3.215H66.7V80.437a4.736,4.736,0,0,1-4.73,4.73H4.9a4.736,4.736,0,0,1-4.73-4.73V12.243A4.735,4.735,0,0,1,4.9,7.515h22.72l-1.9-2.686A2.953,2.953,0,0,1,28.129.167H38.737a2.952,2.952,0,0,1,2.413,4.66l-1.9,2.688H61.97a4.735,4.735,0,0,1,4.73,4.728V33.035H81.952A3.217,3.217,0,0,1,85.167,36.249ZM31.088,24.658H44.865a1.333,1.333,0,1,0,0-2.667H31.088a1.333,1.333,0,0,0,0,2.667Zm22.036,4.489a1.333,1.333,0,0,0-1.333-1.333h-20.7a1.333,1.333,0,1,0,0,2.666h20.7A1.333,1.333,0,0,0,53.123,29.147Zm-8.258,6.7H31.088a1.333,1.333,0,0,0,0,2.667H44.865a1.333,1.333,0,1,0,0-2.667ZM31.088,52.373H44.865a1.333,1.333,0,1,0,0-2.667H31.088a1.333,1.333,0,0,0,0,2.667ZM23.41,22.736h-7v7h7v-7Zm2.667-.6a2.069,2.069,0,0,0-2.068-2.067h-8.2a2.069,2.069,0,0,0-2.068,2.067v8.2A2.07,2.07,0,0,0,15.811,32.4h8.2a2.071,2.071,0,0,0,2.068-2.068ZM23.41,36.594h-7v7h7v-7Zm2.667-.6a2.071,2.071,0,0,0-2.068-2.068h-8.2a2.071,2.071,0,0,0-2.068,2.068v8.2a2.071,2.071,0,0,0,2.068,2.069h8.2a2.071,2.071,0,0,0,2.068-2.069ZM23.41,50.45h-7v7h7v-7Zm2.667-.6a2.071,2.071,0,0,0-2.068-2.068h-8.2a2.07,2.07,0,0,0-2.068,2.068v8.2a2.069,2.069,0,0,0,2.068,2.066h8.2a2.069,2.069,0,0,0,2.068-2.066ZM23.41,64.308h-7v7h7v-7Zm2.667-.6a2.071,2.071,0,0,0-2.068-2.069h-8.2a2.071,2.071,0,0,0-2.068,2.069v8.2a2.07,2.07,0,0,0,2.068,2.068h8.2a2.071,2.071,0,0,0,2.068-2.068Zm3.678,7.008a1.333,1.333,0,0,0,1.333,1.333h15.7a1.333,1.333,0,1,0,0-2.666h-15.7A1.333,1.333,0,0,0,29.754,70.718Zm0-5.82a1.334,1.334,0,0,0,1.333,1.333H44.865a1.333,1.333,0,1,0,0-2.667H31.088A1.333,1.333,0,0,0,29.754,64.9Z" fill-rule="evenodd"/>
    </g>
  </g>
</svg>
