<svg xmlns="http://www.w3.org/2000/svg" width="295" height="208" viewBox="0 0 295 208">
  <g id="Grupo_57515" data-name="Grupo 57515" transform="translate(2241 8137)">
    <g id="Grupo_57401" data-name="Grupo 57401" transform="translate(-2203 116)">
      <circle id="Elipse_4536" data-name="Elipse 4536" cx="95" cy="95" r="95" transform="translate(-38 -8253)" fill="#ff8a5b"/>
      <g id="Grupo_56436" data-name="Grupo 56436" transform="translate(853.394 -7617.223)">
        <rect id="Rectángulo_5574" data-name="Rectángulo 5574" width="295" height="200" transform="translate(-891.394 -627.777)" fill="none"/>
        <g id="Grupo_56494" data-name="Grupo 56494">
          <g id="Grupo_56467" data-name="Grupo 56467">
            <g id="Grupo_56466" data-name="Grupo 56466">
              <path id="Trazado_107334" data-name="Trazado 107334" d="M-825.707-578.284s-2.3,14.366-1.937,18.822,2.915,24.1,3.764,24.64,10.757-10.316,10.757-10.316l-2.956-31.44Z" fill="#ffc5b3"/>
              <path id="Trazado_107335" data-name="Trazado 107335" d="M-813.489-589.184s-5.976-3.689-9.147,2.242a69.688,69.688,0,0,0-5.008,12.687s1.775,4.268,7.2,2.788S-813.489-589.184-813.489-589.184Z" fill="#389ec6"/>
              <path id="Trazado_107336" data-name="Trazado 107336" d="M-797.064-453.49s7.872-3.509,11.767-3.677,4.271,4.406,0,7.953-7.542,4.02-11.037,5.457c-3.15,1.295-4.281,1.4-6.8-.234-3.353-2.174-.666-7.925-.666-7.925Z" fill="#33211f"/>
              <path id="Trazado_107337" data-name="Trazado 107337" d="M-819.829-466.978s6.253-2.613,10.148-2.781,5.292,3.2,1.021,6.744-6.944,4.332-10.439,5.769c-3.151,1.3-4.265,1.371-6.8-.234-3.447-2.185-.752-7.935-.667-7.925Z" fill="#33211f"/>
              <path id="Trazado_107338" data-name="Trazado 107338" d="M-796.567-544.537s6.871,37.12,6.871,48.778c0,20.554-.181,42.2-.181,42.2s-3.407,3.576-6.722,3.585c-7.463.02-8.216-3.734-8.216-3.734s-.1-24.5-.755-35.625c-.452-7.742-.9-18.648-4.015-27.644-.089,9.24-.066,12.2-.823,22.263-.559,7.422-3.652,27.345-3.821,28.643-2.364,2.857-9.7,4.83-13.415.647.29-3.279,2.354-26.293,2.084-38.225-.247-10.962-3.043-36.924,3.225-41.981C-816.916-550-796.567-544.537-796.567-544.537Z" fill="#3f2a29"/>
              <path id="Trazado_107339" data-name="Trazado 107339" d="M-805.345-611.253c-2.737-1.9-8-1.307-10.287,3.519-1.264,2.671.523,9.856.8,14.9a12.282,12.282,0,0,1-1.135,6.418l3.49,1.438a10.532,10.532,0,0,0,7.127,0l-.113-6.205s3.757-.558,4.415-1.161c1.583-1.451,2.421-5.767,1.687-11.334C-800.448-611.964-804.336-610.552-805.345-611.253Z" fill="#ffc5b3"/>
              <path id="Trazado_107340" data-name="Trazado 107340" d="M-795.928-566.723c2.059-4.4-2.609-12.375-3.92-15.244s-5.5-4.613-5.5-4.613l-12.72-1.892s-5.564,9.681-6.3,15.457c-.518,4.045-.108,11.521.114,21.794a40.761,40.761,0,0,1-2.016,14.479c4.466,4.6,15.753,7.589,21.461,6.059,3.413-.915,8.495-3.863,10.787-6.672C-795.078-542.4-800.136-557.738-795.928-566.723Z" fill="#4ab6d8"/>
              <path id="Trazado_107341" data-name="Trazado 107341" d="M-805.406-588.343s-5.084,1.5-8.083-.841c-4.244-3.309-4.71,1.346-4.71,1.346a11.147,11.147,0,0,0,5.34,3.627,12.89,12.89,0,0,0,10.241-.808C-802.595-587.315-805.406-588.343-805.406-588.343Z" fill="#389ec6"/>
              <path id="Trazado_107342" data-name="Trazado 107342" d="M-801.963-601.486c.415-1.39,1.365-4.619,1.6-5.92a6.33,6.33,0,0,0-1.706-5.9c-2.064-2.147-9.22-2.838-11.809-1.34s-8.095,4.234-6.173,13.159c1.553,7.215,3.063,8.023,5.242,9.718a12.433,12.433,0,0,0,5.259,1.848,6.2,6.2,0,0,0,2.205-4.084c.106-.861,0-3.47,0-3.47s-1.908-3.774-.43-5.118c1.573-1.433,3.183.844,3.551,1.765C-802.931-597.6-801.651-596.087-801.963-601.486Z" fill="#33211f"/>
              <path id="Trazado_107343" data-name="Trazado 107343" d="M-805.371-603.421s1.551,4.37,2.114,6.766-.986,4.11,1.41,6.283,2.56-1.914,2.76-3.042a3.66,3.66,0,0,0-.412-2.191,49.138,49.138,0,0,1-2.464-5.881C-802.552-603.561-805.371-603.421-805.371-603.421Z" fill="#33211f"/>
              <path id="Trazado_107344" data-name="Trazado 107344" d="M-802.962-570.857s-.033,14.739,1.961,26.187c1.138,6.54,2.476,10.2,1.914,15.495s.218,18.75,5.059,13.924,1.538-6.969.744-12.254c-.513-3.407.232-21.753-.308-29.051a117.175,117.175,0,0,1,.287-16.274Z" fill="#ffc5b3"/>
              <path id="Trazado_107345" data-name="Trazado 107345" d="M-804.778-562.516c3.279,2.411,9.485,3.157,13.22-.71-.27-6.67-1.3-19.408-8.658-19.924-5.155-.362-5.279,9.455-4.924,16.289C-805.046-565.059-804.918-563.644-804.778-562.516Z" fill="#389ec6"/>
            </g>
          </g>
          <g id="Grupo_56493" data-name="Grupo 56493">
            <g id="Grupo_56471" data-name="Grupo 56471">
              <g id="Grupo_56468" data-name="Grupo 56468">
                <path id="Trazado_107346" data-name="Trazado 107346" d="M-752.983-496.9c0,4.185-6.027,7.578-13.463,7.578s-13.463-3.393-13.463-7.578,6.028-7.577,13.463-7.577S-752.983-501.086-752.983-496.9Z" fill="#eab306"/>
                <rect id="Rectángulo_5656" data-name="Rectángulo 5656" width="26.926" height="2.157" transform="translate(-779.909 -498.8)" fill="#eab306"/>
                <path id="Trazado_107347" data-name="Trazado 107347" d="M-752.983-498.4c0,4.185-6.027,7.577-13.463,7.577s-13.463-3.392-13.463-7.577,6.028-7.578,13.463-7.578S-752.983-502.584-752.983-498.4Z" fill="#ffe576"/>
                <path id="Trazado_107348" data-name="Trazado 107348" d="M-764.456-498.25c0,.619-.891,1.121-1.99,1.121s-1.991-.5-1.991-1.121.892-1.12,1.991-1.12S-764.456-498.868-764.456-498.25Z" fill="#eab306"/>
                <rect id="Rectángulo_5657" data-name="Rectángulo 5657" width="3.981" height="99.96" transform="translate(-768.437 -598.21)" fill="#eab306"/>
              </g>
              <g id="Grupo_56469" data-name="Grupo 56469">
                <path id="Trazado_107349" data-name="Trazado 107349" d="M-662.54-534.634l-117.547-68,2.07-3.974,117.411,67.845Z" fill="#aa643d"/>
                <path id="Trazado_107350" data-name="Trazado 107350" d="M-660.1-537.547a3.516,3.516,0,0,1-1.469,2.8c-.81.468-1.468-.029-1.468-1.11a3.518,3.518,0,0,1,1.468-2.8C-660.763-539.125-660.1-538.628-660.1-537.547Z" fill="#7b4121"/>
                <path id="Trazado_107351" data-name="Trazado 107351" d="M-777.545-605.438a3.515,3.515,0,0,1-1.468,2.8c-.811.468-1.468-.028-1.468-1.11a3.517,3.517,0,0,1,1.468-2.8C-778.2-607.016-777.545-606.519-777.545-605.438Z" fill="#aa643d"/>
              </g>
              <path id="Trazado_107352" data-name="Trazado 107352" d="M-761.252-598.755l-6.057-3.43-3.318,7.24,6.171,3.5Z" fill="#ffe576"/>
              <path id="Trazado_107353" data-name="Trazado 107353" d="M-760.276-596.616a6.243,6.243,0,0,1-2.6,4.978c-1.439.83-2.606-.052-2.606-1.97a6.238,6.238,0,0,1,2.606-4.977C-761.443-599.416-760.276-598.534-760.276-596.616Z" fill="#eab306"/>
              <path id="Trazado_107354" data-name="Trazado 107354" d="M-766.446-600.112a6.24,6.24,0,0,1-2.605,4.978c-1.439.83-2.6-.052-2.6-1.97a6.237,6.237,0,0,1,2.6-4.977C-767.612-602.912-766.446-602.03-766.446-600.112Z" fill="#ffe576"/>
              <path id="Trazado_107355" data-name="Trazado 107355" d="M-761.151-595.96a3.517,3.517,0,0,1-1.468,2.806c-.811.468-1.468-.029-1.468-1.11a3.515,3.515,0,0,1,1.468-2.8C-761.808-597.537-761.151-597.041-761.151-595.96Z" fill="#aa643d"/>
              <path id="Trazado_107356" data-name="Trazado 107356" d="M-759.061-595.652l-2.6-1.485-1.781,4.159,2.529,1.463Z" fill="#aa643d"/>
              <g id="Grupo_56470" data-name="Grupo 56470">
                <path id="Trazado_107357" data-name="Trazado 107357" d="M-667.9-447.684c0,4.185-6.027,7.577-13.463,7.577s-13.463-3.392-13.463-7.577,6.028-7.577,13.463-7.577S-667.9-451.869-667.9-447.684Z" fill="#eab306"/>
                <rect id="Rectángulo_5658" data-name="Rectángulo 5658" width="26.926" height="2.158" transform="translate(-694.825 -449.583)" fill="#eab306"/>
                <path id="Trazado_107358" data-name="Trazado 107358" d="M-667.9-449.182c0,4.185-6.027,7.577-13.463,7.577s-13.463-3.392-13.463-7.577,6.028-7.577,13.463-7.577S-667.9-453.367-667.9-449.182Z" fill="#ffe576"/>
                <path id="Trazado_107359" data-name="Trazado 107359" d="M-679.372-449.032c0,.618-.891,1.12-1.99,1.12s-1.991-.5-1.991-1.12.892-1.121,1.991-1.121S-679.372-449.651-679.372-449.032Z" fill="#eab306"/>
                <rect id="Rectángulo_5659" data-name="Rectángulo 5659" width="3.981" height="99.961" transform="translate(-683.353 -548.993)" fill="#eab306"/>
              </g>
              <path id="Trazado_107360" data-name="Trazado 107360" d="M-676.168-549.537l-6.057-3.429-3.318,7.24,6.171,3.5Z" fill="#ffe576"/>
              <path id="Trazado_107361" data-name="Trazado 107361" d="M-675.192-547.4a6.239,6.239,0,0,1-2.606,4.978c-1.438.831-2.605-.051-2.605-1.97a6.241,6.241,0,0,1,2.605-4.977C-676.359-550.2-675.192-549.317-675.192-547.4Z" fill="#eab306"/>
              <path id="Trazado_107362" data-name="Trazado 107362" d="M-681.362-550.9a6.239,6.239,0,0,1-2.6,4.978c-1.439.831-2.605-.051-2.605-1.969a6.239,6.239,0,0,1,2.605-4.978C-682.528-553.7-681.362-552.813-681.362-550.9Z" fill="#ffe576"/>
              <path id="Trazado_107363" data-name="Trazado 107363" d="M-676.067-546.742a3.518,3.518,0,0,1-1.468,2.8c-.811.468-1.468-.029-1.468-1.11a3.515,3.515,0,0,1,1.468-2.8C-676.725-548.32-676.067-547.823-676.067-546.742Z" fill="#aa643d"/>
              <path id="Trazado_107364" data-name="Trazado 107364" d="M-673.977-546.435l-2.6-1.485-1.781,4.159,2.529,1.463Z" fill="#aa643d"/>
            </g>
            <g id="Grupo_56477" data-name="Grupo 56477">
              <path id="Trazado_107365" data-name="Trazado 107365" d="M-754.183-576.3s2.86,2.65,5.95,1.49,4.9-6,5.247-6.363c1.4.775,4.056,2.318,5.065,2.9s7.461,9.885-4.542,10.346-13.051-6.886-13.051-6.886Z" fill="#389ec6"/>
              <g id="Grupo_56475" data-name="Grupo 56475">
                <g id="Grupo_56472" data-name="Grupo 56472">
                  <path id="Trazado_107366" data-name="Trazado 107366" d="M-749.417-574.862a.314.314,0,0,1-.486-.286V-582.3c0-.322-.118-.351-.582-.328-.678.033-2.046-.073-2.046-2.71a5.7,5.7,0,0,1,2.731-4.793,2.686,2.686,0,0,1,2.454-.325,2.374,2.374,0,0,1,1.157,2.209c-.3-.121-.666-.407-1.038-.6a.952.952,0,0,0-.539-.7,1.608,1.608,0,0,0-1.563.2,4.653,4.653,0,0,0-2.206,3.792c0,2.047.656,2.016,1.291,1.984.442-.021,1.211-.114,1.211.834v7.156A.867.867,0,0,1-749.417-574.862Z" fill="#eab306"/>
                </g>
                <g id="Grupo_56473" data-name="Grupo 56473">
                  <path id="Trazado_107367" data-name="Trazado 107367" d="M-725.749-582.333c-.246-.164-4.481-2.867-12.433-1.291.725.419,2.24,1.351,3.176,1.836,5.325-.238,8.152,1.548,8.2,1.579.313.208.8-.1,1.1-.686S-725.436-582.126-725.749-582.333Z" fill="#7b4121"/>
                  <path id="Trazado_107368" data-name="Trazado 107368" d="M-744.093-581.84a46.823,46.823,0,0,0-6.027,2.954,59.912,59.912,0,0,0-22.8,23.867c-.28.594-.244,1.226.081,1.412a.5.5,0,0,0,.507-.041,1.581,1.581,0,0,0,.587-.7,57.611,57.611,0,0,1,21.624-22.471,41.052,41.052,0,0,1,8.29-3.714C-742.5-580.9-743.648-581.583-744.093-581.84Z" fill="#7b4121"/>
                </g>
                <g id="Grupo_56474" data-name="Grupo 56474">
                  <path id="Trazado_107369" data-name="Trazado 107369" d="M-729.317-583.238l-4.1,2.368,1.791,1.035,2.31-1.334a1.857,1.857,0,0,0,.776-1.482C-728.541-583.223-728.888-583.486-729.317-583.238Z" fill="#7b4121"/>
                  <path id="Trazado_107370" data-name="Trazado 107370" d="M-737.921-578.27l-32.095,18.53a1.854,1.854,0,0,0-.776,1.482c0,.572.347.834.776.587l33.884-19.563Z" fill="#7b4121"/>
                </g>
              </g>
              <path id="Trazado_107371" data-name="Trazado 107371" d="M-722.453-574.5c0-1.073-.005-1.242-.008-1.479-.032-2.152-1.109-5.418-3.995-6.739a20.326,20.326,0,0,0-5.387-1.7c-2.227-.34-5.932-.855-7.747.014C-735.006-581.788-728.188-577.66-722.453-574.5Z" fill="#59c2e2"/>
              <g id="Grupo_56476" data-name="Grupo 56476">
                <path id="Trazado_107372" data-name="Trazado 107372" d="M-722.449-569.294c-2.532-1.651-12.964-7.375-18.425-10.656-.623,3.157-2.306,6.566-5.334,7.465-2.225.661-5.162,1.446-8.966-3.107a60.7,60.7,0,0,0-10.505,8.4c-4.65,4.768-8.339,11.554-8.339,17.441,0,4.784.116,51.147.116,51.147s4.084.967,5.71,0a10.136,10.136,0,0,0,1.772-1.341c.081-8.6.332-34.359.481-39.733.18-6.473,1.483-15.28,1.483-15.28s1.367,8,1.974,14.4c2.881,12.644,2.144,37.329,2.144,37.329s2.165,2.621,7.55.864a24.4,24.4,0,0,0,6.364-3.39c.081-.057.153-.1.235-.158,2.1-1.505,4.485-1.867,6.6-2.408a8.739,8.739,0,0,0,3.459-1.515c.33-.269.639-.554.939-.843a20.909,20.909,0,0,0,4.623-7.1v-8.913h2.029c1.254,0,6.08-2.272,6.08-4.235C-722.461-532.435-722.443-557.074-722.449-569.294Z" fill="#59c2e2"/>
                <path id="Trazado_107373" data-name="Trazado 107373" d="M-765.939-539.676c-.149,5.374-.4,31.137-.481,39.733a9.158,9.158,0,0,0,2.307-3.283s.408-16.82,1.631-37.329c-.607-6.4-1.974-14.4-1.974-14.4S-765.759-546.149-765.939-539.676Z" fill="#389ec6"/>
              </g>
              <path id="Trazado_107374" data-name="Trazado 107374" d="M-730.57-526.688s-1.024-23.207-1.273-29.544a97.12,97.12,0,0,0-1.575-13.02s5.071,5.691,4.877,12.409,1.245,20.9,1.514,29.724A15.536,15.536,0,0,1-730.57-526.688Z" fill="#389ec6"/>
              <path id="Trazado_107375" data-name="Trazado 107375" d="M-753.212-539.422c.4.7-.25,9.249,3.852,16.94,3.211,6.022,5.634,9.97,5.634,9.97s1.631-3.968-1.166-9.5S-753.212-539.422-753.212-539.422Z" fill="#389ec6" opacity="0.5"/>
              <path id="Trazado_107376" data-name="Trazado 107376" d="M-744.789-532.763s3.824,7.9,5.978,11.457a24.549,24.549,0,0,1,2.853,7.238s2.707-4.144,1-8.339S-744.789-532.763-744.789-532.763Z" fill="#389ec6" opacity="0.5"/>
            </g>
            <g id="Grupo_56482" data-name="Grupo 56482">
              <g id="Grupo_56481" data-name="Grupo 56481">
                <g id="Grupo_56478" data-name="Grupo 56478">
                  <path id="Trazado_107377" data-name="Trazado 107377" d="M-725.876-561.218a.314.314,0,0,1-.487-.286v-7.155c0-.322-.117-.351-.582-.328-.678.033-2.046-.073-2.046-2.71a5.7,5.7,0,0,1,2.731-4.793,2.686,2.686,0,0,1,2.454-.325,2.374,2.374,0,0,1,1.157,2.209c-.3-.121-.666-.407-1.038-.6a.954.954,0,0,0-.539-.7,1.608,1.608,0,0,0-1.563.2,4.653,4.653,0,0,0-2.206,3.792c0,2.047.656,2.016,1.291,1.985.443-.022,1.211-.114,1.211.833v7.156A.868.868,0,0,1-725.876-561.218Z" fill="#eab306"/>
                </g>
                <g id="Grupo_56479" data-name="Grupo 56479">
                  <path id="Trazado_107378" data-name="Trazado 107378" d="M-702.209-568.689c-.246-.164-4.481-2.867-12.433-1.29.725.418,2.24,1.35,3.176,1.835,5.325-.238,8.152,1.548,8.2,1.579.313.208.8-.1,1.095-.686S-701.9-568.481-702.209-568.689Z" fill="#7b4121"/>
                  <path id="Trazado_107379" data-name="Trazado 107379" d="M-720.552-568.2a46.761,46.761,0,0,0-6.028,2.954,59.913,59.913,0,0,0-22.8,23.867c-.28.594-.244,1.226.081,1.412a.5.5,0,0,0,.507-.041,1.575,1.575,0,0,0,.587-.7,57.61,57.61,0,0,1,21.624-22.471,41.077,41.077,0,0,1,8.29-3.714C-718.957-567.26-720.108-567.939-720.552-568.2Z" fill="#7b4121"/>
                </g>
                <g id="Grupo_56480" data-name="Grupo 56480">
                  <path id="Trazado_107380" data-name="Trazado 107380" d="M-705.776-569.594l-4.1,2.368,1.791,1.035,2.311-1.334a1.858,1.858,0,0,0,.775-1.482C-705-569.579-705.348-569.842-705.776-569.594Z" fill="#7b4121"/>
                  <path id="Trazado_107381" data-name="Trazado 107381" d="M-714.381-564.626l-32.1,18.53a1.854,1.854,0,0,0-.776,1.482c0,.572.347.834.776.587l33.884-19.563Z" fill="#7b4121"/>
                </g>
              </g>
              <path id="Trazado_107382" data-name="Trazado 107382" d="M-711.247-557.487c-.39-2.1-1.113-4.08-1.345-6.1-2.763-1.8-6.3-3.662-7.96-4.606l-1.482.6s5.979,10.274,1.282,17.181c-6.156-3.557-11.753-10.883-11.753-10.883s-1.828,1.433-2.418,1.934c-.823.7-3.209,2.9-3.209,2.9s.715,9.219-.033,13.62a19.2,19.2,0,0,1-2.493,6.983s2.026,7.2,3.1,12.371c5.286.58,11.558-1.03,16.205-3,3.619-1.534,7.281-3.3,10.134-6.539a65.191,65.191,0,0,0,1.46-9.244c.458-4.352.337-5.921,0-7.856C-710.086-551.979-710.534-553.656-711.247-557.487Z" fill="#fe733e"/>
              <path id="Trazado_107383" data-name="Trazado 107383" d="M-737.562-523.491s1.887,1.665,5.9,1.545c4.9-.146,12.388-2.267,16.021-5.075a12.111,12.111,0,0,0,4.416-6.01l.594-2.831s-1.4,3.941-7.96,7.568c-6.758,3.739-11.81,3.837-14.829,3.5-3.481-.394-4.69-1.169-4.69-1.169Z" fill="#f25e30"/>
              <path id="Trazado_107384" data-name="Trazado 107384" d="M-720.552-568.2c-.523.175-1.482.6-1.482.6a38.776,38.776,0,0,1,1.85,7.945,78.858,78.858,0,0,1-.48,8.39s-7.157-6.628-8.478-8.085a15.59,15.59,0,0,0-2.783-2.392c-.351.256-1.734,1.334-1.734,1.334a46.344,46.344,0,0,0,6.751,6.432,48.161,48.161,0,0,1,7.249,7.19A50.579,50.579,0,0,0-717.43-560.5a33.639,33.639,0,0,0-.96-6.5A20.49,20.49,0,0,0-720.552-568.2Z" fill="#f25e30"/>
            </g>
            <g id="Grupo_56488" data-name="Grupo 56488">
              <path id="Trazado_107385" data-name="Trazado 107385" d="M-719.684-544.593v67.819s.851.778,3.483,0c3.25-.961,8.09-4.457,8.09-4.457s-1.38-61.109-3.547-63.382S-719.684-544.593-719.684-544.593Z" fill="#33211f"/>
              <g id="Grupo_56486" data-name="Grupo 56486">
                <g id="Grupo_56483" data-name="Grupo 56483">
                  <path id="Trazado_107386" data-name="Trazado 107386" d="M-712.155-553.308a.314.314,0,0,1-.487-.286v-7.156c0-.321-.117-.35-.582-.327-.678.033-2.046-.073-2.046-2.71a5.7,5.7,0,0,1,2.731-4.793,2.686,2.686,0,0,1,2.454-.325,2.375,2.375,0,0,1,1.157,2.209c-.3-.121-.666-.407-1.038-.6a.952.952,0,0,0-.539-.7,1.608,1.608,0,0,0-1.563.2,4.653,4.653,0,0,0-2.206,3.792c0,2.047.656,2.016,1.291,1.984.443-.021,1.212-.114,1.212.834v7.156A.869.869,0,0,1-712.155-553.308Z" fill="#eab306"/>
                </g>
                <g id="Grupo_56484" data-name="Grupo 56484">
                  <path id="Trazado_107387" data-name="Trazado 107387" d="M-688.488-560.779c-.246-.164-4.481-2.867-12.433-1.291.726.419,2.24,1.351,3.176,1.835,5.325-.237,8.152,1.549,8.2,1.58.314.208.8-.1,1.1-.686S-688.174-560.571-688.488-560.779Z" fill="#7b4121"/>
                  <path id="Trazado_107388" data-name="Trazado 107388" d="M-706.831-560.286a46.816,46.816,0,0,0-6.028,2.954,59.9,59.9,0,0,0-22.8,23.867c-.281.594-.244,1.226.08,1.412a.5.5,0,0,0,.507-.041,1.581,1.581,0,0,0,.587-.7,57.609,57.609,0,0,1,21.624-22.471,41.1,41.1,0,0,1,8.29-3.714C-705.235-559.35-706.387-560.029-706.831-560.286Z" fill="#7b4121"/>
                </g>
                <g id="Grupo_56485" data-name="Grupo 56485">
                  <path id="Trazado_107389" data-name="Trazado 107389" d="M-692.055-561.684l-4.1,2.368,1.791,1.035,2.311-1.334a1.858,1.858,0,0,0,.775-1.482C-691.28-561.669-691.627-561.932-692.055-561.684Z" fill="#7b4121"/>
                  <path id="Trazado_107390" data-name="Trazado 107390" d="M-700.66-556.716l-32.1,18.53a1.854,1.854,0,0,0-.776,1.482c0,.572.347.834.776.587l33.884-19.563Z" fill="#7b4121"/>
                </g>
              </g>
              <g id="Grupo_56487" data-name="Grupo 56487">
                <path id="Trazado_107391" data-name="Trazado 107391" d="M-701.205-556.232s4.248,1.075,4.248,7.95c0,5.493.351,58.722.42,66.184a8.753,8.753,0,0,1-4.528,5.324,45.4,45.4,0,0,1-13.94,4.894s-.431-59.9-.431-65.989c0-6.875-4.248-7.95-4.248-7.95Z" fill="#3f2a29"/>
              </g>
            </g>
            <g id="Grupo_56492" data-name="Grupo 56492">
              <g id="Grupo_56489" data-name="Grupo 56489">
                <path id="Trazado_107392" data-name="Trazado 107392" d="M-703.606-548.374a.314.314,0,0,1-.486-.286v-7.155c0-.322-.118-.351-.582-.328-.678.033-2.046-.072-2.046-2.71a5.7,5.7,0,0,1,2.73-4.793,2.691,2.691,0,0,1,2.455-.325,2.374,2.374,0,0,1,1.157,2.209c-.3-.121-.666-.407-1.038-.6a.954.954,0,0,0-.539-.7,1.608,1.608,0,0,0-1.563.2,4.655,4.655,0,0,0-2.206,3.792c0,2.047.656,2.016,1.291,1.985.442-.022,1.211-.114,1.211.833v7.156A.867.867,0,0,1-703.606-548.374Z" fill="#eab306"/>
              </g>
              <g id="Grupo_56490" data-name="Grupo 56490">
                <path id="Trazado_107393" data-name="Trazado 107393" d="M-679.938-555.845c-.246-.164-4.481-2.867-12.434-1.29.726.418,2.241,1.35,3.177,1.835,5.325-.238,8.152,1.548,8.2,1.579.313.208.8-.1,1.095-.686S-679.625-555.637-679.938-555.845Z" fill="#7b4121"/>
                <path id="Trazado_107394" data-name="Trazado 107394" d="M-698.282-555.352a46.943,46.943,0,0,0-6.027,2.954,59.912,59.912,0,0,0-22.8,23.867c-.28.594-.244,1.227.081,1.412a.5.5,0,0,0,.506-.041,1.57,1.57,0,0,0,.588-.7,57.61,57.61,0,0,1,21.624-22.471,41.054,41.054,0,0,1,8.29-3.714C-696.686-554.416-697.837-555.095-698.282-555.352Z" fill="#7b4121"/>
              </g>
              <g id="Grupo_56491" data-name="Grupo 56491">
                <path id="Trazado_107395" data-name="Trazado 107395" d="M-683.506-556.75l-4.1,2.368,1.791,1.035,2.31-1.334a1.854,1.854,0,0,0,.776-1.482C-682.73-556.735-683.077-557-683.506-556.75Z" fill="#7b4121"/>
                <path id="Trazado_107396" data-name="Trazado 107396" d="M-692.11-551.782l-32.1,18.53a1.858,1.858,0,0,0-.776,1.482c0,.572.347.835.776.587l33.884-19.563Z" fill="#7b4121"/>
              </g>
            </g>
          </g>
        </g>
      </g>
    </g>
  </g>
</svg>
