<svg xmlns="http://www.w3.org/2000/svg" xmlns:xlink="http://www.w3.org/1999/xlink" width="399.831" height="279.682" viewBox="0 0 399.831 279.682">
  <defs>
    <clipPath id="clip-path">
      <rect id="Rectángulo_6492" data-name="Rectángulo 6492" width="399.831" height="279.682" fill="none"/>
    </clipPath>
  </defs>
  <g id="Grupo_57456" data-name="Grupo 57456" transform="translate(0 -0.002)">
    <rect id="Rectángulo_6447" data-name="Rectángulo 6447" width="146.377" height="86.664" transform="translate(2.253 121.529)" fill="#f2f2f2"/>
    <rect id="Rectángulo_6448" data-name="Rectángulo 6448" width="46.399" height="86.664" transform="translate(2.253 121.531)" fill="#f9f9f9"/>
    <rect id="Rectángulo_6449" data-name="Rectángulo 6449" width="16.606" height="40.804" transform="translate(96.081 121.42)" fill="#e6e6e6"/>
    <rect id="Rectángulo_6450" data-name="Rectángulo 6450" width="16.606" height="40.804" transform="translate(17.15 121.42)" fill="#483737"/>
    <rect id="Rectángulo_6451" data-name="Rectángulo 6451" width="69.897" height="55.525" transform="translate(20.705 66.016)" fill="#6c5353"/>
    <rect id="Rectángulo_6452" data-name="Rectángulo 6452" width="75.076" height="13.067" transform="translate(15.526 66.016)" fill="#6c5353"/>
    <rect id="Rectángulo_6453" data-name="Rectángulo 6453" width="40.437" height="55.525" transform="translate(90.603 66.016)" fill="#483737"/>
    <rect id="Rectángulo_6454" data-name="Rectángulo 6454" width="44.754" height="13.067" transform="translate(90.603 66.016)" fill="#483737"/>
    <rect id="Rectángulo_6455" data-name="Rectángulo 6455" width="110.335" height="4.07" transform="translate(20.705 79.083)" fill="#241c1c"/>
    <g id="Grupo_57455" data-name="Grupo 57455" transform="translate(0 0.002)">
      <g id="Grupo_57454" data-name="Grupo 57454" transform="translate(0 0)" clip-path="url(#clip-path)">
        <path id="Trazado_109353" data-name="Trazado 109353" d="M870.362,751.372a2.179,2.179,0,0,1,2.179-2.179h12.711a2.179,2.179,0,0,1,0,4.358H872.541a2.179,2.179,0,0,1-2.179-2.179" transform="translate(-768.075 -661.146)" fill="#241c1c"/>
        <rect id="Rectángulo_6456" data-name="Rectángulo 6456" width="65.783" height="38.947" transform="translate(41.905 27.067)" fill="#f9f9f9"/>
        <rect id="Rectángulo_6457" data-name="Rectángulo 6457" width="20.852" height="38.947" transform="translate(86.836 27.068)" fill="#ececec"/>
        <rect id="Rectángulo_6458" data-name="Rectángulo 6458" width="7.463" height="18.337" transform="translate(58.058 27.018)" fill="#e6e6e6"/>
        <rect id="Rectángulo_6459" data-name="Rectángulo 6459" width="7.463" height="18.337" transform="translate(93.53 27.018)" fill="#483737"/>
        <rect id="Rectángulo_6460" data-name="Rectángulo 6460" width="46.787" height="27.701" transform="translate(340.428 139.255)" fill="#f9f9f9"/>
        <rect id="Rectángulo_6461" data-name="Rectángulo 6461" width="14.831" height="27.701" transform="translate(372.384 139.255)" fill="#ececec"/>
        <rect id="Rectángulo_6462" data-name="Rectángulo 6462" width="5.308" height="13.042" transform="translate(351.917 139.22)" fill="#e6e6e6"/>
        <rect id="Rectángulo_6463" data-name="Rectángulo 6463" width="5.308" height="13.042" transform="translate(377.146 139.22)" fill="#483737"/>
        <rect id="Rectángulo_6464" data-name="Rectángulo 6464" width="51.911" height="41.237" transform="translate(314.683 166.956)" fill="#ececec"/>
        <rect id="Rectángulo_6465" data-name="Rectángulo 6465" width="55.757" height="9.705" transform="translate(310.837 166.956)" fill="#ececec"/>
        <rect id="Rectángulo_6466" data-name="Rectángulo 6466" width="30.032" height="41.237" transform="translate(366.594 166.956)" fill="#e6e6e6"/>
        <rect id="Rectángulo_6467" data-name="Rectángulo 6467" width="33.238" height="9.705" transform="translate(366.593 166.956)" fill="#e6e6e6"/>
        <rect id="Rectángulo_6468" data-name="Rectángulo 6468" width="81.942" height="3.023" transform="translate(314.683 176.66)" fill="#ccc"/>
        <path id="Trazado_109354" data-name="Trazado 109354" d="M3193.186,1561.482a1.618,1.618,0,0,1,1.618-1.618h9.44a1.618,1.618,0,1,1,0,3.237h-9.44a1.618,1.618,0,0,1-1.618-1.618" transform="translate(-2817.915 -1376.545)" fill="#ccc"/>
        <path id="Trazado_109355" data-name="Trazado 109355" d="M.666,1765.849a.666.666,0,0,0,0,1.333H398.714a.666.666,0,1,0,0-1.333Z" transform="translate(0 -1558.322)" fill="#ccc"/>
        <path id="Trazado_109356" data-name="Trazado 109356" d="M492.218,498.832a.586.586,0,0,0-.6.515,16.1,16.1,0,0,1-1.846,7.244c-1.356,2.471-6.279,2.138-10.72,2.678a10.33,10.33,0,0,0-3.2,1.16l-2.392,5.543,17.754,22.413,25.561,6.17,8.311-20.147-6.8-9.727-5.751-1.258c-2.8-.77-6.392-.822-6.518-2.776-.245-3.787.76-6.268,1.161-9.375a.587.587,0,0,0-.511-.656l-14.389-1.781c-.02,0-.04,0-.06,0" transform="translate(-417.818 -440.208)" fill="#ffb380"/>
        <path id="Trazado_109357" data-name="Trazado 109357" d="M605.451,203.158l-3.226,26.059a14.534,14.534,0,0,0,12.666,16.245l4.087.506A14.534,14.534,0,0,0,635.222,233.3l3.226-26.059Z" transform="translate(-531.35 -179.283)" fill="#ffb380"/>
        <path id="Trazado_109358" data-name="Trazado 109358" d="M626.933,514.145c2.531,5.588,7.985,7.01,14.951,6.277-5.7-.414-11.3-1.068-14.951-6.277" transform="translate(-553.254 -453.722)" fill="#f95"/>
        <path id="Trazado_109359" data-name="Trazado 109359" d="M507.9,47.24c-4.519-1.683.586-10.426-6.226-18.9-5.742,8.57-13.128,15.153-27.375,14.265-.6,5.275-2.142,10.474.639,16.052-2.474-3.973-4.4-3.136-6.336-4.874-9-5.907-8.975-22.814-3.424-30.784-7.31.558-9.181-7.715-9.055-11.322.255-7.249,3.562-12.2,10.471-11.635,6.336.488,10.945,6.067,13.307,9.7,9.34-5.666,20.207-.134,29.328,15.4,5.006,2.93,4.035,10.562-1.33,22.1" transform="translate(-402.509 -0.002)" fill="#241c1c"/>
        <path id="Trazado_109360" data-name="Trazado 109360" d="M676.148,252.335a.081.081,0,0,1,.085.057.08.08,0,0,1-.006.061s-7.793,14.764-20.907,13.951a.08.08,0,1,1,.01-.161c12.989.805,20.755-13.867,20.755-13.867a.08.08,0,0,1,.063-.042" transform="translate(-578.239 -222.68)" fill="#241c1c"/>
        <path id="Trazado_109361" data-name="Trazado 109361" d="M625.819,252.336a.08.08,0,0,1,.068.132,68.53,68.53,0,0,1-9.348,8.921c-5.414,4.218-12.317,7.967-18.271,6.011a.08.08,0,0,1-.012-.148.08.08,0,0,1,.061,0c5.862,1.926,12.725-1.779,18.123-5.985a68.36,68.36,0,0,0,9.323-8.9.081.081,0,0,1,.056-.029" transform="translate(-527.909 -222.681)" fill="#241c1c"/>
        <path id="Trazado_109362" data-name="Trazado 109362" d="M526.9.357c5.928-.128,9.787,2.2,12.1,4.678a15.08,15.08,0,0,1,3.135,4.99.08.08,0,0,1-.152.049,14.913,14.913,0,0,0-3.1-4.931C536.59,2.693,532.784.391,526.9.518a.278.278,0,0,0-.2.092.08.08,0,1,1-.143-.073A.381.381,0,0,1,526.9.357" transform="translate(-464.664 -0.311)" fill="#241c1c"/>
        <path id="Trazado_109363" data-name="Trazado 109363" d="M497.774,195.032a.079.079,0,0,1,.066.124,32.452,32.452,0,0,0-4.209,10.786c-1.138,6.137-.35,13.747,7.378,19.709a.6.6,0,0,0,.369.155.08.08,0,1,1,.009.16.729.729,0,0,1-.476-.187c-7.777-6-8.582-13.691-7.438-19.865a32.6,32.6,0,0,1,4.233-10.846.08.08,0,0,1,.067-.036" transform="translate(-435.11 -172.112)" fill="#241c1c"/>
        <path id="Trazado_109364" data-name="Trazado 109364" d="M896.947,214.183a.08.08,0,0,1,.045.01,7.878,7.878,0,0,1,3.894,6.788c.194,3.527-1.131,8.443-5.222,15.163a.08.08,0,1,1-.136-.084c4.081-6.7,5.391-11.591,5.2-15.07a7.7,7.7,0,0,0-3.813-6.657.08.08,0,0,1,.034-.149" transform="translate(-790.272 -189.011)" fill="#241c1c"/>
        <path id="Trazado_109365" data-name="Trazado 109365" d="M508.133,25.839c7.876-.106,12.854,8.016,12.854,8.016a.07.07,0,0,1-.119.073s-5.627-9.16-14.327-7.815a.07.07,0,1,1-.022-.138,11.567,11.567,0,0,1,1.613-.136" transform="translate(-446.939 -22.802)" fill="#483737"/>
        <path id="Trazado_109366" data-name="Trazado 109366" d="M480.422,122.733a.07.07,0,0,1,.068.036,11.1,11.1,0,0,0,4.8,4.029,19.484,19.484,0,0,0,3.224,1.253.07.07,0,0,1-.036.136,19.667,19.667,0,0,1-3.249-1.263,11.211,11.211,0,0,1-4.858-4.087.07.07,0,0,1,.027-.1.071.071,0,0,1,.028-.01" transform="translate(-423.906 -108.309)" fill="#483737"/>
        <path id="Trazado_109367" data-name="Trazado 109367" d="M481.029,54.156c3.155-.331,6.536,1.331,9.132,3.068a32.061,32.061,0,0,1,4.409,3.557.07.07,0,0,1-.1.1,31.89,31.89,0,0,0-4.387-3.539c-2.583-1.729-5.944-3.371-9.04-3.046a.07.07,0,0,1-.014-.14" transform="translate(-424.442 -47.754)" fill="#483737"/>
        <path id="Trazado_109368" data-name="Trazado 109368" d="M479.4,85.015a.07.07,0,0,1,.047.017A24.808,24.808,0,0,0,490.735,90.6a.07.07,0,0,1-.02.139,24.971,24.971,0,0,1-11.362-5.6.07.07,0,0,1,.044-.124" transform="translate(-422.997 -75.024)" fill="#483737"/>
        <path id="Trazado_109369" data-name="Trazado 109369" d="M547.932,82.877q-.828.179-1.6.4a18.655,18.655,0,0,0-13.129,12.858,37.252,37.252,0,0,1,14.724-13.261" transform="translate(-470.544 -73.137)" fill="#f60"/>
        <path id="Trazado_109370" data-name="Trazado 109370" d="M536.251,330.148a.08.08,0,0,1,.033.015,17.583,17.583,0,0,0,8.651,3.711.08.08,0,0,1-.009.16,17.794,17.794,0,0,1-8.738-3.743.08.08,0,0,1,.063-.143" transform="translate(-473.146 -291.347)" fill="#483737"/>
        <path id="Trazado_109371" data-name="Trazado 109371" d="M613.142,208.754a.081.081,0,0,1,.047.128,56.234,56.234,0,0,1-9.763,9.419,26.692,26.692,0,0,1-9.407,4.7,12.274,12.274,0,0,1-9.949-1.621.08.08,0,0,1,.089-.134,12.1,12.1,0,0,0,9.823,1.6,26.551,26.551,0,0,0,9.349-4.672,56.1,56.1,0,0,0,9.732-9.389.08.08,0,0,1,.08-.029" transform="translate(-515.397 -184.219)" fill="#483737"/>
        <path id="Trazado_109372" data-name="Trazado 109372" d="M733.621,352.528a1.975,1.975,0,1,0-2.2,1.717,1.975,1.975,0,0,0,2.2-1.717" transform="translate(-643.932 -309.141)" fill="#241c1c"/>
        <path id="Trazado_109373" data-name="Trazado 109373" d="M840.024,365.7a1.975,1.975,0,1,0-2.2,1.717,1.975,1.975,0,0,0,2.2-1.717" transform="translate(-737.83 -320.764)" fill="#241c1c"/>
        <path id="Trazado_109374" data-name="Trazado 109374" d="M718.95,323.257a9.223,9.223,0,0,0-3.309-.038.491.491,0,0,0,.17.968,9.963,9.963,0,0,1,5.719.909.491.491,0,1,0,.385-.9,14.193,14.193,0,0,0-2.964-.935" transform="translate(-631.178 -285.117)" fill="#241c1c"/>
        <path id="Trazado_109375" data-name="Trazado 109375" d="M838.749,338.993a13,13,0,0,0-4.006.089.491.491,0,0,0,.154.97,10.663,10.663,0,0,1,4.936.2.491.491,0,1,0,.3-.937,9.157,9.157,0,0,0-1.379-.32" transform="translate(-736.277 -299.05)" fill="#241c1c"/>
        <path id="Trazado_109376" data-name="Trazado 109376" d="M778.733,365.492a.327.327,0,0,0-.361.22,8.6,8.6,0,0,0,.249,5.418,4.711,4.711,0,0,1,.371,1.631,1.52,1.52,0,0,1-.327,1.059,1.567,1.567,0,0,1-1.123.461,6.413,6.413,0,0,1-2.285-.363.328.328,0,0,0-.2.626,6.968,6.968,0,0,0,2.528.391,2.242,2.242,0,0,0,1.565-.68,2.178,2.178,0,0,0,.492-1.5,5.3,5.3,0,0,0-.417-1.867,7.921,7.921,0,0,1-.237-4.968.327.327,0,0,0-.207-.415.317.317,0,0,0-.053-.013" transform="translate(-683.773 -322.535)" fill="#f95"/>
        <path id="Trazado_109377" data-name="Trazado 109377" d="M772.565,464.625c-1.146,2.508-4.379,2.927-5.76-.667,1.619.861,4.336,1.506,5.76.667" transform="translate(-676.688 -409.433)" fill="#f55"/>
        <path id="Trazado_109378" data-name="Trazado 109378" d="M773.417,1919.421c7.593-2.163,20.652-.188,33.209-10.51l-22.611-5.741-12.1,7.772Z" transform="translate(-681.199 -1679.505)" fill="#ffb380"/>
        <path id="Trazado_109379" data-name="Trazado 109379" d="M1312.319,1829.4c5.879-1.01,11.6-2.024,16.648-4.34a11.223,11.223,0,0,1,5.555-1.418c2.236-.012,4.074.114,5.985.27a7.434,7.434,0,0,0,4.975-1.381,2.505,2.505,0,0,0,2.935-1.5c1.835-.143,3.187-.768,2.873-3.06,3.865.632,3.762-4.093,1.655-4.465a3.639,3.639,0,0,0-.094-5.371c-2.449-2.076-4.358-1.852-6.464-2.155a18.369,18.369,0,0,1-4.684-1.405l-17.417,2.225-12.012,2.473Z" transform="translate(-1158.053 -1592.495)" fill="#ffb380"/>
        <path id="Trazado_109380" data-name="Trazado 109380" d="M1536.166,1947.42a5.335,5.335,0,0,0-1.786.363.14.14,0,1,0,.1.261c2.26-.888,4.547.167,6.893.678a.14.14,0,0,0,.168-.107.14.14,0,0,0-.108-.167c-1.728-.376-3.489-1.09-5.269-1.027" transform="translate(-1353.977 -1718.552)" fill="#f95"/>
        <path id="Trazado_109381" data-name="Trazado 109381" d="M1558.282,1928.5a2.358,2.358,0,0,0-1.375.2.14.14,0,1,0,.138.244,4.7,4.7,0,0,1,2.992.221c1.311.375,2.808.943,4.159,1.349a.14.14,0,0,0,.081-.268c-1.337-.4-2.834-.97-4.163-1.35a10.55,10.55,0,0,0-1.833-.391" transform="translate(-1373.873 -1701.839)" fill="#f95"/>
        <path id="Trazado_109382" data-name="Trazado 109382" d="M1581.252,1907.228a4.351,4.351,0,0,0-1.777.165.14.14,0,1,0,.09.265,6.82,6.82,0,0,1,3.591.2,23.313,23.313,0,0,0,3.84.822.14.14,0,0,0,.016-.28,23.661,23.661,0,0,1-3.79-.814,13.029,13.029,0,0,0-1.97-.358" transform="translate(-1393.767 -1683.065)" fill="#f95"/>
        <path id="Trazado_109383" data-name="Trazado 109383" d="M1570.584,1856.619a.14.14,0,0,0-.107.213,4.486,4.486,0,0,0,2.6,2.143c.884.259,1.749.23,2.557.408a12.334,12.334,0,0,0,5.185.186.14.14,0,0,0-.067-.272,12.151,12.151,0,0,1-5.058-.187c-.853-.187-1.71-.159-2.539-.4a4.162,4.162,0,0,1-2.44-2.021.14.14,0,0,0-.13-.066" transform="translate(-1385.893 -1638.424)" fill="#f95"/>
        <path id="Trazado_109384" data-name="Trazado 109384" d="M491.649,1456.613c-.164,4.946,2.432,16.25-3.357,21.342-3.772,3.317-9.872,1.844-16.339,4.493-3.644.307-11.666-1.58-11.659-5.123-.137-2.512,1.181-5.389,1.943-8.126a237.515,237.515,0,0,1-26.5-4.416c-3.706,1.691-6.045,5.416-9.716,5.829l-42.66-7.2c-2.974-4.773-2.673-7.493-1.855-11.7-3.839-20.707.9-32.226,3.268-42.218l48.8-7.158,17.725,8.835,4.071,10.088a8.385,8.385,0,0,1,3.961,1.631c3.736-2.978,5.645-1.935,8.29-1.472a30.533,30.533,0,0,1,8.17-2.3c9.2-7.035,22.483-9.99,35.2-13.513,12.018-3.649,24.029-7.682,29.677,2.12,4.656,8.081,6.284,14.821,3.71,20.579-4.072,9-.327,12.765-15.29,17.016-3.717,1.056-7.093,3.289-11.028,4.38-8.156,3.92-16.4,7.861-26.411,6.912" transform="translate(-335.396 -1236.878)" fill="#241c1c"/>
        <path id="Trazado_109385" data-name="Trazado 109385" d="M1129.65,1654.316l16.163-5.918c-5.013,2.675-10.216,4.994-16.163,5.918" transform="translate(-996.891 -1454.674)" fill="#1a1313"/>
        <path id="Trazado_109386" data-name="Trazado 109386" d="M1054.6,1582.764c5.131,7.279,8.884,16.671,15.588,21.54-7.278-7.425-10.027-16.546-15.588-21.54" transform="translate(-930.661 -1396.754)" fill="#1a1313"/>
        <path id="Trazado_109387" data-name="Trazado 109387" d="M1102.665,1722.892c-4.187-9.807-19.8-11.426-30.216-19.554,9.683,9.35,23.091,10.626,30.216,19.554" transform="translate(-946.412 -1503.158)" fill="#1a1313"/>
        <path id="Trazado_109388" data-name="Trazado 109388" d="M909.943,1682.336c-11.042-19.057-22.324-41.123-33.563-54.23,12.9,18.646,22.446,36.177,33.563,54.23" transform="translate(-773.386 -1436.767)" fill="#1a1313"/>
        <path id="Trazado_109389" data-name="Trazado 109389" d="M739.76,1758.85c-14.731-2.637-11.842-15.28-15.192-24.024,4.137,8.527,2.426,20.336,15.192,24.024" transform="translate(-639.416 -1530.945)" fill="#1a1313"/>
        <path id="Trazado_109390" data-name="Trazado 109390" d="M559.9,1713.782c-.812,7.6-.152,14.528,3.356,20.138a69.09,69.09,0,0,1-3.356-20.138" transform="translate(-493.821 -1512.374)" fill="#1a1313"/>
        <path id="Trazado_109391" data-name="Trazado 109391" d="M474.894,1572.964c-5.307,12.9-13.1,24.291-6.825,35.627-3.988-14.754,3.727-23.234,6.825-35.627" transform="translate(-411.003 -1388.106)" fill="#1a1313"/>
        <path id="Trazado_109392" data-name="Trazado 109392" d="M663.211,1610.069c-4.07,8.44-3.144,17.018,4.769,25.79-5.32-8.31-8.076-16.817-4.769-25.79" transform="translate(-583.18 -1420.85)" fill="#1a1313"/>
        <path id="Trazado_109393" data-name="Trazado 109393" d="M614.843,1819c6.877,4.552,14.734,11.335,17.665,6.889-4.383.088-11.444-4.066-17.665-6.889" transform="translate(-542.585 -1605.225)" fill="#1a1313"/>
        <path id="Trazado_109394" data-name="Trazado 109394" d="M843.276,1472.867c-9.122-8.777-11.479-4.3-13.116-2.605a22.366,22.366,0,0,1,13.116,2.605" transform="translate(-732.598 -1295.13)" fill="#1a1313"/>
        <path id="Trazado_109395" data-name="Trazado 109395" d="M972.519,1558.75c-3.276,1.767-6.7-1.582-10.088-3.544,3.278,1.325,5.765,4,10.088,3.544" transform="translate(-849.324 -1372.435)" fill="#1a1313"/>
        <path id="Trazado_109396" data-name="Trazado 109396" d="M1270.658,1519.884c-4.418,6.087-11.961,10.316-14.75,16.87,3.679-7,10.935-9.934,14.75-16.87" transform="translate(-1108.311 -1341.264)" fill="#1a1313"/>
        <path id="Trazado_109397" data-name="Trazado 109397" d="M1098.535,1550.7c-4.624,2.646-10.531,4.009-12.8,9.008,3.617-4.3,8.443-6.187,12.8-9.008" transform="translate(-958.136 -1368.456)" fill="#1a1313"/>
        <path id="Trazado_109398" data-name="Trazado 109398" d="M1104.865,1517.415c5.97-8.349,15.107-13.407,24.045-18.674-8.757,5.668-16.825,11-24.045,18.674" transform="translate(-975.019 -1322.606)" fill="#1a1313"/>
        <path id="Trazado_109399" data-name="Trazado 109399" d="M1166.258,1533.116a107.358,107.358,0,0,1,19.578-20.559c-5.832,5.726-11.7,12.474-14.677,19.049Z" transform="translate(-1029.197 -1334.798)" fill="#1a1313"/>
        <path id="Trazado_109400" data-name="Trazado 109400" d="M1653.43,1566.231c-1.635,13.651-6.282,22.743-16.613,23.233,6.118-6.177,12.13-12.641,16.613-23.233" transform="translate(-1444.454 -1382.164)" fill="#1a1313"/>
        <path id="Trazado_109401" data-name="Trazado 109401" d="M1462.251,1595.862c-9.531,8.752-15.479,20.279-32.688,29.119,15.753-10.326,20.859-20.579,32.688-29.119" transform="translate(-1261.557 -1408.313)" fill="#1a1313"/>
        <path id="Trazado_109402" data-name="Trazado 109402" d="M1179.8,1717.466c14.285,1.98,29.077,4.4,34.474-1.374-8.687,5.457-22.208,2.3-34.474,1.374" transform="translate(-1041.144 -1514.413)" fill="#1a1313"/>
        <path id="Trazado_109403" data-name="Trazado 109403" d="M549.6,1541.856c-3.043.2-4.9,1.54-5.947,3.656a12.933,12.933,0,0,1,5.947-3.656" transform="translate(-479.76 -1360.654)" fill="#1a1313"/>
        <path id="Trazado_109404" data-name="Trazado 109404" d="M1172.679,1035.516c-.52.261-.037,1.758.442,1.678l51.924-8.673a4.754,4.754,0,0,0,2.857-.134l22.259-8.084a2.27,2.27,0,0,0,1.1-1.148l25.539-43.479c.63-1.072.348-1.736-.468-1.593l-20.345,3.581a4.69,4.69,0,0,0-3.312,2.451l-23.693,41.4-29.937,5.527L1186,1028.828Z" transform="translate(-1034.665 -859.589)" fill="#483737"/>
        <path id="Trazado_109405" data-name="Trazado 109405" d="M1276.5,974.066a1.308,1.308,0,0,0-.147.017L1256,977.665a4.69,4.69,0,0,0-3.312,2.451l-23.693,41.4-2.915,4.5c-.5.776-1.926.984-2.992,1.164l-50.579,8.556c-.176.5.223,1.52.621,1.454l51.924-8.673a3.569,3.569,0,0,0,1.589.134,4.262,4.262,0,0,1,.535-1.553l26.12-46.056a4.39,4.39,0,0,1,2.436-2.248l21.417-4.068a.566.566,0,0,0-.661-.665" transform="translate(-1034.68 -859.59)" fill="#1a1313"/>
        <path id="Trazado_109406" data-name="Trazado 109406" d="M291.41,707.062c1.055-6.234,2.58-12.252,6.681-17.086,6.022,3.062,12.02,5.619,17.561,9.163a9.285,9.285,0,0,0,3.656-2.317l3.147-7.516,19.418-7.938,12.972,11.169,5.388,6.095c1.972,2.351,4.627,4.219,6.563,4.006.953-1.03,1.432-4.269-.236-6.831l11.659-7.022c3.163,1.644,5.936,3.961,11.288,3.218l12.074-3.527a74.64,74.64,0,0,0,9.1-1.237,3.907,3.907,0,0,0,3.227-2.535l.635-10.932c-1.492-.518-4.352.874-6.688,1.72-2.309-1.641-3.582-.477-5.255-.4-1.84-1.486-4.836.82-5.7-.177-1.155-1.338-4.5-2.362-8.283-3.236-2.405-.556-6.462-.27-7.018-1.949-.539-1.628-5.633-3.291-8.307-5.147-.8-4.625-2.2-9.466-2.192-13.794-.013-7.287-1.911-15.673-1.749-22.858.38-10.71,1.251-21.624-6.12-29.1-5.612-5.743-20.081-7.521-24.953-8.181,10.5,8.064,8.416,22.7-.316,23.21-13.36.776-22.886-21.784-30.169-26.947-1.249,0-10.241.641-14.089,3.822-8.673,7.17-13.442,20.952-13.05,30.356-.336,11.958-1.116,23.694-.861,35.947a11.8,11.8,0,0,0-.375,9.743c-2.127,6.059.645,11.555,3.372,13.677,3.219,3.446,7.122,1.533,10.992,1-.935,8.564-5.646,17.884-2.373,25.606" transform="translate(-245.814 -517.936)" fill="#f60"/>
        <path id="Trazado_109407" data-name="Trazado 109407" d="M1385.476,1317.815c1.337-2.316,2.487-4.081,5.48-5.3,1.379-.563,2.077-1.772,4.831-.15,1.03-.046,2.336.391,3.382.373,1-.4,2.484-.155,4.186-.112,1.519.038,2.364-.211,3.184.284,2.032,1.233,5.375,4.818,8.062,7.228.4,1.073-1.655,2.091-2.932,1.709a1.487,1.487,0,0,1-.727-.426,9.57,9.57,0,0,1-2.392.152,1.886,1.886,0,0,1,.425,1.2c-.271.837-2.63.94-3.692-.011a19.671,19.671,0,0,0-1.71-1.455,21.139,21.139,0,0,0-3.341.092c-1.356.284-2.693,1.108-4,1.344-.34,1.021-.816,1.841-2.058,2.006-2.127.283-3.271-.275-4.788-.57-.848,1.15-1.894,2.147-3.315,1.486-3.338-1.553-2.13-5.193-.6-7.85" transform="translate(-1221.296 -1157.411)" fill="#ffb380"/>
        <path id="Trazado_109408" data-name="Trazado 109408" d="M1420.794,1378.694a.14.14,0,0,0,0,.28,18.768,18.768,0,0,1,5.433.578,3.847,3.847,0,0,1,2.013,1.151,1.607,1.607,0,0,1,.26,1.274.14.14,0,0,0,.278.04,1.915,1.915,0,0,0-.312-1.481,4.083,4.083,0,0,0-2.155-1.252,18.94,18.94,0,0,0-5.5-.59h-.017" transform="translate(-1253.704 -1216.667)" fill="#f95"/>
        <path id="Trazado_109409" data-name="Trazado 109409" d="M1451.361,1359.022a.138.138,0,0,0-.04.008c-1.636.589-3.615.792-4.844,2.075a.14.14,0,1,0,.2.194c1.123-1.173,3.019-1.4,4.69-1.991a28.2,28.2,0,0,0,3.709.978c1.128,1.048,2.311,2.059,3.562,3.025a.14.14,0,1,0,.171-.222c-1.255-.969-2.442-1.983-3.573-3.035a.139.139,0,0,0-.072-.036,28.01,28.01,0,0,1-3.755-.991.147.147,0,0,0-.049-.007" transform="translate(-1276.449 -1199.307)" fill="#f95"/>
        <path id="Trazado_109410" data-name="Trazado 109410" d="M1483.7,1317.276a.141.141,0,0,0-.054.271c2.016.8,4.457,1.714,6.052,2.48a4.562,4.562,0,0,1,1.848,1.681,18.228,18.228,0,0,0,2.64,2.889,22.47,22.47,0,0,1,2.162,2.112.14.14,0,0,0,.222-.172,21.977,21.977,0,0,0-2.194-2.146,17.994,17.994,0,0,1-2.6-2.843,4.878,4.878,0,0,0-1.957-1.774c-1.616-.777-4.057-1.7-6.07-2.489a.139.139,0,0,0-.049-.01" transform="translate(-1309.206 -1162.467)" fill="#f95"/>
        <path id="Trazado_109411" data-name="Trazado 109411" d="M1558.976,1362.034a.14.14,0,0,0-.019.28,5.294,5.294,0,0,1,2.1.594,20.7,20.7,0,0,1,4.133,3.166.14.14,0,1,0,.189-.207,20.894,20.894,0,0,0-4.193-3.208,5.64,5.64,0,0,0-2.191-.623h-.016" transform="translate(-1375.636 -1201.965)" fill="#f95"/>
        <path id="Trazado_109412" data-name="Trazado 109412" d="M843.752,1188.986l-1.819,1.5,2.675,1.38Z" transform="translate(-742.987 -1049.254)" fill="#241c1c"/>
        <rect id="Rectángulo_6469" data-name="Rectángulo 6469" width="2.357" height="39.396" transform="translate(73.877 110.841) rotate(-39.518)" fill="#483737"/>
        <rect id="Rectángulo_6470" data-name="Rectángulo 6470" width="2.357" height="4.04" transform="matrix(0.771, -0.636, 0.636, 0.771, 71.306, 107.724)" fill="#241c1c"/>
        <rect id="Rectángulo_6471" data-name="Rectángulo 6471" width="2.357" height="1.782" transform="translate(70.172 106.349) rotate(-39.519)" fill="#fff"/>
        <path id="Trazado_109413" data-name="Trazado 109413" d="M643.257,1065.933a13.626,13.626,0,0,1,.062-12.678c1.185-2.486,1.991-5.467,5.246-5.246,3.959.914,10.328-.3,11.468,2.857,1.833-.121,4.615.762,3.521,3.638-.615,1.618.832,3.157-3,3.435a4.877,4.877,0,0,1-1.668,5.848c-.214,1.642-1.4,3.682-2.742,3.8Z" transform="translate(-566.309 -924.834)" fill="#ffb380"/>
        <path id="Trazado_109414" data-name="Trazado 109414" d="M708.42,1146.585a.14.14,0,0,0-.048.272c1.622.6,3.752,1.25,5.558,1.935a18.823,18.823,0,0,1,2.356,1.042,2.913,2.913,0,0,1,1.209,1.014.14.14,0,0,0,.254-.119,3.013,3.013,0,0,0-1.326-1.14,19.034,19.034,0,0,0-2.392-1.059c-1.819-.69-3.952-1.345-5.561-1.936a.138.138,0,0,0-.049-.009" transform="translate(-625.041 -1011.836)" fill="#f95"/>
        <path id="Trazado_109415" data-name="Trazado 109415" d="M719,1095.947a.14.14,0,0,0-.072.259,23.42,23.42,0,0,0,5.756,2.4c1.8.558,3.273,1.035,3.834,1.734a.14.14,0,0,0,.219-.176c-.666-.83-2.174-1.269-3.97-1.827a23.225,23.225,0,0,1-5.689-2.37.141.141,0,0,0-.079-.022" transform="translate(-634.382 -967.149)" fill="#f95"/>
        <path id="Trazado_109416" data-name="Trazado 109416" d="M789.253,1071.216a.14.14,0,0,0-.138.142,11.548,11.548,0,0,1-.526,3.271,7.533,7.533,0,0,0-.4,2.83.14.14,0,1,0,.278-.035,7.373,7.373,0,0,1,.4-2.723,11.784,11.784,0,0,0,.536-3.349.14.14,0,0,0-.142-.138" transform="translate(-695.53 -945.324)" fill="#f95"/>
        <path id="Trazado_109417" data-name="Trazado 109417" d="M731.6,1102.712a.14.14,0,0,0-.028.277,16.455,16.455,0,0,0,2.484.29,2.848,2.848,0,0,0,.546.862.14.14,0,1,0,.218-.176,2.409,2.409,0,0,1-.536-.848.14.14,0,0,0-.133-.109,16.85,16.85,0,0,1-2.518-.294.139.139,0,0,0-.033,0" transform="translate(-645.495 -973.119)" fill="#f95"/>
        <path id="Trazado_109418" data-name="Trazado 109418" d="M699.832,1186.134a.14.14,0,0,0-.062.261c1.656.971,3.671,1.291,5.505,1.868a.14.14,0,0,0,.084-.267c-1.861-.585-3.854-.909-5.448-1.842a.139.139,0,0,0-.08-.019" transform="translate(-617.47 -1046.736)" fill="#f95"/>
        <path id="Trazado_109419" data-name="Trazado 109419" d="M612.154,1092.47a11.455,11.455,0,0,0-5.5,8.65,26.656,26.656,0,0,1,5.5-8.65" transform="translate(-535.362 -964.081)" fill="#d45500"/>
        <path id="Trazado_109420" data-name="Trazado 109420" d="M531.715,1125.949c-3.352,1.249-10.336,4.073-12.21,7.307,2.535-2.558,7.737-4.9,12.21-7.307" transform="translate(-458.452 -993.625)" fill="#d45500"/>
        <path id="Trazado_109421" data-name="Trazado 109421" d="M363.2,1165.009c-5.652,1.34-20.719,4.25-24.107,9.618,5.919-5.181,17.956-6.994,24.107-9.618" transform="translate(-299.238 -1028.095)" fill="#d45500"/>
        <path id="Trazado_109422" data-name="Trazado 109422" d="M285.946,1203.271c1.717-8.363,11.692-9.022,15.954-8.114-6.208-.177-13.915,1.447-15.954,8.114" transform="translate(-252.341 -1054.428)" fill="#d45500"/>
        <path id="Trazado_109423" data-name="Trazado 109423" d="M289.135,1162.66c4.7-3.5,13.725-4.01,20.172.216-5.4-1.954-11.187-3.875-20.172-.216" transform="translate(-255.155 -1023.56)" fill="#d45500"/>
        <path id="Trazado_109424" data-name="Trazado 109424" d="M408.173,622.428c13.772,1.158,17.824,21.054,13.865,31.976,2.714-15-1.564-29.622-13.865-31.976" transform="translate(-360.204 -549.279)" fill="#d45500"/>
        <path id="Trazado_109425" data-name="Trazado 109425" d="M479.251,894.516c-1.153,12.61-4.162,22.9-6.245,34.35,1.322-11.667,4.156-22.9,6.245-34.35" transform="translate(-417.417 -789.391)" fill="#d45500"/>
        <path id="Trazado_109426" data-name="Trazado 109426" d="M489.336,734.522c3.667,4.793,6.046,9.56,5.034,16.34.137-7-2.244-11.727-5.034-16.34" transform="translate(-431.828 -648.199)" fill="#d45500"/>
        <path id="Trazado_109427" data-name="Trazado 109427" d="M518.646,743.291c4.928-6.629,7.04-20.625,4.858-27.557.652,8.731.317,17.66-4.858,27.557" transform="translate(-457.693 -631.619)" fill="#d45500"/>
        <path id="Trazado_109428" data-name="Trazado 109428" d="M962.4,693.188c.262,8.775,1.65,16.987-4.858,29.147,5.761-7.482,6.648-16.585,4.858-29.147" transform="translate(-845.013 -611.723)" fill="#d45500"/>
        <path id="Trazado_109429" data-name="Trazado 109429" d="M953.789,914.141c2.425,10.619,7.585,15.642,2.12,31.09,4.308-16.625-1.084-20.515-2.12-31.09" transform="translate(-841.697 -806.709)" fill="#d45500"/>
        <path id="Trazado_109430" data-name="Trazado 109430" d="M960.789,1178.684c-.838,4.786-2.4,9.436-.728,14.693-.668-5.418.344-9.876.728-14.693" transform="translate(-846.577 -1040.162)" fill="#d45500"/>
        <path id="Trazado_109431" data-name="Trazado 109431" d="M995.263,785.574c-.876,3.883-1.177,8.485-4.051,9.87,2.521-2.635,2.847-6.5,4.051-9.87" transform="translate(-874.722 -693.252)" fill="#d45500"/>
        <path id="Trazado_109432" data-name="Trazado 109432" d="M992.291,945c-.85,4.407-1.433,8.931-5.933,11.741,3.12-2.847,4.54-7.282,5.933-11.741" transform="translate(-870.439 -833.942)" fill="#d45500"/>
        <path id="Trazado_109433" data-name="Trazado 109433" d="M1348.776,1334.1c-3.978,1.764-4.854,1.368-3.213-.78a3.809,3.809,0,0,1,3.213.78" transform="translate(-1186.738 -1176.543)" fill="#d45500"/>
        <path id="Trazado_109434" data-name="Trazado 109434" d="M1307.872,1337.259a3.076,3.076,0,0,1-3.489.95,8.448,8.448,0,0,0,3.489-.95" transform="translate(-1151.089 -1180.101)" fill="#d45500"/>
        <path id="Trazado_109435" data-name="Trazado 109435" d="M1272.161,1371.692c-3.936-1.886-5.59-4.81-6.807-7.932,1.729,3,3.6,5.912,6.807,7.932" transform="translate(-1116.647 -1203.488)" fill="#d45500"/>
        <path id="Trazado_109436" data-name="Trazado 109436" d="M1142.448,1310.352c-2.84.428-6.2.274-6.5,3.56,1.114-2.609,4.069-2.727,6.5-3.56" transform="translate(-1002.453 -1156.357)" fill="#d45500"/>
        <path id="Trazado_109437" data-name="Trazado 109437" d="M1190.283,1350.787c-2.424,2.128-3.959,7.824-.574,10.82-2.116-3.7-1.276-7.619.574-10.82" transform="translate(-1048.162 -1192.04)" fill="#d45500"/>
        <path id="Trazado_109438" data-name="Trazado 109438" d="M1155.591,1437.373c-3.409,1.759-5.952-1.9-8.744-4,2.723,1.513,4.736,3.693,8.744,4" transform="translate(-1012.067 -1264.922)" fill="#d45500"/>
        <path id="Trazado_109439" data-name="Trazado 109439" d="M395.746,1198.12l-.353,25.614,27.027,2.473c6.1-7.444,14.893-9.593,24.2-8.656,5.069.511,10.994,3.549,12.984,7.507,1.34,1.172,2.568,2.118,3.742,2.958l19.6-7.6-.868-26.393L418,1186.8Z" transform="translate(-348.925 -1047.322)" fill="#6c5353"/>
        <path id="Trazado_109440" data-name="Trazado 109440" d="M418,1414.669l-22.611,10.157,27.027,2.473c6.1-7.444,14.893-9.593,24.2-8.655,5.069.511,10.994,3.549,12.984,7.507,1.34,1.172,2.568,2.118,3.742,2.958l19.6-7.6Z" transform="translate(-348.926 -1248.414)" fill="#483737"/>
        <path id="Trazado_109441" data-name="Trazado 109441" d="M586.732,1186.8a.14.14,0,0,0-.139.141l0,26.5a.141.141,0,0,0,.281,0v-26.5a.14.14,0,0,0-.141-.141" transform="translate(-517.653 -1047.322)" fill="#241c1c"/>
        <rect id="Rectángulo_6472" data-name="Rectángulo 6472" width="132.182" height="78.259" transform="translate(217.268 193.866)" fill="#241c1c"/>
        <rect id="Rectángulo_6473" data-name="Rectángulo 6473" width="41.899" height="78.259" transform="translate(217.268 193.868)" fill="#483737"/>
        <rect id="Rectángulo_6474" data-name="Rectángulo 6474" width="14.996" height="36.847" transform="translate(301.997 193.767)" fill="#fff"/>
        <rect id="Rectángulo_6475" data-name="Rectángulo 6475" width="14.996" height="36.847" transform="translate(230.72 193.767)" fill="#fff"/>
        <rect id="Rectángulo_6476" data-name="Rectángulo 6476" width="63.119" height="50.141" transform="translate(233.931 143.736)" fill="#6c5353"/>
        <rect id="Rectángulo_6477" data-name="Rectángulo 6477" width="67.796" height="11.8" transform="translate(229.254 143.736)" fill="#6c5353"/>
        <rect id="Rectángulo_6478" data-name="Rectángulo 6478" width="36.516" height="50.141" transform="translate(297.05 143.736)" fill="#483737"/>
        <rect id="Rectángulo_6479" data-name="Rectángulo 6479" width="40.414" height="11.8" transform="translate(297.05 143.736)" fill="#483737"/>
        <rect id="Rectángulo_6480" data-name="Rectángulo 6480" width="99.635" height="3.675" transform="translate(233.931 155.536)" fill="#241c1c"/>
        <path id="Trazado_109442" data-name="Trazado 109442" d="M2617.38,1394.319a1.968,1.968,0,0,1,1.968-1.968h11.478a1.968,1.968,0,1,1,0,3.935h-11.478a1.968,1.968,0,0,1-1.968-1.968" transform="translate(-2309.779 -1228.719)" fill="#241c1c"/>
        <rect id="Rectángulo_6481" data-name="Rectángulo 6481" width="59.403" height="35.17" transform="translate(253.074 108.566)" fill="#f60"/>
        <rect id="Rectángulo_6482" data-name="Rectángulo 6482" width="18.83" height="35.17" transform="translate(293.648 108.567)" fill="#d45500"/>
        <rect id="Rectángulo_6483" data-name="Rectángulo 6483" width="6.739" height="16.559" transform="translate(267.661 108.522)" fill="#241c1c"/>
        <rect id="Rectángulo_6484" data-name="Rectángulo 6484" width="6.739" height="16.559" transform="translate(299.693 108.522)" fill="#241c1c"/>
        <rect id="Rectángulo_6485" data-name="Rectángulo 6485" width="49.375" height="39.222" transform="translate(124.723 240.46)" fill="#f60"/>
        <rect id="Rectángulo_6486" data-name="Rectángulo 6486" width="53.033" height="9.231" transform="translate(121.064 240.46)" fill="#f60"/>
        <rect id="Rectángulo_6487" data-name="Rectángulo 6487" width="28.564" height="39.222" transform="translate(174.097 240.46)" fill="#d45500"/>
        <rect id="Rectángulo_6488" data-name="Rectángulo 6488" width="31.614" height="9.231" transform="translate(174.097 240.46)" fill="#d45500"/>
        <rect id="Rectángulo_6489" data-name="Rectángulo 6489" width="77.939" height="2.875" transform="translate(124.723 249.69)" fill="#a40"/>
        <path id="Trazado_109443" data-name="Trazado 109443" d="M1551.626,2180.045a1.539,1.539,0,0,1,1.539-1.539h8.979a1.539,1.539,0,0,1,0,3.079h-8.979a1.539,1.539,0,0,1-1.539-1.539" transform="translate(-1369.275 -1922.483)" fill="#a40"/>
        <rect id="Rectángulo_6490" data-name="Rectángulo 6490" width="97.523" height="57.74" transform="translate(4.298 202.115)" fill="#6c5353"/>
        <rect id="Rectángulo_6491" data-name="Rectángulo 6491" width="30.913" height="57.74" transform="translate(70.908 202.116)" fill="#483737"/>
        <path id="Trazado_109444" data-name="Trazado 109444" d="M131.573,1746.365h11.064V1719.18H131.573ZM57.5,1774.536H80.22v-21.184H57.5Z" transform="translate(-50.741 -1517.138)" fill="#fff"/>
        <path id="Trazado_109445" data-name="Trazado 109445" d="M169.785,141.542a14.784,14.784,0,1,0,6.482,28.082l8.6.489-1.768-7.321a14.784,14.784,0,0,0-13.294-21.251Z" transform="translate(-136.806 -124.908)" fill="#fff"/>
        <path id="Trazado_109446" data-name="Trazado 109446" d="M166.907,138.282a15.167,15.167,0,1,0,6.555,28.853l8.511.484a.383.383,0,0,0,.394-.473l-1.738-7.193a15.16,15.16,0,0,0-13.7-21.671h-.024Zm0,.766h.024a14.4,14.4,0,0,1,12.95,20.7.383.383,0,0,0-.028.258l1.647,6.819-8.089-.46a.382.382,0,0,0-.189.038,14.4,14.4,0,1,1-6.315-27.354" transform="translate(-133.928 -122.031)" fill="#483737"/>
        <path id="Trazado_109447" data-name="Trazado 109447" d="M230.816,202.049a1.393,1.393,0,0,0-1.4,1.4v.043a5.034,5.034,0,0,0-3.746,4.877v3.477h-.016a1.393,1.393,0,0,0-1.4,1.4v.155a1.393,1.393,0,0,0,1.4,1.4h10.781a1.393,1.393,0,0,0,1.4-1.4v-.155a1.393,1.393,0,0,0-1.4-1.4h-.016v-3.477a5.034,5.034,0,0,0-3.746-4.877v-.043a1.393,1.393,0,0,0-1.4-1.4Zm-2.405,13.119a2.676,2.676,0,0,0,5.276,0Z" transform="translate(-197.906 -178.304)" fill="#483737"/>
      </g>
    </g>
  </g>
</svg>
