<svg xmlns="http://www.w3.org/2000/svg" width="295" height="210" viewBox="0 0 295 210">
  <g id="Grupo_57512" data-name="Grupo 57512" transform="translate(2241 9094)">
    <g id="Grupo_57398" data-name="Grupo 57398" transform="translate(-2203 -64)">
      <circle id="Elipse_4533" data-name="Elipse 4533" cx="95" cy="95" r="95" transform="translate(67 -9030)" fill="#ff8a5b"/>
      <g id="Grupo_56379" data-name="Grupo 56379" transform="translate(854.354 -9100.35)">
        <rect id="Rect치ngulo_5574" data-name="Rect치ngulo 5574" width="295" height="200" transform="translate(-892.354 80.35)" fill="none"/>
        <g id="Grupo_56378" data-name="Grupo 56378">
          <path id="Trazado_107008" data-name="Trazado 107008" d="M-719.229,141.382s-1.508,12.215-2.18,15.525-6.131,49.168-6.131,49.168a7.883,7.883,0,0,0,6.278,4.613c2.3.295,5.865-1.282,5.865-1.282s1.31-26.444,1.3-29.3,4.115-13.311,4.443-15.585,1.16-5.612,1.16-5.612,5.928,19.276,6.424,24.8,4.9,32.915,4.9,32.915,1.669,2.51,6.8,2.481c1.937-.011,5.461-2.515,5.461-2.515s-6.08-25.941-6.809-29.063-.4-20.454-.9-29.144-6.569-17.032-6.569-17.032Z" fill="#33211f"/>
          <g id="Grupo_56362" data-name="Grupo 56362">
            <g id="Grupo_56358" data-name="Grupo 56358">
              <path id="Trazado_107009" data-name="Trazado 107009" d="M-818.295,208.746l40.121-23.491-.157-57.3-40.121,23.491Z" fill="#7b4121"/>
              <path id="Trazado_107010" data-name="Trazado 107010" d="M-818.295,208.746l-2.685-1.54-.157-57.3,2.685,1.54Z" fill="#955730"/>
            </g>
            <g id="Grupo_56359" data-name="Grupo 56359">
              <path id="Trazado_107011" data-name="Trazado 107011" d="M-779.968,186.267l2.676-1.555-.157-57.3-2.676,1.555Z" fill="#33211f"/>
            </g>
            <path id="Trazado_107012" data-name="Trazado 107012" d="M-818.367,182.4l106.284,61.07-.067-24.5-106.285-61.479Z" fill="#aa643d"/>
            <g id="Grupo_56360" data-name="Grupo 56360">
              <path id="Trazado_107013" data-name="Trazado 107013" d="M-709.325,271.63l41.777-24.128-.157-57.3-41.777,24.128Z" fill="#7b4121"/>
              <path id="Trazado_107014" data-name="Trazado 107014" d="M-709.325,271.63l-2.685-1.54-.157-57.3,2.685,1.54Z" fill="#955730"/>
            </g>
            <g id="Grupo_56361" data-name="Grupo 56361">
              <path id="Trazado_107015" data-name="Trazado 107015" d="M-668.887,248.28l2.676-1.555-.157-57.3-2.676,1.555Z" fill="#7b4121"/>
            </g>
            <path id="Trazado_107016" data-name="Trazado 107016" d="M-709.374,221.87-830.33,152.15l-.008-2.861,120.956,69.72Z" fill="#7b4121"/>
            <path id="Trazado_107017" data-name="Trazado 107017" d="M-709.381,219.008l50-29.069.007,2.686-50,29.069Z" fill="#6d361b"/>
            <path id="Trazado_107018" data-name="Trazado 107018" d="M-659.377,189.939l-55.967-32.271-75.206,14.554,81.169,46.786Z" fill="#aa643d"/>
            <path id="Trazado_107019" data-name="Trazado 107019" d="M-780.352,120.185l-49.985,29.1,39.787,22.934,75.206-14.554Z" fill="#aa643d"/>
          </g>
          <g id="Grupo_56372" data-name="Grupo 56372">
            <path id="Trazado_107020" data-name="Trazado 107020" d="M-744.087,194.794l49.653-25.069-63.518-36.8L-808.679,158.3Z" fill="#fe733e"/>
            <g id="Grupo_56370" data-name="Grupo 56370">
              <g id="Grupo_56363" data-name="Grupo 56363">
                <path id="Trazado_107021" data-name="Trazado 107021" d="M-794.13,159.5l-2.647-1.487,2.7-1.384.2.391-1.976,1.012,1.936,1.087Z" fill="#fff"/>
              </g>
              <g id="Grupo_56364" data-name="Grupo 56364">
                <path id="Trazado_107022" data-name="Trazado 107022" d="M-789.482,154.775l-.2-.391,4.394-2.249.2.391Zm8.787-4.5-.2-.391,4.393-2.249.2.391Zm8.786-4.5-.2-.391,4.394-2.248.2.39Z" fill="#fff"/>
              </g>
              <g id="Grupo_56365" data-name="Grupo 56365">
                <path id="Trazado_107023" data-name="Trazado 107023" d="M-758.673,141.33l-2.212-1.192-2.237,1.146-.2-.391,2.442-1.25,2.415,1.3Z" fill="#fff"/>
              </g>
              <g id="Grupo_56366" data-name="Grupo 56366">
                <rect id="Rect치ngulo_5634" data-name="Rect치ngulo 5634" width="0.438" height="4.558" transform="translate(-754.659 143.49) rotate(-61.711)" fill="#fff"/>
              </g>
              <g id="Grupo_56367" data-name="Grupo 56367">
                <path id="Trazado_107024" data-name="Trazado 107024" d="M-746.672,149.817l-.124-.419,2.009-.593-1.845-.993.207-.386,2.784,1.5Z" fill="#fff"/>
              </g>
              <g id="Grupo_56368" data-name="Grupo 56368">
                <path id="Trazado_107025" data-name="Trazado 107025" d="M-780.8,159.879l-.124-.42,5.689-1.677.123.42Zm11.377-3.354-.124-.42,5.689-1.676.123.419Zm11.378-3.354-.124-.42,5.689-1.677.123.42Z" fill="#fff"/>
              </g>
              <g id="Grupo_56369" data-name="Grupo 56369">
                <path id="Trazado_107026" data-name="Trazado 107026" d="M-789.1,162.326l-2.372-1.332.215-.381,2.211,1.24,2.433-.716.124.419Z" fill="#fff"/>
              </g>
            </g>
            <g id="Grupo_56371" data-name="Grupo 56371">
              <path id="Trazado_107027" data-name="Trazado 107027" d="M-744.536,189.788l-4.172-3.2.267-.348,4.172,3.2Zm4.844-1.359-.2-.392,4.706-2.343.2.392Zm9.41-4.686-.2-.392,1.667-.83-2.234-1.291.22-.38,2.938,1.7Zm-22.6-.353-4.17-3.2.267-.347,4.17,3.2Zm17.284-4.79-4.551-2.63.22-.38,4.551,2.63Zm-25.626-1.608-4.171-3.2.267-.347,4.171,3.2Zm16.524-3.653-4.551-2.631.22-.38,4.55,2.632Zm-24.866-2.744-4.171-3.2.267-.348,4.171,3.2Zm15.764-2.517-4.551-2.63.22-.38,4.551,2.63Zm-22.871-3.089-.194-.392,4.71-2.333.194.392Zm13.769-2.172-4.328-2.5-.02.009-.014-.029-.069-.039.027-.046-.139-.278.23-.115,4.533,2.62Z" fill="#fff"/>
            </g>
          </g>
          <g id="Grupo_56373" data-name="Grupo 56373">
            <path id="Trazado_107028" data-name="Trazado 107028" d="M-718.634,110.566c-3.826-2.558-14.008,8.372-18.363,12.456a64.541,64.541,0,0,1-8.233,6.758c-3.829,2.328-11.884,6.889-14.152,8.009s-9.458,3.451-10.019,4.164.856,2.831,6.172,1.655c2.278-.5,2.555-.012,3.448,1.089a16.041,16.041,0,0,0,1.9,1.884,1.054,1.054,0,0,0,1.634-.028s-1.974-4.008-.815-5.115,11.065-4.581,13.319-5.979,8.486-4.953,9.933-6.023a39.268,39.268,0,0,1,12.2-5.581S-715.114,112.919-718.634,110.566Z" fill="#ffc5b3"/>
            <path id="Trazado_107029" data-name="Trazado 107029" d="M-723.278,132.839c1.377,1.694,3.124,7.347,4.058,11.847,5.576,6.141,18.658,6.8,21.5-2.385-.609-1.455-3.385-6.9-4.256-11.1-.945-4.552,1.967-6.97-.193-11.279-1.884-3.758-8.5-6.433-8.5-6.433a48.13,48.13,0,0,0-5.147,4.068c-1.228,1.32-2.73-2.1-1.9-6.293.261-1.319-2.074-1.06-2.94-1.077-1.044,1.6-3.421,4.509-4.526,6.261a18.4,18.4,0,0,0-2.5,6.721C-728.184,126.5-726.51,128.862-723.278,132.839Z" fill="#389ec6"/>
            <path id="Trazado_107030" data-name="Trazado 107030" d="M-718.586,108.5a17.217,17.217,0,0,1-.718,5.6c-1.594,1.548-3.2,6.686-1.438,8.481,1.118,1.139,4.477-2.789,5.943-3.834a39.849,39.849,0,0,0,5.007-5.469c-1.4-1.238-2.141-9.515-2.314-10.41C-713.008,98.188-718.586,108.5-718.586,108.5Z" fill="#ffa08d"/>
            <path id="Trazado_107031" data-name="Trazado 107031" d="M-710.263,103.258a88.617,88.617,0,0,1,2.889,9.024c.954,3.974-1.843,8.675-3.82,10.72s-3.873,8.239-3.873,8.239-2.117-1.806-1.628-6.394c.339-3.19,1.745-5.23,3.7-11.91a67.176,67.176,0,0,0,1.036-7.528Z" fill="#33211f"/>
            <path id="Trazado_107032" data-name="Trazado 107032" d="M-713.156,91.8c-2.923-2.213-9.834-2.907-12.336,4.239-2.624,7.493,4.176,16.824,7.782,15.226,2.019-.9,6.261-4.067,7.447-8.011C-708.927,98.818-710.885,93.524-713.156,91.8Z" fill="#ffc5b3"/>
            <path id="Trazado_107033" data-name="Trazado 107033" d="M-726.214,99.8s1.1-.654,2.781-1.707a18.541,18.541,0,0,0,4.3,4.022c2.8,1.552,3.649,1.55,5.512,1.545.508-.487,1.35-2.153,1.8-2.329,1.363-.535,1.557,1.926,1.557,1.926s4.746-8.666-3.713-13.554c-3.047-1.761-8.094.474-10.3,2.728C-727.019,95.242-726.214,99.8-726.214,99.8Z" fill="#33211f"/>
            <path id="Trazado_107034" data-name="Trazado 107034" d="M-709.764,123.375c-.82,2.906,1.462,13.522-.376,20.282-3.162,11.629-3.783,19-5.377,21.886s-5.05,5.243-4.551,5.581c1.765,1.2,4-1.16,4.567.414s1.238,5.864,5.014,6.189c1.931.166,1.441-1.626,1.082-3.788-.506-3.04-1.457-5.344-.818-8.215.138-.624,5.107-14.871,6.625-21.364s2.585-19.7,2.229-21.629C-702.638,115.843-708.6,119.246-709.764,123.375Z" fill="#ffc5b3"/>
          </g>
          <g id="Grupo_56374" data-name="Grupo 56374">
            <path id="Trazado_107035" data-name="Trazado 107035" d="M-704.563,190.856l-67.525-38.74,3.421-2.065,67.525,38.74Z" fill="#ffe576"/>
            <path id="Trazado_107036" data-name="Trazado 107036" d="M-701.142,188.79l0,.876-3.421,2.065,0-.876Z" fill="#eab306"/>
            <path id="Trazado_107037" data-name="Trazado 107037" d="M-772.086,152.992l0-.876,67.525,38.74,0,.876Z" fill="#ffd511"/>
          </g>
          <g id="Grupo_56376" data-name="Grupo 56376">
            <g id="Grupo_56375" data-name="Grupo 56375">
              <path id="Trazado_107038" data-name="Trazado 107038" d="M-770.733,132.655a2.284,2.284,0,0,0-1.006-1.622c-1.41-.914-2.438-1.57-3.776-2.36-.194-.115-.321-.726-.321-.726a28.563,28.563,0,0,0-5.7-2.686c-.979-.214-1.386-.133-1.749.178h0l-35.048,20.037,11.326,8.616v-.245Z" fill="#f25e30"/>
              <path id="Trazado_107039" data-name="Trazado 107039" d="M-771.421,134.411a1.688,1.688,0,0,0,.688-1.756l-36.279,21.191v.245l.539.41Z" fill="#e54c23"/>
            </g>
            <path id="Trazado_107040" data-name="Trazado 107040" d="M-817.759,149.045c-1.637-.871-1.887-4.755,1.1-3.333a82.427,82.427,0,0,1,9.676,5.535c1.871,1.214,1.12,4.626-1.408,3.183C-811.309,152.763-817.759,149.045-817.759,149.045Z" fill="#fe733e"/>
            <path id="Trazado_107041" data-name="Trazado 107041" d="M-818.337,145.475s.275-.636,3.538,1.157a47.005,47.005,0,0,1,6.978,5.1s17.053-11.362,21.425-14.514,11.328-8.937,11.328-8.937l-.768-.332s-11.218,8.891-15.445,11.684-16.4,10.931-16.4,10.931-6.338-4.286-7.5-4.835C-817.55,144.6-818.337,145.475-818.337,145.475Z" fill="#e54c23"/>
            <path id="Trazado_107042" data-name="Trazado 107042" d="M-817.2,145.477a1.728,1.728,0,0,0-.65,2.411c.845,1.591,4.443,2.945,6.965,4.2s3.893,2.124,4.22,1.3a1.12,1.12,0,0,0-.351-1.313s.417,1.081-.382,1.018c-.754-.059-3.6-1.774-4.942-2.263s-4.888-2.574-5.154-3.295c-.311-.845.05-1.494,1.067-1.694S-817.2,145.477-817.2,145.477Z" fill="#e54c23"/>
          </g>
          <path id="Trazado_107043" data-name="Trazado 107043" d="M-692.346,183.319a9.856,9.856,0,0,0-4.543.45c-1.04.514-.306,1.981,1.445,1.607S-691.358,184.046-692.346,183.319Z" fill="#fff"/>
          <g id="Grupo_56377" data-name="Grupo 56377">
            <path id="Trazado_107044" data-name="Trazado 107044" d="M-716.173,209.459s1.129,1.574,4.211.856c2.567-.6,9.453-5.515,13.335-8.476.839-.179,1.788-.289,1.788-.289s1.022-1.863,1.921-1.929c.45-.034,1.306.87,3.346,1.775a6.55,6.55,0,0,0,5.554.346,6.61,6.61,0,0,0,3.143-1.977,2.081,2.081,0,0,0,.166-1.448,12.592,12.592,0,0,1-3.68,2.359,7.162,7.162,0,0,1-5.441-.7,12.119,12.119,0,0,0-2.712-1.461Z" fill="#9b9b9b"/>
            <path id="Trazado_107045" data-name="Trazado 107045" d="M-692.79,199.025s-.211-.91,1.989-1.644a6.7,6.7,0,0,1,5.185.016c1.248.681,1.448,1.346,1.448,1.346s.83-1.747-1.922-2.354-4.748-.419-6.2.475A1.431,1.431,0,0,0-692.79,199.025Z" fill="#9b9b9b"/>
            <path id="Trazado_107046" data-name="Trazado 107046" d="M-696.309,199.022a6.847,6.847,0,0,1,2.437-2.86,6.549,6.549,0,0,0,2.083-.589,4.262,4.262,0,0,0,1.705-1.376,1.735,1.735,0,0,0,.1-.8,5.5,5.5,0,0,1-2.974,1.851c-1.8.339-3.41,1.213-3.71,1.81a19,19,0,0,0-.724,1.91Z" fill="#9b9b9b"/>
            <path id="Trazado_107047" data-name="Trazado 107047" d="M-696.273,194.473a1.838,1.838,0,0,1,.678-1.312,2.989,2.989,0,0,1,2.418-.546c.522.065,1.552.54,1.552,1.309s1.019.39.756-.47-.467-1.842-2.207-1.621-2.889.008-3.3,1A1.638,1.638,0,0,0-696.273,194.473Z" fill="#9b9b9b"/>
            <path id="Trazado_107048" data-name="Trazado 107048" d="M-697.769,193.4a2.3,2.3,0,0,0,.025,1.3,2.406,2.406,0,0,0,1.721,1.338c1.052.306,1.166-.014,1.166-.014Z" fill="#9b9b9b"/>
            <path id="Trazado_107049" data-name="Trazado 107049" d="M-690.554,192.4a4.7,4.7,0,0,0-5-.646c-3.109,1.131-2.573,2.655-1.044,3.67a2.339,2.339,0,0,0,.527.257,9.871,9.871,0,0,0-2.539,3.964l-17.563,9.813a6.032,6.032,0,0,0,4.986.133c2.3-.9,14.065-9.423,14.065-9.423.256-1.331,1.465-3.68,3.181-4.409h0a7.688,7.688,0,0,0,2.064-.517C-690.047,194.387-689.4,193.226-690.554,192.4Zm-2.1,2.225c-1.108.34-2.2.589-2.916.112-.944-.627-1.275-1.568.645-2.266a2.873,2.873,0,0,1,3.088.4C-691.2,193.465-691.547,194.286-692.655,194.626Z" fill="#d3d3d3"/>
            <path id="Trazado_107050" data-name="Trazado 107050" d="M-719.953,205.955s.283.76,3.777-.188,19.165-4.273,19.165-4.273l.126-.968Z" fill="#9b9b9b"/>
            <path id="Trazado_107051" data-name="Trazado 107051" d="M-683.822,196.682c-2.189-1.739-4.8-1.7-9.215-.214-2.191.737-2.8,2.154-4.358,2.5-2.646.594-21.54,4.023-22.558,6.984l23.017-5.115s1.335-1.751,1.942-1.7c1.121.1,5.1,3.43,8.241,2.265S-681.207,198.759-683.822,196.682Zm-.573,1.657c-.253.645-1.486,1.809-3.917,1.919a5.641,5.641,0,0,1-4.433-1.549c-1.16-.865,1.913-2,3.128-2.13C-685.4,196.113-684.142,197.693-684.4,198.339Z" fill="#bfbfbf"/>
            <path id="Trazado_107052" data-name="Trazado 107052" d="M-697.684,199.886c-.258-.278-.593-.133-.824-.028-.166.075-.376.547.631.5C-697.678,200.346-697.448,200.139-697.684,199.886Z" fill="#9b9b9b"/>
          </g>
        </g>
      </g>
    </g>
  </g>
</svg>
