<svg xmlns="http://www.w3.org/2000/svg" width="93.999" height="93.999" viewBox="0 0 93.999 93.999">
  <g id="Grupo_57505" data-name="Grupo 57505" transform="translate(106.06 -121.109)">
    <g id="Grupo_57504" data-name="Grupo 57504">
      <circle id="Elipse_4484" data-name="Elipse 4484" cx="47" cy="47" r="47" transform="translate(-106.06 121.109)" fill="#9f0925"/>
      <path id="Trazado_105738" data-name="Trazado 105738" d="M-65.787,178.954q0,8.935-10.071,8.933-10.046,0-10.046-8.933V152.93q0-8.957,10.046-8.956,10.071,0,10.071,8.956Zm-7-26.024q0-2.883-3.043-2.885h-.05q-3.019,0-3.018,2.885v26.024q0,2.883,3.043,2.884,3.067,0,3.068-2.884Z" transform="translate(3.804 4.315)" fill="#fff"/>
      <path id="Trazado_105739" data-name="Trazado 105739" d="M-50.218,144.557v36.5h6.557v6.051H-63.777v-6.051h6.556V150.608h-6.556v-6.051Z" transform="translate(7.98 4.426)" fill="#fff"/>
    </g>
  </g>
</svg>
