<svg xmlns="http://www.w3.org/2000/svg" xmlns:xlink="http://www.w3.org/1999/xlink" width="85" height="85" viewBox="0 0 85 85">
  <defs>
    <clipPath id="clip-path">
      <rect id="Rectángulo_6437" data-name="Rectángulo 6437" width="50" height="50" transform="translate(198 3946)" fill="#fff"/>
    </clipPath>
  </defs>
  <g id="Grupo_57508" data-name="Grupo 57508" transform="translate(-495 -3928)">
    <g id="Grupo_57507" data-name="Grupo 57507">
      <circle id="Elipse_4541" data-name="Elipse 4541" cx="42.5" cy="42.5" r="42.5" transform="translate(495 3928)" fill="#0ce6ea"/>
      <g id="Enmascarar_grupo_57" data-name="Enmascarar grupo 57" transform="translate(315)" clip-path="url(#clip-path)">
        <g id="tela" transform="translate(198 3946)">
          <path id="Trazado_109248" data-name="Trazado 109248" d="M34.556,34.772H9.661a2.809,2.809,0,0,1-2.8-2.8V7.076a2.809,2.809,0,0,1,2.8-2.8h24.9a2.809,2.809,0,0,1,2.8,2.8v24.9A2.809,2.809,0,0,1,34.556,34.772Z" fill="#fdb441"/>
          <path id="Trazado_109249" data-name="Trazado 109249" d="M37.357,15.544V31.971a2.809,2.809,0,0,1-2.8,2.8H9.661a2.742,2.742,0,0,1-.451-.037l7.814-22.969A2.983,2.983,0,0,1,20.8,9.909Z" fill="#fea613"/>
          <g id="Grupo_57430" data-name="Grupo 57430">
            <path id="Trazado_109250" data-name="Trazado 109250" d="M14.661,7.692A1.571,1.571,0,0,1,13.09,6.121V2.306a1.571,1.571,0,0,1,3.142,0V6.121A1.571,1.571,0,0,1,14.661,7.692Z" fill="#b3dafe"/>
            <path id="Trazado_109251" data-name="Trazado 109251" d="M22.108,7.692a1.571,1.571,0,0,1-1.571-1.571V2.306a1.571,1.571,0,0,1,3.142,0V6.121A1.571,1.571,0,0,1,22.108,7.692Z" fill="#b3dafe"/>
            <path id="Trazado_109252" data-name="Trazado 109252" d="M29.555,7.692a1.571,1.571,0,0,1-1.571-1.571V2.306a1.571,1.571,0,1,1,3.142,0V6.121A1.571,1.571,0,0,1,29.555,7.692Z" fill="#b3dafe"/>
            <path id="Trazado_109253" data-name="Trazado 109253" d="M34.528,12.076A1.571,1.571,0,0,1,36.1,10.505h3.815a1.571,1.571,0,0,1,0,3.142H36.1a1.571,1.571,0,0,1-1.571-1.571Z" fill="#b3dafe"/>
            <path id="Trazado_109254" data-name="Trazado 109254" d="M2.732,12.076A1.571,1.571,0,0,1,4.3,10.505H8.117a1.571,1.571,0,0,1,0,3.142H4.3a1.571,1.571,0,0,1-1.571-1.571Z" fill="#b3dafe"/>
            <path id="Trazado_109255" data-name="Trazado 109255" d="M2.732,19.523A1.571,1.571,0,0,1,4.3,17.952H8.117a1.571,1.571,0,1,1,0,3.142H4.3A1.571,1.571,0,0,1,2.732,19.523Z" fill="#b3dafe"/>
            <path id="Trazado_109256" data-name="Trazado 109256" d="M2.732,26.97A1.571,1.571,0,0,1,4.3,25.4H8.117a1.571,1.571,0,1,1,0,3.142H4.3A1.571,1.571,0,0,1,2.732,26.97Z" fill="#b3dafe"/>
          </g>
          <path id="Trazado_109257" data-name="Trazado 109257" d="M35.546,49.115,11.978,41.1a2.809,2.809,0,0,1-1.749-3.554l8.019-23.568A2.809,2.809,0,0,1,21.8,12.225l23.568,8.019A2.809,2.809,0,0,1,47.119,23.8L39.1,47.366a2.809,2.809,0,0,1-3.554,1.749Z" fill="#86e8d0"/>
          <path id="Trazado_109258" data-name="Trazado 109258" d="M47.119,23.8,39.1,47.366a2.809,2.809,0,0,1-3.554,1.75L11.978,41.1a2.812,2.812,0,0,1-1.844-3.206,2.686,2.686,0,0,0,1.328.991l22.77,7.748a2.713,2.713,0,0,0,3.432-1.69L45.412,22.17a2.69,2.69,0,0,0-.079-1.938l.037.013A2.809,2.809,0,0,1,47.119,23.8Z" fill="#5de1c4"/>
          <path id="Trazado_109259" data-name="Trazado 109259" d="M44.832,30.52a.735.735,0,0,0-.932.459l-5.5,16.15a2.074,2.074,0,0,1-2.621,1.29L12.215,40.4a2.074,2.074,0,0,1-1.29-2.621l8.019-23.568a2.074,2.074,0,0,1,2.621-1.29l1.261.429a.735.735,0,0,0,.473-1.392l-1.261-.429a3.544,3.544,0,0,0-4.486,2.208l-6.907,20.3H9.661a2.067,2.067,0,0,1-1.907-1.274.735.735,0,1,0-1.355.569,3.533,3.533,0,0,0,3.262,2.174h.484l-.612,1.8a3.544,3.544,0,0,0,2.208,4.486l23.568,8.019A3.544,3.544,0,0,0,39.8,47.6l5.5-16.15a.735.735,0,0,0-.459-.932Z"/>
          <path id="Trazado_109260" data-name="Trazado 109260" d="M45.606,19.548l-7.515-2.557V14.383h1.822a2.306,2.306,0,0,0,0-4.612H38.091V7.076A3.54,3.54,0,0,0,34.556,3.54H31.861V2.306a2.306,2.306,0,0,0-4.612,0V3.54H24.414V2.306a2.306,2.306,0,0,0-4.612,0V3.54H16.967V2.306a2.306,2.306,0,1,0-4.612,0V3.54H9.661A3.54,3.54,0,0,0,6.125,7.076V9.77H4.3a2.306,2.306,0,1,0,0,4.612H6.125v2.835H4.3a2.306,2.306,0,0,0,0,4.612H6.125v2.835H4.3a2.306,2.306,0,1,0,0,4.612H6.125v.385a.735.735,0,0,0,1.47,0v-.385h.523a2.306,2.306,0,1,0,0-4.612H7.595V21.83h.523a2.306,2.306,0,0,0,0-4.612H7.595V14.383h.523a2.306,2.306,0,0,0,0-4.612H7.595V7.076A2.068,2.068,0,0,1,9.661,5.01h2.694V6.121a2.306,2.306,0,0,0,4.612,0V5.01H19.8V6.121a2.306,2.306,0,0,0,4.612,0V5.01h2.835V6.121a2.306,2.306,0,1,0,4.612,0V5.01h2.694a2.068,2.068,0,0,1,2.066,2.066V9.77H36.1a2.306,2.306,0,1,0,0,4.612h.523v2.109L26.559,13.068a.735.735,0,0,0-.473,1.392L45.133,20.94a2.068,2.068,0,0,1,1.29,2.621L45.015,27.7a.735.735,0,1,0,1.392.474l1.408-4.139A3.54,3.54,0,0,0,45.606,19.548ZM8.117,26.134a.836.836,0,1,1,0,1.673H4.3a.836.836,0,1,1,0-1.673Zm0-7.447a.836.836,0,1,1,0,1.673H4.3a.836.836,0,1,1,0-1.673Zm0-7.447a.836.836,0,1,1,0,1.673H4.3a.836.836,0,0,1,0-1.673ZM15.5,6.121a.836.836,0,0,1-1.673,0V2.306a.836.836,0,1,1,1.673,0Zm7.447,0a.836.836,0,1,1-1.673,0V2.306a.836.836,0,1,1,1.673,0Zm7.447,0a.836.836,0,1,1-1.673,0V2.306a.836.836,0,1,1,1.673,0ZM36.1,12.913a.836.836,0,0,1,0-1.673h3.815a.836.836,0,0,1,0,1.673Z"/>
          <path id="Trazado_109261" data-name="Trazado 109261" d="M17.535,26.849a.735.735,0,0,0,.7-.5l.473-1.391a.735.735,0,1,0-1.391-.474l-.473,1.391a.735.735,0,0,0,.7.972Z"/>
          <path id="Trazado_109262" data-name="Trazado 109262" d="M17.157,29.5a.735.735,0,1,0-1.391-.474l-.473,1.392a.735.735,0,1,0,1.391.474Z"/>
          <path id="Trazado_109263" data-name="Trazado 109263" d="M22.06,16.842a.735.735,0,1,0-.492-1.385,2.963,2.963,0,0,0-1.5,1.2.735.735,0,1,0,1.241.788,1.487,1.487,0,0,1,.755-.6Z"/>
          <path id="Trazado_109264" data-name="Trazado 109264" d="M19.081,22.3a.735.735,0,0,0,.7-.5l.473-1.391a.735.735,0,1,0-1.391-.474l-.473,1.391a.735.735,0,0,0,.7.972Z"/>
          <path id="Trazado_109265" data-name="Trazado 109265" d="M18.823,40.784l1.392.473a.735.735,0,1,0,.474-1.392L19.3,39.393a.735.735,0,0,0-.474,1.392Z"/>
          <path id="Trazado_109266" data-name="Trazado 109266" d="M22.91,41.4a.735.735,0,0,0,.459.933l1.391.473a.735.735,0,1,0,.474-1.392l-1.391-.473a.735.735,0,0,0-.933.459Z"/>
          <path id="Trazado_109267" data-name="Trazado 109267" d="M26.174,17.907a.735.735,0,1,0,.473-1.392l-1.391-.473a.735.735,0,1,0-.473,1.392Z"/>
          <path id="Trazado_109268" data-name="Trazado 109268" d="M15.284,39.58l.386.131a.735.735,0,1,0,.473-1.392l-.386-.131a1.442,1.442,0,0,1-.589-.377A.735.735,0,1,0,14.1,38.821a2.937,2.937,0,0,0,1.183.758Z"/>
          <path id="Trazado_109269" data-name="Trazado 109269" d="M14.442,35.94a.735.735,0,0,0,.7-.5l.473-1.391a.735.735,0,1,0-1.391-.474l-.473,1.391a.735.735,0,0,0,.7.972Z"/>
          <path id="Trazado_109270" data-name="Trazado 109270" d="M32,44.491a.735.735,0,0,0,.459.933l1.392.473a2.921,2.921,0,0,0,.942.156h0a2.921,2.921,0,0,0,.484-.041.735.735,0,0,0-.244-1.45,1.454,1.454,0,0,1-.241.02h0a1.454,1.454,0,0,1-.469-.078l-1.392-.473a.735.735,0,0,0-.933.459Z"/>
          <path id="Trazado_109271" data-name="Trazado 109271" d="M40.283,21.155l-1.391-.473a.735.735,0,0,0-.473,1.392l1.391.473a.735.735,0,1,0,.473-1.392Z"/>
          <path id="Trazado_109272" data-name="Trazado 109272" d="M38.518,36.75l-.473,1.391a.735.735,0,1,0,1.392.474l.473-1.391a.735.735,0,1,0-1.392-.474Z"/>
          <path id="Trazado_109273" data-name="Trazado 109273" d="M36.971,41.295,36.5,42.686a.735.735,0,1,0,1.392.474l.473-1.392a.735.735,0,1,0-1.392-.474Z"/>
          <path id="Trazado_109274" data-name="Trazado 109274" d="M40.065,32.2,39.591,33.6a.735.735,0,1,0,1.392.474l.473-1.391a.735.735,0,1,0-1.392-.474Z"/>
          <path id="Trazado_109275" data-name="Trazado 109275" d="M43.256,25.458l.06,0a.735.735,0,0,0,.732-.676c.006-.077.009-.156.009-.233a2.946,2.946,0,0,0-.49-1.627.735.735,0,0,0-1.227.81,1.481,1.481,0,0,1,.247.817c0,.039,0,.078,0,.116A.735.735,0,0,0,43.256,25.458Z"/>
          <path id="Trazado_109276" data-name="Trazado 109276" d="M30.719,19.453a.735.735,0,1,0,.474-1.392L29.8,17.588a.735.735,0,0,0-.473,1.392Z"/>
          <path id="Trazado_109277" data-name="Trazado 109277" d="M35.265,21a.735.735,0,0,0,.474-1.392l-1.392-.473a.735.735,0,0,0-.473,1.392Z"/>
          <path id="Trazado_109278" data-name="Trazado 109278" d="M41.611,27.659l-.473,1.392a.735.735,0,1,0,1.391.474L43,28.132a.735.735,0,1,0-1.391-.474Z"/>
          <path id="Trazado_109279" data-name="Trazado 109279" d="M27.455,42.945a.735.735,0,0,0,.459.933l1.392.473a.735.735,0,1,0,.474-1.392l-1.392-.473a.735.735,0,0,0-.933.459Z"/>
        </g>
      </g>
    </g>
  </g>
</svg>
