<svg xmlns="http://www.w3.org/2000/svg" xmlns:xlink="http://www.w3.org/1999/xlink" width="66" height="66" viewBox="0 0 66 66">
  <defs>
    <clipPath id="clip-path">
      <rect id="Rectángulo_6405" data-name="Rectángulo 6405" width="66" height="66" transform="translate(1059 977)" fill="#fff"/>
    </clipPath>
  </defs>
  <g id="Enmascarar_grupo_53" data-name="Enmascarar grupo 53" transform="translate(-1059 -977)" clip-path="url(#clip-path)">
    <g id="Page-1" transform="translate(1066.702 977.007)">
      <g id="_009---Weight-Loss-Plan" data-name="009---Weight-Loss-Plan" transform="translate(-1.1 -1.1)">
        <path id="Shape" d="M47.3,17.6V43.083c-13.936-5.7-27.86,10.911-41.8,5.2V17.6a3.3,3.3,0,0,1,3.3-3.3h6.6v2.2a2.206,2.206,0,0,0,2.2,2.2H35.2a2.206,2.206,0,0,0,2.2-2.2V14.3H44a3.3,3.3,0,0,1,3.3,3.3Z" fill="#ff9801"/>
        <path id="Shape-2" data-name="Shape" d="M14.3,18.7h3.3a2.206,2.206,0,0,1-2.2-2.2V14.3H12.1v2.2A2.206,2.206,0,0,0,14.3,18.7Z" fill="#f57c00"/>
        <path id="Shape-3" data-name="Shape" d="M44,14.3H40.7A3.3,3.3,0,0,1,44,17.6V42.142a15.964,15.964,0,0,1,3.3.94V17.6A3.3,3.3,0,0,0,44,14.3Z" fill="#f57c00"/>
        <path id="Shape-4" data-name="Shape" d="M47.3,54.082v8.612a3.3,3.3,0,0,1-3.3,3.3H8.8a3.3,3.3,0,0,1-3.3-3.3v-3.41c13.936,5.708,27.86-10.9,41.8-5.2Z" fill="#ff9801"/>
        <path id="Shape-5" data-name="Shape" d="M39.287,52.954A16.072,16.072,0,0,1,44,54.082v8.612a3.3,3.3,0,0,1-3.3,3.3H44a3.3,3.3,0,0,0,3.3-3.3V54.082a16.88,16.88,0,0,0-8.008-1.127Z" fill="#f57c00"/>
        <path id="Shape-6" data-name="Shape" d="M37.4,13.573V16.5a2.206,2.206,0,0,1-2.2,2.2H17.6a2.206,2.206,0,0,1-2.2-2.2V13.573a3.315,3.315,0,0,1,2.5-3.2l1.672-.418A3.19,3.19,0,0,0,22,6.742a4.585,4.585,0,0,1,.044-.77A4.4,4.4,0,0,1,30.8,6.6v.033a3.481,3.481,0,0,0,2.629,3.377l1.474.363A3.315,3.315,0,0,1,37.4,13.573Z" fill="#9e9e9e"/>
        <path id="Shape-7" data-name="Shape" d="M34.9,10.372l-1.474-.363A3.481,3.481,0,0,1,30.8,6.632V6.6a4.4,4.4,0,0,0-4.95-4.367,4.28,4.28,0,0,0-1.1.307A4.382,4.382,0,0,1,27.5,6.6v.033a3.481,3.481,0,0,0,2.629,3.377l1.474.363a3.315,3.315,0,0,1,2.5,3.2V16.5a2.206,2.206,0,0,1-2.2,2.2h3.3a2.206,2.206,0,0,0,2.2-2.2V13.573A3.315,3.315,0,0,0,34.9,10.372Z" fill="#707070"/>
        <path id="Shape-8" data-name="Shape" d="M50.6,45.976v8.8c0,.616-.495.759-1.1.407a18.648,18.648,0,0,0-2.2-1.1c-13.936-5.7-27.86,10.911-41.8,5.2a19.532,19.532,0,0,1-2.2-1.1,2.394,2.394,0,0,1-1.1-1.793v-8.8c0-.6.495-.759,1.1-.407a19.531,19.531,0,0,0,2.2,1.1c13.936,5.708,27.86-10.9,41.8-5.2a18.648,18.648,0,0,1,2.2,1.1A2.394,2.394,0,0,1,50.6,45.976Z" fill="#ffdc00"/>
        <rect id="Rectangle-path" width="8.799" height="8.799" rx="2.2" transform="translate(32.997 21.998)" fill="#f5f5f5"/>
        <g id="Grupo_57379" data-name="Grupo 57379">
          <path id="Shape-9" data-name="Shape" d="M38.5,61.594a1.1,1.1,0,0,0,1.1,1.1h3.3a1.1,1.1,0,0,0,1.1-1.1v-3.3a1.1,1.1,0,1,0-2.2,0v2.2H39.6A1.1,1.1,0,0,0,38.5,61.594Z"/>
          <path id="Shape-10" data-name="Shape" d="M26.4,9.9a1.1,1.1,0,0,0,1.1-1.1V6.6a1.1,1.1,0,0,0-2.2,0V8.8A1.1,1.1,0,0,0,26.4,9.9Z"/>
          <path id="Shape-11" data-name="Shape" d="M22,15.4h8.8a1.1,1.1,0,1,0,0-2.2H22a1.1,1.1,0,1,0,0,2.2Z"/>
          <path id="Shape-12" data-name="Shape" d="M2.742,59.136a16.355,16.355,0,0,0,1.658.856v2.7a4.4,4.4,0,0,0,4.4,4.4H44a4.4,4.4,0,0,0,4.4-4.4V55.843c.18.1.362.18.542.286a1.929,1.929,0,0,0,1.956.131,1.65,1.65,0,0,0,.8-1.485v-8.8a3.468,3.468,0,0,0-1.642-2.744A16.417,16.417,0,0,0,48.4,42.37V17.6A4.4,4.4,0,0,0,44,13.2H38.464a4.382,4.382,0,0,0-3.3-3.893l-1.474-.37A2.375,2.375,0,0,1,31.9,6.6a5.5,5.5,0,0,0-10.944-.782,5.61,5.61,0,0,0-.055.965,2.119,2.119,0,0,1-1.6,2.106l-1.672.418a4.382,4.382,0,0,0-3.3,3.893H8.8a4.4,4.4,0,0,0-4.4,4.4V46.525c-.181-.1-.363-.181-.544-.287A1.929,1.929,0,0,0,1.9,46.107a1.65,1.65,0,0,0-.8,1.483v8.8a3.47,3.47,0,0,0,1.642,2.746ZM46.2,62.694a2.2,2.2,0,0,1-2.2,2.2H8.8a2.2,2.2,0,0,1-2.2-2.2V60.832a17.62,17.62,0,0,0,5.182.77c5.079,0,10.1-1.964,15.017-3.888,6.7-2.62,13.067-5.112,19.4-2.86ZM16.5,13.574a2.2,2.2,0,0,1,1.666-2.135l1.671-.418A4.328,4.328,0,0,0,23.1,6.709a3.468,3.468,0,0,1,.032-.591,3.314,3.314,0,0,1,2.844-2.794A3.708,3.708,0,0,1,26.4,3.3a3.27,3.27,0,0,1,2.184.827,3.319,3.319,0,0,1,1.115,2.5,4.559,4.559,0,0,0,3.46,4.448l1.473.368A2.2,2.2,0,0,1,36.3,13.574V16.5a1.1,1.1,0,0,1-1.1,1.1H17.6a1.1,1.1,0,0,1-1.1-1.1ZM6.6,17.6a2.2,2.2,0,0,1,2.2-2.2h5.5v1.1a3.3,3.3,0,0,0,3.3,3.3H35.2a3.3,3.3,0,0,0,3.3-3.3V15.4H44a2.2,2.2,0,0,1,2.2,2.2V41.546a17.352,17.352,0,0,0-4.334-.74c-.023,0-.043-.014-.066-.014s-.031.009-.047.01a27.234,27.234,0,0,0-9.16,1.46l-.026.008c-1.468.461-2.93.99-4.383,1.546l-.016.007c-.724.276-1.446.558-2.166.838-6.7,2.62-13.067,5.111-19.4,2.86ZM3.3,48.451a17.807,17.807,0,0,0,1.725.815,1.23,1.23,0,0,0,.125.048c.117.047.233.088.35.132v4.741a1.1,1.1,0,1,0,2.2,0V50.136a17.2,17.2,0,0,0,2.2.353v2.288a1.1,1.1,0,0,0,2.2,0V50.6a22.022,22.022,0,0,0,2.2-.156v2.039a1.1,1.1,0,0,0,2.2,0V50.086c.735-.15,1.468-.33,2.2-.532v1.838a1.1,1.1,0,0,0,2.2,0v-2.5c.736-.241,1.468-.5,2.2-.77v3.916a1.1,1.1,0,1,0,2.2,0V47.3q.752-.29,1.5-.585l.7-.274V48.13a1.1,1.1,0,0,0,2.2,0V45.589q1.105-.416,2.2-.791v1.78a1.1,1.1,0,0,0,2.2,0V44.095q1.1-.323,2.2-.565v1.966a1.1,1.1,0,0,0,2.2,0v-2.35a19.807,19.807,0,0,1,2.2-.17v4.417a1.1,1.1,0,0,0,2.2,0v-4.3a15.251,15.251,0,0,1,6.049,2.038,1.379,1.379,0,0,1,.55.845v7.938a17.927,17.927,0,0,0-1.717-.813,1.111,1.111,0,0,0-.146-.055C40.3,50.076,33.039,52.9,26,55.655c-7.664,3-14.9,5.829-22.142,1.579a1.381,1.381,0,0,1-.555-.845Z"/>
          <circle id="Oval" cx="1.1" cy="1.1" r="1.1" transform="translate(45.096 47.295)"/>
          <path id="Shape-13" data-name="Shape" d="M11,25.3H28.6a1.1,1.1,0,1,0,0-2.2H11a1.1,1.1,0,1,0,0,2.2Z"/>
          <path id="Shape-14" data-name="Shape" d="M35.2,31.9h4.4a3.3,3.3,0,0,0,3.3-3.3V24.2a3.3,3.3,0,0,0-3.3-3.3H35.2a3.3,3.3,0,0,0-3.3,3.3v4.4A3.3,3.3,0,0,0,35.2,31.9Zm-1.1-7.7a1.1,1.1,0,0,1,1.1-1.1h4.4a1.1,1.1,0,0,1,1.1,1.1v4.4a1.1,1.1,0,0,1-1.1,1.1H35.2a1.1,1.1,0,0,1-1.1-1.1Z"/>
          <path id="Shape-15" data-name="Shape" d="M11,38.5H28.6a1.1,1.1,0,1,0,0-2.2H11a1.1,1.1,0,0,0,0,2.2Z"/>
          <path id="Shape-16" data-name="Shape" d="M11,29.7h8.8a1.1,1.1,0,0,0,0-2.2H11a1.1,1.1,0,1,0,0,2.2Z"/>
          <path id="Shape-17" data-name="Shape" d="M20.9,41.8a1.1,1.1,0,0,0-1.1-1.1H11a1.1,1.1,0,0,0,0,2.2h8.8A1.1,1.1,0,0,0,20.9,41.8Z"/>
          <path id="Shape-18" data-name="Shape" d="M33,38.5a1.1,1.1,0,0,0,1.1-1.1,1.1,1.1,0,0,1,1.1-1.1h4.4a1.1,1.1,0,0,1,1.1,1.1,1.1,1.1,0,1,0,2.2,0,3.3,3.3,0,0,0-3.3-3.3H35.2a3.3,3.3,0,0,0-3.3,3.3A1.1,1.1,0,0,0,33,38.5Z"/>
        </g>
      </g>
    </g>
  </g>
</svg>
