<svg xmlns="http://www.w3.org/2000/svg" xmlns:xlink="http://www.w3.org/1999/xlink" width="78" height="78" viewBox="0 0 78 78">
  <defs>
    <clipPath id="clip-path">
      <rect id="Rectángulo_6498" data-name="Rectángulo 6498" width="78" height="78" transform="translate(837 2726)" fill="#fff"/>
    </clipPath>
  </defs>
  <g id="Enmascarar_grupo_65" data-name="Enmascarar grupo 65" transform="translate(-837 -2726)" clip-path="url(#clip-path)">
    <g id="tela_3_" data-name="tela (3)" transform="translate(837 2726)">
      <path id="Trazado_109525" data-name="Trazado 109525" d="M52.565,53.87H5.039a2.6,2.6,0,0,1-2.6-2.6V3.743a2.6,2.6,0,0,1,2.6-2.6H52.565a2.6,2.6,0,0,1,2.6,2.6V51.269A2.6,2.6,0,0,1,52.565,53.87Z" fill="#ffe177"/>
      <path id="Trazado_109526" data-name="Trazado 109526" d="M55.166,3.743V51.268a2.6,2.6,0,0,1-2.6,2.6H46.851a2.6,2.6,0,0,0,2.6-2.6V3.743a2.6,2.6,0,0,0-2.6-2.6h5.714A2.6,2.6,0,0,1,55.166,3.743Z" fill="#fece85"/>
      <path id="Trazado_109527" data-name="Trazado 109527" d="M2.438,9.771V3.743a2.6,2.6,0,0,1,2.6-2.6H52.565a2.6,2.6,0,0,1,2.6,2.6V20.374" fill="none" stroke="#000" stroke-linecap="round" stroke-linejoin="round" stroke-miterlimit="10" stroke-width="2.285"/>
      <path id="Trazado_109528" data-name="Trazado 109528" d="M2.438,15.1V51.27a2.6,2.6,0,0,0,2.6,2.6h17.8" fill="none" stroke="#000" stroke-linecap="round" stroke-linejoin="round" stroke-miterlimit="10" stroke-width="2.285"/>
      <g id="Grupo_57499" data-name="Grupo 57499">
        <path id="Trazado_109529" data-name="Trazado 109529" d="M72.961,73.1H25.435a2.6,2.6,0,0,1-2.6-2.6V22.975a2.6,2.6,0,0,1,2.6-2.6H72.961a2.6,2.6,0,0,1,2.6,2.6V70.5A2.6,2.6,0,0,1,72.961,73.1Z" fill="#01d0fb"/>
        <path id="Trazado_109530" data-name="Trazado 109530" d="M75.562,22.975V70.5a2.6,2.6,0,0,1-2.6,2.6H67.247a2.6,2.6,0,0,0,2.6-2.6V22.975a2.6,2.6,0,0,0-2.6-2.6h5.714A2.6,2.6,0,0,1,75.562,22.975Z" fill="#01c0fa"/>
        <path id="Trazado_109531" data-name="Trazado 109531" d="M75.563,66.7v3.8a2.6,2.6,0,0,1-2.6,2.6H25.435a2.6,2.6,0,0,1-2.6-2.6V22.975a2.6,2.6,0,0,1,2.6-2.6H72.96a2.6,2.6,0,0,1,2.6,2.6V61.367" fill="none" stroke="#000" stroke-linecap="round" stroke-linejoin="round" stroke-miterlimit="10" stroke-width="2.285"/>
        <g id="Grupo_57497" data-name="Grupo 57497">
          <line id="Línea_259" data-name="Línea 259" y1="3.756" transform="translate(25.435 16.618)" fill="none" stroke="#000" stroke-linecap="round" stroke-linejoin="round" stroke-miterlimit="10" stroke-width="2.285"/>
          <line id="Línea_260" data-name="Línea 260" y1="3.756" transform="translate(31.376 16.618)" fill="none" stroke="#000" stroke-linecap="round" stroke-linejoin="round" stroke-miterlimit="10" stroke-width="2.285"/>
          <line id="Línea_261" data-name="Línea 261" y1="3.756" transform="translate(37.316 16.618)" fill="none" stroke="#000" stroke-linecap="round" stroke-linejoin="round" stroke-miterlimit="10" stroke-width="2.285"/>
          <line id="Línea_262" data-name="Línea 262" y1="3.756" transform="translate(43.257 16.618)" fill="none" stroke="#000" stroke-linecap="round" stroke-linejoin="round" stroke-miterlimit="10" stroke-width="2.285"/>
          <line id="Línea_263" data-name="Línea 263" y1="3.756" transform="translate(49.198 16.618)" fill="none" stroke="#000" stroke-linecap="round" stroke-linejoin="round" stroke-miterlimit="10" stroke-width="2.285"/>
          <line id="Línea_264" data-name="Línea 264" y1="3.756" transform="translate(55.139 16.618)" fill="none" stroke="#000" stroke-linecap="round" stroke-linejoin="round" stroke-miterlimit="10" stroke-width="2.285"/>
          <line id="Línea_265" data-name="Línea 265" y1="3.756" transform="translate(61.08 16.618)" fill="none" stroke="#000" stroke-linecap="round" stroke-linejoin="round" stroke-miterlimit="10" stroke-width="2.285"/>
          <line id="Línea_266" data-name="Línea 266" y1="3.756" transform="translate(67.02 16.618)" fill="none" stroke="#000" stroke-linecap="round" stroke-linejoin="round" stroke-miterlimit="10" stroke-width="2.285"/>
          <line id="Línea_267" data-name="Línea 267" y1="3.756" transform="translate(72.961 16.618)" fill="none" stroke="#000" stroke-linecap="round" stroke-linejoin="round" stroke-miterlimit="10" stroke-width="2.285"/>
        </g>
        <g id="Grupo_57498" data-name="Grupo 57498">
          <line id="Línea_268" data-name="Línea 268" y1="3.756" transform="translate(25.435 73.102)" fill="none" stroke="#000" stroke-linecap="round" stroke-linejoin="round" stroke-miterlimit="10" stroke-width="2.285"/>
          <line id="Línea_269" data-name="Línea 269" y1="3.756" transform="translate(31.376 73.102)" fill="none" stroke="#000" stroke-linecap="round" stroke-linejoin="round" stroke-miterlimit="10" stroke-width="2.285"/>
          <line id="Línea_270" data-name="Línea 270" y1="3.756" transform="translate(37.316 73.102)" fill="none" stroke="#000" stroke-linecap="round" stroke-linejoin="round" stroke-miterlimit="10" stroke-width="2.285"/>
          <line id="Línea_271" data-name="Línea 271" y1="3.756" transform="translate(43.257 73.102)" fill="none" stroke="#000" stroke-linecap="round" stroke-linejoin="round" stroke-miterlimit="10" stroke-width="2.285"/>
          <line id="Línea_272" data-name="Línea 272" y1="3.756" transform="translate(49.198 73.102)" fill="none" stroke="#000" stroke-linecap="round" stroke-linejoin="round" stroke-miterlimit="10" stroke-width="2.285"/>
          <line id="Línea_273" data-name="Línea 273" y1="3.756" transform="translate(55.139 73.102)" fill="none" stroke="#000" stroke-linecap="round" stroke-linejoin="round" stroke-miterlimit="10" stroke-width="2.285"/>
          <line id="Línea_274" data-name="Línea 274" y1="3.756" transform="translate(61.08 73.102)" fill="none" stroke="#000" stroke-linecap="round" stroke-linejoin="round" stroke-miterlimit="10" stroke-width="2.285"/>
          <line id="Línea_275" data-name="Línea 275" y1="3.756" transform="translate(67.02 73.102)" fill="none" stroke="#000" stroke-linecap="round" stroke-linejoin="round" stroke-miterlimit="10" stroke-width="2.285"/>
          <line id="Línea_276" data-name="Línea 276" y1="3.756" transform="translate(72.961 73.102)" fill="none" stroke="#000" stroke-linecap="round" stroke-linejoin="round" stroke-miterlimit="10" stroke-width="2.285"/>
        </g>
      </g>
      <g id="Grupo_57500" data-name="Grupo 57500">
        <line id="Línea_277" data-name="Línea 277" y2="11.784" transform="translate(33.409 27.506)" fill="none" stroke="#000" stroke-linecap="round" stroke-linejoin="round" stroke-miterlimit="10" stroke-width="2.285"/>
        <line id="Línea_278" data-name="Línea 278" y2="11.784" transform="translate(38.401 27.506)" fill="none" stroke="#000" stroke-linecap="round" stroke-linejoin="round" stroke-miterlimit="10" stroke-width="2.285"/>
        <line id="Línea_279" data-name="Línea 279" x1="11.784" transform="translate(30.013 30.903)" fill="none" stroke="#000" stroke-linecap="round" stroke-linejoin="round" stroke-miterlimit="10" stroke-width="2.285"/>
        <line id="Línea_280" data-name="Línea 280" x1="11.784" transform="translate(30.013 35.894)" fill="none" stroke="#000" stroke-linecap="round" stroke-linejoin="round" stroke-miterlimit="10" stroke-width="2.285"/>
      </g>
      <g id="Grupo_57501" data-name="Grupo 57501">
        <line id="Línea_281" data-name="Línea 281" x2="5.716" transform="translate(9.782 5.713)" fill="none" stroke="#000" stroke-linecap="round" stroke-linejoin="round" stroke-miterlimit="10" stroke-width="2.285"/>
        <line id="Línea_282" data-name="Línea 282" x2="5.716" transform="translate(20.557 5.713)" fill="none" stroke="#000" stroke-linecap="round" stroke-linejoin="round" stroke-miterlimit="10" stroke-width="2.285"/>
        <line id="Línea_283" data-name="Línea 283" x2="5.716" transform="translate(31.331 5.713)" fill="none" stroke="#000" stroke-linecap="round" stroke-linejoin="round" stroke-miterlimit="10" stroke-width="2.285"/>
        <line id="Línea_284" data-name="Línea 284" x2="5.716" transform="translate(42.106 5.713)" fill="none" stroke="#000" stroke-linecap="round" stroke-linejoin="round" stroke-miterlimit="10" stroke-width="2.285"/>
      </g>
      <g id="Grupo_57502" data-name="Grupo 57502">
        <line id="Línea_285" data-name="Línea 285" x2="5.713" transform="translate(9.668 49.3)" fill="none" stroke="#000" stroke-linecap="round" stroke-linejoin="round" stroke-miterlimit="10" stroke-width="2.285"/>
        <line id="Línea_286" data-name="Línea 286" x1="2.395" transform="translate(20.439 49.3)" fill="none" stroke="#000" stroke-linecap="round" stroke-linejoin="round" stroke-miterlimit="10" stroke-width="2.285"/>
      </g>
      <g id="Grupo_57503" data-name="Grupo 57503">
        <line id="Línea_287" data-name="Línea 287" y2="5.69" transform="translate(7.008 8.57)" fill="none" stroke="#000" stroke-linecap="round" stroke-linejoin="round" stroke-miterlimit="10" stroke-width="2.285"/>
        <line id="Línea_288" data-name="Línea 288" y2="5.69" transform="translate(7.008 19.298)" fill="none" stroke="#000" stroke-linecap="round" stroke-linejoin="round" stroke-miterlimit="10" stroke-width="2.285"/>
        <line id="Línea_289" data-name="Línea 289" y2="5.69" transform="translate(7.008 30.025)" fill="none" stroke="#000" stroke-linecap="round" stroke-linejoin="round" stroke-miterlimit="10" stroke-width="2.285"/>
        <line id="Línea_290" data-name="Línea 290" y2="5.69" transform="translate(7.008 40.752)" fill="none" stroke="#000" stroke-linecap="round" stroke-linejoin="round" stroke-miterlimit="10" stroke-width="2.285"/>
      </g>
    </g>
  </g>
</svg>
