<svg xmlns="http://www.w3.org/2000/svg" xmlns:xlink="http://www.w3.org/1999/xlink" width="66" height="66" viewBox="0 0 66 66">
  <defs>
    <clipPath id="clip-path">
      <rect id="Rectángulo_6404" data-name="Rectángulo 6404" width="66" height="66" transform="translate(639 977)" fill="#fff"/>
    </clipPath>
  </defs>
  <g id="Enmascarar_grupo_52" data-name="Enmascarar grupo 52" transform="translate(-639 -977)" clip-path="url(#clip-path)">
    <g id="escala-corporal" transform="translate(639 977)">
      <g id="Grupo_57377" data-name="Grupo 57377">
        <path id="Trazado_109107" data-name="Trazado 109107" d="M27.21,64.708H11.624a7.749,7.749,0,0,1-7.749-7.749L1.292,9.041A7.749,7.749,0,0,1,9.041,1.292H56.959a7.749,7.749,0,0,1,7.749,7.749L62.125,56.959a7.749,7.749,0,0,1-7.749,7.749H27.21Z" fill="#ceccf5"/>
        <path id="Trazado_109108" data-name="Trazado 109108" d="M46.168,28.308H19.832l-5.6-12.787a31,31,0,0,1,37.542,0Z" fill="#fff3d9"/>
        <path id="Trazado_109109" data-name="Trazado 109109" d="M24.734,28.306c.133-3.347,3.782-6.029,8.264-6.029a10.33,10.33,0,0,1,4.386.944,6.144,6.144,0,0,1,3.882,5.087Z" fill="#ff7c96"/>
      </g>
      <g id="Grupo_57378" data-name="Grupo 57378">
        <circle id="Elipse_4523" data-name="Elipse 4523" cx="1.289" cy="1.289" r="1.289" transform="translate(31.711 63.419)"/>
        <path id="Trazado_109110" data-name="Trazado 109110" d="M56.959,0H9.041A9.08,9.08,0,0,0,0,9.076c0,.023,0-.023,0,0L2.583,56.995A9.052,9.052,0,0,0,11.624,66H27.21a1.292,1.292,0,1,0,0-2.583H11.624a6.5,6.5,0,0,1-6.459-6.493c0-.023,0,.023,0,0L2.583,9.008A6.465,6.465,0,0,1,9.041,2.583H56.959a6.465,6.465,0,0,1,6.458,6.425L60.835,56.924c0,.023,0-.023,0,0a6.5,6.5,0,0,1-6.459,6.493H38.79a1.292,1.292,0,1,0,0,2.583H54.376a9.052,9.052,0,0,0,9.041-9.005L66,9.076c0-.023,0,.023,0,0A9.08,9.08,0,0,0,56.959,0Z"/>
        <path id="Trazado_109111" data-name="Trazado 109111" d="M19.832,29.6H46.168a1.292,1.292,0,0,0,1.183-.773l5.6-12.787a1.292,1.292,0,0,0-.39-1.538A32.6,32.6,0,0,0,33.049,7.9h0a32.6,32.6,0,0,0-19.613,6.6,1.292,1.292,0,0,0-.39,1.538l5.6,12.787a1.291,1.291,0,0,0,1.183.773ZM33,23.568a9.066,9.066,0,0,1,3.836.821,5.61,5.61,0,0,1,2.813,2.626h-13.3C27.254,25.026,29.918,23.568,33,23.568ZM20.9,13.063,21.907,15.2a1.292,1.292,0,1,0,2.336-1.1l-.936-1.986a29.6,29.6,0,0,1,8.4-1.6v2.209a1.292,1.292,0,1,0,2.583,0V10.513A29.605,29.605,0,0,1,42.653,12.1l-.836,2.117a1.292,1.292,0,1,0,2.4.948l.837-2.121a29.386,29.386,0,0,1,5.118,2.9L45.324,27.016H42.377a7.76,7.76,0,0,0-4.443-4.964A11.951,11.951,0,0,0,28,22.079l-1.777-3.771a1.292,1.292,0,0,0-2.337,1.1l1.934,4.1a6.988,6.988,0,0,0-2.2,3.5H20.677L15.824,15.944A29.357,29.357,0,0,1,20.9,13.063Z"/>
        <path id="Trazado_109112" data-name="Trazado 109112" d="M19.832,34.766H46.168a1.292,1.292,0,0,0,0-2.583H19.832a1.292,1.292,0,1,0,0,2.583Z"/>
        <path id="Trazado_109113" data-name="Trazado 109113" d="M10.177,54.41a1.292,1.292,0,0,0-2.583,0,6.49,6.49,0,0,0,6.483,6.483,1.292,1.292,0,1,0,0-2.583,3.9,3.9,0,0,1-3.9-3.9Z"/>
        <path id="Trazado_109114" data-name="Trazado 109114" d="M50.5,59.6a1.292,1.292,0,0,0,1.292,1.292,6.49,6.49,0,0,0,6.483-6.483,1.292,1.292,0,0,0-2.583,0,3.9,3.9,0,0,1-3.9,3.9A1.292,1.292,0,0,0,50.5,59.6Z"/>
      </g>
    </g>
  </g>
</svg>
