<svg xmlns="http://www.w3.org/2000/svg" width="92.499" height="92.499" viewBox="0 0 92.499 92.499">
  <g id="Grupo_57507" data-name="Grupo 57507" transform="translate(106.06 -214.464)">
    <g id="Grupo_57506" data-name="Grupo 57506">
      <path id="Trazado_108537" data-name="Trazado 108537" d="M46.249,0A46.249,46.249,0,1,1,0,46.249,46.249,46.249,0,0,1,46.249,0Z" transform="translate(-106.06 214.464)" fill="#9f0925"/>
      <path id="Trazado_105744" data-name="Trazado 105744" d="M-66.108,271.749q0,8.793-9.91,8.792-9.886,0-9.886-8.792V246.142q0-8.815,9.886-8.813,9.91,0,9.91,8.813ZM-73,246.142q0-2.837-2.995-2.839h-.049q-2.971,0-2.97,2.839v25.607q0,2.837,2.995,2.838,3.018,0,3.019-2.838Z" transform="translate(3.422 3.882)" fill="#fff"/>
      <path id="Trazado_105745" data-name="Trazado 105745" d="M-63.777,270.9q0-5.655,6.428-9.688,6.45-4.032,6.476-6.85v-8.215q0-2.837-2.97-2.839h-.049q-3,0-2.995,2.839v5.613h-6.89v-5.613q0-8.815,9.885-8.813,9.91,0,9.91,8.813v8.365q0,5.76-6.452,9.817-6.452,4.032-6.452,7.084v2.518h12.9v5.954H-63.777Z" transform="translate(7.178 3.882)" fill="#fff"/>
    </g>
  </g>
</svg>
