<svg xmlns="http://www.w3.org/2000/svg" width="295" height="206" viewBox="0 0 295 206">
  <g id="Grupo_57515" data-name="Grupo 57515" transform="translate(-1125 -7697)">
    <g id="Grupo_57514" data-name="Grupo 57514">
      <g id="Grupo_57444" data-name="Grupo 57444">
        <rect id="Rectángulo_6445" data-name="Rectángulo 6445" width="190" height="206" rx="21" transform="translate(1230 7697)" fill="#0ce6ea"/>
        <g id="Grupo_56817" data-name="Grupo 56817" transform="translate(840 108.65)">
          <rect id="Rectángulo_5548" data-name="Rectángulo 5548" width="251" height="139.904" transform="translate(285 7630)" fill="none"/>
          <g id="Grupo_56824" data-name="Grupo 56824" transform="translate(295.04 7642.482)">
            <path id="Trazado_107946" data-name="Trazado 107946" d="M-326.478-197.6H-408.9v-.108c-.108-6.052,2.12-11.159,5-11.448,32.81,7.708,72.849,10.83,79.893-1.714C-322.866-212.9-326.478-197.6-326.478-197.6Z" transform="translate(411.256 325.732)" fill="#e7a4c0"/>
            <path id="Rectángulo_5761" data-name="Rectángulo 5761" d="M-351.518-234.557h188.775c5.423,0,9.819,9.246,9.819,20.652v1.668c0,11.406-4.4,20.652-9.819,20.652H-351.518v-42.973Z" transform="translate(377.888 319.717)" fill="#ff8a5b"/>
            <g id="Grupo_56817-2" data-name="Grupo 56817" transform="translate(78.971 85.754)">
              <path id="Trazado_107947" data-name="Trazado 107947" d="M-124.656-234.084c-6.081,14.535-93.153,34.574-122.85,40.024q-8.466,1.554-15.919,2.355h136.555c5.212,0,9.439-9.62,9.439-21.486h0C-117.316-222.792-120.278-231.359-124.656-234.084Z" transform="translate(263.426 234.084)" fill="#e17c54"/>
            </g>
            <path id="Trazado_107948" data-name="Trazado 107948" d="M-328.346-234.552h-64.915c-5.423,0-9.819,9.246-9.819,20.652v1.668a40.014,40.014,0,0,0,1.111,9.551q-.969-.23-1.932-.447c-2.876.289-5.1,5.4-5,11.448v.1h82.421v-.014c5.415-.014,7.947-9.24,7.947-20.639V-213.9C-318.531-225.3-322.925-234.547-328.346-234.552Z" transform="translate(411.256 319.718)" fill="#ffcd91"/>
            <path id="Trazado_107949" data-name="Trazado 107949" d="M-327.689-229.9c-63.249.075-60.045-.367-62.122,1.1-2.008,1.621-3.473,5.316-3.87,9.762-1.545,11.57.58,16.047,5.847,17.132,18.819,3.887,37.771,3.741,56.676,2.949,3.5-.147,7.169-.412,10.188-4.113,5.312-6.5,5.8-21.682-.986-25.724A10.529,10.529,0,0,0-327.689-229.9Z" transform="translate(405.322 320.897)" fill="#ff8a5b"/>
            <g id="Grupo_56818" data-name="Grupo 56818" transform="translate(16.531 94.57)">
              <path id="Trazado_107950" data-name="Trazado 107950" d="M-346.253-207.333c-4.26,0-8.669-.129-12.926-.394-4.911-.309-28.523-1.576-25.756-9.046.485-1.311,1.964-5.3,32.286-8.3,14.87-1.467,29.578-1.981,29.722-1.986.251-.074.484.3.519.825s-.141,1.019-.392,1.091a.211.211,0,0,1-.108.005c-.151,0-15.354.536-30.475,2.074-28.756,2.9-30.635,6.724-30.721,7.461,1.556,7.465,60.771,7.891,63.908,3.191-.124-8.441-38.637-4.629-43.154-4.067-.25.1-.491-.242-.539-.766s.115-1.034.364-1.134a.223.223,0,0,1,.106-.018c6.218-.771,44.938-5.154,44.247,6.35-.062,1.037-.484,2.128-4.814,3.081C-328.793-207.915-337.182-207.333-346.253-207.333Z" transform="translate(385.159 227.065)" fill="#e17c54"/>
            </g>
            <g id="Grupo_56821" data-name="Grupo 56821" transform="translate(7.948 42.77)">
              <path id="Rectángulo_5762" data-name="Rectángulo 5762" d="M-342.143-268.3h179.034c5.143,0,9.312,9.246,9.312,20.651v1.669c0,11.405-4.169,20.652-9.312,20.652H-342.143V-268.3Z" transform="translate(376.411 268.311)" fill="#2bbfad"/>
              <g id="Grupo_56819" data-name="Grupo 56819" transform="translate(76.619 0.602)" opacity="0.35">
                <path id="Trazado_107951" data-name="Trazado 107951" d="M-115.283-267.83c-6.081,14.535-93.153,34.562-122.85,40.024q-8.467,1.554-15.919,2.355H-117.5c5.213,0,9.438-9.62,9.438-21.486h0C-107.943-256.538-110.905-265.106-115.283-267.83Z" transform="translate(254.053 267.83)" fill="#2bbfad"/>
              </g>
              <path id="Rectángulo_5763" data-name="Rectángulo 5763" d="M-379.958-268.3h64.915c5.423,0,9.819,9.246,9.819,20.651v1.669c0,11.405-4.4,20.652-9.819,20.652h-64.915c-5.423,0-9.819-9.247-9.819-20.652h0v-1.667C-389.777-259.056-385.381-268.3-379.958-268.3Z" transform="translate(395.602 268.311)" fill="#2fd1bd"/>
              <path id="Trazado_107952" data-name="Trazado 107952" d="M-317.1-231.5h-82.421v-.1c-.108-6.051,2.121-11.158,5-11.445,0,0,25.956,3.718,34.307,3.6,11.538-.162,29.994,5.591,45.25-4.71C-313.543-245.118-317.1-231.5-317.1-231.5Z" transform="translate(399.53 274.478)" fill="#2fd1bd"/>
              <path id="Trazado_107953" data-name="Trazado 107953" d="M-378.8-232.414c-3.667,0-6.651-7-6.651-15.6s2.984-15.6,6.651-15.6h63.757c3.668,0,6.651,7,6.651,15.6s-2.983,15.6-6.651,15.6Z" transform="translate(393.857 269.511)" fill="#2bbfad"/>
              <g id="Grupo_56820" data-name="Grupo 56820" transform="translate(14.18 9.417)">
                <path id="Trazado_107954" data-name="Trazado 107954" d="M-336.878-241.083c-4.261,0-8.671-.126-12.926-.393-4.912-.306-28.523-1.576-25.756-9.046.485-1.311,1.964-5.3,32.284-8.3,14.871-1.467,29.578-1.979,29.722-1.983.251-.074.484.294.52.824s-.14,1.019-.392,1.093a.239.239,0,0,1-.107.005c-.152,0-15.355.534-30.475,2.062-28.756,2.9-30.636,6.723-30.721,7.458,1.555,7.468,60.769,7.892,63.908,3.194-.124-8.442-38.637-4.629-43.154-4.067-.25.1-.49-.252-.536-.779s.121-1.03.37-1.125a.214.214,0,0,1,.1-.015c6.218-.77,44.938-5.154,44.247,6.352-.063,1.035-.485,2.126-4.82,3.081C-319.419-241.656-327.807-241.083-336.878-241.083Z" transform="translate(375.784 260.811)" fill="#24a192"/>
              </g>
              <path id="Trazado_107955" data-name="Trazado 107955" d="M-365.268-268.309l-19.206,5.888c-3.667,0-10.059,25.537-10.059,25.537-2.876.288-5.1,5.393-5,11.444v.1h7.7c-2.81,1.451-5.174,5.429-6.464,10.878l4.045,17.386s22.211-47.9,42.362-56.927c12.759-5.716,23.874-11.115,30.31-14.309Z" transform="translate(399.532 268.309)" fill="#196e63" opacity="0.18" style="isolation: isolate"/>
            </g>
            <path id="Rectángulo_5764" data-name="Rectángulo 5764" d="M-346.362-302.363h188.774c5.423,0,9.819,9.246,9.819,20.651v1.667c0,11.406-4.4,20.652-9.819,20.652H-346.362v-42.97Z" transform="translate(375.811 302.364)" fill="#1448d3"/>
            <g id="Grupo_56822" data-name="Grupo 56822" transform="translate(82.048 0.603)" opacity="0.29">
              <path id="Trazado_107956" data-name="Trazado 107956" d="M-119.5-301.883c-6.082,14.535-93.153,34.563-122.851,40.024q-8.468,1.554-15.92,2.355h136.554c5.212,0,9.437-9.62,9.437-21.486h0C-112.163-290.589-115.125-299.156-119.5-301.883Z" transform="translate(258.272 301.883)" fill="#7a0e21"/>
            </g>
            <rect id="Rectángulo_5765" data-name="Rectángulo 5765" width="84.554" height="42.973" rx="16.444" transform="translate(11.254)" fill="#e7a4c0"/>
            <path id="Trazado_107957" data-name="Trazado 107957" d="M-326.855-302.363h-64.919c-5.422,0-9.819,9.246-9.819,20.651h0v1.669a40.079,40.079,0,0,0,1.067,9.368l-1.887-.265c-8.192,1.33-10.431,8.577-10.431,14.869l2.8,58.573s35.712-46.918,49.258-52.1c8.554-3.269,13.573-8.241,26.557-9.8h7.372c5.423,0,9.819-9.247,9.819-20.652h0v-1.67C-317.039-293.117-321.433-302.361-326.855-302.363Z" transform="translate(412.844 302.364)" fill="#39a4ce"/>
            <path id="Trazado_107958" data-name="Trazado 107958" d="M-383.014-266.478c-3.668,0-6.651-7-6.651-15.6s2.983-15.6,6.651-15.6h63.757c3.667,0,6.651,7,6.651,15.6s-2.984,15.6-6.651,15.6Z" transform="translate(403.505 303.563)" fill="#1448d3"/>
            <g id="Grupo_56823" data-name="Grupo 56823" transform="translate(19.609 9.41)">
              <path id="Trazado_107959" data-name="Trazado 107959" d="M-341.1-275.143c-4.26,0-8.67-.127-12.927-.393-4.911-.306-28.521-1.576-25.756-9.046.487-1.311,1.965-5.3,32.286-8.3,14.872-1.467,29.578-1.979,29.722-1.983.251-.074.484.294.52.824s-.14,1.019-.392,1.093a.242.242,0,0,1-.108.005c-.152,0-15.355.534-30.476,2.062-28.755,2.9-30.635,6.723-30.719,7.458,1.554,7.468,60.769,7.892,63.908,3.194-.124-8.442-38.639-4.629-43.155-4.067-.25.1-.491-.241-.539-.766s.115-1.032.364-1.134a.222.222,0,0,1,.106-.016c6.218-.772,44.939-5.154,44.247,6.35-.061,1.035-.484,2.126-4.814,3.081C-323.638-275.723-332.026-275.143-341.1-275.143Z" transform="translate(380.004 294.871)" fill="#124c64"/>
            </g>
          </g>
        </g>
      </g>
    </g>
  </g>
</svg>
