<svg xmlns="http://www.w3.org/2000/svg" width="295" height="200" viewBox="0 0 295 200">
  <g id="Grupo_57514" data-name="Grupo 57514" transform="translate(2241 8372)">
    <g id="Grupo_57400" data-name="Grupo 57400" transform="translate(-2203 116)">
      <circle id="Elipse_4535" data-name="Elipse 4535" cx="95" cy="95" r="95" transform="translate(6 -8488)" fill="#ff8a5b"/>
      <g id="Grupo_56435" data-name="Grupo 56435" transform="translate(854.354 -8081.873)">
        <rect id="Rectángulo_5574" data-name="Rectángulo 5574" width="295" height="200" transform="translate(-892.354 -406.127)" fill="none"/>
        <g id="Grupo_56434" data-name="Grupo 56434">
          <g id="Grupo_56418" data-name="Grupo 56418">
            <g id="Grupo_56417" data-name="Grupo 56417">
              <path id="Trazado_107180" data-name="Trazado 107180" d="M-843.252-304.1s-.842,3.033,0,4.168,4.462,2.483,4.462,2.483l1.347-4.567Z" fill="#ffc5b3"/>
              <path id="Trazado_107181" data-name="Trazado 107181" d="M-795.542-299.68a25.988,25.988,0,0,1,8.784,6.585c2.357,2.506,2.861,4.662.167,4.155s-3.031-2.161-3.7-2.681-1.175.152-1.175,1.324-.172,2.641-.678,2.167a10.134,10.134,0,0,1-1.347-2.7c-.505-1.137-3.647-4.51-4.359-6.787C-798.546-299.834-797-300.309-795.542-299.68Z" fill="#ffc5b3"/>
              <path id="Trazado_107182" data-name="Trazado 107182" d="M-830.537-337.909c-2.038-1.456-6.17-3.072-9.178,3.641-3.619,8.076-4.891,11.312-5.223,13.964-.766,6.112,1.1,13.845,1.1,13.845l7.285,1.523,3.382-20.98Z" fill="#bfbfbf"/>
              <path id="Trazado_107183" data-name="Trazado 107183" d="M-844.085-307.586v4.373s2.68,2.487,4.493,1.7,3.035-4.207,3.035-4.207S-841.8-305.632-844.085-307.586Z" fill="#efefef"/>
              <path id="Trazado_107184" data-name="Trazado 107184" d="M-817.615-231.1s6.192-2.761,9.256-2.893,3.36,3.466,0,6.256-5.933,3.163-8.683,4.293c-2.478,1.019-3.367,1.1-5.345-.184-2.639-1.71-.525-6.234-.525-6.234Z" fill="#33211f"/>
              <path id="Trazado_107185" data-name="Trazado 107185" d="M-835.524-241.715s4.919-2.055,7.983-2.188,4.163,2.516.8,5.306-5.463,3.407-8.212,4.538c-2.478,1.019-3.355,1.078-5.346-.184-2.711-1.719-.592-6.242-.524-6.234Z" fill="#33211f"/>
              <path id="Trazado_107186" data-name="Trazado 107186" d="M-817.225-302.727s5.4,29.2,5.4,38.371c0,16.17-.143,33.2-.143,33.2s-2.679,2.814-5.287,2.82c-5.871.016-6.463-2.937-6.463-2.937s-.082-19.271-.594-28.024c-.356-6.09-.711-14.67-3.158-21.747-.07,7.269-.052,9.6-.648,17.514-.44,5.838-2.873,21.51-3.006,22.532-1.859,2.247-7.629,3.8-10.553.509.229-2.579,1.852-20.684,1.64-30.07-.2-8.623-2.394-29.046,2.537-33.025C-833.232-307.026-817.225-302.727-817.225-302.727Z" fill="#3f2a29"/>
              <path id="Trazado_107187" data-name="Trazado 107187" d="M-824.13-355.209a5.675,5.675,0,0,0-8.092,2.768c-.995,2.1.411,7.753.633,11.722a9.66,9.66,0,0,1-.893,5.048l2.745,1.132a8.286,8.286,0,0,0,5.607,0l-.089-4.881s2.956-.439,3.473-.914c1.245-1.141,1.9-4.536,1.327-8.916C-820.278-355.768-823.337-354.658-824.13-355.209Z" fill="#ffc5b3"/>
              <path id="Trazado_107188" data-name="Trazado 107188" d="M-841.672-291.662c4.64,4.459,13.693,7.877,19.687,7.377,2.421-.343,7.154-2.4,9.021-5.015.076-5.28-6.837-24.307-3.758-30.88,1.62-3.458-2.053-9.735-3.084-11.991s-4.328-3.629-4.328-3.629l-10.007-1.488s-4.376,7.615-4.958,12.159c-.408,3.182-.137,6.857.037,14.938C-839-307.5-841.183-293.472-841.672-291.662Z" fill="#ddd"/>
              <path id="Trazado_107189" data-name="Trazado 107189" d="M-824.178-337.187s-4,1.178-6.359-.662c-3.338-2.6-3.705,1.059-3.705,1.059a8.759,8.759,0,0,0,4.2,2.853,10.142,10.142,0,0,0,8.056-.635C-821.967-336.378-824.178-337.187-824.178-337.187Z" fill="#efefef"/>
              <path id="Trazado_107190" data-name="Trazado 107190" d="M-821.47-347.526c.327-1.093,1.074-3.634,1.262-4.657a4.984,4.984,0,0,0-1.343-4.642c-1.623-1.688-7.253-2.232-9.289-1.053s-6.368,3.33-4.857,10.351c1.223,5.676,2.41,6.312,4.125,7.645a9.782,9.782,0,0,0,4.136,1.454,4.88,4.88,0,0,0,1.735-3.213c.083-.678,0-2.73,0-2.73s-1.5-2.968-.338-4.026c1.237-1.127,2.5.664,2.793,1.389C-822.231-344.47-821.224-343.279-821.47-347.526Z" fill="#33211f"/>
              <path id="Trazado_107191" data-name="Trazado 107191" d="M-821.985-332.712c1.282-.663,4.756,2.508,6.1,3.687s9.931,16.777,11.278,18.263,10.1,10.475,10.1,10.475-3.368,4.026-4.715,4.061-6.825-2.845-8.756-4.342c-4.357-3.379-11.113-11.114-14.818-16.334S-826.9-330.168-821.985-332.712Z" fill="#bfbfbf"/>
              <path id="Trazado_107192" data-name="Trazado 107192" d="M-801.2-296.81a8.545,8.545,0,0,0,3.835-2.529l1.82-2.021,2.39,2.561s-2.657,3.88-4.023,3.834S-801.2-296.81-801.2-296.81Z" fill="#efefef"/>
            </g>
          </g>
          <g id="Grupo_56424" data-name="Grupo 56424">
            <g id="Grupo_56419" data-name="Grupo 56419">
              <path id="Trazado_107193" data-name="Trazado 107193" d="M-643.26-248.412l-37.193-21.474v-78.571l37.193,21.474Z" fill="#ffd511"/>
              <path id="Trazado_107194" data-name="Trazado 107194" d="M-676.734-342.088v69.772l30.374,17.537v-69.772Z" fill="#fff"/>
              <path id="Trazado_107195" data-name="Trazado 107195" d="M-643.26-248.412l3.268-1.822v-78.571l-3.268,1.822Z" fill="#eab306"/>
              <path id="Trazado_107196" data-name="Trazado 107196" d="M-677.185-350.279l-3.268,1.822,37.193,21.474,3.268-1.822Z" fill="#ffe576"/>
            </g>
            <g id="Grupo_56420" data-name="Grupo 56420">
              <path id="Trazado_107197" data-name="Trazado 107197" d="M-648.706-296.141l-6.771-4.01-.025-.125-2.1-11.288.164-.1c.029-.018,2.82-1.762,2.581-4.066-.256-2.468-1.848-9.876-1.864-9.95l-.064-.3,4.958-.681v.322c0,7.084,3.016,10.5,3.046,10.533l.073.08Zm-6.267-4.364,5.705,3.38V-315.51c-.48-.574-3.035-3.933-3.116-10.505l-3.723.512c.3,1.429,1.577,7.47,1.811,9.714.242,2.333-2.038,4.057-2.683,4.5Z" fill="#aa643d"/>
            </g>
            <g id="Grupo_56421" data-name="Grupo 56421">
              <path id="Trazado_107198" data-name="Trazado 107198" d="M-648.7-258.734l-.424-.251a35.776,35.776,0,0,1-13.69-14.97l-.038-.091.026-.1,6.878-24.424,7.248,4.185Zm-13.558-15.352a35.309,35.309,0,0,0,13,14.363v-34.334l-6.343-3.661Z" fill="#aa643d"/>
            </g>
            <path id="Trazado_107199" data-name="Trazado 107199" d="M-666.11-331.316l-8.551-4.937v-1.807l8.551,4.937Z" fill="#aa643d"/>
            <path id="Trazado_107200" data-name="Trazado 107200" d="M-666.11-295.165l-8.551-4.937v-1.807l8.551,4.937Z" fill="#aa643d"/>
            <path id="Trazado_107201" data-name="Trazado 107201" d="M-666.11-298.763l-8.551-4.937v-1.807l8.551,4.937Z" fill="#aa643d"/>
            <path id="Trazado_107202" data-name="Trazado 107202" d="M-666.11-327.662l-8.551-4.937v-1.807l8.551,4.937Z" fill="#aa643d"/>
            <path id="Trazado_107203" data-name="Trazado 107203" d="M-666.11-310.112l-8.551-4.937v-14.214l8.551,4.937Z" fill="#aa643d"/>
            <path id="Trazado_107204" data-name="Trazado 107204" d="M-666.11-268.381l-8.551-4.937v-17.757l8.551,4.937Z" fill="#aa643d"/>
            <g id="Grupo_56422" data-name="Grupo 56422">
              <rect id="Rectángulo_5647" data-name="Rectángulo 5647" width="0.56" height="15.509" transform="translate(-665.403 -293.739) rotate(-25.122)" fill="#aa643d"/>
            </g>
            <g id="Grupo_56423" data-name="Grupo 56423">
              <rect id="Rectángulo_5648" data-name="Rectángulo 5648" width="12.906" height="0.561" transform="matrix(0.834, -0.552, 0.552, 0.834, -663.672, -302.834)" fill="#aa643d"/>
            </g>
          </g>
          <g id="Grupo_56430" data-name="Grupo 56430">
            <g id="Grupo_56425" data-name="Grupo 56425">
              <path id="Trazado_107205" data-name="Trazado 107205" d="M-695.2-291.155l-37.193-21.474V-391.2l37.193,21.474Z" fill="#fe733e"/>
              <path id="Trazado_107206" data-name="Trazado 107206" d="M-728.674-384.832v69.772l30.374,17.537v-69.772Z" fill="#fff"/>
              <path id="Trazado_107207" data-name="Trazado 107207" d="M-695.2-291.155l3.268-1.822v-78.571l-3.268,1.822Z" fill="#f25e30"/>
              <path id="Trazado_107208" data-name="Trazado 107208" d="M-729.124-393.022l-3.268,1.822,37.193,21.474,3.268-1.822Z" fill="#ff8a66"/>
            </g>
            <path id="Trazado_107209" data-name="Trazado 107209" d="M-702.249-364.8l-8.551-4.937v-1.807l8.551,4.937Z" fill="#aa643d"/>
            <path id="Trazado_107210" data-name="Trazado 107210" d="M-702.249-328.649l-8.551-4.937v-1.807l8.551,4.937Z" fill="#aa643d"/>
            <path id="Trazado_107211" data-name="Trazado 107211" d="M-702.249-303.549l-8.551-4.937v-10.671l8.551,4.937Z" fill="#aa643d"/>
            <path id="Trazado_107212" data-name="Trazado 107212" d="M-702.249-332.247l-8.551-4.937v-1.807l8.551,4.937Z" fill="#aa643d"/>
            <path id="Trazado_107213" data-name="Trazado 107213" d="M-702.249-361.146l-8.551-4.937v-1.807l8.551,4.937Z" fill="#aa643d"/>
            <path id="Trazado_107214" data-name="Trazado 107214" d="M-702.249-353.547l-8.551-4.937v-4.264l8.551,4.937Z" fill="#aa643d"/>
            <path id="Trazado_107215" data-name="Trazado 107215" d="M-702.249-336.522l-8.551-4.937v-15.409l8.551,4.937Z" fill="#aa643d"/>
            <path id="Trazado_107216" data-name="Trazado 107216" d="M-702.249-316.578l-8.551-4.937v-8.879l8.551,4.937Z" fill="#aa643d"/>
            <g id="Grupo_56426" data-name="Grupo 56426">
              <path id="Trazado_107217" data-name="Trazado 107217" d="M-716.445-311.432l-7.216-4.166,0-.158c-.039-1.8-.106-5.4-.106-9.249,0-5.171-.872-23.5-1.139-28.993s-1.811-23.357-1.826-23.537l-.033-.383,7.857,1.79.01.213c.008.156.824,15.72,4.139,17.635l.166.1-.125.868a149.808,149.808,0,0,0-1.717,17.342c-.176,6-.052,22.989-.009,28.052Zm-6.661-4.494,6.093,3.517c-.046-5.591-.158-21.751.012-27.583a150.248,150.248,0,0,1,1.724-17.4l.071-.5c-3.26-2.3-4.135-15.827-4.244-17.776l-6.694-1.525c.227,2.639,1.549,18.13,1.795,23.174.267,5.5,1.14,23.837,1.14,29.021C-723.209-321.27-723.147-317.773-723.106-315.926Z" fill="#aa643d"/>
            </g>
            <g id="Grupo_56427" data-name="Grupo 56427">
              <rect id="Rectángulo_5649" data-name="Rectángulo 5649" width="0.561" height="7.736" transform="matrix(0.5, -0.866, 0.866, 0.5, -723.601, -320.097)" fill="#aa643d"/>
            </g>
            <g id="Grupo_56428" data-name="Grupo 56428">
              <rect id="Rectángulo_5650" data-name="Rectángulo 5650" width="8.2" height="0.562" transform="matrix(0.808, -0.589, 0.589, 0.808, -720.277, -328.878)" fill="#aa643d"/>
            </g>
            <g id="Grupo_56429" data-name="Grupo 56429">
              <rect id="Rectángulo_5651" data-name="Rectángulo 5651" width="0.562" height="10.281" transform="matrix(0.104, -0.995, 0.995, 0.104, -722.416, -371.268)" fill="#aa643d"/>
            </g>
          </g>
          <g id="Grupo_56433" data-name="Grupo 56433">
            <path id="Trazado_107218" data-name="Trazado 107218" d="M-761.977-233.878-797.8-250.2v-38.725l35.822,11.063Z" fill="#d3b875"/>
            <path id="Trazado_107219" data-name="Trazado 107219" d="M-708.2-259.931l-53.776,26.054v-43.988l53.776-17.709Z" fill="#b78c58"/>
            <path id="Trazado_107220" data-name="Trazado 107220" d="M-717.951-223.824l-26.576-12.113v-28.73l26.576,8.208Z" fill="#d3b875"/>
            <path id="Trazado_107221" data-name="Trazado 107221" d="M-678.055-243.153l-39.9,19.329v-32.635l39.9-15.592Z" fill="#b78c58"/>
            <path id="Trazado_107222" data-name="Trazado 107222" d="M-681.25-219.232l-18.6-8.478v-20.108l18.6,5.745Z" fill="#d3b875"/>
            <path id="Trazado_107223" data-name="Trazado 107223" d="M-658.977-231.29l-22.273,12.058v-22.841l22.273-8.936Z" fill="#b78c58"/>
            <path id="Trazado_107224" data-name="Trazado 107224" d="M-797.8-288.929l35.822,11.063,53.665-17.709-38.078-7.526Z" fill="#99744b"/>
            <path id="Trazado_107225" data-name="Trazado 107225" d="M-746.391-303.1l12.241-12.8,36.832,6.112-10.994,14.21Z" fill="#d3b875"/>
            <path id="Trazado_107226" data-name="Trazado 107226" d="M-775.451-252.986v8.443l6.79,2.96v-9.749Z" fill="#fff"/>
            <path id="Trazado_107227" data-name="Trazado 107227" d="M-775.1-252.491l5.855,1.495v.312L-775.1-252.2Z" fill="#4c402c"/>
            <path id="Trazado_107228" data-name="Trazado 107228" d="M-775.1-251.806l5.855,1.495V-250l-5.855-1.516Z" fill="#4c402c"/>
            <path id="Trazado_107229" data-name="Trazado 107229" d="M-775.1-251.009l5.855,1.495v.311l-5.855-1.516Z" fill="#4c402c"/>
            <path id="Trazado_107230" data-name="Trazado 107230" d="M-775.1-250.241l5.855,1.495v.311l-5.855-1.515Z" fill="#4c402c"/>
            <path id="Trazado_107231" data-name="Trazado 107231" d="M-775.1-246.661l2.832.877-.008.353-2.823-.939Z" fill="#4c402c"/>
            <path id="Trazado_107232" data-name="Trazado 107232" d="M-775.1-246.153l2.832.877-.008.353-2.823-.939Z" fill="#4c402c"/>
            <path id="Trazado_107233" data-name="Trazado 107233" d="M-775.1-245.538l2.832.877-.008.353-2.823-.939Z" fill="#4c402c"/>
            <path id="Trazado_107234" data-name="Trazado 107234" d="M-746.391-303.1v20.034l-15.586,5.2L-797.8-288.929Z" fill="#d3b875"/>
            <path id="Trazado_107235" data-name="Trazado 107235" d="M-782.817-304.779l-14.981,15.85,35.822,11.063,12.257-17.709Z" fill="#f2d08b"/>
            <g id="Grupo_56431" data-name="Grupo 56431">
              <ellipse id="Elipse_4503" data-name="Elipse 4503" cx="1.567" cy="2.154" rx="1.567" ry="2.154" transform="translate(-789.159 -279.525)" fill="#99744b"/>
              <path id="Trazado_107236" data-name="Trazado 107236" d="M-781.064-275.935c0,1.19-.7,2.155-1.567,2.155s-1.567-.965-1.567-2.155.7-2.154,1.567-2.154S-781.064-277.125-781.064-275.935Z" fill="#99744b"/>
              <path id="Trazado_107237" data-name="Trazado 107237" d="M-775.841-274.5c0,1.19-.7,2.155-1.567,2.155s-1.567-.965-1.567-2.155.7-2.154,1.567-2.154S-775.841-275.688-775.841-274.5Z" fill="#99744b"/>
            </g>
            <path id="Trazado_107238" data-name="Trazado 107238" d="M-744.527-264.666l26.576,8.208,39.9-15.592-25.321-5.321Z" fill="#f2d08b"/>
            <path id="Trazado_107239" data-name="Trazado 107239" d="M-744.527-264.666l-7.551,9.622,26.244,9.612,7.883-11.026Z" fill="#f2d08b"/>
            <path id="Trazado_107240" data-name="Trazado 107240" d="M-703.376-277.371l9.923-3.656,24.808,4.374-9.41,4.6Z" fill="#d3b875"/>
            <path id="Trazado_107241" data-name="Trazado 107241" d="M-732.6-260.984l40.829-13.949,1.178.247-40.643,14.123Z" fill="#d3b875"/>
            <path id="Trazado_107242" data-name="Trazado 107242" d="M-744.527-264.666l26.576,8.208.519-.2-26.651-8.142Z" fill="#d3b875"/>
            <path id="Trazado_107243" data-name="Trazado 107243" d="M-681.25-242.073l22.273-8.936c-.662.265-17.5-4.04-17.5-4.04l-23.372,7.231Z" fill="#99744b"/>
            <path id="Trazado_107244" data-name="Trazado 107244" d="M-699.851-247.818l10.468-6.671,18,4.248-9.866,8.168Z" fill="#f2d08b"/>
            <path id="Trazado_107245" data-name="Trazado 107245" d="M-676.479-255.049h-7.312l17.5,4.365,7.318-.325Z" fill="#d3b875"/>
            <g id="Grupo_56432" data-name="Grupo 56432">
              <path id="Trazado_107246" data-name="Trazado 107246" d="M-672.364-226.86c0,.477-.355.64-.862.863l-5.319,2.685c-.718.357-.862-.386-.862-.863v-8.193c0-.476.311-.589.862-.862l5.319-2.685c1.126-.575.788.594.862,2.8Z" fill="#fff"/>
              <path id="Trazado_107247" data-name="Trazado 107247" d="M-678.862-231.56l5.278-2.565v.295l-5.278,2.654Z" fill="#4c402c"/>
              <path id="Trazado_107248" data-name="Trazado 107248" d="M-678.862-230.551l5.278-2.565v.295l-5.278,2.654Z" fill="#4c402c"/>
              <path id="Trazado_107249" data-name="Trazado 107249" d="M-678.862-229.417l5.278-2.565v.295l-5.278,2.654Z" fill="#4c402c"/>
              <path id="Trazado_107250" data-name="Trazado 107250" d="M-678.737-226.307l3.336-1.622.041.307-3.378,1.7Z" fill="#4c402c"/>
              <path id="Trazado_107251" data-name="Trazado 107251" d="M-678.737-225.541l3.336-1.622.041.307-3.378,1.7Z" fill="#4c402c"/>
              <path id="Trazado_107252" data-name="Trazado 107252" d="M-678.737-224.759l3.336-1.622.041.307-3.378,1.7Z" fill="#4c402c"/>
            </g>
          </g>
        </g>
      </g>
    </g>
  </g>
</svg>
