<svg xmlns="http://www.w3.org/2000/svg" xmlns:xlink="http://www.w3.org/1999/xlink" width="78" height="78" viewBox="0 0 78 78">
  <defs>
    <clipPath id="clip-path">
      <rect id="Rectángulo_6496" data-name="Rectángulo 6496" width="78" height="78" transform="translate(207 2726)" fill="#fff"/>
    </clipPath>
  </defs>
  <g id="Enmascarar_grupo_62" data-name="Enmascarar grupo 62" transform="translate(-207 -2726)" clip-path="url(#clip-path)">
    <g id="tendedero" transform="translate(207 2726)">
      <g id="Grupo_57479" data-name="Grupo 57479">
        <g id="Grupo_57474" data-name="Grupo 57474">
          <g id="Grupo_57471" data-name="Grupo 57471">
            <path id="Trazado_109448" data-name="Trazado 109448" d="M58.191,49.772V29.3l2.154,2.154,6.771-6.771-8.772-8.772h-23.7l-8.772,8.772,6.771,6.771L34.8,29.3V49.772Z" fill="#dd636e"/>
          </g>
          <g id="Grupo_57472" data-name="Grupo 57472">
            <path id="Trazado_109449" data-name="Trazado 109449" d="M25.874,24.688l6.771,6.771L34.8,29.3V49.773H46.894V35.144l8.279-8.279a3.078,3.078,0,0,0,0-4.353l-6.6-6.6H34.646Z" fill="#da4a54"/>
          </g>
          <g id="Grupo_57473" data-name="Grupo 57473">
            <path id="Trazado_109450" data-name="Trazado 109450" d="M40.345,15.916a6.156,6.156,0,1,0,12.311,0Z" fill="#365e7d"/>
          </g>
        </g>
        <g id="Grupo_57478" data-name="Grupo 57478">
          <g id="Grupo_57475" data-name="Grupo 57475">
            <path id="Trazado_109451" data-name="Trazado 109451" d="M43.2,49.772V29.3l2.154,2.154,6.771-6.771-8.772-8.772h-23.7l-8.772,8.772,6.771,6.771L19.809,29.3V49.772Z" fill="#b3e59f"/>
          </g>
          <g id="Grupo_57476" data-name="Grupo 57476">
            <path id="Trazado_109452" data-name="Trazado 109452" d="M34.418,36.886c-3.179,2.706-9.751,5.742-14.609,5.742v7.145H43.2V29.3l2.154,2.154,6.771-6.771-7.2-7.2c-1.448,5.865-4.128,13.966-10.508,19.4Z" fill="#95d6a4"/>
          </g>
          <g id="Grupo_57477" data-name="Grupo 57477">
            <path id="Trazado_109453" data-name="Trazado 109453" d="M25.354,15.916a6.156,6.156,0,1,0,12.311,0Z" fill="#407093"/>
          </g>
        </g>
      </g>
      <g id="Grupo_57481" data-name="Grupo 57481">
        <g id="Grupo_57480" data-name="Grupo 57480">
          <path id="Trazado_109454" data-name="Trazado 109454" d="M1.143,1.143H6.067v70.79H1.143Z" transform="translate(7.21 73.075) rotate(180)" fill="#407093"/>
        </g>
      </g>
      <g id="Grupo_57483" data-name="Grupo 57483">
        <g id="Grupo_57482" data-name="Grupo 57482">
          <path id="Trazado_109455" data-name="Trazado 109455" d="M71.933,1.143h4.925v70.79H71.933Z" transform="translate(148.79 73.075) rotate(180)" fill="#407093"/>
        </g>
      </g>
      <g id="Grupo_57486" data-name="Grupo 57486">
        <g id="Grupo_57484" data-name="Grupo 57484">
          <path id="Trazado_109456" data-name="Trazado 109456" d="M36.538,54.7H16.84a2.462,2.462,0,1,0,0,4.925h19.7a2.462,2.462,0,1,0,0-4.925Z" fill="#bc95e2"/>
        </g>
        <g id="Grupo_57485" data-name="Grupo 57485">
          <path id="Trazado_109457" data-name="Trazado 109457" d="M39,52.235a2.462,2.462,0,0,0-2.462-2.462H16.84a2.462,2.462,0,1,0,0,4.925h19.7A2.462,2.462,0,0,0,39,52.235Z" fill="#9dc6fb"/>
        </g>
      </g>
      <g id="Grupo_57489" data-name="Grupo 57489">
        <g id="Grupo_57487" data-name="Grupo 57487">
          <path id="Trazado_109458" data-name="Trazado 109458" d="M61.16,54.7h-19.7a2.462,2.462,0,0,0,0,4.925h19.7a2.462,2.462,0,1,0,0-4.925Z" fill="#b3e59f"/>
        </g>
        <g id="Grupo_57488" data-name="Grupo 57488">
          <path id="Trazado_109459" data-name="Trazado 109459" d="M63.623,52.235a2.462,2.462,0,0,0-2.462-2.462h-19.7a2.462,2.462,0,0,0,0,4.925h19.7A2.462,2.462,0,0,0,63.623,52.235Z" fill="#ffe07d"/>
        </g>
      </g>
      <g id="Grupo_57490" data-name="Grupo 57490">
        <path id="Trazado_109460" data-name="Trazado 109460" d="M10.684,59.622H67.316V76.857H10.684Z" fill="#c38959"/>
      </g>
      <g id="Grupo_57491" data-name="Grupo 57491">
        <path id="Trazado_109461" data-name="Trazado 109461" d="M63.623,59.622h3.693V76.857H63.623Z" fill="#b17a4a"/>
      </g>
      <g id="Grupo_57492" data-name="Grupo 57492">
        <path id="Trazado_109462" data-name="Trazado 109462" d="M35.307,44.848h7.387V91.631H35.307Z" transform="translate(107.239 29.239) rotate(90)" fill="#e4f6ff"/>
      </g>
      <g id="Grupo_57493" data-name="Grupo 57493">
        <path id="Trazado_109463" data-name="Trazado 109463" d="M76.857,73.075A1.143,1.143,0,0,0,78,71.933V1.143A1.143,1.143,0,0,0,76.857,0H71.933A1.143,1.143,0,0,0,70.79,1.143V4.925H50.106V3.6a3.6,3.6,0,0,0-7.21,0v1.32H35.109V3.6a3.6,3.6,0,1,0-7.21,0v1.32H7.21V1.143A1.143,1.143,0,0,0,6.067,0H1.143A1.143,1.143,0,0,0,0,1.143v70.79a1.143,1.143,0,0,0,1.143,1.143h1.32v2.639H1.143a1.143,1.143,0,0,0,0,2.285H6.067a1.143,1.143,0,0,0,0-2.285H4.747V73.075h1.32A1.143,1.143,0,0,0,7.21,71.933V7.21H32.824v1.32a1.321,1.321,0,0,1-1.32,1.32,1.143,1.143,0,0,0-1.143,1.143v3.783H19.655a1.143,1.143,0,0,0-.808.335l-8.772,8.77a1.143,1.143,0,0,0,0,1.616l6.772,6.772a1.142,1.142,0,0,0,1.616,0l.2-.2v3.073a1.143,1.143,0,0,0,2.285,0V29.3A1.143,1.143,0,0,0,19,28.5l-1.346,1.346L12.5,24.687l7.629-7.628H24.3a7.3,7.3,0,0,0,14.416,0h4.163l7.629,7.628-5.156,5.156L44.008,28.5a1.143,1.143,0,0,0-1.95.808V48.629H20.952V40.468a1.143,1.143,0,0,0-2.285,0V48.63H16.84A3.6,3.6,0,0,0,14.21,54.7a3.594,3.594,0,0,0-.724,3.782h-2.8a1.143,1.143,0,0,0-1.143,1.143V76.857A1.143,1.143,0,0,0,10.684,78H67.316a1.143,1.143,0,0,0,1.143-1.143V59.622a1.143,1.143,0,0,0-1.143-1.143h-2.8A3.594,3.594,0,0,0,63.79,54.7,3.6,3.6,0,0,0,61.16,48.63H59.333V41.663a1.143,1.143,0,1,0-2.285,0V48.63H44.343V32.063l.2.2a1.142,1.142,0,0,0,1.616,0L52.934,25.5a1.143,1.143,0,0,0,0-1.616L50.84,21.786a7.311,7.311,0,0,0,2.868-4.726h4.164L65.5,24.687l-5.156,5.156L59,28.5a1.143,1.143,0,0,0-1.95.808v7.026a1.143,1.143,0,0,0,2.285,0V32.063l.2.2a1.142,1.142,0,0,0,1.616,0L67.925,25.5a1.143,1.143,0,0,0,0-1.616l-8.772-8.77a1.143,1.143,0,0,0-.808-.335h-10.7V11.949a3.611,3.611,0,0,0,2.462-3.419V7.21H70.79V71.933a1.143,1.143,0,0,0,1.143,1.143h1.32v2.639h-1.32a1.143,1.143,0,0,0,0,2.285h4.924a1.143,1.143,0,0,0,0-2.285h-1.32V73.075ZM4.925,70.79H2.285V2.285H4.925ZM16.84,50.915h19.7a1.32,1.32,0,0,1,0,2.64H16.84a1.32,1.32,0,1,1,0-2.64Zm-1.32,6.244a1.321,1.321,0,0,1,1.32-1.32h19.7a1.32,1.32,0,1,1,0,2.64H16.84a1.321,1.321,0,0,1-1.32-1.32ZM66.174,75.715H11.826V60.764H66.174ZM41.462,58.479a1.32,1.32,0,1,1,0-2.64h19.7a1.32,1.32,0,1,1,0,2.64ZM62.48,52.235a1.321,1.321,0,0,1-1.32,1.32h-19.7a1.32,1.32,0,0,1,0-2.64h19.7a1.321,1.321,0,0,1,1.32,1.32ZM45.181,3.6a1.32,1.32,0,1,1,2.64,0v1.32H45.181V3.6Zm-15,1.32V3.6a1.32,1.32,0,1,1,2.64,0v1.32Zm1.325,16a5.021,5.021,0,0,1-4.88-3.87h9.76A5.021,5.021,0,0,1,31.51,20.929ZM49.2,20.143l-3.084-3.084H51.38A5.02,5.02,0,0,1,49.2,20.143ZM47.821,8.529a1.321,1.321,0,0,1-1.32,1.32,1.143,1.143,0,0,0-1.143,1.143v3.783H32.647V11.949A3.611,3.611,0,0,0,35.11,8.529V7.21H47.821v1.32ZM73.075,2.285h2.639V70.79H73.075Z"/>
        <path id="Trazado_109464" data-name="Trazado 109464" d="M24.476,64.547a1.143,1.143,0,0,0,1.143,1.143h35.63v5.1h-44.5v-5.1h3.534a1.143,1.143,0,1,0,0-2.285H15.609a1.143,1.143,0,0,0-1.143,1.143v7.386a1.143,1.143,0,0,0,1.143,1.143H62.391a1.143,1.143,0,0,0,1.143-1.143V64.547A1.143,1.143,0,0,0,62.391,63.4H25.618A1.143,1.143,0,0,0,24.476,64.547Z"/>
      </g>
    </g>
  </g>
</svg>
