<svg xmlns="http://www.w3.org/2000/svg" xmlns:xlink="http://www.w3.org/1999/xlink" width="85" height="85" viewBox="0 0 85 85">
  <defs>
    <clipPath id="clip-path">
      <rect id="Rectángulo_6439" data-name="Rectángulo 6439" width="50" height="50" transform="translate(828 3946)" fill="#fff"/>
    </clipPath>
  </defs>
  <g id="Grupo_57510" data-name="Grupo 57510" transform="translate(-810 -3928)">
    <g id="Grupo_57509" data-name="Grupo 57509">
      <circle id="Elipse_4542" data-name="Elipse 4542" cx="42.5" cy="42.5" r="42.5" transform="translate(810 3928)" fill="#9f0925"/>
      <g id="Enmascarar_grupo_59" data-name="Enmascarar grupo 59" clip-path="url(#clip-path)">
        <g id="maquina-de-coser" transform="translate(828 3946)">
          <g id="Grupo_57433" data-name="Grupo 57433">
            <path id="Trazado_109299" data-name="Trazado 109299" d="M11.827,27.426l-1.508.2H8.3a.837.837,0,0,1-.837-.837V23.644h5.2V26.59A.837.837,0,0,1,11.827,27.426Z" fill="#deecf1"/>
            <path id="Trazado_109300" data-name="Trazado 109300" d="M11.028,23.644v3.141a.837.837,0,0,1-.837.837h1.831a.837.837,0,0,0,.837-.837V23.644Z" fill="#cbe5e8"/>
            <path id="Trazado_109301" data-name="Trazado 109301" d="M12.688,24.425l-1.512.2H7.343a.789.789,0,0,1-.789-.789V20.226h6.923v3.41A.789.789,0,0,1,12.688,24.425Z" fill="#eef5f6"/>
            <path id="Trazado_109302" data-name="Trazado 109302" d="M11.817,20.226v3.605a.789.789,0,0,1-.789.789h1.953a.789.789,0,0,0,.789-.789V20.226Z" fill="#deecf1"/>
            <path id="Trazado_109303" data-name="Trazado 109303" d="M41.071,2.024h1.648a.5.5,0,0,1,.5.5V8.859H40.569V2.525A.5.5,0,0,1,41.071,2.024Z" fill="#fe99a0"/>
            <path id="Trazado_109304" data-name="Trazado 109304" d="M32.391,5.136h1.648a.5.5,0,0,1,.5.5V8.859H31.889V5.638A.5.5,0,0,1,32.391,5.136Z" fill="#a79ba7"/>
            <path id="Trazado_109305" data-name="Trazado 109305" d="M23.71,5.136h1.648a.5.5,0,0,1,.5.5V8.859H23.209V5.638A.5.5,0,0,1,23.71,5.136Z" fill="#a79ba7"/>
            <path id="Trazado_109306" data-name="Trazado 109306" d="M47.632,23.011H45.253V9.845h2.379a1.635,1.635,0,0,1,1.635,1.635v9.895A1.635,1.635,0,0,1,47.632,23.011Z" fill="#fe99a0"/>
            <path id="Trazado_109307" data-name="Trazado 109307" d="M46.035,10.084V45.811H3.77V35.669a1,1,0,0,1,1-1h1.78l3.608.977,3.607-.977h2.838l1.886.977H31.322V22.078a4.186,4.186,0,0,0-4.187-4.187h-6.2l-.732-.2-.732.2H16.186l-.977-5,.977-5h3.281l.865.2.6-.2H42.172l1.856.2A2.007,2.007,0,0,1,46.035,10.084Z" fill="#eef5f6"/>
            <g id="Grupo_57431" data-name="Grupo 57431">
              <path id="Trazado_109308" data-name="Trazado 109308" d="M44.224,7.882H41.969a2.007,2.007,0,0,1,2.007,2.007V45.811H46.23V9.889A2.007,2.007,0,0,0,44.224,7.882Z" fill="#deecf1"/>
            </g>
            <path id="Trazado_109309" data-name="Trazado 109309" d="M4.773,7.882a1,1,0,0,0-1,1V20.2a1,1,0,0,0,1,1h7.28l2.934-.2a1,1,0,0,0,1-1V8.078l-3.09-.2Z" fill="#fe99a0"/>
            <path id="Trazado_109310" data-name="Trazado 109310" d="M12.9,7.882V20.2a1,1,0,0,1-1,1h3.285a1,1,0,0,0,1-1V7.882Z" fill="#fd8087"/>
            <path id="Trazado_109311" data-name="Trazado 109311" d="M12.895,37.281l-1.863.2h-3.8a.68.68,0,0,1-.68-.68V34.644h4.97l2.051.2V36.6A.68.68,0,0,1,12.895,37.281Z" fill="#fe99a0"/>
            <path id="Trazado_109312" data-name="Trazado 109312" d="M11.524,34.644V36.8a.68.68,0,0,1-.68.68H13.09a.68.68,0,0,0,.68-.68V34.644Z" fill="#fd8087"/>
            <path id="Trazado_109313" data-name="Trazado 109313" d="M40.063,41.6l-2.131.2H33l-4.064-.977-4.064.977H17.61a1,1,0,0,1-1-1V34.666H37.99l2.073.2a1,1,0,0,1,1,1v4.73A1,1,0,0,1,40.063,41.6Z" fill="#a79ba7"/>
            <g id="Grupo_57432" data-name="Grupo 57432">
              <path id="Trazado_109314" data-name="Trazado 109314" d="M40.258,34.666H37.817a1,1,0,0,1,1,1V40.79a1,1,0,0,1-1,1h2.441a1,1,0,0,0,1-1V35.669A1,1,0,0,0,40.258,34.666Z" fill="#918291"/>
            </g>
            <path id="Trazado_109315" data-name="Trazado 109315" d="M32.705,41.6l-1.953.2H24.87l.744-2.062a.976.976,0,0,1,.919-.645h2.685l1.826.2a.977.977,0,0,1,.919.645Z" fill="#918291"/>
            <path id="Trazado_109316" data-name="Trazado 109316" d="M32.254,39.73a.976.976,0,0,0-.919-.645H29.09a.977.977,0,0,1,.919.645l.744,2.063H33Z" fill="#7a6d79"/>
            <circle id="Elipse_4544" data-name="Elipse 4544" cx="4.379" cy="4.379" r="4.379" transform="translate(34.397 23.011)" fill="#a79ba7"/>
            <circle id="Elipse_4545" data-name="Elipse 4545" cx="1.488" cy="1.488" r="1.488" transform="translate(37.288 25.902)" fill="#eef5f6"/>
            <path id="Trazado_109317" data-name="Trazado 109317" d="M42.731,11.589v2.6a.5.5,0,0,1-.5.5l-1.661.2H23.71a.5.5,0,0,1-.5-.5V11.393a.5.5,0,0,1,.5-.5H40.569l1.661.2A.5.5,0,0,1,42.731,11.589Z" fill="#deecf1"/>
            <path id="Trazado_109318" data-name="Trazado 109318" d="M49.072,45.547v1.722a.513.513,0,0,1-.513.513l-2.329.2H1.245a.513.513,0,0,1-.513-.513V45.351a.513.513,0,0,1,.513-.513H46.23l2.329.2A.513.513,0,0,1,49.072,45.547Z" fill="#fe99a0"/>
            <path id="Trazado_109319" data-name="Trazado 109319" d="M49.268,45.351v2.112a.513.513,0,0,1-.513.513H46.23V44.839h2.524A.513.513,0,0,1,49.268,45.351Z" fill="#fd8087"/>
            <path id="Trazado_109320" data-name="Trazado 109320" d="M42.927,11.393V14.38a.5.5,0,0,1-.5.5H40.569V10.892h1.856A.5.5,0,0,1,42.927,11.393Z" fill="#cbe5e8"/>
          </g>
          <g id="Grupo_57434" data-name="Grupo 57434">
            <path id="Trazado_109321" data-name="Trazado 109321" d="M22.774,44.839h25.98a.513.513,0,0,1,.513.513v2.112a.513.513,0,0,1-.513.513H1.245a.513.513,0,0,1-.513-.513V45.351a.513.513,0,0,1,.513-.513H19.356" fill="none" stroke="#000" stroke-linecap="round" stroke-linejoin="round" stroke-miterlimit="10" stroke-width="1.465"/>
            <path id="Trazado_109322" data-name="Trazado 109322" d="M46.586,9.845h1.046a1.635,1.635,0,0,1,1.635,1.635v9.895a1.635,1.635,0,0,1-1.635,1.635H46.51" fill="none" stroke="#000" stroke-linecap="round" stroke-linejoin="round" stroke-miterlimit="10" stroke-width="1.465"/>
            <path id="Trazado_109323" data-name="Trazado 109323" d="M3.77,17.968V20.2a1,1,0,0,0,1,1H15.183a1,1,0,0,0,1-1V17.892h6.979" fill="none" stroke="#000" stroke-linecap="round" stroke-linejoin="round" stroke-miterlimit="10" stroke-width="1.465"/>
            <path id="Trazado_109324" data-name="Trazado 109324" d="M26.583,17.892h.553a4.186,4.186,0,0,1,4.187,4.187V34.666H4.773a1,1,0,0,0-1,1v8.779" fill="none" stroke="#000" stroke-linecap="round" stroke-linejoin="round" stroke-miterlimit="10" stroke-width="1.465"/>
            <line id="Línea_251" data-name="Línea 251" y1="10.376" transform="translate(46.23 34.115)" fill="none" stroke="#000" stroke-linecap="round" stroke-linejoin="round" stroke-miterlimit="10" stroke-width="1.465"/>
            <path id="Trazado_109325" data-name="Trazado 109325" d="M3.77,14.55V8.886a1,1,0,0,1,1-1h39.45A2.007,2.007,0,0,1,46.23,9.889V30.7" fill="none" stroke="#000" stroke-linecap="round" stroke-linejoin="round" stroke-miterlimit="10" stroke-width="1.465"/>
            <path id="Trazado_109326" data-name="Trazado 109326" d="M12.859,24.886v1.9a.837.837,0,0,1-.837.837H8.3a.837.837,0,0,1-.837-.837V24.854" fill="none" stroke="#000" stroke-linecap="round" stroke-linejoin="round" stroke-miterlimit="10" stroke-width="1.465"/>
            <line id="Línea_252" data-name="Línea 252" y2="3.981" transform="translate(10.162 27.778)" fill="none" stroke="#000" stroke-linecap="round" stroke-linejoin="round" stroke-miterlimit="10" stroke-width="1.465"/>
            <path id="Trazado_109327" data-name="Trazado 109327" d="M13.77,21.371v2.461a.789.789,0,0,1-.789.789H7.343a.789.789,0,0,1-.789-.789V21.322" fill="none" stroke="#000" stroke-linecap="round" stroke-linejoin="round" stroke-miterlimit="10" stroke-width="1.465"/>
            <path id="Trazado_109328" data-name="Trazado 109328" d="M13.77,34.879V36.8a.68.68,0,0,1-.68.68H7.233a.68.68,0,0,1-.68-.68V34.815" fill="none" stroke="#000" stroke-linecap="round" stroke-linejoin="round" stroke-miterlimit="10" stroke-width="1.465"/>
            <path id="Trazado_109329" data-name="Trazado 109329" d="M31.322,34.666h8.936a1,1,0,0,1,1,1V40.79a1,1,0,0,1-1,1H17.61a1,1,0,0,1-1-1v-5.91" fill="none" stroke="#000" stroke-linecap="round" stroke-linejoin="round" stroke-miterlimit="10" stroke-width="1.465"/>
            <path id="Trazado_109330" data-name="Trazado 109330" d="M24.935,41.614l.679-1.884a.976.976,0,0,1,.919-.645h4.8a.977.977,0,0,1,.919.645l.639,1.772" fill="none" stroke="#000" stroke-linecap="round" stroke-linejoin="round" stroke-miterlimit="10" stroke-width="1.465"/>
            <path id="Trazado_109331" data-name="Trazado 109331" d="M40.569,7.679V2.525a.5.5,0,0,1,.5-.5h1.648a.5.5,0,0,1,.5.5V7.614" fill="none" stroke="#000" stroke-linecap="round" stroke-linejoin="round" stroke-miterlimit="10" stroke-width="1.465"/>
            <path id="Trazado_109332" data-name="Trazado 109332" d="M31.889,7.679V5.638a.5.5,0,0,1,.5-.5h1.648a.5.5,0,0,1,.5.5V7.614" fill="none" stroke="#000" stroke-linecap="round" stroke-linejoin="round" stroke-miterlimit="10" stroke-width="1.465"/>
            <path id="Trazado_109333" data-name="Trazado 109333" d="M23.209,7.679V5.638a.5.5,0,0,1,.5-.5h1.648a.5.5,0,0,1,.5.5V7.679" fill="none" stroke="#000" stroke-linecap="round" stroke-linejoin="round" stroke-miterlimit="10" stroke-width="1.465"/>
            <circle id="Elipse_4546" data-name="Elipse 4546" cx="4.467" cy="4.467" r="4.467" transform="translate(34.309 22.922)" fill="none" stroke="#000" stroke-linecap="round" stroke-linejoin="round" stroke-miterlimit="10" stroke-width="1.465"/>
            <line id="Línea_253" data-name="Línea 253" y2="2.335" transform="translate(38.776 23.372)" fill="none" stroke="#000" stroke-linecap="round" stroke-linejoin="round" stroke-miterlimit="10" stroke-width="1.465"/>
            <path id="Trazado_109334" data-name="Trazado 109334" d="M40.5,18.355l-1.726,2.074L37.05,18.355" fill="none" stroke="#000" stroke-linecap="round" stroke-linejoin="round" stroke-miterlimit="10" stroke-width="1.465"/>
            <line id="Línea_254" data-name="Línea 254" x2="2.335" transform="translate(34.758 27.389)" fill="none" stroke="#000" stroke-linecap="round" stroke-linejoin="round" stroke-miterlimit="10" stroke-width="1.465"/>
            <line id="Línea_255" data-name="Línea 255" y1="2.335" transform="translate(38.776 29.072)" fill="none" stroke="#000" stroke-linecap="round" stroke-linejoin="round" stroke-miterlimit="10" stroke-width="1.465"/>
            <line id="Línea_256" data-name="Línea 256" x1="2.335" transform="translate(40.459 27.389)" fill="none" stroke="#000" stroke-linecap="round" stroke-linejoin="round" stroke-miterlimit="10" stroke-width="1.465"/>
            <circle id="Elipse_4547" data-name="Elipse 4547" cx="1.488" cy="1.488" r="1.488" transform="translate(37.288 25.902)" fill="none" stroke="#000" stroke-linecap="round" stroke-linejoin="round" stroke-miterlimit="10" stroke-width="1.465"/>
            <line id="Línea_257" data-name="Línea 257" y1="9.524" transform="translate(16.185 8.367)" fill="none" stroke="#000" stroke-linecap="round" stroke-linejoin="round" stroke-miterlimit="10" stroke-width="1.465"/>
            <line id="Línea_258" data-name="Línea 258" y1="9.36" transform="translate(20.199 8.367)" fill="none" stroke="#000" stroke-linecap="round" stroke-linejoin="round" stroke-miterlimit="10" stroke-width="1.465"/>
            <path id="Trazado_109335" data-name="Trazado 109335" d="M23.209,14.38V11.394a.5.5,0,0,1,.5-.5H42.718a.5.5,0,0,1,.5.5V14.38a.5.5,0,0,1-.5.5H23.71A.5.5,0,0,1,23.209,14.38Z" fill="none" stroke="#000" stroke-linecap="round" stroke-linejoin="round" stroke-miterlimit="10" stroke-width="1.465"/>
          </g>
        </g>
      </g>
    </g>
  </g>
</svg>
