<svg xmlns="http://www.w3.org/2000/svg" width="295" height="210" viewBox="0 0 295 210">
  <g id="Grupo_57513" data-name="Grupo 57513" transform="translate(3194 8799)">
    <g id="Grupo_57399" data-name="Grupo 57399" transform="translate(-3156 -35)">
      <circle id="Elipse_4534" data-name="Elipse 4534" cx="95" cy="95" r="95" transform="translate(-17 -8764)" fill="#ff8a5b"/>
      <g id="Grupo_56381" data-name="Grupo 56381" transform="translate(854.354 -8591.598)">
        <rect id="Rectángulo_5574" data-name="Rectángulo 5574" width="295" height="200" transform="translate(-892.354 -162.402)" fill="none"/>
        <g id="Grupo_56416" data-name="Grupo 56416" transform="translate(-12.115 -8.925)">
          <g id="Grupo_56390" data-name="Grupo 56390" transform="translate(-845.551 -78.132)">
            <g id="Grupo_56383" data-name="Grupo 56383" transform="translate(42.372 1.043)">
              <g id="Grupo_56381-2" data-name="Grupo 56381" transform="translate(0 14.694)">
                <rect id="Rectángulo_5635" data-name="Rectángulo 5635" width="29.234" height="8.539" fill="#bac927"/>
                <rect id="Rectángulo_5636" data-name="Rectángulo 5636" width="22.984" height="8.539" transform="translate(29.234)" fill="#96960b"/>
              </g>
              <g id="Grupo_56382" data-name="Grupo 56382" transform="translate(0 8.54)">
                <path id="Trazado_107053" data-name="Trazado 107053" d="M-781.62-75.855c-14.421,0-26.11,6.578-26.11,14.693s11.689,14.7,26.11,14.7c.447,0,.883-.026,1.324-.038V-75.818C-780.737-75.83-781.173-75.855-781.62-75.855Z" transform="translate(807.73 75.855)" fill="#a8af1b"/>
                <path id="Trazado_107054" data-name="Trazado 107054" d="M-758.458-61.166c0-7.863-10.985-14.265-24.783-14.656v29.314C-769.443-46.9-758.458-53.3-758.458-61.166Z" transform="translate(810.676 75.859)" fill="#96960b"/>
              </g>
              <path id="Trazado_107055" data-name="Trazado 107055" d="M-755.512-68.784c0,8.116-11.689,14.7-26.108,14.7s-26.11-6.581-26.11-14.7,11.689-14.694,26.11-14.694S-755.512-76.9-755.512-68.784Z" transform="translate(807.73 83.478)" fill="#d0d835"/>
              <path id="Trazado_107056" data-name="Trazado 107056" d="M-758.669-69.025c0,6.882-10.386,12.462-23.2,12.462s-23.2-5.58-23.2-12.462,10.386-12.46,23.2-12.46S-758.669-75.907-758.669-69.025Z" transform="translate(808.05 83.718)" fill="#a8af1b"/>
              <path id="Trazado_107057" data-name="Trazado 107057" d="M-761.011-69.243c0,6.255-9.44,11.326-21.083,11.326s-21.084-5.072-21.084-11.326,9.439-11.325,21.084-11.325S-761.011-75.5-761.011-69.243Z" transform="translate(808.278 83.828)" fill="#d0d835"/>
              <path id="Trazado_107058" data-name="Trazado 107058" d="M-763.7-69.615c0,5.535-8.354,10.025-18.658,10.025s-18.66-4.489-18.66-10.025,8.354-10.022,18.66-10.022S-763.7-75.149-763.7-69.615Z" transform="translate(808.538 83.94)" fill="#a8af1b"/>
              <path id="Trazado_107059" data-name="Trazado 107059" d="M-766.246-69.748c0,4.853-7.323,8.788-16.355,8.788s-16.357-3.935-16.357-8.788,7.322-8.785,16.357-8.785S-766.246-74.6-766.246-69.748Z" transform="translate(808.785 84.073)" fill="#d0d835"/>
              <path id="Trazado_107060" data-name="Trazado 107060" d="M-768.307-69.983c0,4.241-6.4,7.681-14.3,7.681s-14.3-3.439-14.3-7.681,6.4-7.68,14.3-7.68S-768.307-74.225-768.307-69.983Z" transform="translate(809.032 84.178)" fill="#a8af1b"/>
              <path id="Trazado_107061" data-name="Trazado 107061" d="M-770.433-70.094c0,3.672-5.541,6.65-12.377,6.65s-12.378-2.978-12.378-6.65,5.542-6.648,12.378-6.648S-770.433-73.765-770.433-70.094Z" transform="translate(809.239 84.288)" fill="#d0d835"/>
              <path id="Trazado_107062" data-name="Trazado 107062" d="M-772.48-70.2c0,3.114-4.7,5.64-10.5,5.64s-10.5-2.525-10.5-5.64,4.7-5.639,10.5-5.639S-772.48-73.316-772.48-70.2Z" transform="translate(809.445 84.397)" fill="#a8af1b"/>
              <path id="Trazado_107063" data-name="Trazado 107063" d="M-774.366-70.3c0,2.609-3.937,4.724-8.793,4.724s-8.794-2.115-8.794-4.724,3.938-4.723,8.794-4.723S-774.366-72.909-774.366-70.3Z" transform="translate(809.628 84.495)" fill="#d0d835"/>
              <path id="Trazado_107064" data-name="Trazado 107064" d="M-771.705-53.331a15.344,15.344,0,0,0-3.144-1.872c-5.209-2.263-8.393-2.062-8.393-2.062v8.539s7.807,1.7,11.537,5.935Z" transform="translate(810.676 86.631)" fill="#a8af1b"/>
            </g>
            <g id="Grupo_56386" data-name="Grupo 56386" transform="translate(0 21.781)">
              <g id="Grupo_56384" data-name="Grupo 56384" transform="translate(0 14.694)">
                <rect id="Rectángulo_5637" data-name="Rectángulo 5637" width="29.234" height="8.539" fill="#f25e30"/>
                <rect id="Rectángulo_5638" data-name="Rectángulo 5638" width="22.984" height="8.539" transform="translate(29.234)" fill="#e24b23"/>
              </g>
              <g id="Grupo_56385" data-name="Grupo 56385" transform="translate(0 8.54)">
                <path id="Trazado_107065" data-name="Trazado 107065" d="M-819.442-57.344c-14.42,0-26.109,6.577-26.109,14.693s11.689,14.7,26.109,14.7c.448,0,.883-.026,1.325-.038V-57.307C-818.559-57.319-818.994-57.344-819.442-57.344Z" transform="translate(845.551 57.344)" fill="#f25e30"/>
                <path id="Trazado_107066" data-name="Trazado 107066" d="M-796.279-42.655c0-7.863-10.985-14.265-24.783-14.656V-28C-807.264-28.388-796.279-34.792-796.279-42.655Z" transform="translate(848.497 57.348)" fill="#e24b23"/>
              </g>
              <path id="Trazado_107067" data-name="Trazado 107067" d="M-793.333-50.273c0,8.116-11.689,14.7-26.109,14.7s-26.109-6.58-26.109-14.7,11.689-14.694,26.109-14.694S-793.333-58.389-793.333-50.273Z" transform="translate(845.551 64.967)" fill="#fe733e"/>
              <path id="Trazado_107068" data-name="Trazado 107068" d="M-796.492-50.514c0,6.882-10.385,12.462-23.2,12.462s-23.2-5.58-23.2-12.462,10.386-12.46,23.2-12.46S-796.492-57.4-796.492-50.514Z" transform="translate(845.872 65.207)" fill="#f25e30"/>
              <path id="Trazado_107069" data-name="Trazado 107069" d="M-798.833-50.732c0,6.255-9.44,11.326-21.083,11.326S-841-44.477-841-50.732s9.44-11.325,21.084-11.325S-798.833-56.986-798.833-50.732Z" transform="translate(846.099 65.317)" fill="#fe733e"/>
              <path id="Trazado_107070" data-name="Trazado 107070" d="M-801.518-51.1c0,5.535-8.354,10.025-18.659,10.025s-18.659-4.489-18.659-10.025,8.353-10.022,18.659-10.022S-801.518-56.639-801.518-51.1Z" transform="translate(846.359 65.429)" fill="#f25e30"/>
              <path id="Trazado_107071" data-name="Trazado 107071" d="M-804.068-51.237c0,4.852-7.322,8.787-16.355,8.787s-16.357-3.935-16.357-8.787,7.324-8.785,16.357-8.785S-804.068-56.089-804.068-51.237Z" transform="translate(846.607 65.562)" fill="#fe733e"/>
              <path id="Trazado_107072" data-name="Trazado 107072" d="M-806.128-51.472c0,4.241-6.4,7.681-14.3,7.681s-14.3-3.439-14.3-7.681,6.4-7.68,14.3-7.68S-806.128-55.714-806.128-51.472Z" transform="translate(846.854 65.667)" fill="#f25e30"/>
              <path id="Trazado_107073" data-name="Trazado 107073" d="M-808.255-51.583c0,3.672-5.542,6.65-12.377,6.65s-12.378-2.978-12.378-6.65,5.541-6.648,12.378-6.648S-808.255-55.254-808.255-51.583Z" transform="translate(847.06 65.777)" fill="#fe733e"/>
              <path id="Trazado_107074" data-name="Trazado 107074" d="M-810.3-51.691c0,3.114-4.7,5.64-10.5,5.64s-10.5-2.525-10.5-5.64,4.7-5.639,10.5-5.639S-810.3-54.806-810.3-51.691Z" transform="translate(847.266 65.886)" fill="#f25e30"/>
              <path id="Trazado_107075" data-name="Trazado 107075" d="M-812.188-51.79c0,2.609-3.937,4.724-8.793,4.724s-8.793-2.115-8.793-4.724,3.937-4.723,8.793-4.723S-812.188-54.4-812.188-51.79Z" transform="translate(847.449 65.984)" fill="#fe733e"/>
              <path id="Trazado_107076" data-name="Trazado 107076" d="M-821.063-30.215s8.392,1.817,11.935,6.395a39.907,39.907,0,0,1,3.918,5.783l.849-11.08s-3.1-5.311-8.309-7.574-8.392-2.064-8.392-2.064Z" transform="translate(848.497 68.12)" fill="#f25e30"/>
            </g>
            <g id="Grupo_56389" data-name="Grupo 56389" transform="translate(11.305)">
              <g id="Grupo_56387" data-name="Grupo 56387" transform="translate(0.001 14.694)">
                <rect id="Rectángulo_5639" data-name="Rectángulo 5639" width="29.234" height="8.539" fill="#389ec6"/>
                <rect id="Rectángulo_5640" data-name="Rectángulo 5640" width="22.984" height="8.539" transform="translate(29.234)" fill="#2a78b7"/>
              </g>
              <g id="Grupo_56388" data-name="Grupo 56388" transform="translate(0 8.539)">
                <path id="Trazado_107077" data-name="Trazado 107077" d="M-809.35-76.787c-14.421,0-26.11,6.578-26.11,14.694s11.689,14.7,26.11,14.7c.447,0,.883-.026,1.325-.038V-76.749C-808.467-76.761-808.9-76.787-809.35-76.787Z" transform="translate(835.46 76.787)" fill="#389ec6"/>
                <path id="Trazado_107078" data-name="Trazado 107078" d="M-786.189-62.1c0-7.863-10.984-14.265-24.782-14.656v29.314C-797.172-47.83-786.189-54.234-786.189-62.1Z" transform="translate(838.406 76.791)" fill="#2a78b7"/>
              </g>
              <path id="Trazado_107079" data-name="Trazado 107079" d="M-783.242-69.715c0,8.116-11.689,14.7-26.108,14.7s-26.109-6.58-26.109-14.7,11.688-14.694,26.109-14.694S-783.242-77.831-783.242-69.715Z" transform="translate(835.46 84.409)" fill="#4cbde0"/>
              <path id="Trazado_107080" data-name="Trazado 107080" d="M-786.4-69.956c0,6.882-10.385,12.462-23.2,12.462s-23.2-5.58-23.2-12.462,10.385-12.46,23.2-12.46S-786.4-76.838-786.4-69.956Z" transform="translate(835.781 84.649)" fill="#389ec6"/>
              <path id="Trazado_107081" data-name="Trazado 107081" d="M-788.741-70.174c0,6.255-9.44,11.326-21.083,11.326s-21.084-5.072-21.084-11.326,9.44-11.325,21.084-11.325S-788.741-76.428-788.741-70.174Z" transform="translate(836.008 84.759)" fill="#4cbde0"/>
              <path id="Trazado_107082" data-name="Trazado 107082" d="M-791.427-70.546c0,5.535-8.353,10.025-18.658,10.025s-18.659-4.489-18.659-10.025,8.353-10.022,18.659-10.022S-791.427-76.081-791.427-70.546Z" transform="translate(836.268 84.871)" fill="#389ec6"/>
              <path id="Trazado_107083" data-name="Trazado 107083" d="M-793.976-70.679c0,4.852-7.322,8.787-16.355,8.787s-16.356-3.935-16.356-8.787,7.323-8.785,16.356-8.785S-793.976-75.531-793.976-70.679Z" transform="translate(836.515 85.004)" fill="#4cbde0"/>
              <path id="Trazado_107084" data-name="Trazado 107084" d="M-796.036-70.914c0,4.241-6.4,7.681-14.3,7.681s-14.3-3.439-14.3-7.681,6.4-7.68,14.3-7.68S-796.036-75.156-796.036-70.914Z" transform="translate(836.763 85.109)" fill="#389ec6"/>
              <path id="Trazado_107085" data-name="Trazado 107085" d="M-798.164-71.025c0,3.672-5.541,6.649-12.377,6.649s-12.377-2.977-12.377-6.649,5.541-6.649,12.377-6.649S-798.164-74.7-798.164-71.025Z" transform="translate(836.969 85.219)" fill="#4cbde0"/>
              <path id="Trazado_107086" data-name="Trazado 107086" d="M-800.209-71.133c0,3.114-4.7,5.64-10.5,5.64s-10.5-2.525-10.5-5.64,4.7-5.639,10.5-5.639S-800.209-74.248-800.209-71.133Z" transform="translate(837.175 85.328)" fill="#389ec6"/>
              <path id="Trazado_107087" data-name="Trazado 107087" d="M-802.1-71.232c0,2.609-3.937,4.724-8.793,4.724s-8.793-2.115-8.793-4.724,3.937-4.723,8.793-4.723S-802.1-73.84-802.1-71.232Z" transform="translate(837.358 85.426)" fill="#4cbde0"/>
              <path id="Trazado_107088" data-name="Trazado 107088" d="M-774.712-38.626c-6.56-3.424-5.194-8.237-16.427-14.244-5.008-2.679-19.832-5.328-19.832-5.328v8.54s18.542.372,24.664,11.032c2.89,5.032,8.391,8.18,11.6,9.844Z" transform="translate(838.406 87.562)" fill="#389ec6"/>
            </g>
          </g>
          <g id="Grupo_56412" data-name="Grupo 56412" transform="translate(-748.678 -136.586)">
            <path id="Trazado_107089" data-name="Trazado 107089" d="M-669.389-68.789v25.875l28.269,16.322V-81.587a20.384,20.384,0,0,0-.287-3.276Z" transform="translate(769.872 142.808)" fill="#d3d3d3"/>
            <path id="Trazado_107090" data-name="Trazado 107090" d="M-669.389-108.319v16.681l14.482-8.32Z" transform="translate(769.872 139.987)" fill="#d3d3d3"/>
            <path id="Trazado_107091" data-name="Trazado 107091" d="M-712.067-135.579a5.666,5.666,0,0,0-5.018-.687l-1.041.6-37.936,21.83,1.431,9.873,34.094-17.542,17.368-8.937Z" transform="translate(759.444 136.586)" fill="#f7f7f7"/>
            <path id="Trazado_107092" data-name="Trazado 107092" d="M-703.832-105.067l-5.973-3.448-14.547-8.4,6.535,18.961,22,12.7,6.535-11.414Z" transform="translate(763.259 138.952)" fill="#d3d3d3"/>
            <path id="Trazado_107093" data-name="Trazado 107093" d="M-713.652-82a5.665,5.665,0,0,0-5.018-.687l-1.041.6-37.936,21.83,1.431,9.873,34.1-17.542,17.367-8.937Z" transform="translate(759.253 143.031)" fill="#e2e2e2"/>
            <path id="Trazado_107094" data-name="Trazado 107094" d="M-683.692-18.682l-70.886-40.926,35.438-20.46,70.886,40.926Z" transform="translate(759.623 143.385)" fill="#d3d3d3"/>
            <path id="Trazado_107095" data-name="Trazado 107095" d="M-679.305-63.358V18.314l37.969-21.9V-85.26Z" transform="translate(768.679 142.761)" fill="#d1d1d1"/>
            <g id="Grupo_56391" data-name="Grupo 56391" transform="translate(80.187 83.298)">
              <path id="Trazado_107096" data-name="Trazado 107096" d="M-642.746-36.391l-44.759-25.842v34.715L-645.561-3.3l6.62-3.808V-29.12C-638.941-31.911-640.654-35.183-642.746-36.391Z" transform="translate(687.505 62.233)" fill="#d3d3d3"/>
              <path id="Trazado_107097" data-name="Trazado 107097" d="M-679.3,8.96v5.655l38-21.859a3.286,3.286,0,0,0,1.379-3.075v-3.29Z" transform="translate(688.491 68.083)" fill="#bfbfbf"/>
            </g>
            <path id="Trazado_107098" data-name="Trazado 107098" d="M-706.984-131.1l-17.368,8.936v6.958L-649.5-71.99V-97.911Z" transform="translate(763.259 137.246)" fill="#d3d3d3"/>
            <path id="Trazado_107099" data-name="Trazado 107099" d="M-648.478-98.624l-3.863-2.231-14.482,8.319-23.9,13.728,12.788,18.324,11.109-6.381,27.982-16.074C-639.892-89.349-643.8-95.926-648.478-98.624Z" transform="translate(767.305 140.884)" fill="#f9f9f9"/>
            <path id="Trazado_107100" data-name="Trazado 107100" d="M-729.967-52.054-748.6-62.81l18.123-10.439,18.63,10.756Z" transform="translate(760.342 144.206)" fill="#593d3d"/>
            <path id="Trazado_107101" data-name="Trazado 107101" d="M-733.482-55.673l-13.068-7.545,15.09-8.712,13.068,7.545Z" transform="translate(760.589 144.364)" fill="#3f2a2a"/>
            <g id="Grupo_56393" data-name="Grupo 56393" transform="translate(20.686 59.121)">
              <g id="Grupo_56392" data-name="Grupo 56392" transform="translate(0 19.685)">
                <path id="Trazado_107102" data-name="Trazado 107102" d="M-735.669-62.682l-3.076-1.776,2.25-1.348a3.1,3.1,0,0,1,3.136-.024l.4.233a.744.744,0,0,1,.009,1.284Z" transform="translate(740.841 66.243)" fill="#efefef"/>
                <path id="Trazado_107103" data-name="Trazado 107103" d="M-738.335-64.753a4.547,4.547,0,0,1-1.863.4c-.751.057-.423.812.445.9A8.944,8.944,0,0,0-737-64.017Z" transform="translate(740.616 66.422)" fill="#efefef"/>
                <path id="Trazado_107104" data-name="Trazado 107104" d="M-736.762-63.823a7.372,7.372,0,0,1-2.022.6c-.742.127-.423.812.445.9a5.629,5.629,0,0,0,2.9-.745C-734.655-63.547-736.762-63.823-736.762-63.823Z" transform="translate(740.787 66.534)" fill="#efefef"/>
              </g>
              <path id="Trazado_107105" data-name="Trazado 107105" d="M-734.064-63.147v-19.68a.99.99,0,0,0-.987-.987.99.99,0,0,0-.986.987v19.68A8.937,8.937,0,0,0-734.064-63.147Z" transform="translate(741.167 83.814)" fill="#593d3d"/>
              <path id="Trazado_107106" data-name="Trazado 107106" d="M-734.064-65.257c0,.307-.441.556-.987.556s-.986-.249-.986-.556.441-.556.986-.556S-734.064-65.564-734.064-65.257Z" transform="translate(741.167 85.98)" fill="#593d3d"/>
            </g>
            <path id="Trazado_107107" data-name="Trazado 107107" d="M-732.822-67.217l28.789-16.635-24.782-.87Z" transform="translate(762.24 142.825)" fill="#bfbfbf"/>
            <g id="Grupo_56394" data-name="Grupo 56394" transform="translate(0 21.9)">
              <path id="Trazado_107108" data-name="Trazado 107108" d="M-672.167,20.306l-83.108-47.983c-2.093-1.209-3.806-4.48-3.806-7.271V-59.514c0-2.791,1.713-4.085,3.806-2.877l83.108,47.983c2.094,1.209,3.806,4.48,3.806,7.271V17.429C-668.362,20.22-670.074,21.515-672.167,20.306Z" transform="translate(759.081 123.557)" fill="#efefef"/>
              <path id="Trazado_107109" data-name="Trazado 107109" d="M-684.992-78.171l-18.345-10.591v68.226l28.269,16.322V-59.209C-675.068-66.517-679.511-75.006-684.992-78.171Z" transform="translate(765.787 120.439)" fill="#efefef"/>
              <path id="Trazado_107110" data-name="Trazado 107110" d="M-683.445-51.773-758.3-94.99v-14.628c0-6.237,3.792-9.1,8.47-6.4l66.385,38.327Z" transform="translate(759.175 117.037)" fill="#efefef"/>
              <path id="Trazado_107111" data-name="Trazado 107111" d="M-737.78-85.51l-5.973-3.448-14.547-8.4,6.535,18.961,22,12.7,6.535-11.415Z" transform="translate(759.175 119.405)" fill="#efefef"/>
            </g>
            <path id="Trazado_107112" data-name="Trazado 107112" d="M-680.793-73.322l-70.886-40.926,38.122-21.9,70.886,40.926Z" transform="translate(759.971 136.638)" fill="#fff"/>
            <path id="Trazado_107113" data-name="Trazado 107113" d="M-697.872,3.561v-76.82c0-2.567,1.575-3.758,3.5-2.646l8.521,4.919c1.925,1.112,3.5,4.122,3.5,6.688v76.83Z" transform="translate(766.445 143.836)" fill="#fe733e"/>
            <g id="Grupo_56395" data-name="Grupo 56395" transform="translate(102.935 79.056)">
              <path id="Trazado_107114" data-name="Trazado 107114" d="M-651.909-59.322c0,5.631-3.423,12.171-7.646,14.609s-7.645-.15-7.645-5.781,3.423-12.171,7.645-14.609S-651.909-64.952-651.909-59.322Z" transform="translate(667.2 66.02)" fill="#fe733e"/>
              <path id="Trazado_107115" data-name="Trazado 107115" d="M-649.316-62.373l-5.51-3.184-10.185,21.073,6.841,3.817Z" transform="translate(667.463 66.076)" fill="#fe733e"/>
              <path id="Trazado_107116" data-name="Trazado 107116" d="M-646.23-56.153c0,5.631-3.424,12.171-7.646,14.609s-7.646-.149-7.646-5.78,3.423-12.171,7.646-14.61S-646.23-61.783-646.23-56.153Z" transform="translate(667.883 66.401)" fill="#ff8a66"/>
              <path id="Trazado_107117" data-name="Trazado 107117" d="M-648.962-54.609c0,3.6-2.189,7.784-4.89,9.343s-4.89-.1-4.89-3.7,2.19-7.783,4.89-9.342S-648.962-58.21-648.962-54.609Z" transform="translate(668.218 66.877)" fill="#fff"/>
              <path id="Trazado_107118" data-name="Trazado 107118" d="M-657.467-38.5a4.767,4.767,0,0,1-1.991,3.8c-1.1.635-1.991-.039-1.991-1.5a4.77,4.77,0,0,1,1.991-3.8C-658.358-40.643-657.467-39.968-657.467-38.5Z" transform="translate(667.892 69.121)" fill="#593d3d"/>
            </g>
            <g id="Grupo_56396" data-name="Grupo 56396" transform="translate(70.681 91.873)">
              <path id="Trazado_107119" data-name="Trazado 107119" d="M-690.241-42.96l2.944-1.681-4.49-9.743-3.036,1.743Z" transform="translate(696.13 54.602)" fill="#d1d1d1"/>
              <path id="Trazado_107120" data-name="Trazado 107120" d="M-693.223-51.514c0,2.576,1.566,5.567,3.5,6.683s3.5-.068,3.5-2.644-1.565-5.568-3.5-6.684S-693.223-54.091-693.223-51.514Z" transform="translate(696.323 54.578)" fill="#d1d1d1"/>
              <path id="Trazado_107121" data-name="Trazado 107121" d="M-695.99-49.889c0,2.576,1.566,5.568,3.5,6.683s3.5-.068,3.5-2.644-1.565-5.568-3.5-6.683S-695.99-52.465-695.99-49.889Z" transform="translate(695.99 54.774)" fill="#fff"/>
            </g>
            <g id="Grupo_56397" data-name="Grupo 56397" transform="translate(70.681 76.474)">
              <path id="Trazado_107122" data-name="Trazado 107122" d="M-690.241-56.705l2.944-1.681-4.49-9.743-3.036,1.743Z" transform="translate(696.13 68.347)" fill="#d1d1d1"/>
              <path id="Trazado_107123" data-name="Trazado 107123" d="M-693.223-65.26c0,2.576,1.566,5.568,3.5,6.683s3.5-.068,3.5-2.644-1.565-5.568-3.5-6.683S-693.223-67.836-693.223-65.26Z" transform="translate(696.323 68.324)" fill="#d1d1d1"/>
              <path id="Trazado_107124" data-name="Trazado 107124" d="M-695.99-63.634c0,2.576,1.566,5.568,3.5,6.683s3.5-.068,3.5-2.644-1.565-5.568-3.5-6.684S-695.99-66.21-695.99-63.634Z" transform="translate(695.99 68.519)" fill="#fff"/>
            </g>
            <g id="Grupo_56398" data-name="Grupo 56398" transform="translate(46.079 54.202)">
              <path id="Trazado_107125" data-name="Trazado 107125" d="M-710.3-73.569l2.015-1.151-6.094-13.221-1.995,1.145Z" transform="translate(718.139 88.236)" fill="#d1d1d1"/>
              <path id="Trazado_107126" data-name="Trazado 107126" d="M-716.1-84.046c0,3.494,2.125,7.555,4.747,9.068s4.746-.093,4.746-3.587-2.124-7.555-4.746-9.069S-716.1-87.542-716.1-84.046Z" transform="translate(718.173 88.204)" fill="#d1d1d1"/>
              <path id="Trazado_107127" data-name="Trazado 107127" d="M-717.95-83.021c0,3.5,2.124,7.555,4.746,9.069s4.747-.093,4.747-3.588-2.125-7.555-4.747-9.069S-717.95-86.517-717.95-83.021Z" transform="translate(717.95 88.328)" fill="#fff"/>
            </g>
            <g id="Grupo_56399" data-name="Grupo 56399" transform="translate(29.154 42.823)">
              <path id="Trazado_107128" data-name="Trazado 107128" d="M-724.081-81.181l2.366-1.351-7.153-15.519-2.342,1.344Z" transform="translate(733.28 98.399)" fill="#fe733e"/>
              <path id="Trazado_107129" data-name="Trazado 107129" d="M-730.886-93.481c0,4.1,2.495,8.868,5.571,10.645s5.571-.109,5.571-4.212-2.494-8.868-5.571-10.645S-730.886-97.583-730.886-93.481Z" transform="translate(733.319 98.361)" fill="#fe733e"/>
              <path id="Trazado_107130" data-name="Trazado 107130" d="M-733.058-92.277c0,4.1,2.494,8.868,5.571,10.645s5.571-.11,5.571-4.212-2.495-8.868-5.571-10.645S-733.058-96.379-733.058-92.277Z" transform="translate(733.058 98.506)" fill="#ff8a66"/>
              <path id="Trazado_107131" data-name="Trazado 107131" d="M-732.064-91.808c0,3.283,2,7.1,4.458,8.517s4.458-.087,4.458-3.37-2-7.1-4.458-8.518S-732.064-95.091-732.064-91.808Z" transform="translate(733.177 98.68)" fill="#fff"/>
            </g>
            <path id="Trazado_107132" data-name="Trazado 107132" d="M-688.456-1.719-692.4-3.995a5.572,5.572,0,0,1-2.318-4.429V-32.68c0-1.7,1.043-2.489,2.318-1.753l3.941,2.276a5.568,5.568,0,0,1,2.318,4.427V-3.471C-686.138-1.772-687.181-.983-688.456-1.719Z" transform="translate(766.825 148.842)" fill="#fff"/>
            <g id="Grupo_56400" data-name="Grupo 56400" transform="translate(62.878 119.096)">
              <path id="Trazado_107133" data-name="Trazado 107133" d="M-693.66-30.279v3.948s-6.669,3.37-8.136,3.937-1.657-.726.089-2.2S-693.66-30.279-693.66-30.279Z" transform="translate(702.956 30.279)" fill="#d1d1d1"/>
              <path id="Trazado_107134" data-name="Trazado 107134" d="M-702.72-22.324l8.648,5.017,8.916-8.021-8.532-4.951Z" transform="translate(702.984 30.279)" fill="#d1d1d1"/>
              <path id="Trazado_107135" data-name="Trazado 107135" d="M-686.044-25.86v3.948s-6.669,3.369-8.136,3.937-1.657-.726.09-2.2S-686.044-25.86-686.044-25.86Z" transform="translate(703.872 30.811)" fill="#bfbfbf"/>
            </g>
            <path id="Trazado_107136" data-name="Trazado 107136" d="M-645.593-13.675l-5.663,3.27V-21.471l5.663-3.27Z" transform="translate(772.053 150.042)" fill="#bfbfbf"/>
            <path id="Trazado_107137" data-name="Trazado 107137" d="M-646.634-23.153l-3.781,2.183V-12.3l3.781-2.183Z" transform="translate(772.154 150.233)" fill="#3f2a2a"/>
            <path id="Trazado_107138" data-name="Trazado 107138" d="M-647.041-23.153s.268,2.865.3,4.234a6.865,6.865,0,0,0,1.035,2.885c.222.555.1.764-.3,1.007-.308.189-1.04.546-1.04.546Z" transform="translate(772.56 150.233)" fill="#3f2a2a"/>
            <path id="Trazado_107139" data-name="Trazado 107139" d="M-650.416-21.2s.268,2.865.3,4.233a6.868,6.868,0,0,0,1.036,2.885c.222.556.1.765-.3,1.008-.308.189-1.04.546-1.04.546Z" transform="translate(772.154 150.467)" fill="#593d3d"/>
            <g id="Grupo_56401" data-name="Grupo 56401" transform="translate(95.722 140.52)">
              <path id="Trazado_107140" data-name="Trazado 107140" d="M-672.244-10.545a1.669,1.669,0,0,1-.7,1.331c-.384.222-.7-.013-.7-.527a1.669,1.669,0,0,1,.7-1.331C-672.557-11.294-672.244-11.059-672.244-10.545Z" transform="translate(673.638 11.156)" fill="#593d3d"/>
              <path id="Trazado_107141" data-name="Trazado 107141" d="M-672.244-7.648a1.668,1.668,0,0,1-.7,1.33c-.384.222-.7-.013-.7-.527a1.667,1.667,0,0,1,.7-1.33C-672.557-8.4-672.244-8.162-672.244-7.648Z" transform="translate(673.638 11.504)" fill="#593d3d"/>
              <path id="Trazado_107142" data-name="Trazado 107142" d="M-672.244-4.5a1.669,1.669,0,0,1-.7,1.331c-.384.222-.7-.013-.7-.527a1.668,1.668,0,0,1,.7-1.33C-672.557-5.246-672.244-5.01-672.244-4.5Z" transform="translate(673.638 11.883)" fill="#593d3d"/>
              <path id="Trazado_107143" data-name="Trazado 107143" d="M-672.244-1.6a1.671,1.671,0,0,1-.7,1.331c-.384.222-.7-.015-.7-.527a1.669,1.669,0,0,1,.7-1.331C-672.557-2.349-672.244-2.114-672.244-1.6Z" transform="translate(673.638 12.232)" fill="#593d3d"/>
            </g>
            <g id="Grupo_56402" data-name="Grupo 56402" transform="translate(98.646 138.755)">
              <path id="Trazado_107144" data-name="Trazado 107144" d="M-669.635-12.121a1.668,1.668,0,0,1-.7,1.331c-.385.222-.7-.013-.7-.527a1.666,1.666,0,0,1,.7-1.331C-669.947-12.87-669.635-12.635-669.635-12.121Z" transform="translate(671.028 12.732)" fill="#593d3d"/>
              <path id="Trazado_107145" data-name="Trazado 107145" d="M-669.635-9.226a1.668,1.668,0,0,1-.7,1.331c-.385.222-.7-.013-.7-.527a1.669,1.669,0,0,1,.7-1.331C-669.947-9.974-669.635-9.737-669.635-9.226Z" transform="translate(671.028 13.08)" fill="#593d3d"/>
              <path id="Trazado_107146" data-name="Trazado 107146" d="M-669.635-6.074a1.668,1.668,0,0,1-.7,1.331c-.385.222-.7-.013-.7-.527a1.665,1.665,0,0,1,.7-1.33C-669.947-6.822-669.635-6.586-669.635-6.074Z" transform="translate(671.028 13.459)" fill="#593d3d"/>
              <path id="Trazado_107147" data-name="Trazado 107147" d="M-669.635-3.176a1.666,1.666,0,0,1-.7,1.33c-.385.223-.7-.013-.7-.525a1.666,1.666,0,0,1,.7-1.331C-669.947-3.925-669.635-3.69-669.635-3.176Z" transform="translate(671.028 13.808)" fill="#593d3d"/>
            </g>
            <g id="Grupo_56403" data-name="Grupo 56403" transform="translate(101.476 137.276)">
              <path id="Trazado_107148" data-name="Trazado 107148" d="M-667.109-13.441a1.668,1.668,0,0,1-.7,1.331c-.384.222-.7-.015-.7-.527a1.668,1.668,0,0,1,.7-1.331C-667.421-14.19-667.109-13.955-667.109-13.441Z" transform="translate(668.502 14.052)" fill="#593d3d"/>
              <path id="Trazado_107149" data-name="Trazado 107149" d="M-667.109-10.545a1.666,1.666,0,0,1-.7,1.331c-.384.222-.7-.013-.7-.527a1.668,1.668,0,0,1,.7-1.331C-667.421-11.294-667.109-11.059-667.109-10.545Z" transform="translate(668.502 14.4)" fill="#593d3d"/>
              <path id="Trazado_107150" data-name="Trazado 107150" d="M-667.109-7.393a1.666,1.666,0,0,1-.7,1.331c-.384.222-.7-.013-.7-.527a1.668,1.668,0,0,1,.7-1.331C-667.421-8.142-667.109-7.907-667.109-7.393Z" transform="translate(668.502 14.779)" fill="#593d3d"/>
              <path id="Trazado_107151" data-name="Trazado 107151" d="M-667.109-4.5a1.666,1.666,0,0,1-.7,1.331c-.384.222-.7-.013-.7-.527a1.668,1.668,0,0,1,.7-1.33C-667.421-5.246-667.109-5.01-667.109-4.5Z" transform="translate(668.502 15.128)" fill="#593d3d"/>
            </g>
            <g id="Grupo_56404" data-name="Grupo 56404" transform="translate(104.469 135.751)">
              <path id="Trazado_107152" data-name="Trazado 107152" d="M-664.437-14.8a1.672,1.672,0,0,1-.7,1.331c-.384.222-.7-.015-.7-.528a1.668,1.668,0,0,1,.7-1.33C-664.75-15.551-664.437-15.316-664.437-14.8Z" transform="translate(665.831 15.413)" fill="#593d3d"/>
              <path id="Trazado_107153" data-name="Trazado 107153" d="M-664.437-11.906a1.669,1.669,0,0,1-.7,1.331c-.384.222-.7-.013-.7-.527a1.669,1.669,0,0,1,.7-1.331C-664.75-12.655-664.437-12.42-664.437-11.906Z" transform="translate(665.831 15.761)" fill="#593d3d"/>
              <path id="Trazado_107154" data-name="Trazado 107154" d="M-664.437-8.754a1.669,1.669,0,0,1-.7,1.331c-.384.222-.7-.013-.7-.527a1.669,1.669,0,0,1,.7-1.331C-664.75-9.5-664.437-9.268-664.437-8.754Z" transform="translate(665.831 16.14)" fill="#593d3d"/>
              <path id="Trazado_107155" data-name="Trazado 107155" d="M-664.437-5.859a1.669,1.669,0,0,1-.7,1.331c-.384.222-.7-.013-.7-.527a1.671,1.671,0,0,1,.7-1.331C-664.75-6.607-664.437-6.37-664.437-5.859Z" transform="translate(665.831 16.489)" fill="#593d3d"/>
            </g>
            <g id="Grupo_56405" data-name="Grupo 56405" transform="translate(102.997 23.853)">
              <path id="Trazado_107156" data-name="Trazado 107156" d="M-661.516-101.006c0,.874-1.26,1.584-2.814,1.584s-2.814-.71-2.814-1.584,1.259-1.584,2.814-1.584S-661.516-101.881-661.516-101.006Z" transform="translate(667.145 116.822)" fill="#3f2a2a"/>
              <path id="Trazado_107157" data-name="Trazado 107157" d="M-663.148-101.095c0,.417-.6.755-1.341.755s-1.342-.338-1.342-.755.6-.755,1.342-.755S-663.148-101.513-663.148-101.095Z" transform="translate(667.303 116.911)" fill="#fe733e"/>
              <rect id="Rectángulo_5641" data-name="Rectángulo 5641" width="2.683" height="15.06" transform="translate(1.472 0.756)" fill="#fe733e"/>
              <path id="Trazado_107158" data-name="Trazado 107158" d="M-663.148-114.539c0,.418-.6.755-1.341.755s-1.342-.337-1.342-.755.6-.755,1.342-.755S-663.148-114.956-663.148-114.539Z" transform="translate(667.303 115.294)" fill="#ff8a66"/>
            </g>
            <g id="Grupo_56406" data-name="Grupo 56406" transform="translate(86.433 38.584)">
              <path id="Trazado_107159" data-name="Trazado 107159" d="M-676.3-94.58c0,.875-1.26,1.584-2.814,1.584s-2.814-.709-2.814-1.584,1.259-1.583,2.814-1.583S-676.3-95.454-676.3-94.58Z" transform="translate(681.93 102.865)" fill="#3f2a2a"/>
              <path id="Trazado_107160" data-name="Trazado 107160" d="M-677.933-94.668c0,.417-.6.755-1.341.755s-1.342-.338-1.342-.755.6-.756,1.342-.756S-677.933-95.086-677.933-94.668Z" transform="translate(682.088 102.954)" fill="#fe733e"/>
              <rect id="Rectángulo_5642" data-name="Rectángulo 5642" width="2.683" height="7.426" transform="translate(1.472 0.859)" fill="#fe733e"/>
              <path id="Trazado_107161" data-name="Trazado 107161" d="M-677.933-101.39c0,.417-.6.755-1.341.755s-1.342-.338-1.342-.755.6-.755,1.342-.755S-677.933-101.807-677.933-101.39Z" transform="translate(682.088 102.145)" fill="#ff8a66"/>
            </g>
            <g id="Grupo_56407" data-name="Grupo 56407" transform="translate(89.247 24.608)">
              <path id="Trazado_107162" data-name="Trazado 107162" d="M-673.789-107.054c0,.875-1.26,1.584-2.814,1.584s-2.814-.709-2.814-1.584,1.259-1.584,2.814-1.584S-673.789-107.929-673.789-107.054Z" transform="translate(679.418 115.34)" fill="#3f2a2a"/>
              <path id="Trazado_107163" data-name="Trazado 107163" d="M-675.42-107.143c0,.417-.6.755-1.342.755s-1.342-.338-1.342-.755.6-.755,1.342-.755S-675.42-107.56-675.42-107.143Z" transform="translate(679.576 115.429)" fill="#fe733e"/>
              <rect id="Rectángulo_5643" data-name="Rectángulo 5643" width="2.683" height="7.426" transform="translate(1.473 0.86)" fill="#fe733e"/>
              <path id="Trazado_107164" data-name="Trazado 107164" d="M-675.42-113.865c0,.418-.6.755-1.342.755s-1.342-.337-1.342-.755.6-.755,1.342-.755S-675.42-114.282-675.42-113.865Z" transform="translate(679.576 114.62)" fill="#ff8a66"/>
            </g>
            <g id="Grupo_56408" data-name="Grupo 56408" transform="translate(15.966 26.82)">
              <path id="Trazado_107165" data-name="Trazado 107165" d="M-743.942-71.106l-.888-.512v-41.028l.888.513Z" transform="translate(744.83 112.646)" fill="#3f2a2a"/>
            </g>
            <g id="Grupo_56409" data-name="Grupo 56409" transform="translate(15.966 4.921)">
              <path id="Trazado_107166" data-name="Trazado 107166" d="M-743.941-109.781l-.889-.513,38.122-21.9.889.513Z" transform="translate(744.83 132.193)" fill="#593d3d"/>
            </g>
            <g id="Grupo_56410" data-name="Grupo 56410" transform="translate(20.686 29.535)">
              <path id="Trazado_107167" data-name="Trazado 107167" d="M-739.729-68.682l-.888-.513v-41.028l.888.513Z" transform="translate(740.616 110.222)" fill="#3f2a2a"/>
            </g>
            <g id="Grupo_56411" data-name="Grupo 56411" transform="translate(20.686 7.636)">
              <path id="Trazado_107168" data-name="Trazado 107168" d="M-739.728-107.357l-.889-.513,38.122-21.9.889.513Z" transform="translate(740.617 129.77)" fill="#593d3d"/>
            </g>
            <path id="Trazado_107169" data-name="Trazado 107169" d="M-747.249-104.115l-8-4.619v-2.973l8,4.619Z" transform="translate(759.542 139.579)" fill="#3f2a2a"/>
            <path id="Trazado_107170" data-name="Trazado 107170" d="M-709.324-57.371l-6.507-3.757.612-.353,6.507,3.757Z" transform="translate(764.284 145.621)" fill="#b2b2b2"/>
            <path id="Trazado_107171" data-name="Trazado 107171" d="M-713.555-54.926l-6.507-3.757.612-.353,6.507,3.757Z" transform="translate(763.775 145.916)" fill="#b2b2b2"/>
            <path id="Trazado_107172" data-name="Trazado 107172" d="M-717.77-52.506l-6.507-3.757.612-.353,6.507,3.757Z" transform="translate(763.268 146.207)" fill="#b2b2b2"/>
            <path id="Trazado_107173" data-name="Trazado 107173" d="M-722-50.06l-6.507-3.757.612-.353,6.507,3.757Z" transform="translate(762.759 146.501)" fill="#b2b2b2"/>
          </g>
          <g id="Grupo_56415" data-name="Grupo 56415" transform="translate(-780.53 -13.735)">
            <g id="Grupo_56413" data-name="Grupo 56413" transform="translate(0.796 9.287)">
              <ellipse id="Elipse_4501" data-name="Elipse 4501" cx="11.793" cy="6.637" rx="11.793" ry="6.637" transform="translate(0 1.413)" fill="#a8a8a8"/>
              <rect id="Rectángulo_5644" data-name="Rectángulo 5644" width="23.586" height="1.987" transform="translate(0 6.637)" fill="#a8a8a8"/>
              <path id="Trazado_107174" data-name="Trazado 107174" d="M-763.216-12c0,3.666-5.279,6.638-11.792,6.638S-786.8-8.336-786.8-12s5.28-6.637,11.793-6.637S-763.216-15.667-763.216-12Z" transform="translate(786.802 18.638)" fill="#fff"/>
              <ellipse id="Elipse_4502" data-name="Elipse 4502" cx="4.101" cy="2.308" rx="4.101" ry="2.308" transform="translate(7.692 4.329)" fill="#a8a8a8"/>
            </g>
            <path id="Trazado_107175" data-name="Trazado 107175" d="M-767.309-12.7c0,2.517-3.625,4.557-8.1,4.557s-8.1-2.04-8.1-4.557,3.625-4.557,8.1-4.557S-767.309-15.214-767.309-12.7Z" transform="translate(787.995 28.092)" fill="#f25e30"/>
            <rect id="Rectángulo_5645" data-name="Rectángulo 5645" width="16.08" height="7.763" transform="translate(4.492 7.631)" fill="#f25e30"/>
            <path id="Trazado_107176" data-name="Trazado 107176" d="M-763.755-20.773c-6.12-2.362-17.752-4.04-22.213,1.989-1.475,2-2.266,5.268-.649,7.373,1.386,1.8,5.346,3.043,7.047,1.34.1-.1-.8-.043-.93,0a4.6,4.6,0,0,1-5.924-3c-.631-2.525,1.1-5.456,3.123-6.729,2.9-1.826,6.752-2.3,10.116-2.244a23.837,23.837,0,0,1,9.221,2c2.995,1.321,8.318,4.354,8.1,8.278-.439,7.719-11.076,8.1-16.612,9.582-4.368,1.166-8.641,3.5-9.964,8.1-.146.507.606.7.782.215,3.8-10.5,18-5.929,24.732-13.028C-751.111-13.03-758.2-18.63-763.755-20.773Z" transform="translate(787.513 27.409)" fill="#f25e30"/>
            <g id="Grupo_56414" data-name="Grupo 56414" transform="translate(0.796)">
              <path id="Trazado_107177" data-name="Trazado 107177" d="M-763.216-19.029c0,3.666-5.279,6.637-11.792,6.637S-786.8-15.364-786.8-19.029s5.28-6.638,11.793-6.638S-763.216-22.695-763.216-19.029Z" transform="translate(786.802 27.08)" fill="#a8a8a8"/>
              <rect id="Rectángulo_5646" data-name="Rectángulo 5646" width="23.586" height="1.987" transform="translate(0 6.637)" fill="#a8a8a8"/>
              <path id="Trazado_107178" data-name="Trazado 107178" d="M-763.216-20.29c0,3.666-5.279,6.637-11.792,6.637S-786.8-16.625-786.8-20.29s5.28-6.638,11.793-6.638S-763.216-23.956-763.216-20.29Z" transform="translate(786.802 26.928)" fill="#fff"/>
              <path id="Trazado_107179" data-name="Trazado 107179" d="M-771.734-20.755c0,1.274-1.836,2.308-4.1,2.308s-4.1-1.034-4.1-2.308,1.836-2.309,4.1-2.309S-771.734-22.03-771.734-20.755Z" transform="translate(787.628 27.393)" fill="#969696"/>
            </g>
          </g>
        </g>
      </g>
    </g>
  </g>
</svg>
