<svg xmlns="http://www.w3.org/2000/svg" width="89.604" height="86.696" viewBox="0 0 89.604 86.696">
  <path id="path8-1" d="M771.725,2781.09a9.7,9.7,0,1,0,9.721,9.7A9.7,9.7,0,0,0,771.725,2781.09Zm12.639,22.394-.009,8.886-7.831-8.882H769.14v13.04h5.42l.078-8.64,7.546,8.634,7.592.027.067-13.026-5.479-.035Zm-33.335,0h0l-.1,13.053,15.759-.018.014-2.905-10-.009.042-2.461,8.889-.039v-2.781l-8.848.164v-2.057l9.583-.026.019-2.907-15.356-.012Zm54.362,0h-6.28l-8.9,13.046,5.654.008,1.351-2.491,9.167.045,1.362,2.439h6.068Zm-65.021,0h-1.027a18.741,18.741,0,0,0-3.026.15,10.371,10.371,0,0,0-3.6,1.005,2.893,2.893,0,0,0-1.5,3.949,2.074,2.074,0,0,0,.37.538,5.579,5.579,0,0,0,3.006,1.5,42.682,42.682,0,0,0,4.312.865,17.719,17.719,0,0,1,2.609.531,2.965,2.965,0,0,1,1.058.546.569.569,0,0,1-.108.814,3.02,3.02,0,0,1-1.529.545,13.539,13.539,0,0,1-2.729-.033c-1.051-.16-1.7-.51-1.838-1a2.536,2.536,0,0,1-.054-.423l-.019-.3-.4-.01c-.223,0-1.487,0-2.81.01l-2.409.018v.174a5.194,5.194,0,0,0,.12.937c.341,1.415,1.438,2.3,3.438,2.79a18.383,18.383,0,0,0,2.629.4c.884.066,2.687.088,3.846.046,4.1-.15,6.857-1.126,7.7-2.722a2.629,2.629,0,0,0,.307-1.266,2.691,2.691,0,0,0-.485-1.6,4.128,4.128,0,0,0-2.146-1.512,21.691,21.691,0,0,0-4.4-1,24.647,24.647,0,0,1-3.614-.726,2.121,2.121,0,0,1-1.058-.625.6.6,0,0,1,0-.447c.147-.322.808-.566,1.729-.642a11.553,11.553,0,0,1,2.131.063,3.1,3.1,0,0,1,1.514.562,1.382,1.382,0,0,1,.3.568c.032.125.056.166.1.173s1.232.01,2.673.01l2.621-.01.009-.16a3.117,3.117,0,0,0-.13-.854c-.434-1.472-2.034-2.359-4.9-2.719a18.728,18.728,0,0,0-2.685-.142Zm61.555,3.208,2.815,4.744-5.8-.035ZM768.152,2819.3l-41.52.031v6.9h13.384c12.827,0,13.393.009,13.78.19a1.672,1.672,0,0,1,.9,1.492c.1,1.1.276-.055-10.019,17.906l-6.109,10.488,4.935,4.638,24.646-41.647Zm6.462.036,24.68,41.533,5.027-4.58-6.192-10.515c-10.32-17.725-10.128-16.851-10.028-17.935a1.647,1.647,0,0,1,.905-1.473c.388-.177.956-.188,13.815-.188h13.415v-6.813l-41.621-.031Zm-3.344,7.263-22.463,38.2,5.847,2.771,12.8-21.82,2.142-3.84c.278-.5.618-.691,1.644-.7a1.781,1.781,0,0,1,1.656.685l2.359,3.942,13.083,21.944,5.974-3.369L771.27,2826.6Z" transform="translate(-726.632 -2781.09)" fill="#39a900" fill-rule="evenodd"/>
</svg>
